<?xml version="1.0" standalone="no"?>
<!DOCTYPE svg PUBLIC "-//W3C//DTD SVG 1.1//EN" "http://www.w3.org/Graphics/SVG/1.1/DTD/svg11.dtd" >
<svg xmlns="http://www.w3.org/2000/svg" xmlns:xlink="http://www.w3.org/1999/xlink" version="1.1">
<metadata>
Created by FontForge 20170731 at Wed Mar 31 15:15:21 2021
 By Aleksey,,,
Copyright (c) 2005-2009, Joshua Darden &#38; Phil's Fonts, Inc. All rights reserved. Published by Garagefonts USA 301-879-9222 www.garagefonts.com
</metadata>
<defs>
<font id="FreightBigPro-BlackItalic" horiz-adv-x="1536" >
  <font-face 
    font-family="Freight Big Pro"
    font-weight="900"
    font-style="italic"
    font-stretch="normal"
    units-per-em="2048"
    panose-1="2 0 10 3 2 0 0 9 0 4"
    ascent="1638"
    descent="-410"
    x-height="918"
    cap-height="1280"
    bbox="-487 -627 2836 2013"
    underline-thickness="40"
    underline-position="-312"
    slope="-12"
    unicode-range="U+0020-FB04"
  />
<missing-glyph horiz-adv-x="1024" 
 />
    <glyph glyph-name="ff" unicode="ff" horiz-adv-x="1204" 
d="M975 1237l12 12q55 57 119.5 82t175.5 25q114 0 183 -53.5t69 -131.5q0 -63 -39 -101t-98 -38q-58 0 -95.5 32t-43.5 74.5t22.5 88t89.5 69.5q-49 41 -82 41q-40 0 -73 -32.5t-60 -97t-47.5 -140.5t-42.5 -182l217 -2l-33 -115h-209l-118 -514q-69 -302 -209 -442
q-119 -119 -295 -119q-73 0 -130.5 23t-88.5 63l-27 -29q-119 -119 -278 -119q-102 0 -163 45.5t-61 120.5q0 55 38.5 95t105.5 40q40 0 73.5 -22.5t49.5 -57t2.5 -81t-60.5 -88.5q1 -4 2.5 -9.5t10 -14.5t20.5 -9q43 0 78 54t75 191t91 384l96 483l-197 2l54 119h174
q67 226 166 325q54 54 129.5 80.5t187.5 26.5q141 0 209 -78zM319 -6q38 -4 68.5 -28t44.5 -58.5t0.5 -79.5t-59.5 -86q38 -31 63 -31q52 0 91 48t82 181.5t93 378.5l86 449h-280l-131 -575q-26 -117 -58 -199zM854 997q-44 13 -70 46.5t-27 72t27 77.5t82 60q-61 43 -94 43
q-156 0 -240 -411h285z" />
    <glyph glyph-name="fi" unicode="fi" horiz-adv-x="1128" 
d="M-106 -369q-102 0 -163 45.5t-61 120.5q0 55 38.5 95t105.5 40q40 0 73.5 -22.5t49.5 -57t2.5 -81t-60.5 -88.5q1 -4 2.5 -9.5t10 -14.5t20.5 -9q43 0 78 54t75 191t91 384l96 483l-197 2l54 119h174q30 102 78.5 207.5t101.5 158.5q104 107 328 107q115 0 193.5 -54.5
t78.5 -130.5q0 -63 -39 -101t-98 -38q-58 0 -95.5 32t-43.5 74.5t22.5 88t89.5 69.5q-69 41 -102 41q-52 0 -92.5 -32.5t-71 -98t-51.5 -139.5t-43 -182l249 -2q44 35 78 35q37 0 123 -56t86 -100q0 -31 -55.5 -182.5t-110.5 -287.5l-55 -136l100 -11l146 211l12 -6
q-83 -156 -184 -266.5t-160 -110.5q-33 0 -101.5 65.5t-68.5 111.5q0 25 56 177t112 291l57 140l-2 10h-307l-131 -575q-71 -309 -205 -443q-119 -119 -284 -119z" />
    <glyph glyph-name="fl" unicode="fl" horiz-adv-x="1150" 
d="M999 1284l250 74l-377 -1202l101 -11l145 211l12 -6q-82 -154 -188 -265.5t-166 -111.5q-20 0 -64 31.5t-77.5 76.5t-24.5 75l271 882q-44 11 -69 45t-25.5 73t28.5 78.5t84 61.5q0 2 -1.5 4.5t-8 9.5t-16.5 12.5t-30 10t-46 4.5q-52 0 -93.5 -32.5t-73 -97t-54 -140.5
t-44.5 -182l218 -2l-33 -115h-209l-131 -575q-72 -316 -199 -443q-119 -119 -284 -119q-102 0 -163 45.5t-61 120.5q0 55 38.5 95t105.5 40q40 0 73.5 -22.5t49.5 -57t2.5 -81t-60.5 -88.5q1 -4 2.5 -9.5t10 -14.5t20.5 -9q43 0 78 54t75 191t91 384l96 483l-197 2l54 119
h174q30 102 78.5 207.5t101.5 158.5q104 107 328 107q126 0 208 -72z" />
    <glyph glyph-name="ffi" unicode="ffi" horiz-adv-x="1671" 
d="M979 1233l16 16q104 107 328 107q115 0 193.5 -54.5t78.5 -130.5q0 -63 -39 -101t-98 -38q-47 0 -81.5 20.5t-46.5 53t-8.5 68t32.5 69t78 53.5q-70 41 -103 41q-52 0 -93.5 -32.5t-72.5 -97t-53.5 -140.5t-44.5 -182l256 -2q44 35 78 35q37 0 123 -56t86 -100
q0 -31 -55.5 -182.5t-110.5 -287.5l-56 -136l101 -11l145 211l13 -6q-83 -156 -184.5 -266.5t-160.5 -110.5q-33 0 -101.5 65.5t-68.5 111.5q0 25 56.5 177t113.5 291l56 140l-2 10h-314l-118 -514q-67 -294 -215 -442q-119 -119 -289 -119q-73 0 -130.5 23t-88.5 63
l-27 -29q-119 -119 -278 -119q-102 0 -163 45.5t-61 120.5q0 55 38.5 95t105.5 40q40 0 73.5 -22.5t49.5 -57t2.5 -81t-60.5 -88.5q1 -4 2.5 -9.5t10 -14.5t20.5 -9q43 0 78 54t75 191t91 384l96 483l-197 2l54 119h174q67 226 166 325q54 54 129.5 80.5t187.5 26.5
q144 0 213 -82zM319 -6q38 -4 68.5 -28t44.5 -58.5t0.5 -79.5t-59.5 -86q38 -31 63 -31q52 0 90.5 48t80.5 181t93 379l86 449h-278l-131 -575q-26 -117 -58 -199zM854 997q-44 13 -70 46.5t-27 72t27 77.5t82 60q-61 43 -94 43q-156 0 -240 -411h283q16 54 39 112z" />
    <glyph glyph-name="ffl" unicode="ffl" horiz-adv-x="1683" 
d="M1532 1284l250 74l-377 -1202l100 -11l146 211l12 -6q-82 -154 -188 -265.5t-166 -111.5q-20 0 -64 31.5t-77.5 76.5t-24.5 75l270 882q-44 11 -69 45t-25.5 73t29 78.5t84.5 61.5q0 2 -1.5 4.5t-8.5 9.5t-17 12.5t-30 10t-46 4.5q-52 0 -93.5 -32.5t-72.5 -97
t-53.5 -140.5t-44.5 -182l217 -2l-33 -115h-209l-118 -514q-67 -294 -215 -442q-119 -119 -289 -119q-73 0 -130.5 23t-88.5 63l-27 -29q-119 -119 -278 -119q-102 0 -163 45.5t-61 120.5q0 55 38.5 95t105.5 40q40 0 73.5 -22.5t49.5 -57t2.5 -81t-60.5 -88.5
q1 -4 2.5 -9.5t10 -14.5t20.5 -9q43 0 78 54t75 191t91 384l96 483l-197 2l54 119h174q67 226 166 325q54 54 129.5 80.5t187.5 26.5q144 0 213 -82l16 16q104 107 328 107q127 0 209 -72zM319 -6q38 -4 68.5 -28t44.5 -58.5t0.5 -79.5t-59.5 -86q38 -31 63 -31
q52 0 90.5 48t80.5 181t93 379l86 449h-278l-131 -575q-26 -117 -58 -199zM854 997q-44 13 -70 46.5t-27 72t27 77.5t82 60q-61 41 -94 41q-157 0 -240 -409h283q16 54 39 112z" />
    <glyph glyph-name=".notdef" horiz-adv-x="1024" 
 />
    <glyph glyph-name=".null" horiz-adv-x="0" 
 />
    <glyph glyph-name="nonmarkingreturn" horiz-adv-x="682" 
 />
    <glyph glyph-name="space" unicode=" " horiz-adv-x="368" 
 />
    <glyph glyph-name="exclam" unicode="!" horiz-adv-x="589" 
d="M299 424q-2 -6 -6 -8.5t-7 -0.5t-3 9l2 743q0 166 192 142h6q57 -8 90 -26.5t41 -44.5t4.5 -52t-18.5 -60zM227 -23q-60 0 -104.5 44.5t-44.5 107.5q0 60 44.5 103.5t104.5 43.5t105 -44t45 -103q0 -61 -45 -106.5t-105 -45.5z" />
    <glyph glyph-name="quotedbl" unicode="&#x22;" horiz-adv-x="724" 
d="M451 825l311 494h4l149 -84l-440 -410h-24zM82 825l311 494h4l150 -84l-441 -410h-24z" />
    <glyph glyph-name="numbersign" unicode="#" horiz-adv-x="1011" 
d="M188 -10l107 405h-285v17h289l119 452h-285v17h289l108 413h23l-109 -413h334l109 413h22l-108 -413h282v-17h-286l-119 -452h283v-17h-287l-107 -405h-22l106 405h-334l-106 -405h-23zM322 412h333l119 452h-334z" />
    <glyph glyph-name="dollar" unicode="$" horiz-adv-x="1038" 
d="M240 14q-120 42 -195 90l27 349l8 -2l74 -205q44 -120 110 -178l223 469l-6 4q-64 36 -110.5 67.5t-95.5 77.5t-75 102.5t-26 120.5q0 157 129 275.5t313 118.5q100 0 218 -43l122 256h25l-127 -265q27 -11 78 -37l137 27l-61 -371h-7l-153 340l-10 9l-191 -402
q19 -11 33 -16q67 -35 113.5 -66.5t98 -80t78.5 -110.5t27 -136q0 -83 -36 -161.5t-99 -139t-155.5 -97.5t-198.5 -37q-118 0 -248 35q0 1 -41 -85t-82 -173l-41 -86h-24zM283 55q85 -63 219 -63q118 0 187 76.5t69 181.5q0 40 -14.5 75t-34.5 60.5t-57.5 53t-66.5 44.5
t-77 43zM819 1231q-76 49 -174 49q-95 0 -161 -66t-66 -149q0 -75 53.5 -129t155.5 -109z" />
    <glyph glyph-name="percent" unicode="%" horiz-adv-x="1124" 
d="M397 791q-115 0 -184.5 75t-69.5 183q0 109 69.5 185.5t184.5 76.5q116 0 186 -76.5t70 -185.5q0 -108 -70 -183t-186 -75zM-8 -29l1196 1340h26l-1196 -1340h-26zM813 -27q-115 0 -184.5 74.5t-69.5 181.5q0 110 69.5 187.5t184.5 77.5q116 0 186 -77.5t70 -187.5
q0 -107 -70 -181.5t-186 -74.5zM397 811q104 0 168 68t64 170q0 101 -64.5 171t-167.5 70t-166 -70t-63 -171q0 -102 63 -170t166 -68zM813 -6q104 0 167.5 67.5t63.5 169.5q0 101 -64 171.5t-167 70.5t-166 -70t-63 -172t62.5 -169.5t166.5 -67.5z" />
    <glyph glyph-name="ampersand" unicode="&#x26;" horiz-adv-x="1597" 
d="M1362 840q91 -36 144 -106.5t53 -160.5q0 -169 -107.5 -308t-288.5 -216.5t-395 -77.5q-168 0 -300 39t-215 107.5t-126 159t-43 196.5q0 131 86.5 231t228.5 154q-37 66 -37 129q0 142 96 232t244 90q94 0 165.5 -48.5t103 -125.5t18.5 -164l-18 4q6 85 -43.5 134.5
t-139.5 49.5q-78 0 -122.5 -59.5t-44.5 -132.5q0 -24 4 -60q20 2 63 2q92 0 146.5 -34t54.5 -93q0 -46 -48.5 -79t-119.5 -33q-88 0 -170 44.5t-133 114.5q-99 -60 -99 -204q0 -213 173.5 -335t463.5 -122q256 0 418 117t162 288q0 101 -67.5 168.5t-168.5 67.5
q-52 0 -116 -71t-64 -126q0 -70 40.5 -107.5t113.5 -37.5q-37 17 -54 55t-12 76t35.5 67t79.5 29q50 0 81.5 -33.5t31.5 -87.5q0 -60 -43.5 -95.5t-116.5 -35.5q-111 0 -194 76t-83 191q0 63 27 115t71 87.5t96.5 66t105 59.5t96.5 60.5t71 75.5t27 97q0 47 -51 78.5
t-121 31.5q32 -8 54 -37t26 -64.5t-5 -70t-41.5 -57.5t-80.5 -23q-53 0 -89 35t-36 92q0 64 50 105t130 41q123 0 213 -84t90 -201q0 -86 -62 -148t-208 -128zM629 885q24 -131 147 -131q27 0 47.5 17t20.5 36q0 34 -43.5 57t-112.5 23q-41 0 -59 -2z" />
    <glyph glyph-name="quotesingle" unicode="'" horiz-adv-x="360" 
d="M82 825l311 494h4l150 -84l-441 -410h-24z" />
    <glyph glyph-name="parenleft" unicode="(" horiz-adv-x="647" 
d="M424 -549q-61 44 -118.5 110.5t-111 160t-84.5 204t-39 243t25 275.5q30 139 93.5 266t139.5 220.5t166 171t172 126t158 77.5l11 -21q-77 -29 -157.5 -77.5t-168.5 -125t-161.5 -168.5t-134 -215.5t-89.5 -257.5q-32 -141 -24.5 -270.5t37 -237.5t80.5 -199t106.5 -156
t115.5 -107z" />
    <glyph glyph-name="parenright" unicode=")" horiz-adv-x="647" 
d="M-203 -549l-10 21q77 29 157.5 77.5t168.5 125t161.5 168.5t134 215.5t89.5 258.5q32 140 24.5 269.5t-37 237.5t-81 199t-107 156t-115.5 107l17 19q61 -44 118.5 -110.5t110.5 -160.5t84 -204.5t39 -242t-25 -274.5q-30 -139 -93.5 -266.5t-139.5 -221t-166.5 -171
t-172 -126t-157.5 -77.5z" />
    <glyph glyph-name="asterisk" unicode="*" horiz-adv-x="655" 
d="M504 614l-127 58l49 286q0 3 -3 6t-6.5 3.5t-4.5 -2.5l-158 -232l-135 39q-1 1 -2.5 1.5t-2.5 1.5t-1 3l16 142l277 49q6 1 8.5 4t1 6t-7.5 4l-265 107l13 143q0 2 2 2t5.5 -1t4.5 -1l139 12l105 -258q2 -4 8 -3.5t6 5.5l12 289l142 31l2 -4l59 -119l-211 -199
q-2 -3 1.5 -8t6.5 -4l273 84l75 -121q3 -3 1 -5l-3 -3l-96 -99l-250 142q-3 2 -8 -4.5t-2 -10.5l164 -235l-84 -105z" />
    <glyph glyph-name="plus" unicode="+" horiz-adv-x="886" 
d="M440 49v424h-417l4 25h413v415h25v-415h412l4 -25h-416v-424h-25z" />
    <glyph glyph-name="comma" unicode="," horiz-adv-x="446" 
d="M-68 -258l-4 8q250 89 250 262q0 67 -53 100t-119 3q-13 38 1.5 83.5t57 80t101.5 34.5q90 0 134 -55t44 -131q0 -120 -114 -231t-298 -154z" />
    <glyph glyph-name="hyphen" unicode="-" horiz-adv-x="573" 
d="M39 438l24 82h490l-25 -82h-489z" />
    <glyph glyph-name="period" unicode="." horiz-adv-x="462" 
d="M164 -23q-61 0 -105.5 45t-44.5 109q0 60 45 105t105 45t104.5 -45.5t44.5 -104.5q0 -63 -44.5 -108.5t-104.5 -45.5z" />
    <glyph glyph-name="slash" unicode="/" horiz-adv-x="509" 
d="M33 -506l430 1796h20l-430 -1796h-20z" />
    <glyph glyph-name="zero" unicode="0" horiz-adv-x="1191" 
d="M575 -29q-219 0 -357 130t-138 333q0 162 74 298t202.5 215t282.5 79q218 0 357 -130t139 -333q0 -162 -75 -298.5t-204 -215t-281 -78.5zM522 -6q72 0 137 83t106.5 204t66 250.5t24.5 230.5q0 121 -42 181.5t-130 60.5q-69 0 -132.5 -83t-104.5 -204.5t-65 -252
t-24 -231.5q0 -121 39 -180t125 -59z" />
    <glyph glyph-name="one" unicode="1" horiz-adv-x="747" 
d="M-10 0q-1 0 1 3t5 6l2 3l39 2q60 4 82.5 9t25.5 22l183 889l-166 39l6 12l487 27l-204 -971q-1 -6 5 -10t22.5 -7t35 -5t49.5 -5l27 -2l2 -12h-602z" />
    <glyph glyph-name="two" unicode="2" horiz-adv-x="1017" 
d="M-45 0l6 94q149 84 248 145t173 117t113 104.5t57.5 96.5t18.5 105q0 88 -56 146t-157 58q-123 0 -211 -127l-12 6q91 139 191.5 209t228.5 70q146 0 236 -75.5t90 -186.5q0 -133 -124 -227.5t-489 -285.5q-40 -21 -61 -32v-6l547 -2q28 0 79.5 61.5t145.5 208.5l14 23
l15 -2l-220 -500h-833z" />
    <glyph glyph-name="three" unicode="3" horiz-adv-x="944" 
d="M229 -408q-168 0 -263 52t-95 151q0 51 37 93t100 42q64 0 108 -44t47 -107.5t-38 -134.5q36 -29 92 -29q82 0 151.5 54.5t107.5 140t38 178.5q0 133 -72 209.5t-196 76.5q-66 0 -142 -24l-6 14q97 42 156.5 69.5t119 60.5t91.5 59.5t59 60t37 70t10 82.5
q0 85 -55.5 139.5t-142.5 54.5q-68 0 -132.5 -45.5t-105.5 -112.5l-12 9q185 311 438 311q142 0 229 -74.5t87 -185.5q0 -102 -91 -178t-301 -150v-4q2 0 7.5 -1t7.5 -1q98 0 173.5 -49t112.5 -123t37 -156q0 -97 -51.5 -191t-134 -163t-191 -111.5t-217.5 -42.5z" />
    <glyph glyph-name="four" unicode="4" horiz-adv-x="1087" 
d="M381 -377l78 379h-535l2 27l871 968h155l-174 -817l219 -2l-57 -176h-201l-80 -379h-278zM100 180h398l120 572h-6z" />
    <glyph glyph-name="five" unicode="5" horiz-adv-x="880" 
d="M139 -410q-149 0 -227 53.5t-78 129.5q0 63 44.5 114.5t105.5 51.5q48 0 84 -26.5t49.5 -64.5t0 -84.5t-56.5 -82.5q14 -23 49.5 -42.5t79.5 -19.5q114 0 196.5 99.5t82.5 240.5q0 140 -113 233.5t-327 114.5l315 680h553l-49 -256h-598l-78 -172q151 -13 263 -55
t176.5 -104.5t95 -135t30.5 -155.5q0 -98 -51 -193.5t-133.5 -166.5t-192.5 -115t-221 -44z" />
    <glyph glyph-name="six" unicode="6" horiz-adv-x="1120" 
d="M530 -33q-216 0 -338 126.5t-122 324.5q0 138 53 271t157.5 246t245.5 196t330.5 125t400.5 30l5 -14q-135 0 -255 -38.5t-214 -108.5t-166.5 -158t-126.5 -195l4 -2q133 68 244 68q148 0 236.5 -100t88.5 -249q0 -136 -68 -255t-194 -193t-281 -74zM498 -10
q58 0 109 53.5t84 135t52 172t19 169.5q0 119 -49.5 180.5t-139.5 61.5q-42 0 -84 -10q-122 -253 -122 -533q0 -229 131 -229z" />
    <glyph glyph-name="seven" unicode="7" horiz-adv-x="972" 
d="M51 -377l795 1122l-2 5h-355q-139 0 -217 -18.5t-115.5 -55t-62.5 -107.5l-8 -20l-16 2l147 440h789l-2 -22l-682 -1346h-271z" />
    <glyph glyph-name="eight" unicode="8" horiz-adv-x="1069" 
d="M504 -31q-127 0 -234.5 46t-170 126t-62.5 176q0 114 100.5 196t263.5 97v4q-102 58 -161.5 135t-59.5 169q0 97 66 189t171.5 148t215.5 56q202 0 334.5 -88t132.5 -224q0 -111 -104.5 -179.5t-256.5 -84.5v-4q117 -60 185.5 -151t68.5 -195q0 -102 -69 -198.5
t-183 -157t-237 -60.5zM715 745q61 30 96 122t35 184q0 105 -53.5 172t-137.5 67q-93 0 -152 -71.5t-59 -169.5q0 -82 63 -155t208 -149zM489 -8q101 0 173.5 75.5t72.5 180.5q0 91 -77 181.5t-228 170.5q-61 -31 -97 -123t-36 -198q0 -124 54.5 -205.5t137.5 -81.5z" />
    <glyph glyph-name="nine" unicode="9" horiz-adv-x="1120" 
d="M-115 -301l-4 14q135 0 255 39t213.5 109t165.5 157.5t126 194.5h-2q-133 -68 -244 -68q-148 0 -236.5 100t-88.5 251q0 135 68 254t193.5 193.5t280.5 74.5q216 0 338.5 -127t122.5 -324q0 -115 -38 -228t-108.5 -212.5t-176.5 -183t-235 -141.5t-291.5 -85.5
t-338.5 -17.5zM569 221q32 0 82 12q125 262 125 531q0 231 -131 231q-76 0 -139 -91.5t-94 -211.5t-31 -227q0 -120 49 -182t139 -62z" />
    <glyph glyph-name="colon" unicode=":" horiz-adv-x="458" 
d="M291 571q-61 0 -105.5 45t-44.5 109q0 60 44 103.5t104 43.5t105.5 -44.5t45.5 -102.5q0 -63 -44.5 -108.5t-104.5 -45.5zM164 -23q-60 0 -105 44.5t-45 107.5q0 60 45 105t105 45t104.5 -45.5t44.5 -104.5q0 -61 -44.5 -106.5t-104.5 -45.5z" />
    <glyph glyph-name="semicolon" unicode=";" horiz-adv-x="446" 
d="M285 571q-61 0 -105.5 44.5t-44.5 107.5q0 60 44 104.5t104 44.5t105.5 -45t45.5 -104q0 -61 -44.5 -106.5t-104.5 -45.5zM-68 -256l-4 8q128 45 189 109t61 151q0 67 -52.5 99.5t-119.5 3.5q-21 60 26 129t134 69q89 0 133.5 -55.5t44.5 -130.5q0 -119 -114 -229.5
t-298 -153.5z" />
    <glyph glyph-name="less" unicode="&#x3c;" horiz-adv-x="860" 
d="M834 68l-816 403v23l816 401l10 -23l-793 -387v-4l793 -391z" />
    <glyph glyph-name="equal" unicode="=" horiz-adv-x="876" 
d="M45 647l-6 25h815l-6 -25h-803zM39 293l6 24h803l6 -24h-815z" />
    <glyph glyph-name="greater" unicode="&#x3e;" horiz-adv-x="860" 
d="M43 68l-10 22l792 391v4l-792 387l10 23l815 -401v-23z" />
    <glyph glyph-name="question" unicode="?" horiz-adv-x="702" 
d="M322 375q-62 56 -101 124t-39 126q0 73 74.5 112.5t220.5 59.5q127 16 172 41t45 61q0 68 -102 119t-260 51q-16 0 -103 -6q-53 46 -53 106q0 63 42 104.5t114 41.5q87 0 160.5 -36.5t121.5 -96.5t74.5 -135.5t26.5 -155.5q0 -142 -48.5 -219t-148.5 -97
q-113 -22 -166.5 -39.5t-64.5 -29.5t-11 -35q0 -21 12.5 -39t45.5 -51zM270 -23q-60 0 -104.5 44.5t-44.5 107.5q0 60 44.5 103.5t104.5 43.5t105 -44t45 -103q0 -61 -45 -106.5t-105 -45.5z" />
    <glyph glyph-name="at" unicode="@" horiz-adv-x="1576" 
d="M836 -211q-162 0 -300.5 52t-236 143.5t-152.5 221.5t-55 283q0 167 63.5 320t170 263.5t253.5 176.5t308 66q192 0 345.5 -81t240 -225.5t86.5 -324.5q0 -150 -66 -281t-177 -208.5t-237 -77.5q-98 0 -158.5 51t-60.5 141q0 57 47 172h-2q-112 -196 -192 -280t-178 -84
q-83 0 -143.5 56t-63.5 140q0 110 69 240.5t189 249.5q82 85 160 121.5t137 36.5q69 0 101.5 -67.5t10.5 -158.5h2l105 271l246 -9l-142 -354l-92 -233q-15 -50 -13 -90.5t36 -65.5t98 -25q48 0 100.5 33.5t98 90.5t75 145t29.5 186q0 264 -184.5 438t-466.5 174
q-157 0 -300.5 -64.5t-247 -173.5t-165 -258t-61.5 -311q0 -197 91.5 -352.5t256.5 -242.5t375 -87q217 0 398 111t263 279l19 -9q-84 -172 -270.5 -285.5t-409.5 -113.5zM645 256q57 0 118.5 61.5t133.5 210.5q59 111 59 154q0 68 -38.5 134.5t-77.5 66.5q-11 0 -21 -5
t-14 -9l-17 -17q-67 -64 -140 -225.5t-73 -274.5q0 -44 19.5 -70t50.5 -26z" />
    <glyph glyph-name="A" unicode="A" horiz-adv-x="1335" 
d="M664 535h-291l-99 -185q-15 -27 -42 -73q-48 -82 -64 -114t-30 -67.5t5 -45.5t44.5 -18.5t86.5 -15.5l35 -4l2 -12h-432l6 12l39 4q23 2 39 4t34 8.5t28 9.5t27 17.5t25 22t26.5 34t28.5 41.5t34 56t38.5 67.5t47.5 85.5l356 666l-4 96q57 7 104 33.5t80.5 63t77.5 98.5
h49l109 -1030q16 -111 40 -171t51.5 -79.5t72.5 -22.5l53 -4v-12h-696l8 12l47 4q73 6 90.5 39t5.5 127zM387 561h275l-39 434h-5z" />
    <glyph glyph-name="B" unicode="B" horiz-adv-x="1296" 
d="M-70 0l7 12l77 8q101 11 105 33l250 1180q1 6 -2 9t-16 6.5t-33.5 6l-61.5 7.5l-51 6l-2 12h594q241 0 370 -77t129 -210q0 -119 -106.5 -197t-298.5 -91v-5q162 -30 252 -115.5t90 -203.5q0 -180 -149.5 -280.5t-460.5 -100.5h-693zM539 20h43q133 0 225 111.5t92 263.5
q0 127 -87 216t-216 89h-12l-133 -630zM700 709q132 0 205.5 93.5t73.5 239.5q0 97 -53.5 152.5t-157.5 65.5h-63l-117 -535q70 -16 112 -16z" />
    <glyph glyph-name="C" unicode="C" horiz-adv-x="1406" 
d="M786 -20q-129 0 -240.5 34t-191 92.5t-136.5 137t-84.5 167.5t-27.5 183q0 137 49.5 262.5t142.5 226.5t241.5 161.5t330.5 60.5q240 0 394 -107l153 51l-39 -399l-14 2l-143 326q-51 45 -127 70.5t-138 25.5q-80 0 -151.5 -34.5t-125.5 -94.5t-98 -138t-71.5 -167
t-42 -181t-14.5 -180q0 -231 96.5 -354t279.5 -123q239 0 392 274l90 162l10 -4l-98 -409l-70 -2q-61 -15 -169 -29t-198 -14z" />
    <glyph glyph-name="D" unicode="D" horiz-adv-x="1454" 
d="M-68 0l7 12l79 8q99 11 103 33l250 1180q1 6 -2.5 9.5t-16 6.5t-33.5 6t-59 7l-53 6l-2 12h577q156 0 282 -42.5t208 -118.5t126 -179t44 -225q0 -141 -58.5 -270t-164.5 -228t-267.5 -158t-353.5 -59h-666zM584 23q95 0 178 46t144 126.5t105.5 188t66.5 232.5t22 258
q0 381 -316 381h-82l-253 -1200z" />
    <glyph glyph-name="E" unicode="E" horiz-adv-x="1282" 
d="M-68 0l7 12l79 8q99 11 103 33l250 1180q1 6 -2 9.5t-15 6.5t-34 6t-60 7l-53 6l-2 12h1038l-2 -434h-16l-6 22q-24 98 -60 169.5t-77.5 115t-95.5 68t-108.5 32t-121.5 4.5l-54 -4l-124 -587l84 2q222 12 294 200l19 45h14l-123 -540h-14l4 45q0 115 -44 165.5
t-177 59.5l-62 4l-131 -618l152 -11q187 3 340.5 100.5t251.5 295.5l12 22h16l-133 -436h-1149z" />
    <glyph glyph-name="F" unicode="F" horiz-adv-x="1204" 
d="M-68 0l7 12l79 8q99 11 103 33l250 1180q1 6 -2 9.5t-15 6.5t-34 6t-60 7l-53 6l-2 12h1077l-41 -434h-16l-4 22q-20 120 -50.5 197t-79 119t-105.5 57.5t-142 15.5l-144 -8l-125 -592l84 2q222 12 295 201l19 45h14l-121 -540h-14l2 41q2 118 -43.5 173.5t-177.5 55.5
h-62l-125 -588q-1 -8 5 -12.5t30 -8.5t74 -8l74 -4l2 -14h-699z" />
    <glyph glyph-name="G" unicode="G" horiz-adv-x="1497" 
d="M786 -33q-197 0 -352.5 79t-242.5 220t-87 320q0 155 58 288.5t159.5 228t246 148.5t311.5 54q261 0 417 -101l150 45l-49 -418l-15 3l-145 352q-38 40 -107.5 66t-138.5 26q-149 0 -272.5 -107t-194.5 -294t-71 -414q0 -221 87 -347t238 -126q45 0 83 9t50 17l101 494
q1 5 -8 9.5t-28 8t-48 6.5t-68 5l-55 6l-2 12h702l-8 -12l-98 -6q-34 -2 -52 -8t-20.5 -10t-3.5 -13l-88 -412l123 27v-10q-110 -57 -271 -101.5t-301 -44.5z" />
    <glyph glyph-name="H" unicode="H" horiz-adv-x="1540" 
d="M-68 0l7 12l79 8q99 8 103 33l250 1180q1 6 -2 9.5t-15 6.5t-34 6t-60 7l-53 6l-2 12h676l-9 -12l-73 -8q-99 -11 -103 -33l-118 -565h481l123 571q1 6 -2 9t-16 6.5t-32.5 6t-60.5 7.5l-49 6l-2 12h676l-8 -12l-78 -8q-99 -11 -103 -33l-250 -1180q-1 -6 2 -9.5t15 -6.5
t34 -6t60 -7l53 -6l2 -12h-675l6 12l75 8q99 11 103 33l123 588h-482l-127 -594q-1 -6 2 -9t16 -6.5t32.5 -6t60.5 -7.5l49 -6l2 -12h-676z" />
    <glyph glyph-name="I" unicode="I" horiz-adv-x="788" 
d="M-37 0l6 12l80 8q49 4 75 13.5t28 19.5l249 1180q1 6 -2 9t-15 6.5t-33.5 6.5t-59.5 7l-58 6l-2 12h682l-8 -12l-78 -8q-98 -8 -102 -33l-250 -1180q-1 -6 2 -9.5t15 -6.5t34 -6t60 -7l53 -6l2 -12h-678z" />
    <glyph glyph-name="J" unicode="J" horiz-adv-x="784" 
d="M-166 -379q-106 0 -165.5 48t-59.5 118q0 63 50 111.5t116 48.5q56 0 94 -34t47.5 -80.5t-12 -98.5t-72.5 -84q114 -23 197 93t129 341l243 1147q1 6 -2 10t-15 7.5t-33 6.5t-60 7l-58 6l-2 12h682l-8 -12l-78 -8q-98 -11 -102 -35l-246 -1168q-10 -47 -78 -121.5
t-160.5 -144t-205.5 -120t-201 -50.5z" />
    <glyph glyph-name="K" unicode="K" horiz-adv-x="1474" 
d="M-66 0l7 12l77 8q99 8 103 33l250 1180q1 6 -2 9.5t-15 6.5t-34 6t-60 7l-53 6l-6 12h684l-6 -12l-80 -8q-49 -4 -75 -13.5t-28 -19.5l-129 -621l369 309q225 193 250 265q18 51 -51 70q-32 9 -88 14l-43 4l-7 12h576l-6 -12l-64 -6q-30 -3 -59 -10.5t-51 -14.5t-56 -28
t-52.5 -32.5t-64 -48t-66 -53.5t-83 -69.5t-92.5 -77.5l-25 -21l240 -678q37 -98 64 -143t50 -57t68 -15l23 -2l4 -12h-653l6 12l18 2q49 5 71.5 14.5t31 39.5t-4 82t-45.5 147l-135 383l-135 -113l-111 -520q-1 -6 2 -9t14.5 -6.5t33.5 -6.5t61 -7l55 -6l6 -12h-684z" />
    <glyph glyph-name="L" unicode="L" horiz-adv-x="1261" 
d="M-68 0l7 12l79 8q99 11 103 33l250 1180q1 6 -2 9.5t-15 6.5t-34 6t-60 7l-53 6l-2 12h700l-8 -12l-98 -8q-35 -5 -68.5 -15t-34.5 -18l-254 -1198l150 -11q140 0 271 100.5t286 352.5l14 27h15l-121 -498h-1125z" />
    <glyph glyph-name="M" unicode="M" horiz-adv-x="1769" 
d="M-74 0l6 12l39 2q158 9 183 107l247 1036q-14 47 -55.5 74.5t-89.5 30.5l-57 4l-4 14h524l143 -844l4 -2l498 846h504l-8 -12l-78 -8q-99 -11 -103 -33l-249 -1180q-1 -6 2 -9t15 -6.5t33.5 -6.5t59.5 -7l53 -6l2 -12h-688l6 12l101 8q86 7 90 33l237 1137h-4l-700 -1190
h-31l-188 1112h-4l-236 -1016q-3 -15 2 -27t22.5 -24t56 -20t95.5 -11l35 -2l2 -12h-465z" />
    <glyph glyph-name="N" unicode="N" horiz-adv-x="1427" 
d="M1079 -12l-657 1083h-4l-209 -979q-4 -20 7 -34.5t54 -27t119 -16.5l35 -2l2 -12h-465l6 12l39 2q160 9 178 103l217 979q-39 77 -101 118t-118 46l-16 2l-2 18h545l477 -784l4 2l147 690q4 20 -7 34.5t-54 27t-119 16.5l-35 2l-2 12h465l-8 -12l-37 -2
q-160 -9 -178 -103l-260 -1175h-23z" />
    <glyph glyph-name="O" unicode="O" horiz-adv-x="1529" 
d="M764 -27q-190 0 -337.5 85t-225.5 228t-78 318q0 133 54 259.5t148 224.5t233 157.5t298 59.5q144 0 267.5 -51t208 -138.5t132 -205t47.5 -248.5q0 -133 -53.5 -257t-148.5 -220t-237 -154t-308 -58zM727 -4q127 0 232.5 129t163 337t57.5 443q0 173 -74 273t-213 100
q-87 0 -162 -65.5t-125 -168t-85.5 -230t-51.5 -249t-16 -227.5q0 -161 69.5 -251.5t204.5 -90.5z" />
    <glyph glyph-name="P" unicode="P" horiz-adv-x="1271" 
d="M-68 0l7 12l79 8q99 11 103 33l250 1180q1 6 -2 9.5t-15 6.5t-34 6t-60 7l-53 6l-2 12h600q255 0 388.5 -91.5t133.5 -238.5q0 -173 -141.5 -272.5t-394.5 -99.5q-145 0 -226 22l-119 -553q-1 -8 5 -12.5t30 -8.5t74 -8l74 -4l2 -14h-699zM664 604q133 0 226 122t93 290
q0 102 -50.5 165.5t-150.5 78.5h-77l-136 -637q3 -1 25.5 -7t38.5 -9t31 -3z" />
    <glyph glyph-name="Q" unicode="Q" horiz-adv-x="1529" 
d="M1219 -375q-79 0 -140 4t-123 14.5t-109.5 29t-93 48t-80.5 70t-64.5 96t-51.5 125.5q-200 52 -317 213.5t-117 378.5q0 133 54 259.5t148 224.5t233 157.5t298 59.5q144 0 267.5 -51.5t208 -139t132 -204.5t47.5 -248q0 -232 -153 -420.5t-406 -247.5
q32 -140 79.5 -212.5t135.5 -104t244 -29.5v-10q-89 -13 -192 -13zM727 -4q131 0 236 129.5t161 336t56 443.5q0 172 -74.5 272.5t-212.5 100.5q-87 0 -162 -65.5t-125 -168t-85.5 -230t-51.5 -250t-16 -228.5q0 -159 69.5 -249.5t204.5 -90.5z" />
    <glyph glyph-name="R" unicode="R" horiz-adv-x="1374" 
d="M-68 0l7 12l79 8q99 8 103 33l250 1180q1 6 -2 9.5t-15 6.5t-34 6t-60 7l-53 6l-2 12h612q143 0 261 -35t193 -108.5t75 -173.5q0 -130 -104.5 -207.5t-299.5 -77.5l160 -406q57 -152 90 -195.5t111 -60.5l16 -4l2 -12h-479l-215 672l-43 20l-138 -645q-1 -8 4.5 -12
t29.5 -8.5t75 -8.5l74 -4l2 -14h-699zM719 694q132 0 211.5 96.5t79.5 223.5q0 105 -72 174t-197 69h-39l-114 -544q74 -19 131 -19z" />
    <glyph glyph-name="S" unicode="S" horiz-adv-x="1093" 
d="M528 -27q-250 0 -462 131l26 349l8 -2l74 -205q44 -126 127 -190t221 -64q118 0 187 76.5t69 181.5q0 30 -8 57t-19.5 48t-34 43.5t-40 37t-50.5 35.5t-52.5 31.5l-58.5 31.5q-9 5 -13 7q-64 36 -110.5 67.5t-95.5 77.5t-75 102.5t-26 120.5q0 157 129 275.5t313 118.5
q151 0 315 -89l138 27l-62 -371h-6l-154 340q-26 26 -84.5 48t-117.5 22q-95 0 -161.5 -66t-66.5 -149q0 -36 15 -69t35.5 -57t59.5 -50.5t69.5 -44t82.5 -43.5q52 -28 90.5 -51.5t84 -61t74.5 -75.5t49 -91.5t20 -113.5q0 -83 -36 -161.5t-99 -139t-156 -97.5t-199 -37z
" />
    <glyph glyph-name="T" unicode="T" horiz-adv-x="1409" 
d="M274 0l7 12l84 8q98 8 102 33l254 1211h-27q-208 -13 -483 -385l-25 -33h-12l148 434h1144l-59 -432h-8l-10 31q-17 56 -33 99t-44.5 99t-59.5 93t-76 64.5t-97 29.5h-30l-258 -1217q-1 -6 2 -9t14.5 -6.5t33 -6.5t60.5 -7l57 -6l3 -12h-687z" />
    <glyph glyph-name="U" unicode="U" horiz-adv-x="1449" 
d="M754 -35q-264 0 -407.5 103.5t-143.5 298.5q0 78 22 188q2 11 6 30.5t16 76.5t23.5 111t26 124t26.5 127t22.5 106.5t16 77t5.5 25.5q1 6 -1.5 9t-13 6.5t-31.5 6.5t-59 7l-57 6l-2 12h682l-8 -12l-78 -8q-99 -10 -103 -33l-139 -664q-25 -122 -25 -203
q0 -157 82.5 -225.5t249.5 -68.5q283 0 353 331l167 791q4 19 -8 34.5t-56 28.5t-120 17h-37l-4 12h471l-8 -12h-39q-155 -9 -174 -105l-170 -770q-45 -208 -166 -318t-319 -110z" />
    <glyph glyph-name="V" unicode="V" horiz-adv-x="1388" 
d="M598 -10l-207 1022q-26 115 -45.5 165t-41.5 67t-66 20l-54 4v12h670l-6 -12l-53 -2q-93 -3 -107.5 -35t14.5 -133l138 -690h6l317 522q17 29 48 79q104 164 101 203t-132 52l-35 4l-2 12h432l-8 -12l-37 -4q-29 -3 -48 -6t-41 -12t-35 -16.5t-34.5 -30.5t-35.5 -41
t-41.5 -60t-49 -76.5t-61.5 -101.5l-566 -930h-20z" />
    <glyph glyph-name="W" unicode="W" horiz-adv-x="2052" 
d="M573 -33l-211 1045q-22 109 -40 159t-41 69.5t-66 23.5l-35 4l-2 12h664l-8 -12l-62 -2q-56 -2 -81.5 -13.5t-27 -31.5t4.5 -50l147 -768l4 -2l330 547l-10 68q-22 141 -50 192t-85 56l-56 4l-2 12h694l-8 -12l-57 -2q-80 -3 -104 -26t-15 -91l107 -733h4l295 520
q15 27 43 75q91 143 86 191.5t-142 61.5l-41 4l-2 12h441l-9 -12l-28 -4q-30 -4 -49 -7t-40 -12t-32 -13.5t-29.5 -23.5t-26.5 -29t-29 -43.5t-32.5 -53t-41.5 -71.5t-50 -87l-545 -957h-26l-154 944h-4l-567 -944h-11z" />
    <glyph glyph-name="X" unicode="X" horiz-adv-x="1372" 
d="M-96 0l6 12l78 6q82 7 146 60.5t270 278.5q32 34 49 53l135 145l-185 469q-7 19 -18.5 48.5t-16.5 43t-14 35t-14 30.5t-12.5 23.5t-14 20.5t-15 14.5t-17 12t-19.5 6.5t-24 4l-66 6l-2 12h707l-9 -12l-49 -2q-74 -3 -94 -33t6 -105l119 -309l4 -2l84 90q177 198 211 248
q44 62 17 83q-21 17 -128 26l-43 4l-2 12h490l-8 -12l-56 -6q-27 -3 -47 -6.5t-44.5 -14.5t-41 -20t-47.5 -35.5t-53 -47t-67.5 -68.5t-81 -86t-103.5 -112l-72 -77l217 -549q57 -145 83 -187t75 -45l39 -2l2 -12h-678l6 12l49 2q77 3 99.5 31t-2.5 96l-156 391h-2
q1 0 -35.5 -40t-72.5 -80l-37 -39q-183 -197 -219 -251q-40 -60 -9 -81q24 -15 127 -25l43 -4l2 -12h-489z" />
    <glyph glyph-name="Y" unicode="Y" horiz-adv-x="1370" 
d="M250 0l6 12l84 8q98 8 102 33l113 535l-147 448q-23 69 -38.5 105.5t-36.5 65t-45.5 40.5t-62.5 17l-28 4v12h688l-8 -12l-21 -2q-101 -8 -132.5 -33t-18.5 -64l165 -516l7 -2l186 246q145 196 172 254q31 64 -7 87q-29 18 -124 26l-43 4l-2 12h489l-8 -12l-55 -6
q-40 -4 -68 -14t-57.5 -31.5t-64 -61t-80 -97.5t-112.5 -146l-12 -16.5t-11 -14.5t-13 -17l-178 -235l-123 -582q-1 -6 2 -9.5t15 -6.5t34 -6t60 -7l53 -6l2 -12h-682z" />
    <glyph glyph-name="Z" unicode="Z" horiz-adv-x="1294" 
d="M-29 0l2 12l996 1233l-2 4l-146 8q-168 0 -327 -103t-258 -288l-11 -20h-12l111 434h1056l-4 -10l-1024 -1233v-4l140 -10q114 -8 201 10t174.5 75t171.5 153t190 251l20 33h13l-185 -545h-1106z" />
    <glyph glyph-name="bracketleft" unicode="[" horiz-adv-x="626" 
d="M-94 -506l381 1786h499l-4 -20h-477l-371 -1745h478l-6 -21h-500z" />
    <glyph glyph-name="backslash" unicode="\" horiz-adv-x="475" 
d="M418 -506l-430 1796h20l430 -1796h-20z" />
    <glyph glyph-name="bracketright" unicode="]" horiz-adv-x="626" 
d="M-184 -506l6 21h477l371 1745h-477l4 20h499l-381 -1786h-499z" />
    <glyph glyph-name="asciicircum" unicode="^" horiz-adv-x="757" 
d="M199 983l372 403h17l203 -403h-15l-235 164h-4l-324 -164h-14z" />
    <glyph glyph-name="underscore" unicode="_" horiz-adv-x="913" 
d="M-53 -57l6 59h819l6 -59h-831z" />
    <glyph glyph-name="grave" unicode="`" horiz-adv-x="878" 
d="M786 1006l-419 383h262l170 -383h-13z" />
    <glyph glyph-name="a" unicode="a" horiz-adv-x="1099" 
d="M754 -27q-38 0 -107 70.5t-69 106.5q0 41 16.5 93t75.5 201h-4q-72 -132 -118 -207t-98.5 -140.5t-101 -92.5t-104.5 -27q-99 0 -164.5 63t-65.5 159q0 121 76.5 266.5t208.5 277.5q177 177 319 177q53 0 85.5 -39t37.5 -99t-10 -133h6l101 248l268 -8l-168 -438
l-109 -295l109 -11l133 213l12 -6q-72 -155 -170.5 -267t-158.5 -112zM367 133q60 0 123 67t145 234q67 132 67 170q0 83 -46.5 153t-100.5 70q-13 0 -47 -30q-70 -71 -141.5 -249.5t-71.5 -303.5q0 -111 72 -111z" />
    <glyph glyph-name="b" unicode="b" horiz-adv-x="1030" 
d="M358 -31q-39 0 -84.5 13t-89 38t-76 61t-45.5 82.5t3 102.5l294 991q5 17 2.5 32.5t-12.5 15.5l-164 6l4 12l480 35l-41 -131q-64 -209 -116 -368t-95.5 -283.5t-50.5 -145.5q-6 -18 -3 -19t11 13q119 271 209 382.5t194 111.5q110 0 170 -68.5t60 -163.5
q0 -142 -64.5 -280.5t-173.5 -247.5q-89 -89 -196 -139t-216 -50zM389 -10q62 0 103 41q86 86 162.5 272t76.5 320q0 74 -21 107.5t-65 33.5q-57 0 -131 -114t-149 -304q-29 -69 -47.5 -143t-18.5 -113q0 -36 25.5 -68t64.5 -32z" />
    <glyph glyph-name="c" unicode="c" horiz-adv-x="811" 
d="M324 -25q-126 0 -216 90.5t-90 233.5q0 109 43 219t118 199t187 145t238 56q95 0 163.5 -49t68.5 -121q0 -74 -42.5 -124.5t-103.5 -50.5q-60 0 -100.5 37t-40.5 90q0 52 33 97t77 51q-6 4 -23.5 18t-28 20.5t-17.5 6.5q-45 0 -105 -57q-70 -70 -124 -222.5t-54 -298.5
q0 -91 41.5 -142.5t112.5 -51.5q75 0 129 43.5t117 169.5l18 -8q-95 -197 -190 -274t-211 -77z" />
    <glyph glyph-name="d" unicode="d" horiz-adv-x="1099" 
d="M754 -27q-38 0 -107 70.5t-69 106.5q0 41 16.5 93t75.5 201h-4q-72 -132 -118 -207t-98.5 -140.5t-101 -92.5t-104.5 -27q-99 0 -164.5 63t-65.5 159q0 121 76.5 266.5t208.5 277.5q177 177 319 177q53 0 85.5 -39.5t37.5 -99.5t-10 -132h6l195 608q5 17 2.5 32.5
t-12.5 15.5l-164 6l4 12l481 35l-305 -907l-109 -295l109 -11l133 213l12 -6q-72 -155 -170.5 -267t-158.5 -112zM367 133q60 0 123 67t145 234q67 132 67 170q0 82 -46.5 152.5t-100.5 70.5q-13 0 -47 -30q-70 -71 -141.5 -249.5t-71.5 -303.5q0 -111 72 -111z" />
    <glyph glyph-name="e" unicode="e" horiz-adv-x="831" 
d="M334 -25q-131 0 -223.5 90t-92.5 234q0 108 45 218.5t121 199.5t186 145t230 56q97 0 168.5 -51t71.5 -126q0 -208 -518 -268q-15 -79 -15 -164q0 -87 44.5 -137.5t119.5 -50.5q54 0 96.5 15.5t90.5 64.5t90 133l18 -8q-94 -195 -200 -273t-232 -78zM330 496
q54 10 106.5 32t98 54.5t74 80t28.5 101.5q0 55 -23 90t-57 35q-29 0 -61 -29q-52 -52 -100 -151t-70 -211z" />
    <glyph glyph-name="f" unicode="f" horiz-adv-x="671" 
d="M-106 -369q-102 0 -163 45.5t-61 120.5q0 55 38.5 95t105.5 40q40 0 73.5 -22.5t49.5 -57t2.5 -81t-60.5 -88.5q1 -4 2.5 -9.5t10 -14.5t20.5 -9q43 0 78 54t75 191t91 384l96 483l-197 2l54 119h174q1 3 10 34.5t11.5 39.5t12 38.5t14 42.5t14.5 39.5t17 41.5t17.5 36.5
t19.5 37t20.5 30t22.5 26.5q54 56 125 81.5t183 25.5q114 0 182.5 -53.5t68.5 -131.5q0 -63 -39 -101t-98 -38q-47 0 -81.5 20.5t-46.5 53t-8.5 68t32.5 69t78 53.5q-49 41 -82 41q-40 0 -73 -32.5t-60 -97t-48 -141t-43 -181.5l218 -2l-33 -115h-209l-131 -575
q-71 -309 -205 -443q-119 -119 -278 -119z" />
    <glyph glyph-name="g" unicode="g" horiz-adv-x="901" 
d="M311 -496q-221 0 -359 63.5t-138 166.5q0 70 88.5 132.5t222.5 92.5v4q-145 82 -145 168q0 38 25 72.5t65 60t80 43t79 27.5v4q-81 47 -125.5 116.5t-44.5 145.5q0 67 36.5 128.5t94.5 103.5t131.5 66t145.5 20q143 -9 235 -91l261 47l-25 -145l-211 82v-4
q92 -92 92 -207q0 -89 -61.5 -164t-155.5 -114.5t-190 -34.5q-93 6 -164 41q-60 -24 -60 -86q0 -28 26.5 -39.5t132.5 -37.5l44 -11l76 -19q54 -13 97.5 -28t92 -40.5t81 -56.5t54 -76.5t21.5 -99.5q0 -82 -72 -159t-189 -124t-241 -47zM377 307q28 0 63 35q58 60 96 186
t44 222q3 61 -18 103t-60 42q-30 0 -70 -35q-54 -54 -90.5 -179.5t-42.5 -219.5q-7 -95 33 -135q19 -19 45 -19zM367 -469q105 0 177 48.5t72 121.5q0 53 -52.5 92t-145.5 72q-35 13 -129 40t-135 44q-55 -22 -87 -73.5t-32 -117.5q0 -112 85.5 -169.5t246.5 -57.5z" />
    <glyph glyph-name="h" unicode="h" horiz-adv-x="1087" 
d="M737 -27q-33 0 -100.5 65.5t-67.5 111.5q0 20 8 49t18.5 55t36 86.5t44.5 108.5q10 24 24.5 59.5t22.5 55t16.5 42t12.5 36.5t4 22q0 12 -38 31.5t-65 19.5q-22 0 -65 -50.5t-114.5 -174.5t-154.5 -302l-73 -194l-277 10l117 336l293 917q5 17 2.5 32.5t-12.5 15.5
l-164 6l4 12l477 35l-41 -131q-144 -495 -309 -926q-2 0 2 -3l6 -3q92 182 182.5 332t141.5 198q38 37 80.5 63.5t70.5 26.5q98 0 161.5 -50t63.5 -99q0 -84 -94 -317l-116 -293l100 -11l145 213l13 -6q-81 -155 -188 -267t-167 -112z" />
    <glyph glyph-name="i" unicode="i" horiz-adv-x="610" 
d="M543 1036q-66 0 -105 42t-39 104q0 74 44 124t100 50q68 0 107.5 -41.5t37.5 -104.5q-1 -73 -44.5 -123.5t-100.5 -50.5zM240 -27q-33 0 -101.5 65.5t-68.5 111.5q0 25 54 172t108 281l53 134l-125 8l-129 -210l-13 6q73 156 167 266.5t153 110.5q37 0 123 -56t86 -100
q0 -31 -55.5 -182.5t-110.5 -287.5l-55 -136l100 -11l145 213l13 -6q-83 -157 -184 -268t-160 -111z" />
    <glyph glyph-name="j" unicode="j" horiz-adv-x="583" 
d="M563 1036q-66 0 -104.5 41t-38.5 103q0 74 43.5 124t99.5 50q68 0 108 -41.5t38 -104.5q-1 -73 -45 -122.5t-101 -49.5zM-260 -510q-65 0 -118.5 44t-53.5 118q0 58 39 99.5t110 41.5q46 0 79.5 -32.5t43.5 -76.5t-11.5 -93.5t-74.5 -79.5l105 28q49 48 85 134t91 264
l270 800l-125 8l-129 -210l-12 6q73 156 166.5 266.5t152.5 110.5q37 0 123 -56t86 -100q0 -52 -111.5 -346.5t-195.5 -464.5q-97 -193 -215 -311q-147 -150 -305 -150z" />
    <glyph glyph-name="k" unicode="k" horiz-adv-x="970" 
d="M639 -25q-36 0 -84 15t-66 33q0 127 -3.5 214.5t-9 136t-16 74t-19.5 31.5t-23 6q-18 0 -21 -10l-149 -481l-287 10q42 105 119 336q52 156 121 385.5t112 380.5l43 151q5 15 2.5 31.5t-12.5 16.5l-164 6l4 12l490 35l-39 -131q-44 -152 -80.5 -270.5t-55 -174
t-49.5 -146t-46 -134.5q30 9 81 16q215 76 269 121l-2 4q-113 40 -113 141q0 56 43.5 98t101.5 42q63 0 104.5 -40.5t41.5 -97.5q0 -86 -69.5 -138t-233.5 -101l-76 -25q46 -4 79.5 -24.5t54.5 -49.5t36.5 -79t23 -97t15.5 -120l63 -7l129 213l13 -6q-77 -162 -168.5 -269.5
t-159.5 -107.5z" />
    <glyph glyph-name="l" unicode="l" horiz-adv-x="563" 
d="M188 -27q-20 0 -63.5 31.5t-77 76.5t-24.5 75l337 1101q5 17 2.5 32.5t-12.5 15.5l-164 6l4 12l472 35l-377 -1202l100 -11l145 213l13 -6q-81 -155 -188 -267t-167 -112z" />
    <glyph glyph-name="m" unicode="m" horiz-adv-x="1689" 
d="M1327 -27q-33 0 -99.5 65.5t-66.5 111.5q0 20 8.5 49.5t18.5 54.5t36 87.5t44 107.5q11 26 25 59.5t23 54.5t17.5 42.5t12.5 36t4 22.5q0 12 -42 32.5t-69 20.5q-16 0 -45.5 -30.5t-70.5 -91.5t-98 -166.5t-120 -240.5l-74 -194l-272 10l96 281q25 75 62 169t58.5 149
t21.5 67t-38 29.5t-65 17.5q-22 0 -63 -51.5t-109.5 -174.5t-152.5 -303l-74 -194l-272 10l116 338l117 397l-100 9l-131 -213l-13 6q72 155 171 267t159 112q34 0 108 -65.5t74 -111.5q0 -44 -39 -165.5t-104 -276.5l12 -4q227 444 318 530q38 36 82 63.5t73 27.5
q50 0 92 -18.5t66.5 -46t37.5 -55.5t13 -50q0 -74 -155 -447l10 -4q95 185 183.5 333.5t139.5 196.5q37 36 82 63.5t74 27.5q98 0 161.5 -50.5t63.5 -99.5q0 -86 -94 -319l-117 -293l101 -11l145 213l12 -6q-82 -155 -188 -267t-166 -112z" />
    <glyph glyph-name="n" unicode="n" horiz-adv-x="1153" 
d="M791 -27q-33 0 -100.5 65.5t-67.5 111.5q0 17 4 35.5t14.5 47t20.5 53t30.5 74t36.5 89.5q10 24 24.5 59.5t22.5 55t16.5 42t12.5 36.5t4 22q0 12 -37.5 32.5t-64.5 20.5q-16 0 -45.5 -30.5t-70.5 -91.5t-98 -166.5t-120 -240.5l-74 -194l-276 10l116 338l117 397l-100 9
l-131 -213l-13 6q72 155 171 267t159 112q34 0 110 -66t76 -111q0 -44 -39 -165.5t-104 -276.5l12 -4q94 184 183.5 333t140.5 197q95 91 151 91q98 0 162 -50.5t64 -99.5q0 -86 -94 -319l-117 -293l100 -11l146 213l12 -6q-82 -155 -188 -267t-166 -112z" />
    <glyph glyph-name="o" unicode="o" horiz-adv-x="913" 
d="M385 -27q-157 0 -256.5 114t-99.5 286q0 134 71.5 261.5t185.5 206.5t232 79q147 0 254 -123t107 -299q0 -130 -70.5 -252.5t-185.5 -197.5t-238 -75zM342 0q121 0 227 330q39 120 58.5 230.5t19.5 176.5q0 76 -23 115t-59 39q-50 0 -114 -87.5t-123 -273.5
q-35 -109 -52.5 -216t-17.5 -167q0 -68 22.5 -107.5t61.5 -39.5z" />
    <glyph glyph-name="p" unicode="p" horiz-adv-x="1069" 
d="M-242 -518l6 12l39 2q52 3 69.5 8t21.5 21l362 1212l-100 8l-131 -210l-13 6q72 154 171 265.5t159 111.5q35 0 109.5 -55.5t74.5 -100.5q0 -60 -32 -158h4q68 157 148 235.5t177 78.5q105 0 165.5 -88.5t60.5 -229.5q0 -89 -29 -180t-82.5 -170.5t-123.5 -142
t-158.5 -98.5t-180.5 -36q-41 0 -85 27t-64 68h-4l-164 -547q-2 -7 7 -12t35 -8.5t72 -4.5l64 -2l2 -12h-580zM475 -8q48 0 100 49q82 82 146.5 267t64.5 327q0 75 -28.5 110t-73.5 35q-118 0 -274 -422q-22 -55 -45 -129.5t-23 -99.5q0 -47 40.5 -92t92.5 -45z" />
    <glyph glyph-name="q" unicode="q" horiz-adv-x="1075" 
d="M186 -518l7 12l67 2q60 1 81 10t26 25q59 193 184 567q10 30 29.5 94t37.5 115t52 137h-4q-72 -132 -118 -207t-98.5 -140.5t-101 -92.5t-104.5 -27q-99 0 -164.5 63t-65.5 159q0 121 76.5 266.5t208.5 277.5q177 177 319 177q53 0 85.5 -39.5t37.5 -99.5t-10 -132h6
l101 248l268 -8l-193 -504l-268 -860q-2 -7 4 -12t21 -8.5t32.5 -5t45.5 -3.5l34 -2l6 -12h-602zM367 133q60 0 123 67t145 234q67 132 67 170q0 82 -46.5 152.5t-100.5 70.5q-13 0 -47 -30q-70 -71 -141.5 -249.5t-71.5 -303.5q0 -111 72 -111z" />
    <glyph glyph-name="r" unicode="r" horiz-adv-x="950" 
d="M301 -6l-278 10l116 338l117 397l-100 9l-131 -213l-13 6q72 155 171 267t159 112q34 0 110 -66t76 -111q0 -22 -6 -50t-26 -86.5t-33.5 -95.5t-52.5 -140h6q67 136 88 177.5t63 120t67 114.5t50 61q73 76 160 76q70 0 125 -48t55 -124q0 -83 -46 -140t-118 -57
q-54 0 -89.5 30t-43 70t11 82.5t62.5 65.5l-72 24q-57 -25 -118 -125t-210 -399z" />
    <glyph glyph-name="s" unicode="s" horiz-adv-x="798" 
d="M322 -27q-143 0 -235 55t-93 154q0 67 39 114.5t102 47.5q46 0 79 -33.5t36 -83.5q1 -40 -15 -64.5t-61 -56.5q2 -31 51.5 -74.5t126.5 -43.5q64 0 108 43.5t44 105.5q0 16 -6 32.5t-20.5 35t-27 33t-38 37t-39.5 34.5t-45.5 38t-44.5 36q-78 65 -118 123t-40 127
q0 117 102 202t244 85q122 0 215.5 -53.5t93.5 -131.5q0 -65 -36.5 -109t-92.5 -44q-57 0 -94 37t-37 92q0 61 70 106q-1 2 -7.5 15.5t-14.5 23.5t-21.5 22.5t-36.5 19.5t-53 7q-53 0 -95.5 -45t-42.5 -102q0 -29 24.5 -63.5t48 -55.5t73.5 -60.5t63 -50.5
q177 -151 177 -266q0 -121 -112 -205t-271 -84z" />
    <glyph glyph-name="t" unicode="t" horiz-adv-x="675" 
d="M299 -27q-83 0 -170 63t-84 114q3 32 69 248t115 364l-166 2l54 121h153l99 258h260l-82 -256l188 -2l-33 -117h-194l-203 -610l180 -11l123 213l15 -6q-80 -173 -163.5 -277t-160.5 -104z" />
    <glyph glyph-name="u" unicode="u" horiz-adv-x="1153" 
d="M811 -27q-34 0 -110 66t-76 111q0 44 39 168.5t102 275.5l-12 4q-225 -441 -322 -532q-95 -91 -151 -91q-98 0 -162 50.5t-64 99.5q0 84 95 319l114 295l-100 9l-144 -213l-12 6q82 155 188 267t166 112q33 0 102 -65.5t66 -111.5q-1 -17 -5 -35.5t-15 -48.5t-19.5 -51.5
t-30.5 -74.5t-36 -89q-9 -23 -24 -59t-23 -55.5t-17 -42.5t-12.5 -37t-3.5 -23q0 -12 39 -31.5t66 -19.5q22 0 64 51t113 174t154 301l74 197l276 -10l-116 -338l-119 -395l100 -11l133 213l13 -6q-72 -155 -171 -267t-159 -112z" />
    <glyph glyph-name="v" unicode="v" horiz-adv-x="888" 
d="M313 -27q-93 0 -165 61.5t-72 135.5q0 36 12.5 71.5t47.5 85t65 87.5t97 118t112 136l-306 14l-77 -147l-15 6q40 86 73 150t67.5 120t64 85.5t53.5 29.5q52 0 129.5 -16t77.5 -38q0 -26 -55 -233.5t-55 -282.5q0 -100 38 -145t117 -45q62 0 127.5 73t112.5 182t65 220
q-91 -25 -154 16.5t-63 114.5q0 55 40.5 101.5t107.5 46.5q66 0 108.5 -41.5t42.5 -122.5q0 -117 -105.5 -325t-246.5 -351q-56 -56 -109.5 -81.5t-134.5 -25.5z" />
    <glyph glyph-name="w" unicode="w" horiz-adv-x="1308" 
d="M248 -27q-92 0 -141.5 48.5t-49.5 130.5q0 62 41 143.5t87 140t110.5 134t79.5 96.5l-262 16l-76 -147l-14 6q40 86 73 150t67.5 120t64 85.5t53.5 29.5q26 0 77 -10.5t91.5 -23.5t37.5 -20q-4 -8 -30.5 -66.5t-46 -106t-44 -115t-38 -132t-13.5 -118.5
q0 -75 27.5 -111.5t85.5 -36.5q41 0 84 27.5t77.5 67.5t74.5 104.5t67.5 116.5t63.5 127q1 2 -5 5.5t-16.5 7.5t-24 11t-28 15t-28.5 20t-25 25.5t-18 32.5t-7 40q0 56 39 95t94 39q59 0 100.5 -39.5t41.5 -92.5q0 -39 -17.5 -75t-40.5 -62t-52.5 -73t-47.5 -99
q-23 -67 -23 -112q0 -90 56.5 -135.5t152.5 -45.5q72 0 133.5 46.5t100.5 118t58.5 158t14.5 167.5q-39 -32 -95 -34.5t-100 33.5t-44 103q0 60 38.5 101t92.5 41q75 0 117.5 -56.5t42.5 -154.5q0 -151 -84.5 -336t-196.5 -297q-100 -103 -193 -103q-88 0 -134 58t-46 127
q0 87 76 278q-46 -87 -97.5 -163.5t-113.5 -147t-132 -111.5t-136 -41z" />
    <glyph glyph-name="x" unicode="x" horiz-adv-x="1024" 
d="M96 -27q-49 0 -95 40t-46 108q0 64 40.5 105.5t94.5 41.5q56 0 86 -34t27 -77.5t-33 -74.5q0 -4 9.5 -8t13.5 -4q30 0 55.5 21.5t61.5 89.5t83 192q-59 216 -89 280q-35 74 -73 76l-96 2l-104 -192l-17 6q71 159 158 267t156 108q195 0 286 -342h4q26 71 44 114t45 92
t53.5 75t64 43.5t82.5 17.5q49 0 95.5 -40t46.5 -108q0 -65 -40.5 -106t-95.5 -41q-56 0 -86.5 34.5t-28 78.5t32.5 75q0 4 -8.5 7t-13.5 3q-40 0 -79 -57t-103 -227q52 -208 69 -256q41 -119 90 -119h103l102 190l17 -6q-172 -375 -297 -375q-59 0 -109.5 30.5t-87.5 84
t-63.5 115t-47.5 135.5h-4q-67 -176 -102 -235q-66 -113 -165 -127q-17 -3 -36 -3z" />
    <glyph glyph-name="y" unicode="y" horiz-adv-x="954" 
d="M-53 -373q-106 0 -166 50t-60 124q0 60 46 104t104 44q57 0 97.5 -35.5t43 -94.5t-56.5 -136l84 -25q123 32 289 139q10 376 -2 590t-47 307.5t-101 93.5h-16l-135 -253l-15 6q10 22 28 61.5t27 59.5t25.5 53t27 50.5t27 42.5t30 38.5t32 29.5t37 23.5t41 13t47.5 5.5
q78 0 128.5 -45t82.5 -150t36.5 -277.5t-10.5 -427.5l4 -2q133 149 224 327t106 325q-78 -59 -138.5 -51.5t-97 51.5t-36.5 98q0 63 38.5 105t106.5 42q76 0 119 -58.5t43 -141.5q0 -174 -115.5 -384t-294.5 -386q-145 -143 -298.5 -229.5t-284.5 -86.5z" />
    <glyph glyph-name="z" unicode="z" horiz-adv-x="888" 
d="M512 -47q-61 0 -107 32t-72.5 77.5t-46.5 90.5t-40.5 77t-44.5 32h-4l-103 -291q-55 0 -98 31t-43 80q0 64 75.5 128t170.5 77l467 338q-39 -6 -72.5 -5.5t-58.5 4t-54.5 19.5t-46.5 26.5t-47.5 40.5t-45 45.5t-51.5 57.5q-2 2 -3 3.5t-3 3t-3 3.5q-3 5 -42 -37
q-54 -58 -30 -59q63 0 99 -40t36 -95q0 -51 -37.5 -84t-93.5 -33q-60 0 -93.5 44.5t-33.5 96.5q0 54 46 110.5t110 95.5t122 65.5t91 32.5q56 0 98 -28.5t63.5 -69.5t35 -81.5t23 -68t17.5 -25.5l2 2l80 269q51 -2 98.5 -32.5t47.5 -72.5q0 -78 -61 -126.5t-154 -63.5
l-465 -336q130 24 238 -46.5t190 -209.5q2 -5 35 35q64 78 64 100q0 5 -5 4q-81 -11 -121.5 29t-40.5 100q0 50 36.5 84.5t84.5 34.5q65 0 97 -45t32 -99q0 -71 -52 -144t-131 -121.5t-155 -55.5z" />
    <glyph glyph-name="braceleft" unicode="{" horiz-adv-x="692" 
d="M465 -545q-205 41 -330 147t-98 232q12 54 62.5 136t100 154.5t56.5 104.5q17 74 -33.5 105.5t-197.5 52.5l-2 10l6 13q159 21 220.5 51.5t78.5 107.5q8 35 -21 224.5t-14 257.5q18 83 101 146t205.5 95t262.5 31l2 -16q-142 -7 -217 -30.5t-88 -82.5q-11 -48 1 -153
t24.5 -187t-0.5 -162q-19 -89 -70 -145.5t-154.5 -93t-271.5 -50.5l-2 -10q240 -21 321 -87t52 -200q-12 -55 -64 -146.5t-103.5 -180.5t-62.5 -137q-13 -58 50.5 -98t193.5 -74z" />
    <glyph glyph-name="bar" unicode="|" horiz-adv-x="313" 
d="M156 -424v1796h18v-1796h-18z" />
    <glyph glyph-name="braceright" unicode="}" horiz-adv-x="692" 
d="M-186 -547l-2 17q143 7 217.5 30.5t87.5 83.5q11 48 -1 153t-24.5 187t0.5 162q19 89 69.5 145.5t153.5 93t271 50.5l2 10q-240 21 -320 87t-51 200q12 55 63.5 146.5t103 181t62.5 137.5q13 58 -50 97t-193 73l8 14q134 -27 237 -82.5t156 -133t35 -161.5
q-12 -54 -62.5 -136t-100 -154.5t-56.5 -104.5q-17 -75 33 -107t198 -53l2 -10l-8 -12q-158 -21 -219 -51.5t-78 -106.5q-8 -35 21 -224t14 -257q-18 -83 -101 -146.5t-205.5 -96.5t-262.5 -32z" />
    <glyph glyph-name="asciitilde" unicode="~" horiz-adv-x="837" 
d="M627 291q-44 0 -104.5 20.5t-110 45t-102.5 45t-85 20.5q-15 0 -25 -2.5t-24 -12.5t-26.5 -34.5t-24.5 -63.5q-8 0 -12 -2q45 173 88 231t133 58q56 0 134.5 -33t150 -65.5t110.5 -32.5q15 0 25.5 2.5t25.5 12.5t28.5 34.5t25.5 63.5q8 0 12 2q-47 -175 -88.5 -232
t-130.5 -57z" />
    <glyph glyph-name="nbspace" unicode="&#xa0;" horiz-adv-x="266" 
 />
    <glyph glyph-name="exclamdown" unicode="&#xa1;" horiz-adv-x="589" 
d="M444 1008q-60 0 -104.5 44t-44.5 103q0 61 44.5 106.5t104.5 45.5t105 -44.5t45 -107.5q0 -60 -45 -103.5t-105 -43.5zM188 -25q-57 8 -89.5 26t-41 44t-4.5 52t19 61l301 702q3 6 7 8.5t6.5 0.5t2.5 -9l-2 -743q0 -166 -192 -142h-7z" />
    <glyph glyph-name="cent" unicode="&#xa2;" horiz-adv-x="811" 
d="M254 -16q-102 24 -169 108.5t-67 204.5q0 109 43 219t118 199t187 144.5t238 55.5q48 0 88 -12l160 334h25l-164 -342q57 -21 90 -60.5t33 -89.5q0 -72 -42.5 -122t-103.5 -50q-66 0 -108 45l-226 -468q44 -29 99 -29q76 0 133 43.5t119 167.5l18 -8q-95 -195 -190 -272
t-211 -77q-10 0 -50 5l-141 -299h-24zM567 639q-18 27 -18 61q0 50 33 95t77 51q-6 4 -23.5 18t-28 20.5t-17.5 6.5q-26 0 -61.5 -15.5t-63.5 -41.5q-70 -70 -124 -222t-54 -299q0 -99 53 -149z" />
    <glyph glyph-name="sterling" unicode="&#xa3;" horiz-adv-x="1171" 
d="M424 627h-252l6 20h236q-30 59 -43.5 89t-28 80t-14.5 93q0 92 46 167t122 121t170 70.5t194 24.5q166 0 266.5 -58t100.5 -157q0 -70 -41.5 -118t-112.5 -48q-59 0 -97 35t-46 83.5t11.5 102.5t64.5 89q-9 19 -48.5 36t-74.5 17q-75 0 -134 -45.5t-81 -134.5
q-17 -48 -1.5 -202t3.5 -245h254l6 -20h-264q-16 -102 -72 -211q-18 -37 -64 -111q8 -2 43.5 -13.5t46 -15t43 -13.5t45.5 -13.5t41.5 -11.5t43.5 -11.5t39 -8.5t40 -7t35 -4t35 -2q69 0 109 47.5t69 171.5l15 -2q-13 -84 -42 -160t-74.5 -141.5t-113.5 -104.5t-149 -39
q-71 0 -144.5 23.5t-119 48.5t-115.5 70q-151 -144 -293 -144q-70 0 -116 44.5t-46 109.5q0 99 80.5 171.5t218.5 72.5q97 0 264 -54q11 46 11 72q0 39 -11.5 83t-24.5 74.5t-36 78.5zM362 129q-121 83 -167 105q-63 30 -115 30q-58 0 -97.5 -39.5t-39.5 -101.5
q0 -51 41.5 -90t101.5 -39q62 0 137 37t139 98z" />
    <glyph glyph-name="currency" unicode="&#xa4;" horiz-adv-x="886" 
d="M774 436l-16 -16l-117 115q-78 -71 -182.5 -71t-182.5 71l-116 -115l-17 16l115 117q-70 77 -70 182t70 183l-115 116l17 17l116 -115q77 70 182.5 70t182.5 -70l117 115l16 -17l-115 -116q71 -78 71 -183t-71 -182zM285 561q72 -72 174 -72t174 72t72 174t-72 174
t-174 72t-174 -72t-72 -174t72 -174z" />
    <glyph glyph-name="yen" unicode="&#xa5;" horiz-adv-x="1318" 
d="M526 596h-381l-4 20h377q1 0 -33.5 105t-68.5 210l-35 105q-45 132 -77.5 175t-104.5 53l-29 4v12h688l-8 -12l-21 -2q-101 -8 -132.5 -33t-18.5 -64l168 -512l6 -2l184 242q145 196 172 254q31 64 -7 87q-29 18 -124 26l-43 4l-2 12h490l-9 -12l-55 -6q-40 -4 -68 -14
t-57.5 -31.5t-64 -61t-80 -97.5t-112.5 -146l-12 -16.5t-11 -14.5t-13 -17l-178 -235q-2 -11 -4 -13h412l-8 -20h-406l-53 -246h405l6 -20h-415l-60 -283q-1 -6 2 -9.5t15 -6.5t34 -6t60 -7l53 -6l2 -12h-682l6 12l84 8q49 4 75 13.5t28 19.5l57 277h-387l6 20h385l51 238z
" />
    <glyph glyph-name="brokenbar" unicode="&#xa6;" horiz-adv-x="313" 
d="M156 598v686h18v-686h-18zM156 -315v686h18v-686h-18z" />
    <glyph glyph-name="section" unicode="&#xa7;" horiz-adv-x="892" 
d="M342 -41q-142 0 -227.5 51.5t-85.5 130.5q0 53 38 93t95 40q48 0 81 -26t42.5 -63.5t-7.5 -82t-61 -77.5q27 -20 69 -34t70 -14q63 0 109.5 43.5t46.5 96.5q0 32 -16 60t-51 56t-65 47t-83 48q-51 30 -77 46.5t-68 48.5t-63.5 58.5t-38.5 64t-17 77.5q0 90 73.5 158
t190.5 108q-47 60 -47 129q0 87 57.5 156.5t139.5 104t167 34.5q141 0 221 -51.5t80 -131.5q0 -53 -38 -94t-95 -41q-48 0 -81 26.5t-42.5 64.5t7.5 83t61 78q-28 20 -63.5 33.5t-63.5 13.5q-62 0 -104.5 -43t-42.5 -96q0 -59 54.5 -106.5t160.5 -106.5q49 -28 77 -45.5
t69 -48.5t62.5 -57.5t38.5 -64t17 -77.5q0 -90 -75 -158t-193 -108q51 -61 51 -131q0 -86 -60 -155.5t-144 -103.5t-169 -34zM653 393q95 43 95 119q0 27 -12.5 52.5t-29 44.5t-53 44t-62.5 40.5t-79 45.5q-151 86 -203 140q-92 -42 -92 -119q0 -34 15 -63t52 -58.5t70 -50
t97 -56.5q130 -75 174 -113q16 -13 28 -26z" />
    <glyph glyph-name="dieresis" unicode="&#xa8;" horiz-adv-x="847" 
d="M788 1024q-59 0 -96 38.5t-37 90.5q0 54 37 93.5t96 39.5q60 0 97 -39.5t37 -93.5q0 -52 -37 -90.5t-97 -38.5zM362 1024q-59 0 -96 38.5t-37 90.5q0 54 37 93.5t96 39.5q60 0 97 -39.5t37 -93.5q0 -52 -37 -90.5t-97 -38.5z" />
    <glyph glyph-name="copyright" unicode="&#xa9;" horiz-adv-x="1441" 
d="M774 -29q-182 0 -335.5 89.5t-243 244t-89.5 336.5t89.5 337t243.5 245t335 90t335 -90t243.5 -245t89.5 -337t-89.5 -336.5t-243 -244t-335.5 -89.5zM774 -8q175 0 322 87t232 236.5t85 325.5t-85 325.5t-232 237.5t-322 88t-322 -88t-232 -237.5t-85 -325.5t85 -325.5
t232 -236.5t322 -87zM807 238q-103 0 -189 32t-142.5 86.5t-88 126t-31.5 150.5q0 82 30 155t86.5 129.5t145 89.5t197.5 33q117 0 191 -45l81 23l11 -254h-6l-129 217q-53 41 -142 41q-118 0 -186 -105t-68 -278q0 -174 70 -279.5t174 -105.5q182 0 268 186l43 92l4 -2
l-39 -235l-38 -6q-39 -17 -113 -34t-129 -17z" />
    <glyph glyph-name="ordfeminine" unicode="&#xaa;" horiz-adv-x="884" 
d="M326 559q-78 0 -133 49.5t-56 124.5q0 94 60.5 210t164.5 218q71 75 140 108.5t121 33.5q40 0 65.5 -31t29.5 -78.5t-7 -103.5h4l80 192l211 -6l-132 -344l-86 -234l86 -8l105 166l10 -4q-57 -120 -135 -206.5t-125 -86.5q-31 0 -85 53t-54 82q0 31 12 68.5t60 165.5h-5
q-44 -82 -74.5 -134t-64.5 -101.5t-62.5 -75.5t-61.5 -42t-68 -16zM422 680q49 0 99 53t114 185q53 114 53 135q0 64 -37 120t-80 56q-8 0 -36 -25q-56 -56 -116.5 -198.5t-60.5 -239.5q0 -41 18 -63.5t46 -22.5z" />
    <glyph glyph-name="guillemotleft" unicode="&#xab;" horiz-adv-x="944" 
d="M831 63l-393 383l8 35l551 361l4 -8l-296 -398l135 -362zM401 84l-376 362l8 35l524 340l4 -6l-266 -379l115 -340z" />
    <glyph glyph-name="logicalnot" unicode="&#xac;" horiz-adv-x="886" 
d="M840 629v-348h-25v323h-792l6 25h811z" />
    <glyph glyph-name="uni00AD" unicode="&#xad;" horiz-adv-x="573" 
d="M39 438l24 82h490l-25 -82h-489z" />
    <glyph glyph-name="registered" unicode="&#xae;" horiz-adv-x="1396" 
d="M774 -29q-182 0 -335.5 89.5t-243 244t-89.5 336.5t89.5 337t243.5 245t335 90t335 -90t243.5 -245t89.5 -337t-89.5 -336.5t-243 -244t-335.5 -89.5zM774 -8q175 0 322 87t232 236.5t85 325.5t-85 325.5t-232 237.5t-322 88t-322 -88t-232 -237.5t-85 -325.5t85 -325.5
t232 -236.5t322 -87zM346 258l2 16l45 5q60 5 60 20v688q0 6 -13 9.5t-59 9.5l-31 6l-4 14h373q195 0 292 -48.5t97 -152.5q0 -64 -54 -118t-139 -74l136 -225q49 -82 77.5 -101.5t98.5 -32.5l8 -2l4 -14h-326l-12 21l-186 358q-56 17 -68 22v-364q0 -3 1.5 -5t9 -4
t20.5 -3.5t39 -3.5l43 -5l4 -16h-418zM741 662q79 0 121.5 45.5t42.5 132.5q0 84 -58 125.5t-151 38.5l-49 -3v-319q42 -16 94 -20z" />
    <glyph glyph-name="macron" unicode="&#xaf;" horiz-adv-x="755" 
d="M244 1067l49 125h512l-49 -125h-512z" />
    <glyph glyph-name="degree" unicode="&#xb0;" horiz-adv-x="579" 
d="M420 778q-118 0 -190 77.5t-72 188.5q0 110 72 188.5t188 78.5t188 -78.5t72 -188.5q0 -111 -71.5 -188.5t-186.5 -77.5zM420 803q104 0 166.5 69t62.5 172q0 101 -63.5 171.5t-167.5 70.5t-168 -71t-64 -171q0 -102 64.5 -171.5t169.5 -69.5z" />
    <glyph glyph-name="plusminus" unicode="&#xb1;" horiz-adv-x="886" 
d="M440 172v342h-417l4 25h413v354h25v-354h412l4 -25h-416v-342h-25zM860 76h-817l4 24h809z" />
    <glyph glyph-name="twosuperior" unicode="&#xb2;" horiz-adv-x="710" 
d="M27 518l12 111q235 141 288 179q91 66 114 128q14 37 14 88q-3 53 -41 83t-95 30q-42 0 -84.5 -25t-60.5 -63l-10 6q177 256 352 256q117 0 173 -57.5t56 -135.5q0 -55 -23.5 -95.5t-77 -76t-109 -62.5t-153 -75t-175.5 -94v-2h375q66 0 143 153l10 21l8 -2l-163 -367
h-553z" />
    <glyph glyph-name="threesuperior" unicode="&#xb3;" horiz-adv-x="661" 
d="M229 485q-124 0 -191 41t-67 115q0 41 33 75t74 34q45 0 76.5 -23.5t43.5 -58.5t6 -78.5t-30 -81.5l23 -6q77 0 137.5 61t60.5 137q0 64 -44.5 109t-106.5 45q-42 0 -78 -18l-6 14q144 63 182 87q74 47 74 110q0 43 -29.5 70.5t-85.5 27.5q-45 0 -95.5 -37.5t-68.5 -81.5
l-8 6q53 123 140 201t194 78q95 0 151 -42t56 -106q0 -67 -60 -119.5t-168 -87.5v-4h11q93 -7 143.5 -54t50.5 -118q0 -118 -124 -206.5t-294 -88.5z" />
    <glyph glyph-name="acute" unicode="&#xb4;" horiz-adv-x="878" 
d="M418 1006l289 383h284l-567 -383h-6z" />
    <glyph glyph-name="mu" unicode="&#xb5;" horiz-adv-x="1134" 
d="M559 -518h-549l6 12l37 2q50 3 68 9t18 22v1317q0 16 -110 24l-29 2l-6 13h436v-613q0 -78 41 -107.5t109 -29.5q87 0 151 64v643q0 15 -17.5 19t-88.5 9l-29 2l-6 13h430v-617q0 -88 14 -114.5t66 -40.5l51 -11l-2 -8l-414 -125v193h-6q-46 -116 -82.5 -161.5
t-85.5 -45.5q-79 0 -125 123h-6v-549q0 -16 18 -22t68 -9l37 -2z" />
    <glyph glyph-name="mu" unicode="&#x3bc;" horiz-adv-x="1134" 
d="M559 -518h-549l6 12l37 2q50 3 68 9t18 22v1317q0 16 -110 24l-29 2l-6 13h436v-613q0 -78 41 -107.5t109 -29.5q87 0 151 64v643q0 15 -17.5 19t-88.5 9l-29 2l-6 13h430v-617q0 -88 14 -114.5t66 -40.5l51 -11l-2 -8l-414 -125v193h-6q-46 -116 -82.5 -161.5
t-85.5 -45.5q-79 0 -125 123h-6v-549q0 -16 18 -22t68 -9l37 -2z" />
    <glyph glyph-name="paragraph" unicode="&#xb6;" horiz-adv-x="884" 
d="M651 -63l117 548h-16q-174 0 -313.5 46t-221.5 134t-82 203q0 91 31 164.5t95.5 130.5t171.5 88t251 31h274l-286 -1345h-21z" />
    <glyph glyph-name="periodcentered" unicode="&#xb7;" horiz-adv-x="468" 
d="M242 342q-61 0 -105.5 45t-44.5 109q0 60 45 104.5t105 44.5t104.5 -45t44.5 -104q0 -63 -44.5 -108.5t-104.5 -45.5z" />
    <glyph glyph-name="cedilla" unicode="&#xb8;" horiz-adv-x="829" 
d="M16 -524v10q191 14 270 46.5t79 105.5q0 43 -36.5 71.5t-80 38.5t-88.5 10q-65 0 -111 -12l2 14l287 232h27l-148 -121q129 13 219 -39.5t90 -130.5q0 -238 -510 -225z" />
    <glyph glyph-name="onesuperior" unicode="&#xb9;" horiz-adv-x="477" 
d="M10 518l-4 8h4q87 0 94 21l146 678l-94 8l4 6l336 68l-162 -762q-1 -5 13.5 -9.5t34.5 -7t36 -2.5v-8h-408z" />
    <glyph glyph-name="ordmasculine" unicode="&#xba;" horiz-adv-x="737" 
d="M434 553q-123 0 -201.5 90t-78.5 225q0 80 34 159.5t88 139t124.5 96.5t140.5 37q115 0 199.5 -96.5t84.5 -234.5q0 -103 -55.5 -200t-146.5 -156.5t-189 -59.5zM401 575q45 0 92 63.5t89 195.5q61 188 61 323q0 60 -18.5 90.5t-46.5 30.5q-40 0 -91 -68.5t-98 -214.5
q-28 -87 -41.5 -171.5t-13.5 -131.5q0 -55 17.5 -86t49.5 -31z" />
    <glyph glyph-name="guillemotright" unicode="&#xbb;" horiz-adv-x="940" 
d="M387 84l-4 6l266 381l-114 340l8 10l377 -360l-9 -33zM-51 63l-4 7l295 401l-136 360l9 11l397 -381l-8 -33z" />
    <glyph glyph-name="onequarter" unicode="&#xbc;" horiz-adv-x="1339" 
d="M881 -252l28 156h-348l4 24l580 613h143l-108 -496h127l-93 -141h-67l-29 -156h-237zM10 518l-4 8h4q87 0 94 21l146 678l-94 8l4 6l336 68l-162 -762q-1 -5 13.5 -9.5t34.5 -7t36 -2.5v-8h-408zM-86 -252l1429 1546h33l-1429 -1546h-33zM1012 381l-324 -336h252z" />
    <glyph glyph-name="onehalf" unicode="&#xbd;" horiz-adv-x="1441" 
d="M717 -252l12 111q235 141 288 179q91 66 114 128q14 37 14 88q-3 53 -40.5 83t-94.5 30q-42 0 -85 -25t-61 -63l-10 6q177 256 352 256q117 0 173.5 -57.5t56.5 -135.5q0 -46 -19 -83.5t-49 -64t-83.5 -56t-106 -54t-133 -65t-148.5 -80.5v-2h375q66 0 143 153l10 21
l9 -2l-164 -367h-553zM10 518l-4 8h4q87 0 94 21l146 678l-94 8l4 6l336 68l-162 -762q-1 -5 13.5 -9.5t34.5 -7t36 -2.5v-8h-408zM-86 -252l1429 1546h33l-1429 -1546h-33z" />
    <glyph glyph-name="threequarters" unicode="&#xbe;" horiz-adv-x="1441" 
d="M983 -252l29 156h-348l4 24l579 613h144l-109 -496h127l-92 -141h-68l-28 -156h-238zM229 485q-124 0 -191 41t-67 115q0 41 33 75t74 34q45 0 76.5 -23.5t43.5 -58.5t6 -78.5t-30 -81.5l23 -6q77 0 137.5 61t60.5 137q0 64 -44.5 109t-106.5 45q-42 0 -78 -18l-6 14
q144 63 182 87q74 47 74 110q0 43 -29.5 70.5t-85.5 27.5q-45 0 -95.5 -37.5t-68.5 -81.5l-8 6q53 123 140 201t194 78q95 0 151 -42t56 -106q0 -67 -60 -119.5t-168 -87.5v-4h11q93 -7 143.5 -54t50.5 -118q0 -118 -124 -206.5t-294 -88.5zM16 -252l1430 1546h33
l-1430 -1546h-33zM1114 381l-323 -336h251z" />
    <glyph glyph-name="questiondown" unicode="&#xbf;" horiz-adv-x="702" 
d="M512 1008q-60 0 -105 44t-45 103q0 61 45 106.5t105 45.5t105 -44.5t45 -107.5q0 -60 -45 -103.5t-105 -43.5zM451 -31q-87 0 -160.5 36.5t-121.5 96.5t-74.5 135.5t-26.5 155.5q0 142 48 219t148 97q113 22 166.5 39.5t64.5 29.5t11 35q0 21 -12 39t-45 51l12 6
q62 -55 100.5 -123t38.5 -127q0 -73 -74.5 -112.5t-220.5 -59.5q-88 -12 -137.5 -29t-64.5 -33.5t-15 -39.5q0 -70 102 -120t261 -50q15 0 102 6q53 -46 53 -106q0 -63 -41.5 -104.5t-113.5 -41.5z" />
    <glyph glyph-name="Agrave" unicode="&#xc0;" horiz-adv-x="1335" 
d="M664 535h-291l-99 -185q-15 -27 -42 -73q-48 -82 -64 -114t-30 -67.5t5 -45.5t44.5 -18.5t86.5 -15.5l35 -4l2 -12h-432l6 12l39 4q23 2 39 4t34 8.5t28 9.5t27 17.5t25 22t26.5 34t28.5 41.5t34 56t38.5 67.5t47.5 85.5l356 666l-4 96q57 7 104 33.5t80.5 63t77.5 98.5
h49l109 -1030q16 -111 40 -171t51.5 -79.5t72.5 -22.5l53 -4v-12h-696l8 12l47 4q73 6 90.5 39t5.5 127zM387 561h275l-39 434h-5zM870 1348l-419 383h262l170 -383h-13z" />
    <glyph glyph-name="Aacute" unicode="&#xc1;" horiz-adv-x="1335" 
d="M664 535h-291l-99 -185q-15 -27 -42 -73q-48 -82 -64 -114t-30 -67.5t5 -45.5t44.5 -18.5t86.5 -15.5l35 -4l2 -12h-432l6 12l39 4q23 2 39 4t34 8.5t28 9.5t27 17.5t25 22t26.5 34t28.5 41.5t34 56t38.5 67.5t47.5 85.5l356 666l-4 96q57 7 104 33.5t80.5 63t77.5 98.5
h49l109 -1030q16 -111 40 -171t51.5 -79.5t72.5 -22.5l53 -4v-12h-696l8 12l47 4q73 6 90.5 39t5.5 127zM387 561h275l-39 434h-5zM686 1348l289 383h285l-568 -383h-6z" />
    <glyph glyph-name="Acircumflex" unicode="&#xc2;" horiz-adv-x="1335" 
d="M664 535h-291l-99 -185q-15 -27 -42 -73q-48 -82 -64 -114t-30 -67.5t5 -45.5t44.5 -18.5t86.5 -15.5l35 -4l2 -12h-432l6 12l39 4q23 2 39 4t34 8.5t28 9.5t27 17.5t25 22t26.5 34t28.5 41.5t34 56t38.5 67.5t47.5 85.5l356 666l-4 96q57 7 104 33.5t80.5 63t77.5 98.5
h49l109 -1030q16 -111 40 -171t51.5 -79.5t72.5 -22.5l53 -4v-12h-696l8 12l47 4q73 6 90.5 39t5.5 127zM387 561h275l-39 434h-5zM526 1325l373 404h16l203 -404h-14l-236 164h-4l-323 -164h-15z" />
    <glyph glyph-name="Atilde" unicode="&#xc3;" horiz-adv-x="1335" 
d="M664 535h-291l-99 -185q-15 -27 -42 -73q-48 -82 -64 -114t-30 -67.5t5 -45.5t44.5 -18.5t86.5 -15.5l35 -4l2 -12h-432l6 12l39 4q23 2 39 4t34 8.5t28 9.5t27 17.5t25 22t26.5 34t28.5 41.5t34 56t38.5 67.5t47.5 85.5l356 666l-4 96q57 7 104 33.5t80.5 63t77.5 98.5
h49l109 -1030q16 -111 40 -171t51.5 -79.5t72.5 -22.5l53 -4v-12h-696l8 12l47 4q73 6 90.5 39t5.5 127zM387 561h275l-39 434h-5zM1010 1360q-56 0 -136 33t-153.5 65.5t-112.5 32.5q-15 0 -25 -2.5t-24 -12.5t-26.5 -34.5t-24.5 -63.5q-8 0 -12 -2q45 173 88 231t133 58
q44 0 103.5 -20.5t107.5 -45t100 -45t84 -20.5q15 0 25.5 2.5t25.5 12.5t28.5 34.5t25.5 63.5q8 0 12 2q-47 -175 -88.5 -232t-130.5 -57z" />
    <glyph glyph-name="Adieresis" unicode="&#xc4;" horiz-adv-x="1335" 
d="M664 535h-291l-99 -185q-15 -27 -42 -73q-48 -82 -64 -114t-30 -67.5t5 -45.5t44.5 -18.5t86.5 -15.5l35 -4l2 -12h-432l6 12l39 4q23 2 39 4t34 8.5t28 9.5t27 17.5t25 22t26.5 34t28.5 41.5t34 56t38.5 67.5t47.5 85.5l356 666l-4 96q57 7 104 33.5t80.5 63t77.5 98.5
h49l109 -1030q16 -111 40 -171t51.5 -79.5t72.5 -22.5l53 -4v-12h-696l8 12l47 4q73 6 90.5 39t5.5 127zM387 561h275l-39 434h-5zM1071 1366q-59 0 -96 38.5t-37 90.5q0 54 37 93.5t96 39.5q60 0 96.5 -39.5t36.5 -93.5q0 -52 -36.5 -90.5t-96.5 -38.5zM645 1366
q-59 0 -96 38.5t-37 90.5q0 54 37 93.5t96 39.5q60 0 96.5 -39.5t36.5 -93.5q0 -52 -36.5 -90.5t-96.5 -38.5z" />
    <glyph glyph-name="Aring" unicode="&#xc5;" horiz-adv-x="1335" 
d="M664 535h-291l-99 -185q-15 -27 -42 -73q-48 -82 -64 -114t-30 -67.5t5 -45.5t44.5 -18.5t86.5 -15.5l35 -4l2 -12h-432l6 12l39 4q40 4 62 8t49.5 19.5t43 32.5t45.5 61.5t55 90t73 134.5l493 924q-71 55 -71 152q0 76 50 130t132 54t132 -54t50 -130
q0 -61 -30.5 -107.5t-85.5 -66.5l102 -975q16 -111 40 -171t51.5 -79.5t72.5 -22.5l53 -4v-12h-696l8 12l47 4q73 6 90.5 39t5.5 127zM856 1272q73 0 117.5 48t44.5 118q0 69 -44.5 117.5t-117.5 48.5t-117.5 -48.5t-44.5 -117.5q0 -70 44.5 -118t117.5 -48zM387 561h275
l-39 434h-5z" />
    <glyph glyph-name="AE" unicode="&#xc6;" horiz-adv-x="1861" 
d="M801 535h-342l-146 -183q-26 -33 -70 -89q-108 -133 -125 -168q-20 -42 13 -58q24 -11 107 -21l34 -4l7 -12h-437l6 12l37 4q40 4 63.5 8t54.5 20.5t50.5 32.5t61 61.5t76.5 89t106 132.5l637 801q37 47 12 72t-131 31l-76 4l-2 12h1086l-2 -434h-17l-6 22
q-24 98 -60 169.5t-77.5 115t-95.5 68t-108.5 32t-121.5 4.5l-53 -4l-125 -587l84 2q223 12 295 200l18 45h15l-123 -540h-14l4 45q0 57 -8.5 94.5t-32.5 66.5t-68 44.5t-113 19.5l-61 4l-131 -618l152 -11q187 3 340 100.5t251 295.5l13 22h16l-133 -436h-1176
q-1 0 1.5 4.5t5.5 9.5l2 4l102 9q102 8 106 32zM479 561h328l115 549h-4z" />
    <glyph glyph-name="Ccedilla" unicode="&#xc7;" horiz-adv-x="1406" 
d="M715 -16q-116 8 -215.5 46t-171 96.5t-122 133.5t-75.5 160t-25 174q0 137 49.5 262.5t142.5 226.5t241.5 161.5t330.5 60.5q240 0 394 -107l153 51l-39 -399l-14 2l-143 326q-51 45 -127 70.5t-138 25.5q-80 0 -151.5 -34.5t-125.5 -94.5t-98 -138t-71.5 -167t-42 -181
t-14.5 -180q0 -231 96.5 -354t279.5 -123q239 0 392 274l90 162l10 -4l-98 -409l-70 -2q-61 -15 -169 -29t-198 -14q-31 0 -47 2l-133 -111q129 13 219 -39.5t90 -130.5q0 -238 -509 -225v10q190 14 269 46.5t79 105.5q0 43 -36.5 71.5t-80 38.5t-88.5 10q-65 0 -111 -12
l2 14q275 222 275 224z" />
    <glyph glyph-name="Egrave" unicode="&#xc8;" horiz-adv-x="1282" 
d="M-68 0l7 12l79 8q99 11 103 33l250 1180q1 6 -2 9.5t-15 6.5t-34 6t-60 7l-53 6l-2 12h1038l-2 -434h-16l-6 22q-24 98 -60 169.5t-77.5 115t-95.5 68t-108.5 32t-121.5 4.5l-54 -4l-124 -587l84 2q222 12 294 200l19 45h14l-123 -540h-14l4 45q0 115 -44 165.5
t-177 59.5l-62 4l-131 -618l152 -11q187 3 340.5 100.5t251.5 295.5l12 22h16l-133 -436h-1149zM920 1348l-420 383h262l170 -383h-12z" />
    <glyph glyph-name="Eacute" unicode="&#xc9;" horiz-adv-x="1282" 
d="M-68 0l7 12l79 8q99 11 103 33l250 1180q1 6 -2 9.5t-15 6.5t-34 6t-60 7l-53 6l-2 12h1038l-2 -434h-16l-6 22q-24 98 -60 169.5t-77.5 115t-95.5 68t-108.5 32t-121.5 4.5l-54 -4l-124 -587l84 2q222 12 294 200l19 45h14l-123 -540h-14l4 45q0 115 -44 165.5
t-177 59.5l-62 4l-131 -618l152 -11q187 3 340.5 100.5t251.5 295.5l12 22h16l-133 -436h-1149zM653 1348l289 383h285l-568 -383h-6z" />
    <glyph glyph-name="Ecircumflex" unicode="&#xca;" horiz-adv-x="1282" 
d="M-68 0l7 12l79 8q99 11 103 33l250 1180q1 6 -2 9.5t-15 6.5t-34 6t-60 7l-53 6l-2 12h1038l-2 -434h-16l-6 22q-24 98 -60 169.5t-77.5 115t-95.5 68t-108.5 32t-121.5 4.5l-54 -4l-124 -587l84 2q222 12 294 200l19 45h14l-123 -540h-14l4 45q0 115 -44 165.5
t-177 59.5l-62 4l-131 -618l152 -11q187 3 340.5 100.5t251.5 295.5l12 22h16l-133 -436h-1149zM516 1325l373 404h16l203 -404h-14l-236 164h-4l-324 -164h-14z" />
    <glyph glyph-name="Edieresis" unicode="&#xcb;" horiz-adv-x="1282" 
d="M-68 0l7 12l79 8q99 11 103 33l250 1180q1 6 -2 9.5t-15 6.5t-34 6t-60 7l-53 6l-2 12h1038l-2 -434h-16l-6 22q-24 98 -60 169.5t-77.5 115t-95.5 68t-108.5 32t-121.5 4.5l-54 -4l-124 -587l84 2q222 12 294 200l19 45h14l-123 -540h-14l4 45q0 115 -44 165.5
t-177 59.5l-62 4l-131 -618l152 -11q187 3 340.5 100.5t251.5 295.5l12 22h16l-133 -436h-1149zM999 1366q-59 0 -96 38.5t-37 90.5q0 54 37 93.5t96 39.5q60 0 97 -39.5t37 -93.5q0 -52 -37 -90.5t-97 -38.5zM573 1366q-59 0 -96 38.5t-37 90.5q0 54 37 93.5t96 39.5
q60 0 97 -39.5t37 -93.5q0 -52 -37 -90.5t-97 -38.5z" />
    <glyph glyph-name="Igrave" unicode="&#xcc;" horiz-adv-x="788" 
d="M-37 0l6 12l80 8q49 4 75 13.5t28 19.5l249 1180q1 6 -2 9t-15 6.5t-33.5 6.5t-59.5 7l-58 6l-2 12h682l-8 -12l-78 -8q-98 -8 -102 -33l-250 -1180q-1 -6 2 -9.5t15 -6.5t34 -6t60 -7l53 -6l2 -12h-678zM676 1348l-420 383h262l170 -383h-12z" />
    <glyph glyph-name="Iacute" unicode="&#xcd;" horiz-adv-x="788" 
d="M-37 0l6 12l80 8q49 4 75 13.5t28 19.5l249 1180q1 6 -2 9t-15 6.5t-33.5 6.5t-59.5 7l-58 6l-2 12h682l-8 -12l-78 -8q-98 -8 -102 -33l-250 -1180q-1 -6 2 -9.5t15 -6.5t34 -6t60 -7l53 -6l2 -12h-678zM469 1348l289 383h284l-567 -383h-6z" />
    <glyph glyph-name="Icircumflex" unicode="&#xce;" horiz-adv-x="788" 
d="M-37 0l6 12l80 8q49 4 75 13.5t28 19.5l249 1180q1 6 -2 9t-15 6.5t-33.5 6.5t-59.5 7l-58 6l-2 12h682l-8 -12l-78 -8q-98 -8 -102 -33l-250 -1180q-1 -6 2 -9.5t15 -6.5t34 -6t60 -7l53 -6l2 -12h-678zM268 1325l373 404h16l203 -404h-14l-236 164h-4l-323 -164h-15z
" />
    <glyph glyph-name="Idieresis" unicode="&#xcf;" horiz-adv-x="788" 
d="M-37 0l6 12l80 8q49 4 75 13.5t28 19.5l249 1180q1 6 -2 9t-15 6.5t-33.5 6.5t-59.5 7l-58 6l-2 12h682l-8 -12l-78 -8q-98 -8 -102 -33l-250 -1180q-1 -6 2 -9.5t15 -6.5t34 -6t60 -7l53 -6l2 -12h-678zM793 1366q-59 0 -96.5 38.5t-37.5 90.5q0 53 37.5 93t96.5 40
q60 0 96.5 -39.5t36.5 -93.5q0 -52 -36.5 -90.5t-96.5 -38.5zM367 1366q-59 0 -96.5 38.5t-37.5 90.5q0 53 37.5 93t96.5 40q60 0 96.5 -39.5t36.5 -93.5q0 -52 -36.5 -90.5t-96.5 -38.5z" />
    <glyph glyph-name="Eth" unicode="&#xd0;" horiz-adv-x="1454" 
d="M244 631h-170l8 24h166l123 578q1 6 -2.5 9.5t-16 6.5t-33.5 6t-59 7l-53 6l-2 12h577q156 0 282 -42.5t208 -118.5t126 -179t44 -225q0 -141 -58.5 -270t-164.5 -228t-267.5 -158t-353.5 -59h-666l7 12l79 8q99 11 103 33zM575 655h203l4 -24h-213l-120 -576l135 -32
q95 0 178 46t144 126.5t105.5 188t66.5 232.5t22 258q0 381 -316 381h-82z" />
    <glyph glyph-name="Ntilde" unicode="&#xd1;" horiz-adv-x="1427" 
d="M1079 -12l-657 1083h-4l-209 -979q-4 -20 7 -34.5t54 -27t119 -16.5l35 -2l2 -12h-465l6 12l39 2q160 9 178 103l217 979q-39 77 -101 118t-118 46l-16 2l-2 18h545l477 -784l4 2l147 690q4 20 -7 34.5t-54 27t-119 16.5l-35 2l-2 12h465l-8 -12l-37 -2
q-160 -9 -178 -103l-260 -1175h-23zM1085 1360q-56 0 -136 33t-153 65.5t-112 32.5q-15 0 -25 -2.5t-24 -12.5t-26.5 -34.5t-24.5 -63.5q-9 0 -13 -2q45 173 88.5 231t133.5 58q44 0 103.5 -20.5t107.5 -45t100 -45t84 -20.5q21 0 34.5 4.5t34 31t35.5 77.5q9 0 13 2
q-47 -174 -88.5 -231.5t-131.5 -57.5z" />
    <glyph glyph-name="Ograve" unicode="&#xd2;" horiz-adv-x="1529" 
d="M764 -27q-190 0 -337.5 85t-225.5 228t-78 318q0 133 54 259.5t148 224.5t233 157.5t298 59.5q144 0 267.5 -51t208 -138.5t132 -205t47.5 -248.5q0 -133 -53.5 -257t-148.5 -220t-237 -154t-308 -58zM727 -4q127 0 232.5 129t163 337t57.5 443q0 173 -74 273t-213 100
q-87 0 -162 -65.5t-125 -168t-85.5 -230t-51.5 -249t-16 -227.5q0 -161 69.5 -251.5t204.5 -90.5zM1004 1348l-420 383h262l170 -383h-12z" />
    <glyph glyph-name="Oacute" unicode="&#xd3;" horiz-adv-x="1529" 
d="M764 -27q-190 0 -337.5 85t-225.5 228t-78 318q0 133 54 259.5t148 224.5t233 157.5t298 59.5q144 0 267.5 -51t208 -138.5t132 -205t47.5 -248.5q0 -133 -53.5 -257t-148.5 -220t-237 -154t-308 -58zM727 -4q127 0 232.5 129t163 337t57.5 443q0 173 -74 273t-213 100
q-87 0 -162 -65.5t-125 -168t-85.5 -230t-51.5 -249t-16 -227.5q0 -161 69.5 -251.5t204.5 -90.5zM881 1348l288 383h285l-567 -383h-6z" />
    <glyph glyph-name="Ocircumflex" unicode="&#xd4;" horiz-adv-x="1529" 
d="M764 -27q-190 0 -337.5 85t-225.5 228t-78 318q0 133 54 259.5t148 224.5t233 157.5t298 59.5q144 0 267.5 -51t208 -138.5t132 -205t47.5 -248.5q0 -133 -53.5 -257t-148.5 -220t-237 -154t-308 -58zM727 -4q127 0 232.5 129t163 337t57.5 443q0 173 -74 273t-213 100
q-87 0 -162 -65.5t-125 -168t-85.5 -230t-51.5 -249t-16 -227.5q0 -161 69.5 -251.5t204.5 -90.5zM659 1325l373 404h17l202 -404h-14l-236 164h-4l-323 -164h-15z" />
    <glyph glyph-name="Otilde" unicode="&#xd5;" horiz-adv-x="1529" 
d="M764 -27q-190 0 -337.5 85t-225.5 228t-78 318q0 133 54 259.5t148 224.5t233 157.5t298 59.5q144 0 267.5 -51t208 -138.5t132 -205t47.5 -248.5q0 -133 -53.5 -257t-148.5 -220t-237 -154t-308 -58zM727 -4q127 0 232.5 129t163 337t57.5 443q0 173 -74 273t-213 100
q-87 0 -162 -65.5t-125 -168t-85.5 -230t-51.5 -249t-16 -227.5q0 -161 69.5 -251.5t204.5 -90.5zM1145 1360q-56 0 -136 33t-153.5 65.5t-112.5 32.5q-15 0 -25 -2.5t-24 -12.5t-26.5 -34.5t-24.5 -63.5q-8 0 -12 -2q45 173 88 231t133 58q44 0 103.5 -20.5t107.5 -45
t100 -45t84 -20.5q15 0 25.5 2.5t25.5 12.5t28.5 34.5t25.5 63.5q8 0 12 2q-47 -175 -88.5 -232t-130.5 -57z" />
    <glyph glyph-name="Odieresis" unicode="&#xd6;" horiz-adv-x="1529" 
d="M764 -27q-190 0 -337.5 85t-225.5 228t-78 318q0 133 54 259.5t148 224.5t233 157.5t298 59.5q144 0 267.5 -51t208 -138.5t132 -205t47.5 -248.5q0 -133 -53.5 -257t-148.5 -220t-237 -154t-308 -58zM727 -4q127 0 232.5 129t163 337t57.5 443q0 173 -74 273t-213 100
q-87 0 -162 -65.5t-125 -168t-85.5 -230t-51.5 -249t-16 -227.5q0 -161 69.5 -251.5t204.5 -90.5zM1192 1366q-59 0 -96 38.5t-37 90.5q0 54 37 93.5t96 39.5q60 0 96.5 -39.5t36.5 -93.5q0 -52 -36.5 -90.5t-96.5 -38.5zM766 1366q-59 0 -96 38.5t-37 90.5q0 54 37 93.5
t96 39.5q60 0 96.5 -39.5t36.5 -93.5q0 -52 -36.5 -90.5t-96.5 -38.5z" />
    <glyph glyph-name="multiply" unicode="&#xd7;" horiz-adv-x="886" 
d="M807 115l-354 354l-355 -354l-16 16l354 354l-354 355l16 16l355 -354l354 354l16 -16l-354 -355l354 -354z" />
    <glyph glyph-name="Oslash" unicode="&#xd8;" horiz-adv-x="1529" 
d="M1251 1182q122 -90 191 -228t69 -295q0 -106 -33.5 -207.5t-99 -188t-154.5 -152t-208 -103t-252 -37.5q-214 0 -377 109l-180 -230h-27l191 242q-117 87 -182.5 220.5t-65.5 289.5q0 133 54 259.5t148 224.5t233 157.5t298 59.5q215 0 377 -111l172 219h27zM465 213
l686 874q-33 91 -99 140t-163 49q-73 0 -137.5 -46t-111 -123t-83.5 -174t-59 -204t-33.5 -207t-11.5 -188q0 -66 12 -121zM1159 1063q-686 -875 -688 -877q28 -91 94.5 -141.5t165.5 -50.5q96 0 180.5 76t142.5 201.5t92 291t34 340.5q0 89 -21 160z" />
    <glyph glyph-name="Ugrave" unicode="&#xd9;" horiz-adv-x="1449" 
d="M754 -35q-264 0 -407.5 103.5t-143.5 298.5q0 78 22 188q2 11 6 30.5t16 76.5t23.5 111t26 124t26.5 127t22.5 106.5t16 77t5.5 25.5q1 6 -1.5 9t-13 6.5t-31.5 6.5t-59 7l-57 6l-2 12h682l-8 -12l-78 -8q-99 -10 -103 -33l-139 -664q-25 -122 -25 -203
q0 -157 82.5 -225.5t249.5 -68.5q283 0 353 331l167 791q4 19 -8 34.5t-56 28.5t-120 17h-37l-4 12h471l-8 -12h-39q-155 -9 -174 -105l-170 -770q-45 -208 -166 -318t-319 -110zM1044 1348l-419 383h262l170 -383h-13z" />
    <glyph glyph-name="Uacute" unicode="&#xda;" horiz-adv-x="1449" 
d="M754 -35q-264 0 -407.5 103.5t-143.5 298.5q0 78 22 188q2 11 6 30.5t16 76.5t23.5 111t26 124t26.5 127t22.5 106.5t16 77t5.5 25.5q1 6 -1.5 9t-13 6.5t-31.5 6.5t-59 7l-57 6l-2 12h682l-8 -12l-78 -8q-99 -10 -103 -33l-139 -664q-25 -122 -25 -203
q0 -157 82.5 -225.5t249.5 -68.5q283 0 353 331l167 791q4 19 -8 34.5t-56 28.5t-120 17h-37l-4 12h471l-8 -12h-39q-155 -9 -174 -105l-170 -770q-45 -208 -166 -318t-319 -110zM901 1348l289 383h285l-568 -383h-6z" />
    <glyph glyph-name="Ucircumflex" unicode="&#xdb;" horiz-adv-x="1449" 
d="M754 -35q-264 0 -407.5 103.5t-143.5 298.5q0 78 22 188q2 11 6 30.5t16 76.5t23.5 111t26 124t26.5 127t22.5 106.5t16 77t5.5 25.5q1 6 -1.5 9t-13 6.5t-31.5 6.5t-59 7l-57 6l-2 12h682l-8 -12l-78 -8q-99 -10 -103 -33l-139 -664q-25 -122 -25 -203
q0 -157 82.5 -225.5t249.5 -68.5q283 0 353 331l167 791q4 19 -8 34.5t-56 28.5t-120 17h-37l-4 12h471l-8 -12h-39q-155 -9 -174 -105l-170 -770q-45 -208 -166 -318t-319 -110zM682 1325l373 404h16l203 -404h-14l-236 164h-4l-324 -164h-14z" />
    <glyph glyph-name="Udieresis" unicode="&#xdc;" horiz-adv-x="1449" 
d="M754 -35q-264 0 -407.5 103.5t-143.5 298.5q0 78 22 188q2 11 6 30.5t16 76.5t23.5 111t26 124t26.5 127t22.5 106.5t16 77t5.5 25.5q1 6 -1.5 9t-13 6.5t-31.5 6.5t-59 7l-57 6l-2 12h682l-8 -12l-78 -8q-99 -10 -103 -33l-139 -664q-25 -122 -25 -203
q0 -157 82.5 -225.5t249.5 -68.5q283 0 353 331l167 791q4 19 -8 34.5t-56 28.5t-120 17h-37l-4 12h471l-8 -12h-39q-155 -9 -174 -105l-170 -770q-45 -208 -166 -318t-319 -110zM1206 1366q-59 0 -96 38.5t-37 90.5q0 54 37 93.5t96 39.5q60 0 96.5 -39.5t36.5 -93.5
q0 -52 -36.5 -90.5t-96.5 -38.5zM780 1366q-59 0 -96 38.5t-37 90.5q0 54 37 93.5t96 39.5q60 0 96.5 -39.5t36.5 -93.5q0 -52 -36.5 -90.5t-96.5 -38.5z" />
    <glyph glyph-name="Yacute" unicode="&#xdd;" horiz-adv-x="1370" 
d="M250 0l6 12l84 8q98 8 102 33l113 535l-147 448q-23 69 -38.5 105.5t-36.5 65t-45.5 40.5t-62.5 17l-28 4v12h688l-8 -12l-21 -2q-101 -8 -132.5 -33t-18.5 -64l165 -516l7 -2l186 246q145 196 172 254q31 64 -7 87q-29 18 -124 26l-43 4l-2 12h489l-8 -12l-55 -6
q-40 -4 -68 -14t-57.5 -31.5t-64 -61t-80 -97.5t-112.5 -146l-12 -16.5t-11 -14.5t-13 -17l-178 -235l-123 -582q-1 -6 2 -9.5t15 -6.5t34 -6t60 -7l53 -6l2 -12h-682zM854 1348l289 383h284l-567 -383h-6z" />
    <glyph glyph-name="Thorn" unicode="&#xde;" horiz-adv-x="1271" 
d="M-49 0q-1 0 1 4.5t4 9.5l3 4l78 9q98 11 102 32l248 1168q1 10 -14 14q-16 4 -97 14l-51 7l-2 18h676q1 0 -1 -4.5t-4 -9.5l-3 -4l-74 -9q-97 -11 -104 -32l-43 -201l98 -2q255 0 388.5 -92t133.5 -238q0 -173 -141.5 -274t-394.5 -101q-136 0 -228 25l-59 -285
q-1 -6 2 -9.5t14.5 -7t34 -6t60.5 -5.5l71 -7l2 -18h-700zM627 342q133 0 226 122t93 288q0 102 -50.5 166t-150.5 79h-79l-134 -637q75 -18 95 -18z" />
    <glyph glyph-name="germandbls" unicode="&#xdf;" horiz-adv-x="1130" 
d="M809 850q132 -78 208.5 -205t76.5 -256q0 -180 -110.5 -299t-270.5 -119q-124 0 -188 51.5t-64 124.5q0 57 38 96.5t93 39.5q52 0 84.5 -32t37 -74.5t-17.5 -86.5t-67 -65q8 -15 30.5 -26t51.5 -11q71 0 107 75t36 203q0 142 -70 286.5t-209 254.5l3 18q161 30 245 111
t84 223q0 71 -42 123.5t-109 52.5q-29 0 -51.5 -8t-40.5 -29.5t-30 -43t-25 -67t-22 -82.5t-24 -106q-16 -74 -26 -116l-160 -690q-71 -309 -205 -443q-119 -119 -278 -119q-102 0 -163 45.5t-61 120.5q0 55 38.5 95t105.5 40q40 0 73.5 -22.5t49.5 -57t2.5 -81t-60.5 -88.5
q1 -4 2.5 -9.5t10 -14.5t20.5 -9q43 0 78 54t75 191t91 384l96 483l-197 2l54 119h174q24 83 45 140.5t49.5 115.5t62 95t78 67t103 43.5t131.5 13.5q171 0 269.5 -73.5t98.5 -201.5q0 -97 -87 -160.5t-224 -72.5z" />
    <glyph glyph-name="agrave" unicode="&#xe0;" horiz-adv-x="1099" 
d="M754 -27q-38 0 -107 70.5t-69 106.5q0 41 16.5 93t75.5 201h-4q-72 -132 -118 -207t-98.5 -140.5t-101 -92.5t-104.5 -27q-99 0 -164.5 63t-65.5 159q0 121 76.5 266.5t208.5 277.5q177 177 319 177q53 0 85.5 -39t37.5 -99t-10 -133h6l101 248l268 -8l-168 -438
l-109 -295l109 -11l133 213l12 -6q-72 -155 -170.5 -267t-158.5 -112zM367 133q60 0 123 67t145 234q67 132 67 170q0 83 -46.5 153t-100.5 70q-13 0 -47 -30q-70 -71 -141.5 -249.5t-71.5 -303.5q0 -111 72 -111zM877 1006l-420 383h262l170 -383h-12z" />
    <glyph glyph-name="aacute" unicode="&#xe1;" horiz-adv-x="1099" 
d="M754 -27q-38 0 -107 70.5t-69 106.5q0 41 16.5 93t75.5 201h-4q-72 -132 -118 -207t-98.5 -140.5t-101 -92.5t-104.5 -27q-99 0 -164.5 63t-65.5 159q0 121 76.5 266.5t208.5 277.5q177 177 319 177q53 0 85.5 -39t37.5 -99t-10 -133h6l101 248l268 -8l-168 -438
l-109 -295l109 -11l133 213l12 -6q-72 -155 -170.5 -267t-158.5 -112zM367 133q60 0 123 67t145 234q67 132 67 170q0 83 -46.5 153t-100.5 70q-13 0 -47 -30q-70 -71 -141.5 -249.5t-71.5 -303.5q0 -111 72 -111zM590 1006l289 383h284l-567 -383h-6z" />
    <glyph glyph-name="acircumflex" unicode="&#xe2;" horiz-adv-x="1099" 
d="M754 -27q-38 0 -107 70.5t-69 106.5q0 41 16.5 93t75.5 201h-4q-72 -132 -118 -207t-98.5 -140.5t-101 -92.5t-104.5 -27q-99 0 -164.5 63t-65.5 159q0 121 76.5 266.5t208.5 277.5q177 177 319 177q53 0 85.5 -39t37.5 -99t-10 -133h6l101 248l268 -8l-168 -438
l-109 -295l109 -11l133 213l12 -6q-72 -155 -170.5 -267t-158.5 -112zM367 133q60 0 123 67t145 234q67 132 67 170q0 83 -46.5 153t-100.5 70q-13 0 -47 -30q-70 -71 -141.5 -249.5t-71.5 -303.5q0 -111 72 -111zM350 983l373 403h16l203 -403h-14l-236 164h-4l-323 -164
h-15z" />
    <glyph glyph-name="atilde" unicode="&#xe3;" horiz-adv-x="1099" 
d="M754 -27q-38 0 -107 70.5t-69 106.5q0 41 16.5 93t75.5 201h-4q-72 -132 -118 -207t-98.5 -140.5t-101 -92.5t-104.5 -27q-99 0 -164.5 63t-65.5 159q0 121 76.5 266.5t208.5 277.5q177 177 319 177q53 0 85.5 -39t37.5 -99t-10 -133h6l101 248l268 -8l-168 -438
l-109 -295l109 -11l133 213l12 -6q-72 -155 -170.5 -267t-158.5 -112zM367 133q60 0 123 67t145 234q67 132 67 170q0 83 -46.5 153t-100.5 70q-13 0 -47 -30q-70 -71 -141.5 -249.5t-71.5 -303.5q0 -111 72 -111zM872 1018q-56 0 -136 33t-153 65.5t-112 32.5
q-15 0 -25 -2.5t-24 -12.5t-26.5 -34.5t-24.5 -63.5q-9 0 -13 -2q45 173 88.5 231t133.5 58q44 0 103.5 -20.5t107.5 -45t100 -45t84 -20.5q21 0 34.5 4.5t34 31t35.5 77.5q9 0 13 2q-47 -174 -88.5 -231.5t-131.5 -57.5z" />
    <glyph glyph-name="adieresis" unicode="&#xe4;" horiz-adv-x="1099" 
d="M754 -27q-38 0 -107 70.5t-69 106.5q0 41 16.5 93t75.5 201h-4q-72 -132 -118 -207t-98.5 -140.5t-101 -92.5t-104.5 -27q-99 0 -164.5 63t-65.5 159q0 121 76.5 266.5t208.5 277.5q177 177 319 177q53 0 85.5 -39t37.5 -99t-10 -133h6l101 248l268 -8l-168 -438
l-109 -295l109 -11l133 213l12 -6q-72 -155 -170.5 -267t-158.5 -112zM367 133q60 0 123 67t145 234q67 132 67 170q0 83 -46.5 153t-100.5 70q-13 0 -47 -30q-70 -71 -141.5 -249.5t-71.5 -303.5q0 -111 72 -111zM940 1024q-59 0 -96 38.5t-37 90.5q0 54 37 93.5t96 39.5
q60 0 96.5 -39.5t36.5 -93.5q0 -52 -36.5 -90.5t-96.5 -38.5zM514 1024q-59 0 -96 38.5t-37 90.5q0 54 37 93.5t96 39.5q60 0 96.5 -39.5t36.5 -93.5q0 -52 -36.5 -90.5t-96.5 -38.5z" />
    <glyph glyph-name="aring" unicode="&#xe5;" horiz-adv-x="1099" 
d="M717 1020q-82 0 -132 53t-50 131q0 77 50 131t132 54t132 -54t50 -131q0 -78 -50 -131t-132 -53zM754 -27q-38 0 -107 70.5t-69 106.5q0 41 16.5 93t75.5 201h-4q-72 -132 -118 -207t-98.5 -140.5t-101 -92.5t-104.5 -27q-99 0 -164.5 63t-65.5 159q0 121 76.5 266.5
t208.5 277.5q177 177 319 177q53 0 85.5 -39t37.5 -99t-10 -133h6l101 248l268 -8l-168 -438l-109 -295l109 -11l133 213l12 -6q-72 -155 -170.5 -267t-158.5 -112zM717 1038q73 0 117.5 48t44.5 118q0 69 -44.5 117.5t-117.5 48.5t-117.5 -48.5t-44.5 -117.5
q0 -70 44.5 -118t117.5 -48zM367 133q60 0 123 67t145 234q67 132 67 170q0 83 -46.5 153t-100.5 70q-13 0 -47 -30q-70 -71 -141.5 -249.5t-71.5 -303.5q0 -111 72 -111z" />
    <glyph glyph-name="ae" unicode="&#xe6;" horiz-adv-x="1445" 
d="M244 -23q-99 0 -164.5 63t-65.5 159q0 121 76.5 266.5t208.5 277.5q177 177 319 177q76 0 111 -80t16 -185q80 120 202.5 191.5t271.5 71.5q109 0 176 -56t67 -131q0 -56 -31 -96t-102 -69.5t-160 -50t-233 -42.5q-14 -74 -14 -164q0 -94 37.5 -141t119.5 -47
q84 0 153 45.5t130 167.5l18 -8q-94 -194 -197.5 -270t-230.5 -76q-132 0 -225.5 88t-93.5 231q0 59 4 88q-48 -86 -84 -145.5t-76 -113t-75.5 -84.5t-75.5 -49t-82 -18zM944 496q150 39 223.5 100t73.5 168q0 56 -22 90.5t-58 34.5q-29 0 -65 -33q-47 -47 -90 -145
t-66 -213zM367 133q60 0 123 67t145 234q67 132 67 170q0 83 -46.5 153t-100.5 70q-13 0 -47 -30q-70 -70 -141.5 -249t-71.5 -304q0 -111 72 -111z" />
    <glyph glyph-name="ccedilla" unicode="&#xe7;" horiz-adv-x="811" 
d="M313 -25q-122 3 -208.5 93t-86.5 231q0 109 43 219t118 199t187 145t238 56q95 0 163.5 -49t68.5 -121q0 -74 -42.5 -124.5t-103.5 -50.5q-60 0 -100.5 37t-40.5 90q0 52 33 97t77 51q-6 4 -23.5 18t-28 20.5t-17.5 6.5q-45 0 -105 -57q-70 -70 -124 -222.5t-54 -298.5
q0 -91 41.5 -142.5t112.5 -51.5q75 0 129 43.5t117 169.5l18 -8q-91 -190 -182.5 -268t-202.5 -83q1 0 -31 -26l-64 -52l-32 -26q129 13 219 -39.5t90 -130.5q0 -238 -510 -225v10q190 14 269 46.5t79 105.5q0 43 -36 71.5t-79.5 38.5t-88.5 10q-65 0 -111 -12l2 14z" />
    <glyph glyph-name="egrave" unicode="&#xe8;" horiz-adv-x="831" 
d="M334 -25q-131 0 -223.5 90t-92.5 234q0 108 45 218.5t121 199.5t186 145t230 56q97 0 168.5 -51t71.5 -126q0 -208 -518 -268q-15 -79 -15 -164q0 -87 44.5 -137.5t119.5 -50.5q54 0 96.5 15.5t90.5 64.5t90 133l18 -8q-94 -195 -200 -273t-232 -78zM330 496
q54 10 106.5 32t98 54.5t74 80t28.5 101.5q0 55 -23 90t-57 35q-29 0 -61 -29q-52 -52 -100 -151t-70 -211zM614 1006l-419 383h262l170 -383h-13z" />
    <glyph glyph-name="eacute" unicode="&#xe9;" horiz-adv-x="831" 
d="M334 -25q-131 0 -223.5 90t-92.5 234q0 108 45 218.5t121 199.5t186 145t230 56q97 0 168.5 -51t71.5 -126q0 -208 -518 -268q-15 -79 -15 -164q0 -87 44.5 -137.5t119.5 -50.5q54 0 96.5 15.5t90.5 64.5t90 133l18 -8q-94 -195 -200 -273t-232 -78zM330 496
q54 10 106.5 32t98 54.5t74 80t28.5 101.5q0 55 -23 90t-57 35q-29 0 -61 -29q-52 -52 -100 -151t-70 -211zM502 1006l289 383h284l-567 -383h-6z" />
    <glyph glyph-name="ecircumflex" unicode="&#xea;" horiz-adv-x="831" 
d="M334 -25q-131 0 -223.5 90t-92.5 234q0 108 45 218.5t121 199.5t186 145t230 56q97 0 168.5 -51t71.5 -126q0 -208 -518 -268q-15 -79 -15 -164q0 -87 44.5 -137.5t119.5 -50.5q54 0 96.5 15.5t90.5 64.5t90 133l18 -8q-94 -195 -200 -273t-232 -78zM330 496
q54 10 106.5 32t98 54.5t74 80t28.5 101.5q0 55 -23 90t-57 35q-29 0 -61 -29q-52 -52 -100 -151t-70 -211zM262 983l373 403h16l203 -403h-14l-236 164h-4l-324 -164h-14z" />
    <glyph glyph-name="edieresis" unicode="&#xeb;" horiz-adv-x="831" 
d="M334 -25q-131 0 -223.5 90t-92.5 234q0 108 45 218.5t121 199.5t186 145t230 56q97 0 168.5 -51t71.5 -126q0 -208 -518 -268q-15 -79 -15 -164q0 -87 44.5 -137.5t119.5 -50.5q54 0 96.5 15.5t90.5 64.5t90 133l18 -8q-94 -195 -200 -273t-232 -78zM330 496
q54 10 106.5 32t98 54.5t74 80t28.5 101.5q0 55 -23 90t-57 35q-29 0 -61 -29q-52 -52 -100 -151t-70 -211zM811 1024q-59 0 -96 38.5t-37 90.5q0 54 37 93.5t96 39.5q60 0 96.5 -39.5t36.5 -93.5q0 -52 -36.5 -90.5t-96.5 -38.5zM385 1024q-59 0 -96 38.5t-37 90.5
q0 54 37 93.5t96 39.5q60 0 96.5 -39.5t36.5 -93.5q0 -52 -36.5 -90.5t-96.5 -38.5z" />
    <glyph glyph-name="igrave" unicode="&#xec;" horiz-adv-x="610" 
d="M240 -27q-33 0 -101.5 65.5t-68.5 111.5q0 25 54 172t108 281l53 134l-125 8l-129 -210l-13 6q73 156 167 266.5t153 110.5q37 0 123 -56t86 -100q0 -31 -55.5 -182.5t-110.5 -287.5l-55 -136l100 -11l145 213l13 -6q-83 -157 -184 -268t-160 -111zM502 1006l-420 383
h262l170 -383h-12z" />
    <glyph glyph-name="iacute" unicode="&#xed;" horiz-adv-x="610" 
d="M240 -27q-33 0 -101.5 65.5t-68.5 111.5q0 25 54 172t108 281l53 134l-125 8l-129 -210l-13 6q73 156 167 266.5t153 110.5q37 0 123 -56t86 -100q0 -31 -55.5 -182.5t-110.5 -287.5l-55 -136l100 -11l145 213l13 -6q-83 -157 -184 -268t-160 -111zM338 1006l289 383h284
l-567 -383h-6z" />
    <glyph glyph-name="icircumflex" unicode="&#xee;" horiz-adv-x="610" 
d="M182 989l353 400h14l186 -400h-16l-215 162h-4l-303 -162h-15zM240 -27q-33 0 -101.5 65.5t-68.5 111.5q0 25 54 172t108 281l53 134l-125 8l-129 -210l-13 6q73 156 167 266.5t153 110.5q37 0 123 -56t86 -100q0 -31 -55.5 -182.5t-110.5 -287.5l-55 -136l100 -11
l145 213l13 -6q-83 -157 -184 -268t-160 -111z" />
    <glyph glyph-name="idieresis" unicode="&#xef;" horiz-adv-x="610" 
d="M240 -27q-33 0 -101.5 65.5t-68.5 111.5q0 25 54 172t108 281l53 134l-125 8l-129 -210l-13 6q73 156 167 266.5t153 110.5q37 0 123 -56t86 -100q0 -31 -55.5 -182.5t-110.5 -287.5l-55 -136l100 -11l145 213l13 -6q-83 -157 -184 -268t-160 -111zM688 1024
q-59 0 -96 38.5t-37 90.5q0 54 37 93.5t96 39.5q60 0 96.5 -39.5t36.5 -93.5q0 -52 -36.5 -90.5t-96.5 -38.5zM262 1024q-59 0 -96 38.5t-37 90.5q0 54 37 93.5t96 39.5q60 0 96.5 -39.5t36.5 -93.5q0 -52 -36.5 -90.5t-96.5 -38.5z" />
    <glyph glyph-name="eth" unicode="&#xf0;" horiz-adv-x="913" 
d="M487 1126l-264 -53q-1 0 1 6.5t4 12.5l3 6l238 49q-78 90 -170 137l6 12q175 -39 297 -122l236 47l-2 -25l-207 -41q250 -190 250 -569q0 -160 -70.5 -302.5t-185 -226.5t-238.5 -84q-157 0 -256.5 114t-99.5 286q0 134 71.5 261t185.5 205.5t232 78.5q48 0 98 -15
q-51 123 -129 223zM342 0q120 0 227 328q39 121 58.5 231.5t19.5 175.5q0 76 -23 115t-59 39q-50 0 -114 -87t-123 -272q-35 -109 -52.5 -216t-17.5 -167q0 -68 22.5 -107.5t61.5 -39.5z" />
    <glyph glyph-name="ntilde" unicode="&#xf1;" horiz-adv-x="1153" 
d="M791 -27q-33 0 -100.5 65.5t-67.5 111.5q0 17 4 35.5t14.5 47t20.5 53t30.5 74t36.5 89.5q10 24 24.5 59.5t22.5 55t16.5 42t12.5 36.5t4 22q0 12 -37.5 32.5t-64.5 20.5q-16 0 -45.5 -30.5t-70.5 -91.5t-98 -166.5t-120 -240.5l-74 -194l-276 10l116 338l117 397l-100 9
l-131 -213l-13 6q72 155 171 267t159 112q34 0 110 -66t76 -111q0 -44 -39 -165.5t-104 -276.5l12 -4q94 184 183.5 333t140.5 197q95 91 151 91q98 0 162 -50.5t64 -99.5q0 -86 -94 -319l-117 -293l100 -11l146 213l12 -6q-82 -155 -188 -267t-166 -112zM907 1018
q-56 0 -136 33t-153 65.5t-112 32.5q-15 0 -25 -2.5t-24 -12.5t-26.5 -34.5t-24.5 -63.5q-9 0 -13 -2q45 173 88 231t133 58q44 0 103.5 -20.5t107.5 -45t100.5 -45t84.5 -20.5q21 0 34.5 4.5t34 31t35.5 77.5q8 0 12 2q-47 -175 -88.5 -232t-130.5 -57z" />
    <glyph glyph-name="ograve" unicode="&#xf2;" horiz-adv-x="913" 
d="M385 -27q-157 0 -256.5 114t-99.5 286q0 134 71.5 261.5t185.5 206.5t232 79q147 0 254 -123t107 -299q0 -130 -70.5 -252.5t-185.5 -197.5t-238 -75zM342 0q121 0 227 330q39 120 58.5 230.5t19.5 176.5q0 76 -23 115t-59 39q-50 0 -114 -87.5t-123 -273.5
q-35 -109 -52.5 -216t-17.5 -167q0 -68 22.5 -107.5t61.5 -39.5zM653 1006l-420 383h263l170 -383h-13z" />
    <glyph glyph-name="oacute" unicode="&#xf3;" horiz-adv-x="913" 
d="M385 -27q-157 0 -256.5 114t-99.5 286q0 134 71.5 261.5t185.5 206.5t232 79q147 0 254 -123t107 -299q0 -130 -70.5 -252.5t-185.5 -197.5t-238 -75zM342 0q121 0 227 330q39 120 58.5 230.5t19.5 176.5q0 76 -23 115t-59 39q-50 0 -114 -87.5t-123 -273.5
q-35 -109 -52.5 -216t-17.5 -167q0 -68 22.5 -107.5t61.5 -39.5zM506 1006l289 383h284l-567 -383h-6z" />
    <glyph glyph-name="ocircumflex" unicode="&#xf4;" horiz-adv-x="913" 
d="M385 -27q-157 0 -256.5 114t-99.5 286q0 134 71.5 261.5t185.5 206.5t232 79q147 0 254 -123t107 -299q0 -130 -70.5 -252.5t-185.5 -197.5t-238 -75zM342 0q121 0 227 330q39 120 58.5 230.5t19.5 176.5q0 76 -23 115t-59 39q-50 0 -114 -87.5t-123 -273.5
q-35 -109 -52.5 -216t-17.5 -167q0 -68 22.5 -107.5t61.5 -39.5zM287 983l372 403h17l203 -403h-15l-235 164h-4l-324 -164h-14z" />
    <glyph glyph-name="otilde" unicode="&#xf5;" horiz-adv-x="913" 
d="M385 -27q-157 0 -256.5 114t-99.5 286q0 134 71.5 261.5t185.5 206.5t232 79q147 0 254 -123t107 -299q0 -130 -70.5 -252.5t-185.5 -197.5t-238 -75zM342 0q121 0 227 330q39 120 58.5 230.5t19.5 176.5q0 76 -23 115t-59 39q-50 0 -114 -87.5t-123 -273.5
q-35 -109 -52.5 -216t-17.5 -167q0 -68 22.5 -107.5t61.5 -39.5zM788 1018q-56 0 -136 33t-153 65.5t-112 32.5q-15 0 -25 -2.5t-24 -12.5t-26.5 -34.5t-24.5 -63.5q-9 0 -13 -2q45 173 88.5 231t133.5 58q44 0 103.5 -20.5t107.5 -45t100 -45t84 -20.5q21 0 34.5 4.5t34 31
t35.5 77.5q9 0 13 2q-47 -174 -88.5 -231.5t-131.5 -57.5z" />
    <glyph glyph-name="odieresis" unicode="&#xf6;" horiz-adv-x="913" 
d="M385 -27q-157 0 -256.5 114t-99.5 286q0 134 71.5 261.5t185.5 206.5t232 79q147 0 254 -123t107 -299q0 -130 -70.5 -252.5t-185.5 -197.5t-238 -75zM342 0q121 0 227 330q39 120 58.5 230.5t19.5 176.5q0 76 -23 115t-59 39q-50 0 -114 -87.5t-123 -273.5
q-35 -109 -52.5 -216t-17.5 -167q0 -68 22.5 -107.5t61.5 -39.5zM836 1024q-59 0 -96.5 38.5t-37.5 90.5q0 53 37.5 93t96.5 40q60 0 96.5 -39.5t36.5 -93.5q0 -52 -36.5 -90.5t-96.5 -38.5zM410 1024q-59 0 -96.5 38.5t-37.5 90.5q0 53 37.5 93t96.5 40q60 0 96.5 -39.5
t36.5 -93.5q0 -52 -36.5 -90.5t-96.5 -38.5z" />
    <glyph glyph-name="divide" unicode="&#xf7;" horiz-adv-x="886" 
d="M549 774q0 -40 -28 -70t-70 -30t-71.5 30.5t-29.5 69.5q0 37 29.5 65.5t71.5 28.5t70 -28t28 -66zM860 473h-817l4 25h809zM549 195q0 -39 -28 -69t-70 -30t-71.5 30t-29.5 69q0 37 29.5 65.5t71.5 28.5t70 -28t28 -66z" />
    <glyph glyph-name="oslash" unicode="&#xf8;" horiz-adv-x="913" 
d="M141 72q-112 112 -112 301q0 134 71.5 261t185.5 205.5t232 78.5q120 0 219 -89l279 357h26l-290 -371q127 -124 127 -317q0 -130 -70.5 -252.5t-185.5 -197.5t-238 -75q-133 0 -227 84l-252 -319h-27zM645 678l-385 -490q-2 -16 -2 -41q0 -68 22.5 -107.5t61.5 -39.5
q120 0 227 328q60 187 76 350zM264 227l383 488v20q0 76 -23 115t-59 39q-50 0 -114 -87t-123 -272q-49 -148 -64 -303z" />
    <glyph glyph-name="ugrave" unicode="&#xf9;" horiz-adv-x="1153" 
d="M811 -27q-34 0 -110 66t-76 111q0 44 39 168.5t102 275.5l-12 4q-225 -441 -322 -532q-95 -91 -151 -91q-98 0 -162 50.5t-64 99.5q0 84 95 319l114 295l-100 9l-144 -213l-12 6q82 155 188 267t166 112q33 0 102 -65.5t66 -111.5q-1 -17 -5 -35.5t-15 -48.5t-19.5 -51.5
t-30.5 -74.5t-36 -89q-9 -23 -24 -59t-23 -55.5t-17 -42.5t-12.5 -37t-3.5 -23q0 -12 39 -31.5t66 -19.5q22 0 64 51t113 174t154 301l74 197l276 -10l-116 -338l-119 -395l100 -11l133 213l13 -6q-72 -155 -171 -267t-159 -112zM731 1006l-420 383h262l170 -383h-12z" />
    <glyph glyph-name="uacute" unicode="&#xfa;" horiz-adv-x="1153" 
d="M811 -27q-34 0 -110 66t-76 111q0 44 39 168.5t102 275.5l-12 4q-225 -441 -322 -532q-95 -91 -151 -91q-98 0 -162 50.5t-64 99.5q0 84 95 319l114 295l-100 9l-144 -213l-12 6q82 155 188 267t166 112q33 0 102 -65.5t66 -111.5q-1 -17 -5 -35.5t-15 -48.5t-19.5 -51.5
t-30.5 -74.5t-36 -89q-9 -23 -24 -59t-23 -55.5t-17 -42.5t-12.5 -37t-3.5 -23q0 -12 39 -31.5t66 -19.5q22 0 64 51t113 174t154 301l74 197l276 -10l-116 -338l-119 -395l100 -11l133 213l13 -6q-72 -155 -171 -267t-159 -112zM618 1006l289 383h285l-567 -383h-7z" />
    <glyph glyph-name="ucircumflex" unicode="&#xfb;" horiz-adv-x="1153" 
d="M811 -27q-34 0 -110 66t-76 111q0 44 39 168.5t102 275.5l-12 4q-225 -441 -322 -532q-95 -91 -151 -91q-98 0 -162 50.5t-64 99.5q0 84 95 319l114 295l-100 9l-144 -213l-12 6q82 155 188 267t166 112q33 0 102 -65.5t66 -111.5q-1 -17 -5 -35.5t-15 -48.5t-19.5 -51.5
t-30.5 -74.5t-36 -89q-9 -23 -24 -59t-23 -55.5t-17 -42.5t-12.5 -37t-3.5 -23q0 -12 39 -31.5t66 -19.5q22 0 64 51t113 174t154 301l74 197l276 -10l-116 -338l-119 -395l100 -11l133 213l13 -6q-72 -155 -171 -267t-159 -112zM420 983l373 403h16l203 -403h-15l-235 164
h-4l-324 -164h-14z" />
    <glyph glyph-name="udieresis" unicode="&#xfc;" horiz-adv-x="1153" 
d="M811 -27q-34 0 -110 66t-76 111q0 44 39 168.5t102 275.5l-12 4q-225 -441 -322 -532q-95 -91 -151 -91q-98 0 -162 50.5t-64 99.5q0 84 95 319l114 295l-100 9l-144 -213l-12 6q82 155 188 267t166 112q33 0 102 -65.5t66 -111.5q-1 -17 -5 -35.5t-15 -48.5t-19.5 -51.5
t-30.5 -74.5t-36 -89q-9 -23 -24 -59t-23 -55.5t-17 -42.5t-12.5 -37t-3.5 -23q0 -12 39 -31.5t66 -19.5q22 0 64 51t113 174t154 301l74 197l276 -10l-116 -338l-119 -395l100 -11l133 213l13 -6q-72 -155 -171 -267t-159 -112zM969 1024q-59 0 -96 38.5t-37 90.5
q0 54 37 93.5t96 39.5q60 0 96.5 -39.5t36.5 -93.5q0 -52 -36.5 -90.5t-96.5 -38.5zM543 1024q-59 0 -96 38.5t-37 90.5q0 54 37 93.5t96 39.5q60 0 96.5 -39.5t36.5 -93.5q0 -52 -36.5 -90.5t-96.5 -38.5z" />
    <glyph glyph-name="yacute" unicode="&#xfd;" horiz-adv-x="954" 
d="M-53 -373q-106 0 -166 50t-60 124q0 60 46 104t104 44q57 0 97.5 -35.5t43 -94.5t-56.5 -136l84 -25q123 32 289 139q10 376 -2 590t-47 307.5t-101 93.5h-16l-135 -253l-15 6q10 22 28 61.5t27 59.5t25.5 53t27 50.5t27 42.5t30 38.5t32 29.5t37 23.5t41 13t47.5 5.5
q78 0 128.5 -45t82.5 -150t36.5 -277.5t-10.5 -427.5l4 -2q133 149 224 327t106 325q-78 -59 -138.5 -51.5t-97 51.5t-36.5 98q0 63 38.5 105t106.5 42q76 0 119 -58.5t43 -141.5q0 -174 -115.5 -384t-294.5 -386q-145 -143 -298.5 -229.5t-284.5 -86.5zM541 1006l288 383
h285l-567 -383h-6z" />
    <glyph glyph-name="thorn" unicode="&#xfe;" horiz-adv-x="1021" 
d="M-289 -518l6 12l39 2q52 3 69 8t21 21l514 1730q5 17 2.5 32.5t-12.5 15.5l-164 6l4 12l480 35l-41 -131q-64 -208 -117 -369.5t-94 -278.5t-51 -149q-6 -18 -3 -19t11 13q118 272 208 384t195 112q111 0 167 -83t56 -214q0 -158 -76.5 -307t-210.5 -245t-286 -96
q-41 0 -85 27t-64 68h-5l-163 -547q-2 -7 7 -12t35 -8.5t72 -4.5l64 -2l2 -12h-580zM428 -8q48 0 100 49q82 82 142.5 260.5t60.5 321.5q0 74 -21 107.5t-65 33.5q-57 0 -131 -114t-149 -304q-70 -169 -70 -217q0 -47 40.5 -92t92.5 -45z" />
    <glyph glyph-name="ydieresis" unicode="&#xff;" horiz-adv-x="954" 
d="M-53 -373q-106 0 -166 50t-60 124q0 60 46 104t104 44q57 0 97.5 -35.5t43 -94.5t-56.5 -136l84 -25q123 32 289 139q10 376 -2 590t-47 307.5t-101 93.5h-16l-135 -253l-15 6q10 22 28 61.5t27 59.5t25.5 53t27 50.5t27 42.5t30 38.5t32 29.5t37 23.5t41 13t47.5 5.5
q78 0 128.5 -45t82.5 -150t36.5 -277.5t-10.5 -427.5l4 -2q133 149 224 327t106 325q-78 -59 -138.5 -51.5t-97 51.5t-36.5 98q0 63 38.5 105t106.5 42q76 0 119 -58.5t43 -141.5q0 -174 -115.5 -384t-294.5 -386q-145 -143 -298.5 -229.5t-284.5 -86.5zM858 1024
q-59 0 -96 38.5t-37 90.5q0 54 37 93.5t96 39.5q60 0 96.5 -39.5t36.5 -93.5q0 -52 -36.5 -90.5t-96.5 -38.5zM432 1024q-59 0 -96 38.5t-37 90.5q0 54 37 93.5t96 39.5q60 0 96.5 -39.5t36.5 -93.5q0 -52 -36.5 -90.5t-96.5 -38.5z" />
    <glyph glyph-name="Amacron" unicode="&#x100;" horiz-adv-x="1335" 
d="M664 535h-291l-99 -185q-15 -27 -42 -73q-48 -82 -64 -114t-30 -67.5t5 -45.5t44.5 -18.5t86.5 -15.5l35 -4l2 -12h-432l6 12l39 4q23 2 39 4t34 8.5t28 9.5t27 17.5t25 22t26.5 34t28.5 41.5t34 56t38.5 67.5t47.5 85.5l356 666l-4 96q57 7 104 33.5t80.5 63t77.5 98.5
h49l109 -1030q16 -111 40 -171t51.5 -79.5t72.5 -22.5l53 -4v-12h-696l8 12l47 4q73 6 90.5 39t5.5 127zM387 561h275l-39 434h-5zM578 1427l49 125h512l-49 -125h-512z" />
    <glyph glyph-name="amacron" unicode="&#x101;" horiz-adv-x="1099" 
d="M754 -27q-38 0 -107 70.5t-69 106.5q0 41 16.5 93t75.5 201h-4q-72 -132 -118 -207t-98.5 -140.5t-101 -92.5t-104.5 -27q-99 0 -164.5 63t-65.5 159q0 121 76.5 266.5t208.5 277.5q177 177 319 177q53 0 85.5 -39t37.5 -99t-10 -133h6l101 248l268 -8l-168 -438
l-109 -295l109 -11l133 213l12 -6q-72 -155 -170.5 -267t-158.5 -112zM367 133q60 0 123 67t145 234q67 132 67 170q0 83 -46.5 153t-100.5 70q-13 0 -47 -30q-70 -71 -141.5 -249.5t-71.5 -303.5q0 -111 72 -111zM479 1067l49 125h512l-49 -125h-512z" />
    <glyph glyph-name="Abreve" unicode="&#x102;" horiz-adv-x="1335" 
d="M664 535h-291l-99 -185q-15 -27 -42 -73q-48 -82 -64 -114t-30 -67.5t5 -45.5t44.5 -18.5t86.5 -15.5l35 -4l2 -12h-432l6 12l39 4q23 2 39 4t34 8.5t28 9.5t27 17.5t25 22t26.5 34t28.5 41.5t34 56t38.5 67.5t47.5 85.5l356 666l-4 96q57 7 104 33.5t80.5 63t77.5 98.5
h49l109 -1030q16 -111 40 -171t51.5 -79.5t72.5 -22.5l53 -4v-12h-696l8 12l47 4q73 6 90.5 39t5.5 127zM387 561h275l-39 434h-5zM791 1358q-230 0 -230 373h17q23 -183 237 -183q101 0 191 43t143 140h18q-78 -187 -166 -280t-210 -93z" />
    <glyph glyph-name="abreve" unicode="&#x103;" horiz-adv-x="1099" 
d="M754 -27q-38 0 -107 70.5t-69 106.5q0 41 16.5 93t75.5 201h-4q-72 -132 -118 -207t-98.5 -140.5t-101 -92.5t-104.5 -27q-99 0 -164.5 63t-65.5 159q0 121 76.5 266.5t208.5 277.5q177 177 319 177q53 0 85.5 -39t37.5 -99t-10 -133h6l101 248l268 -8l-168 -438
l-109 -295l109 -11l133 213l12 -6q-72 -155 -170.5 -267t-158.5 -112zM367 133q60 0 123 67t145 234q67 132 67 170q0 83 -46.5 153t-100.5 70q-13 0 -47 -30q-70 -71 -141.5 -249.5t-71.5 -303.5q0 -111 72 -111zM719 995q-230 0 -230 373h17q23 -182 237 -182
q101 0 191.5 42.5t142.5 139.5h19q-78 -187 -166.5 -280t-210.5 -93z" />
    <glyph glyph-name="Aogonek" unicode="&#x104;" horiz-adv-x="1335" 
d="M969 -494q-79 0 -130 44t-51 124q0 115 110 202.5t273 123.5h-626l8 12l47 4q73 6 90.5 39t5.5 127l-32 353h-291l-99 -185q-15 -27 -42 -73q-48 -82 -64 -114t-30 -67.5t5 -45.5t44.5 -18.5t86.5 -15.5l35 -4l2 -12h-432l6 12l39 4q23 2 39 4t34 8.5t28 9.5t27 17.5
t25 22t26.5 34t28.5 41.5t34 56t38.5 67.5t47.5 85.5l356 666l-4 96q57 7 104 33.5t80.5 63t77.5 98.5h49l109 -1030q16 -111 40 -171t51.5 -79.5t72.5 -22.5l53 -4v-12q-125 -25 -208 -95.5t-83 -178.5q0 -56 39 -86.5t107 -30.5q41 0 71 16.5t68 50.5l4 -4
q-41 -67 -109 -116.5t-161 -49.5zM387 561h275l-39 434h-5z" />
    <glyph glyph-name="aogonek" unicode="&#x105;" horiz-adv-x="1099" 
d="M629 -494q-78 0 -130.5 44.5t-52.5 125.5q0 182 306 297q-49 7 -110.5 72t-63.5 105q-1 40 15 89t77 205h-4q-72 -132 -118 -207t-98.5 -140.5t-101 -92.5t-104.5 -27q-99 0 -164.5 63t-65.5 159q0 121 76.5 266.5t208.5 277.5q177 177 319 177q53 0 85.5 -39t37.5 -99
t-10 -133h6l101 248l268 -8l-168 -438l-109 -295l109 -11l133 213l12 -6q-65 -138 -146 -242.5t-142 -132.5q-94 -44 -140.5 -110.5t-46.5 -138.5q0 -55 40 -87t108 -32q41 0 71 16.5t68 50.5l4 -4q-41 -67 -109 -116.5t-161 -49.5zM367 133q60 0 123 67t145 234
q67 132 67 170q0 83 -46.5 153t-100.5 70q-13 0 -47 -30q-70 -71 -141.5 -249.5t-71.5 -303.5q0 -111 72 -111z" />
    <glyph glyph-name="Cacute" unicode="&#x106;" horiz-adv-x="1406" 
d="M786 -20q-129 0 -240.5 34t-191 92.5t-136.5 137t-84.5 167.5t-27.5 183q0 137 49.5 262.5t142.5 226.5t241.5 161.5t330.5 60.5q240 0 394 -107l153 51l-39 -399l-14 2l-143 326q-51 45 -127 70.5t-138 25.5q-80 0 -151.5 -34.5t-125.5 -94.5t-98 -138t-71.5 -167
t-42 -181t-14.5 -180q0 -231 96.5 -354t279.5 -123q239 0 392 274l90 162l10 -4l-98 -409l-70 -2q-61 -15 -169 -29t-198 -14zM846 1366l289 383h284l-567 -383h-6z" />
    <glyph glyph-name="cacute" unicode="&#x107;" horiz-adv-x="811" 
d="M324 -25q-126 0 -216 90.5t-90 233.5q0 109 43 219t118 199t187 145t238 56q95 0 163.5 -49t68.5 -121q0 -74 -42.5 -124.5t-103.5 -50.5q-60 0 -100.5 37t-40.5 90q0 52 33 97t77 51q-6 4 -23.5 18t-28 20.5t-17.5 6.5q-45 0 -105 -57q-70 -70 -124 -222.5t-54 -298.5
q0 -91 41.5 -142.5t112.5 -51.5q75 0 129 43.5t117 169.5l18 -8q-95 -197 -190 -274t-211 -77zM481 1006l289 383h285l-568 -383h-6z" />
    <glyph glyph-name="Ccircumflex" unicode="&#x108;" horiz-adv-x="1406" 
d="M786 -20q-129 0 -240.5 34t-191 92.5t-136.5 137t-84.5 167.5t-27.5 183q0 137 49.5 262.5t142.5 226.5t241.5 161.5t330.5 60.5q240 0 394 -107l153 51l-39 -399l-14 2l-143 326q-51 45 -127 70.5t-138 25.5q-80 0 -151.5 -34.5t-125.5 -94.5t-98 -138t-71.5 -167
t-42 -181t-14.5 -180q0 -231 96.5 -354t279.5 -123q239 0 392 274l90 162l10 -4l-98 -409l-70 -2q-61 -15 -169 -29t-198 -14zM602 1343l373 404h16l203 -404h-14l-236 164h-4l-324 -164h-14z" />
    <glyph glyph-name="ccircumflex" unicode="&#x109;" horiz-adv-x="811" 
d="M324 -25q-126 0 -216 90.5t-90 233.5q0 109 43 219t118 199t187 145t238 56q95 0 163.5 -49t68.5 -121q0 -74 -42.5 -124.5t-103.5 -50.5q-60 0 -100.5 37t-40.5 90q0 52 33 97t77 51q-6 4 -23.5 18t-28 20.5t-17.5 6.5q-45 0 -105 -57q-70 -70 -124 -222.5t-54 -298.5
q0 -91 41.5 -142.5t112.5 -51.5q75 0 129 43.5t117 169.5l18 -8q-95 -197 -190 -274t-211 -77zM244 983l372 403h17l203 -403h-15l-235 164h-4l-324 -164h-14z" />
    <glyph glyph-name="Cdotaccent" unicode="&#x10a;" horiz-adv-x="1406" 
d="M786 -20q-129 0 -240.5 34t-191 92.5t-136.5 137t-84.5 167.5t-27.5 183q0 137 49.5 262.5t142.5 226.5t241.5 161.5t330.5 60.5q240 0 394 -107l153 51l-39 -399l-14 2l-143 326q-51 45 -127 70.5t-138 25.5q-80 0 -151.5 -34.5t-125.5 -94.5t-98 -138t-71.5 -167
t-42 -181t-14.5 -180q0 -231 96.5 -354t279.5 -123q239 0 392 274l90 162l10 -4l-98 -409l-70 -2q-61 -15 -169 -29t-198 -14zM932 1407q-72 0 -119 48t-47 112q0 65 46 114.5t118 49.5q74 0 119 -49t45 -115q0 -65 -44 -112.5t-118 -47.5z" />
    <glyph glyph-name="cdotaccent" unicode="&#x10b;" horiz-adv-x="811" 
d="M324 -25q-126 0 -216 90.5t-90 233.5q0 109 43 219t118 199t187 145t238 56q95 0 163.5 -49t68.5 -121q0 -74 -42.5 -124.5t-103.5 -50.5q-60 0 -100.5 37t-40.5 90q0 52 33 97t77 51q-6 4 -23.5 18t-28 20.5t-17.5 6.5q-45 0 -105 -57q-70 -70 -124 -222.5t-54 -298.5
q0 -91 41.5 -142.5t112.5 -51.5q75 0 129 43.5t117 169.5l18 -8q-95 -197 -190 -274t-211 -77zM604 1047q-73 0 -119.5 47.5t-46.5 111.5q0 65 46 114.5t118 49.5q74 0 119 -49t45 -115q0 -65 -43.5 -112t-118.5 -47z" />
    <glyph glyph-name="Ccaron" unicode="&#x10c;" horiz-adv-x="1406" 
d="M786 -20q-129 0 -240.5 34t-191 92.5t-136.5 137t-84.5 167.5t-27.5 183q0 137 49.5 262.5t142.5 226.5t241.5 161.5t330.5 60.5q240 0 394 -107l153 51l-39 -399l-14 2l-143 326q-51 45 -127 70.5t-138 25.5q-80 0 -151.5 -34.5t-125.5 -94.5t-98 -138t-71.5 -167
t-42 -181t-14.5 -180q0 -231 96.5 -354t279.5 -123q239 0 392 274l90 162l10 -4l-98 -409l-70 -2q-61 -15 -169 -29t-198 -14zM891 1343l-203 404h14l234 -164h6l324 164h14l-375 -404h-14z" />
    <glyph glyph-name="ccaron" unicode="&#x10d;" horiz-adv-x="811" 
d="M324 -25q-126 0 -216 90.5t-90 233.5q0 109 43 219t118 199t187 145t238 56q95 0 163.5 -49t68.5 -121q0 -74 -42.5 -124.5t-103.5 -50.5q-60 0 -100.5 37t-40.5 90q0 52 33 97t77 51q-6 4 -23.5 18t-28 20.5t-17.5 6.5q-45 0 -105 -57q-70 -70 -124 -222.5t-54 -298.5
q0 -91 41.5 -142.5t112.5 -51.5q75 0 129 43.5t117 169.5l18 -8q-95 -197 -190 -274t-211 -77zM559 983l-203 403h15l233 -163h6l324 163h14l-375 -403h-14z" />
    <glyph glyph-name="Dcaron" unicode="&#x10e;" horiz-adv-x="1454" 
d="M-68 0l7 12l79 8q99 11 103 33l250 1180q1 6 -2.5 9.5t-16 6.5t-33.5 6t-59 7l-53 6l-2 12h577q156 0 282 -42.5t208 -118.5t126 -179t44 -225q0 -141 -58.5 -270t-164.5 -228t-267.5 -158t-353.5 -59h-666zM584 23q95 0 178 46t144 126.5t105.5 188t66.5 232.5t22 258
q0 381 -316 381h-82l-253 -1200zM784 1343l-202 404h14l233 -164h7l323 164h15l-375 -404h-15z" />
    <glyph glyph-name="dcaron" unicode="&#x10f;" horiz-adv-x="1525" 
d="M754 -27q-38 0 -107 70.5t-69 106.5q0 41 16.5 93t75.5 201h-4q-72 -132 -118 -207t-98.5 -140.5t-101 -92.5t-104.5 -27q-99 0 -164.5 63t-65.5 159q0 121 76.5 266.5t208.5 277.5q177 177 319 177q53 0 85.5 -39.5t37.5 -99.5t-10 -132h6l195 608q5 17 2.5 32.5
t-12.5 15.5l-164 6l4 12l481 35l-305 -907l-109 -295l109 -11l133 213l12 -6q-72 -155 -170.5 -267t-158.5 -112zM367 133q60 0 123 67t145 234q67 132 67 170q0 82 -46.5 152.5t-100.5 70.5q-13 0 -47 -30q-70 -71 -141.5 -249.5t-71.5 -303.5q0 -111 72 -111zM1235 788
l-4 9q258 91 258 252q0 68 -46.5 108t-117.5 55q0 62 42.5 105t109.5 43q86 0 129 -55t43 -131q0 -119 -115 -231t-299 -155z" />
    <glyph glyph-name="Dcroat" unicode="&#x110;" horiz-adv-x="1454" 
d="M244 631h-170l8 24h166l123 578q1 6 -2.5 9.5t-16 6.5t-33.5 6t-59 7l-53 6l-2 12h577q156 0 282 -42.5t208 -118.5t126 -179t44 -225q0 -141 -58.5 -270t-164.5 -228t-267.5 -158t-353.5 -59h-666l7 12l79 8q99 11 103 33zM575 655h203l4 -24h-213l-120 -576l135 -32
q95 0 178 46t144 126.5t105.5 188t66.5 232.5t22 258q0 381 -316 381h-82z" />
    <glyph glyph-name="dcroat" unicode="&#x111;" horiz-adv-x="1099" 
d="M754 -27q-38 0 -107 70.5t-69 106.5q0 41 16.5 93t75.5 201h-4q-72 -132 -118 -207t-98.5 -140.5t-101 -92.5t-104.5 -27q-99 0 -164.5 63t-65.5 159q0 121 76.5 266.5t208.5 277.5q177 177 319 177q53 0 85.5 -39.5t37.5 -99.5t-10 -132h6l127 400h-211l29 102h215
l35 106q5 17 2.5 32.5t-12.5 15.5l-164 6l4 12l481 35l-69 -207h135l-29 -102l-141 -2l-201 -596l-109 -295l109 -11l133 213l12 -6q-72 -155 -170.5 -267t-158.5 -112zM367 133q60 0 123 67t145 234q67 132 67 170q0 82 -46.5 152.5t-100.5 70.5q-13 0 -47 -30
q-70 -71 -141.5 -249.5t-71.5 -303.5q0 -111 72 -111z" />
    <glyph glyph-name="Emacron" unicode="&#x112;" horiz-adv-x="1282" 
d="M-68 0l7 12l79 8q99 11 103 33l250 1180q1 6 -2 9.5t-15 6.5t-34 6t-60 7l-53 6l-2 12h1038l-2 -434h-16l-6 22q-24 98 -60 169.5t-77.5 115t-95.5 68t-108.5 32t-121.5 4.5l-54 -4l-124 -587l84 2q222 12 294 200l19 45h14l-123 -540h-14l4 45q0 115 -44 165.5
t-177 59.5l-62 4l-131 -618l152 -11q187 3 340.5 100.5t251.5 295.5l12 22h16l-133 -436h-1149zM535 1427l49 125h512l-49 -125h-512z" />
    <glyph glyph-name="emacron" unicode="&#x113;" horiz-adv-x="831" 
d="M334 -25q-131 0 -223.5 90t-92.5 234q0 108 45 218.5t121 199.5t186 145t230 56q97 0 168.5 -51t71.5 -126q0 -208 -518 -268q-15 -79 -15 -164q0 -87 44.5 -137.5t119.5 -50.5q54 0 96.5 15.5t90.5 64.5t90 133l18 -8q-94 -195 -200 -273t-232 -78zM330 496
q54 10 106.5 32t98 54.5t74 80t28.5 101.5q0 55 -23 90t-57 35q-29 0 -61 -29q-52 -52 -100 -151t-70 -211zM262 1067l49 125h512l-49 -125h-512z" />
    <glyph glyph-name="Ebreve" unicode="&#x114;" horiz-adv-x="1282" 
d="M-68 0l7 12l79 8q99 11 103 33l250 1180q1 6 -2 9.5t-15 6.5t-34 6t-60 7l-53 6l-2 12h1038l-2 -434h-16l-6 22q-24 98 -60 169.5t-77.5 115t-95.5 68t-108.5 32t-121.5 4.5l-54 -4l-124 -587l84 2q222 12 294 200l19 45h14l-123 -540h-14l4 45q0 115 -44 165.5
t-177 59.5l-62 4l-131 -618l152 -11q187 3 340.5 100.5t251.5 295.5l12 22h16l-133 -436h-1149zM799 1356q-230 0 -230 373h17q23 -183 237 -183q101 0 191 43t143 140h19q-78 -187 -166.5 -280t-210.5 -93z" />
    <glyph glyph-name="ebreve" unicode="&#x115;" horiz-adv-x="831" 
d="M334 -25q-131 0 -223.5 90t-92.5 234q0 108 45 218.5t121 199.5t186 145t230 56q97 0 168.5 -51t71.5 -126q0 -208 -518 -268q-15 -79 -15 -164q0 -87 44.5 -137.5t119.5 -50.5q54 0 96.5 15.5t90.5 64.5t90 133l18 -8q-94 -195 -200 -273t-232 -78zM330 496
q54 10 106.5 32t98 54.5t74 80t28.5 101.5q0 55 -23 90t-57 35q-29 0 -61 -29q-52 -52 -100 -151t-70 -211zM520 995q-229 0 -229 373h16q23 -182 238 -182q101 0 191.5 42.5t142.5 139.5h18q-78 -187 -166.5 -280t-210.5 -93z" />
    <glyph glyph-name="Edotaccent" unicode="&#x116;" horiz-adv-x="1282" 
d="M-68 0l7 12l79 8q99 11 103 33l250 1180q1 6 -2 9.5t-15 6.5t-34 6t-60 7l-53 6l-2 12h1038l-2 -434h-16l-6 22q-24 98 -60 169.5t-77.5 115t-95.5 68t-108.5 32t-121.5 4.5l-54 -4l-124 -587l84 2q222 12 294 200l19 45h14l-123 -540h-14l4 45q0 115 -44 165.5
t-177 59.5l-62 4l-131 -618l152 -11q187 3 340.5 100.5t251.5 295.5l12 22h16l-133 -436h-1149zM825 1407q-72 0 -119 48t-47 112q0 65 46 114.5t118 49.5q74 0 119 -49t45 -115q0 -65 -44 -112.5t-118 -47.5z" />
    <glyph glyph-name="edotaccent" unicode="&#x117;" horiz-adv-x="831" 
d="M334 -25q-131 0 -223.5 90t-92.5 234q0 108 45 218.5t121 199.5t186 145t230 56q97 0 168.5 -51t71.5 -126q0 -208 -518 -268q-15 -79 -15 -164q0 -87 44.5 -137.5t119.5 -50.5q54 0 96.5 15.5t90.5 64.5t90 133l18 -8q-94 -195 -200 -273t-232 -78zM330 496
q54 10 106.5 32t98 54.5t74 80t28.5 101.5q0 55 -23 90t-57 35q-29 0 -61 -29q-52 -52 -100 -151t-70 -211zM627 1047q-73 0 -119.5 47.5t-46.5 111.5q0 65 46 114.5t118 49.5q74 0 118.5 -49t44.5 -115q0 -65 -43.5 -112t-117.5 -47z" />
    <glyph glyph-name="Eogonek" unicode="&#x118;" horiz-adv-x="1282" 
d="M784 -494q-75 0 -124.5 52t-49.5 129q0 100 87 179.5t229 133.5h-994l7 12l79 8q99 11 103 33l250 1180q1 6 -2 9.5t-15 6.5t-34 6t-60 7l-53 6l-2 12h1038l-2 -434h-16l-6 22q-24 98 -60 169.5t-77.5 115t-95.5 68t-108.5 32t-121.5 4.5l-54 -4l-124 -587l84 2
q222 12 294 200l19 45h14l-123 -540h-14l4 45q0 115 -44 165.5t-177 59.5l-62 4l-131 -618l152 -11q187 3 340.5 100.5t251.5 295.5l12 22h16l-133 -436h-106q-106 -51 -154.5 -122t-48.5 -140q0 -63 35.5 -96t103.5 -33q41 0 72 16.5t68 50.5l4 -4q-25 -41 -58 -75
t-90.5 -62.5t-122.5 -28.5z" />
    <glyph glyph-name="eogonek" unicode="&#x119;" horiz-adv-x="831" 
d="M281 -494q-79 0 -131 43.5t-52 124.5q0 96 94.5 180t221.5 130q-72 -9 -80 -9q-131 0 -223.5 90t-92.5 234q0 108 45 218.5t121 199.5t186 145t230 56q97 0 168.5 -51t71.5 -126q0 -208 -518 -268q-15 -79 -15 -164q0 -87 44.5 -137.5t119.5 -50.5q54 0 96.5 15.5
t90.5 64.5t90 133l18 -8q-125 -263 -285 -330q-112 -48 -166.5 -120.5t-54.5 -149.5q0 -56 39.5 -86.5t108.5 -30.5q41 0 71 16.5t68 50.5l4 -4q-41 -67 -109 -116.5t-161 -49.5zM330 496q54 10 106.5 32t98 54.5t74 80t28.5 101.5q0 55 -23 90t-57 35q-29 0 -61 -29
q-52 -52 -100 -151t-70 -211z" />
    <glyph glyph-name="Ecaron" unicode="&#x11a;" horiz-adv-x="1282" 
d="M-68 0l7 12l79 8q99 11 103 33l250 1180q1 6 -2 9.5t-15 6.5t-34 6t-60 7l-53 6l-2 12h1038l-2 -434h-16l-6 22q-24 98 -60 169.5t-77.5 115t-95.5 68t-108.5 32t-121.5 4.5l-54 -4l-124 -587l84 2q222 12 294 200l19 45h14l-123 -540h-14l4 45q0 115 -44 165.5
t-177 59.5l-62 4l-131 -618l152 -11q187 3 340.5 100.5t251.5 295.5l12 22h16l-133 -436h-1149zM793 1343l-203 404h14l234 -164h6l323 164h15l-375 -404h-14z" />
    <glyph glyph-name="ecaron" unicode="&#x11b;" horiz-adv-x="831" 
d="M334 -25q-131 0 -223.5 90t-92.5 234q0 108 45 218.5t121 199.5t186 145t230 56q97 0 168.5 -51t71.5 -126q0 -208 -518 -268q-15 -79 -15 -164q0 -87 44.5 -137.5t119.5 -50.5q54 0 96.5 15.5t90.5 64.5t90 133l18 -8q-94 -195 -200 -273t-232 -78zM330 496
q54 10 106.5 32t98 54.5t74 80t28.5 101.5q0 55 -23 90t-57 35q-29 0 -61 -29q-52 -52 -100 -151t-70 -211zM543 983l-203 403h14l234 -163h6l324 163h14l-375 -403h-14z" />
    <glyph glyph-name="Gcircumflex" unicode="&#x11c;" horiz-adv-x="1497" 
d="M786 -33q-197 0 -352.5 79t-242.5 220t-87 320q0 155 58 288.5t159.5 228t246 148.5t311.5 54q261 0 417 -101l150 45l-49 -418l-15 3l-145 352q-38 40 -107.5 66t-138.5 26q-149 0 -272.5 -107t-194.5 -294t-71 -414q0 -221 87 -347t238 -126q45 0 83 9t50 17l101 494
q1 5 -8 9.5t-28 8t-48 6.5t-68 5l-55 6l-2 12h702l-8 -12l-98 -6q-34 -2 -52 -8t-20.5 -10t-3.5 -13l-88 -412l123 27v-10q-110 -57 -271 -101.5t-301 -44.5zM608 1343l373 404h16l203 -404h-14l-236 164h-4l-323 -164h-15z" />
    <glyph glyph-name="gcircumflex" unicode="&#x11d;" horiz-adv-x="901" 
d="M311 -496q-221 0 -359 63.5t-138 166.5q0 70 88.5 132.5t222.5 92.5v4q-145 82 -145 168q0 38 25 72.5t65 60t80 43t79 27.5v4q-81 47 -125.5 116.5t-44.5 145.5q0 67 36.5 128.5t94.5 103.5t131.5 66t145.5 20q143 -9 235 -91l261 47l-25 -145l-211 82v-4
q92 -92 92 -207q0 -89 -61.5 -164t-155.5 -114.5t-190 -34.5q-93 6 -164 41q-60 -24 -60 -86q0 -28 26.5 -39.5t132.5 -37.5l44 -11l76 -19q54 -13 97.5 -28t92 -40.5t81 -56.5t54 -76.5t21.5 -99.5q0 -82 -72 -159t-189 -124t-241 -47zM377 307q28 0 63 35q58 60 96 186
t44 222q3 61 -18 103t-60 42q-30 0 -70 -35q-54 -54 -90.5 -179.5t-42.5 -219.5q-7 -95 33 -135q19 -19 45 -19zM367 -469q105 0 177 48.5t72 121.5q0 53 -52.5 92t-145.5 72q-35 13 -129 40t-135 44q-55 -22 -87 -73.5t-32 -117.5q0 -112 85.5 -169.5t246.5 -57.5zM229 983
l373 403h16l203 -403h-14l-236 164h-4l-323 -164h-15z" />
    <glyph glyph-name="Gbreve" unicode="&#x11e;" horiz-adv-x="1497" 
d="M786 -33q-197 0 -352.5 79t-242.5 220t-87 320q0 155 58 288.5t159.5 228t246 148.5t311.5 54q261 0 417 -101l150 45l-49 -418l-15 3l-145 352q-38 40 -107.5 66t-138.5 26q-149 0 -272.5 -107t-194.5 -294t-71 -414q0 -221 87 -347t238 -126q45 0 83 9t50 17l101 494
q1 5 -8 9.5t-28 8t-48 6.5t-68 5l-55 6l-2 12h702l-8 -12l-98 -6q-34 -2 -52 -8t-20.5 -10t-3.5 -13l-88 -412l123 27v-10q-110 -57 -271 -101.5t-301 -44.5zM936 1356q-229 0 -229 373h16q23 -183 238 -183q101 0 190.5 43t142.5 140h19q-78 -187 -166.5 -280t-210.5 -93z
" />
    <glyph glyph-name="gbreve" unicode="&#x11f;" horiz-adv-x="901" 
d="M311 -496q-221 0 -359 63.5t-138 166.5q0 70 88.5 132.5t222.5 92.5v4q-145 82 -145 168q0 38 25 72.5t65 60t80 43t79 27.5v4q-81 47 -125.5 116.5t-44.5 145.5q0 67 36.5 128.5t94.5 103.5t131.5 66t145.5 20q143 -9 235 -91l261 47l-25 -145l-211 82v-4
q92 -92 92 -207q0 -89 -61.5 -164t-155.5 -114.5t-190 -34.5q-93 6 -164 41q-60 -24 -60 -86q0 -28 26.5 -39.5t132.5 -37.5l44 -11l76 -19q54 -13 97.5 -28t92 -40.5t81 -56.5t54 -76.5t21.5 -99.5q0 -82 -72 -159t-189 -124t-241 -47zM377 307q28 0 63 35q58 60 96 186
t44 222q3 61 -18 103t-60 42q-30 0 -70 -35q-54 -54 -90.5 -179.5t-42.5 -219.5q-7 -95 33 -135q19 -19 45 -19zM367 -469q105 0 177 48.5t72 121.5q0 53 -52.5 92t-145.5 72q-35 13 -129 40t-135 44q-55 -22 -87 -73.5t-32 -117.5q0 -112 85.5 -169.5t246.5 -57.5zM547 995
q-230 0 -230 373h17q23 -182 237 -182q101 0 191.5 42.5t142.5 139.5h19q-78 -187 -166.5 -280t-210.5 -93z" />
    <glyph glyph-name="Gdotaccent" unicode="&#x120;" horiz-adv-x="1497" 
d="M786 -33q-197 0 -352.5 79t-242.5 220t-87 320q0 155 58 288.5t159.5 228t246 148.5t311.5 54q261 0 417 -101l150 45l-49 -418l-15 3l-145 352q-38 40 -107.5 66t-138.5 26q-149 0 -272.5 -107t-194.5 -294t-71 -414q0 -221 87 -347t238 -126q45 0 83 9t50 17l101 494
q1 5 -8 9.5t-28 8t-48 6.5t-68 5l-55 6l-2 12h702l-8 -12l-98 -6q-34 -2 -52 -8t-20.5 -10t-3.5 -13l-88 -412l123 27v-10q-110 -57 -271 -101.5t-301 -44.5zM952 1407q-72 0 -119 48t-47 112q0 65 46 114.5t118 49.5q74 0 119 -49t45 -115q0 -65 -44 -112.5t-118 -47.5z
" />
    <glyph glyph-name="gdotaccent" unicode="&#x121;" horiz-adv-x="901" 
d="M311 -496q-221 0 -359 63.5t-138 166.5q0 70 88.5 132.5t222.5 92.5v4q-145 82 -145 168q0 38 25 72.5t65 60t80 43t79 27.5v4q-81 47 -125.5 116.5t-44.5 145.5q0 67 36.5 128.5t94.5 103.5t131.5 66t145.5 20q143 -9 235 -91l261 47l-25 -145l-211 82v-4
q92 -92 92 -207q0 -89 -61.5 -164t-155.5 -114.5t-190 -34.5q-93 6 -164 41q-60 -24 -60 -86q0 -28 26.5 -39.5t132.5 -37.5l44 -11l76 -19q54 -13 97.5 -28t92 -40.5t81 -56.5t54 -76.5t21.5 -99.5q0 -82 -72 -159t-189 -124t-241 -47zM377 307q28 0 63 35q58 60 96 186
t44 222q3 61 -18 103t-60 42q-30 0 -70 -35q-54 -54 -90.5 -179.5t-42.5 -219.5q-7 -95 33 -135q19 -19 45 -19zM367 -469q105 0 177 48.5t72 121.5q0 53 -52.5 92t-145.5 72q-35 13 -129 40t-135 44q-55 -22 -87 -73.5t-32 -117.5q0 -112 85.5 -169.5t246.5 -57.5z
M594 1047q-73 0 -119.5 47.5t-46.5 111.5q0 65 46 114.5t118 49.5q74 0 119 -49t45 -115q0 -65 -43.5 -112t-118.5 -47z" />
    <glyph glyph-name="Gcommaaccent" unicode="&#x122;" horiz-adv-x="1497" 
d="M786 -33q-197 0 -352.5 79t-242.5 220t-87 320q0 155 58 288.5t159.5 228t246 148.5t311.5 54q261 0 417 -101l150 45l-49 -418l-15 3l-145 352q-38 40 -107.5 66t-138.5 26q-149 0 -272.5 -107t-194.5 -294t-71 -414q0 -221 87 -347t238 -126q45 0 83 9t50 17l101 494
q1 5 -8 9.5t-28 8t-48 6.5t-68 5l-55 6l-2 12h702l-8 -12l-98 -6q-34 -2 -52 -8t-20.5 -10t-3.5 -13l-88 -412l123 27v-10q-110 -57 -271 -101.5t-301 -44.5zM516 -565l-6 10q196 23 221 149q13 67 -49.5 100.5t-138.5 2.5q-6 83 53 140.5t154 47.5q93 -10 131.5 -73.5
t19.5 -143.5q-21 -92 -118.5 -159t-266.5 -74z" />
    <glyph glyph-name="gcommaaccent" unicode="&#x123;" horiz-adv-x="901" 
d="M311 -496q-221 0 -359 63.5t-138 166.5q0 70 88.5 132.5t222.5 92.5v4q-145 82 -145 168q0 38 25 72.5t65 60t80 43t79 27.5v4q-81 47 -125.5 116.5t-44.5 145.5q0 67 36.5 128.5t94.5 103.5t131.5 66t145.5 20q143 -9 235 -91l261 47l-25 -145l-211 82v-4
q92 -92 92 -207q0 -89 -61.5 -164t-155.5 -114.5t-190 -34.5q-93 6 -164 41q-60 -24 -60 -86q0 -28 26.5 -39.5t132.5 -37.5l44 -11l76 -19q54 -13 97.5 -28t92 -40.5t81 -56.5t54 -76.5t21.5 -99.5q0 -82 -72 -159t-189 -124t-241 -47zM377 307q28 0 63 35q58 60 96 186
t44 222q3 61 -18 103t-60 42q-30 0 -70 -35q-54 -54 -90.5 -179.5t-42.5 -219.5q-7 -95 33 -135q19 -19 45 -19zM367 -469q105 0 177 48.5t72 121.5q0 53 -52.5 92t-145.5 72q-35 13 -129 40t-135 44q-55 -22 -87 -73.5t-32 -117.5q0 -112 85.5 -169.5t246.5 -57.5z
M852 1470l6 -10q-196 -23 -221 -149q-13 -67 49.5 -100.5t138.5 -2.5q6 -83 -53 -140.5t-154 -47.5q-93 10 -131.5 73.5t-19.5 143.5q21 92 118.5 159t266.5 74z" />
    <glyph glyph-name="Hcircumflex" unicode="&#x124;" horiz-adv-x="1540" 
d="M-68 0l7 12l79 8q99 8 103 33l250 1180q1 6 -2 9.5t-15 6.5t-34 6t-60 7l-53 6l-2 12h676l-9 -12l-73 -8q-99 -11 -103 -33l-118 -565h481l123 571q1 6 -2 9t-16 6.5t-32.5 6t-60.5 7.5l-49 6l-2 12h676l-8 -12l-78 -8q-99 -11 -103 -33l-250 -1180q-1 -6 2 -9.5t15 -6.5
t34 -6t60 -7l53 -6l2 -12h-675l6 12l75 8q99 11 103 33l123 588h-482l-127 -594q-1 -6 2 -9t16 -6.5t32.5 -6t60.5 -7.5l49 -6l2 -12h-676zM631 1343l373 404h16l203 -404h-15l-235 164h-4l-324 -164h-14z" />
    <glyph glyph-name="hcircumflex" unicode="&#x125;" horiz-adv-x="1087" 
d="M737 -27q-33 0 -100.5 65.5t-67.5 111.5q0 20 8 49t18.5 55t36 86.5t44.5 108.5q10 24 24.5 59.5t22.5 55t16.5 42t12.5 36.5t4 22q0 12 -38 31.5t-65 19.5q-22 0 -65 -50.5t-114.5 -174.5t-154.5 -302l-73 -194l-277 10l117 336l293 917q5 17 2.5 32.5t-12.5 15.5
l-164 6l4 12l477 35l-41 -131q-144 -495 -309 -926q-2 0 2 -3l6 -3q92 182 182.5 332t141.5 198q38 37 80.5 63.5t70.5 26.5q98 0 161.5 -50t63.5 -99q0 -84 -94 -317l-116 -293l100 -11l145 213l13 -6q-81 -155 -188 -267t-167 -112zM195 1343l372 404h17l202 -404h-14
l-235 164h-5l-323 -164h-14z" />
    <glyph glyph-name="Hbar" unicode="&#x126;" horiz-adv-x="1540" 
d="M106 907l44 101h174l47 225q1 6 -2 9.5t-15 6.5t-34 6t-60 7l-53 6l-2 12h676l-9 -12l-73 -8q-99 -11 -103 -33l-47 -219h484l49 225q1 6 -2 9t-16 6.5t-32.5 6t-60.5 7.5l-49 6l-2 12h676l-8 -12l-78 -8q-99 -11 -103 -33l-47 -219h191l-43 -101h-168l-183 -860
q-1 -6 2 -9.5t15 -6.5t34 -6t60 -7l53 -6l2 -12h-675l6 12l75 8q99 11 103 33l123 588h-482l-127 -594q-1 -6 2 -9t16 -6.5t32.5 -6t60.5 -7.5l49 -6l2 -12h-676l7 12l79 8q99 8 103 33l182 854h-197zM578 662h481l53 245h-483z" />
    <glyph glyph-name="hbar" unicode="&#x127;" horiz-adv-x="1087" 
d="M172 1049l39 102h133l35 106q5 17 2.5 32.5t-12.5 15.5l-164 6l4 12l477 35l-41 -131l-22 -76h215l-39 -102h-203q-111 -362 -260 -748q-2 0 2 -3l6 -3q92 182 182.5 332t141.5 198q38 37 80.5 63.5t70.5 26.5q98 0 161.5 -50t63.5 -99q0 -84 -94 -317l-116 -293l100 -11
l145 213l13 -6q-81 -155 -188 -267t-167 -112q-33 0 -100.5 65.5t-67.5 111.5q0 20 8 49t18.5 55t36 86.5t44.5 108.5q10 24 24.5 59.5t22.5 55t16.5 42t12.5 36.5t4 22q0 12 -38 31.5t-65 19.5q-22 0 -65 -50.5t-114.5 -174.5t-154.5 -302l-73 -194l-277 10l117 336
l229 709h-143z" />
    <glyph glyph-name="Imacron" unicode="&#x12a;" horiz-adv-x="788" 
d="M-37 0l6 12l80 8q49 4 75 13.5t28 19.5l249 1180q1 6 -2 9t-15 6.5t-33.5 6.5t-59.5 7l-58 6l-2 12h682l-8 -12l-78 -8q-98 -8 -102 -33l-250 -1180q-1 -6 2 -9.5t15 -6.5t34 -6t60 -7l53 -6l2 -12h-678zM340 1427l49 125h512l-49 -125h-512z" />
    <glyph glyph-name="imacron" unicode="&#x12b;" horiz-adv-x="610" 
d="M240 -27q-33 0 -101.5 65.5t-68.5 111.5q0 25 54 172t108 281l53 134l-125 8l-129 -210l-13 6q73 156 167 266.5t153 110.5q37 0 123 -56t86 -100q0 -31 -55.5 -182.5t-110.5 -287.5l-55 -136l100 -11l145 213l13 -6q-83 -157 -184 -268t-160 -111zM168 1067l49 125h512
l-49 -125h-512z" />
    <glyph glyph-name="Ibreve" unicode="&#x12c;" horiz-adv-x="788" 
d="M-37 0l6 12l80 8q49 4 75 13.5t28 19.5l249 1180q1 6 -2 9t-15 6.5t-33.5 6.5t-59.5 7l-58 6l-2 12h682l-8 -12l-78 -8q-98 -8 -102 -33l-250 -1180q-1 -6 2 -9.5t15 -6.5t34 -6t60 -7l53 -6l2 -12h-678zM594 1356q-229 0 -229 373h16q23 -183 237 -183q101 0 191 43
t143 140h19q-78 -187 -166.5 -280t-210.5 -93z" />
    <glyph glyph-name="ibreve" unicode="&#x12d;" horiz-adv-x="610" 
d="M240 -27q-33 0 -101.5 65.5t-68.5 111.5q0 25 54 172t108 281l53 134l-125 8l-129 -210l-13 6q73 156 167 266.5t153 110.5q37 0 123 -56t86 -100q0 -31 -55.5 -182.5t-110.5 -287.5l-55 -136l100 -11l145 213l13 -6q-83 -157 -184 -268t-160 -111zM416 995
q-230 0 -230 373h17q23 -182 237 -182q101 0 191.5 42.5t142.5 139.5h19q-78 -187 -166.5 -280t-210.5 -93z" />
    <glyph glyph-name="Iogonek" unicode="&#x12e;" horiz-adv-x="788" 
d="M356 -494q-79 0 -129.5 44t-50.5 124q0 111 110.5 199.5t268.5 126.5h-592l6 12l80 8q49 4 75 13.5t28 19.5l249 1180q1 6 -2 9t-15 6.5t-33.5 6.5t-59.5 7l-58 6l-2 12h682l-8 -12l-78 -8q-98 -8 -102 -33l-250 -1180q-1 -6 2 -9.5t15 -6.5t34 -6t60 -7l53 -6l2 -12
q-144 -23 -223.5 -98.5t-79.5 -175.5q0 -58 38 -87.5t107 -29.5q41 0 72 16.5t68 50.5l4 -4q-25 -41 -58 -75t-90.5 -62.5t-122.5 -28.5z" />
    <glyph glyph-name="iogonek" unicode="&#x12f;" horiz-adv-x="610" 
d="M117 -494q-80 0 -131.5 43t-51.5 125q0 175 295 301q-42 13 -100.5 74.5t-58.5 100.5q0 25 54 172t108 281l53 134l-125 8l-129 -210l-13 6q73 156 167 266.5t153 110.5q37 0 123 -56t86 -100q0 -31 -55.5 -182.5t-110.5 -287.5l-55 -136l100 -11l145 213l13 -6
q-72 -137 -157 -239.5t-148 -132.5q-89 -42 -136 -116t-47 -138q0 -54 40 -85.5t108 -31.5q41 0 71 16.5t68 50.5l4 -4q-41 -67 -109 -116.5t-161 -49.5zM543 1036q-66 0 -105 42t-39 104q0 74 44 124t100 50q68 0 107.5 -41.5t37.5 -104.5q-1 -73 -44.5 -123.5
t-100.5 -50.5z" />
    <glyph glyph-name="Idotaccent" unicode="&#x130;" horiz-adv-x="788" 
d="M-37 0l6 12l80 8q49 4 75 13.5t28 19.5l249 1180q1 6 -2 9t-15 6.5t-33.5 6.5t-59.5 7l-58 6l-2 12h682l-8 -12l-78 -8q-98 -8 -102 -33l-250 -1180q-1 -6 2 -9.5t15 -6.5t34 -6t60 -7l53 -6l2 -12h-678zM633 1407q-72 0 -119 48t-47 112q0 65 46 114.5t118 49.5
q74 0 119 -49t45 -115q0 -65 -44 -112.5t-118 -47.5z" />
    <glyph glyph-name="dotlessi" unicode="&#x131;" horiz-adv-x="610" 
d="M240 -27q-33 0 -101.5 65.5t-68.5 111.5q0 25 54 172t108 281l53 134l-125 8l-129 -210l-13 6q73 156 167 266.5t153 110.5q37 0 123 -56t86 -100q0 -31 -55.5 -182.5t-110.5 -287.5l-55 -136l100 -11l145 213l13 -6q-83 -157 -184 -268t-160 -111z" />
    <glyph glyph-name="Jcircumflex" unicode="&#x134;" horiz-adv-x="784" 
d="M-166 -379q-106 0 -165.5 48t-59.5 118q0 63 50 111.5t116 48.5q56 0 94 -34t47.5 -80.5t-12 -98.5t-72.5 -84q114 -23 197 93t129 341l243 1147q1 6 -2 10t-15 7.5t-33 6.5t-60 7l-58 6l-2 12h682l-8 -12l-78 -8q-98 -11 -102 -35l-246 -1168q-10 -47 -78 -121.5
t-160.5 -144t-205.5 -120t-201 -50.5zM299 1343l373 404h16l203 -404h-14l-236 164h-4l-324 -164h-14z" />
    <glyph glyph-name="jcircumflex" unicode="&#x135;" horiz-adv-x="583" 
d="M-260 -510q-65 0 -118.5 44t-53.5 118q0 58 39 99.5t110 41.5q46 0 79.5 -32.5t43.5 -76.5t-11.5 -93.5t-74.5 -79.5l105 28q49 48 85 134t91 264l270 800l-125 8l-129 -210l-12 6q73 156 166.5 266.5t152.5 110.5q37 0 123 -56t86 -100q0 -52 -111.5 -346.5
t-195.5 -464.5q-97 -193 -215 -311q-147 -150 -305 -150zM135 983l373 403h16l203 -403h-14l-236 164h-4l-323 -164h-15z" />
    <glyph glyph-name="Kcommaaccent" unicode="&#x136;" horiz-adv-x="1474" 
d="M-66 0l7 12l77 8q99 8 103 33l250 1180q1 6 -2 9.5t-15 6.5t-34 6t-60 7l-53 6l-6 12h684l-6 -12l-80 -8q-49 -4 -75 -13.5t-28 -19.5l-129 -621l369 309q225 193 250 265q18 51 -51 70q-32 9 -88 14l-43 4l-7 12h576l-6 -12l-64 -6q-30 -3 -59 -10.5t-51 -14.5t-56 -28
t-52.5 -32.5t-64 -48t-66 -53.5t-83 -69.5t-92.5 -77.5l-25 -21l240 -678q37 -98 64 -143t50 -57t68 -15l23 -2l4 -12h-653l6 12l18 2q49 5 71.5 14.5t31 39.5t-4 82t-45.5 147l-135 383l-135 -113l-111 -520q-1 -6 2 -9t14.5 -6.5t33.5 -6.5t61 -7l55 -6l6 -12h-684z
M412 -565l-6 10q196 23 221 149q13 67 -50 100.5t-139 2.5q-6 83 53 140.5t154 47.5q93 -10 132 -74t20 -143q-21 -92 -118.5 -159t-266.5 -74z" />
    <glyph glyph-name="kcommaaccent" unicode="&#x137;" horiz-adv-x="970" 
d="M639 -25q-36 0 -84 15t-66 33q0 127 -3.5 214.5t-9 136t-16 74t-19.5 31.5t-23 6q-18 0 -21 -10l-149 -481l-287 10q42 105 119 336q52 156 121 385.5t112 380.5l43 151q5 15 2.5 31.5t-12.5 16.5l-164 6l4 12l490 35l-39 -131q-44 -152 -80.5 -270.5t-55 -174
t-49.5 -146t-46 -134.5q30 9 81 16q215 76 269 121l-2 4q-113 40 -113 141q0 56 43.5 98t101.5 42q63 0 104.5 -40.5t41.5 -97.5q0 -86 -69.5 -138t-233.5 -101l-76 -25q46 -4 79.5 -24.5t54.5 -49.5t36.5 -79t23 -97t15.5 -120l63 -7l129 213l13 -6q-77 -162 -168.5 -269.5
t-159.5 -107.5zM115 -565l-6 10q196 23 221 149q13 67 -50 100.5t-139 2.5q-6 83 53 140.5t154 47.5q93 -10 132 -74t20 -143q-21 -92 -118.5 -159t-266.5 -74z" />
    <glyph glyph-name="Lacute" unicode="&#x139;" horiz-adv-x="1261" 
d="M-68 0l7 12l79 8q99 11 103 33l250 1180q1 6 -2 9.5t-15 6.5t-34 6t-60 7l-53 6l-2 12h700l-8 -12l-98 -8q-35 -5 -68.5 -15t-34.5 -18l-254 -1198l150 -11q140 0 271 100.5t286 352.5l14 27h15l-121 -498h-1125zM406 1366l288 383h285l-567 -383h-6z" />
    <glyph glyph-name="lacute" unicode="&#x13a;" horiz-adv-x="563" 
d="M188 -27q-20 0 -63.5 31.5t-77 76.5t-24.5 75l337 1101q5 17 2.5 32.5t-12.5 15.5l-164 6l4 12l472 35l-377 -1202l100 -11l145 213l13 -6q-81 -155 -188 -267t-167 -112zM430 1370l289 383h285l-568 -383h-6z" />
    <glyph glyph-name="Lcommaaccent" unicode="&#x13b;" horiz-adv-x="1261" 
d="M-68 0l7 12l79 8q99 11 103 33l250 1180q1 6 -2 9.5t-15 6.5t-34 6t-60 7l-53 6l-2 12h700l-8 -12l-98 -8q-35 -5 -68.5 -15t-34.5 -18l-254 -1198l150 -11q140 0 271 100.5t286 352.5l14 27h15l-121 -498h-1125zM301 -565l-6 10q196 23 221 149q13 67 -49.5 100.5
t-138.5 2.5q-6 83 53 140.5t154 47.5q93 -10 131.5 -73.5t19.5 -143.5q-21 -92 -118.5 -159t-266.5 -74z" />
    <glyph glyph-name="lcommaaccent" unicode="&#x13c;" horiz-adv-x="563" 
d="M188 -27q-20 0 -63.5 31.5t-77 76.5t-24.5 75l337 1101q5 17 2.5 32.5t-12.5 15.5l-164 6l4 12l472 35l-377 -1202l100 -11l145 213l13 -6q-81 -155 -188 -267t-167 -112zM-96 -565l-6 10q196 23 221 149q13 67 -50 100.5t-139 2.5q-6 83 53 140.5t154 47.5
q93 -10 132 -74t20 -143q-21 -92 -118.5 -159t-266.5 -74z" />
    <glyph glyph-name="Lcaron" unicode="&#x13d;" horiz-adv-x="1474" 
d="M-68 0l7 12l79 8q99 11 103 33l250 1180q1 6 -2 9.5t-15 6.5t-34 6t-60 7l-53 6l-2 12h700l-8 -12l-98 -8q-35 -5 -68.5 -15t-34.5 -18l-254 -1198l150 -11q140 0 271 100.5t286 352.5l14 27h15l-121 -498h-1125zM1184 737l-4 8q258 91 258 252q0 68 -46.5 108.5
t-117.5 55.5q0 62 42 105t109 43q86 0 129 -55.5t43 -131.5q0 -119 -114.5 -230.5t-298.5 -154.5z" />
    <glyph glyph-name="lcaron" unicode="&#x13e;" horiz-adv-x="989" 
d="M188 -27q-20 0 -63.5 31.5t-77 76.5t-24.5 75l337 1101q5 17 2.5 32.5t-12.5 15.5l-164 6l4 12l472 35l-377 -1202l100 -11l145 213l13 -6q-81 -155 -188 -267t-167 -112zM657 793l-4 8q258 92 258 252q0 68 -46 108.5t-117 55.5q0 62 42 104.5t109 42.5q86 0 129 -55
t43 -131q0 -119 -115 -230.5t-299 -154.5z" />
    <glyph glyph-name="Ldot" unicode="&#x13f;" horiz-adv-x="1425" 
d="M-68 0l7 12l79 8q99 11 103 33l250 1180q1 6 -2 9.5t-15 6.5t-34 6t-60 7l-53 6l-2 12h700l-8 -12l-98 -8q-35 -5 -68.5 -15t-34.5 -18l-254 -1198l150 -11q140 0 271 100.5t286 352.5l14 27h15l-121 -498h-1125zM1425 483q-61 0 -105 45t-44 109q0 60 44.5 104.5
t104.5 44.5t105 -45t45 -104q0 -63 -45 -108.5t-105 -45.5z" />
    <glyph glyph-name="ldotaccent" unicode="&#x140;" horiz-adv-x="940" 
d="M188 -27q-20 0 -63.5 31.5t-77 76.5t-24.5 75l337 1101q5 17 2.5 32.5t-12.5 15.5l-164 6l4 12l472 35l-377 -1202l100 -11l145 213l13 -6q-81 -155 -188 -267t-167 -112zM768 365q-61 0 -105.5 44.5t-44.5 108.5q0 60 45 105t105 45t105 -45.5t45 -104.5q0 -63 -45 -108
t-105 -45z" />
    <glyph glyph-name="Lslash" unicode="&#x141;" horiz-adv-x="1169" 
d="M229 569l-209 -63l9 24q13 4 34.5 10.5t66.5 20.5t74.5 23.5t28.5 9.5l138 639q1 6 -2 9.5t-15 6.5t-34 6t-60 7l-53 6l-2 12h700l-8 -12l-98 -8q-35 -5 -68.5 -15t-34.5 -18l-110 -525l227 70l-2 -24l-231 -70l-138 -649l129 -11q140 0 271 100.5t286 352.5l15 27h14
l-121 -498h-1104l7 12l79 8q99 11 103 33z" />
    <glyph glyph-name="lslash" unicode="&#x142;" horiz-adv-x="563" 
d="M160 535l-156 -48l8 23l154 47l215 700q5 17 2.5 32.5t-12.5 15.5l-164 6l4 12l477 35l-221 -707l154 47v-22l-162 -49l-148 -471l101 -11l145 213l12 -6q-82 -155 -188 -267t-166 -112q-20 0 -65.5 31.5t-80.5 76.5t-26 75z" />
    <glyph glyph-name="Nacute" unicode="&#x143;" horiz-adv-x="1427" 
d="M1079 -12l-657 1083h-4l-209 -979q-4 -20 7 -34.5t54 -27t119 -16.5l35 -2l2 -12h-465l6 12l39 2q160 9 178 103l217 979q-39 77 -101 118t-118 46l-16 2l-2 18h545l477 -784l4 2l147 690q4 20 -7 34.5t-54 27t-119 16.5l-35 2l-2 12h465l-8 -12l-37 -2
q-160 -9 -178 -103l-260 -1175h-23zM821 1366l289 383h285l-568 -383h-6z" />
    <glyph glyph-name="nacute" unicode="&#x144;" horiz-adv-x="1153" 
d="M791 -27q-33 0 -100.5 65.5t-67.5 111.5q0 17 4 35.5t14.5 47t20.5 53t30.5 74t36.5 89.5q10 24 24.5 59.5t22.5 55t16.5 42t12.5 36.5t4 22q0 12 -37.5 32.5t-64.5 20.5q-16 0 -45.5 -30.5t-70.5 -91.5t-98 -166.5t-120 -240.5l-74 -194l-276 10l116 338l117 397l-100 9
l-131 -213l-13 6q72 155 171 267t159 112q34 0 110 -66t76 -111q0 -44 -39 -165.5t-104 -276.5l12 -4q94 184 183.5 333t140.5 197q95 91 151 91q98 0 162 -50.5t64 -99.5q0 -86 -94 -319l-117 -293l100 -11l146 213l12 -6q-82 -155 -188 -267t-166 -112zM600 1006l289 383
h285l-568 -383h-6z" />
    <glyph glyph-name="Ncommaaccent" unicode="&#x145;" horiz-adv-x="1427" 
d="M1079 -12l-657 1083h-4l-209 -979q-4 -20 7 -34.5t54 -27t119 -16.5l35 -2l2 -12h-465l6 12l39 2q160 9 178 103l217 979q-39 77 -101 118t-118 46l-16 2l-2 18h545l477 -784l4 2l147 690q4 20 -7 34.5t-54 27t-119 16.5l-35 2l-2 12h465l-8 -12l-37 -2
q-160 -9 -178 -103l-260 -1175h-23zM426 -565l-6 10q196 23 221 149q13 67 -49.5 100.5t-138.5 2.5q-6 83 52.5 140.5t153.5 47.5q93 -10 132 -74t20 -143q-21 -92 -118.5 -159t-266.5 -74z" />
    <glyph glyph-name="ncommaaccent" unicode="&#x146;" horiz-adv-x="1153" 
d="M791 -27q-33 0 -100.5 65.5t-67.5 111.5q0 17 4 35.5t14.5 47t20.5 53t30.5 74t36.5 89.5q10 24 24.5 59.5t22.5 55t16.5 42t12.5 36.5t4 22q0 12 -37.5 32.5t-64.5 20.5q-16 0 -45.5 -30.5t-70.5 -91.5t-98 -166.5t-120 -240.5l-74 -194l-276 10l116 338l117 397l-100 9
l-131 -213l-13 6q72 155 171 267t159 112q34 0 110 -66t76 -111q0 -44 -39 -165.5t-104 -276.5l12 -4q94 184 183.5 333t140.5 197q95 91 151 91q98 0 162 -50.5t64 -99.5q0 -86 -94 -319l-117 -293l100 -11l146 213l12 -6q-82 -155 -188 -267t-166 -112zM227 -565l-6 10
q196 23 221 149q13 67 -49.5 100.5t-138.5 2.5q-6 83 53 140.5t154 47.5q93 -10 131.5 -73.5t19.5 -143.5q-21 -92 -118.5 -159t-266.5 -74z" />
    <glyph glyph-name="Ncaron" unicode="&#x147;" horiz-adv-x="1427" 
d="M1079 -12l-657 1083h-4l-209 -979q-4 -20 7 -34.5t54 -27t119 -16.5l35 -2l2 -12h-465l6 12l39 2q160 9 178 103l217 979q-39 77 -101 118t-118 46l-16 2l-2 18h545l477 -784l4 2l147 690q4 20 -7 34.5t-54 27t-119 16.5l-35 2l-2 12h465l-8 -12l-37 -2
q-160 -9 -178 -103l-260 -1175h-23zM950 1343l-202 404h14l233 -164h6l324 164h14l-374 -404h-15z" />
    <glyph glyph-name="ncaron" unicode="&#x148;" horiz-adv-x="1153" 
d="M791 -27q-33 0 -100.5 65.5t-67.5 111.5q0 17 4 35.5t14.5 47t20.5 53t30.5 74t36.5 89.5q10 24 24.5 59.5t22.5 55t16.5 42t12.5 36.5t4 22q0 12 -37.5 32.5t-64.5 20.5q-16 0 -45.5 -30.5t-70.5 -91.5t-98 -166.5t-120 -240.5l-74 -194l-276 10l116 338l117 397l-100 9
l-131 -213l-13 6q72 155 171 267t159 112q34 0 110 -66t76 -111q0 -44 -39 -165.5t-104 -276.5l12 -4q94 184 183.5 333t140.5 197q95 91 151 91q98 0 162 -50.5t64 -99.5q0 -86 -94 -319l-117 -293l100 -11l146 213l12 -6q-82 -155 -188 -267t-166 -112zM662 983l-203 403
h14l234 -163h6l323 163h15l-375 -403h-14z" />
    <glyph glyph-name="Omacron" unicode="&#x14c;" horiz-adv-x="1529" 
d="M764 -27q-190 0 -337.5 85t-225.5 228t-78 318q0 133 54 259.5t148 224.5t233 157.5t298 59.5q144 0 267.5 -51t208 -138.5t132 -205t47.5 -248.5q0 -133 -53.5 -257t-148.5 -220t-237 -154t-308 -58zM727 -4q127 0 232.5 129t163 337t57.5 443q0 173 -74 273t-213 100
q-87 0 -162 -65.5t-125 -168t-85.5 -230t-51.5 -249t-16 -227.5q0 -161 69.5 -251.5t204.5 -90.5zM692 1427l49 125h512l-49 -125h-512z" />
    <glyph glyph-name="omacron" unicode="&#x14d;" horiz-adv-x="913" 
d="M385 -27q-157 0 -256.5 114t-99.5 286q0 134 71.5 261.5t185.5 206.5t232 79q147 0 254 -123t107 -299q0 -130 -70.5 -252.5t-185.5 -197.5t-238 -75zM342 0q121 0 227 330q39 120 58.5 230.5t19.5 176.5q0 76 -23 115t-59 39q-50 0 -114 -87.5t-123 -273.5
q-35 -109 -52.5 -216t-17.5 -167q0 -68 22.5 -107.5t61.5 -39.5zM307 1067l49 125h512l-49 -125h-512z" />
    <glyph glyph-name="Obreve" unicode="&#x14e;" horiz-adv-x="1529" 
d="M764 -27q-190 0 -337.5 85t-225.5 228t-78 318q0 133 54 259.5t148 224.5t233 157.5t298 59.5q144 0 267.5 -51t208 -138.5t132 -205t47.5 -248.5q0 -133 -53.5 -257t-148.5 -220t-237 -154t-308 -58zM727 -4q127 0 232.5 129t163 337t57.5 443q0 173 -74 273t-213 100
q-87 0 -162 -65.5t-125 -168t-85.5 -230t-51.5 -249t-16 -227.5q0 -161 69.5 -251.5t204.5 -90.5zM948 1356q-229 0 -229 373h16q23 -183 238 -183q101 0 191 43t143 140h18q-78 -187 -166.5 -280t-210.5 -93z" />
    <glyph glyph-name="obreve" unicode="&#x14f;" horiz-adv-x="913" 
d="M385 -27q-157 0 -256.5 114t-99.5 286q0 134 71.5 261.5t185.5 206.5t232 79q147 0 254 -123t107 -299q0 -130 -70.5 -252.5t-185.5 -197.5t-238 -75zM342 0q121 0 227 330q39 120 58.5 230.5t19.5 176.5q0 76 -23 115t-59 39q-50 0 -114 -87.5t-123 -273.5
q-35 -109 -52.5 -216t-17.5 -167q0 -68 22.5 -107.5t61.5 -39.5zM582 995q-230 0 -230 373h17q23 -182 237 -182q101 0 191.5 42.5t142.5 139.5h18q-78 -187 -166 -280t-210 -93z" />
    <glyph glyph-name="Ohungarumlaut" unicode="&#x150;" horiz-adv-x="1529" 
d="M764 -27q-190 0 -337.5 85t-225.5 228t-78 318q0 133 54 259.5t148 224.5t233 157.5t298 59.5q144 0 267.5 -51t208 -138.5t132 -205t47.5 -248.5q0 -133 -53.5 -257t-148.5 -220t-237 -154t-308 -58zM727 -4q127 0 232.5 129t163 337t57.5 443q0 173 -74 273t-213 100
q-87 0 -162 -65.5t-125 -168t-85.5 -230t-51.5 -249t-16 -227.5q0 -161 69.5 -251.5t204.5 -90.5zM1094 1366l284 383h281l-557 -383h-8zM688 1366l285 383h276l-557 -383h-4z" />
    <glyph glyph-name="ohungarumlaut" unicode="&#x151;" horiz-adv-x="913" 
d="M385 -27q-157 0 -256.5 114t-99.5 286q0 134 71.5 261.5t185.5 206.5t232 79q147 0 254 -123t107 -299q0 -130 -70.5 -252.5t-185.5 -197.5t-238 -75zM342 0q121 0 227 330q39 120 58.5 230.5t19.5 176.5q0 76 -23 115t-59 39q-50 0 -114 -87.5t-123 -273.5
q-35 -109 -52.5 -216t-17.5 -167q0 -68 22.5 -107.5t61.5 -39.5zM709 1006l284 383h281l-557 -383h-8zM303 1006l285 383h276l-557 -383h-4z" />
    <glyph glyph-name="OE" unicode="&#x152;" horiz-adv-x="2031" 
d="M786 0q-156 0 -282 42.5t-208 118.5t-125.5 179t-43.5 225q0 141 58.5 270t164.5 228t267.5 158t353.5 59h1022l-2 -434h-17l-6 22q-24 98 -60 169.5t-77.5 115t-95.5 68t-108.5 32t-121.5 4.5l-55 -6l-123 -585l84 2q223 12 295 200l18 45h15l-123 -540h-14l4 45
q0 57 -8.5 94.5t-32.5 66.5t-68 44.5t-113 19.5l-61 4l-131 -616l151 -13q187 3 340.5 100.5t251.5 295.5l13 22h16l-133 -436h-1045zM784 25l80 2l254 1202l-133 28q-95 0 -178 -46t-144 -126.5t-105.5 -188t-66.5 -232.5t-22 -258q0 -381 315 -381z" />
    <glyph glyph-name="oe" unicode="&#x153;" horiz-adv-x="1396" 
d="M385 -27q-154 0 -255 113.5t-101 286.5q0 98 42.5 198t110 176.5t157.5 124.5t179 48q86 0 156 -49t114 -134q77 85 175.5 133t205.5 48q103 0 173.5 -54t70.5 -133q0 -56 -31 -96t-102 -69.5t-160 -50t-233 -42.5q-15 -80 -15 -164q0 -188 158 -188q84 0 153 45.5
t130 167.5l18 -8q-94 -195 -200 -273t-232 -78q-154 0 -227 125q-130 -127 -287 -127zM895 496q150 39 223.5 100t73.5 168q0 55 -23 90t-57 35q-29 0 -65 -33q-47 -47 -90 -145t-66 -213zM342 0q121 0 227 330q39 120 58.5 230.5t19.5 176.5q0 74 -21.5 114t-60.5 40
q-50 0 -114 -87.5t-123 -273.5q-35 -109 -52.5 -216t-17.5 -167q0 -67 23.5 -107t60.5 -40z" />
    <glyph glyph-name="Racute" unicode="&#x154;" horiz-adv-x="1374" 
d="M-68 0l7 12l79 8q99 8 103 33l250 1180q1 6 -2 9.5t-15 6.5t-34 6t-60 7l-53 6l-2 12h612q143 0 261 -35t193 -108.5t75 -173.5q0 -130 -104.5 -207.5t-299.5 -77.5l160 -406q57 -152 90 -195.5t111 -60.5l16 -4l2 -12h-479l-215 672l-43 20l-138 -645q-1 -8 4.5 -12
t29.5 -8.5t75 -8.5l74 -4l2 -14h-699zM719 694q132 0 211.5 96.5t79.5 223.5q0 105 -72 174t-197 69h-39l-114 -544q74 -19 131 -19zM684 1366l289 383h284l-567 -383h-6z" />
    <glyph glyph-name="racute" unicode="&#x155;" horiz-adv-x="950" 
d="M301 -6l-278 10l116 338l117 397l-100 9l-131 -213l-13 6q72 155 171 267t159 112q34 0 110 -66t76 -111q0 -22 -6 -50t-26 -86.5t-33.5 -95.5t-52.5 -140h6q67 136 88 177.5t63 120t67 114.5t50 61q73 76 160 76q70 0 125 -48t55 -124q0 -83 -46 -140t-118 -57
q-54 0 -89.5 30t-43 70t11 82.5t62.5 65.5l-72 24q-57 -25 -118 -125t-210 -399zM516 1006l289 383h285l-568 -383h-6z" />
    <glyph glyph-name="Rcommaaccent" unicode="&#x156;" horiz-adv-x="1374" 
d="M-68 0l7 12l79 8q99 8 103 33l250 1180q1 6 -2 9.5t-15 6.5t-34 6t-60 7l-53 6l-2 12h612q143 0 261 -35t193 -108.5t75 -173.5q0 -130 -104.5 -207.5t-299.5 -77.5l160 -406q57 -152 90 -195.5t111 -60.5l16 -4l2 -12h-479l-215 672l-43 20l-138 -645q-1 -8 4.5 -12
t29.5 -8.5t75 -8.5l74 -4l2 -14h-699zM719 694q132 0 211.5 96.5t79.5 223.5q0 105 -72 174t-197 69h-39l-114 -544q74 -19 131 -19zM461 -565l-6 10q196 23 221 149q13 67 -50 100.5t-139 2.5q-6 83 53 140.5t154 47.5q93 -10 132 -74t20 -143q-21 -92 -118.5 -159
t-266.5 -74z" />
    <glyph glyph-name="rcommaaccent" unicode="&#x157;" horiz-adv-x="950" 
d="M301 -6l-278 10l116 338l117 397l-100 9l-131 -213l-13 6q72 155 171 267t159 112q34 0 110 -66t76 -111q0 -22 -6 -50t-26 -86.5t-33.5 -95.5t-52.5 -140h6q67 136 88 177.5t63 120t67 114.5t50 61q73 76 160 76q70 0 125 -48t55 -124q0 -83 -46 -140t-118 -57
q-54 0 -89.5 30t-43 70t11 82.5t62.5 65.5l-72 24q-57 -25 -118 -125t-210 -399zM-78 -565l-6 10q196 23 221 149q13 67 -49.5 100.5t-138.5 2.5q-6 83 53 140.5t154 47.5q93 -10 131.5 -73.5t19.5 -143.5q-21 -92 -118.5 -159t-266.5 -74z" />
    <glyph glyph-name="Rcaron" unicode="&#x158;" horiz-adv-x="1374" 
d="M-68 0l7 12l79 8q99 8 103 33l250 1180q1 6 -2 9.5t-15 6.5t-34 6t-60 7l-53 6l-2 12h612q143 0 261 -35t193 -108.5t75 -173.5q0 -130 -104.5 -207.5t-299.5 -77.5l160 -406q57 -152 90 -195.5t111 -60.5l16 -4l2 -12h-479l-215 672l-43 20l-138 -645q-1 -8 4.5 -12
t29.5 -8.5t75 -8.5l74 -4l2 -14h-699zM719 694q132 0 211.5 96.5t79.5 223.5q0 105 -72 174t-197 69h-39l-114 -544q74 -19 131 -19zM772 1343l-203 404h15l233 -164h6l324 164h14l-375 -404h-14z" />
    <glyph glyph-name="rcaron" unicode="&#x159;" horiz-adv-x="950" 
d="M301 -6l-278 10l116 338l117 397l-100 9l-131 -213l-13 6q72 155 171 267t159 112q34 0 110 -66t76 -111q0 -22 -6 -50t-26 -86.5t-33.5 -95.5t-52.5 -140h6q67 136 88 177.5t63 120t67 114.5t50 61q73 76 160 76q70 0 125 -48t55 -124q0 -83 -46 -140t-118 -57
q-54 0 -89.5 30t-43 70t11 82.5t62.5 65.5l-72 24q-57 -25 -118 -125t-210 -399zM590 983l-203 403h14l234 -163h6l324 163h14l-375 -403h-14z" />
    <glyph glyph-name="Sacute" unicode="&#x15a;" horiz-adv-x="1093" 
d="M528 -27q-250 0 -462 131l26 349l8 -2l74 -205q44 -126 127 -190t221 -64q118 0 187 76.5t69 181.5q0 30 -8 57t-19.5 48t-34 43.5t-40 37t-50.5 35.5t-52.5 31.5l-58.5 31.5q-9 5 -13 7q-64 36 -110.5 67.5t-95.5 77.5t-75 102.5t-26 120.5q0 157 129 275.5t313 118.5
q151 0 315 -89l138 27l-62 -371h-6l-154 340q-26 26 -84.5 48t-117.5 22q-95 0 -161.5 -66t-66.5 -149q0 -36 15 -69t35.5 -57t59.5 -50.5t69.5 -44t82.5 -43.5q52 -28 90.5 -51.5t84 -61t74.5 -75.5t49 -91.5t20 -113.5q0 -83 -36 -161.5t-99 -139t-156 -97.5t-199 -37z
M547 1366l289 383h284l-567 -383h-6z" />
    <glyph glyph-name="sacute" unicode="&#x15b;" horiz-adv-x="798" 
d="M322 -27q-143 0 -235 55t-93 154q0 67 39 114.5t102 47.5q46 0 79 -33.5t36 -83.5q1 -40 -15 -64.5t-61 -56.5q2 -31 51.5 -74.5t126.5 -43.5q64 0 108 43.5t44 105.5q0 16 -6 32.5t-20.5 35t-27 33t-38 37t-39.5 34.5t-45.5 38t-44.5 36q-78 65 -118 123t-40 127
q0 117 102 202t244 85q122 0 215.5 -53.5t93.5 -131.5q0 -65 -36.5 -109t-92.5 -44q-57 0 -94 37t-37 92q0 61 70 106q-1 2 -7.5 15.5t-14.5 23.5t-21.5 22.5t-36.5 19.5t-53 7q-53 0 -95.5 -45t-42.5 -102q0 -29 24.5 -63.5t48 -55.5t73.5 -60.5t63 -50.5
q177 -151 177 -266q0 -121 -112 -205t-271 -84zM399 1006l289 383h285l-567 -383h-7z" />
    <glyph glyph-name="Scircumflex" unicode="&#x15c;" horiz-adv-x="1093" 
d="M528 -27q-250 0 -462 131l26 349l8 -2l74 -205q44 -126 127 -190t221 -64q118 0 187 76.5t69 181.5q0 30 -8 57t-19.5 48t-34 43.5t-40 37t-50.5 35.5t-52.5 31.5l-58.5 31.5q-9 5 -13 7q-64 36 -110.5 67.5t-95.5 77.5t-75 102.5t-26 120.5q0 157 129 275.5t313 118.5
q151 0 315 -89l138 27l-62 -371h-6l-154 340q-26 26 -84.5 48t-117.5 22q-95 0 -161.5 -66t-66.5 -149q0 -36 15 -69t35.5 -57t59.5 -50.5t69.5 -44t82.5 -43.5q52 -28 90.5 -51.5t84 -61t74.5 -75.5t49 -91.5t20 -113.5q0 -83 -36 -161.5t-99 -139t-156 -97.5t-199 -37z
M387 1343l373 404h16l203 -404h-14l-236 164h-4l-324 -164h-14z" />
    <glyph glyph-name="scircumflex" unicode="&#x15d;" horiz-adv-x="798" 
d="M322 -27q-143 0 -235 55t-93 154q0 67 39 114.5t102 47.5q46 0 79 -33.5t36 -83.5q1 -40 -15 -64.5t-61 -56.5q2 -31 51.5 -74.5t126.5 -43.5q64 0 108 43.5t44 105.5q0 16 -6 32.5t-20.5 35t-27 33t-38 37t-39.5 34.5t-45.5 38t-44.5 36q-78 65 -118 123t-40 127
q0 117 102 202t244 85q122 0 215.5 -53.5t93.5 -131.5q0 -65 -36.5 -109t-92.5 -44q-57 0 -94 37t-37 92q0 61 70 106q-1 2 -7.5 15.5t-14.5 23.5t-21.5 22.5t-36.5 19.5t-53 7q-53 0 -95.5 -45t-42.5 -102q0 -29 24.5 -63.5t48 -55.5t73.5 -60.5t63 -50.5
q177 -151 177 -266q0 -121 -112 -205t-271 -84zM195 983l372 403h17l202 -403h-14l-235 164h-5l-323 -164h-14z" />
    <glyph glyph-name="Scedilla" unicode="&#x15e;" horiz-adv-x="1093" 
d="M150 -524v10q190 14 269 46.5t79 105.5q0 43 -36.5 71.5t-80 38.5t-88.5 10q-65 0 -111 -12l2 14l269 217q-213 18 -387 127l26 349l8 -2l74 -205q44 -126 127 -190t221 -64q118 0 187 76.5t69 181.5q0 30 -8 57t-19.5 48t-34 43.5t-40 37t-50.5 35.5t-52.5 31.5
l-58.5 31.5q-9 5 -13 7q-64 36 -110.5 67.5t-95.5 77.5t-75 102.5t-26 120.5q0 157 129 275.5t313 118.5q151 0 315 -89l138 27l-62 -371h-6l-154 340q-26 26 -84.5 48t-117.5 22q-95 0 -161.5 -66t-66.5 -149q0 -36 15 -69t35.5 -57t59.5 -50.5t69.5 -44t82.5 -43.5
q52 -28 90.5 -51.5t84 -61t74.5 -75.5t49 -91.5t20 -113.5q0 -83 -36 -161.5t-99 -139t-156 -97.5t-199 -37q-35 0 -51 2l-127 -104q129 13 219 -39.5t90 -130.5q0 -238 -509 -225z" />
    <glyph glyph-name="scedilla" unicode="&#x15f;" horiz-adv-x="798" 
d="M2 -524v10q190 14 269 46.5t79 105.5q0 43 -36.5 71.5t-80 38.5t-88.5 10q-64 0 -110 -12l2 14l264 213q-136 5 -221 59t-86 150q0 67 39 114.5t102 47.5q46 0 79 -33.5t36 -83.5q1 -40 -15 -64.5t-61 -56.5q2 -26 43.5 -66.5t104.5 -49.5l2 2h26l-6 -4h8q64 0 108 43.5
t44 105.5q0 16 -6 32.5t-20.5 35t-27 33t-38 37t-39.5 34.5t-45.5 38t-44.5 36q-78 65 -118 123t-40 127q0 117 102 202t244 85q122 0 215.5 -53.5t93.5 -131.5q0 -65 -36.5 -109t-92.5 -44q-57 0 -94 37t-37 92q0 61 70 106q-1 2 -7.5 15.5t-14.5 23.5t-21.5 22.5
t-36.5 19.5t-53 7q-53 0 -95.5 -45t-42.5 -102q0 -29 24.5 -63.5t48 -55.5t73.5 -60.5t63 -50.5q177 -151 177 -266q0 -119 -110.5 -203t-266.5 -86l-125 -102q129 13 219 -39.5t90 -130.5q0 -238 -510 -225z" />
    <glyph glyph-name="Scaron" unicode="&#x160;" horiz-adv-x="1093" 
d="M528 -27q-250 0 -462 131l26 349l8 -2l74 -205q44 -126 127 -190t221 -64q118 0 187 76.5t69 181.5q0 30 -8 57t-19.5 48t-34 43.5t-40 37t-50.5 35.5t-52.5 31.5l-58.5 31.5q-9 5 -13 7q-64 36 -110.5 67.5t-95.5 77.5t-75 102.5t-26 120.5q0 157 129 275.5t313 118.5
q151 0 315 -89l138 27l-62 -371h-6l-154 340q-26 26 -84.5 48t-117.5 22q-95 0 -161.5 -66t-66.5 -149q0 -36 15 -69t35.5 -57t59.5 -50.5t69.5 -44t82.5 -43.5q52 -28 90.5 -51.5t84 -61t74.5 -75.5t49 -91.5t20 -113.5q0 -83 -36 -161.5t-99 -139t-156 -97.5t-199 -37z
M694 1346l-202 403h14l233 -164h6l324 164h14l-374 -403h-15z" />
    <glyph glyph-name="scaron" unicode="&#x161;" horiz-adv-x="798" 
d="M322 -27q-143 0 -235 55t-93 154q0 67 39 114.5t102 47.5q46 0 79 -33.5t36 -83.5q1 -40 -15 -64.5t-61 -56.5q2 -31 51.5 -74.5t126.5 -43.5q64 0 108 43.5t44 105.5q0 16 -6 32.5t-20.5 35t-27 33t-38 37t-39.5 34.5t-45.5 38t-44.5 36q-78 65 -118 123t-40 127
q0 117 102 202t244 85q122 0 215.5 -53.5t93.5 -131.5q0 -65 -36.5 -109t-92.5 -44q-57 0 -94 37t-37 92q0 61 70 106q-1 2 -7.5 15.5t-14.5 23.5t-21.5 22.5t-36.5 19.5t-53 7q-53 0 -95.5 -45t-42.5 -102q0 -29 24.5 -63.5t48 -55.5t73.5 -60.5t63 -50.5
q177 -151 177 -266q0 -121 -112 -205t-271 -84zM485 983l-202 403h14l233 -163h7l323 163h14l-374 -403h-15z" />
    <glyph glyph-name="Tcommaaccent" unicode="&#x162;" horiz-adv-x="1409" 
d="M274 0l7 12l84 8q98 8 102 33l254 1211h-27q-208 -13 -483 -385l-25 -33h-12l148 434h1144l-59 -432h-8l-10 31q-17 56 -33 99t-44.5 99t-59.5 93t-76 64.5t-97 29.5h-30l-258 -1217q-1 -6 2 -9t14.5 -6.5t33 -6.5t60.5 -7l57 -6l3 -12h-687zM362 -565l-6 10
q197 23 222 149q13 67 -50 100.5t-139 2.5q-6 83 53 140.5t154 47.5q93 -10 132 -74t20 -143q-21 -92 -118.5 -159t-267.5 -74z" />
    <glyph glyph-name="tcommaaccent" unicode="&#x163;" horiz-adv-x="675" 
d="M299 -27q-83 0 -170 63t-84 114q3 32 69 248t115 364l-166 2l54 121h153l99 258h260l-82 -256l188 -2l-33 -117h-194l-203 -610l180 -11l123 213l15 -6q-80 -173 -163.5 -277t-160.5 -104zM-43 -565l-6 10q196 23 221 149q13 67 -49.5 100.5t-138.5 2.5q-6 83 52.5 140.5
t153.5 47.5q93 -10 132 -74t20 -143q-21 -92 -118.5 -159t-266.5 -74z" />
    <glyph glyph-name="Tcaron" unicode="&#x164;" horiz-adv-x="1409" 
d="M274 0l7 12l84 8q98 8 102 33l254 1211h-27q-208 -13 -483 -385l-25 -33h-12l148 434h1144l-59 -432h-8l-10 31q-17 56 -33 99t-44.5 99t-59.5 93t-76 64.5t-97 29.5h-30l-258 -1217q-1 -6 2 -9t14.5 -6.5t33 -6.5t60.5 -7l57 -6l3 -12h-687zM885 1343l-203 404h14
l234 -164h6l324 164h14l-375 -404h-14z" />
    <glyph glyph-name="tcaron" unicode="&#x165;" horiz-adv-x="675" 
d="M299 -27q-83 0 -170 63t-84 114q3 32 69 248t115 364l-166 2l54 121h153l99 258h260l-82 -256l188 -2l-33 -117h-194l-203 -610l180 -11l123 213l15 -6q-80 -173 -163.5 -277t-160.5 -104zM641 938l-4 8q258 92 258 252q0 68 -46.5 108.5t-117.5 55.5q0 62 42.5 104.5
t109.5 42.5q86 0 129 -55t43 -131q0 -119 -115 -230.5t-299 -154.5z" />
    <glyph glyph-name="Umacron" unicode="&#x16a;" horiz-adv-x="1449" 
d="M754 -35q-264 0 -407.5 103.5t-143.5 298.5q0 78 22 188q2 11 6 30.5t16 76.5t23.5 111t26 124t26.5 127t22.5 106.5t16 77t5.5 25.5q1 6 -1.5 9t-13 6.5t-31.5 6.5t-59 7l-57 6l-2 12h682l-8 -12l-78 -8q-99 -10 -103 -33l-139 -664q-25 -122 -25 -203
q0 -157 82.5 -225.5t249.5 -68.5q283 0 353 331l167 791q4 19 -8 34.5t-56 28.5t-120 17h-37l-4 12h471l-8 -12h-39q-155 -9 -174 -105l-170 -770q-45 -208 -166 -318t-319 -110zM733 1427l49 125h512l-49 -125h-512z" />
    <glyph glyph-name="umacron" unicode="&#x16b;" horiz-adv-x="1153" 
d="M811 -27q-34 0 -110 66t-76 111q0 44 39 168.5t102 275.5l-12 4q-225 -441 -322 -532q-95 -91 -151 -91q-98 0 -162 50.5t-64 99.5q0 84 95 319l114 295l-100 9l-144 -213l-12 6q82 155 188 267t166 112q33 0 102 -65.5t66 -111.5q-1 -17 -5 -35.5t-15 -48.5t-19.5 -51.5
t-30.5 -74.5t-36 -89q-9 -23 -24 -59t-23 -55.5t-17 -42.5t-12.5 -37t-3.5 -23q0 -12 39 -31.5t66 -19.5q22 0 64 51t113 174t154 301l74 197l276 -10l-116 -338l-119 -395l100 -11l133 213l13 -6q-72 -155 -171 -267t-159 -112zM444 1067l50 125h512l-50 -125h-512z" />
    <glyph glyph-name="Ubreve" unicode="&#x16c;" horiz-adv-x="1449" 
d="M754 -35q-264 0 -407.5 103.5t-143.5 298.5q0 78 22 188q2 11 6 30.5t16 76.5t23.5 111t26 124t26.5 127t22.5 106.5t16 77t5.5 25.5q1 6 -1.5 9t-13 6.5t-31.5 6.5t-59 7l-57 6l-2 12h682l-8 -12l-78 -8q-99 -10 -103 -33l-139 -664q-25 -122 -25 -203
q0 -157 82.5 -225.5t249.5 -68.5q283 0 353 331l167 791q4 19 -8 34.5t-56 28.5t-120 17h-37l-4 12h471l-8 -12h-39q-155 -9 -174 -105l-170 -770q-45 -208 -166 -318t-319 -110zM995 1356q-229 0 -229 373h16q23 -183 238 -183q101 0 191 43t143 140h18
q-78 -187 -166.5 -280t-210.5 -93z" />
    <glyph glyph-name="ubreve" unicode="&#x16d;" horiz-adv-x="1153" 
d="M811 -27q-34 0 -110 66t-76 111q0 44 39 168.5t102 275.5l-12 4q-225 -441 -322 -532q-95 -91 -151 -91q-98 0 -162 50.5t-64 99.5q0 84 95 319l114 295l-100 9l-144 -213l-12 6q82 155 188 267t166 112q33 0 102 -65.5t66 -111.5q-1 -17 -5 -35.5t-15 -48.5t-19.5 -51.5
t-30.5 -74.5t-36 -89q-9 -23 -24 -59t-23 -55.5t-17 -42.5t-12.5 -37t-3.5 -23q0 -12 39 -31.5t66 -19.5q22 0 64 51t113 174t154 301l74 197l276 -10l-116 -338l-119 -395l100 -11l133 213l13 -6q-72 -155 -171 -267t-159 -112zM680 995q-229 0 -229 373h16
q23 -182 238 -182q101 0 191 42.5t142 139.5h19q-78 -187 -166.5 -280t-210.5 -93z" />
    <glyph glyph-name="Uring" unicode="&#x16e;" horiz-adv-x="1449" 
d="M754 -35q-264 0 -407.5 103.5t-143.5 298.5q0 78 22 188q2 11 6 30.5t16 76.5t23.5 111t26 124t26.5 127t22.5 106.5t16 77t5.5 25.5q1 6 -1.5 9t-13 6.5t-31.5 6.5t-59 7l-57 6l-2 12h682l-8 -12l-78 -8q-99 -10 -103 -33l-139 -664q-25 -122 -25 -203
q0 -157 82.5 -225.5t249.5 -68.5q283 0 353 331l167 791q4 19 -8 34.5t-56 28.5t-120 17h-37l-4 12h471l-8 -12h-39q-155 -9 -174 -105l-170 -770q-45 -208 -166 -318t-319 -110zM1034 1380q-82 0 -132 53.5t-50 131.5q0 76 50 130t132 54t132.5 -54t50.5 -130
q0 -78 -50.5 -131.5t-132.5 -53.5zM1034 1399q73 0 117.5 48t44.5 118q0 69 -44.5 117.5t-117.5 48.5t-117.5 -48.5t-44.5 -117.5q0 -70 44.5 -118t117.5 -48z" />
    <glyph glyph-name="uring" unicode="&#x16f;" horiz-adv-x="1153" 
d="M811 -27q-34 0 -110 66t-76 111q0 44 39 168.5t102 275.5l-12 4q-225 -441 -322 -532q-95 -91 -151 -91q-98 0 -162 50.5t-64 99.5q0 84 95 319l114 295l-100 9l-144 -213l-12 6q82 155 188 267t166 112q33 0 102 -65.5t66 -111.5q-1 -17 -5 -35.5t-15 -48.5t-19.5 -51.5
t-30.5 -74.5t-36 -89q-9 -23 -24 -59t-23 -55.5t-17 -42.5t-12.5 -37t-3.5 -23q0 -12 39 -31.5t66 -19.5q22 0 64 51t113 174t154 301l74 197l276 -10l-116 -338l-119 -395l100 -11l133 213l13 -6q-72 -155 -171 -267t-159 -112zM700 975q-82 0 -132 53t-50 131q0 76 50 130
t132 54t132.5 -54t50.5 -130q0 -77 -50.5 -130.5t-132.5 -53.5zM700 993q73 0 117.5 48t44.5 118q0 69 -44.5 117.5t-117.5 48.5t-117 -48.5t-44 -117.5q0 -70 44 -118t117 -48z" />
    <glyph glyph-name="Uhungarumlaut" unicode="&#x170;" horiz-adv-x="1449" 
d="M754 -35q-264 0 -407.5 103.5t-143.5 298.5q0 78 22 188q2 11 6 30.5t16 76.5t23.5 111t26 124t26.5 127t22.5 106.5t16 77t5.5 25.5q1 6 -1.5 9t-13 6.5t-31.5 6.5t-59 7l-57 6l-2 12h682l-8 -12l-78 -8q-99 -10 -103 -33l-139 -664q-25 -122 -25 -203
q0 -157 82.5 -225.5t249.5 -68.5q283 0 353 331l167 791q4 19 -8 34.5t-56 28.5t-120 17h-37l-4 12h471l-8 -12h-39q-155 -9 -174 -105l-170 -770q-45 -208 -166 -318t-319 -110zM1143 1366l284 383h281l-557 -383h-8zM737 1366l285 383h276l-557 -383h-4z" />
    <glyph glyph-name="uhungarumlaut" unicode="&#x171;" horiz-adv-x="1153" 
d="M811 -27q-34 0 -110 66t-76 111q0 44 39 168.5t102 275.5l-12 4q-225 -441 -322 -532q-95 -91 -151 -91q-98 0 -162 50.5t-64 99.5q0 84 95 319l114 295l-100 9l-144 -213l-12 6q82 155 188 267t166 112q33 0 102 -65.5t66 -111.5q-1 -17 -5 -35.5t-15 -48.5t-19.5 -51.5
t-30.5 -74.5t-36 -89q-9 -23 -24 -59t-23 -55.5t-17 -42.5t-12.5 -37t-3.5 -23q0 -12 39 -31.5t66 -19.5q22 0 64 51t113 174t154 301l74 197l276 -10l-116 -338l-119 -395l100 -11l133 213l13 -6q-72 -155 -171 -267t-159 -112zM827 1006l285 383h281l-557 -383h-9z
M422 1006l285 383h276l-557 -383h-4z" />
    <glyph glyph-name="Uogonek" unicode="&#x172;" horiz-adv-x="1449" 
d="M731 -494q-79 0 -129.5 43.5t-50.5 124.5q0 93 86 170.5t209 126.5q-37 -6 -92 -6q-264 0 -407.5 103.5t-143.5 298.5q0 78 22 188q2 11 6 30.5t16 76.5t23.5 111t26 124t26.5 127t22.5 106.5t16 77t5.5 25.5q1 6 -1.5 9t-13 6.5t-31.5 6.5t-59 7l-57 6l-2 12h682l-8 -12
l-78 -8q-99 -10 -103 -33l-139 -664q-25 -122 -25 -203q0 -157 82.5 -225.5t249.5 -68.5q283 0 353 331l167 791q4 19 -8 34.5t-56 28.5t-120 17h-37l-4 12h471l-8 -12h-39q-155 -9 -174 -105l-170 -770q-36 -167 -116 -266t-216 -152q-95 -37 -144.5 -108t-49.5 -141
q0 -56 38.5 -86.5t106.5 -30.5q41 0 71 16.5t68 50.5l4 -4q-41 -67 -109 -116.5t-161 -49.5z" />
    <glyph glyph-name="uogonek" unicode="&#x173;" horiz-adv-x="1153" 
d="M688 -494q-79 0 -130.5 43.5t-51.5 124.5q0 102 85.5 179t219.5 120q-41 3 -113.5 70t-72.5 107q0 44 39 168.5t102 275.5l-12 4q-225 -441 -322 -532q-95 -91 -151 -91q-98 0 -162 50.5t-64 99.5q0 84 95 319l114 295l-100 9l-144 -213l-12 6q82 155 188 267t166 112
q33 0 102 -65.5t66 -111.5q-1 -17 -5 -35.5t-15 -48.5t-19.5 -51.5t-30.5 -74.5t-36 -89q-9 -23 -24 -59t-23 -55.5t-17 -42.5t-12.5 -37t-3.5 -23q0 -12 39 -31.5t66 -19.5q22 0 64 51t113 174t154 301l74 197l276 -10l-116 -338l-119 -395l100 -11l133 213l13 -6
q-59 -133 -134.5 -227.5t-152.5 -140.5q-93 -56 -139.5 -123.5t-46.5 -134.5q0 -55 39.5 -86t107.5 -31q41 0 71 16.5t68 50.5l4 -4q-41 -67 -109 -116.5t-161 -49.5z" />
    <glyph glyph-name="Wcircumflex" unicode="&#x174;" horiz-adv-x="2052" 
d="M573 -33l-211 1045q-22 109 -40 159t-41 69.5t-66 23.5l-35 4l-2 12h664l-8 -12l-62 -2q-56 -2 -81.5 -13.5t-27 -31.5t4.5 -50l147 -768l4 -2l330 547l-10 68q-22 141 -50 192t-85 56l-56 4l-2 12h694l-8 -12l-57 -2q-80 -3 -104 -26t-15 -91l107 -733h4l295 520
q15 27 43 75q91 143 86 191.5t-142 61.5l-41 4l-2 12h441l-9 -12l-28 -4q-30 -4 -49 -7t-40 -12t-32 -13.5t-29.5 -23.5t-26.5 -29t-29 -43.5t-32.5 -53t-41.5 -71.5t-50 -87l-545 -957h-26l-154 944h-4l-567 -944h-11zM993 1343l373 404h16l203 -404h-14l-236 164h-4
l-323 -164h-15z" />
    <glyph glyph-name="wcircumflex" unicode="&#x175;" horiz-adv-x="1308" 
d="M248 -27q-92 0 -141.5 48.5t-49.5 130.5q0 62 41 143.5t87 140t110.5 134t79.5 96.5l-262 16l-76 -147l-14 6q40 86 73 150t67.5 120t64 85.5t53.5 29.5q26 0 77 -10.5t91.5 -23.5t37.5 -20q-4 -8 -30.5 -66.5t-46 -106t-44 -115t-38 -132t-13.5 -118.5
q0 -75 27.5 -111.5t85.5 -36.5q41 0 84 27.5t77.5 67.5t74.5 104.5t67.5 116.5t63.5 127q1 2 -5 5.5t-16.5 7.5t-24 11t-28 15t-28.5 20t-25 25.5t-18 32.5t-7 40q0 56 39 95t94 39q59 0 100.5 -39.5t41.5 -92.5q0 -39 -17.5 -75t-40.5 -62t-52.5 -73t-47.5 -99
q-23 -67 -23 -112q0 -90 56.5 -135.5t152.5 -45.5q72 0 133.5 46.5t100.5 118t58.5 158t14.5 167.5q-39 -32 -95 -34.5t-100 33.5t-44 103q0 60 38.5 101t92.5 41q75 0 117.5 -56.5t42.5 -154.5q0 -151 -84.5 -336t-196.5 -297q-100 -103 -193 -103q-88 0 -134 58t-46 127
q0 87 76 278q-46 -87 -97.5 -163.5t-113.5 -147t-132 -111.5t-136 -41zM504 983l373 403h16l203 -403h-15l-235 164h-4l-324 -164h-14z" />
    <glyph glyph-name="Ycircumflex" unicode="&#x176;" horiz-adv-x="1370" 
d="M250 0l6 12l84 8q98 8 102 33l113 535l-147 448q-23 69 -38.5 105.5t-36.5 65t-45.5 40.5t-62.5 17l-28 4v12h688l-8 -12l-21 -2q-101 -8 -132.5 -33t-18.5 -64l165 -516l7 -2l186 246q145 196 172 254q31 64 -7 87q-29 18 -124 26l-43 4l-2 12h489l-8 -12l-55 -6
q-40 -4 -68 -14t-57.5 -31.5t-64 -61t-80 -97.5t-112.5 -146l-12 -16.5t-11 -14.5t-13 -17l-178 -235l-123 -582q-1 -6 2 -9.5t15 -6.5t34 -6t60 -7l53 -6l2 -12h-682zM635 1343l373 404h16l203 -404h-15l-235 164h-4l-324 -164h-14z" />
    <glyph glyph-name="ycircumflex" unicode="&#x177;" horiz-adv-x="954" 
d="M-53 -373q-106 0 -166 50t-60 124q0 60 46 104t104 44q57 0 97.5 -35.5t43 -94.5t-56.5 -136l84 -25q123 32 289 139q10 376 -2 590t-47 307.5t-101 93.5h-16l-135 -253l-15 6q10 22 28 61.5t27 59.5t25.5 53t27 50.5t27 42.5t30 38.5t32 29.5t37 23.5t41 13t47.5 5.5
q78 0 128.5 -45t82.5 -150t36.5 -277.5t-10.5 -427.5l4 -2q133 149 224 327t106 325q-78 -59 -138.5 -51.5t-97 51.5t-36.5 98q0 63 38.5 105t106.5 42q76 0 119 -58.5t43 -141.5q0 -174 -115.5 -384t-294.5 -386q-145 -143 -298.5 -229.5t-284.5 -86.5zM276 983l373 403h17
l202 -403h-14l-236 164h-4l-323 -164h-15z" />
    <glyph glyph-name="Ydieresis" unicode="&#x178;" horiz-adv-x="1370" 
d="M250 0l6 12l84 8q98 8 102 33l113 535l-147 448q-23 69 -38.5 105.5t-36.5 65t-45.5 40.5t-62.5 17l-28 4v12h688l-8 -12l-21 -2q-101 -8 -132.5 -33t-18.5 -64l165 -516l7 -2l186 246q145 196 172 254q31 64 -7 87q-29 18 -124 26l-43 4l-2 12h489l-8 -12l-55 -6
q-40 -4 -68 -14t-57.5 -31.5t-64 -61t-80 -97.5t-112.5 -146l-12 -16.5t-11 -14.5t-13 -17l-178 -235l-123 -582q-1 -6 2 -9.5t15 -6.5t34 -6t60 -7l53 -6l2 -12h-682zM1124 1366q-59 0 -96 38.5t-37 90.5q0 54 37 93.5t96 39.5q60 0 96.5 -39.5t36.5 -93.5
q0 -52 -36.5 -90.5t-96.5 -38.5zM698 1366q-59 0 -96 38.5t-37 90.5q0 54 37 93.5t96 39.5q60 0 96.5 -39.5t36.5 -93.5q0 -52 -36.5 -90.5t-96.5 -38.5z" />
    <glyph glyph-name="Zacute" unicode="&#x179;" horiz-adv-x="1294" 
d="M-29 0l2 12l996 1233l-2 4l-146 8q-168 0 -327 -103t-258 -288l-11 -20h-12l111 434h1056l-4 -10l-1024 -1233v-4l140 -10q114 -8 201 10t174.5 75t171.5 153t190 251l20 33h13l-185 -545h-1106zM723 1366l289 383h284l-567 -383h-6z" />
    <glyph glyph-name="zacute" unicode="&#x17a;" horiz-adv-x="888" 
d="M512 -47q-61 0 -107 32t-72.5 77.5t-46.5 90.5t-40.5 77t-44.5 32h-4l-103 -291q-55 0 -98 31t-43 80q0 64 75.5 128t170.5 77l467 338q-39 -6 -72.5 -5.5t-58.5 4t-54.5 19.5t-46.5 26.5t-47.5 40.5t-45 45.5t-51.5 57.5q-2 2 -3 3.5t-3 3t-3 3.5q-3 5 -42 -37
q-54 -58 -30 -59q63 0 99 -40t36 -95q0 -51 -37.5 -84t-93.5 -33q-60 0 -93.5 44.5t-33.5 96.5q0 54 46 110.5t110 95.5t122 65.5t91 32.5q56 0 98 -28.5t63.5 -69.5t35 -81.5t23 -68t17.5 -25.5l2 2l80 269q51 -2 98.5 -32.5t47.5 -72.5q0 -78 -61 -126.5t-154 -63.5
l-465 -336q130 24 238 -46.5t190 -209.5q2 -5 35 35q64 78 64 100q0 5 -5 4q-81 -11 -121.5 29t-40.5 100q0 50 36.5 84.5t84.5 34.5q65 0 97 -45t32 -99q0 -71 -52 -144t-131 -121.5t-155 -55.5zM465 1006l289 383h284l-567 -383h-6z" />
    <glyph glyph-name="Zdotaccent" unicode="&#x17b;" horiz-adv-x="1294" 
d="M-29 0l2 12l996 1233l-2 4l-146 8q-168 0 -327 -103t-258 -288l-11 -20h-12l111 434h1056l-4 -10l-1024 -1233v-4l140 -10q114 -8 201 10t174.5 75t171.5 153t190 251l20 33h13l-185 -545h-1106zM852 1407q-72 0 -119 48t-47 112q0 65 46 114.5t118 49.5q74 0 119 -49
t45 -115q0 -65 -44 -112.5t-118 -47.5z" />
    <glyph glyph-name="zdotaccent" unicode="&#x17c;" horiz-adv-x="888" 
d="M512 -47q-61 0 -107 32t-72.5 77.5t-46.5 90.5t-40.5 77t-44.5 32h-4l-103 -291q-55 0 -98 31t-43 80q0 64 75.5 128t170.5 77l467 338q-39 -6 -72.5 -5.5t-58.5 4t-54.5 19.5t-46.5 26.5t-47.5 40.5t-45 45.5t-51.5 57.5q-2 2 -3 3.5t-3 3t-3 3.5q-3 5 -42 -37
q-54 -58 -30 -59q63 0 99 -40t36 -95q0 -51 -37.5 -84t-93.5 -33q-60 0 -93.5 44.5t-33.5 96.5q0 54 46 110.5t110 95.5t122 65.5t91 32.5q56 0 98 -28.5t63.5 -69.5t35 -81.5t23 -68t17.5 -25.5l2 2l80 269q51 -2 98.5 -32.5t47.5 -72.5q0 -78 -61 -126.5t-154 -63.5
l-465 -336q130 24 238 -46.5t190 -209.5q2 -5 35 35q64 78 64 100q0 5 -5 4q-81 -11 -121.5 29t-40.5 100q0 50 36.5 84.5t84.5 34.5q65 0 97 -45t32 -99q0 -71 -52 -144t-131 -121.5t-155 -55.5zM625 1047q-73 0 -119.5 47.5t-46.5 111.5q0 65 46 114.5t118 49.5
q74 0 118.5 -49t44.5 -115q0 -65 -43.5 -112t-117.5 -47z" />
    <glyph glyph-name="Zcaron" unicode="&#x17d;" horiz-adv-x="1294" 
d="M-29 0l2 12l996 1233l-2 4l-146 8q-168 0 -327 -103t-258 -288l-11 -20h-12l111 434h1056l-4 -10l-1024 -1233v-4l140 -10q114 -8 201 10t174.5 75t171.5 153t190 251l20 33h13l-185 -545h-1106zM811 1346l-203 403h15l233 -164h6l324 164h14l-375 -403h-14z" />
    <glyph glyph-name="zcaron" unicode="&#x17e;" horiz-adv-x="888" 
d="M512 -47q-61 0 -107 32t-72.5 77.5t-46.5 90.5t-40.5 77t-44.5 32h-4l-103 -291q-55 0 -98 31t-43 80q0 64 75.5 128t170.5 77l467 338q-39 -6 -72.5 -5.5t-58.5 4t-54.5 19.5t-46.5 26.5t-47.5 40.5t-45 45.5t-51.5 57.5q-2 2 -3 3.5t-3 3t-3 3.5q-3 5 -42 -37
q-54 -58 -30 -59q63 0 99 -40t36 -95q0 -51 -37.5 -84t-93.5 -33q-60 0 -93.5 44.5t-33.5 96.5q0 54 46 110.5t110 95.5t122 65.5t91 32.5q56 0 98 -28.5t63.5 -69.5t35 -81.5t23 -68t17.5 -25.5l2 2l80 269q51 -2 98.5 -32.5t47.5 -72.5q0 -78 -61 -126.5t-154 -63.5
l-465 -336q130 24 238 -46.5t190 -209.5q2 -5 35 35q64 78 64 100q0 5 -5 4q-81 -11 -121.5 29t-40.5 100q0 50 36.5 84.5t84.5 34.5q65 0 97 -45t32 -99q0 -71 -52 -144t-131 -121.5t-155 -55.5zM547 983l-203 403h14l234 -163h6l324 163h14l-375 -403h-14z" />
    <glyph glyph-name="florin" unicode="&#x192;" horiz-adv-x="1234" 
d="M270 -145q-131 0 -204.5 46t-73.5 128q0 58 40 99.5t111 41.5q42 0 77 -24t52 -60.5t3 -86t-64 -93.5q53 -33 78 -33q21 0 38 11.5t33.5 42.5t31.5 74.5t33.5 119t36.5 163.5t44 220l39 209l-223 2l53 119h200q3 9 14.5 50t17.5 59.5t18.5 56.5t22.5 61t23.5 52t28.5 51
t31 38q105 105 338 105q114 0 183 -53t69 -130q0 -64 -39 -102.5t-98 -38.5q-58 0 -95.5 32t-43.5 75t22.5 88t89.5 69q-49 41 -82 41q-23 0 -43 -14t-37.5 -46.5t-30.5 -65.5t-28 -94t-25 -106.5t-26 -125.5l241 -2l-32 -115h-234l-74 -301q-80 -294 -231 -445
q-118 -118 -285 -118z" />
    <glyph glyph-name="Aringacute" unicode="&#x1fa;" horiz-adv-x="1335" 
d="M664 535h-291l-99 -185q-15 -27 -42 -73q-48 -82 -64 -114t-30 -67.5t5 -45.5t44.5 -18.5t86.5 -15.5l35 -4l2 -12h-432l6 12l39 4q40 4 62 8t49.5 19.5t43 32.5t45.5 61.5t55 90t73 134.5l493 924q-71 55 -71 152q0 76 50 130t132 54t132 -54t50 -130
q0 -61 -30.5 -107.5t-85.5 -66.5l102 -975q16 -111 40 -171t51.5 -79.5t72.5 -22.5l53 -4v-12h-696l8 12l47 4q73 6 90.5 39t5.5 127zM856 1272q73 0 117.5 48t44.5 118q0 69 -44.5 117.5t-117.5 48.5t-117.5 -48.5t-44.5 -117.5q0 -70 44.5 -118t117.5 -48zM387 561h275
l-39 434h-5zM686 1630l289 383h285l-568 -383h-6z" />
    <glyph glyph-name="aringacute" unicode="&#x1fb;" horiz-adv-x="1099" 
d="M717 1020q-82 0 -132 53t-50 131q0 77 50 131t132 54t132 -54t50 -131q0 -78 -50 -131t-132 -53zM754 -27q-38 0 -107 70.5t-69 106.5q0 41 16.5 93t75.5 201h-4q-72 -132 -118 -207t-98.5 -140.5t-101 -92.5t-104.5 -27q-99 0 -164.5 63t-65.5 159q0 121 76.5 266.5
t208.5 277.5q177 177 319 177q53 0 85.5 -39t37.5 -99t-10 -133h6l101 248l268 -8l-168 -438l-109 -295l109 -11l133 213l12 -6q-72 -155 -170.5 -267t-158.5 -112zM717 1038q73 0 117.5 48t44.5 118q0 69 -44.5 117.5t-117.5 48.5t-117.5 -48.5t-44.5 -117.5
q0 -70 44.5 -118t117.5 -48zM367 133q60 0 123 67t145 234q67 132 67 170q0 83 -46.5 153t-100.5 70q-13 0 -47 -30q-70 -71 -141.5 -249.5t-71.5 -303.5q0 -111 72 -111zM551 1411l289 383h284l-567 -383h-6z" />
    <glyph glyph-name="AEacute" unicode="&#x1fc;" horiz-adv-x="1861" 
d="M801 535h-342l-146 -183q-26 -33 -70 -89q-108 -133 -125 -168q-20 -42 13 -58q24 -11 107 -21l34 -4l7 -12h-437l6 12l37 4q40 4 63.5 8t54.5 20.5t50.5 32.5t61 61.5t76.5 89t106 132.5l637 801q37 47 12 72t-131 31l-76 4l-2 12h1086l-2 -434h-17l-6 22
q-24 98 -60 169.5t-77.5 115t-95.5 68t-108.5 32t-121.5 4.5l-53 -4l-125 -587l84 2q223 12 295 200l18 45h15l-123 -540h-14l4 45q0 57 -8.5 94.5t-32.5 66.5t-68 44.5t-113 19.5l-61 4l-131 -618l152 -11q187 3 340 100.5t251 295.5l13 22h16l-133 -436h-1176
q-1 0 1.5 4.5t5.5 9.5l2 4l102 9q102 8 106 32zM479 561h328l115 549h-4zM1257 1366l289 383h285l-567 -383h-7z" />
    <glyph glyph-name="aeacute" unicode="&#x1fd;" horiz-adv-x="1445" 
d="M244 -23q-99 0 -164.5 63t-65.5 159q0 121 76.5 266.5t208.5 277.5q177 177 319 177q76 0 111 -80t16 -185q80 120 202.5 191.5t271.5 71.5q109 0 176 -56t67 -131q0 -56 -31 -96t-102 -69.5t-160 -50t-233 -42.5q-14 -74 -14 -164q0 -94 37.5 -141t119.5 -47
q84 0 153 45.5t130 167.5l18 -8q-94 -194 -197.5 -270t-230.5 -76q-132 0 -225.5 88t-93.5 231q0 59 4 88q-48 -86 -84 -145.5t-76 -113t-75.5 -84.5t-75.5 -49t-82 -18zM944 496q150 39 223.5 100t73.5 168q0 56 -22 90.5t-58 34.5q-29 0 -65 -33q-47 -47 -90 -145
t-66 -213zM367 133q60 0 123 67t145 234q67 132 67 170q0 83 -46.5 153t-100.5 70q-13 0 -47 -30q-70 -70 -141.5 -249t-71.5 -304q0 -111 72 -111zM737 1006l289 383h285l-568 -383h-6z" />
    <glyph glyph-name="Oslashacute" unicode="&#x1fe;" horiz-adv-x="1529" 
d="M1251 1182q122 -90 191 -228t69 -295q0 -106 -33.5 -207.5t-99 -188t-154.5 -152t-208 -103t-252 -37.5q-214 0 -377 109l-180 -230h-27l191 242q-117 87 -182.5 220.5t-65.5 289.5q0 133 54 259.5t148 224.5t233 157.5t298 59.5q215 0 377 -111l172 219h27zM465 213
l686 874q-33 91 -99 140t-163 49q-73 0 -137.5 -46t-111 -123t-83.5 -174t-59 -204t-33.5 -207t-11.5 -188q0 -66 12 -121zM1159 1063q-686 -875 -688 -877q28 -91 94.5 -141.5t165.5 -50.5q96 0 180.5 76t142.5 201.5t92 291t34 340.5q0 89 -21 160zM866 1366l289 383h285
l-568 -383h-6z" />
    <glyph glyph-name="oslashacute" unicode="&#x1ff;" horiz-adv-x="913" 
d="M141 72q-112 112 -112 301q0 134 71.5 261t185.5 205.5t232 78.5q120 0 219 -89l279 357h26l-290 -371q127 -124 127 -317q0 -130 -70.5 -252.5t-185.5 -197.5t-238 -75q-133 0 -227 84l-252 -319h-27zM645 678l-385 -490q-2 -16 -2 -41q0 -68 22.5 -107.5t61.5 -39.5
q120 0 227 328q60 187 76 350zM264 227l383 488v20q0 76 -23 115t-59 39q-50 0 -114 -87t-123 -272q-49 -148 -64 -303zM518 985l289 383h285l-568 -383h-6z" />
    <glyph glyph-name="Scommaaccent" unicode="&#x218;" horiz-adv-x="1093" 
d="M528 -27q-250 0 -462 131l26 349l8 -2l74 -205q44 -126 127 -190t221 -64q118 0 187 76.5t69 181.5q0 30 -8 57t-19.5 48t-34 43.5t-40 37t-50.5 35.5t-52.5 31.5l-58.5 31.5q-9 5 -13 7q-64 36 -110.5 67.5t-95.5 77.5t-75 102.5t-26 120.5q0 157 129 275.5t313 118.5
q151 0 315 -89l138 27l-62 -371h-6l-154 340q-26 26 -84.5 48t-117.5 22q-95 0 -161.5 -66t-66.5 -149q0 -36 15 -69t35.5 -57t59.5 -50.5t69.5 -44t82.5 -43.5q52 -28 90.5 -51.5t84 -61t74.5 -75.5t49 -91.5t20 -113.5q0 -83 -36 -161.5t-99 -139t-156 -97.5t-199 -37z
M252 -565l-6 10q196 23 221 149q13 67 -49.5 100.5t-138.5 2.5q-6 83 52.5 140.5t153.5 47.5q93 -10 132 -74t20 -143q-21 -92 -118.5 -159t-266.5 -74z" />
    <glyph glyph-name="scommaaccent" unicode="&#x219;" horiz-adv-x="798" 
d="M322 -27q-143 0 -235 55t-93 154q0 67 39 114.5t102 47.5q46 0 79 -33.5t36 -83.5q1 -40 -15 -64.5t-61 -56.5q2 -31 51.5 -74.5t126.5 -43.5q64 0 108 43.5t44 105.5q0 16 -6 32.5t-20.5 35t-27 33t-38 37t-39.5 34.5t-45.5 38t-44.5 36q-78 65 -118 123t-40 127
q0 117 102 202t244 85q122 0 215.5 -53.5t93.5 -131.5q0 -65 -36.5 -109t-92.5 -44q-57 0 -94 37t-37 92q0 61 70 106q-1 2 -7.5 15.5t-14.5 23.5t-21.5 22.5t-36.5 19.5t-53 7q-53 0 -95.5 -45t-42.5 -102q0 -29 24.5 -63.5t48 -55.5t73.5 -60.5t63 -50.5
q177 -151 177 -266q0 -121 -112 -205t-271 -84zM68 -565l-7 10q197 23 222 149q13 67 -50 100.5t-139 2.5q-6 83 53 140.5t154 47.5q93 -10 132 -74t20 -143q-21 -92 -118.5 -159t-266.5 -74z" />
    <glyph glyph-name="uni021A" unicode="&#x21a;" horiz-adv-x="1409" 
d="M274 0l7 12l84 8q98 8 102 33l254 1211h-27q-208 -13 -483 -385l-25 -33h-12l148 434h1144l-59 -432h-8l-10 31q-17 56 -33 99t-44.5 99t-59.5 93t-76 64.5t-97 29.5h-30l-258 -1217q-1 -6 2 -9t14.5 -6.5t33 -6.5t60.5 -7l57 -6l3 -12h-687zM362 -565l-6 10
q197 23 222 149q13 67 -50 100.5t-139 2.5q-6 83 53 140.5t154 47.5q93 -10 132 -74t20 -143q-21 -92 -118.5 -159t-267.5 -74z" />
    <glyph glyph-name="uni021B" unicode="&#x21b;" horiz-adv-x="675" 
d="M299 -27q-83 0 -170 63t-84 114q3 32 69 248t115 364l-166 2l54 121h153l99 258h260l-82 -256l188 -2l-33 -117h-194l-203 -610l180 -11l123 213l15 -6q-80 -173 -163.5 -277t-160.5 -104zM-43 -565l-6 10q196 23 221 149q13 67 -49.5 100.5t-138.5 2.5q-6 83 52.5 140.5
t153.5 47.5q93 -10 132 -74t20 -143q-21 -92 -118.5 -159t-266.5 -74z" />
    <glyph glyph-name="dotlessj" unicode="&#x237;" horiz-adv-x="583" 
d="M-260 -510q-65 0 -118.5 44t-53.5 118q0 58 39 99.5t110 41.5q46 0 79.5 -32.5t43.5 -76.5t-11.5 -93.5t-74.5 -79.5l105 28q49 48 85 134t91 264l270 800l-125 8l-129 -210l-12 6q73 156 166.5 266.5t152.5 110.5q37 0 123 -56t86 -100q0 -52 -111.5 -346.5
t-195.5 -464.5q-97 -193 -215 -311q-147 -150 -305 -150z" />
    <glyph glyph-name="circumflex" unicode="&#x2c6;" horiz-adv-x="757" 
d="M199 983l372 403h17l203 -403h-15l-235 164h-4l-324 -164h-14z" />
    <glyph glyph-name="caron" unicode="&#x2c7;" horiz-adv-x="757" 
d="M485 983l-202 403h14l233 -163h7l323 163h14l-374 -403h-15z" />
    <glyph glyph-name="breve" unicode="&#x2d8;" horiz-adv-x="839" 
d="M547 995q-230 0 -230 373h17q23 -182 237 -182q101 0 191.5 42.5t142.5 139.5h19q-78 -187 -166.5 -280t-210.5 -93z" />
    <glyph glyph-name="dotaccent" unicode="&#x2d9;" horiz-adv-x="872" 
d="M600 1047q-73 0 -119.5 47.5t-46.5 111.5q0 65 46 114.5t118 49.5q74 0 119 -49t45 -115q0 -65 -43.5 -112t-118.5 -47z" />
    <glyph glyph-name="ring" unicode="&#x2da;" horiz-adv-x="757" 
d="M545 1020q-82 0 -132.5 53.5t-50.5 130.5q0 76 50.5 130.5t132.5 54.5t132 -54t50 -131q0 -78 -50 -131t-132 -53zM545 1038q73 0 117.5 48t44.5 118q0 69 -44.5 117.5t-117.5 48.5t-117.5 -48.5t-44.5 -117.5q0 -70 44.5 -118t117.5 -48z" />
    <glyph glyph-name="ogonek" unicode="&#x2db;" horiz-adv-x="864" 
d="M246 -494q-75 0 -124.5 52t-49.5 129q0 63 37 120t100.5 101t141 77t165.5 54h25q-84 -25 -147 -62.5t-96.5 -79.5t-49 -81.5t-15.5 -77.5q0 -63 36 -96t104 -33q41 0 71 16.5t68 50.5l4 -4q-41 -67 -109 -116.5t-161 -49.5z" />
    <glyph glyph-name="tilde" unicode="&#x2dc;" horiz-adv-x="837" 
d="M721 1018q-56 0 -136 33t-153.5 65.5t-112.5 32.5q-15 0 -25 -2.5t-24 -12.5t-26.5 -34.5t-24.5 -63.5q-8 0 -12 -2q45 173 88 231t133 58q44 0 103.5 -20.5t107.5 -45t100 -45t84 -20.5q15 0 25.5 2.5t25.5 12.5t28.5 34.5t25.5 63.5q8 0 12 2q-47 -175 -88.5 -232
t-130.5 -57z" />
    <glyph glyph-name="hungarumlaut" unicode="&#x2dd;" horiz-adv-x="993" 
d="M666 1006l284 383h281l-557 -383h-8zM260 1006l285 383h276l-557 -383h-4z" />
    <glyph glyph-name="Wgrave" unicode="&#x1e80;" horiz-adv-x="2052" 
d="M573 -33l-211 1045q-22 109 -40 159t-41 69.5t-66 23.5l-35 4l-2 12h664l-8 -12l-62 -2q-56 -2 -81.5 -13.5t-27 -31.5t4.5 -50l147 -768l4 -2l330 547l-10 68q-22 141 -50 192t-85 56l-56 4l-2 12h694l-8 -12l-57 -2q-80 -3 -104 -26t-15 -91l107 -733h4l295 520
q15 27 43 75q91 143 86 191.5t-142 61.5l-41 4l-2 12h441l-9 -12l-28 -4q-30 -4 -49 -7t-40 -12t-32 -13.5t-29.5 -23.5t-26.5 -29t-29 -43.5t-32.5 -53t-41.5 -71.5t-50 -87l-545 -957h-26l-154 944h-4l-567 -944h-11zM1389 1366l-420 383h262l170 -383h-12z" />
    <glyph glyph-name="wgrave" unicode="&#x1e81;" horiz-adv-x="1308" 
d="M248 -27q-92 0 -141.5 48.5t-49.5 130.5q0 62 41 143.5t87 140t110.5 134t79.5 96.5l-262 16l-76 -147l-14 6q40 86 73 150t67.5 120t64 85.5t53.5 29.5q26 0 77 -10.5t91.5 -23.5t37.5 -20q-4 -8 -30.5 -66.5t-46 -106t-44 -115t-38 -132t-13.5 -118.5
q0 -75 27.5 -111.5t85.5 -36.5q41 0 84 27.5t77.5 67.5t74.5 104.5t67.5 116.5t63.5 127q1 2 -5 5.5t-16.5 7.5t-24 11t-28 15t-28.5 20t-25 25.5t-18 32.5t-7 40q0 56 39 95t94 39q59 0 100.5 -39.5t41.5 -92.5q0 -39 -17.5 -75t-40.5 -62t-52.5 -73t-47.5 -99
q-23 -67 -23 -112q0 -90 56.5 -135.5t152.5 -45.5q72 0 133.5 46.5t100.5 118t58.5 158t14.5 167.5q-39 -32 -95 -34.5t-100 33.5t-44 103q0 60 38.5 101t92.5 41q75 0 117.5 -56.5t42.5 -154.5q0 -151 -84.5 -336t-196.5 -297q-100 -103 -193 -103q-88 0 -134 58t-46 127
q0 87 76 278q-46 -87 -97.5 -163.5t-113.5 -147t-132 -111.5t-136 -41zM858 1006l-420 383h262l170 -383h-12z" />
    <glyph glyph-name="Wacute" unicode="&#x1e82;" horiz-adv-x="2052" 
d="M573 -33l-211 1045q-22 109 -40 159t-41 69.5t-66 23.5l-35 4l-2 12h664l-8 -12l-62 -2q-56 -2 -81.5 -13.5t-27 -31.5t4.5 -50l147 -768l4 -2l330 547l-10 68q-22 141 -50 192t-85 56l-56 4l-2 12h694l-8 -12l-57 -2q-80 -3 -104 -26t-15 -91l107 -733h4l295 520
q15 27 43 75q91 143 86 191.5t-142 61.5l-41 4l-2 12h441l-9 -12l-28 -4q-30 -4 -49 -7t-40 -12t-32 -13.5t-29.5 -23.5t-26.5 -29t-29 -43.5t-32.5 -53t-41.5 -71.5t-50 -87l-545 -957h-26l-154 944h-4l-567 -944h-11zM1090 1366l288 383h285l-567 -383h-6z" />
    <glyph glyph-name="wacute" unicode="&#x1e83;" horiz-adv-x="1308" 
d="M248 -27q-92 0 -141.5 48.5t-49.5 130.5q0 62 41 143.5t87 140t110.5 134t79.5 96.5l-262 16l-76 -147l-14 6q40 86 73 150t67.5 120t64 85.5t53.5 29.5q26 0 77 -10.5t91.5 -23.5t37.5 -20q-4 -8 -30.5 -66.5t-46 -106t-44 -115t-38 -132t-13.5 -118.5
q0 -75 27.5 -111.5t85.5 -36.5q41 0 84 27.5t77.5 67.5t74.5 104.5t67.5 116.5t63.5 127q1 2 -5 5.5t-16.5 7.5t-24 11t-28 15t-28.5 20t-25 25.5t-18 32.5t-7 40q0 56 39 95t94 39q59 0 100.5 -39.5t41.5 -92.5q0 -39 -17.5 -75t-40.5 -62t-52.5 -73t-47.5 -99
q-23 -67 -23 -112q0 -90 56.5 -135.5t152.5 -45.5q72 0 133.5 46.5t100.5 118t58.5 158t14.5 167.5q-39 -32 -95 -34.5t-100 33.5t-44 103q0 60 38.5 101t92.5 41q75 0 117.5 -56.5t42.5 -154.5q0 -151 -84.5 -336t-196.5 -297q-100 -103 -193 -103q-88 0 -134 58t-46 127
q0 87 76 278q-46 -87 -97.5 -163.5t-113.5 -147t-132 -111.5t-136 -41zM754 1006l288 383h285l-567 -383h-6z" />
    <glyph glyph-name="Wdieresis" unicode="&#x1e84;" horiz-adv-x="2052" 
d="M573 -33l-211 1045q-22 109 -40 159t-41 69.5t-66 23.5l-35 4l-2 12h664l-8 -12l-62 -2q-56 -2 -81.5 -13.5t-27 -31.5t4.5 -50l147 -768l4 -2l330 547l-10 68q-22 141 -50 192t-85 56l-56 4l-2 12h694l-8 -12l-57 -2q-80 -3 -104 -26t-15 -91l107 -733h4l295 520
q15 27 43 75q91 143 86 191.5t-142 61.5l-41 4l-2 12h441l-9 -12l-28 -4q-30 -4 -49 -7t-40 -12t-32 -13.5t-29.5 -23.5t-26.5 -29t-29 -43.5t-32.5 -53t-41.5 -71.5t-50 -87l-545 -957h-26l-154 944h-4l-567 -944h-11zM1495 1384q-59 0 -96 38.5t-37 90.5q0 54 37 94t96 40
q60 0 96.5 -40t36.5 -94q0 -52 -36.5 -90.5t-96.5 -38.5zM1069 1384q-59 0 -96 38.5t-37 90.5q0 54 37 94t96 40q60 0 96.5 -40t36.5 -94q0 -52 -36.5 -90.5t-96.5 -38.5z" />
    <glyph glyph-name="wdieresis" unicode="&#x1e85;" horiz-adv-x="1308" 
d="M248 -27q-92 0 -141.5 48.5t-49.5 130.5q0 62 41 143.5t87 140t110.5 134t79.5 96.5l-262 16l-76 -147l-14 6q40 86 73 150t67.5 120t64 85.5t53.5 29.5q26 0 77 -10.5t91.5 -23.5t37.5 -20q-4 -8 -30.5 -66.5t-46 -106t-44 -115t-38 -132t-13.5 -118.5
q0 -75 27.5 -111.5t85.5 -36.5q41 0 84 27.5t77.5 67.5t74.5 104.5t67.5 116.5t63.5 127q1 2 -5 5.5t-16.5 7.5t-24 11t-28 15t-28.5 20t-25 25.5t-18 32.5t-7 40q0 56 39 95t94 39q59 0 100.5 -39.5t41.5 -92.5q0 -39 -17.5 -75t-40.5 -62t-52.5 -73t-47.5 -99
q-23 -67 -23 -112q0 -90 56.5 -135.5t152.5 -45.5q72 0 133.5 46.5t100.5 118t58.5 158t14.5 167.5q-39 -32 -95 -34.5t-100 33.5t-44 103q0 60 38.5 101t92.5 41q75 0 117.5 -56.5t42.5 -154.5q0 -151 -84.5 -336t-196.5 -297q-100 -103 -193 -103q-88 0 -134 58t-46 127
q0 87 76 278q-46 -87 -97.5 -163.5t-113.5 -147t-132 -111.5t-136 -41zM1079 1024q-59 0 -96 38.5t-37 90.5q0 54 37 93.5t96 39.5q60 0 96.5 -39.5t36.5 -93.5q0 -52 -36.5 -90.5t-96.5 -38.5zM653 1024q-59 0 -96 38.5t-37 90.5q0 54 37 93.5t96 39.5q60 0 96.5 -39.5
t36.5 -93.5q0 -52 -36.5 -90.5t-96.5 -38.5z" />
    <glyph glyph-name="thinspace" unicode="&#x2009;" horiz-adv-x="122" 
 />
    <glyph glyph-name="endash" unicode="&#x2013;" horiz-adv-x="872" 
d="M12 451l19 59h839l-6 -59h-852z" />
    <glyph glyph-name="emdash" unicode="&#x2014;" horiz-adv-x="1835" 
d="M12 451l19 59h1802l-6 -59h-1815z" />
    <glyph glyph-name="quoteleft" unicode="&#x2018;" horiz-adv-x="425" 
d="M299 737q-86 0 -129 55.5t-43 131.5q0 119 115 230.5t299 154.5l4 -9q-258 -92 -258 -251q0 -68 46.5 -108.5t117.5 -55.5q0 -62 -42.5 -105t-109.5 -43z" />
    <glyph glyph-name="quoteright" unicode="&#x2019;" horiz-adv-x="425" 
d="M135 760l-4 8q258 92 258 252q0 68 -46.5 108.5t-117.5 55.5q0 62 42.5 104.5t109.5 42.5q86 0 129 -55t43 -131q0 -119 -115 -230.5t-299 -154.5z" />
    <glyph glyph-name="quotesinglbase" unicode="&#x201a;" horiz-adv-x="425" 
d="M-80 -256l-4 8q258 92 258 252q0 68 -46.5 108.5t-117.5 55.5q0 62 42.5 104.5t109.5 42.5q86 0 129 -55t43 -131q0 -119 -115 -230.5t-299 -154.5z" />
    <glyph glyph-name="quotedblleft" unicode="&#x201c;" horiz-adv-x="833" 
d="M707 737q-86 0 -129 55.5t-43 131.5q0 119 114.5 230.5t298.5 154.5l4 -9q-258 -92 -258 -251q0 -68 46.5 -108.5t117.5 -55.5q0 -62 -42 -105t-109 -43zM299 737q-86 0 -129 55.5t-43 131.5q0 119 115 230.5t299 154.5l4 -9q-258 -92 -258 -251q0 -68 46.5 -108.5
t117.5 -55.5q0 -62 -42.5 -105t-109.5 -43z" />
    <glyph glyph-name="quotedblright" unicode="&#x201d;" horiz-adv-x="833" 
d="M543 760l-4 8q258 92 258 252q0 68 -46.5 108.5t-117.5 55.5q0 62 42 104.5t109 42.5q86 0 129 -55t43 -131q0 -119 -114.5 -230.5t-298.5 -154.5zM135 760l-4 8q258 92 258 252q0 68 -46.5 108.5t-117.5 55.5q0 62 42.5 104.5t109.5 42.5q86 0 129 -55t43 -131
q0 -119 -115 -230.5t-299 -154.5z" />
    <glyph glyph-name="quotedblbase" unicode="&#x201e;" horiz-adv-x="833" 
d="M328 -256l-4 8q258 92 258 252q0 68 -46.5 108.5t-117.5 55.5q0 62 42 104.5t109 42.5q86 0 129 -55t43 -131q0 -119 -114.5 -230.5t-298.5 -154.5zM-80 -256l-4 8q258 92 258 252q0 68 -46.5 108.5t-117.5 55.5q0 62 42.5 104.5t109.5 42.5q86 0 129 -55t43 -131
q0 -119 -115 -230.5t-299 -154.5z" />
    <glyph glyph-name="dagger" unicode="&#x2020;" horiz-adv-x="886" 
d="M270 -319l248 1167h-414l2 20h416l88 412h23l-88 -412h416l-7 -20h-413l-248 -1167h-23z" />
    <glyph glyph-name="daggerdbl" unicode="&#x2021;" horiz-adv-x="886" 
d="M270 -319l84 393h-415l6 20h413l164 770h-413l2 21h415l84 395h23l-84 -395h416l-7 -21h-413l-164 -770h414l-2 -20h-416l-84 -393h-23z" />
    <glyph glyph-name="bullet" unicode="&#x2022;" horiz-adv-x="870" 
d="M440 80q-43 0 -144.5 43t-129.5 74q-31 33 -74 133.5t-43 144.5t43 146t74 133t132 72.5t144 41.5q44 0 145 -41.5t132 -72.5t73 -133t42 -146q0 -45 -41.5 -145.5t-73.5 -132.5q-30 -32 -132 -74.5t-147 -42.5z" />
    <glyph glyph-name="ellipsis" unicode="&#x2026;" horiz-adv-x="1388" 
d="M1090 -23q-61 0 -105.5 45t-44.5 109q0 60 45 105t105 45q59 0 103 -45.5t46 -104.5q1 -62 -43.5 -108t-105.5 -46zM627 -23q-61 0 -105.5 45t-44.5 109q0 60 45 105t105 45q59 0 103 -45.5t46 -104.5q1 -62 -43.5 -108t-105.5 -46zM166 -23q-62 0 -107 45t-45 109
q0 60 45 105t105 45q59 0 103 -45.5t46 -104.5q1 -62 -43.5 -108t-103.5 -46z" />
    <glyph glyph-name="perthousand" unicode="&#x2030;" horiz-adv-x="1714" 
d="M397 791q-115 0 -184.5 75t-69.5 183q0 109 69.5 185.5t184.5 76.5q116 0 186 -76.5t70 -185.5q0 -108 -70 -183t-186 -75zM-8 -29l1196 1340h26l-1196 -1340h-26zM1401 -27q-115 0 -184.5 74.5t-69.5 181.5q0 110 69.5 187.5t184.5 77.5q116 0 186 -77.5t70 -187.5
q0 -107 -70 -181.5t-186 -74.5zM813 -27q-115 0 -184.5 74.5t-69.5 181.5q0 110 69.5 187.5t184.5 77.5q116 0 186 -77.5t70 -187.5q0 -107 -70 -181.5t-186 -74.5zM397 811q104 0 168 68t64 170q0 101 -64.5 171t-167.5 70t-166 -70t-63 -171q0 -102 63 -170t166 -68z
M1401 -6q104 0 167.5 67.5t63.5 169.5q0 101 -64 171.5t-167 70.5t-166.5 -70.5t-63.5 -171.5q0 -102 63 -169.5t167 -67.5zM813 -6q104 0 167.5 67.5t63.5 169.5q0 101 -64 171.5t-167 70.5t-166 -70t-63 -172t62.5 -169.5t166.5 -67.5z" />
    <glyph glyph-name="guilsinglleft" unicode="&#x2039;" horiz-adv-x="585" 
d="M463 63l-438 383l8 39l594 357l4 -6l-312 -402l152 -360z" />
    <glyph glyph-name="guilsinglright" unicode="&#x203a;" horiz-adv-x="587" 
d="M-37 63l-4 7l315 403l-155 358l8 11l438 -381l-8 -35z" />
    <glyph glyph-name="fraction" unicode="&#x2044;" horiz-adv-x="940" 
d="M-121 -27l1239 1340h31l-1241 -1340h-29z" />
    <glyph glyph-name="zerosuperior" unicode="&#x2070;" horiz-adv-x="751" 
d="M367 504q-134 0 -214.5 98t-80.5 232q0 65 16 131t49.5 127.5t80 109.5t111.5 76.5t140 28.5q138 0 219.5 -91.5t81.5 -226.5q0 -64 -17.5 -131.5t-52.5 -130.5t-82 -113t-112.5 -80t-138.5 -30zM330 520q24 0 49.5 29t54.5 92.5t60 179t61 273.5q17 91 1 143.5t-62 52.5
q-24 0 -51 -36t-56.5 -108t-60.5 -195.5t-58 -284.5q-12 -70 6 -108t56 -38z" />
    <glyph glyph-name="foursuperior" unicode="&#x2074;" horiz-adv-x="772" 
d="M354 518l29 156h-348l4 24l579 613h144l-109 -496h127l-92 -141h-67l-29 -156h-238zM485 1151l-323 -336h252z" />
    <glyph glyph-name="fivesuperior" unicode="&#x2075;" horiz-adv-x="591" 
d="M217 465q-111 -7 -179.5 35.5t-68.5 97.5q0 66 35.5 104.5t87.5 40.5q42 2 73.5 -17.5t41.5 -48.5t-11.5 -65t-76.5 -63q7 -26 34.5 -46.5t65.5 -17.5q77 6 122.5 51t45.5 109q0 94 -86.5 136.5t-253.5 29.5l217 479h381l-16 -207h-445l-37 -77q244 12 351.5 -38.5
t107.5 -162.5q0 -129 -116 -225.5t-273 -114.5z" />
    <glyph glyph-name="sixsuperior" unicode="&#x2076;" horiz-adv-x="813" 
d="M391 489q-151 0 -242.5 94.5t-91.5 233.5q0 161 108.5 283t292.5 176t398 24l-2 -8q-164 14 -280.5 -70t-182.5 -235v-2q83 27 144 27q104 0 169.5 -53t65.5 -150q0 -60 -25 -116t-71 -102t-119.5 -74t-163.5 -28zM352 506q47 0 85.5 65t55.5 136.5t17 119.5
q0 84 -24 113t-74 29q-19 0 -29 -2q-72 -178 -72 -379q0 -82 41 -82z" />
    <glyph glyph-name="sevensuperior" unicode="&#x2077;" horiz-adv-x="659" 
d="M82 518l532 569v5h-364q-84 0 -119.5 -33t-48.5 -90l-4 -13l-12 5l114 331h547l-2 -14l-397 -760h-246z" />
    <glyph glyph-name="eightsuperior" unicode="&#x2078;" horiz-adv-x="716" 
d="M358 502q-125 0 -216 64.5t-91 156.5q0 47 52 83.5t151 53.5v2q-67 46 -105 98.5t-38 122.5q0 52 31.5 96.5t80 72t102.5 42.5t103 15q149 0 231 -50.5t82 -136.5q0 -56 -54.5 -86t-151.5 -45v-2q71 -50 110 -103.5t39 -133.5q0 -98 -102 -174t-224 -76zM518 1001
q66 78 66 173q0 54 -33 88t-96 34q-52 0 -82.5 -29t-30.5 -83q0 -17 4.5 -32t16 -29.5t21 -25.5t29.5 -25.5t31.5 -22.5t37 -24.5t36.5 -23.5zM340 518q50 0 86.5 30.5t36.5 94.5q0 19 -5 36.5t-17.5 34.5t-24 29.5t-33.5 29t-35.5 26t-41 28t-40.5 27.5q-41 -86 -41 -172
q0 -73 31 -118.5t84 -45.5z" />
    <glyph glyph-name="ninesuperior" unicode="&#x2079;" horiz-adv-x="784" 
d="M10 500l2 8q151 -13 261.5 58t179.5 202v2q-75 -18 -117 -16q-108 0 -174 58t-66 159q0 60 25 119t71 109t120 81t163 31q151 0 242.5 -94.5t91.5 -233.5q0 -161 -108.5 -283t-292.5 -176t-398 -24zM455 791h10q90 190 90 421q0 82 -41 82q-36 0 -67.5 -41.5t-50 -99.5
t-29.5 -112.5t-11 -88.5q0 -161 99 -161z" />
    <glyph glyph-name="plussuperior" unicode="&#x207a;" horiz-adv-x="751" 
d="M424 541l-2 358h-348l2 21l346 2l2 350h22v-350l349 -2l2 -21h-351v-358h-22z" />
    <glyph glyph-name="minussuperior" unicode="&#x207b;" horiz-adv-x="751" 
d="M737 897h-624l4 18h616z" />
    <glyph glyph-name="zeroinferior" unicode="&#x2080;" horiz-adv-x="751" 
d="M326 -266q-134 0 -214.5 97.5t-80.5 231.5q0 82 26.5 164.5t74.5 152t125.5 113.5t170.5 44q138 0 219.5 -91.5t81.5 -226.5q0 -64 -17.5 -131.5t-52.5 -130.5t-82 -113t-112.5 -80t-138.5 -30zM289 -250q24 0 49.5 29t54.5 92.5t60 179t61 273.5q17 91 1 143.5t-62 52.5
q-24 0 -51 -36t-56.5 -108t-60.5 -195.5t-58 -284.5q-12 -70 6 -108t56 -38z" />
    <glyph glyph-name="oneinferior" unicode="&#x2081;" horiz-adv-x="477" 
d="M-31 -252l-4 8h4q87 0 94 21l146 678l-94 8l4 6l336 68l-162 -762q-1 -4 14 -8t34.5 -7t35.5 -4v-8h-408z" />
    <glyph glyph-name="twoinferior" unicode="&#x2082;" horiz-adv-x="710" 
d="M-14 -252l12 111q235 141 288 179q91 66 114 128q14 37 14 88q-3 53 -40.5 83t-94.5 30q-42 0 -85 -25t-61 -63l-10 6q177 256 352 256q117 0 173.5 -57.5t56.5 -135.5q0 -46 -19 -83.5t-49 -64t-83.5 -56t-106 -54t-133 -65t-148.5 -80.5v-2h375q66 0 143 153l10 21
l8 -2l-163 -367h-553z" />
    <glyph glyph-name="threeinferior" unicode="&#x2083;" horiz-adv-x="661" 
d="M188 -285q-124 0 -191 41t-67 115q0 41 33 75t74 34q45 0 76.5 -23.5t43.5 -58.5t6 -78.5t-30 -81.5l23 -6q76 0 137 61t61 137q0 64 -44.5 109t-106.5 45q-42 0 -78 -18l-6 14q143 62 179 84q77 48 77 112q0 44 -29.5 71.5t-85.5 27.5q-45 0 -95.5 -37.5t-68.5 -81.5
l-8 6q53 123 140 201t194 78q95 0 151 -42t56 -106q0 -67 -60 -119.5t-168 -87.5v-4h11q93 -7 143.5 -54t50.5 -118q0 -118 -124 -206.5t-294 -88.5z" />
    <glyph glyph-name="fourinferior" unicode="&#x2084;" horiz-adv-x="772" 
d="M313 -252l29 156h-348l4 24l580 613h143l-109 -496h127l-92 -141h-67l-29 -156h-238zM444 381l-323 -336h252z" />
    <glyph glyph-name="fiveinferior" unicode="&#x2085;" horiz-adv-x="591" 
d="M176 -305q-111 -7 -179.5 35.5t-68.5 97.5q0 66 35.5 104.5t87.5 40.5q42 2 73.5 -17.5t41.5 -48.5t-11.5 -65t-76.5 -63q7 -26 34.5 -46.5t65.5 -17.5q77 6 122.5 51t45.5 109q0 94 -86.5 136.5t-253.5 29.5l217 479h381l-16 -207h-445l-37 -77q244 12 351.5 -38.5
t107.5 -162.5q0 -129 -116 -225.5t-273 -114.5z" />
    <glyph glyph-name="sixinferior" unicode="&#x2086;" horiz-adv-x="813" 
d="M350 -281q-151 0 -242.5 94.5t-91.5 233.5q0 161 108.5 283t292.5 176t398 24l-2 -8q-164 14 -280.5 -70t-182.5 -235v-2q83 27 144 27q104 0 169.5 -53t65.5 -150q0 -60 -25 -116t-71 -102t-119.5 -74t-163.5 -28zM311 -264q47 0 85.5 65t55.5 136.5t17 119.5
q0 84 -24 113t-74 29q-19 0 -29 -2q-72 -178 -72 -379q0 -82 41 -82z" />
    <glyph glyph-name="seveninferior" unicode="&#x2087;" horiz-adv-x="659" 
d="M41 -252l532 569v5h-364q-84 0 -119.5 -33t-48.5 -90l-4 -13l-12 4l114 332h547l-2 -14l-397 -760h-246z" />
    <glyph glyph-name="eightinferior" unicode="&#x2088;" horiz-adv-x="716" 
d="M317 -268q-125 0 -216 64.5t-91 156.5q0 47 52 83.5t151 53.5v2q-67 46 -105 98.5t-38 122.5q0 52 31.5 96.5t80 72t102.5 42.5t103 15q149 0 231 -50.5t82 -136.5q0 -56 -54.5 -86t-151.5 -45v-2q71 -50 110 -103.5t39 -133.5q0 -98 -102 -174t-224 -76zM477 231
q66 78 66 172q0 54 -33 88.5t-96 34.5q-52 0 -82.5 -29t-30.5 -83q0 -17 4.5 -32t16 -29.5t21 -25.5t29.5 -25.5t31.5 -22.5t37 -24.5t36.5 -23.5zM299 -252q50 0 86.5 30.5t36.5 94.5q0 19 -5 36.5t-17.5 34.5t-24 29.5t-33.5 29t-35.5 26t-41 28t-40.5 27.5
q-41 -86 -41 -172q0 -73 31 -118.5t84 -45.5z" />
    <glyph glyph-name="nineinferior" unicode="&#x2089;" horiz-adv-x="784" 
d="M-31 -270l2 8q151 -13 261.5 58t179.5 202v2q-75 -18 -117 -16q-108 0 -174 58t-66 159q0 60 25 119t71 109t120 81t163 31q151 0 242.5 -94.5t91.5 -233.5q0 -161 -108.5 -283t-292.5 -176t-398 -24zM414 20h10q90 190 90 422q0 82 -41 82q-36 0 -67.5 -41.5t-50 -99.5
t-29.5 -112.5t-11 -88.5q0 -162 99 -162z" />
    <glyph glyph-name="Euro" unicode="&#x20ac;" horiz-adv-x="1081" 
d="M614 -20q-111 0 -199.5 39t-145.5 108t-89.5 157.5t-40.5 192.5h-131l6 21h123q0 6 1 20.5t1 20.5q0 105 27 204h-100l6 21h102q77 228 273.5 380t437.5 152q135 0 220 -70.5t85 -166.5q0 -64 -46 -112t-120 -48q-63 0 -101 38t-43.5 90t24 111.5t89.5 98.5q-6 3 -16 11
t-18.5 13.5t-28.5 10t-49 4.5q-128 0 -237 -148t-150 -364h383l6 -21h-396q-14 -80 -14 -180q0 -45 2 -65h344l6 -21h-348q19 -164 104 -260t224 -96q148 0 246 131l12 -8q-85 -129 -199.5 -196.5t-249.5 -67.5z" />
    <glyph glyph-name="trademark" unicode="&#x2122;" horiz-adv-x="856" 
d="M627 958l2 7h10q25 0 30.5 6.5t8.5 36.5l6 231q-20 30 -43 33l-18 2l-2 6h141l76 -201h2l78 201h143l-2 -6l-25 -2q-24 -3 -24 -8l10 -291q0 -2 9 -3q11 -1 20 -3l16 -2l2 -7h-188v7l24 2q21 3 21 8l-4 280h-2l-113 -297h-8l-105 269q-2 2 -2 0l-4 -226q0 -24 8.5 -30
t38.5 -6h10l2 -7h-118zM352 958l-2 7l23 2q20 3 20 8v299h-8q-54 2 -100 -98l-4 -9h-9l13 113h313l10 -115h-6l-4 9q-44 100 -94 100h-17v-301q0 -2 29 -6l12 -2v-7h-176z" />
    <glyph glyph-name="minus" unicode="&#x2212;" horiz-adv-x="886" 
d="M819 473h-735l4 25h727z" />
    <glyph glyph-name="uni2215" unicode="&#x2215;" horiz-adv-x="940" 
d="M-121 -27l1239 1340h31l-1241 -1340h-29z" />
    <glyph glyph-name="approxequal" unicode="&#x2248;" horiz-adv-x="886" 
d="M250 707q-72 0 -117.5 -36t-64.5 -122h-25q34 182 207 182q43 0 100 -21.5t103.5 -47t102.5 -47t97 -21.5q72 0 118 36t65 122h24q-19 -100 -75.5 -141.5t-131.5 -41.5q-54 0 -129 34.5t-149 69t-125 34.5zM250 371q-72 0 -117.5 -36t-64.5 -122h-25q34 182 207 182
q43 0 100 -21.5t103.5 -47t102.5 -47t97 -21.5q72 0 118 36t65 122h24q-19 -100 -75.5 -141.5t-131.5 -41.5q-54 0 -129 34.5t-149 69t-125 34.5z" />
    <glyph glyph-name="notequal" unicode="&#x2260;" horiz-adv-x="876" 
d="M45 647l-6 25h450l91 317h26l-90 -317h338l-6 -25h-340l-92 -330h432l6 -24h-446l-95 -338h-26l94 338h-342l6 24h344l92 330h-436z" />
    <glyph glyph-name="lessequal" unicode="&#x2264;" horiz-adv-x="860" 
d="M838 211l-807 342v22l807 340l10 -22l-780 -326v-4l780 -330zM848 76h-817l4 24h809z" />
    <glyph glyph-name="greaterequal" unicode="&#x2265;" horiz-adv-x="860" 
d="M848 553l-807 -342l-10 22l780 330v4l-780 326l10 22l807 -340v-22zM848 76h-817l4 24h809z" />
    <glyph glyph-name="pcircle" unicode="&#x24df;" horiz-adv-x="1441" 
d="M774 -29q-182 0 -335.5 89.5t-243 244t-89.5 336.5t89.5 337t243.5 245t335 90t335 -90t243.5 -245t89.5 -337t-89.5 -336.5t-243 -244t-335.5 -89.5zM774 -8q175 0 322 87t232 236.5t85 325.5t-85 325.5t-232 237.5t-322 88t-322 -88t-232 -237.5t-85 -325.5t85 -325.5
t232 -236.5t322 -87zM451 248l4 16l45 4q57 5 57 21v688q0 6 -11.5 9t-58.5 9l-30 4l-4 17h356q358 0 358 -201q0 -101 -97.5 -163t-266.5 -62q-23 0 -51 4v-309q0 -3 2 -5t10 -4t21.5 -4t37.5 -4l43 -4l4 -16h-419zM795 608q72 0 120 55.5t48 139.5q0 92 -42 141.5
t-122 52.5l-47 -4v-379q30 -6 43 -6z" />
    <glyph glyph-name="commaaccent" unicode="&#xf6c3;" horiz-adv-x="831" 
d="M59 -565l-6 10q196 23 221 149q13 67 -49.5 100.5t-138.5 2.5q-6 83 53 140.5t154 47.5q93 -10 131.5 -73.5t19.5 -143.5q-21 -92 -118.5 -159t-266.5 -74z" />
    <glyph glyph-name="J.alt" horiz-adv-x="1107" 
d="M362 -27q-159 0 -268.5 70t-109.5 176q0 89 52 141t126 52q67 0 116.5 -44t49.5 -108q0 -68 -35.5 -109.5t-91.5 -56.5q9 -48 54.5 -75t102.5 -27q74 0 116.5 59.5t74.5 210.5l207 973q1 8 -5.5 12.5t-32 8.5t-77.5 8l-76 6l-4 12h709l-6 -12l-78 -8q-101 -11 -105 -33
l-207 -991q-9 -39 -58.5 -86t-120.5 -86.5t-161 -66t-172 -26.5z" />
    <glyph glyph-name="Jcircumflex.alt" horiz-adv-x="1107" 
d="M362 -27q-159 0 -268.5 70t-109.5 176q0 89 52 141t126 52q67 0 116.5 -44t49.5 -108q0 -68 -35.5 -109.5t-91.5 -56.5q9 -48 54.5 -75t102.5 -27q74 0 116.5 59.5t74.5 210.5l207 973q1 8 -5.5 12.5t-32 8.5t-77.5 8l-76 6l-4 12h709l-6 -12l-78 -8q-101 -11 -105 -33
l-207 -991q-9 -39 -58.5 -86t-120.5 -86.5t-161 -66t-172 -26.5zM629 1343l372 404h17l203 -404h-15l-235 164h-4l-324 -164h-14z" />
    <glyph glyph-name="zero.alt" horiz-adv-x="1171" 
d="M545 -25q-209 0 -337 123.5t-128 325.5q0 167 75.5 305t206 216.5t287.5 78.5q209 0 337 -123.5t128 -325.5q1 -167 -74.5 -305t-206.5 -216.5t-288 -78.5zM545 -8q152 0 278.5 77t199 211t71.5 295q0 194 -123 313.5t-322 119.5q-152 0 -278 -77t-198.5 -211t-72.5 -296
q0 -194 123 -313t322 -119z" />
    <glyph glyph-name="one.alt" horiz-adv-x="745" 
d="M-18 0q-1 0 1 4.5t5 9.5l2 4l39 2q60 4 82.5 9t25.5 22l187 889q1 6 -5.5 10.5t-21.5 7.5t-35.5 5t-48.5 4l-29 2l-2 18h602q1 0 -1 -4.5t-5 -8.5l-2 -5l-37 -2q-61 -3 -83 -8.5t-25 -22.5l-189 -889q-1 -6 5 -10t22.5 -7t35 -5t50.5 -5l27 -2l2 -18h-602z" />
    <glyph glyph-name="dot" horiz-adv-x="468" 
d="M242 342q-61 0 -105.5 45t-44.5 109q0 60 45 104.5t105 44.5t104.5 -45t44.5 -104q0 -63 -44.5 -108.5t-104.5 -45.5z" />
    <glyph glyph-name="ampersand.smallcap" horiz-adv-x="1271" 
d="M1087 672q72 -31 114 -86t42 -121q0 -135 -84 -247.5t-229.5 -177.5t-319.5 -65q-258 0 -396 104t-138 296q0 84 64.5 157.5t172.5 116.5q-34 52 -34 113q0 114 71 180t195 66q120 0 185.5 -79.5t49.5 -183.5l-18 5q5 55 -31.5 91t-99.5 36q-57 0 -91 -39t-34 -105
q0 -27 2 -39q20 2 59 2q66 0 105 -24.5t39 -65.5q0 -35 -40.5 -59.5t-99.5 -24.5q-143 0 -235 99q-51 -42 -51 -117q0 -157 132 -255.5t343 -98.5q198 0 328.5 90t130.5 225q0 77 -52.5 126.5t-134.5 49.5q-34 0 -76.5 -55t-42.5 -99q0 -57 27.5 -87.5t79.5 -30.5
q-44 25 -56 73t15.5 86.5t83.5 38.5q44 0 71 -29.5t27 -76.5q0 -53 -37.5 -83t-103.5 -30q-91 0 -158 64.5t-67 150.5q0 69 36.5 122.5t88.5 86.5t104 62.5t88.5 66.5t36.5 82q0 48 -37 80.5t-92 32.5q38 -10 59.5 -46.5t19.5 -75.5t-32 -70.5t-84 -31.5q-47 0 -79 32
t-32 79q0 58 44 93.5t116 35.5q101 0 174.5 -66.5t73.5 -158.5q0 -63 -45 -112.5t-148 -102.5zM512 674q18 -84 102 -84q21 0 39.5 12.5t18.5 26.5q0 22 -28 34.5t-77 12.5q-39 0 -55 -2z" />
    <glyph glyph-name="at.smallcap" horiz-adv-x="1212" 
d="M614 -162q-253 0 -413 150.5t-160 388.5q0 172 82.5 319t224 232.5t307.5 85.5q224 0 370 -137.5t146 -348.5q0 -178 -109 -308t-263 -130q-72 0 -119 41t-47 117q0 31 37 133h-2q-83 -158 -146.5 -224.5t-146.5 -66.5q-67 0 -117 45.5t-53 110.5q0 180 182 370
q124 129 246 129q63 0 90 -54.5t4 -129.5h2l88 217l213 -6l-110 -283l-72 -176q-15 -51 5 -88t81 -37q76 0 148.5 96t72.5 244q0 203 -141.5 336t-358.5 133q-162 0 -299.5 -83.5t-217 -226.5t-79.5 -310q0 -231 154.5 -376.5t400.5 -145.5q168 0 306.5 83.5t201.5 213.5
l17 -7q-65 -133 -208.5 -220t-316.5 -87zM469 209q44 0 86.5 42.5t91.5 143.5q45 93 45 123q0 58 -24 116t-45 58q-19 0 -33 -14q-50 -50 -110 -185t-60 -225q0 -27 13.5 -43t35.5 -16z" />
    <glyph glyph-name="a.smallcap" horiz-adv-x="1077" 
d="M502 385h-219l-62 -111q-18 -32 -48 -84q-18 -32 -26 -46t-18 -35t-11.5 -28.5t-1 -19.5t7 -16t18.5 -11t28 -10t41 -8l20 -4l2 -12h-329l8 12l31 4q24 3 38.5 5.5t31.5 10t26.5 12t24.5 20.5t23.5 27t26.5 40t31 51t39 68l289 510l-8 82q73 8 119 48.5t108 131.5h49
l82 -791q12 -127 39.5 -168.5t77.5 -46.5l49 -4l-2 -12h-577l10 12l31 4q52 6 62.5 25t4.5 86zM295 408h205l-19 329h-2z" />
    <glyph glyph-name="b.smallcap" horiz-adv-x="1064" 
d="M-59 0l8 12l59 6q77 8 80 25l193 905q2 9 -13 13t-73 10l-41 4v12h510q193 0 300 -57t107 -168q0 -87 -80 -148t-221 -71v-2q120 -25 186 -89t66 -155q2 -137 -110.5 -217t-352.5 -80h-618zM451 18h36q92 -2 167 85t75 202q0 89 -67 156t-154 67h-19l-100 -469zM580 543
q92 0 154.5 73.5t62.5 190.5q0 136 -150 162h-61l-92 -412q54 -14 86 -14z" />
    <glyph glyph-name="c.smallcap" horiz-adv-x="1099" 
d="M616 -12q-128 0 -232 42.5t-167.5 112t-97 153.5t-33.5 173q0 80 21.5 155t69 143.5t115 120t166 81.5t216.5 30q209 0 317 -84l105 39l-56 -313h-12l-86 260q-75 70 -192 70q-80 0 -143.5 -39.5t-102 -101.5t-63.5 -145t-34.5 -162.5t-9.5 -162.5q0 -352 256 -352
q87 0 162 55t129 158l82 150l8 -4l-71 -351l-56 2q-147 -30 -291 -30z" />
    <glyph glyph-name="d.smallcap" horiz-adv-x="1163" 
d="M-57 0l8 12l63 6q73 8 76 25l193 905q1 5 -1.5 8t-11.5 5.5t-25.5 5t-43.5 4.5l-45 4l-2 12l479 -2q236 0 374 -124t138 -324q0 -105 -45.5 -201.5t-127.5 -171.5t-207.5 -119.5t-275.5 -44.5h-546zM492 23q102 0 182 97.5t121 252t41 332.5q0 133 -49.5 195.5
t-151.5 62.5h-53l-195 -922z" />
    <glyph glyph-name="e.smallcap" horiz-adv-x="1021" 
d="M-57 0l8 12l65 6q71 8 74 25l193 905q2 9 -12.5 13t-69.5 10l-45 4l-2 12h847l-10 -348l-18 2l-2 16q-15 72 -39.5 128t-54 90t-64.5 57.5t-71 30.5t-73 9.5t-71 -5.5l-16 -6l-97 -447h62q67 2 126.5 46.5t82.5 115.5l14 43h14l-102 -453h-14l4 39q-3 46 -9 73t-21 54
t-44.5 41t-75.5 19l-37 6l-104 -473l86 -9q54 1 105.5 10t108 31.5t103.5 56t90 89t70 125.5l4 16h19l-97 -344h-927z" />
    <glyph glyph-name="f.smallcap" horiz-adv-x="956" 
d="M-57 0l8 12l59 6q77 8 80 25l193 905q1 5 -1.5 7.5t-12.5 5.5t-26 5t-46 5l-41 4l-2 12h880l-49 -348l-16 2l-2 16q-5 69 -18 121t-34 85t-44 54t-56 31t-61.5 13.5t-67.5 3.5l-104 -9l-99 -448l62 2q69 3 125.5 45.5t85.5 116.5l16 43h12l-102 -453h-14l2 35
q0 44 -5.5 75t-20 59.5t-45.5 42.5t-77 13l-39 -2l-96 -446q-1 -7 2.5 -10.5t21.5 -6.5t56 -6l51 -4v-12h-575z" />
    <glyph glyph-name="g.smallcap" horiz-adv-x="1185" 
d="M629 -27q-155 0 -278.5 61t-194 172.5t-70.5 254.5q0 162 77.5 285t212.5 188t306 65q222 0 338 -75l117 30l-56 -313h-12l-86 260q-40 37 -97 56.5t-104 19.5q-177 0 -281 -172.5t-104 -464.5q0 -163 56.5 -254.5t156.5 -91.5q55 1 78 12l78 385q1 3 -4 5.5t-17 4t-25 3
t-35.5 3.5t-41.5 5l-39 6v12h586l-6 -12l-86 -6q-16 -1 -26 -2.5t-14.5 -5t-6 -4t-1.5 -6.5l-1 -5l-68 -309l100 24v-10q-81 -47 -209 -84t-243 -37z" />
    <glyph glyph-name="h.smallcap" horiz-adv-x="1234" 
d="M-57 0l8 12l63 6q73 9 76 25l193 905q2 9 -12.5 13t-69.5 10l-45 4l-2 12h565l-8 -12l-56 -6q-72 -8 -75 -25l-95 -428h336l97 432q1 5 -1.5 7.5t-12.5 5.5t-25 5t-45 5l-37 4l-2 12h565l-8 -12l-62 -6q-75 -8 -78 -25l-192 -905q-2 -9 12.5 -13t71.5 -10l43 -4v-12h-563
l10 12l53 6q75 9 78 25l94 444h-336l-96 -448q-2 -9 12.5 -13t69.5 -10l37 -4l2 -12h-565z" />
    <glyph glyph-name="i.smallcap" horiz-adv-x="651" 
d="M-27 0l4 12l64 6q72 6 76 25l190 905q1 7 -3 10.5t-22 6.5t-55 6l-47 4l-2 12h567l-4 -12l-59 -6q-75 -8 -78 -25l-192 -905q-2 -9 12.5 -13t71.5 -10l36 -4l3 -12h-562z" />
    <glyph glyph-name="j.smallcap" horiz-adv-x="657" 
d="M-135 -305q-93 0 -145 42.5t-52 104.5q0 53 42.5 92t99.5 39q63 0 98 -45.5t22.5 -106.5t-71.5 -100q102 -19 165.5 63.5t108.5 301.5l180 862q1 7 -3 10.5t-21 6.5t-53 6l-50 4l-2 12h570l-6 -12l-62 -6q-73 -8 -76 -25l-184 -868q-12 -54 -105 -144t-225 -163.5
t-231 -73.5z" />
    <glyph glyph-name="j.smallcap.alt" horiz-adv-x="915" 
d="M313 -25q-129 0 -225 58.5t-96 152.5q0 79 45.5 122.5t109.5 43.5q60 0 105 -37.5t45 -93.5q0 -109 -104 -147q5 -39 39.5 -58.5t74.5 -19.5q51 0 78.5 43t52.5 160l162 749q1 5 -1.5 8t-11 6t-26.5 5t-49 4l-59 4l-2 12h585l-6 -12l-55 -6q-75 -8 -78 -25l-158 -754
q-9 -44 -75.5 -94t-164.5 -85.5t-186 -35.5z" />
    <glyph glyph-name="k.smallcap" horiz-adv-x="1177" 
d="M-51 0l2 12l59 6q77 9 80 25l193 905q1 5 -1.5 7.5t-12.5 5.5t-26 5t-46 5l-41 4l-4 12h563l-2 -12l-58 -6q-72 -8 -75 -25l-97 -461l277 238q156 133 167 183q8 37 -53 54q-25 7 -65 13l-25 4l-6 12h467l-2 -12l-61 -4q-23 -2 -47 -9t-43 -14t-45.5 -23.5t-42 -26
t-46.5 -34t-45 -36t-50.5 -42.5t-51.5 -43l-25 -20l183 -533q21 -61 38 -96.5t36 -52t32 -20.5t41 -7l6 -2l4 -12h-536l6 12l6 2q26 3 39.5 6t24 12.5t12 22.5t-3.5 41t-15.5 61.5t-29.5 90.5l-88 266l-62 -55l-92 -420q-2 -9 12 -13t70 -10l35 -4l8 -12h-563z" />
    <glyph glyph-name="l.smallcap" horiz-adv-x="999" 
d="M-57 0l8 12l59 6q77 8 80 25l193 905q1 5 -1.5 7.5t-12.5 5.5t-26 5t-46 5l-41 4l-2 12h577l-6 -12l-70 -6q-5 -1 -26.5 -6t-34.5 -10t-14 -9l-199 -919l78 -9q238 0 442 369l10 18h13l-84 -403h-897z" />
    <glyph glyph-name="m.smallcap" horiz-adv-x="1404" 
d="M-61 0l8 12l28 2q74 5 103.5 27.5t36.5 56.5l184 772q-11 45 -45 71.5t-74 29.5l-47 4l-2 12h451l110 -596h2l342 596h434l-8 -12l-61 -6q-75 -8 -78 -25l-193 -905q-2 -9 12.5 -13t71.5 -10l43 -4l3 -12h-578l8 12l82 6q60 5 64 25l184 872h-4l-531 -915h-28l-148 827
h-4l-168 -755q-3 -15 4.5 -25.5t39 -19.5t89.5 -13l29 -2l2 -12h-362z" />
    <glyph glyph-name="n.smallcap" horiz-adv-x="1128" 
d="M322 797l-152 -725q-3 -15 4.5 -25.5t42 -19.5t98.5 -13l25 -2l2 -12h-373l8 12l27 2q45 2 74.5 10t43 22.5t18 24.5t7.5 27l162 723q-36 72 -91 109t-91 39h-12l-2 18h481l354 -532h2l97 460q3 15 -6 26t-44 20t-98 12l-29 2l-2 12h375l-4 -12l-31 -2q-44 -2 -73 -10
t-42 -22.5t-17 -24.5t-7 -27l-203 -899h-22z" />
    <glyph glyph-name="o.smallcap" horiz-adv-x="1202" 
d="M600 -25q-148 0 -262 65.5t-174 176.5t-60 248q0 104 42 201.5t115 171.5t180.5 118.5t230.5 44.5q112 0 209.5 -40t164 -107.5t104.5 -159t38 -192.5q0 -100 -41 -194t-114.5 -168.5t-186.5 -119.5t-246 -45zM571 -4q91 0 164 102t111.5 267.5t38.5 359.5
q0 119 -46 184.5t-137 65.5q-65 0 -118.5 -56t-86.5 -140.5t-55.5 -190t-31.5 -199.5t-9 -174q0 -219 170 -219z" />
    <glyph glyph-name="p.smallcap" horiz-adv-x="1046" 
d="M-49 0l8 12l55 6q73 8 76 25l193 905q2 9 -12.5 13t-69.5 10l-37 4l-2 12h491q215 0 323.5 -73.5t108.5 -192.5q0 -139 -111.5 -214t-318.5 -75q-135 0 -178 12l-90 -405q-1 -7 2.5 -10.5t21.5 -6.5t56 -6l51 -4v-12h-567zM537 455q97 0 170 95t73 226q0 78 -38.5 132.5
t-108.5 60.5h-47l-109 -510q6 0 33 -2z" />
    <glyph glyph-name="q.smallcap" horiz-adv-x="1202" 
d="M954 -297q-93 0 -155 5.5t-124.5 22.5t-105 50t-80.5 87t-67 134q-148 49 -233 174t-85 289q0 104 42 201.5t115 171.5t180.5 118.5t230.5 44.5q112 0 209.5 -40t164 -107.5t104.5 -159t38 -192.5q0 -169 -109.5 -310.5t-300.5 -195.5q14 -57 25.5 -92.5t30 -70
t40.5 -52.5t56.5 -32.5t79 -20t106.5 -4.5v-11q-10 -1 -39 -3.5t-60.5 -4.5t-62.5 -2zM571 -4q91 0 164 102t111.5 267.5t38.5 359.5q0 119 -46 184.5t-137 65.5q-65 0 -118.5 -56t-86.5 -140.5t-55.5 -190t-31.5 -199.5t-9 -174q0 -219 170 -219z" />
    <glyph glyph-name="r.smallcap" horiz-adv-x="1138" 
d="M-49 0l8 12l55 6q73 10 76 25l193 905q2 9 -12.5 13t-69.5 10l-37 4l-2 12h528q112 0 202.5 -26.5t148 -84t57.5 -139.5q0 -96 -75.5 -151t-231.5 -54l102 -299q49 -135 74.5 -172.5t85.5 -44.5l32 -4l-2 -12h-415l-133 512q-11 0 -43 16l-105 -489q0 -2 -1 -4
q-3 -9 9 -12q16 -4 72 -7l57 -4v-12h-573zM580 535q99 0 160 71t61 162q0 84 -46.5 141.5t-138.5 57.5h-34l-86 -420q46 -12 84 -12z" />
    <glyph glyph-name="s.smallcap" horiz-adv-x="892" 
d="M434 -23q-176 0 -362 107l12 283h10l68 -183q37 -93 101 -140.5t169 -47.5q92 0 144.5 54.5t52.5 123.5q0 25 -7 47t-22 40.5t-29.5 32.5t-39.5 29.5t-42.5 24.5t-47 24t-44.5 23q-51 27 -87 51t-77.5 61t-63.5 82.5t-22 96.5q0 125 109.5 220t253.5 95q116 0 246 -69
l125 22l-47 -303h-9l-141 285q-11 14 -59.5 29.5t-89.5 15.5q-71 0 -120.5 -47.5t-49.5 -110.5q0 -20 5 -37t19.5 -33t25 -26.5t36 -26t38 -22.5t46 -24t45.5 -23q39 -21 65.5 -36.5t65 -46t62 -60.5t41 -74.5t17.5 -94.5q0 -137 -114 -239.5t-283 -102.5z" />
    <glyph glyph-name="t.smallcap" horiz-adv-x="1161" 
d="M236 0l8 12l55 6q75 8 78 25l196 928h-22q-145 -8 -381 -314l-18 -26h-15l123 356h938l-49 -352h-10l-9 27q-95 303 -235 309h-25l-200 -932q-1 -5 1.5 -8t11 -6t25 -5t44.5 -4l41 -4v-12h-557z" />
    <glyph glyph-name="u.smallcap" horiz-adv-x="1150" 
d="M598 -27q-216 0 -326 85t-110 245q0 72 14 146q7 32 18.5 85t35.5 164t39 182.5t14 67.5q1 7 -2.5 10.5t-21 6.5t-54.5 6l-39 4v12h555l-8 -12l-54 -6q-73 -7 -77 -25l-103 -489q-20 -105 -20 -168q0 -121 58.5 -171t182.5 -50q109 0 172 59.5t89 187.5l112 527
q7 34 9.5 55t-2.5 36.5t-11.5 23t-27.5 12t-39 5t-58 1.5l-29 2l-2 12h375l-6 -12l-29 -2q-34 -1 -51.5 -2t-34.5 -7t-24.5 -13t-16.5 -26t-14 -39t-14 -58q-3 -11 -4 -17l-111 -500q-75 -338 -385 -338z" />
    <glyph glyph-name="v.smallcap" horiz-adv-x="1118" 
d="M485 -2l-172 780q-19 83 -38 124.5t-36.5 53.5t-48.5 15l-38 4v12h550l-4 -12l-36 -2q-71 -3 -80.5 -28.5t14.5 -98.5l98 -490h11l223 357q95 152 104 171q25 48 3 64q-17 12 -85 23l-20 4l-2 12h329l-8 -12l-30 -4q-46 -7 -69.5 -14t-53 -34.5t-53 -62.5t-74.5 -117
l-465 -745h-19z" />
    <glyph glyph-name="w.smallcap" horiz-adv-x="1603" 
d="M455 -25l-174 803q-25 116 -47 151.5t-64 41.5l-23 4l-2 12h539l-8 -12l-47 -2q-32 -1 -51 -5.5t-25 -12t-6 -14t4 -17.5l115 -574h2l229 379l-8 49q-14 101 -37.5 144.5t-58.5 48.5l-45 4v12h579l-8 -12l-43 -2q-58 -3 -79 -17.5t-15 -52.5l78 -512h2l184 324
q18 31 49 83q15 24 22 35t17 29.5t12.5 26t6.5 20t1.5 17.5l-6.5 13t-12.5 11.5t-21 8t-29.5 7t-39 5.5l-33 4l-2 12h342l-8 -12l-25 -4q-34 -6 -52.5 -10t-39 -15t-28.5 -17.5t-26 -31t-26.5 -41t-34.5 -63.5t-47 -82l-419 -736h-25l-119 721h-2l-436 -721h-10z" />
    <glyph glyph-name="x.smallcap" horiz-adv-x="1083" 
d="M-68 0l9 12l67 4q55 2 109.5 49.5t190.5 196.5q49 54 77 84l61 68l-143 379q-7 19 -17.5 49t-15 41.5t-12.5 30t-14 25.5t-15.5 15.5t-20.5 12t-26 4.5l-53 4v12h606l-10 -12l-39 -2q-54 -3 -75 -23t-9 -55l86 -242h2l21 23q160 183 178 208q40 52 24 67q-12 10 -86 18
q-8 1 -14 2l-37 4l-2 12h389l-8 -12l-49 -4q-54 -5 -95.5 -29t-105 -86.5t-200.5 -214.5l-9 -8l156 -414q54 -139 69 -165q25 -38 58 -40l27 -2l2 -12h-576l8 12l37 2q61 3 78.5 25t-2.5 78l-96 276h-2l-72 -78q-164 -179 -182 -236q-13 -41 35 -55q18 -5 49 -8l32 -4l2 -12
h-387z" />
    <glyph glyph-name="y.smallcap" horiz-adv-x="1097" 
d="M199 0l4 12l61 6q72 6 76 25l86 414l-98 317q-38 114 -63.5 149t-86.5 48l-12 4l-2 12h573l-8 -12l-12 -2q-53 -6 -85.5 -16t-41 -18t-6.5 -15l129 -418h4l125 166q127 169 146 218q20 49 -21 65q-25 11 -90 16l-35 4l-2 12h401l-8 -12l-45 -4q-21 -2 -35.5 -4.5
t-31.5 -10.5t-27 -13t-28.5 -23t-29 -30t-35.5 -43.5t-42 -54t-54 -71.5t-65 -86l-111 -141l-96 -455q-1 -5 1.5 -7.5t12.5 -5.5t25 -5t45 -5l35 -4l2 -12h-555z" />
    <glyph glyph-name="z.smallcap" horiz-adv-x="1046" 
d="M-18 0l2 10l747 944v2l-88 11q-45 0 -103.5 -20t-122 -57.5t-125.5 -101t-104 -141.5l-8 -16h-14l96 356h846l-4 -10l-780 -944v-2l65 -11q67 -5 118 0.5t109.5 29t114.5 70t124 124.5t146 192l21 27h10l-166 -463h-884z" />
    <glyph glyph-name="fi.smallcap" horiz-adv-x="1607" 
d="M930 0l4 12l63 6q72 6 76 25l191 905q1 7 -3 10.5t-22 6.5t-55 6l-47 4l-2 12h567l-4 -12l-60 -6q-74 -8 -77 -25l-193 -905q-2 -9 12.5 -13t71.5 -10l37 -4l2 -12h-561zM-57 0l8 12l59 6q77 8 80 25l193 905q1 5 -1.5 7.5t-12.5 5.5t-26 5t-46 5l-41 4l-2 12h880
l-49 -348l-16 2l-2 16q-5 69 -18 121t-34 85t-44 54t-56 31t-61.5 13.5t-67.5 3.5l-104 -9l-99 -448l62 2q69 3 125.5 45.5t85.5 116.5l16 43h12l-102 -453h-14l2 35q0 44 -5.5 75t-20 59.5t-45.5 42.5t-77 13l-39 -2l-96 -446q-1 -7 2.5 -10.5t21.5 -6.5t56 -6l51 -4v-12
h-575z" />
    <glyph glyph-name="fl.smallcap" horiz-adv-x="1955" 
d="M899 0l8 12l60 6q77 8 80 25l192 905q1 5 -1.5 7.5t-12.5 5.5t-26 5t-46 5l-41 4l-2 12h578l-7 -12l-69 -6q-5 -1 -26.5 -6t-35 -10t-14.5 -9l-199 -919l78 -9q239 0 443 369l10 18h12l-84 -403h-897zM-57 0l8 12l59 6q77 8 80 25l193 905q1 5 -1.5 7.5t-12.5 5.5t-26 5
t-46 5l-41 4l-2 12h880l-49 -348l-16 2l-2 16q-5 69 -18 121t-34 85t-44 54t-56 31t-61.5 13.5t-67.5 3.5l-104 -9l-99 -448l62 2q69 3 125.5 45.5t85.5 116.5l16 43h12l-102 -453h-14l2 35q0 44 -5.5 75t-20 59.5t-45.5 42.5t-77 13l-39 -2l-96 -446q-1 -7 2.5 -10.5
t21.5 -6.5t56 -6l51 -4v-12h-575z" />
    <glyph glyph-name="ff.smallcap" horiz-adv-x="1912" 
d="M899 0l8 12l60 6q77 8 80 25l192 905q1 5 -1.5 7.5t-12.5 5.5t-26 5t-46 5l-41 4l-2 12h881l-49 -348l-17 2l-2 16q-5 69 -18 121t-34 85t-44 54t-56 31t-61.5 13.5t-67.5 3.5l-104 -9l-98 -448l61 2q69 3 125.5 45.5t85.5 116.5l17 43h12l-103 -453h-14l2 35
q0 35 -3 60.5t-12 52t-24.5 43t-42.5 26t-65 8.5l-39 -2l-97 -446q-1 -7 2.5 -10.5t21.5 -6.5t56 -6l52 -4v-12h-576zM-57 0l8 12l59 6q77 8 80 25l193 905q1 5 -1.5 7.5t-12.5 5.5t-26 5t-46 5l-41 4l-2 12h880l-49 -348l-16 2l-2 16q-5 69 -18 121t-34 85t-44 54t-56 31
t-61.5 13.5t-67.5 3.5l-104 -9l-99 -448l62 2q69 3 125.5 45.5t85.5 116.5l16 43h12l-102 -453h-14l2 35q0 44 -5.5 75t-20 59.5t-45.5 42.5t-77 13l-39 -2l-96 -446q-1 -7 2.5 -10.5t21.5 -6.5t56 -6l51 -4v-12h-575z" />
    <glyph glyph-name="ffi.smallcap" horiz-adv-x="2564" 
d="M899 0l8 12l60 6q77 8 80 25l192 905q1 5 -1.5 7.5t-12.5 5.5t-26 5t-46 5l-41 4l-2 12h881l-49 -348l-17 2l-2 16q-5 69 -18 121t-34 85t-44 54t-56 31t-61.5 13.5t-67.5 3.5l-104 -9l-98 -448l61 2q69 3 125.5 45.5t85.5 116.5l17 43h12l-103 -453h-14l2 35
q0 35 -3 60.5t-12 52t-24.5 43t-42.5 26t-65 8.5l-39 -2l-97 -446q-1 -7 2.5 -10.5t21.5 -6.5t56 -6l52 -4v-12h-576zM1886 0l4 12l64 6q72 6 76 25l190 905q1 7 -3 10.5t-22 6.5t-55 6l-47 4l-2 12h567l-4 -12l-59 -6q-75 -8 -78 -25l-193 -905q-2 -9 12.5 -13t71.5 -10
l37 -4l2 -12h-561zM-57 0l8 12l59 6q77 8 80 25l193 905q1 5 -1.5 7.5t-12.5 5.5t-26 5t-46 5l-41 4l-2 12h880l-49 -348l-16 2l-2 16q-5 69 -18 121t-34 85t-44 54t-56 31t-61.5 13.5t-67.5 3.5l-104 -9l-99 -448l62 2q69 3 125.5 45.5t85.5 116.5l16 43h12l-102 -453h-14
l2 35q0 44 -5.5 75t-20 59.5t-45.5 42.5t-77 13l-39 -2l-96 -446q-1 -7 2.5 -10.5t21.5 -6.5t56 -6l51 -4v-12h-575z" />
    <glyph glyph-name="ffl.smallcap" horiz-adv-x="2912" 
d="M1855 0l9 12l59 6q77 8 80 25l192 905q1 5 -1.5 7.5t-12.5 5.5t-26 5t-46 5l-41 4l-2 12h578l-6 -12l-70 -6q-5 -1 -26.5 -6t-35 -10t-14.5 -9l-198 -919l78 -9q238 0 442 369l10 18h12l-83 -403h-898zM899 0l8 12l60 6q77 8 80 25l192 905q1 5 -1.5 7.5t-12.5 5.5t-26 5
t-46 5l-41 4l-2 12h881l-49 -348l-17 2l-2 16q-5 69 -18 121t-34 85t-44 54t-56 31t-61.5 13.5t-67.5 3.5l-104 -9l-98 -448l61 2q69 3 125.5 45.5t85.5 116.5l17 43h12l-103 -453h-14l2 35q0 35 -3 60.5t-12 52t-24.5 43t-42.5 26t-65 8.5l-39 -2l-97 -446q-1 -7 2.5 -10.5
t21.5 -6.5t56 -6l52 -4v-12h-576zM-57 0l8 12l59 6q77 8 80 25l193 905q1 5 -1.5 7.5t-12.5 5.5t-26 5t-46 5l-41 4l-2 12h880l-49 -348l-16 2l-2 16q-5 69 -18 121t-34 85t-44 54t-56 31t-61.5 13.5t-67.5 3.5l-104 -9l-99 -448l62 2q69 3 125.5 45.5t85.5 116.5l16 43h12
l-102 -453h-14l2 35q0 44 -5.5 75t-20 59.5t-45.5 42.5t-77 13l-39 -2l-96 -446q-1 -7 2.5 -10.5t21.5 -6.5t56 -6l51 -4v-12h-575z" />
    <glyph glyph-name="germandbls.smallcap" horiz-adv-x="1785" 
d="M1327 -23q-176 0 -362 107l12 283h10l68 -183q37 -93 101 -140.5t169 -47.5q92 0 144.5 54.5t52.5 123.5q0 25 -7 47t-22 40.5t-29.5 32.5t-39.5 29.5t-42.5 24.5t-47 24t-44.5 23q-51 27 -87 51t-77.5 61t-63.5 82.5t-22 96.5q0 125 109.5 220t253.5 95q116 0 246 -69
l125 22l-48 -303h-8l-141 285q-11 14 -60 29.5t-90 15.5q-71 0 -120.5 -47.5t-49.5 -110.5q0 -20 5.5 -37t19.5 -33t25 -27t36 -26t38.5 -22t46 -23.5t45.5 -23.5q39 -21 65.5 -36.5t65 -46t62 -60.5t41 -74.5t17.5 -94.5q0 -137 -114 -239.5t-283 -102.5zM434 -23
q-176 0 -362 107l12 283h10l68 -183q37 -93 101 -140.5t169 -47.5q92 0 144.5 54.5t52.5 123.5q0 25 -7 47t-22 40.5t-29.5 32.5t-39.5 29.5t-42.5 24.5t-47 24t-44.5 23q-51 27 -87 51t-77.5 61t-63.5 82.5t-22 96.5q0 125 109.5 220t253.5 95q116 0 246 -69l125 22
l-47 -303h-9l-141 285q-11 14 -59.5 29.5t-89.5 15.5q-71 0 -120.5 -47.5t-49.5 -110.5q0 -20 5 -37t19.5 -33t25 -26.5t36 -26t38 -22.5t46 -24t45.5 -23q39 -21 65.5 -36.5t65 -46t62 -60.5t41 -74.5t17.5 -94.5q0 -137 -114 -239.5t-283 -102.5z" />
    <glyph glyph-name="agrave.smallcap" horiz-adv-x="1077" 
d="M502 385h-219l-62 -111q-18 -32 -48 -84q-18 -32 -26 -46t-18 -35t-11.5 -28.5t-1 -19.5t7 -16t18.5 -11t28 -10t41 -8l20 -4l2 -12h-329l8 12l31 4q24 3 38.5 5.5t31.5 10t26.5 12t24.5 20.5t23.5 27t26.5 40t31 51t39 68l289 510l-8 82q73 8 119 48.5t108 131.5h49
l82 -791q12 -127 39.5 -168.5t77.5 -46.5l49 -4l-2 -12h-577l10 12l31 4q52 6 62.5 25t4.5 86zM295 408h205l-19 329h-2zM741 1067l-419 383h262l170 -383h-13z" />
    <glyph glyph-name="aacute.smallcap" horiz-adv-x="1077" 
d="M502 385h-219l-62 -111q-18 -32 -48 -84q-18 -32 -26 -46t-18 -35t-11.5 -28.5t-1 -19.5t7 -16t18.5 -11t28 -10t41 -8l20 -4l2 -12h-329l8 12l31 4q24 3 38.5 5.5t31.5 10t26.5 12t24.5 20.5t23.5 27t26.5 40t31 51t39 68l289 510l-8 82q73 8 119 48.5t108 131.5h49
l82 -791q12 -127 39.5 -168.5t77.5 -46.5l49 -4l-2 -12h-577l10 12l31 4q52 6 62.5 25t4.5 86zM295 408h205l-19 329h-2zM557 1067l289 383h284l-567 -383h-6z" />
    <glyph glyph-name="acircumflex.smallcap" horiz-adv-x="1077" 
d="M502 385h-219l-62 -111q-18 -32 -48 -84q-18 -32 -26 -46t-18 -35t-11.5 -28.5t-1 -19.5t7 -16t18.5 -11t28 -10t41 -8l20 -4l2 -12h-329l8 12l31 4q24 3 38.5 5.5t31.5 10t26.5 12t24.5 20.5t23.5 27t26.5 40t31 51t39 68l289 510l-8 82q73 8 119 48.5t108 131.5h49
l82 -791q12 -127 39.5 -168.5t77.5 -46.5l49 -4l-2 -12h-577l10 12l31 4q52 6 62.5 25t4.5 86zM397 1044l373 404h16l203 -404h-14l-236 164h-4l-323 -164h-15zM295 408h205l-19 329h-2z" />
    <glyph glyph-name="atilde.smallcap" horiz-adv-x="1077" 
d="M502 385h-219l-62 -111q-18 -32 -48 -84q-18 -32 -26 -46t-18 -35t-11.5 -28.5t-1 -19.5t7 -16t18.5 -11t28 -10t41 -8l20 -4l2 -12h-329l8 12l31 4q24 3 38.5 5.5t31.5 10t26.5 12t24.5 20.5t23.5 27t26.5 40t31 51t39 68l289 510l-8 82q73 8 119 48.5t108 131.5h49
l82 -791q12 -127 39.5 -168.5t77.5 -46.5l49 -4l-2 -12h-577l10 12l31 4q52 6 62.5 25t4.5 86zM295 408h205l-19 329h-2zM881 1079q-44 0 -104.5 20.5t-110 45t-102.5 45t-85 20.5q-15 0 -24.5 -2.5t-24 -12.5t-27 -34t-24.5 -63q-8 0 -12 -2q45 173 88 230.5t133 57.5
q56 0 134.5 -33t150 -65.5t110.5 -32.5q21 0 34.5 4.5t34 31t35.5 77.5q9 0 13 2q-47 -175 -88.5 -232t-130.5 -57z" />
    </font>
</defs>
</svg>
