<?xml version="1.0" standalone="no"?>
<!DOCTYPE svg PUBLIC "-//W3C//DTD SVG 1.1//EN" "http://www.w3.org/Graphics/SVG/1.1/DTD/svg11.dtd" >
<svg xmlns="http://www.w3.org/2000/svg" xmlns:xlink="http://www.w3.org/1999/xlink" version="1.1">
<metadata>
Created by FontForge 20170731 at Wed Mar 31 15:15:20 2021
 By Aleksey,,,
Copyright (c) 2005-2009, Joshua Darden &#38; Phil's Fonts, Inc. All rights reserved. Published by Garagefonts USA 301-879-9222 www.garagefonts.com
</metadata>
<defs>
<font id="FreightBigPro-BookItalic" horiz-adv-x="1536" >
  <font-face 
    font-family="Freight Big Pro"
    font-weight="400"
    font-style="italic"
    font-stretch="normal"
    units-per-em="2048"
    panose-1="2 0 6 3 9 0 0 9 0 4"
    ascent="1638"
    descent="-410"
    x-height="893"
    cap-height="1280"
    bbox="-487 -567 2505 1995"
    underline-thickness="40"
    underline-position="-312"
    slope="-12"
    unicode-range="U+0020-FB04"
  />
<missing-glyph horiz-adv-x="1024" 
 />
    <glyph glyph-name="ff" unicode="ff" horiz-adv-x="960" 
d="M846 1223l35 39q90 94 221 94q71 0 117.5 -33.5t46.5 -85.5q0 -38 -27.5 -64t-62.5 -26q-37 0 -59.5 24t-17 63t43.5 75q-37 26 -76 26q-86 0 -137 -106.5t-101 -358.5l201 -2l-24 -65h-191l-108 -467q-55 -233 -109 -367t-125 -205q-68 -71 -184 -71q-70 0 -110 30.5
t-40 79.5q0 36 25 63.5t61 27.5q32 0 55 -22.5t23 -60.5t-31 -75q44 -19 62 -19q53 0 87.5 45.5t72.5 177t92 400.5q6 29 15.5 77t29.5 149.5t33 169t12 67.5h-291l-123 -529q-54 -227 -111.5 -362.5t-130.5 -208.5q-69 -72 -182 -72q-69 0 -111 31.5t-42 79.5q0 36 25.5 63
t62.5 27q32 0 56 -23.5t25 -58.5t-30 -76q42 -18 61 -18q53 0 88.5 45t75 178t92.5 400l105 524l-160 4l25 61l155 2q30 119 73 199.5t107 144.5q101 101 234 101q62 0 106.5 -25.5t59.5 -66.5zM772 1096h-6q-37 0 -59.5 23.5t-17 60.5t43.5 69q-3 5 -9.5 12t-27.5 19
t-45 12q-90 0 -150 -103.5t-104 -318.5h301q39 151 74 226z" />
    <glyph glyph-name="fi" unicode="fi" horiz-adv-x="894" 
d="M-162 -369q-69 0 -111 31.5t-42 79.5q0 36 25.5 63t62.5 27q32 0 56 -23.5t25 -58.5t-30 -76q42 -18 61 -18q53 0 88.5 45t75 178t92.5 400l105 524l-160 4l25 61l155 2q63 255 185 377q106 109 256 109q83 0 135.5 -43t52.5 -101q0 -37 -25 -61.5t-63 -24.5
q-37 0 -59 24.5t-15.5 61.5t45.5 68q-4 6 -11 15t-33 24.5t-56 15.5q-101 0 -164 -100.5t-117 -364.5l269 -2q39 29 84 29q36 0 64 -42t28 -93q0 -28 -59 -180t-129.5 -322.5t-78.5 -191.5l115 -15l146 223l10 -6q-71 -148 -138.5 -221.5t-113.5 -73.5q-32 0 -87.5 27
t-55.5 45q0 14 65 182t139 355t84 215l-2 4h-352l-123 -529q-54 -230 -110 -365t-127 -206q-69 -72 -187 -72z" />
    <glyph glyph-name="fl" unicode="fl" horiz-adv-x="913" 
d="M866 1300l140 58l-406 -1292l98 -13l144 223l12 -6q-72 -149 -136.5 -222t-109.5 -73q-20 0 -53 13t-58 31t-24 30q0 16 332 1086q-48 13 -58 59.5t41 91.5q-3 5 -10.5 13.5t-35.5 22t-64 13.5q-101 0 -164 -100.5t-117 -364.5l213 -2l-24 -65h-201l-123 -529
q-54 -230 -110 -365t-127 -206q-69 -72 -187 -72q-70 0 -111.5 30.5t-41.5 80.5q0 36 25.5 63t62.5 27q32 0 56 -23.5t25 -58.5t-30 -76q35 -20 61 -20q53 0 88.5 45t75 178.5t92.5 401.5l105 524l-160 4l25 61l155 4q60 248 187 375q106 109 254 109q107 0 159 -56z" />
    <glyph glyph-name="ffi" unicode="ffi" horiz-adv-x="1331" 
d="M850 1204q18 24 37 43q103 109 256 109q83 0 135.5 -42.5t52.5 -99.5q0 -37 -25 -61.5t-63 -24.5q-37 0 -59 24t-15.5 61t45.5 69q-4 6 -11 15t-33 23.5t-56 14.5q-101 0 -163.5 -100.5t-116.5 -364.5l268 -2q39 29 84 29q36 0 65 -42.5t29 -92.5q0 -28 -59.5 -180.5
t-130 -322t-78.5 -191.5l114 -15l146 223l10 -6q-71 -148 -138.5 -221.5t-113.5 -73.5q-32 0 -87.5 27.5t-55.5 46.5q0 14 65.5 181.5t140.5 355t85 213.5l-2 6h-355l-110 -469q-54 -230 -110 -365t-128 -207q-68 -71 -180 -71q-70 0 -110 30.5t-40 77.5q0 37 25.5 63.5
t62.5 26.5q32 0 54.5 -22t22 -59t-31.5 -74q3 -2 12 -6.5l14 -7t13.5 -5t16.5 -2.5q53 0 89 45t76 178.5t95 401.5l90 465h-297l-123 -531q-53 -227 -111 -362.5t-131 -208.5q-72 -72 -182 -72q-71 0 -112 30.5t-41 78.5q0 37 25 63.5t61 26.5q32 0 56 -23t25.5 -58
t-30.5 -75q40 -20 63 -20q52 0 87.5 45t75.5 178.5t95 401.5l103 526l-158 2l25 61l153 2q30 120 73.5 201t106.5 143q101 101 234 101q69 0 115.5 -32t54.5 -79zM784 1100q-8 -4 -18 -4q-37 0 -59.5 24t-17 61t43.5 68q-3 5 -9.5 12t-27.5 19t-45 12q-90 0 -150 -103
t-104 -319h305q40 148 82 230z" />
    <glyph glyph-name="ffl" unicode="ffl" horiz-adv-x="1349" 
d="M1303 1303l139 55l-408 -1292l101 -13l143 223l12 -6q-73 -149 -138 -222t-108 -73q-32 0 -85 28t-50 46q0 1 328 1088q-46 15 -54 60t42 89q-3 5 -10.5 13.5t-36 22t-64.5 13.5q-101 0 -163.5 -100.5t-116.5 -364.5l213 -2l-25 -65h-201l-110 -467q-54 -230 -110 -365
t-128 -207q-68 -71 -180 -71q-70 0 -110 30.5t-40 79.5q0 36 26 63.5t62 27.5q51 0 70.5 -50t-25.5 -108l15 -7.5t21 -8.5t20 -3q53 0 89 45t76 178t95 400l90 463h-297l-123 -529q-54 -227 -111.5 -362.5t-130.5 -208.5q-69 -72 -182 -72q-70 0 -111.5 30.5t-41.5 80.5
q0 36 25.5 63t62.5 27q32 0 56 -23.5t25 -58.5t-30 -76q35 -20 61 -20q53 0 88.5 45t75 178.5t92.5 401.5l105 524l-160 4l25 61l155 4q56 221 180 342q101 101 234 101q67 0 114 -32t58 -79q18 24 37 43q106 109 254 109q103 0 160 -53zM784 1098q-6 -2 -18 -2
q-37 0 -59.5 24t-17 61t43.5 68q-3 5 -9.5 12t-27.5 19t-45 12q-90 0 -150 -103t-104 -319l305 2q35 133 82 226z" />
    <glyph glyph-name=".notdef" horiz-adv-x="1024" 
 />
    <glyph glyph-name=".null" horiz-adv-x="0" 
 />
    <glyph glyph-name="nonmarkingreturn" horiz-adv-x="682" 
 />
    <glyph glyph-name="space" unicode=" " horiz-adv-x="368" 
 />
    <glyph glyph-name="exclam" unicode="!" horiz-adv-x="481" 
d="M233 381q-1 -4 -5 -5t-7 1t-2 6l98 821q3 20 5.5 32t10 29.5t18.5 26.5t30 14.5t45 2.5h4q32 -4 49 -15t19 -31.5t-0.5 -35.5t-10.5 -41zM166 -29q-44 0 -75.5 32.5t-31.5 74.5q0 40 31.5 70t75.5 30q45 0 74.5 -29.5t29.5 -70.5q0 -43 -30 -75t-74 -32z" />
    <glyph glyph-name="quotedbl" unicode="&#x22;" horiz-adv-x="610" 
d="M377 825l340 498h2l78 -41l-404 -457h-16zM84 825l338 498h4l80 -41l-406 -457h-16z" />
    <glyph glyph-name="numbersign" unicode="#" horiz-adv-x="1011" 
d="M188 -10l107 405h-285v17h289l119 452h-285v17h289l108 413h23l-109 -413h334l109 413h22l-108 -413h282v-17h-286l-119 -452h283v-17h-287l-107 -405h-22l106 405h-334l-106 -405h-23zM322 412h333l119 452h-334z" />
    <glyph glyph-name="dollar" unicode="$" horiz-adv-x="950" 
d="M178 2q-125 36 -203 90l43 287h9l22 -103q33 -158 148 -233l274 575q-5 5 -6 5q-123 64 -195.5 143t-72.5 186q0 66 28 130t77.5 115t125.5 82.5t164 31.5q92 0 192 -35l113 240h25l-117 -246q61 -25 82 -37l86 16l-49 -315l-9 2l-84 260q-19 22 -43 37l-225 -471l8 -4
q67 -37 116.5 -73t92.5 -81t65.5 -100t22.5 -117q0 -76 -33.5 -150t-92.5 -133.5t-149.5 -96t-195.5 -36.5q-96 0 -196 27l-160 -334h-25zM215 33q77 -41 178 -41q144 0 236 94t92 231q0 166 -229 291q-275 -575 -277 -575zM770 1245q-76 47 -166 47q-118 0 -195 -78.5
t-77 -181.5q0 -79 54.5 -140.5t156.5 -119.5z" />
    <glyph glyph-name="percent" unicode="%" horiz-adv-x="1124" 
d="M397 791q-115 0 -184.5 75t-69.5 183q0 109 69.5 185.5t184.5 76.5q116 0 186 -76.5t70 -185.5q0 -108 -70 -183t-186 -75zM-8 -29l1196 1340h26l-1196 -1340h-26zM813 -27q-115 0 -184.5 74.5t-69.5 181.5q0 110 69.5 187.5t184.5 77.5q116 0 186 -77.5t70 -187.5
q0 -107 -70 -181.5t-186 -74.5zM397 811q104 0 168 68t64 170q0 101 -64.5 171t-167.5 70t-166 -70t-63 -171q0 -102 63 -170t166 -68zM813 -6q104 0 167.5 67.5t63.5 169.5q0 101 -64 171.5t-167 70.5t-166 -70t-63 -172t62.5 -169.5t166.5 -67.5z" />
    <glyph glyph-name="ampersand" unicode="&#x26;" horiz-adv-x="1445" 
d="M1231 745q87 -23 135.5 -92.5t48.5 -171.5q0 -132 -100.5 -250.5t-266 -189t-346.5 -70.5q-189 0 -339.5 64.5t-235 178.5t-84.5 257q0 146 95.5 266t244.5 166q-10 45 -10 84q0 134 87.5 228.5t211.5 93.5q117 0 195.5 -101t58.5 -237l-23 4q6 91 -48 165t-148 74
q-88 0 -143.5 -66t-55.5 -171q0 -21 4 -49h33q107 0 179.5 -50.5t72.5 -121.5q0 -50 -37.5 -79.5t-100.5 -29.5q-86 0 -161.5 67t-108.5 165q-103 -37 -162 -119t-59 -189q0 -232 177 -361.5t495 -129.5q239 0 396 117t157 286q0 101 -64 172.5t-153 71.5q-73 0 -146.5 -56
t-73.5 -112q0 -57 42.5 -89.5t119.5 -35.5q-28 8 -35.5 39.5t11 60.5t55.5 29q29 0 49.5 -19.5t20.5 -47.5q0 -35 -26.5 -60.5t-68.5 -25.5q-93 0 -154 56.5t-61 151.5q0 56 31.5 99t81.5 70t111 50t122 45t111 46.5t81.5 63t31.5 87.5q0 72 -48.5 116.5t-130.5 45.5
q28 -8 38.5 -41t-6.5 -63.5t-58 -30.5q-31 0 -52.5 20.5t-21.5 51.5q0 36 31.5 63t73.5 27q93 0 159 -78.5t66 -190.5q0 -89 -67.5 -146t-231.5 -108zM516 905q19 -84 73.5 -137t119.5 -53q23 0 39 16t16 39q0 53 -65 94t-152 41h-31z" />
    <glyph glyph-name="quotesingle" unicode="'" horiz-adv-x="303" 
d="M84 825l338 498h4l80 -41l-406 -457h-16z" />
    <glyph glyph-name="parenleft" unicode="(" horiz-adv-x="647" 
d="M424 -549q-61 44 -118.5 110.5t-111 160t-84.5 204t-39 243t25 275.5q30 139 93.5 266t139.5 220.5t166 171t172 126t158 77.5l11 -21q-77 -29 -157.5 -77.5t-168.5 -125t-161.5 -168.5t-134 -215.5t-89.5 -257.5q-32 -141 -24.5 -270.5t37 -237.5t80.5 -199t106.5 -156
t115.5 -107z" />
    <glyph glyph-name="parenright" unicode=")" horiz-adv-x="647" 
d="M-203 -549l-10 21q77 29 157.5 77.5t168.5 125t161.5 168.5t134 215.5t89.5 258.5q32 140 24.5 269.5t-37 237.5t-81 199t-107 156t-115.5 107l17 19q61 -44 118.5 -110.5t110.5 -160.5t84 -204.5t39 -242t-25 -274.5q-30 -139 -93.5 -266.5t-139.5 -221t-166.5 -171
t-172 -126t-157.5 -77.5z" />
    <glyph glyph-name="asterisk" unicode="*" horiz-adv-x="620" 
d="M467 668l-82 94l27 211q0 4 -4 7t-7 1l-149 -156l-127 -2q-3 0 0 6l65 111l209 45q11 3 2 12l-186 97l-35 116q-4 7 4 7l123 -27l96 -189q1 -4 8 -3t7 6l47 219l102 67q2 2 2 -2l13 -121l-160 -166q-4 -5 -1.5 -9.5t7.5 -4.5l219 43l94 -76q6 0 2 -4l-114 -53l-201 88
q-6 1 -9 -1t-1 -7l98 -195l-45 -114q-2 -2 -4 0z" />
    <glyph glyph-name="plus" unicode="+" horiz-adv-x="886" 
d="M432 49v424h-418l4 25h414v415h25v-415h411l4 -25h-415v-424h-25z" />
    <glyph glyph-name="comma" unicode="," horiz-adv-x="331" 
d="M-86 -205l-4 8q82 29 146.5 90t64.5 136q0 55 -39.5 74t-95.5 -11q-13 46 17 89.5t89 43.5q56 0 92.5 -38.5t36.5 -98.5q0 -92 -92 -178.5t-215 -114.5z" />
    <glyph glyph-name="hyphen" unicode="-" horiz-adv-x="573" 
d="M43 459l20 61h490l-21 -61h-489z" />
    <glyph glyph-name="period" unicode="." horiz-adv-x="376" 
d="M113 -27q-44 0 -75.5 33t-31.5 76q0 40 31.5 71t75.5 31q45 0 74.5 -30.5t29.5 -71.5q0 -44 -29.5 -76.5t-74.5 -32.5z" />
    <glyph glyph-name="slash" unicode="/" horiz-adv-x="509" 
d="M33 -506l430 1796h20l-430 -1796h-20z" />
    <glyph glyph-name="zero" unicode="0" horiz-adv-x="1062" 
d="M477 -25q-187 0 -296 119.5t-109 311.5q0 150 67.5 284t187 216.5t261.5 82.5q183 0 292 -121t109 -313q0 -156 -68 -289.5t-186 -212t-258 -78.5zM459 -8q104 0 192 93.5t137.5 246t49.5 325.5q0 144 -61.5 228t-172.5 84q-107 0 -195 -91.5t-137 -246t-49 -336.5
q0 -144 60 -223.5t176 -79.5z" />
    <glyph glyph-name="one" unicode="1" horiz-adv-x="659" 
d="M25 0q-1 0 0.5 3t3.5 6l2 3l69 2q53 2 73.5 8.5t23.5 24.5l176 846l-203 29l6 10l352 49l-200 -938q-2 -9 4.5 -14t31 -9t72.5 -6l58 -2l4 -12h-473z" />
    <glyph glyph-name="two" unicode="2" horiz-adv-x="870" 
d="M-51 0l-2 16q286 203 422 314.5t191.5 191.5t55.5 166q0 98 -55 152.5t-149 54.5q-138 0 -254 -160l-13 10q75 115 169.5 179.5t197.5 64.5q110 0 182 -66.5t72 -160.5q0 -55 -21 -105t-58 -96t-105 -102.5t-143 -112t-191 -137.5q-74 -52 -113 -80v-4h490q25 0 75.5 60
t118.5 173l12 21l11 -2l-164 -377h-729z" />
    <glyph glyph-name="three" unicode="3" horiz-adv-x="804" 
d="M160 -410q-130 0 -210.5 37.5t-80.5 110.5q0 39 29 68.5t71 29.5q37 0 65 -27t31 -67.5t-32 -89.5q80 -41 145 -41q150 0 248 111.5t98 273.5q0 129 -80 207t-217 78q-63 0 -129 -17l-6 12q270 114 375.5 200.5t105.5 213.5q0 90 -56 148.5t-148 58.5q-75 0 -147.5 -50
t-119.5 -130l-12 10q68 121 166 191.5t213 70.5q108 0 180 -70t72 -169q0 -121 -94 -210.5t-283 -162.5v-4h8q136 -7 224 -102.5t88 -223.5q0 -115 -69 -220.5t-186 -171t-249 -65.5z" />
    <glyph glyph-name="four" unicode="4" horiz-adv-x="946" 
d="M375 -377l82 397h-531l2 7l826 942h34l-178 -836l234 -2l-45 -111h-213l-84 -397h-127zM51 133h430l133 641h-4z" />
    <glyph glyph-name="five" unicode="5" horiz-adv-x="772" 
d="M86 -408q-111 7 -164.5 48t-48.5 106q1 38 31.5 65t70.5 25q60 -4 82.5 -67t-6.5 -129q72 -23 105 -25q80 -5 154 44.5t122 138.5t53 192q10 159 -100 263t-313 140l202 565h498l-57 -141h-467l-107 -305q231 -41 356.5 -166.5t116.5 -298.5q-4 -87 -47.5 -172
t-112.5 -150.5t-166.5 -102.5t-201.5 -30z" />
    <glyph glyph-name="six" unicode="6" horiz-adv-x="958" 
d="M444 -23q-176 0 -277 124t-101 307q0 126 47 252t139.5 236.5t217.5 196.5t292 136.5t352 52.5l-2 -16q-151 -9 -286 -60t-237 -132.5t-178.5 -179.5t-125.5 -210l4 -2q151 119 315 119q144 0 220.5 -88.5t76.5 -231.5q0 -132 -63.5 -249t-169 -186t-224.5 -69zM442 -4
q82 0 153 61t112 165t41 224q0 131 -59.5 212t-180.5 81q-116 0 -238 -88q-61 -155 -61 -305q0 -161 57.5 -255.5t175.5 -94.5z" />
    <glyph glyph-name="seven" unicode="7" horiz-adv-x="837" 
d="M53 -377l774 1194l-4 8h-411q-133 0 -191 -32t-108 -131l-11 -21l-12 2l105 315h729v-8l-758 -1327h-113z" />
    <glyph glyph-name="eight" unicode="8" horiz-adv-x="940" 
d="M430 -33q-170 0 -284.5 96t-114.5 232q0 134 109.5 232.5t283.5 121.5l2 4q-203 146 -203 312q0 137 114 243.5t273 106.5q148 0 248 -88.5t100 -216.5q0 -115 -92.5 -199t-244.5 -119v-4q112 -84 172.5 -166t60.5 -188q0 -100 -57.5 -184.5t-155 -133.5t-211.5 -49z
M602 700q102 43 164.5 130t62.5 204q0 111 -59 185.5t-166 74.5q-106 0 -179 -80t-73 -186q0 -49 18.5 -94t57 -86.5t77 -73.5t97.5 -74zM440 -14q124 0 204.5 82.5t80.5 193.5q0 56 -22.5 108.5t-68.5 101.5t-86.5 83t-105.5 82q-127 -36 -203.5 -134.5t-76.5 -236.5
q0 -121 72.5 -200.5t205.5 -79.5z" />
    <glyph glyph-name="nine" unicode="9" horiz-adv-x="958" 
d="M-135 -303l2 14q151 9 286 60.5t237 133t178.5 179.5t125.5 209h-4q-153 -117 -315 -117q-144 0 -220.5 88t-76.5 232q0 98 38 191t100.5 161t146.5 109.5t172 41.5q118 0 205.5 -59.5t130 -155t42.5 -213.5q0 -127 -47.5 -253t-139.5 -236.5t-217 -196t-292 -136
t-352 -52.5zM471 238q120 0 238 90q63 152 63 305q0 158 -57.5 252t-175.5 94q-83 0 -154 -61.5t-111.5 -164.5t-40.5 -221q0 -133 58.5 -213.5t179.5 -80.5z" />
    <glyph glyph-name="colon" unicode=":" horiz-adv-x="372" 
d="M246 598q-44 0 -76.5 33.5t-32.5 75.5q0 40 32 70t77 30q44 0 74 -30t30 -70q0 -43 -30 -76t-74 -33zM113 -27q-44 0 -75.5 32.5t-31.5 74.5q0 40 31.5 70t75.5 30q45 0 74.5 -29.5t29.5 -70.5q0 -43 -30 -75t-74 -32z" />
    <glyph glyph-name="semicolon" unicode=";" horiz-adv-x="331" 
d="M229 598q-44 0 -76 32.5t-32 74.5q0 41 31.5 71.5t76.5 30.5q43 0 74 -30.5t31 -71.5q0 -43 -30 -75t-75 -32zM-86 -203l-4 8q82 29 146.5 89t64.5 135q0 54 -39.5 73t-95.5 -10q-13 45 17 88t89 43q56 0 92.5 -38.5t36.5 -96.5q0 -92 -91.5 -177.5t-215.5 -113.5z" />
    <glyph glyph-name="less" unicode="&#x3c;" horiz-adv-x="860" 
d="M825 68l-815 403v23l815 401l11 -23l-793 -387v-4l793 -391z" />
    <glyph glyph-name="equal" unicode="=" horiz-adv-x="876" 
d="M37 647l-6 25h815l-6 -25h-803zM31 293l6 24h803l6 -24h-815z" />
    <glyph glyph-name="greater" unicode="&#x3e;" horiz-adv-x="860" 
d="M35 68l-10 22l792 391v4l-792 387l10 23l815 -401v-23z" />
    <glyph glyph-name="question" unicode="?" horiz-adv-x="612" 
d="M293 371q-57 49 -98 112t-41 107q0 70 53.5 119.5t200.5 99.5q148 50 194.5 83.5t46.5 92.5q0 32 -16 63.5t-49.5 60.5t-95.5 47t-144 18q-63 0 -121 -15q-6 15 -6 37q0 53 28.5 84t106.5 31q145 0 231.5 -92.5t86.5 -223.5q0 -124 -52 -190.5t-202 -120.5
q-46 -16 -70.5 -26t-54 -24.5t-43.5 -28.5t-23.5 -33.5t-9.5 -43.5q0 -69 90 -155zM217 -29q-45 0 -76.5 32.5t-31.5 74.5q0 40 31.5 70t76.5 30t75 -29.5t30 -70.5q0 -43 -30 -75t-75 -32z" />
    <glyph glyph-name="at" unicode="@" horiz-adv-x="1568" 
d="M819 -211q-216 0 -385.5 88.5t-263.5 248t-94 363.5q0 167 63 320t170 263.5t253.5 176.5t307.5 66q192 0 345.5 -81t240 -225.5t86.5 -324.5q0 -111 -41.5 -216t-107 -179.5t-150.5 -120t-170 -45.5q-101 0 -155 47t-54 125q0 89 49 190h-4q-132 -191 -207 -270.5
t-147 -79.5q-68 0 -118 50.5t-50 121.5q0 89 52.5 195t120 188t145.5 152q118 106 210 106q46 0 74 -49.5t27 -130.5h2l78 233l131 -8l-144 -366l-67 -176q-40 -99 -36 -158.5t39.5 -84t108.5 -24.5q69 0 139.5 39t127 104.5t92 160t35.5 196.5q0 264 -185 438t-467 174
q-157 0 -300.5 -64.5t-247 -173.5t-165 -258t-61.5 -311q0 -197 91.5 -352.5t256.5 -242.5t375 -87q217 0 398.5 111t263.5 279l18 -9q-84 -172 -270.5 -285.5t-409.5 -113.5zM625 227q57 0 139.5 96.5t171.5 260.5q53 104 53 139q0 49 -49 99t-106 50q-51 0 -101 -47
q-78 -72 -142.5 -211.5t-64.5 -251.5q0 -59 29 -97t70 -38z" />
    <glyph glyph-name="A" unicode="A" horiz-adv-x="1249" 
d="M764 557h-369l-149 -272q-81 -142 -93 -176q-19 -53 19 -72q29 -15 117 -21l51 -4l2 -12h-440l6 12l33 4q97 12 145 68t209 338q4 7 6 10l401 715l-8 61q73 21 127 95h17l118 -1088q17 -122 41.5 -157.5t96.5 -39.5l57 -6l2 -12h-524l6 12l61 4q63 3 89.5 36t19.5 102z
M410 582h352l-53 526h-7z" />
    <glyph glyph-name="B" unicode="B" horiz-adv-x="1150" 
d="M-41 0l6 12l76 8q102 11 106 33l250 1180q1 6 -1.5 9t-16 6.5t-34 6t-62.5 7.5l-50 6l-2 12h478q103 0 183 -23.5t128 -63.5t72 -88t24 -101q0 -125 -109 -208.5t-333 -90.5v-5q188 -28 283.5 -115.5t95.5 -207.5q0 -182 -153.5 -279.5t-444.5 -97.5h-496zM453 20l79 3
q71 1 130 23t98.5 58.5t67.5 84.5t40.5 100.5t12.5 107.5q0 138 -101 220.5t-299 82.5h-37l-139 -651zM610 717q85 0 150.5 26.5t103.5 72.5t57 101.5t19 118.5q0 105 -68 163t-206 58h-103l-112 -526q89 -14 159 -14z" />
    <glyph glyph-name="C" unicode="C" horiz-adv-x="1374" 
d="M752 -31q-145 0 -267.5 44t-206 121.5t-130 184t-46.5 230.5q0 152 58 291.5t158.5 243.5t244 165.5t305.5 61.5q233 0 389 -111l117 33l-59 -352h-8l-76 293q-42 45 -137.5 80.5t-202.5 35.5q-113 0 -212 -43.5t-172 -119.5t-125.5 -175.5t-79 -213.5t-26.5 -232
q0 -238 126.5 -378t351.5 -140q140 0 245 65t205 193l62 80l8 -2l-123 -301l-70 -5q-59 -19 -150 -34t-179 -15z" />
    <glyph glyph-name="D" unicode="D" horiz-adv-x="1333" 
d="M-41 0l6 12l76 8q102 11 106 33l250 1180q1 6 -1.5 9t-16 6.5t-34 6t-62.5 7.5l-50 6l-2 12l488 2q293 1 450.5 -151t157.5 -388q0 -156 -57.5 -291.5t-163 -236t-265.5 -158t-354 -57.5h-528zM487 18q130 0 239.5 40t187 110.5t132.5 166.5t81 207.5t26 233.5
q0 106 -25 192t-77.5 153t-141.5 104t-209 37h-137l-256 -1209z" />
    <glyph glyph-name="E" unicode="E" horiz-adv-x="1171" 
d="M-45 0l6 12l76 8q106 12 110 33l250 1180q1 6 -1.5 9t-16 6.5t-34 6t-62.5 7.5l-54 6l-2 12h871l28 -362l-10 -3l-8 29q-18 53 -30 85.5t-29.5 70t-34.5 59.5t-40.5 44.5t-51.5 33.5t-64.5 18t-81.5 7h-213l-123 -582l146 2q96 3 146 18t78 46t60 100l13 28l12 -2
l-86 -413l-12 2l2 26q3 26 3 45.5t-2 36t-9 28.5t-14.5 21t-23 15t-30.5 10t-41.5 7t-50.5 4t-62 3l-133 5l-135 -633l299 -11q71 1 132.5 21t105 47.5t89 76.5t74 89.5t70.5 105.5l21 29l10 -2l-160 -385h-987z" />
    <glyph glyph-name="F" unicode="F" horiz-adv-x="1112" 
d="M-45 0l6 12l84 8q98 8 102 33l250 1180q1 6 -1.5 9t-13.5 6.5t-33 6.5t-62 7l-58 6l-2 12h899l21 -373l-12 -2l-9 27q-12 41 -19.5 66.5t-19.5 59t-23 53.5t-27 44t-33.5 38.5t-41.5 29t-51.5 22t-63 12.5t-77.5 5h-207l-127 -594l148 2q98 3 146.5 17t77.5 45.5
t58 101.5l13 26l12 -2l-86 -412l-10 3v26q2 40 0 65t-12.5 44.5t-23 29.5t-43 17t-61.5 9.5t-88 4.5l-135 4l-125 -602q-1 -8 5.5 -12.5t32.5 -9t77 -7.5l96 -6l2 -12h-565z" />
    <glyph glyph-name="G" unicode="G" horiz-adv-x="1404" 
d="M725 -31q-140 0 -257.5 44.5t-197.5 122.5t-124 184.5t-44 228.5q0 149 55.5 287.5t153.5 244t243.5 169t313.5 63.5q236 0 389 -111l123 33l-69 -354l-6 2l-74 293q-44 46 -139.5 80t-200.5 34q-113 0 -212.5 -44.5t-172 -120t-125 -174.5t-79 -210t-26.5 -223
q0 -237 127.5 -383.5t339.5 -146.5q136 0 230 55l98 465q1 8 -7 12.5t-35 8.5t-81 8l-76 6l-2 12h541l-8 -12l-74 -8q-102 -11 -106 -33l-90 -430l122 16l-2 -8q-315 -111 -528 -111z" />
    <glyph glyph-name="H" unicode="H" horiz-adv-x="1452" 
d="M-41 0l6 12l76 8q102 11 106 33l250 1180q1 6 -1.5 9t-16 6.5t-34 6t-62.5 7.5l-50 6l-2 12h521l-9 -12l-81 -8q-103 -11 -107 -33l-119 -565h672l123 571q1 6 -2.5 9t-15.5 6.5t-34.5 6.5t-62.5 7l-57 6l-2 12h520l-8 -12l-74 -8q-102 -11 -106 -33l-250 -1180
q-1 -6 1.5 -9t16 -6.5t34 -6t62.5 -7.5l50 -6l2 -12h-521l7 12l83 8q103 8 107 33l121 588h-670l-127 -594q-1 -6 2 -9t15 -6.5t35 -6.5t63 -7l57 -6l2 -12h-520z" />
    <glyph glyph-name="I" unicode="I" horiz-adv-x="659" 
d="M-29 0l6 12l84 8q103 8 107 33l250 1180q1 6 -2.5 9t-15.5 6.5t-34.5 6.5t-62.5 7l-57 6l-2 12h528l-8 -12l-82 -8q-103 -11 -107 -33l-249 -1180q-1 -6 2 -9t14.5 -6.5t34.5 -6.5t63 -7l58 -6l2 -12h-529z" />
    <glyph glyph-name="J" unicode="J" horiz-adv-x="618" 
d="M-125 -342q-72 0 -111.5 30t-39.5 79q0 44 31 76t75 32q49 0 77.5 -35.5t18.5 -82t-59 -74.5q85 -20 161 67.5t111 267.5l258 1215q1 6 -2 9t-15.5 6.5t-34.5 6.5t-62 7l-58 6l-2 12h529l-9 -12l-81 -8q-103 -11 -107 -33l-266 -1260q-6 -31 -47 -82.5t-98 -102
t-131.5 -87.5t-137.5 -37z" />
    <glyph glyph-name="K" unicode="K" horiz-adv-x="1347" 
d="M-41 0l6 12l80 8q98 8 102 33l250 1180q1 6 -1.5 9t-13.5 6.5t-33 6.5t-62 7l-54 6l-2 12h531l-8 -12l-92 -8q-103 -8 -107 -33l-143 -682l413 342q265 223 314 292q37 51 -2 68q-22 9 -93 15l-75 6v12h491l-8 -12l-29 -2q-27 -2 -45 -4t-40.5 -9.5t-36.5 -13.5
t-43 -25.5t-48.5 -34.5t-63.5 -51t-79 -66t-104 -88t-129 -108l-50 -39l256 -651q23 -57 36.5 -85.5t32.5 -45.5t35.5 -21.5t53.5 -7.5l55 -4l2 -12h-518l6 12l58 4q72 4 84.5 47t-21.5 125l-205 535l-253 -209l-101 -467q-1 -8 5.5 -12.5t32 -8.5t77.5 -8l67 -6l2 -12h-530
z" />
    <glyph glyph-name="L" unicode="L" horiz-adv-x="1110" 
d="M-41 0l6 12l80 8q98 8 102 33l250 1180q1 6 -1.5 9t-13.5 6.5t-33 6.5t-62 7l-54 6l-2 12h562l-9 -12l-122 -8q-103 -8 -107 -33l-254 -1198l252 -11q60 0 109.5 11t91 36t72.5 51t64.5 72t56.5 83t59 100l14 26l14 -2l-139 -395h-936z" />
    <glyph glyph-name="M" unicode="M" horiz-adv-x="1658" 
d="M-49 0l6 12l47 2q86 6 124 22.5t44 47.5l270 1149q-30 24 -125 31l-53 4l-2 12h354l168 -1059l4 -2l662 1061h336l-8 -12l-74 -8q-103 -11 -107 -33l-249 -1180q-1 -6 1.5 -9t15.5 -6.5t34 -6l63 -7.5l49 -6l2 -12h-522l6 12l84 8q103 8 107 33l237 1139h-4l-741 -1192
h-14l-189 1139q-4 31 -18 63l-258 -1122q-4 -15 10.5 -28t57 -23.5t110.5 -14.5l35 -2l2 -12h-465z" />
    <glyph glyph-name="N" unicode="N" horiz-adv-x="1359" 
d="M1038 -10l-614 1165h-4l-227 -1073q-11 -53 151 -66l37 -4l2 -12h-424l6 12l41 4q149 16 160 70l237 1090q-49 70 -174 88l-24 4l-2 12h340l536 -1032h4l201 950q11 56 -149 66l-37 4l-2 12h424l-9 -12l-38 -4q-150 -13 -162 -70l-262 -1204h-11z" />
    <glyph glyph-name="O" unicode="O" horiz-adv-x="1464" 
d="M725 -27q-138 0 -254 48.5t-194 132t-121 195t-43 237.5q0 135 53 265.5t145 232t227.5 163.5t288.5 62q136 0 251 -49.5t193 -133.5t121.5 -197t43.5 -239q0 -149 -57.5 -283t-154 -228.5t-227 -150t-272.5 -55.5zM713 -6q156 0 285.5 111t200.5 289.5t71 381.5
q0 227 -117 369.5t-317 142.5q-122 0 -228.5 -69t-177.5 -181.5t-111 -253.5t-40 -286q0 -227 116 -365.5t318 -138.5z" />
    <glyph glyph-name="P" unicode="P" horiz-adv-x="1103" 
d="M-70 0l7 12l104 8q102 8 106 33l250 1180q1 8 -5 12.5t-31.5 8.5t-77.5 8l-78 6l-2 12h545q193 0 303 -84.5t110 -212.5q0 -155 -131 -258.5t-342 -103.5q-114 0 -254 38l-129 -612q-1 -8 5.5 -12.5t32.5 -9t77 -7.5l98 -6l2 -12h-590zM662 643q154 0 241.5 108t87.5 271
q0 111 -63.5 174.5t-196.5 63.5h-168l-121 -572q108 -45 220 -45z" />
    <glyph glyph-name="Q" unicode="Q" horiz-adv-x="1464" 
d="M1180 -365q-98 0 -185.5 17t-169.5 54.5t-139 108t-76 167.5q-228 38 -362.5 206t-134.5 398q0 135 53 265.5t145 232t227.5 163.5t288.5 62q136 0 251 -49.5t193 -134t121.5 -197t43.5 -238.5q0 -138 -49.5 -263.5t-134 -218t-199.5 -154t-244 -77.5q19 -79 52 -135.5
t76.5 -92.5t105.5 -56.5t129.5 -28t158.5 -6.5v-12q-48 -11 -151 -11zM713 -8q156 0 285.5 111.5t200.5 290.5t71 382q0 227 -117 369.5t-317 142.5q-122 0 -228.5 -69t-177.5 -181.5t-111 -253.5t-40 -286q0 -227 116 -366.5t318 -139.5z" />
    <glyph glyph-name="R" unicode="R" horiz-adv-x="1259" 
d="M-70 0l7 12l104 8q34 3 69.5 13.5t36.5 19.5l250 1180q1 8 -5 12.5t-31.5 8.5t-77.5 8l-78 6l-2 12h549q190 0 304.5 -83t114.5 -214q0 -94 -58.5 -170.5t-153 -118.5t-205.5 -47l200 -469q40 -93 80.5 -125.5t116.5 -38.5l25 -2l4 -12h-322l-268 651q-66 16 -144 56
l-141 -660q-3 -19 115 -29l78 -6l2 -12h-570zM668 674q148 0 242 94t94 252q0 110 -72.5 175t-200.5 65h-168l-112 -535q114 -51 217 -51z" />
    <glyph glyph-name="S" unicode="S" horiz-adv-x="980" 
d="M442 -27q-123 0 -239.5 37.5t-186.5 85.5l47 289h9l20 -104q29 -139 120.5 -214t225.5 -75q141 0 231.5 85t90.5 218q0 96 -59 164.5t-201 154.5q-134 77 -205.5 160.5t-71.5 196.5q0 142 105.5 241t281.5 99q147 0 291 -78l86 16l-55 -319l-6 2l-78 264q-39 42 -98.5 69
t-126.5 27q-122 0 -197.5 -70t-75.5 -180q0 -90 54 -152.5t194 -144.5q147 -87 223 -172.5t76 -203.5q0 -77 -31.5 -148t-88 -126.5t-144 -88.5t-191.5 -33z" />
    <glyph glyph-name="T" unicode="T" horiz-adv-x="1294" 
d="M268 0l6 12l105 8q102 8 106 33l254 1209h-157q-58 -4 -111.5 -28.5t-98.5 -67t-81 -89t-74 -108.5l-16 -27h-11l107 338h1059l-37 -338h-8l-4 25q-24 159 -83.5 223t-181.5 72h-141l-258 -1215q-1 -8 5.5 -12.5t32 -8.5t77.5 -8l78 -6l2 -12h-570z" />
    <glyph glyph-name="U" unicode="U" horiz-adv-x="1353" 
d="M694 -31q-146 0 -254 35t-171.5 111.5t-63.5 187.5q0 76 22 172l160 758q1 8 -5.5 12.5t-32 8.5t-77.5 8l-77 6l-2 12h569l-8 -12l-103 -8q-102 -8 -106 -33l-158 -748q-18 -89 -18 -155q0 -149 97.5 -223t281.5 -74q159 0 255 100t140 313l162 758q3 15 -9.5 27.5
t-49 23t-95.5 15.5l-37 4l-2 12h424l-8 -12l-39 -4q-149 -16 -160 -70l-164 -762q-48 -234 -160.5 -348.5t-310.5 -114.5z" />
    <glyph glyph-name="V" unicode="V" horiz-adv-x="1282" 
d="M541 -29l-181 1096q-21 124 -34 150q-16 34 -58 42q-15 3 -39 5l-57 4l-2 12h520l-8 -12l-66 -2q-72 -3 -96 -26.5t-12 -92.5l149 -942h2l449 790q82 142 95 176q19 53 -16 71q-30 16 -118 22l-53 4l-2 12h440l-8 -12l-31 -4q-97 -12 -145.5 -68t-209.5 -334
q-5 -8 -7 -12l-498 -879h-14z" />
    <glyph glyph-name="W" unicode="W" horiz-adv-x="1984" 
d="M547 -29l-185 1096q-21 129 -40.5 160t-94.5 37l-57 4v12h524l-8 -12l-63 -2q-70 -3 -96.5 -27t-16.5 -92l154 -950h4l436 747l-21 123q-9 49 -13.5 71t-12.5 49.5t-15.5 37t-22 20.5t-31.5 14t-44 5l-55 4l-2 12h522l-8 -12l-64 -2q-72 -3 -97 -28t-15 -93l145 -946h4
l443 802q21 37 34.5 60.5t26 49.5t18.5 41t9.5 31.5t1.5 25t-9.5 18.5t-18.5 14.5t-29 9.5t-38.5 7.5t-50.5 5.5l-41 4l-2 12h436l-8 -12l-30 -4q-34 -4 -54 -8.5t-45 -21t-41 -34t-46.5 -63.5t-57 -91t-76.5 -133l-520 -942h-16l-150 934h-4l-545 -934h-14z" />
    <glyph glyph-name="X" unicode="X" horiz-adv-x="1298" 
d="M-111 0l7 12l45 4q54 4 85.5 12t75.5 40t85.5 75.5t127.5 139.5l303 344l-194 436q-56 123 -85.5 160t-88.5 41l-49 4l-4 12h508l-9 -12l-65 -2q-72 -2 -82.5 -35t33.5 -139l157 -351l2 -2l242 277q119 136 135 178q15 39 -28 54q-27 9 -99 16l-47 4l-2 12h479l-8 -12
l-41 -4q-55 -4 -84 -10.5t-71.5 -35.5t-84.5 -73t-126 -137l-254 -289q-1 0 61.5 -140t124.5 -281l63 -140q38 -85 63 -111.5t85 -30.5l47 -4l4 -12h-504l6 12l68 2q69 3 84.5 29t-12.5 86l-213 475h-2l-287 -330q-120 -136 -139 -180q-19 -45 27 -62q28 -10 94 -16l45 -4
l2 -12h-480z" />
    <glyph glyph-name="Y" unicode="Y" horiz-adv-x="1249" 
d="M246 0l6 12l104 8q103 8 107 33l110 522l-190 537q-31 88 -59 118t-95 34l-55 4l-2 12h533l-9 -12l-59 -2q-82 -3 -98 -33.5t14 -112.5l174 -495h4l273 366q109 151 125 192q18 44 -18 60q-25 11 -103 19l-47 6l-3 12h447l-8 -12l-43 -4q-80 -6 -137.5 -54.5
t-186.5 -218.5l-295 -397l-114 -547q-1 -8 5 -12.5t31.5 -8.5t77.5 -8l78 -6l2 -12h-569z" />
    <glyph glyph-name="Z" unicode="Z" horiz-adv-x="1150" 
d="M-25 0l2 8l1059 1249v5h-340q-75 0 -136.5 -16.5t-106 -44t-84 -71.5t-66.5 -88t-57 -106l-13 -25h-10l88 369h926l-2 -8l-1057 -1245l-2 -4l363 -3q84 0 151.5 17.5t117 46t93 78t75 100.5t68.5 125l15 29h14l-129 -416h-969z" />
    <glyph glyph-name="bracketleft" unicode="[" horiz-adv-x="626" 
d="M-94 -506l381 1786h499l-4 -20h-477l-371 -1745h478l-6 -21h-500z" />
    <glyph glyph-name="backslash" unicode="\" horiz-adv-x="475" 
d="M418 -506l-430 1796h20l430 -1796h-20z" />
    <glyph glyph-name="bracketright" unicode="]" horiz-adv-x="626" 
d="M-184 -506l6 21h477l371 1745h-477l4 20h499l-381 -1786h-499z" />
    <glyph glyph-name="asciicircum" unicode="^" horiz-adv-x="757" 
d="M236 983l335 385h11l176 -385h-13l-190 231h-6l-303 -231h-10z" />
    <glyph glyph-name="underscore" unicode="_" horiz-adv-x="913" 
d="M-61 -57l12 59h819v-59h-831z" />
    <glyph glyph-name="grave" unicode="`" horiz-adv-x="757" 
d="M569 1006l-282 383h147l150 -383h-15z" />
    <glyph glyph-name="a" unicode="a" horiz-adv-x="872" 
d="M567 -25q-31 0 -74.5 36.5t-43.5 68.5q0 62 90 291h-4q-138 -224 -192 -289q-84 -105 -157 -105q-69 0 -117.5 53.5t-48.5 137.5q0 79 29.5 168t78.5 169t101 146.5t107 122.5q50 52 106 81.5t105 29.5t73 -43.5t23 -151.5h4l70 207l131 -8l-160 -440l-123 -383l103 -13
l141 226l12 -7q-142 -297 -254 -297zM256 78q108 0 307 399q21 41 37 92t16 78q0 60 -44 110t-109 50q-56 0 -105 -49q-74 -76 -136 -241t-62 -290q0 -72 28 -110.5t68 -38.5z" />
    <glyph glyph-name="b" unicode="b" horiz-adv-x="825" 
d="M262 -31q-47 0 -90.5 14t-78.5 42.5t-46.5 73.5t4.5 106l314 1052q5 17 2 32.5t-13 15.5l-164 6l5 12l340 35l-41 -131q-64 -210 -116.5 -370.5t-100 -298.5t-50.5 -148q-7 -20 -2 -20q4 1 11 13q117 268 209.5 380t177.5 112q77 0 126.5 -63t49.5 -162
q0 -127 -73.5 -287t-197.5 -283q-61 -61 -132.5 -96t-133.5 -35zM299 0q65 0 135 70q93 93 159 258t66 305q0 82 -28.5 123t-79.5 41q-71 0 -155.5 -126.5t-162.5 -324.5q-59 -142 -59 -217q0 -58 38.5 -93.5t86.5 -35.5z" />
    <glyph glyph-name="c" unicode="c" horiz-adv-x="677" 
d="M264 -25q-109 0 -175 83t-66 200q0 108 44.5 224t114.5 206.5t163 149.5t183 59q76 0 133.5 -42t57.5 -103q0 -42 -26.5 -71.5t-61.5 -29.5q-32 0 -59 22.5t-27 53.5q0 61 71 96q-2 2 -14 13.5t-16.5 15t-16 10.5t-23 9.5t-26.5 2.5q-78 0 -158 -77q-80 -84 -138 -228.5
t-58 -273.5q0 -110 40.5 -169.5t117.5 -59.5q76 0 135 48t133 169l14 -7q-37 -64 -71.5 -113t-78 -94t-92.5 -69.5t-100 -24.5z" />
    <glyph glyph-name="d" unicode="d" horiz-adv-x="872" 
d="M567 -25q-31 0 -74.5 36.5t-43.5 68.5q0 56 88 291h-5q-137 -224 -189 -289q-85 -104 -157 -105q-69 0 -117.5 53.5t-48.5 137.5q0 79 29.5 168.5t78.5 170t101 147.5t107 122q114 117 209 117q91 0 94 -209h4l174 573q8 48 -10 48l-205 6l4 12l381 35l-246 -742
l-176 -550l103 -13l141 223l12 -6q-143 -295 -254 -295zM256 78q56 0 135 104.5t162 274.5q63 126 63 190q0 59 -44.5 110.5t-108.5 51.5q-56 0 -105 -49q-74 -74 -136 -241t-62 -294q0 -71 28 -109t68 -38z" />
    <glyph glyph-name="e" unicode="e" horiz-adv-x="694" 
d="M264 -25q-109 0 -175 83t-66 200q0 88 28 181.5t77 174t110 145t133.5 101.5t142.5 37q87 0 143 -39.5t56 -103.5q0 -98 -126.5 -162.5t-389.5 -108.5q-31 -105 -31 -188q0 -110 42.5 -169.5t123.5 -59.5q75 0 134.5 48.5t133.5 168.5l14 -7q-170 -301 -350 -301z
M207 502q210 38 292.5 97.5t82.5 166.5q0 48 -22 78t-66 30q-57 0 -129 -69q-46 -46 -90 -128t-72 -173z" />
    <glyph glyph-name="f" unicode="f" horiz-adv-x="507" 
d="M-162 -369q-69 0 -111 31.5t-42 79.5q0 36 25.5 63t62.5 27q32 0 56 -23.5t25 -58.5t-30 -76q42 -18 61 -18q53 0 88.5 45t75 178t92.5 400l105 524l-160 4l25 61l155 2q69 278 183 392q90 94 221 94q72 0 119 -33.5t47 -85.5q0 -38 -28.5 -64t-62.5 -26q-38 0 -60.5 24
t-17 63t43.5 75q-37 26 -74 26q-87 0 -138.5 -105.5t-103.5 -359.5l203 -2l-25 -65h-190l-123 -529q-55 -232 -109.5 -366t-125.5 -205q-69 -72 -187 -72z" />
    <glyph glyph-name="g" unicode="g" horiz-adv-x="753" 
d="M213 -485q-174 0 -292 65.5t-118 163.5q0 76 95.5 149.5t226.5 108.5v4q-74 33 -108.5 66.5t-34.5 81.5q0 54 64.5 104t141.5 64l2 4q-96 86 -96 223q0 133 100.5 239.5t227.5 106.5q85 0 153 -68l259 47l-23 -104l-221 45v-4q78 -92 78 -201q0 -81 -49.5 -159.5
t-129 -127.5t-161.5 -49q-64 0 -115 33q-53 -6 -90 -36.5t-37 -63.5t42.5 -58.5t166.5 -66.5l37 -12q150 -51 234.5 -115t84.5 -152q0 -117 -130 -202.5t-308 -85.5zM307 293q64 0 121 57q60 62 92.5 164.5t32.5 208.5q0 67 -29.5 109t-74.5 42t-101 -53q-61 -61 -99 -169.5
t-38 -202.5q0 -93 37 -130q26 -26 59 -26zM272 -463q116 0 195.5 58.5t79.5 138.5q0 38 -21 70.5t-61 59t-85 47t-104 40.5q-69 23 -120 41q-107 -28 -168.5 -86t-61.5 -133q0 -102 96 -169t250 -67z" />
    <glyph glyph-name="h" unicode="h" horiz-adv-x="872" 
d="M573 -25q-32 0 -83.5 29t-51.5 49q0 10 22 67t64 162t66 167q10 26 27 69.5t28.5 73.5t23.5 63t18.5 54t6.5 30q0 29 -27 50.5t-61 21.5q-50 0 -173.5 -174.5t-252.5 -448.5l-76 -194l-133 10l117 336q52 156 121 385.5t113 380.5l43 151q5 17 2 32.5t-13 15.5l-164 6
l5 12l337 35l-38 -131q-109 -376 -173 -577t-126 -351l12 -4q83 163 183 316t157 210q69 72 143 72q48 0 91.5 -38.5t43.5 -84.5q0 -59 -106 -321l-154 -383l105 -13l143 223l12 -6q-71 -147 -139 -221t-113 -74z" />
    <glyph glyph-name="i" unicode="i" horiz-adv-x="481" 
d="M475 1085q-39 0 -61.5 25t-22.5 64q0 47 28 82.5t62 35.5q39 0 63.5 -24.5t22.5 -61.5q0 -49 -28 -85t-64 -36zM180 -25q-32 0 -88.5 27t-56.5 45q0 14 65.5 185t139.5 358.5t84 216.5l-117 10l-139 -221l-13 6q144 295 279 295q36 0 65 -42.5t29 -92.5q0 -28 -58.5 -180
t-129 -322.5t-78.5 -191.5l114 -15l144 223l12 -6q-71 -147 -139 -221t-113 -74z" />
    <glyph glyph-name="j" unicode="j" horiz-adv-x="440" 
d="M471 1083q-39 0 -62.5 24.5t-23.5 63.5q0 47 28 83t62 36q40 0 64 -24t24 -62q-1 -49 -29 -85t-63 -36zM-244 -510q-46 0 -82 29.5t-36 72.5q0 31 22.5 55.5t58.5 24.5q33 0 56.5 -20.5t25 -54.5t-33.5 -78l98 35q47 50 87.5 142t90.5 253l264 860l-106 8l-146 -221
l-12 6q144 295 279 295q36 0 65 -42.5t29 -92.5q0 -46 -81.5 -292.5t-156.5 -436.5q-68 -170 -125.5 -279t-120.5 -172q-36 -38 -85 -65t-91 -27z" />
    <glyph glyph-name="k" unicode="k" horiz-adv-x="827" 
d="M555 -25q-65 0 -113 41q-14 294 -20 343q-12 98 -48 119q-19 11 -46 11q-42 0 -72 -24l-152 -471l-135 10q34 85 119 336q52 156 121 385.5t113 380.5l43 151q5 15 2 31.5t-13 16.5l-164 6l5 12l335 35l-38 -131q-109 -372 -224 -727q11 2 33.5 4t24.5 2
q174 66 250.5 113.5t99.5 95.5l-2 4q-31 9 -51.5 34t-20.5 58q0 31 26.5 57.5t59.5 26.5q34 0 60 -26t26 -64q0 -32 -12 -60t-43 -60.5t-94 -67.5t-156 -70l-96 -41q51 -6 85.5 -35.5t57 -89t35 -133.5t22.5 -187l68 -6l133 240l10 -4q-58 -146 -117.5 -231t-111.5 -85z" />
    <glyph glyph-name="l" unicode="l" horiz-adv-x="436" 
d="M135 -25q-32 0 -85 28t-50 46l365 1208q5 17 2 32.5t-13 15.5l-164 6l5 12l337 35l-405 -1292l98 -13l144 223l12 -6q-72 -149 -136.5 -222t-109.5 -73z" />
    <glyph glyph-name="m" unicode="m" horiz-adv-x="1359" 
d="M1067 -25q-32 0 -86.5 29t-54.5 49q0 10 20.5 65t65.5 167.5t65 163.5q11 29 43.5 110t47 122.5t14.5 55.5q0 28 -34 52t-69 24q-46 0 -155.5 -169.5t-243.5 -455.5l-72 -194l-135 10l94 281q24 72 66.5 183t68 181.5t25.5 85.5q0 31 -27 54.5t-61 23.5
q-47 0 -158.5 -170.5t-244.5 -454.5l-74 -194l-135 10l116 338l142 469l-97 8l-139 -223l-12 6q75 155 138.5 226t123.5 71q31 0 65.5 -44t34.5 -91q0 -43 -43 -175.5t-108 -287.5l12 -4q215 421 318 524q33 33 74.5 53.5t72.5 20.5q47 0 89 -43.5t42 -95.5q0 -22 -9 -57
t-36.5 -106t-41.5 -105t-58 -141q-13 -30 -19 -46l13 -4q226 435 315 524q33 33 74.5 53.5t72.5 20.5q47 0 95.5 -40.5t48.5 -86.5q0 -59 -105 -319l-153 -383l102 -13l145 226l13 -7q-73 -150 -137.5 -223.5t-108.5 -73.5z" />
    <glyph glyph-name="n" unicode="n" horiz-adv-x="927" 
d="M635 -25q-32 0 -87.5 29t-55.5 49q0 10 20.5 65t65.5 167.5t65 163.5q12 32 44 111.5t47.5 122.5t15.5 58q0 29 -28.5 50.5t-62.5 21.5q-49 0 -171.5 -175t-251.5 -450l-74 -194l-135 10l116 338l142 469l-97 8l-139 -223l-12 6q144 297 268 297q30 0 62 -43.5t32 -91.5
q0 -44 -42 -178t-105 -285l8 -4q86 165 185.5 318t154.5 208q69 72 145 72q47 0 91.5 -38.5t44.5 -84.5q0 -58 -107 -323l-153 -383l102 -13l145 226l13 -7q-73 -150 -137.5 -223.5t-108.5 -73.5z" />
    <glyph glyph-name="o" unicode="o" horiz-adv-x="770" 
d="M289 -23q-117 0 -183.5 102.5t-66.5 246.5q0 126 65 259.5t165.5 220.5t197.5 87q115 0 190.5 -102t75.5 -259q0 -130 -66 -260t-170 -212.5t-208 -82.5zM264 0q88 0 170 101t129 255q19 59 30 143t11 148q0 108 -27.5 164.5t-78.5 56.5q-75 0 -159.5 -124t-135.5 -285
q-19 -59 -31 -132.5t-12 -123.5q0 -93 28.5 -148t75.5 -55z" />
    <glyph glyph-name="p" unicode="p" horiz-adv-x="856" 
d="M-236 -518l7 12l39 2q52 3 69 8t21 21l385 1284l-97 8l-139 -221l-12 6q138 295 262 295q32 0 64 -45.5t32 -89.5q0 -54 -37 -146h11q122 277 282 277q79 0 127.5 -79.5t48.5 -207.5q0 -150 -68 -297t-179.5 -240.5t-229.5 -93.5q-103 0 -143 125h-4l-172 -579
q-2 -7 7 -12t35 -8.5t72 -4.5l64 -2l2 -12h-447zM350 -6q61 0 133 72q89 89 148 250.5t59 289.5q0 98 -31 149.5t-84 51.5q-48 0 -97.5 -51t-93 -137.5t-80.5 -185.5t-68 -210q-11 -50 -11 -86q0 -49 36.5 -96t88.5 -47z" />
    <glyph glyph-name="q" unicode="q" horiz-adv-x="841" 
d="M92 -518l6 12l68 2q60 1 80.5 10t25.5 25q6 19 81.5 261t95.5 302q6 19 23.5 76t34.5 111.5t32 91.5h-4q-36 -59 -55 -90t-49 -77.5t-47 -69.5t-41 -54.5t-41 -46.5t-38 -30.5t-39.5 -21.5t-38.5 -6q-69 0 -117.5 53.5t-48.5 137.5q0 79 29.5 168.5t78.5 170t101 147.5
t107 122q114 117 209 117q91 0 94 -209h4l68 190l131 -8l-154 -417l-289 -924q-2 -7 4 -12t21 -8.5t32.5 -5t45.5 -3.5l35 -2l6 -12h-451zM256 78q56 0 135 104.5t162 274.5q63 126 63 190q0 59 -44.5 110.5t-108.5 51.5q-56 0 -105 -49q-74 -74 -136 -241t-62 -294
q0 -71 28 -109t68 -38z" />
    <glyph glyph-name="r" unicode="r" horiz-adv-x="755" 
d="M164 -6l-137 10l123 338l135 469l-97 8l-139 -223l-12 6q75 155 138.5 226t123.5 71q31 0 65.5 -44t34.5 -91q0 -72 -120 -393h6q118 224 180 328.5t106 146.5q30 28 55.5 41t59.5 12q55 -3 88 -40.5t31 -84.5q-3 -42 -33 -70t-65 -26q-33 2 -55 25t-18 58t42 66l-53 23
q-29 -15 -56 -45.5t-99.5 -150t-195.5 -347.5z" />
    <glyph glyph-name="s" unicode="s" horiz-adv-x="616" 
d="M231 -25q-101 0 -175 49t-74 128q0 40 25.5 68t60.5 28q31 0 52 -23t21 -55q0 -28 -20.5 -58.5t-44.5 -41.5q27 -29 77.5 -52.5t96.5 -23.5q59 0 99.5 31.5t55.5 71t15 81.5q0 16 -4.5 33t-9 29.5t-16 29t-18 25.5t-23 26.5t-23 23.5t-26 24.5t-24.5 23.5q-43 43 -64 66
t-46 57t-35.5 65.5t-11.5 67.5q0 102 86.5 174t189.5 72q95 0 154.5 -41t60.5 -121q0 -42 -26 -67t-60 -25q-32 0 -52.5 23t-20.5 57q0 29 19 55t46 37q-61 61 -127 61q-80 0 -121 -52.5t-41 -119.5q1 -26 9.5 -49.5t29 -50t35 -42t45.5 -46.5l12 -12q2 -2 22 -21t24 -23.5
t22 -23t23.5 -25.5t20.5 -25t20 -28.5t15 -28t14 -31.5t7.5 -31t3.5 -34q0 -105 -93.5 -180.5t-205.5 -75.5z" />
    <glyph glyph-name="t" unicode="t" horiz-adv-x="526" 
d="M193 -25q-21 0 -62.5 13t-75.5 31.5t-30 31.5l225 752l-152 4l25 61l149 2l84 273h136l-82 -273l172 -2l-9 -65h-184l-235 -737l131 -13l139 223l12 -6q-71 -149 -134.5 -222t-108.5 -73z" />
    <glyph glyph-name="u" unicode="u" horiz-adv-x="927" 
d="M623 -27q-30 0 -61.5 44t-31.5 92q0 44 42 179t104 285l-8 5q-87 -168 -185.5 -321.5t-152.5 -207.5q-69 -72 -146 -72q-47 0 -91 38.5t-44 84.5q0 59 107 324l151 385l-104 10l-142 -225l-12 6q73 150 137.5 223.5t108.5 73.5q32 0 87.5 -29t55.5 -49q0 -10 -21 -65.5
t-65 -166t-65 -163.5q-11 -29 -44 -111.5t-48 -125t-15 -56.5q0 -29 28 -50.5t62 -21.5q49 0 172 174.5t252 448.5l74 197l133 -11l-117 -338l-143 -467l96 -10l142 223l12 -6q-141 -297 -268 -297z" />
    <glyph glyph-name="v" unicode="v" horiz-adv-x="770" 
d="M248 -25q-74 0 -130.5 60t-56.5 141q0 52 28 121.5t56.5 118t104.5 167t112 177.5l-192 49l-121 -205l-10 6q75 159 127 227t98 68q39 0 105.5 -12t66.5 -21q0 -17 -39 -84.5t-86 -145t-86 -178.5t-39 -177q0 -97 47 -154t117 -57q72 0 155 108.5t141 264t67 288.5
q-51 -19 -91 7.5t-40 68.5q0 33 25.5 59.5t60.5 26.5q46 0 73 -35.5t27 -89.5q0 -101 -96 -330.5t-215 -355.5q-101 -113 -209 -113z" />
    <glyph glyph-name="w" unicode="w" horiz-adv-x="1138" 
d="M190 -25q-55 0 -94 50.5t-39 121.5q0 57 37 138.5t83.5 152t107 164t90.5 154.5l-201 53l-125 -205l-10 6q74 158 129.5 226.5t105.5 68.5q39 0 113 -13t74 -20q0 -18 -43.5 -93t-95 -160.5t-95 -188t-43.5 -168.5q0 -156 107 -156q46 0 105.5 57t121.5 154.5t112 187
t101 193.5q0 1 -8 6t-20 14t-24.5 21t-21 30t-8.5 38q0 40 24.5 64t65.5 24q32 0 56 -26.5t24 -61.5q0 -31 -16 -63t-37 -58.5t-50 -75t-48 -102.5q-31 -84 -43.5 -136.5t-12.5 -107.5q0 -78 36 -118t102 -40q77 0 154.5 96.5t125 242.5t47.5 284q-51 -11 -83.5 16t-32.5 64
q0 34 25 62t58 28q38 0 66.5 -30.5t28.5 -73.5q0 -72 -37.5 -207.5t-108.5 -287t-149 -230.5q-47 -48 -84.5 -71.5t-83.5 -23.5q-54 0 -91.5 48.5t-37.5 109.5q0 46 15.5 110.5t28 101t44.5 124.5q-44 -75 -75.5 -127t-73 -114.5t-76 -103.5t-72.5 -77.5t-75 -54t-73 -17.5z
" />
    <glyph glyph-name="x" unicode="x" horiz-adv-x="860" 
d="M76 -25q-50 0 -85.5 31t-35.5 78q0 39 24.5 64.5t59.5 25.5q44 0 59 -40.5t-16 -74.5q0 -10 16.5 -21.5t30.5 -10.5q50 3 115 101.5t131 260.5q-34 246 -50 310q-27 106 -65 106h-67l-89 -166l-16 6q54 131 111.5 191.5t105.5 60.5q36 0 65 -26.5t50 -76t35.5 -105
t27.5 -128.5h4q78 192 131.5 264t137.5 72q48 0 83 -30.5t35 -75.5q0 -39 -24 -65t-57 -26q-42 0 -60 40.5t10 68.5q0 9 -15 18t-30 9q-47 -3 -97 -82t-109 -230q5 -34 13.5 -93t13.5 -94.5t13 -83.5t15.5 -76.5t17.5 -56.5t21.5 -41t25.5 -13l66 2l90 163l16 -6
q-55 -130 -111.5 -190t-105.5 -60q-39 0 -70 29.5t-52.5 86t-36 116.5t-27.5 141h-4q-90 -211 -151.5 -292t-149.5 -81z" />
    <glyph glyph-name="y" unicode="y" horiz-adv-x="841" 
d="M-55 -373q-85 0 -128.5 31.5t-41.5 87.5q0 36 26.5 61t63.5 25q54 0 74 -49t-15 -107q64 -18 78 -20q108 17 215 96.5t203 202.5q-19 459 -68.5 663.5t-140.5 204.5h-37l-123 -227l-14 6q81 174 111 217q47 71 107 79q10 1 21 1q84 0 136.5 -73t82 -246.5t37.5 -470.5
q0 5 5 0q211 390 208 679q-39 -35 -73.5 -32.5t-57.5 24.5t-24 47q-3 36 21 61t63 25q44 0 73 -35t29 -102q0 -219 -125.5 -492.5t-310.5 -455.5q-204 -201 -395 -201z" />
    <glyph glyph-name="z" unicode="z" horiz-adv-x="714" 
d="M442 -45q-42 4 -84.5 25.5t-77 49.5t-66.5 55.5t-64.5 46.5t-59.5 20h-14l-47 -175q-31 6 -56.5 28t-25.5 48q0 39 29 65.5t63 33.5l528 542q-46 -11 -94.5 6t-80 43.5t-69 61.5t-53.5 45q-10 5 -57 -45q-35 -37 -25 -37q35 -3 55.5 -25t20.5 -53q0 -34 -23 -58t-59 -24
q-33 0 -53 22t-20 58q0 66 87.5 135.5t165.5 77.5q38 -5 67.5 -19.5t46.5 -33.5t31 -40.5t23 -39.5t20.5 -32t24.5 -17l13 2l47 180q31 -9 55.5 -29t24.5 -47q-1 -37 -32 -68t-62 -36l-529 -545q31 8 62.5 9t61.5 -5t58.5 -15t56.5 -23t52 -28t48.5 -31t43 -31t37.5 -29
q9 -7 14 -11t23.5 15t33 39.5t9.5 21.5q-34 3 -57 30t-23 58q0 35 24 57.5t62 22.5q32 0 52 -25.5t20 -62.5q0 -67 -79.5 -136t-148.5 -77z" />
    <glyph glyph-name="braceleft" unicode="{" horiz-adv-x="626" 
d="M430 -520q-172 29 -266 122t-66 224q20 90 89 229t83 201q18 80 -48.5 125.5t-217.5 73.5l-4 10l10 8q66 -1 116.5 3.5t100 18t80 42t39.5 71.5q12 55 9 138t-6 147.5t16 161.5q30 130 158 197.5t306 58.5v-11q-164 -3 -238.5 -47t-96.5 -143q-15 -66 -9 -213.5
t-12 -232.5q-21 -93 -118 -144.5t-246 -60.5l-3 -10q140 -39 211 -108.5t50 -166.5q-18 -83 -86.5 -224t-83.5 -208q-22 -97 31.5 -155t207.5 -97z" />
    <glyph glyph-name="bar" unicode="|" horiz-adv-x="313" 
d="M147 -424v1796h19v-1796h-19z" />
    <glyph glyph-name="braceright" unicode="}" horiz-adv-x="626" 
d="M-188 -512v10q164 4 238.5 49t96.5 144q13 57 3 142t-20.5 150.5t5.5 157.5q21 95 118 147t245 60l2 10q-139 38 -209 108.5t-49 166.5q15 67 59 145t87 151.5t56 129.5q22 97 -32 155.5t-209 96.5l6 8q173 -27 266.5 -119t65.5 -223q-16 -72 -60.5 -150t-87 -150
t-55.5 -128q-9 -41 6 -73.5t53.5 -56t87.5 -40t117 -29.5l4 -8l-10 -8q-71 1 -123 -4t-98.5 -19t-75 -42t-37.5 -70q-12 -55 -1.5 -139t20.5 -149.5t-7 -162.5q-30 -131 -157.5 -200t-304.5 -60z" />
    <glyph glyph-name="asciitilde" unicode="~" horiz-adv-x="757" 
d="M512 307q-36 0 -83 19t-85.5 42.5t-81 42.5t-69.5 19q-42 0 -68.5 -20.5t-40.5 -85.5h-12q27 110 62 156t99 46q44 0 106.5 -31t121 -61.5t92.5 -30.5q41 0 68 22.5t41 84.5h14q-29 -110 -64.5 -156.5t-99.5 -46.5z" />
    <glyph glyph-name="nbspace" unicode="&#xa0;" horiz-adv-x="266" 
 />
    <glyph glyph-name="exclamdown" unicode="&#xa1;" horiz-adv-x="481" 
d="M399 1090q-45 0 -74.5 29.5t-29.5 70.5q0 43 29.5 74.5t74.5 31.5q44 0 75.5 -32t31.5 -74q0 -40 -31.5 -70t-75.5 -30zM135 -41q-26 3 -42 12t-22.5 20t-6.5 28.5t3 30t9 32.5l256 805q1 4 5 5t7 -1t2 -6l-98 -822q-3 -20 -5.5 -32t-10 -29t-18.5 -26t-30 -14.5
t-45 -2.5h-4z" />
    <glyph glyph-name="cent" unicode="&#xa2;" horiz-adv-x="677" 
d="M190 -12q-76 26 -121.5 100.5t-45.5 167.5q0 109 44.5 225t114.5 206.5t163 149t183 58.5q50 0 90 -18l175 360h24q-178 -369 -178 -371q80 -43 80 -116q0 -42 -26.5 -70.5t-61.5 -28.5q-22 0 -44 11.5t-32 29.5l-295 -614q27 -12 64 -12q76 0 135 48t133 167l14 -7
q-37 -63 -71.5 -111.5t-78 -93.5t-92.5 -69.5t-100 -24.5q-23 0 -51 7l-145 -304h-25zM545 721v4q0 45 37 74l18 39q-34 34 -80 34q-78 0 -158 -77q-80 -82 -138 -226.5t-58 -275.5q0 -153 74 -203q19 40 50.5 105.5t98.5 204t111.5 230.5t44.5 91z" />
    <glyph glyph-name="sterling" unicode="&#xa3;" horiz-adv-x="1060" 
d="M387 596h-229l6 20h221q0 13 -1 41t-1 43q0 115 36 222t100 189t159.5 131.5t206.5 49.5q108 0 173.5 -41.5t65.5 -105.5q0 -39 -26.5 -67.5t-65.5 -28.5q-43 0 -64.5 30.5t-15.5 71t35 68.5q-40 51 -131 51q-103 0 -182.5 -72t-106.5 -201q-15 -67 -21 -209.5t-9 -171.5
h262l4 -20h-268q-2 -48 -17 -123q-31 -146 -145 -299q14 -4 72 -22t81 -24t67 -17t76 -15t62 -4q87 0 141 50t89 177l12 -2q-30 -155 -118.5 -246t-197.5 -91q-52 0 -99.5 9.5t-94.5 31.5t-75 37.5t-77 45.5q-124 -127 -239 -127q-52 0 -86.5 31t-34.5 74q0 60 47 100.5
t129 40.5q84 0 213 -39q63 107 63 201q0 36 -2.5 70t-7.5 79t-6 62zM291 117q-118 73 -203 73q-53 0 -85 -31t-32 -77q0 -36 29 -62t72 -26q115 0 219 123z" />
    <glyph glyph-name="currency" unicode="&#xa4;" horiz-adv-x="886" 
d="M758 436l-17 -16l-116 115q-78 -71 -182.5 -71t-182.5 71l-117 -115l-16 16l115 117q-70 77 -70 182t70 183l-115 116l16 17l117 -115q77 70 182.5 70t182.5 -70l116 115l17 -17l-115 -116q71 -78 71 -183t-71 -182zM268 561q72 -72 174 -72t174 72t72 174t-72 174
t-174 72t-174 -72t-72 -174t72 -174z" />
    <glyph glyph-name="yen" unicode="&#xa5;" horiz-adv-x="1218" 
d="M569 602h-379l-6 21h379l-178 489q-31 87 -59.5 117.5t-94.5 34.5l-53 4l-2 12h531l-9 -12l-61 -2q-81 -3 -96.5 -35t14.5 -111l166 -473h6l272 367q43 59 67.5 94t37 64.5t12.5 43t-17.5 24t-40 14t-67.5 8.5l-47 6l-2 12h444l-8 -12l-47 -4q-57 -4 -90 -19.5t-80 -65.5
t-135 -167l-291 -389h371l-6 -21h-371l-51 -244h366l5 -20h-375l-62 -291q-1 -8 5.5 -12.5t32 -8.5t77.5 -8l78 -6l2 -12h-571l6 12l104 8q103 8 107 33l59 285h-385l8 20h381z" />
    <glyph glyph-name="brokenbar" unicode="&#xa6;" horiz-adv-x="313" 
d="M147 598v686h19v-686h-19zM147 -315v686h19v-686h-19z" />
    <glyph glyph-name="section" unicode="&#xa7;" horiz-adv-x="790" 
d="M281 -90q-103 0 -173.5 44t-70.5 103q0 38 22.5 64t59.5 26q38 0 55.5 -29t8 -64.5t-41.5 -53.5q21 -34 61.5 -53t86.5 -19q84 0 139 53.5t55 110.5q0 70 -53.5 136t-150.5 139q-96 69 -150.5 136.5t-54.5 149.5q0 88 71 160.5t168 104.5q-41 52 -41 137
q0 101 83.5 179.5t209.5 78.5q98 0 166 -47t68 -107q0 -33 -25 -57.5t-61 -24.5q-40 0 -58 29t-9 65t40 54q-40 69 -133 69q-81 0 -130.5 -53.5t-49.5 -116.5q0 -68 52.5 -127t152.5 -131q97 -71 152.5 -139t55.5 -149q0 -89 -71.5 -160.5t-175.5 -110.5q45 -61 45 -145
q0 -101 -90.5 -176.5t-212.5 -75.5zM528 319q65 30 109.5 83t44.5 114q0 59 -43.5 115t-124.5 117q-15 12 -54 40.5t-56 41.5t-41 34.5t-39 40.5q-64 -27 -107 -78t-43 -116q0 -58 41.5 -109.5t124.5 -114.5q72 -53 115.5 -90.5t72.5 -77.5z" />
    <glyph glyph-name="dieresis" unicode="&#xa8;" horiz-adv-x="757" 
d="M690 1042q-42 0 -66 30.5t-24 62.5q0 34 23.5 66t66.5 32t67.5 -32.5t24.5 -65.5q0 -32 -24.5 -62.5t-67.5 -30.5zM362 1042q-43 0 -67.5 30.5t-24.5 62.5q0 33 24.5 65.5t67.5 32.5t67 -32t24 -66q0 -31 -24.5 -62t-66.5 -31z" />
    <glyph glyph-name="copyright" unicode="&#xa9;" horiz-adv-x="1441" 
d="M745 -29q-137 0 -261 53t-213 142.5t-142 213.5t-53 261t53 261t142 214.5t213 143.5t261 53q182 0 336.5 -90t244 -244.5t89.5 -337.5q0 -137 -53 -261t-142.5 -213.5t-213.5 -142.5t-261 -53zM745 -10q132 0 252.5 52t207.5 139t138.5 207.5t51.5 252.5t-51.5 252.5
t-138.5 208.5t-207.5 140t-252.5 52q-176 0 -325.5 -88t-236.5 -238.5t-87 -326.5t87 -326t236.5 -237.5t325.5 -87.5zM764 233q-187 0 -306.5 112t-119.5 290q0 176 120.5 290.5t313.5 114.5q121 0 209 -53l68 31l10 -225h-6l-105 182q-70 53 -180 53q-147 0 -234.5 -108.5
t-87.5 -274.5q0 -175 93 -287t233 -112q68 0 119.5 23.5t85.5 61.5t72 103l30 51h6l-45 -194l-41 -10q-37 -17 -105.5 -32.5t-129.5 -15.5z" />
    <glyph glyph-name="ordfeminine" unicode="&#xaa;" horiz-adv-x="688" 
d="M276 586q-55 0 -92 40.5t-37 106.5q0 119 75 247t171 224q87 90 166 90q37 0 55.5 -34t18.5 -119l4 6l55 158l101 -7l-125 -344l-97 -299l80 -10l111 174l8 -4q-112 -229 -197 -229q-25 0 -58.5 27.5t-33.5 52.5q0 48 70 225h-2q-116 -182 -156 -229q-63 -75 -117 -76z
M330 662q85 0 241 315q41 88 41 133q0 46 -34 84.5t-84 38.5q-43 0 -84 -41q-58 -60 -107 -187t-49 -225q0 -57 22 -87.5t54 -30.5z" />
    <glyph glyph-name="guillemotleft" unicode="&#xab;" horiz-adv-x="813" 
d="M709 106l-330 349l4 14l473 334l6 -8l-327 -353l184 -325zM358 127l-331 328l2 14l469 313l6 -8l-324 -332l189 -307z" />
    <glyph glyph-name="logicalnot" unicode="&#xac;" horiz-adv-x="886" 
d="M831 629v-348h-24v323h-793l6 25h811z" />
    <glyph glyph-name="uni00AD" unicode="&#xad;" horiz-adv-x="573" 
d="M43 459l20 61h490l-21 -61h-489z" />
    <glyph glyph-name="registered" unicode="&#xae;" horiz-adv-x="1441" 
d="M745 -29q-137 0 -261 53t-213 142.5t-142 213.5t-53 261t53 261t142 214.5t213 143.5t261 53q182 0 336.5 -90t244 -244.5t89.5 -337.5q0 -137 -53 -261t-142.5 -213.5t-213.5 -142.5t-261 -53zM745 -10q132 0 252.5 52t207.5 139t138.5 207.5t51.5 252.5t-51.5 252.5
t-138.5 208.5t-207.5 140t-252.5 52q-176 0 -325.5 -88t-236.5 -238.5t-87 -326.5t87 -326t236.5 -237.5t325.5 -87.5zM395 258l4 8l62 6q19 2 39 9.5t20 13.5v702q0 13 -69 17l-50 4l-4 8h316q144 0 220.5 -51.5t76.5 -147.5q0 -68 -54 -121.5t-137 -68.5l178 -272
q37 -54 64 -72.5t74 -24.5l14 -2l4 -8h-203l-8 16l-225 363q-66 12 -99 22v-370q0 -6 24 -11.5t48 -7.5l47 -4l4 -8h-346zM725 655q84 0 132 46t48 130q0 87 -58 134.5t-167 44.5l-62 -2v-330q64 -23 107 -23z" />
    <glyph glyph-name="macron" unicode="&#xaf;" horiz-adv-x="755" 
d="M250 1067l24 51h510l-22 -51h-512z" />
    <glyph glyph-name="degree" unicode="&#xb0;" horiz-adv-x="579" 
d="M420 778q-118 0 -190 77.5t-72 188.5q0 110 72 188.5t188 78.5t188 -78.5t72 -188.5q0 -111 -71.5 -188.5t-186.5 -77.5zM420 803q104 0 166.5 69t62.5 172q0 101 -63.5 171.5t-167.5 70.5t-168 -71t-64 -171q0 -102 64.5 -171.5t169.5 -69.5z" />
    <glyph glyph-name="plusminus" unicode="&#xb1;" horiz-adv-x="886" 
d="M432 172v342h-418l4 25h414v354h25v-354h411l4 -25h-415v-342h-25zM852 76h-817l4 24h809z" />
    <glyph glyph-name="twosuperior" unicode="&#xb2;" horiz-adv-x="532" 
d="M-33 518l-2 8q227 188 291 249q129 123 160 225q12 40 14 81q4 76 -36.5 120t-102.5 44q-48 0 -83.5 -24.5t-76.5 -79.5l-8 6q106 164 237 164q77 0 127.5 -53t49.5 -132q-2 -41 -12.5 -77t-35.5 -72.5t-49.5 -65t-70.5 -69t-81 -69t-100.5 -80.5t-109.5 -89v-2h311
q16 0 49.5 37.5t75.5 108.5l6 10l6 -2l-102 -238h-457z" />
    <glyph glyph-name="threesuperior" unicode="&#xb3;" horiz-adv-x="491" 
d="M176 469q-82 0 -134 22t-52 70q0 24 18 42t45 18q35 0 54 -34.5t-9 -78.5q39 -27 90 -27q83 0 140 66t57 160q0 80 -49 127t-139 47q-20 0 -72 -9l-4 9q168 70 231.5 119t63.5 126q0 53 -34 89t-91 36q-46 0 -89.5 -30t-72.5 -78l-8 6q39 72 100 117t133 45
q68 0 116 -43.5t48 -104.5q0 -71 -58 -124t-179 -95v-4h4q89 -7 143.5 -65.5t54.5 -135.5q0 -104 -93.5 -187t-213.5 -83z" />
    <glyph glyph-name="acute" unicode="&#xb4;" horiz-adv-x="757" 
d="M418 1006l291 383h165l-444 -383h-12z" />
    <glyph glyph-name="mu" unicode="&#xb5;" horiz-adv-x="1003" 
d="M410 -518h-402l6 12l37 2q52 3 69 8t17 21v1300q0 7 -4 10.5t-27 8t-73 8.5l-29 2l-6 12h283v-649q0 -52 33.5 -85.5t74.5 -44.5t88 -11q77 0 132 25t108 73v574q0 62 -19.5 80.5t-83.5 23.5l-28 2l-6 12h282v-739q0 -35 10 -48.5t41 -17.5l80 -12l-2 -10l-272 -72l4 187
h-2q-108 -181 -244 -181q-123 0 -190 133h-6v-581q0 -16 17 -21t69 -8l36 -2z" />
    <glyph glyph-name="mu" unicode="&#x3bc;" horiz-adv-x="1003" 
d="M410 -518h-402l6 12l37 2q52 3 69 8t17 21v1300q0 7 -4 10.5t-27 8t-73 8.5l-29 2l-6 12h283v-649q0 -52 33.5 -85.5t74.5 -44.5t88 -11q77 0 132 25t108 73v574q0 62 -19.5 80.5t-83.5 23.5l-28 2l-6 12h282v-739q0 -35 10 -48.5t41 -17.5l80 -12l-2 -10l-272 -72l4 187
h-2q-108 -181 -244 -181q-123 0 -190 133h-6v-581q0 -16 17 -21t69 -8l36 -2z" />
    <glyph glyph-name="paragraph" unicode="&#xb6;" horiz-adv-x="847" 
d="M614 -63l134 630h-15q-268 0 -424.5 86.5t-156.5 251.5q0 184 138 280.5t380 96.5h252l-287 -1345h-21z" />
    <glyph glyph-name="periodcentered" unicode="&#xb7;" horiz-adv-x="378" 
d="M188 334q-44 0 -75 32.5t-31 75.5q0 40 31 71.5t75 31.5q45 0 75 -31t30 -72q0 -44 -30 -76t-75 -32z" />
    <glyph glyph-name="cedilla" unicode="&#xb8;" horiz-adv-x="757" 
d="M-14 -502l-2 10q169 7 253.5 52.5t84.5 120.5q0 48 -44 72t-116 24q-30 0 -113 -15l4 15l234 211h22l-141 -131q114 10 185 -29t71 -109q0 -58 -35.5 -101.5t-98 -68.5t-138.5 -37.5t-166 -13.5z" />
    <glyph glyph-name="onesuperior" unicode="&#xb9;" horiz-adv-x="446" 
d="M43 518l6 8h41q59 3 62 21l145 696l-123 21l4 6l236 28l-162 -753q-1 -6 2.5 -9.5t19.5 -6.5t45 -3h35l2 -8h-313z" />
    <glyph glyph-name="ordmasculine" unicode="&#xba;" horiz-adv-x="608" 
d="M358 584q-91 0 -142.5 79.5t-51.5 190.5q0 99 50.5 204.5t129 175t154.5 69.5q90 0 148.5 -80t58.5 -201q0 -103 -51.5 -205.5t-133 -167.5t-162.5 -65zM338 600q70 0 134 80.5t101 202.5q33 112 33 227q0 84 -22 129t-62 45q-59 0 -125 -99t-106 -227q-33 -104 -33 -200
q0 -72 21.5 -115t58.5 -43z" />
    <glyph glyph-name="guillemotright" unicode="&#xbb;" horiz-adv-x="813" 
d="M324 127l-5 8l322 330l-188 307l10 8l334 -325l-2 -13zM-35 106l-4 9l328 350l-187 328l11 10l331 -348l-4 -13z" />
    <glyph glyph-name="onequarter" unicode="&#xbc;" horiz-adv-x="1196" 
d="M862 -252l47 217h-319v4l504 572h32l-104 -500h135l-27 -76h-126l-48 -217h-94zM672 41h252l80 373h-3zM43 518l6 8h41q59 3 62 21l145 696l-123 21l4 6l236 28l-162 -753q-1 -6 2.5 -9.5t19.5 -6.5t45 -3h35l2 -8h-313zM-117 -252l1430 1546h33l-1430 -1546h-33z" />
    <glyph glyph-name="onehalf" unicode="&#xbd;" horiz-adv-x="1232" 
d="M627 -252l-2 8q227 188 291 249q129 123 160 225q12 40 14 81q4 76 -37 120t-103 44q-48 0 -83 -24.5t-76 -79.5l-9 6q106 164 238 164q77 0 127 -53t49 -132q-2 -41 -12.5 -77t-35.5 -72.5t-49.5 -65t-70.5 -69t-81 -69t-100.5 -80.5t-109.5 -89v-2h312q16 0 49.5 37
t75.5 108l6 11l6 -2l-103 -238h-456zM43 518l6 8h41q59 3 62 21l145 696l-123 21l4 6l236 28l-162 -753q-1 -6 2.5 -9.5t19.5 -6.5t45 -3h35l2 -8h-313zM-117 -252l1430 1546h33l-1430 -1546h-33z" />
    <glyph glyph-name="threequarters" unicode="&#xbe;" horiz-adv-x="1157" 
d="M825 -252l47 217h-319v4l504 572h33l-105 -500h135l-26 -76h-127l-47 -217h-95zM635 41h252l80 373h-2zM176 469q-82 0 -134 22t-52 70q0 24 18 42t45 18q35 0 54 -34.5t-9 -78.5q39 -27 90 -27q83 0 140 66t57 160q0 80 -49 127t-139 47q-20 0 -72 -9l-4 9
q168 70 231.5 119t63.5 126q0 53 -34 89t-91 36q-46 0 -89.5 -30t-72.5 -78l-8 6q39 72 100 117t133 45q68 0 116 -43.5t48 -104.5q0 -71 -58 -124t-179 -95v-4h4q89 -7 143.5 -65.5t54.5 -135.5q0 -104 -93.5 -187t-213.5 -83zM-156 -252l1432 1546h33l-1432 -1546h-33z
" />
    <glyph glyph-name="questiondown" unicode="&#xbf;" horiz-adv-x="612" 
d="M481 1104q-45 0 -74.5 29.5t-29.5 70.5q0 43 30 75t74 32t75.5 -32.5t31.5 -74.5q0 -40 -31.5 -70t-75.5 -30zM344 -29q-145 0 -231 92.5t-86 223.5q0 123 52.5 190t201.5 121q112 39 157 69.5t45 86.5q0 65 -90 155l13 2q57 -50 98 -112.5t41 -106.5q0 -70 -54 -119.5
t-200 -99.5q-148 -51 -195 -84.5t-47 -93.5q0 -32 16 -62.5t49 -59.5t94.5 -46.5t143.5 -17.5q70 0 121 14q8 -13 8 -37q0 -53 -29 -84t-108 -31z" />
    <glyph glyph-name="Agrave" unicode="&#xc0;" horiz-adv-x="1249" 
d="M764 557h-369l-149 -272q-81 -142 -93 -176q-19 -53 19 -72q29 -15 117 -21l51 -4l2 -12h-440l6 12l33 4q97 12 145 68t209 338q4 7 6 10l401 715l-8 61q73 21 127 95h17l118 -1088q17 -122 41.5 -157.5t96.5 -39.5l57 -6l2 -12h-524l6 12l61 4q63 3 89.5 36t19.5 102z
M410 582h352l-53 526h-7zM823 1348l-282 383h147l150 -383h-15z" />
    <glyph glyph-name="Aacute" unicode="&#xc1;" horiz-adv-x="1249" 
d="M764 557h-369l-149 -272q-81 -142 -93 -176q-19 -53 19 -72q29 -15 117 -21l51 -4l2 -12h-440l6 12l33 4q97 12 145 68t209 338q4 7 6 10l401 715l-8 61q73 21 127 95h17l118 -1088q17 -122 41.5 -157.5t96.5 -39.5l57 -6l2 -12h-524l6 12l61 4q63 3 89.5 36t19.5 102z
M410 582h352l-53 526h-7zM713 1348l291 383h165l-444 -383h-12z" />
    <glyph glyph-name="Acircumflex" unicode="&#xc2;" horiz-adv-x="1249" 
d="M764 557h-369l-149 -272q-81 -142 -93 -176q-19 -53 19 -72q29 -15 117 -21l51 -4l2 -12h-440l6 12l33 4q97 12 145 68t209 338q4 7 6 10l401 715l-8 61q73 21 127 95h17l118 -1088q17 -122 41.5 -157.5t96.5 -39.5l57 -6l2 -12h-524l6 12l61 4q63 3 89.5 36t19.5 102z
M410 582h352l-53 526h-7zM537 1325l335 385h11l176 -385h-12l-191 231h-6l-303 -231h-10z" />
    <glyph glyph-name="Atilde" unicode="&#xc3;" horiz-adv-x="1249" 
d="M764 557h-369l-149 -272q-81 -142 -93 -176q-19 -53 19 -72q29 -15 117 -21l51 -4l2 -12h-440l6 12l33 4q97 12 145 68t209 338q4 7 6 10l401 715l-8 61q73 21 127 95h17l118 -1088q17 -122 41.5 -157.5t96.5 -39.5l57 -6l2 -12h-524l6 12l61 4q63 3 89.5 36t19.5 102z
M410 582h352l-53 526h-7zM950 1360q-45 0 -107.5 31t-120.5 61.5t-91 30.5q-42 0 -68.5 -21t-40.5 -86h-12q27 110 62.5 156.5t99.5 46.5q44 0 106.5 -30.5t120.5 -61.5t92 -31q41 0 68 22.5t41 84.5h14q-29 -110 -64.5 -156.5t-99.5 -46.5z" />
    <glyph glyph-name="Adieresis" unicode="&#xc4;" horiz-adv-x="1249" 
d="M764 557h-369l-149 -272q-81 -142 -93 -176q-19 -53 19 -72q29 -15 117 -21l51 -4l2 -12h-440l6 12l33 4q97 12 145 68t209 338q4 7 6 10l401 715l-8 61q73 21 127 95h17l118 -1088q17 -122 41.5 -157.5t96.5 -39.5l57 -6l2 -12h-524l6 12l61 4q63 3 89.5 36t19.5 102z
M410 582h352l-53 526h-7zM975 1384q-42 0 -66 30.5t-24 62.5q0 34 23.5 66t66.5 32t67.5 -32.5t24.5 -65.5q0 -32 -24.5 -62.5t-67.5 -30.5zM647 1384q-43 0 -67.5 30.5t-24.5 62.5q0 33 24.5 65.5t67.5 32.5t66.5 -32t23.5 -66q0 -32 -24 -62.5t-66 -30.5z" />
    <glyph glyph-name="Aring" unicode="&#xc5;" horiz-adv-x="1249" 
d="M764 559h-367l-153 -274q-81 -142 -93 -178q-17 -52 21 -70q29 -15 117 -21l51 -4l2 -12h-440l6 12l33 4q28 3 44.5 6t38 13.5t33 18t35 35t37.5 48t46 73t56 94t72 126.5l467 838q-54 19 -85.5 66.5t-31.5 107.5q0 76 50.5 130t132.5 54t132 -54t50 -130
q0 -77 -48 -129.5t-128 -55.5l114 -1042q17 -122 41.5 -157.5t96.5 -39.5l57 -6l2 -12h-524l6 12l61 4q63 3 89.5 36t19.5 102zM836 1276q73 0 117 48t44 118q0 69 -44 117.5t-117 48.5t-117.5 -48.5t-44.5 -117.5q0 -70 44.5 -118t117.5 -48zM410 582h352l-53 522h-7z" />
    <glyph glyph-name="AE" unicode="&#xc6;" horiz-adv-x="1718" 
d="M809 559h-373l-186 -235q-132 -167 -150 -194q-43 -64 -21 -86q19 -19 111 -28l54 -4l6 -12h-451l6 12l64 6q36 3 60.5 11t51.5 23.5t63.5 54.5t79 89t116.5 142l678 852q29 37 8 52q-24 17 -121 22l-76 4l-2 12h928l28 -362l-10 -3l-10 29q-18 53 -30 85t-29.5 70
t-34 59.5t-40 43.5t-51 33t-64 18t-81.5 7h-213l-123 -580l148 2q95 3 144.5 18t78 46t59.5 100l13 28l12 -2l-86 -413l-12 2l2 26q3 26 3 45.5t-2 36t-9 28.5t-14.5 21t-23.5 15t-31 10t-41.5 7t-50 4t-61.5 3l-135 5l-131 -631l299 -11q71 1 132 20.5t104.5 47t88.5 76.5
t73.5 89t70.5 105l21 29l10 -2l-160 -385h-1001q-1 0 0.5 3.5t3.5 6.5l2 4l94 9q103 8 107 32zM455 582h358l127 604h-4z" />
    <glyph glyph-name="Ccedilla" unicode="&#xc7;" horiz-adv-x="1374" 
d="M713 -31q-277 12 -444 174t-167 406q0 152 58 291.5t158.5 243.5t244 165.5t305.5 61.5q233 0 389 -111l117 33l-59 -352h-8l-76 293q-42 45 -137.5 80.5t-202.5 35.5q-113 0 -212 -43.5t-172 -119.5t-125.5 -175.5t-79 -213.5t-26.5 -232q0 -238 126.5 -378t351.5 -140
q140 0 245 65t205 193l62 80l8 -2l-123 -301l-70 -5q-59 -19 -150 -34t-179 -15h-17l-121 -112q114 10 185 -29t71 -109q0 -58 -35.5 -101.5t-98 -68.5t-138.5 -37.5t-166 -13.5l-2 10q169 7 253.5 52.5t84.5 120.5q0 48 -44 72t-116 24q-30 0 -112 -15l4 15z" />
    <glyph glyph-name="Egrave" unicode="&#xc8;" horiz-adv-x="1171" 
d="M-45 0l6 12l76 8q106 12 110 33l250 1180q1 6 -1.5 9t-16 6.5t-34 6t-62.5 7.5l-54 6l-2 12h871l28 -362l-10 -3l-8 29q-18 53 -30 85.5t-29.5 70t-34.5 59.5t-40.5 44.5t-51.5 33.5t-64.5 18t-81.5 7h-213l-123 -582l146 2q96 3 146 18t78 46t60 100l13 28l12 -2
l-86 -413l-12 2l2 26q3 26 3 45.5t-2 36t-9 28.5t-14.5 21t-23 15t-30.5 10t-41.5 7t-50.5 4t-62 3l-133 5l-135 -633l299 -11q71 1 132.5 21t105 47.5t89 76.5t74 89.5t70.5 105.5l21 29l10 -2l-160 -385h-987zM750 1348l-283 383h147l150 -383h-14z" />
    <glyph glyph-name="Eacute" unicode="&#xc9;" horiz-adv-x="1171" 
d="M-45 0l6 12l76 8q106 12 110 33l250 1180q1 6 -1.5 9t-16 6.5t-34 6t-62.5 7.5l-54 6l-2 12h871l28 -362l-10 -3l-8 29q-18 53 -30 85.5t-29.5 70t-34.5 59.5t-40.5 44.5t-51.5 33.5t-64.5 18t-81.5 7h-213l-123 -582l146 2q96 3 146 18t78 46t60 100l13 28l12 -2
l-86 -413l-12 2l2 26q3 26 3 45.5t-2 36t-9 28.5t-14.5 21t-23 15t-30.5 10t-41.5 7t-50.5 4t-62 3l-133 5l-135 -633l299 -11q71 1 132.5 21t105 47.5t89 76.5t74 89.5t70.5 105.5l21 29l10 -2l-160 -385h-987zM672 1348l291 383h165l-444 -383h-12z" />
    <glyph glyph-name="Ecircumflex" unicode="&#xca;" horiz-adv-x="1171" 
d="M-45 0l6 12l76 8q106 12 110 33l250 1180q1 6 -1.5 9t-16 6.5t-34 6t-62.5 7.5l-54 6l-2 12h871l28 -362l-10 -3l-8 29q-18 53 -30 85.5t-29.5 70t-34.5 59.5t-40.5 44.5t-51.5 33.5t-64.5 18t-81.5 7h-213l-123 -582l146 2q96 3 146 18t78 46t60 100l13 28l12 -2
l-86 -413l-12 2l2 26q3 26 3 45.5t-2 36t-9 28.5t-14.5 21t-23 15t-30.5 10t-41.5 7t-50.5 4t-62 3l-133 5l-135 -633l299 -11q71 1 132.5 21t105 47.5t89 76.5t74 89.5t70.5 105.5l21 29l10 -2l-160 -385h-987zM455 1325l336 385h10l176 -385h-12l-191 231h-6l-303 -231
h-10z" />
    <glyph glyph-name="Edieresis" unicode="&#xcb;" horiz-adv-x="1171" 
d="M-45 0l6 12l76 8q106 12 110 33l250 1180q1 6 -1.5 9t-16 6.5t-34 6t-62.5 7.5l-54 6l-2 12h871l28 -362l-10 -3l-8 29q-18 53 -30 85.5t-29.5 70t-34.5 59.5t-40.5 44.5t-51.5 33.5t-64.5 18t-81.5 7h-213l-123 -582l146 2q96 3 146 18t78 46t60 100l13 28l12 -2
l-86 -413l-12 2l2 26q3 26 3 45.5t-2 36t-9 28.5t-14.5 21t-23 15t-30.5 10t-41.5 7t-50.5 4t-62 3l-133 5l-135 -633l299 -11q71 1 132.5 21t105 47.5t89 76.5t74 89.5t70.5 105.5l21 29l10 -2l-160 -385h-987zM889 1384q-42 0 -66 30.5t-24 62.5q0 34 23.5 66t66.5 32
t67.5 -32.5t24.5 -65.5q0 -32 -24.5 -62.5t-67.5 -30.5zM561 1384q-43 0 -67.5 30.5t-24.5 62.5q0 33 24.5 65.5t67.5 32.5t66.5 -32t23.5 -66q0 -32 -24 -62.5t-66 -30.5z" />
    <glyph glyph-name="Igrave" unicode="&#xcc;" horiz-adv-x="659" 
d="M-29 0l6 12l84 8q103 8 107 33l250 1180q1 6 -2.5 9t-15.5 6.5t-34.5 6.5t-62.5 7l-57 6l-2 12h528l-8 -12l-82 -8q-103 -11 -107 -33l-249 -1180q-1 -6 2 -9t14.5 -6.5t34.5 -6.5t63 -7l58 -6l2 -12h-529zM563 1348l-282 383h147l150 -383h-15z" />
    <glyph glyph-name="Iacute" unicode="&#xcd;" horiz-adv-x="659" 
d="M-29 0l6 12l84 8q103 8 107 33l250 1180q1 6 -2.5 9t-15.5 6.5t-34.5 6.5t-62.5 7l-57 6l-2 12h528l-8 -12l-82 -8q-103 -11 -107 -33l-249 -1180q-1 -6 2 -9t14.5 -6.5t34.5 -6.5t63 -7l58 -6l2 -12h-529zM432 1348l291 383h166l-445 -383h-12z" />
    <glyph glyph-name="Icircumflex" unicode="&#xce;" horiz-adv-x="659" 
d="M-29 0l6 12l84 8q103 8 107 33l250 1180q1 6 -2.5 9t-15.5 6.5t-34.5 6.5t-62.5 7l-57 6l-2 12h528l-8 -12l-82 -8q-103 -11 -107 -33l-249 -1180q-1 -6 2 -9t14.5 -6.5t34.5 -6.5t63 -7l58 -6l2 -12h-529zM244 1325l336 385h10l176 -385h-12l-191 231h-6l-303 -231h-10z
" />
    <glyph glyph-name="Idieresis" unicode="&#xcf;" horiz-adv-x="659" 
d="M-29 0l6 12l84 8q103 8 107 33l250 1180q1 6 -2.5 9t-15.5 6.5t-34.5 6.5t-62.5 7l-57 6l-2 12h528l-8 -12l-82 -8q-103 -11 -107 -33l-249 -1180q-1 -6 2 -9t14.5 -6.5t34.5 -6.5t63 -7l58 -6l2 -12h-529zM688 1384q-42 0 -66 30.5t-24 62.5q0 34 23.5 66t66.5 32
t67.5 -32.5t24.5 -65.5q0 -32 -24.5 -62.5t-67.5 -30.5zM360 1384q-43 0 -67.5 30.5t-24.5 62.5q0 33 24.5 65.5t67.5 32.5t67 -32t24 -66q0 -31 -24.5 -62t-66.5 -31z" />
    <glyph glyph-name="Eth" unicode="&#xd0;" horiz-adv-x="1363" 
d="M270 631h-176l10 24h170l123 578q1 6 -1.5 9t-16 6.5t-34 6t-62.5 7.5l-50 6l-2 12l488 2q293 1 450.5 -151t157.5 -388q0 -156 -57.5 -291.5t-163 -236t-265.5 -158t-354 -57.5h-528l6 12l76 8q102 11 106 33zM434 655h316l2 -24h-324l-121 -574l180 -39q130 0 239.5 40
t187 110.5t132.5 166.5t81 207.5t26 233.5q0 106 -25 192t-77.5 153t-141.5 104t-209 37h-137z" />
    <glyph glyph-name="Ntilde" unicode="&#xd1;" horiz-adv-x="1359" 
d="M1038 -10l-614 1165h-4l-227 -1073q-11 -53 151 -66l37 -4l2 -12h-424l6 12l41 4q149 16 160 70l237 1090q-49 70 -174 88l-24 4l-2 12h340l536 -1032h4l201 950q11 56 -149 66l-37 4l-2 12h424l-9 -12l-38 -4q-150 -13 -162 -70l-262 -1204h-11zM1022 1360
q-45 0 -107.5 31t-121 61.5t-91.5 30.5q-42 0 -68 -20.5t-40 -86.5h-12q27 110 62 156.5t99 46.5q44 0 106.5 -30.5t121 -61.5t92.5 -31q40 0 67 22.5t41 84.5h15q-29 -110 -64.5 -156.5t-99.5 -46.5z" />
    <glyph glyph-name="Ograve" unicode="&#xd2;" horiz-adv-x="1464" 
d="M725 -27q-138 0 -254 48.5t-194 132t-121 195t-43 237.5q0 135 53 265.5t145 232t227.5 163.5t288.5 62q136 0 251 -49.5t193 -133.5t121.5 -197t43.5 -239q0 -149 -57.5 -283t-154 -228.5t-227 -150t-272.5 -55.5zM713 -6q156 0 285.5 111t200.5 289.5t71 381.5
q0 227 -117 369.5t-317 142.5q-122 0 -228.5 -69t-177.5 -181.5t-111 -253.5t-40 -286q0 -227 116 -365.5t318 -138.5zM891 1348l-283 383h148l149 -383h-14z" />
    <glyph glyph-name="Oacute" unicode="&#xd3;" horiz-adv-x="1464" 
d="M725 -27q-138 0 -254 48.5t-194 132t-121 195t-43 237.5q0 135 53 265.5t145 232t227.5 163.5t288.5 62q136 0 251 -49.5t193 -133.5t121.5 -197t43.5 -239q0 -149 -57.5 -283t-154 -228.5t-227 -150t-272.5 -55.5zM713 -6q156 0 285.5 111t200.5 289.5t71 381.5
q0 227 -117 369.5t-317 142.5q-122 0 -228.5 -69t-177.5 -181.5t-111 -253.5t-40 -286q0 -227 116 -365.5t318 -138.5zM791 1348l290 383h166l-444 -383h-12z" />
    <glyph glyph-name="Ocircumflex" unicode="&#xd4;" horiz-adv-x="1464" 
d="M725 -27q-138 0 -254 48.5t-194 132t-121 195t-43 237.5q0 135 53 265.5t145 232t227.5 163.5t288.5 62q136 0 251 -49.5t193 -133.5t121.5 -197t43.5 -239q0 -149 -57.5 -283t-154 -228.5t-227 -150t-272.5 -55.5zM713 -6q156 0 285.5 111t200.5 289.5t71 381.5
q0 227 -117 369.5t-317 142.5q-122 0 -228.5 -69t-177.5 -181.5t-111 -253.5t-40 -286q0 -227 116 -365.5t318 -138.5zM588 1325l336 385h10l176 -385h-12l-191 231h-6l-303 -231h-10z" />
    <glyph glyph-name="Otilde" unicode="&#xd5;" horiz-adv-x="1464" 
d="M725 -27q-138 0 -254 48.5t-194 132t-121 195t-43 237.5q0 135 53 265.5t145 232t227.5 163.5t288.5 62q136 0 251 -49.5t193 -133.5t121.5 -197t43.5 -239q0 -149 -57.5 -283t-154 -228.5t-227 -150t-272.5 -55.5zM713 -6q156 0 285.5 111t200.5 289.5t71 381.5
q0 227 -117 369.5t-317 142.5q-122 0 -228.5 -69t-177.5 -181.5t-111 -253.5t-40 -286q0 -227 116 -365.5t318 -138.5zM1038 1360q-45 0 -107.5 31t-120.5 61.5t-91 30.5q-42 0 -68.5 -21t-40.5 -86h-12q27 110 62.5 156.5t99.5 46.5q44 0 106.5 -30.5t120.5 -61.5t92 -31
q41 0 68 22.5t41 84.5h14q-29 -110 -64.5 -156.5t-99.5 -46.5z" />
    <glyph glyph-name="Odieresis" unicode="&#xd6;" horiz-adv-x="1464" 
d="M725 -27q-138 0 -254 48.5t-194 132t-121 195t-43 237.5q0 135 53 265.5t145 232t227.5 163.5t288.5 62q136 0 251 -49.5t193 -133.5t121.5 -197t43.5 -239q0 -149 -57.5 -283t-154 -228.5t-227 -150t-272.5 -55.5zM713 -6q156 0 285.5 111t200.5 289.5t71 381.5
q0 227 -117 369.5t-317 142.5q-122 0 -228.5 -69t-177.5 -181.5t-111 -253.5t-40 -286q0 -227 116 -365.5t318 -138.5zM1063 1384q-42 0 -66 30.5t-24 62.5q0 34 23.5 66t66.5 32t67.5 -32.5t24.5 -65.5q0 -32 -24.5 -62.5t-67.5 -30.5zM735 1384q-43 0 -67.5 30.5
t-24.5 62.5q0 33 24.5 65.5t67.5 32.5t66.5 -32t23.5 -66q0 -32 -24 -62.5t-66 -30.5z" />
    <glyph glyph-name="multiply" unicode="&#xd7;" horiz-adv-x="886" 
d="M799 115l-355 354l-354 -354l-16 16l354 354l-354 355l16 16l354 -354l355 354l16 -16l-354 -355l354 -354z" />
    <glyph glyph-name="Oslash" unicode="&#xd8;" horiz-adv-x="1464" 
d="M1214 1178q106 -86 164 -213t58 -273q0 -149 -57.5 -283t-154 -229t-227 -151t-272.5 -56q-215 0 -367 111l-184 -234h-27l195 246q-110 84 -169.5 213t-59.5 279q0 135 53 264.5t145 231t227.5 163.5t288.5 62q213 0 371 -119l174 221h27zM381 147l778 992
q-120 149 -323 149q-122 0 -228.5 -69t-177.5 -181t-111 -253t-40 -287q0 -212 102 -351zM1171 1122l-776 -989q119 -141 318 -141q156 0 285.5 112t200.5 291.5t71 380.5q0 205 -99 346z" />
    <glyph glyph-name="Ugrave" unicode="&#xd9;" horiz-adv-x="1353" 
d="M694 -31q-146 0 -254 35t-171.5 111.5t-63.5 187.5q0 76 22 172l160 758q1 8 -5.5 12.5t-32 8.5t-77.5 8l-77 6l-2 12h569l-8 -12l-103 -8q-102 -8 -106 -33l-158 -748q-18 -89 -18 -155q0 -149 97.5 -223t281.5 -74q159 0 255 100t140 313l162 758q3 15 -9.5 27.5
t-49 23t-95.5 15.5l-37 4l-2 12h424l-8 -12l-39 -4q-149 -16 -160 -70l-164 -762q-48 -234 -160.5 -348.5t-310.5 -114.5zM969 1348l-283 383h148l149 -383h-14z" />
    <glyph glyph-name="Uacute" unicode="&#xda;" horiz-adv-x="1353" 
d="M694 -31q-146 0 -254 35t-171.5 111.5t-63.5 187.5q0 76 22 172l160 758q1 8 -5.5 12.5t-32 8.5t-77.5 8l-77 6l-2 12h569l-8 -12l-103 -8q-102 -8 -106 -33l-158 -748q-18 -89 -18 -155q0 -149 97.5 -223t281.5 -74q159 0 255 100t140 313l162 758q3 15 -9.5 27.5
t-49 23t-95.5 15.5l-37 4l-2 12h424l-8 -12l-39 -4q-149 -16 -160 -70l-164 -762q-48 -234 -160.5 -348.5t-310.5 -114.5zM817 1348l291 383h166l-445 -383h-12z" />
    <glyph glyph-name="Ucircumflex" unicode="&#xdb;" horiz-adv-x="1353" 
d="M694 -31q-146 0 -254 35t-171.5 111.5t-63.5 187.5q0 76 22 172l160 758q1 8 -5.5 12.5t-32 8.5t-77.5 8l-77 6l-2 12h569l-8 -12l-103 -8q-102 -8 -106 -33l-158 -748q-18 -89 -18 -155q0 -149 97.5 -223t281.5 -74q159 0 255 100t140 313l162 758q3 15 -9.5 27.5
t-49 23t-95.5 15.5l-37 4l-2 12h424l-8 -12l-39 -4q-149 -16 -160 -70l-164 -762q-48 -234 -160.5 -348.5t-310.5 -114.5zM635 1325l336 385h10l176 -385h-12l-191 231h-6l-303 -231h-10z" />
    <glyph glyph-name="Udieresis" unicode="&#xdc;" horiz-adv-x="1353" 
d="M694 -31q-146 0 -254 35t-171.5 111.5t-63.5 187.5q0 76 22 172l160 758q1 8 -5.5 12.5t-32 8.5t-77.5 8l-77 6l-2 12h569l-8 -12l-103 -8q-102 -8 -106 -33l-158 -748q-18 -89 -18 -155q0 -149 97.5 -223t281.5 -74q159 0 255 100t140 313l162 758q3 15 -9.5 27.5
t-49 23t-95.5 15.5l-37 4l-2 12h424l-8 -12l-39 -4q-149 -16 -160 -70l-164 -762q-48 -234 -160.5 -348.5t-310.5 -114.5zM1077 1384q-42 0 -66 30.5t-24 62.5q0 34 23.5 66t66.5 32t67.5 -32.5t24.5 -65.5q0 -32 -24.5 -62.5t-67.5 -30.5zM750 1384q-43 0 -68 30.5
t-25 62.5q0 33 25 65.5t68 32.5t66.5 -32t23.5 -66q0 -32 -24 -62.5t-66 -30.5z" />
    <glyph glyph-name="Yacute" unicode="&#xdd;" horiz-adv-x="1249" 
d="M246 0l6 12l104 8q103 8 107 33l110 522l-190 537q-31 88 -59 118t-95 34l-55 4l-2 12h533l-9 -12l-59 -2q-82 -3 -98 -33.5t14 -112.5l174 -495h4l273 366q109 151 125 192q18 44 -18 60q-25 11 -103 19l-47 6l-3 12h447l-8 -12l-43 -4q-80 -6 -137.5 -54.5
t-186.5 -218.5l-295 -397l-114 -547q-1 -8 5 -12.5t31.5 -8.5t77.5 -8l78 -6l2 -12h-569zM768 1348l291 383h166l-445 -383h-12z" />
    <glyph glyph-name="Thorn" unicode="&#xde;" horiz-adv-x="1103" 
d="M-68 0l7 12l104 8q103 8 107 33l249 1180q1 8 -5 12.5t-31.5 8.5t-77.5 8l-78 6l-2 12h569l-8 -12l-102 -8q-103 -8 -107 -33l-47 -221l178 -2q194 0 305 -85.5t111 -213.5q0 -154 -132 -257.5t-343 -103.5q-110 0 -254 39l-68 -336q-1 -8 5.5 -12.5t32.5 -9t77 -7.5
l98 -6l2 -12h-590zM604 367q154 0 242 107t88 269q0 111 -64.5 174.5t-197.5 63.5h-168l-121 -567q103 -47 221 -47z" />
    <glyph glyph-name="germandbls" unicode="&#xdf;" horiz-adv-x="948" 
d="M625 846q105 -71 187.5 -210.5t82.5 -270.5q0 -153 -98 -269t-234 -116q-87 0 -154 53.5t-67 118.5q0 52 30.5 84t76.5 32q56 0 77 -49q19 -45 -7 -85q-32 -46 -103 -34q11 -36 50 -69t95 -33q91 0 144 88.5t53 226.5q0 130 -73.5 269.5t-209.5 248.5v9q153 4 237.5 85
t84.5 218q0 84 -35 138t-107 54q-43 0 -75 -16.5t-56.5 -46.5t-46.5 -90.5t-40 -129.5t-42 -182l-135 -596q-55 -232 -109.5 -366t-125.5 -205q-69 -72 -187 -72q-69 0 -111 31.5t-42 79.5q0 36 25.5 63t62.5 27q32 0 56 -23.5t25 -58.5t-30 -76q42 -18 61 -18q53 0 88.5 45
t75 178t92.5 400l105 524l-160 4l25 61l155 2q62 248 158 367t238 119q126 0 197 -66.5t71 -171.5q0 -111 -84.5 -180t-220.5 -92z" />
    <glyph glyph-name="agrave" unicode="&#xe0;" horiz-adv-x="872" 
d="M567 -25q-31 0 -74.5 36.5t-43.5 68.5q0 62 90 291h-4q-138 -224 -192 -289q-84 -105 -157 -105q-69 0 -117.5 53.5t-48.5 137.5q0 79 29.5 168t78.5 169t101 146.5t107 122.5q50 52 106 81.5t105 29.5t73 -43.5t23 -151.5h4l70 207l131 -8l-160 -440l-123 -383l103 -13
l141 226l12 -7q-142 -297 -254 -297zM256 78q108 0 307 399q21 41 37 92t16 78q0 60 -44 110t-109 50q-56 0 -105 -49q-74 -76 -136 -241t-62 -290q0 -72 28 -110.5t68 -38.5zM580 1006l-283 383h147l150 -383h-14z" />
    <glyph glyph-name="aacute" unicode="&#xe1;" horiz-adv-x="872" 
d="M567 -25q-31 0 -74.5 36.5t-43.5 68.5q0 62 90 291h-4q-138 -224 -192 -289q-84 -105 -157 -105q-69 0 -117.5 53.5t-48.5 137.5q0 79 29.5 168t78.5 169t101 146.5t107 122.5q50 52 106 81.5t105 29.5t73 -43.5t23 -151.5h4l70 207l131 -8l-160 -440l-123 -383l103 -13
l141 226l12 -7q-142 -297 -254 -297zM256 78q108 0 307 399q21 41 37 92t16 78q0 60 -44 110t-109 50q-56 0 -105 -49q-74 -76 -136 -241t-62 -290q0 -72 28 -110.5t68 -38.5zM477 1006l291 383h166l-445 -383h-12z" />
    <glyph glyph-name="acircumflex" unicode="&#xe2;" horiz-adv-x="872" 
d="M567 -25q-31 0 -74.5 36.5t-43.5 68.5q0 62 90 291h-4q-138 -224 -192 -289q-84 -105 -157 -105q-69 0 -117.5 53.5t-48.5 137.5q0 79 29.5 168t78.5 169t101 146.5t107 122.5q50 52 106 81.5t105 29.5t73 -43.5t23 -151.5h4l70 207l131 -8l-160 -440l-123 -383l103 -13
l141 226l12 -7q-142 -297 -254 -297zM256 78q108 0 307 399q21 41 37 92t16 78q0 60 -44 110t-109 50q-56 0 -105 -49q-74 -76 -136 -241t-62 -290q0 -72 28 -110.5t68 -38.5zM274 983l336 385h11l176 -385h-13l-190 231h-6l-303 -231h-11z" />
    <glyph glyph-name="atilde" unicode="&#xe3;" horiz-adv-x="872" 
d="M567 -25q-31 0 -74.5 36.5t-43.5 68.5q0 62 90 291h-4q-138 -224 -192 -289q-84 -105 -157 -105q-69 0 -117.5 53.5t-48.5 137.5q0 79 29.5 168t78.5 169t101 146.5t107 122.5q50 52 106 81.5t105 29.5t73 -43.5t23 -151.5h4l70 207l131 -8l-160 -440l-123 -383l103 -13
l141 226l12 -7q-142 -297 -254 -297zM256 78q108 0 307 399q21 41 37 92t16 78q0 60 -44 110t-109 50q-56 0 -105 -49q-74 -76 -136 -241t-62 -290q0 -72 28 -110.5t68 -38.5zM766 1018q-45 0 -107.5 31t-121 61.5t-91.5 30.5q-42 0 -68 -20.5t-40 -86.5h-12
q27 110 62 156.5t99 46.5q44 0 106.5 -30.5t121 -61.5t92.5 -31q40 0 67 22.5t41 84.5h15q-29 -110 -64.5 -156.5t-99.5 -46.5z" />
    <glyph glyph-name="adieresis" unicode="&#xe4;" horiz-adv-x="872" 
d="M567 -25q-31 0 -74.5 36.5t-43.5 68.5q0 62 90 291h-4q-138 -224 -192 -289q-84 -105 -157 -105q-69 0 -117.5 53.5t-48.5 137.5q0 79 29.5 168t78.5 169t101 146.5t107 122.5q50 52 106 81.5t105 29.5t73 -43.5t23 -151.5h4l70 207l131 -8l-160 -440l-123 -383l103 -13
l141 226l12 -7q-142 -297 -254 -297zM256 78q108 0 307 399q21 41 37 92t16 78q0 60 -44 110t-109 50q-56 0 -105 -49q-74 -76 -136 -241t-62 -290q0 -72 28 -110.5t68 -38.5zM729 1042q-42 0 -66 30.5t-24 62.5q0 34 23.5 66t66.5 32t67.5 -32.5t24.5 -65.5
q0 -32 -24.5 -62.5t-67.5 -30.5zM401 1042q-43 0 -67.5 30.5t-24.5 62.5q0 33 24.5 65.5t67.5 32.5t67 -32t24 -66q0 -31 -24.5 -62t-66.5 -31z" />
    <glyph glyph-name="aring" unicode="&#xe5;" horiz-adv-x="872" 
d="M584 1020q-82 0 -132.5 53.5t-50.5 130.5q0 76 50.5 130.5t132.5 54.5t132 -54t50 -131q0 -78 -50 -131t-132 -53zM567 -25q-31 0 -74.5 36.5t-43.5 68.5q0 62 90 291h-4q-138 -224 -192 -289q-84 -105 -157 -105q-69 0 -117.5 53.5t-48.5 137.5q0 79 29.5 168t78.5 169
t101 146.5t107 122.5q50 52 106 81.5t105 29.5t73 -43.5t23 -151.5h4l70 207l131 -8l-160 -440l-123 -383l103 -13l141 226l12 -7q-142 -297 -254 -297zM584 1038q73 0 117 48t44 118q0 69 -44 117.5t-117 48.5t-117.5 -48.5t-44.5 -117.5q0 -70 44.5 -118t117.5 -48z
M256 78q108 0 307 399q21 41 37 92t16 78q0 60 -44 110t-109 50q-56 0 -105 -49q-74 -76 -136 -241t-62 -290q0 -72 28 -110.5t68 -38.5z" />
    <glyph glyph-name="ae" unicode="&#xe6;" horiz-adv-x="1196" 
d="M186 -25q-70 0 -118 53t-48 138q0 80 29.5 168.5t78.5 169t100.5 146.5t107.5 122q119 119 209 119q114 0 117 -227q72 106 166.5 169.5t187.5 63.5q88 0 144.5 -39.5t56.5 -103.5q0 -98 -127.5 -162.5t-391.5 -108.5q-28 -95 -28 -188q0 -110 41.5 -168.5t122.5 -58.5
q77 0 137 47.5t133 167.5l14 -7q-173 -299 -350 -299q-109 0 -175.5 82t-66.5 199q0 70 9 109q-57 -92 -87.5 -139.5t-71.5 -105.5t-68.5 -84t-59 -44.5t-62.5 -18.5zM709 502q209 38 291.5 97.5t82.5 166.5q0 48 -22 78t-66 30q-55 0 -127 -69q-47 -47 -91 -129t-72 -172z
M256 76q107 0 307 401q21 41 37 92t16 78q0 60 -44 110t-109 50q-54 0 -105 -51q-74 -77 -136 -240.5t-62 -288.5q0 -73 27.5 -112t68.5 -39z" />
    <glyph glyph-name="ccedilla" unicode="&#xe7;" horiz-adv-x="677" 
d="M244 -25q-100 9 -160.5 90.5t-60.5 192.5q0 108 44.5 224t114.5 206.5t163 149.5t183 59q76 0 133.5 -42t57.5 -103q0 -42 -26.5 -71.5t-61.5 -29.5q-32 0 -59 22.5t-27 53.5q0 61 71 96q-2 2 -14 13.5t-16.5 15t-16 10.5t-23 9.5t-26.5 2.5q-78 0 -158 -77
q-80 -84 -138 -228.5t-58 -273.5q0 -110 40.5 -169.5t117.5 -59.5q76 0 135 48t133 169l14 -7q-37 -64 -71.5 -113t-77.5 -94t-91.5 -69.5t-99.5 -24.5l-129 -118q114 10 185 -29t71 -109q0 -58 -35.5 -101.5t-98 -68.5t-138.5 -37.5t-166 -13.5l-2 10q169 7 253.5 52.5
t84.5 120.5q0 48 -44 72t-116 24q-31 0 -113 -15l5 15z" />
    <glyph glyph-name="egrave" unicode="&#xe8;" horiz-adv-x="694" 
d="M264 -25q-109 0 -175 83t-66 200q0 88 28 181.5t77 174t110 145t133.5 101.5t142.5 37q87 0 143 -39.5t56 -103.5q0 -98 -126.5 -162.5t-389.5 -108.5q-31 -105 -31 -188q0 -110 42.5 -169.5t123.5 -59.5q75 0 134.5 48.5t133.5 168.5l14 -7q-170 -301 -350 -301z
M207 502q210 38 292.5 97.5t82.5 166.5q0 48 -22 78t-66 30q-57 0 -129 -69q-46 -46 -90 -128t-72 -173zM537 1006l-283 383h147l150 -383h-14z" />
    <glyph glyph-name="eacute" unicode="&#xe9;" horiz-adv-x="694" 
d="M264 -25q-109 0 -175 83t-66 200q0 88 28 181.5t77 174t110 145t133.5 101.5t142.5 37q87 0 143 -39.5t56 -103.5q0 -98 -126.5 -162.5t-389.5 -108.5q-31 -105 -31 -188q0 -110 42.5 -169.5t123.5 -59.5q75 0 134.5 48.5t133.5 168.5l14 -7q-170 -301 -350 -301z
M207 502q210 38 292.5 97.5t82.5 166.5q0 48 -22 78t-66 30q-57 0 -129 -69q-46 -46 -90 -128t-72 -173zM432 1006l291 383h166l-445 -383h-12z" />
    <glyph glyph-name="ecircumflex" unicode="&#xea;" horiz-adv-x="694" 
d="M264 -25q-109 0 -175 83t-66 200q0 88 28 181.5t77 174t110 145t133.5 101.5t142.5 37q87 0 143 -39.5t56 -103.5q0 -98 -126.5 -162.5t-389.5 -108.5q-31 -105 -31 -188q0 -110 42.5 -169.5t123.5 -59.5q75 0 134.5 48.5t133.5 168.5l14 -7q-170 -301 -350 -301z
M207 502q210 38 292.5 97.5t82.5 166.5q0 48 -22 78t-66 30q-57 0 -129 -69q-46 -46 -90 -128t-72 -173zM229 983l336 385h10l177 -385h-13l-190 231h-6l-303 -231h-11z" />
    <glyph glyph-name="edieresis" unicode="&#xeb;" horiz-adv-x="694" 
d="M264 -25q-109 0 -175 83t-66 200q0 88 28 181.5t77 174t110 145t133.5 101.5t142.5 37q87 0 143 -39.5t56 -103.5q0 -98 -126.5 -162.5t-389.5 -108.5q-31 -105 -31 -188q0 -110 42.5 -169.5t123.5 -59.5q75 0 134.5 48.5t133.5 168.5l14 -7q-170 -301 -350 -301z
M207 502q210 38 292.5 97.5t82.5 166.5q0 48 -22 78t-66 30q-57 0 -129 -69q-46 -46 -90 -128t-72 -173zM664 1042q-42 0 -66.5 31t-24.5 62q0 34 24 66t67 32t67.5 -32.5t24.5 -65.5q0 -32 -24.5 -62.5t-67.5 -30.5zM336 1042q-43 0 -67.5 30.5t-24.5 62.5q0 33 24.5 65.5
t67.5 32.5t66.5 -32t23.5 -66q0 -32 -24 -62.5t-66 -30.5z" />
    <glyph glyph-name="igrave" unicode="&#xec;" horiz-adv-x="481" 
d="M180 -25q-32 0 -88.5 27t-56.5 45q0 14 65.5 185t139.5 358.5t84 216.5l-117 10l-139 -221l-13 6q144 295 279 295q36 0 65 -42.5t29 -92.5q0 -28 -58.5 -180t-129 -322.5t-78.5 -191.5l114 -15l144 223l12 -6q-71 -147 -139 -221t-113 -74zM424 1006l-283 383h148
l149 -383h-14z" />
    <glyph glyph-name="iacute" unicode="&#xed;" horiz-adv-x="481" 
d="M180 -25q-32 0 -88.5 27t-56.5 45q0 14 65.5 185t139.5 358.5t84 216.5l-117 10l-139 -221l-13 6q144 295 279 295q36 0 65 -42.5t29 -92.5q0 -28 -58.5 -180t-129 -322.5t-78.5 -191.5l114 -15l144 223l12 -6q-71 -147 -139 -221t-113 -74zM324 1006l290 383h166
l-444 -383h-12z" />
    <glyph glyph-name="icircumflex" unicode="&#xee;" horiz-adv-x="481" 
d="M117 989l315 379h10l158 -379h-14l-176 228h-7l-276 -228h-10zM180 -25q-32 0 -88.5 27t-56.5 45q0 14 65.5 185t139.5 358.5t84 216.5l-117 10l-139 -221l-13 6q144 295 279 295q36 0 65 -42.5t29 -92.5q0 -28 -58.5 -180t-129 -322.5t-78.5 -191.5l114 -15l144 223
l12 -6q-71 -147 -139 -221t-113 -74z" />
    <glyph glyph-name="idieresis" unicode="&#xef;" horiz-adv-x="481" 
d="M180 -25q-32 0 -88.5 27t-56.5 45q0 14 65.5 185t139.5 358.5t84 216.5l-117 10l-139 -221l-13 6q144 295 279 295q36 0 65 -42.5t29 -92.5q0 -28 -58.5 -180t-129 -322.5t-78.5 -191.5l114 -15l144 223l12 -6q-71 -147 -139 -221t-113 -74zM586 1042q-42 0 -66 30.5
t-24 62.5q0 34 23.5 66t66.5 32t67.5 -32.5t24.5 -65.5q0 -32 -24.5 -62.5t-67.5 -30.5zM258 1042q-43 0 -67.5 30.5t-24.5 62.5q0 33 24.5 65.5t67.5 32.5t66.5 -32t23.5 -66q0 -32 -24 -62.5t-66 -30.5z" />
    <glyph glyph-name="eth" unicode="&#xf0;" horiz-adv-x="776" 
d="M410 1139q0 1 -60 -17.5t-120 -37.5l-60 -19l6 22l217 70q-78 87 -184 143l6 17q141 -49 250 -137l244 77l2 -24l-226 -70q123 -110 187.5 -261t64.5 -316q0 -150 -66 -292.5t-170 -229.5t-212 -87q-117 0 -183.5 102.5t-66.5 246.5q0 126 65 259t165.5 219.5t197.5 86.5
q59 0 100 -27q-54 157 -157 275zM264 0q89 0 172.5 101.5t130.5 254.5q19 59 30 143t11 148q0 106 -29 162.5t-81 56.5q-75 0 -159.5 -123.5t-135.5 -283.5q-19 -58 -31 -132.5t-12 -123.5q0 -93 28.5 -148t75.5 -55z" />
    <glyph glyph-name="ntilde" unicode="&#xf1;" horiz-adv-x="927" 
d="M635 -25q-32 0 -87.5 29t-55.5 49q0 10 20.5 65t65.5 167.5t65 163.5q12 32 44 111.5t47.5 122.5t15.5 58q0 29 -28.5 50.5t-62.5 21.5q-49 0 -171.5 -175t-251.5 -450l-74 -194l-135 10l116 338l142 469l-97 8l-139 -223l-12 6q144 297 268 297q30 0 62 -43.5t32 -91.5
q0 -44 -42 -178t-105 -285l8 -4q86 165 185.5 318t154.5 208q69 72 145 72q47 0 91.5 -38.5t44.5 -84.5q0 -58 -107 -323l-153 -383l102 -13l145 226l13 -7q-73 -150 -137.5 -223.5t-108.5 -73.5zM739 1018q-45 0 -107.5 31t-120.5 61.5t-91 30.5q-42 0 -68.5 -21t-40.5 -86
h-12q27 110 62.5 156.5t99.5 46.5q44 0 106.5 -30.5t120.5 -61.5t92 -31q41 0 68 22.5t41 84.5h14q-29 -110 -64.5 -156.5t-99.5 -46.5z" />
    <glyph glyph-name="ograve" unicode="&#xf2;" horiz-adv-x="770" 
d="M289 -23q-117 0 -183.5 102.5t-66.5 246.5q0 126 65 259.5t165.5 220.5t197.5 87q115 0 190.5 -102t75.5 -259q0 -130 -66 -260t-170 -212.5t-208 -82.5zM264 0q88 0 170 101t129 255q19 59 30 143t11 148q0 108 -27.5 164.5t-78.5 56.5q-75 0 -159.5 -124t-135.5 -285
q-19 -59 -31 -132.5t-12 -123.5q0 -93 28.5 -148t75.5 -55zM565 1006l-282 383h147l150 -383h-15z" />
    <glyph glyph-name="oacute" unicode="&#xf3;" horiz-adv-x="770" 
d="M289 -23q-117 0 -183.5 102.5t-66.5 246.5q0 126 65 259.5t165.5 220.5t197.5 87q115 0 190.5 -102t75.5 -259q0 -130 -66 -260t-170 -212.5t-208 -82.5zM264 0q88 0 170 101t129 255q19 59 30 143t11 148q0 108 -27.5 164.5t-78.5 56.5q-75 0 -159.5 -124t-135.5 -285
q-19 -59 -31 -132.5t-12 -123.5q0 -93 28.5 -148t75.5 -55zM455 1006l290 383h166l-444 -383h-12z" />
    <glyph glyph-name="ocircumflex" unicode="&#xf4;" horiz-adv-x="770" 
d="M289 -23q-117 0 -183.5 102.5t-66.5 246.5q0 126 65 259.5t165.5 220.5t197.5 87q115 0 190.5 -102t75.5 -259q0 -130 -66 -260t-170 -212.5t-208 -82.5zM264 0q88 0 170 101t129 255q19 59 30 143t11 148q0 108 -27.5 164.5t-78.5 56.5q-75 0 -159.5 -124t-135.5 -285
q-19 -59 -31 -132.5t-12 -123.5q0 -93 28.5 -148t75.5 -55zM252 983l336 385h10l176 -385h-12l-191 231h-6l-303 -231h-10z" />
    <glyph glyph-name="otilde" unicode="&#xf5;" horiz-adv-x="770" 
d="M289 -23q-117 0 -183.5 102.5t-66.5 246.5q0 126 65 259.5t165.5 220.5t197.5 87q115 0 190.5 -102t75.5 -259q0 -130 -66 -260t-170 -212.5t-208 -82.5zM264 0q88 0 170 101t129 255q19 59 30 143t11 148q0 108 -27.5 164.5t-78.5 56.5q-75 0 -159.5 -124t-135.5 -285
q-19 -59 -31 -132.5t-12 -123.5q0 -93 28.5 -148t75.5 -55zM682 1018q-45 0 -107.5 31t-121 61.5t-91.5 30.5q-42 0 -68 -20.5t-40 -86.5h-12q27 110 62 156.5t99 46.5q44 0 106.5 -30.5t121 -61.5t92.5 -31q40 0 67 22.5t41 84.5h15q-29 -110 -64.5 -156.5t-99.5 -46.5z
" />
    <glyph glyph-name="odieresis" unicode="&#xf6;" horiz-adv-x="770" 
d="M289 -23q-117 0 -183.5 102.5t-66.5 246.5q0 126 65 259.5t165.5 220.5t197.5 87q115 0 190.5 -102t75.5 -259q0 -130 -66 -260t-170 -212.5t-208 -82.5zM264 0q88 0 170 101t129 255q19 59 30 143t11 148q0 108 -27.5 164.5t-78.5 56.5q-75 0 -159.5 -124t-135.5 -285
q-19 -59 -31 -132.5t-12 -123.5q0 -93 28.5 -148t75.5 -55zM707 1042q-42 0 -66.5 31t-24.5 62q0 34 24 66t67 32t67.5 -32.5t24.5 -65.5q0 -32 -24.5 -62.5t-67.5 -30.5zM379 1042q-43 0 -67.5 30.5t-24.5 62.5q0 33 24.5 65.5t67.5 32.5t66.5 -32t23.5 -66
q0 -32 -24 -62.5t-66 -30.5z" />
    <glyph glyph-name="divide" unicode="&#xf7;" horiz-adv-x="886" 
d="M541 774q0 -39 -28.5 -69.5t-70.5 -30.5t-71 30.5t-29 69.5q0 38 29 66t71 28t70.5 -28t28.5 -66zM852 473h-817l4 25h809zM541 195q0 -39 -28.5 -69t-70.5 -30t-71 30t-29 69q0 38 29 66t71 28t70.5 -28t28.5 -66z" />
    <glyph glyph-name="oslash" unicode="&#xf8;" horiz-adv-x="770" 
d="M670 770q63 -99 63 -238q0 -131 -66 -261t-170 -212t-208 -82q-105 0 -172 86l-256 -325h-27q17 22 45 57.5t87 110.5t98.5 125t39.5 49q-65 100 -65 244q0 127 65 260t165.5 220t197.5 87q113 0 190 -103l304 386h26zM162 156l438 559q-6 73 -33 112t-69 39
q-75 0 -159.5 -123.5t-135.5 -283.5q-19 -58 -31 -132.5t-12 -123.5q0 -33 2 -47zM602 684l-436 -557q9 -60 35 -93.5t63 -33.5q88 0 170 100.5t129 253.5q19 61 30 145t11 148q0 25 -2 37z" />
    <glyph glyph-name="ugrave" unicode="&#xf9;" horiz-adv-x="927" 
d="M623 -27q-30 0 -61.5 44t-31.5 92q0 44 42 179t104 285l-8 5q-87 -168 -185.5 -321.5t-152.5 -207.5q-69 -72 -146 -72q-47 0 -91 38.5t-44 84.5q0 59 107 324l151 385l-104 10l-142 -225l-12 6q73 150 137.5 223.5t108.5 73.5q32 0 87.5 -29t55.5 -49q0 -10 -21 -65.5
t-65 -166t-65 -163.5q-11 -29 -44 -111.5t-48 -125t-15 -56.5q0 -29 28 -50.5t62 -21.5q49 0 172 174.5t252 448.5l74 197l133 -11l-117 -338l-143 -467l96 -10l142 223l12 -6q-141 -297 -268 -297zM635 1006l-283 383h148l149 -383h-14z" />
    <glyph glyph-name="uacute" unicode="&#xfa;" horiz-adv-x="927" 
d="M623 -27q-30 0 -61.5 44t-31.5 92q0 44 42 179t104 285l-8 5q-87 -168 -185.5 -321.5t-152.5 -207.5q-69 -72 -146 -72q-47 0 -91 38.5t-44 84.5q0 59 107 324l151 385l-104 10l-142 -225l-12 6q73 150 137.5 223.5t108.5 73.5q32 0 87.5 -29t55.5 -49q0 -10 -21 -65.5
t-65 -166t-65 -163.5q-11 -29 -44 -111.5t-48 -125t-15 -56.5q0 -29 28 -50.5t62 -21.5q49 0 172 174.5t252 448.5l74 197l133 -11l-117 -338l-143 -467l96 -10l142 223l12 -6q-141 -297 -268 -297zM526 1006l291 383h166l-444 -383h-13z" />
    <glyph glyph-name="ucircumflex" unicode="&#xfb;" horiz-adv-x="927" 
d="M623 -27q-30 0 -61.5 44t-31.5 92q0 44 42 179t104 285l-8 5q-87 -168 -185.5 -321.5t-152.5 -207.5q-69 -72 -146 -72q-47 0 -91 38.5t-44 84.5q0 59 107 324l151 385l-104 10l-142 -225l-12 6q73 150 137.5 223.5t108.5 73.5q32 0 87.5 -29t55.5 -49q0 -10 -21 -65.5
t-65 -166t-65 -163.5q-11 -29 -44 -111.5t-48 -125t-15 -56.5q0 -29 28 -50.5t62 -21.5q49 0 172 174.5t252 448.5l74 197l133 -11l-117 -338l-143 -467l96 -10l142 223l12 -6q-141 -297 -268 -297zM344 983l336 385h10l176 -385h-12l-190 231h-7l-303 -231h-10z" />
    <glyph glyph-name="udieresis" unicode="&#xfc;" horiz-adv-x="927" 
d="M623 -27q-30 0 -61.5 44t-31.5 92q0 44 42 179t104 285l-8 5q-87 -168 -185.5 -321.5t-152.5 -207.5q-69 -72 -146 -72q-47 0 -91 38.5t-44 84.5q0 59 107 324l151 385l-104 10l-142 -225l-12 6q73 150 137.5 223.5t108.5 73.5q32 0 87.5 -29t55.5 -49q0 -10 -21 -65.5
t-65 -166t-65 -163.5q-11 -29 -44 -111.5t-48 -125t-15 -56.5q0 -29 28 -50.5t62 -21.5q49 0 172 174.5t252 448.5l74 197l133 -11l-117 -338l-143 -467l96 -10l142 223l12 -6q-141 -297 -268 -297zM799 1042q-42 0 -66 30.5t-24 62.5q0 34 23.5 66t66.5 32t67.5 -32.5
t24.5 -65.5q0 -32 -24.5 -62.5t-67.5 -30.5zM471 1042q-43 0 -67.5 30.5t-24.5 62.5q0 33 24.5 65.5t67.5 32.5t66.5 -32t23.5 -66q0 -32 -24 -62.5t-66 -30.5z" />
    <glyph glyph-name="yacute" unicode="&#xfd;" horiz-adv-x="841" 
d="M-55 -373q-85 0 -128.5 31.5t-41.5 87.5q0 36 26.5 61t63.5 25q54 0 74 -49t-15 -107q64 -18 78 -20q108 17 215 96.5t203 202.5q-19 459 -68.5 663.5t-140.5 204.5h-37l-123 -227l-14 6q81 174 111 217q47 71 107 79q10 1 21 1q84 0 136.5 -73t82 -246.5t37.5 -470.5
q0 5 5 0q211 390 208 679q-39 -35 -73.5 -32.5t-57.5 24.5t-24 47q-3 36 21 61t63 25q44 0 73 -35t29 -102q0 -219 -125.5 -492.5t-310.5 -455.5q-204 -201 -395 -201zM489 1006l291 383h166l-444 -383h-13z" />
    <glyph glyph-name="thorn" unicode="&#xfe;" horiz-adv-x="821" 
d="M-289 -518l6 12l39 2q26 2 36 3t25 4t21 8.5t8 13.5l519 1730q5 17 2 32.5t-13 15.5l-164 6l5 12l340 35l-41 -131q-64 -208 -117.5 -373t-97 -291t-52.5 -153q-7 -20 -2 -20q4 1 11 13q117 270 209.5 382t177.5 112q76 0 123 -71t47 -179q0 -114 -42.5 -235t-110 -216.5
t-159.5 -157t-184 -61.5q-99 0 -145 125h-5l-172 -579q-2 -7 7 -12t35.5 -8.5t72.5 -4.5l64 -2l2 -12h-445zM297 -6q61 0 133 72q91 91 157 257.5t66 301.5q0 172 -102 172q-71 0 -155.5 -126.5t-162.5 -324.5q-63 -152 -63 -209q0 -49 37.5 -96t89.5 -47z" />
    <glyph glyph-name="ydieresis" unicode="&#xff;" horiz-adv-x="841" 
d="M-55 -373q-85 0 -128.5 31.5t-41.5 87.5q0 36 26.5 61t63.5 25q54 0 74 -49t-15 -107q64 -18 78 -20q108 17 215 96.5t203 202.5q-19 459 -68.5 663.5t-140.5 204.5h-37l-123 -227l-14 6q81 174 111 217q47 71 107 79q10 1 21 1q84 0 136.5 -73t82 -246.5t37.5 -470.5
q0 5 5 0q211 390 208 679q-39 -35 -73.5 -32.5t-57.5 24.5t-24 47q-3 36 21 61t63 25q44 0 73 -35t29 -102q0 -219 -125.5 -492.5t-310.5 -455.5q-204 -201 -395 -201zM713 1042q-42 0 -66 30.5t-24 62.5q0 34 23.5 66t66.5 32t67.5 -32.5t24.5 -65.5q0 -32 -24.5 -62.5
t-67.5 -30.5zM385 1042q-43 0 -67.5 30.5t-24.5 62.5q0 33 24.5 65.5t67.5 32.5t66.5 -32t23.5 -66q0 -32 -24 -62.5t-66 -30.5z" />
    <glyph glyph-name="Amacron" unicode="&#x100;" horiz-adv-x="1249" 
d="M764 557h-369l-149 -272q-81 -142 -93 -176q-19 -53 19 -72q29 -15 117 -21l51 -4l2 -12h-440l6 12l33 4q97 12 145 68t209 338q4 7 6 10l401 715l-8 61q73 21 127 95h17l118 -1088q17 -122 41.5 -157.5t96.5 -39.5l57 -6l2 -12h-524l6 12l61 4q63 3 89.5 36t19.5 102z
M410 582h352l-53 526h-7zM530 1450l25 51h510l-23 -51h-512z" />
    <glyph glyph-name="amacron" unicode="&#x101;" horiz-adv-x="872" 
d="M567 -25q-31 0 -74.5 36.5t-43.5 68.5q0 62 90 291h-4q-138 -224 -192 -289q-84 -105 -157 -105q-69 0 -117.5 53.5t-48.5 137.5q0 79 29.5 168t78.5 169t101 146.5t107 122.5q50 52 106 81.5t105 29.5t73 -43.5t23 -151.5h4l70 207l131 -8l-160 -440l-123 -383l103 -13
l141 226l12 -7q-142 -297 -254 -297zM256 78q108 0 307 399q21 41 37 92t16 78q0 60 -44 110t-109 50q-56 0 -105 -49q-74 -76 -136 -241t-62 -290q0 -72 28 -110.5t68 -38.5zM352 1067l25 51h510l-23 -51h-512z" />
    <glyph glyph-name="Abreve" unicode="&#x102;" horiz-adv-x="1249" 
d="M764 557h-369l-149 -272q-81 -142 -93 -176q-19 -53 19 -72q29 -15 117 -21l51 -4l2 -12h-440l6 12l33 4q97 12 145 68t209 338q4 7 6 10l401 715l-8 61q73 21 127 95h17l118 -1088q17 -122 41.5 -157.5t96.5 -39.5l57 -6l2 -12h-524l6 12l61 4q63 3 89.5 36t19.5 102z
M410 582h352l-53 526h-7zM780 1378q-47 0 -81 20t-52.5 50t-30 77t-14.5 88t-4 97h12q22 -118 64 -176.5t123 -58.5q80 0 147 59t135 176h13q-66 -148 -101 -200q-87 -132 -211 -132z" />
    <glyph glyph-name="abreve" unicode="&#x103;" horiz-adv-x="872" 
d="M567 -25q-31 0 -74.5 36.5t-43.5 68.5q0 62 90 291h-4q-138 -224 -192 -289q-84 -105 -157 -105q-69 0 -117.5 53.5t-48.5 137.5q0 79 29.5 168t78.5 169t101 146.5t107 122.5q50 52 106 81.5t105 29.5t73 -43.5t23 -151.5h4l70 207l131 -8l-160 -440l-123 -383l103 -13
l141 226l12 -7q-142 -297 -254 -297zM256 78q108 0 307 399q21 41 37 92t16 78q0 60 -44 110t-109 50q-56 0 -105 -49q-74 -76 -136 -241t-62 -290q0 -72 28 -110.5t68 -38.5zM606 995q-47 0 -81 20t-52.5 50t-30 77t-14.5 88t-4 97h12q22 -118 64 -176.5t123 -58.5
q80 0 147 59t135 176h13q-66 -148 -101 -200q-87 -132 -211 -132z" />
    <glyph glyph-name="Aogonek" unicode="&#x104;" horiz-adv-x="1249" 
d="M928 -461q-66 0 -106 44.5t-40 111.5q0 162 297 305h-448l6 12l59 4q65 3 91.5 36t19.5 102l-43 405h-367l-151 -274q-81 -141 -93 -176q-18 -52 19 -71q29 -15 117 -22l51 -4l2 -12h-440l6 12l33 4q97 12 145 68t209 338q4 7 6 10l404 715l-11 63q72 21 127 93h17
l120 -1088q15 -122 39.5 -157.5t96.5 -39.5l57 -6l2 -12q-119 -30 -191.5 -107t-72.5 -167q0 -57 27 -91t77 -34q28 0 52 9.5t34 17.5t37 30l4 -4q-93 -115 -192 -115zM410 582h352l-53 526h-4z" />
    <glyph glyph-name="aogonek" unicode="&#x105;" horiz-adv-x="872" 
d="M455 -461q-66 0 -105 44t-39 112q0 150 246 280q-36 3 -72 38.5t-36 68.5q0 60 90 289h-4q-138 -224 -192 -289q-84 -105 -157 -105q-69 0 -117.5 53.5t-48.5 137.5q0 79 29.5 168t78.5 169.5t101 147t107 121.5q111 111 211 111q49 0 73 -43.5t23 -151.5h4l70 207
l131 -8l-160 -440l-123 -383l103 -13l141 226l12 -7q-110 -232 -203 -284q-97 -51 -148.5 -119t-51.5 -143q0 -57 26.5 -91t77.5 -34q28 0 51.5 9t34.5 18t35 30l4 -4q-93 -115 -192 -115zM616 649q0 59 -43.5 108.5t-107.5 49.5q-58 0 -107 -49q-74 -76 -136 -241t-62 -290
q0 -72 28 -110.5t68 -38.5q107 0 307 401q21 41 37 91.5t16 78.5z" />
    <glyph glyph-name="Cacute" unicode="&#x106;" horiz-adv-x="1374" 
d="M780 1389l291 383h166l-444 -383h-13zM752 -31q-145 0 -267.5 44t-206 121.5t-130 184t-46.5 230.5q0 152 58 291.5t158.5 243.5t244 165.5t305.5 61.5q233 0 389 -111l117 33l-59 -352h-8l-76 293q-42 45 -137.5 80.5t-202.5 35.5q-113 0 -212 -43.5t-172 -119.5
t-125.5 -175.5t-79 -213.5t-26.5 -232q0 -238 126.5 -378t351.5 -140q140 0 245 65t205 193l62 80l8 -2l-123 -301l-70 -5q-59 -19 -150 -34t-179 -15z" />
    <glyph glyph-name="cacute" unicode="&#x107;" horiz-adv-x="677" 
d="M408 1006l290 383h166l-444 -383h-12zM264 -25q-109 0 -175 83t-66 200q0 108 44.5 224t114.5 206.5t163 149.5t183 59q76 0 133.5 -42t57.5 -103q0 -42 -26.5 -71.5t-61.5 -29.5q-32 0 -59 22.5t-27 53.5q0 61 71 96q-2 2 -14 13.5t-16.5 15t-16 10.5t-23 9.5t-26.5 2.5
q-78 0 -158 -77q-80 -84 -138 -228.5t-58 -273.5q0 -110 40.5 -169.5t117.5 -59.5q76 0 135 48t133 169l14 -7q-37 -64 -71.5 -113t-78 -94t-92.5 -69.5t-100 -24.5z" />
    <glyph glyph-name="Ccircumflex" unicode="&#x108;" horiz-adv-x="1374" 
d="M614 1366l336 385h11l176 -385h-13l-190 231h-6l-303 -231h-11zM752 -31q-145 0 -267.5 44t-206 121.5t-130 184t-46.5 230.5q0 152 58 291.5t158.5 243.5t244 165.5t305.5 61.5q233 0 389 -111l117 33l-59 -352h-8l-76 293q-42 45 -137.5 80.5t-202.5 35.5
q-113 0 -212 -43.5t-172 -119.5t-125.5 -175.5t-79 -213.5t-26.5 -232q0 -238 126.5 -378t351.5 -140q140 0 245 65t205 193l62 80l8 -2l-123 -301l-70 -5q-59 -19 -150 -34t-179 -15z" />
    <glyph glyph-name="ccircumflex" unicode="&#x109;" horiz-adv-x="677" 
d="M236 983l335 385h11l176 -385h-13l-190 231h-6l-303 -231h-10zM264 -25q-109 0 -175 83t-66 200q0 108 44.5 224t114.5 206.5t163 149.5t183 59q76 0 133.5 -42t57.5 -103q0 -42 -26.5 -71.5t-61.5 -29.5q-32 0 -59 22.5t-27 53.5q0 61 71 96q-2 2 -14 13.5t-16.5 15
t-16 10.5t-23 9.5t-26.5 2.5q-78 0 -158 -77q-80 -84 -138 -228.5t-58 -273.5q0 -110 40.5 -169.5t117.5 -59.5q76 0 135 48t133 169l14 -7q-37 -64 -71.5 -113t-78 -94t-92.5 -69.5t-100 -24.5z" />
    <glyph glyph-name="Cdotaccent" unicode="&#x10a;" horiz-adv-x="1374" 
d="M752 -31q-145 0 -267.5 44t-206 121.5t-130 184t-46.5 230.5q0 152 58 291.5t158.5 243.5t244 165.5t305.5 61.5q233 0 389 -111l117 33l-59 -352h-8l-76 293q-42 45 -137.5 80.5t-202.5 35.5q-113 0 -212 -43.5t-172 -119.5t-125.5 -175.5t-79 -213.5t-26.5 -232
q0 -238 126.5 -378t351.5 -140q140 0 245 65t205 193l62 80l8 -2l-123 -301l-70 -5q-59 -19 -150 -34t-179 -15zM924 1458q-43 0 -68 30.5t-25 61.5q0 35 24 67t69 32q43 0 67.5 -32t24.5 -67q0 -32 -24.5 -62t-67.5 -30z" />
    <glyph glyph-name="cdotaccent" unicode="&#x10b;" horiz-adv-x="677" 
d="M264 -25q-109 0 -175 83t-66 200q0 108 44.5 224t114.5 206.5t163 149.5t183 59q76 0 133.5 -42t57.5 -103q0 -42 -26.5 -71.5t-61.5 -29.5q-32 0 -59 22.5t-27 53.5q0 61 71 96q-2 2 -14 13.5t-16.5 15t-16 10.5t-23 9.5t-26.5 2.5q-78 0 -158 -77q-80 -84 -138 -228.5
t-58 -273.5q0 -110 40.5 -169.5t117.5 -59.5q76 0 135 48t133 169l14 -7q-37 -64 -71.5 -113t-78 -94t-92.5 -69.5t-100 -24.5zM535 1075q-43 0 -68 30.5t-25 61.5q0 35 24 67t69 32q43 0 67.5 -32t24.5 -67q0 -32 -24.5 -62t-67.5 -30z" />
    <glyph glyph-name="Ccaron" unicode="&#x10c;" horiz-adv-x="1374" 
d="M870 1366l-176 385h13l192 -231h6l301 231h11l-336 -385h-11zM752 -31q-145 0 -267.5 44t-206 121.5t-130 184t-46.5 230.5q0 152 58 291.5t158.5 243.5t244 165.5t305.5 61.5q233 0 389 -111l117 33l-59 -352h-8l-76 293q-42 45 -137.5 80.5t-202.5 35.5
q-113 0 -212 -43.5t-172 -119.5t-125.5 -175.5t-79 -213.5t-26.5 -232q0 -238 126.5 -378t351.5 -140q140 0 245 65t205 193l62 80l8 -2l-123 -301l-70 -5q-59 -19 -150 -34t-179 -15z" />
    <glyph glyph-name="ccaron" unicode="&#x10d;" horiz-adv-x="677" 
d="M483 983l-176 385h12l193 -231h6l301 231h10l-335 -385h-11zM264 -25q-109 0 -175 83t-66 200q0 108 44.5 224t114.5 206.5t163 149.5t183 59q76 0 133.5 -42t57.5 -103q0 -42 -26.5 -71.5t-61.5 -29.5q-32 0 -59 22.5t-27 53.5q0 61 71 96q-2 2 -14 13.5t-16.5 15
t-16 10.5t-23 9.5t-26.5 2.5q-78 0 -158 -77q-80 -84 -138 -228.5t-58 -273.5q0 -110 40.5 -169.5t117.5 -59.5q76 0 135 48t133 169l14 -7q-37 -64 -71.5 -113t-78 -94t-92.5 -69.5t-100 -24.5z" />
    <glyph glyph-name="Dcaron" unicode="&#x10e;" horiz-adv-x="1333" 
d="M713 1366l-176 385h12l192 -231h7l301 231h10l-336 -385h-10zM-41 0l6 12l76 8q102 11 106 33l250 1180q1 6 -1.5 9t-16 6.5t-34 6t-62.5 7.5l-50 6l-2 12l488 2q293 1 450.5 -151t157.5 -388q0 -156 -57.5 -291.5t-163 -236t-265.5 -158t-354 -57.5h-528zM487 18
q130 0 239.5 40t187 110.5t132.5 166.5t81 207.5t26 233.5q0 106 -25 192t-77.5 153t-141.5 104t-209 37h-137l-256 -1209z" />
    <glyph glyph-name="dcaron" unicode="&#x10f;" horiz-adv-x="1212" 
d="M1028 903l-4 8q91 35 152 93.5t61 128.5q0 30 -16 52.5t-39.5 33t-45 15t-38.5 3.5q0 36 29 68t79 32q55 0 91 -39.5t36 -101.5q0 -94 -86.5 -176.5t-218.5 -116.5zM567 -25q-31 0 -74.5 36.5t-43.5 68.5q0 56 88 291h-5q-137 -224 -189 -289q-85 -104 -157 -105
q-69 0 -117.5 53.5t-48.5 137.5q0 79 29.5 168.5t78.5 170t101 147.5t107 122q114 117 209 117q91 0 94 -209h4l174 573q8 48 -10 48l-205 6l4 12l381 35l-246 -742l-176 -550l103 -13l141 223l12 -6q-143 -295 -254 -295zM256 78q56 0 135 104.5t162 274.5q63 126 63 190
q0 59 -44.5 110.5t-108.5 51.5q-56 0 -105 -49q-74 -74 -136 -241t-62 -294q0 -71 28 -109t68 -38z" />
    <glyph glyph-name="Dcroat" unicode="&#x110;" horiz-adv-x="1363" 
d="M270 631h-176l10 24h170l123 578q1 6 -1.5 9t-16 6.5t-34 6t-62.5 7.5l-50 6l-2 12l488 2q293 1 450.5 -151t157.5 -388q0 -156 -57.5 -291.5t-163 -236t-265.5 -158t-354 -57.5h-528l6 12l76 8q102 11 106 33zM434 655h316l2 -24h-324l-121 -574l180 -39q130 0 239.5 40
t187 110.5t132.5 166.5t81 207.5t26 233.5q0 106 -25 192t-77.5 153t-141.5 104t-209 37h-137z" />
    <glyph glyph-name="dcroat" unicode="&#x111;" horiz-adv-x="872" 
d="M567 -25q-31 0 -74.5 36.5t-43.5 68.5q0 56 88 291h-5q-137 -224 -189 -289q-85 -104 -157 -105q-69 0 -117.5 53.5t-48.5 137.5q0 79 29.5 168.5t78.5 170t101 147.5t107 122q114 117 209 117q91 0 94 -209h4l113 375h-207l18 51h205l45 147q8 48 -10 48l-205 6l4 12
l381 35l-82 -248h137q-1 -3 -3 -8.5t-5.5 -16.5t-6 -18.5t-1.5 -7.5l-137 2l-148 -445l-176 -550l103 -13l141 223l12 -6q-143 -295 -254 -295zM256 78q56 0 135 104.5t162 274.5q63 126 63 190q0 59 -44.5 110.5t-108.5 51.5q-56 0 -105 -49q-74 -74 -136 -241t-62 -294
q0 -71 28 -109t68 -38z" />
    <glyph glyph-name="Emacron" unicode="&#x112;" horiz-adv-x="1171" 
d="M-45 0l6 12l76 8q106 12 110 33l250 1180q1 6 -1.5 9t-16 6.5t-34 6t-62.5 7.5l-54 6l-2 12h871l28 -362l-10 -3l-8 29q-18 53 -30 85.5t-29.5 70t-34.5 59.5t-40.5 44.5t-51.5 33.5t-64.5 18t-81.5 7h-213l-123 -582l146 2q96 3 146 18t78 46t60 100l13 28l12 -2
l-86 -413l-12 2l2 26q3 26 3 45.5t-2 36t-9 28.5t-14.5 21t-23 15t-30.5 10t-41.5 7t-50.5 4t-62 3l-133 5l-135 -633l299 -11q71 1 132.5 21t105 47.5t89 76.5t74 89.5t70.5 105.5l21 29l10 -2l-160 -385h-987zM473 1450l25 51h510l-23 -51h-512z" />
    <glyph glyph-name="emacron" unicode="&#x113;" horiz-adv-x="694" 
d="M264 -25q-109 0 -175 83t-66 200q0 88 28 181.5t77 174t110 145t133.5 101.5t142.5 37q87 0 143 -39.5t56 -103.5q0 -98 -126.5 -162.5t-389.5 -108.5q-31 -105 -31 -188q0 -110 42.5 -169.5t123.5 -59.5q75 0 134.5 48.5t133.5 168.5l14 -7q-170 -301 -350 -301z
M207 502q210 38 292.5 97.5t82.5 166.5q0 48 -22 78t-66 30q-57 0 -129 -69q-46 -46 -90 -128t-72 -173zM211 1067l25 51h509l-22 -51h-512z" />
    <glyph glyph-name="Ebreve" unicode="&#x114;" horiz-adv-x="1171" 
d="M-45 0l6 12l76 8q106 12 110 33l250 1180q1 6 -1.5 9t-16 6.5t-34 6t-62.5 7.5l-54 6l-2 12h871l28 -362l-10 -3l-8 29q-18 53 -30 85.5t-29.5 70t-34.5 59.5t-40.5 44.5t-51.5 33.5t-64.5 18t-81.5 7h-213l-123 -582l146 2q96 3 146 18t78 46t60 100l13 28l12 -2
l-86 -413l-12 2l2 26q3 26 3 45.5t-2 36t-9 28.5t-14.5 21t-23 15t-30.5 10t-41.5 7t-50.5 4t-62 3l-133 5l-135 -633l299 -11q71 1 132.5 21t105 47.5t89 76.5t74 89.5t70.5 105.5l21 29l10 -2l-160 -385h-987zM750 1378q-47 0 -81 20t-53 50t-30.5 77t-14.5 88t-4 97h13
q22 -118 64 -176.5t122 -58.5t147.5 59t135.5 176h12q-66 -147 -99 -197q-88 -134 -212 -135z" />
    <glyph glyph-name="ebreve" unicode="&#x115;" horiz-adv-x="694" 
d="M264 -25q-109 0 -175 83t-66 200q0 88 28 181.5t77 174t110 145t133.5 101.5t142.5 37q87 0 143 -39.5t56 -103.5q0 -98 -126.5 -162.5t-389.5 -108.5q-31 -105 -31 -188q0 -110 42.5 -169.5t123.5 -59.5q75 0 134.5 48.5t133.5 168.5l14 -7q-170 -301 -350 -301z
M207 502q210 38 292.5 97.5t82.5 166.5q0 48 -22 78t-66 30q-57 0 -129 -69q-46 -46 -90 -128t-72 -173zM489 995q-47 0 -81 20t-52.5 50t-30 77t-14.5 88t-4 97h12q22 -118 64 -176.5t123 -58.5q80 0 147 59t135 176h13q-66 -148 -101 -200q-87 -132 -211 -132z" />
    <glyph glyph-name="Edotaccent" unicode="&#x116;" horiz-adv-x="1171" 
d="M-45 0l6 12l76 8q106 12 110 33l250 1180q1 6 -1.5 9t-16 6.5t-34 6t-62.5 7.5l-54 6l-2 12h871l28 -362l-10 -3l-8 29q-18 53 -30 85.5t-29.5 70t-34.5 59.5t-40.5 44.5t-51.5 33.5t-64.5 18t-81.5 7h-213l-123 -582l146 2q96 3 146 18t78 46t60 100l13 28l12 -2
l-86 -413l-12 2l2 26q3 26 3 45.5t-2 36t-9 28.5t-14.5 21t-23 15t-30.5 10t-41.5 7t-50.5 4t-62 3l-133 5l-135 -633l299 -11q71 1 132.5 21t105 47.5t89 76.5t74 89.5t70.5 105.5l21 29l10 -2l-160 -385h-987zM737 1458q-43 0 -67.5 30t-24.5 62q0 35 23.5 67t68.5 32
q43 0 67.5 -32t24.5 -67q0 -32 -24.5 -62t-67.5 -30z" />
    <glyph glyph-name="edotaccent" unicode="&#x117;" horiz-adv-x="694" 
d="M264 -25q-109 0 -175 83t-66 200q0 88 28 181.5t77 174t110 145t133.5 101.5t142.5 37q87 0 143 -39.5t56 -103.5q0 -98 -126.5 -162.5t-389.5 -108.5q-31 -105 -31 -188q0 -110 42.5 -169.5t123.5 -59.5q75 0 134.5 48.5t133.5 168.5l14 -7q-170 -301 -350 -301z
M207 502q210 38 292.5 97.5t82.5 166.5q0 48 -22 78t-66 30q-57 0 -129 -69q-46 -46 -90 -128t-72 -173zM518 1075q-43 0 -67.5 30t-24.5 62q0 35 23.5 67t68.5 32q43 0 67.5 -32t24.5 -67q0 -32 -24.5 -62t-67.5 -30z" />
    <glyph glyph-name="Eogonek" unicode="&#x118;" horiz-adv-x="1171" 
d="M692 -461q-66 0 -104.5 44t-38.5 112q0 93 85 170.5t208 134.5h-887l6 12l76 8q106 12 110 33l250 1180q1 6 -2 9t-15.5 6.5t-34.5 6.5t-62 7l-54 6l-2 12h871l28 -362h-10l-8 28q-21 61 -35 97.5t-35 77.5t-43 63t-53.5 42t-72 28t-93.5 8h-213l-123 -582l148 2
q95 3 144.5 18.5t77.5 47t60 100.5l13 26l12 -2l-86 -411l-12 2l2 26q3 26 3 45.5t-1.5 36t-9 28t-14.5 20.5t-23 15t-30.5 10t-41 6.5t-49.5 3.5t-62 3l-135 5l-135 -633l301 -11q59 1 110 13t94 37.5t77 52.5t69.5 70.5t60 78t58.5 88.5l21 29l10 -2l-160 -385h-70
q-217 -117 -217 -274q0 -57 27 -91t78 -34q28 0 51.5 9t34.5 18t35 30l4 -4q-93 -115 -193 -115z" />
    <glyph glyph-name="eogonek" unicode="&#x119;" horiz-adv-x="694" 
d="M199 -461q-66 0 -105 44t-39 112q0 79 68.5 157.5t163.5 122.5h-23q-109 0 -174 82.5t-65 200.5q0 148 72 297.5t186.5 245.5t230.5 96q87 0 143 -39.5t56 -103.5q0 -98 -126.5 -162.5t-389.5 -106.5q-31 -109 -31 -190q0 -110 42.5 -169.5t123.5 -59.5q75 0 134.5 48.5
t133.5 168.5l14 -7q-115 -219 -245 -278q-92 -40 -149.5 -118t-57.5 -154q0 -57 26.5 -91t77.5 -34q28 0 51.5 9t34.5 18t35 30l4 -4q-93 -115 -192 -115zM207 504q210 38 292.5 97.5t82.5 166.5q0 47 -22 76.5t-66 29.5q-57 0 -129 -69q-46 -46 -90 -127.5t-72 -171.5z" />
    <glyph glyph-name="Ecaron" unicode="&#x11a;" horiz-adv-x="1171" 
d="M733 1366l-176 385h12l193 -231h6l301 231h10l-336 -385h-10zM-45 0l6 12l76 8q106 12 110 33l250 1180q1 6 -1.5 9t-16 6.5t-34 6t-62.5 7.5l-54 6l-2 12h871l28 -362l-10 -3l-8 29q-18 53 -30 85.5t-29.5 70t-34.5 59.5t-40.5 44.5t-51.5 33.5t-64.5 18t-81.5 7h-213
l-123 -582l146 2q96 3 146 18t78 46t60 100l13 28l12 -2l-86 -413l-12 2l2 26q3 26 3 45.5t-2 36t-9 28.5t-14.5 21t-23 15t-30.5 10t-41.5 7t-50.5 4t-62 3l-133 5l-135 -633l299 -11q71 1 132.5 21t105 47.5t89 76.5t74 89.5t70.5 105.5l21 29l10 -2l-160 -385h-987z" />
    <glyph glyph-name="ecaron" unicode="&#x11b;" horiz-adv-x="694" 
d="M477 983l-176 385h12l193 -231h6l301 231h10l-336 -385h-10zM264 -25q-109 0 -175 83t-66 200q0 88 28 181.5t77 174t110 145t133.5 101.5t142.5 37q87 0 143 -39.5t56 -103.5q0 -98 -126.5 -162.5t-389.5 -108.5q-31 -105 -31 -188q0 -110 42.5 -169.5t123.5 -59.5
q75 0 134.5 48.5t133.5 168.5l14 -7q-170 -301 -350 -301zM207 502q210 38 292.5 97.5t82.5 166.5q0 48 -22 78t-66 30q-57 0 -129 -69q-46 -46 -90 -128t-72 -173z" />
    <glyph glyph-name="Gcircumflex" unicode="&#x11c;" horiz-adv-x="1404" 
d="M610 1366l336 385h10l177 -385h-13l-190 231h-6l-303 -231h-11zM725 -31q-140 0 -257.5 44.5t-197.5 122.5t-124 184.5t-44 228.5q0 149 55.5 287.5t153.5 244t243.5 169t313.5 63.5q236 0 389 -111l123 33l-69 -354l-6 2l-74 293q-44 46 -139.5 80t-200.5 34
q-113 0 -212.5 -44.5t-172 -120t-125 -174.5t-79 -210t-26.5 -223q0 -237 127.5 -383.5t339.5 -146.5q136 0 230 55l98 465q1 8 -7 12.5t-35 8.5t-81 8l-76 6l-2 12h541l-8 -12l-74 -8q-102 -11 -106 -33l-90 -430l122 16l-2 -8q-315 -111 -528 -111z" />
    <glyph glyph-name="gcircumflex" unicode="&#x11d;" horiz-adv-x="753" 
d="M201 983l336 385h10l176 -385h-12l-191 231h-6l-303 -231h-10zM213 -485q-174 0 -292 65.5t-118 163.5q0 76 95.5 149.5t226.5 108.5v4q-74 33 -108.5 66.5t-34.5 81.5q0 54 64.5 104t141.5 64l2 4q-96 86 -96 223q0 133 100.5 239.5t227.5 106.5q85 0 153 -68l259 47
l-23 -104l-221 45v-4q78 -92 78 -201q0 -81 -49.5 -159.5t-129 -127.5t-161.5 -49q-64 0 -115 33q-53 -6 -90 -36.5t-37 -63.5t42.5 -58.5t166.5 -66.5l37 -12q150 -51 234.5 -115t84.5 -152q0 -117 -130 -202.5t-308 -85.5zM307 293q64 0 121 57q60 62 92.5 164.5
t32.5 208.5q0 67 -29.5 109t-74.5 42t-101 -53q-61 -61 -99 -169.5t-38 -202.5q0 -93 37 -130q26 -26 59 -26zM272 -463q116 0 195.5 58.5t79.5 138.5q0 38 -21 70.5t-61 59t-85 47t-104 40.5q-69 23 -120 41q-107 -28 -168.5 -86t-61.5 -133q0 -102 96 -169t250 -67z" />
    <glyph glyph-name="Gbreve" unicode="&#x11e;" horiz-adv-x="1404" 
d="M725 -31q-140 0 -257.5 44.5t-197.5 122.5t-124 184.5t-44 228.5q0 149 55.5 287.5t153.5 244t243.5 169t313.5 63.5q236 0 389 -111l123 33l-69 -354l-6 2l-74 293q-44 46 -139.5 80t-200.5 34q-113 0 -212.5 -44.5t-172 -120t-125 -174.5t-79 -210t-26.5 -223
q0 -237 127.5 -383.5t339.5 -146.5q136 0 230 55l98 465q1 8 -7 12.5t-35 8.5t-81 8l-76 6l-2 12h541l-8 -12l-74 -8q-102 -11 -106 -33l-90 -430l122 16l-2 -8q-315 -111 -528 -111zM881 1378q-47 0 -81 20t-53 50t-30.5 77t-14.5 88t-4 97h13q22 -118 64 -176.5t122 -58.5
t147.5 59t135.5 176h12q-66 -147 -99 -197q-88 -134 -212 -135z" />
    <glyph glyph-name="gbreve" unicode="&#x11f;" horiz-adv-x="753" 
d="M213 -485q-174 0 -292 65.5t-118 163.5q0 76 95.5 149.5t226.5 108.5v4q-74 33 -108.5 66.5t-34.5 81.5q0 54 64.5 104t141.5 64l2 4q-96 86 -96 223q0 133 100.5 239.5t227.5 106.5q85 0 153 -68l259 47l-23 -104l-221 45v-4q78 -92 78 -201q0 -81 -49.5 -159.5
t-129 -127.5t-161.5 -49q-64 0 -115 33q-53 -6 -90 -36.5t-37 -63.5t42.5 -58.5t166.5 -66.5l37 -12q150 -51 234.5 -115t84.5 -152q0 -117 -130 -202.5t-308 -85.5zM307 293q64 0 121 57q60 62 92.5 164.5t32.5 208.5q0 67 -29.5 109t-74.5 42t-101 -53q-61 -61 -99 -169.5
t-38 -202.5q0 -93 37 -130q26 -26 59 -26zM272 -463q116 0 195.5 58.5t79.5 138.5q0 38 -21 70.5t-61 59t-85 47t-104 40.5q-69 23 -120 41q-107 -28 -168.5 -86t-61.5 -133q0 -102 96 -169t250 -67zM463 995q-47 0 -81 20t-52.5 50t-30 77t-14.5 88t-4 97h12
q22 -118 64 -176.5t122 -58.5t147.5 59t135.5 176h12q-66 -147 -99 -197q-88 -134 -212 -135z" />
    <glyph glyph-name="Gdotaccent" unicode="&#x120;" horiz-adv-x="1404" 
d="M725 -31q-140 0 -257.5 44.5t-197.5 122.5t-124 184.5t-44 228.5q0 149 55.5 287.5t153.5 244t243.5 169t313.5 63.5q236 0 389 -111l123 33l-69 -354l-6 2l-74 293q-44 46 -139.5 80t-200.5 34q-113 0 -212.5 -44.5t-172 -120t-125 -174.5t-79 -210t-26.5 -223
q0 -237 127.5 -383.5t339.5 -146.5q136 0 230 55l98 465q1 8 -7 12.5t-35 8.5t-81 8l-76 6l-2 12h541l-8 -12l-74 -8q-102 -11 -106 -33l-90 -430l122 16l-2 -8q-315 -111 -528 -111zM911 1458q-43 0 -67.5 30t-24.5 62q0 35 23.5 67t68.5 32q43 0 68 -32t25 -67
q0 -31 -25 -61.5t-68 -30.5z" />
    <glyph glyph-name="gdotaccent" unicode="&#x121;" horiz-adv-x="753" 
d="M213 -485q-174 0 -292 65.5t-118 163.5q0 76 95.5 149.5t226.5 108.5v4q-74 33 -108.5 66.5t-34.5 81.5q0 54 64.5 104t141.5 64l2 4q-96 86 -96 223q0 133 100.5 239.5t227.5 106.5q85 0 153 -68l259 47l-23 -104l-221 45v-4q78 -92 78 -201q0 -81 -49.5 -159.5
t-129 -127.5t-161.5 -49q-64 0 -115 33q-53 -6 -90 -36.5t-37 -63.5t42.5 -58.5t166.5 -66.5l37 -12q150 -51 234.5 -115t84.5 -152q0 -117 -130 -202.5t-308 -85.5zM307 293q64 0 121 57q60 62 92.5 164.5t32.5 208.5q0 67 -29.5 109t-74.5 42t-101 -53q-61 -61 -99 -169.5
t-38 -202.5q0 -93 37 -130q26 -26 59 -26zM272 -463q116 0 195.5 58.5t79.5 138.5q0 38 -21 70.5t-61 59t-85 47t-104 40.5q-69 23 -120 41q-107 -28 -168.5 -86t-61.5 -133q0 -102 96 -169t250 -67zM502 1075q-43 0 -67.5 30t-24.5 62q0 35 23.5 67t68.5 32q43 0 67.5 -32
t24.5 -67q0 -32 -24.5 -62t-67.5 -30z" />
    <glyph glyph-name="Gcommaaccent" unicode="&#x122;" horiz-adv-x="1404" 
d="M780 -303q-17 -83 -108 -156t-195 -88l-4 8q66 15 123.5 63t71.5 118q13 66 -28 97.5t-101 4.5q-13 45 24.5 86.5t102.5 34.5q64 -6 96.5 -52.5t17.5 -115.5zM725 -31q-140 0 -257.5 44.5t-197.5 122.5t-124 184.5t-44 228.5q0 149 55.5 287.5t153.5 244t243.5 169
t313.5 63.5q236 0 389 -111l123 33l-69 -354l-6 2l-74 293q-44 46 -139.5 80t-200.5 34q-113 0 -212.5 -44.5t-172 -120t-125 -174.5t-79 -210t-26.5 -223q0 -237 127.5 -383.5t339.5 -146.5q136 0 230 55l98 465q1 8 -7 12.5t-35 8.5t-81 8l-76 6l-2 12h541l-8 -12l-74 -8
q-102 -11 -106 -33l-90 -430l122 16l-2 -8q-315 -111 -528 -111z" />
    <glyph glyph-name="gcommaaccent" unicode="&#x123;" horiz-adv-x="753" 
d="M416 1192q17 83 108 156t195 88l4 -9q-66 -15 -123.5 -63t-71.5 -117q-13 -66 28 -97.5t101 -4.5q13 -45 -24.5 -86.5t-102.5 -34.5q-64 6 -96.5 52.5t-17.5 115.5zM213 -485q-174 0 -292 65.5t-118 163.5q0 76 95.5 149.5t226.5 108.5v4q-74 33 -108.5 66.5t-34.5 81.5
q0 54 64.5 104t141.5 64l2 4q-96 86 -96 223q0 133 100.5 239.5t227.5 106.5q85 0 153 -68l259 47l-23 -104l-221 45v-4q78 -92 78 -201q0 -81 -49.5 -159.5t-129 -127.5t-161.5 -49q-64 0 -115 33q-53 -6 -90 -36.5t-37 -63.5t42.5 -58.5t166.5 -66.5l37 -12
q150 -51 234.5 -115t84.5 -152q0 -117 -130 -202.5t-308 -85.5zM307 293q64 0 121 57q60 62 92.5 164.5t32.5 208.5q0 67 -29.5 109t-74.5 42t-101 -53q-61 -61 -99 -169.5t-38 -202.5q0 -93 37 -130q26 -26 59 -26zM272 -463q116 0 195.5 58.5t79.5 138.5q0 38 -21 70.5
t-61 59t-85 47t-104 40.5q-69 23 -120 41q-107 -28 -168.5 -86t-61.5 -133q0 -102 96 -169t250 -67z" />
    <glyph glyph-name="Hcircumflex" unicode="&#x124;" horiz-adv-x="1452" 
d="M631 1366l336 385h10l176 -385h-12l-191 231h-6l-303 -231h-10zM-41 0l6 12l76 8q102 11 106 33l250 1180q1 6 -1.5 9t-16 6.5t-34 6t-62.5 7.5l-50 6l-2 12h521l-9 -12l-81 -8q-103 -11 -107 -33l-119 -565h672l123 571q1 6 -2.5 9t-15.5 6.5t-34.5 6.5t-62.5 7l-57 6
l-2 12h520l-8 -12l-74 -8q-102 -11 -106 -33l-250 -1180q-1 -6 1.5 -9t16 -6.5t34 -6t62.5 -7.5l50 -6l2 -12h-521l7 12l83 8q103 8 107 33l121 588h-670l-127 -594q-1 -6 2 -9t15 -6.5t35 -6.5t63 -7l57 -6l2 -12h-520z" />
    <glyph glyph-name="hcircumflex" unicode="&#x125;" horiz-adv-x="872" 
d="M573 -25q-32 0 -83.5 29t-51.5 49q0 10 22 67t64 162t66 167q10 26 27 69.5t28.5 73.5t23.5 63t18.5 54t6.5 30q0 29 -27 50.5t-61 21.5q-50 0 -173.5 -174.5t-252.5 -448.5l-76 -194l-133 10l117 336q52 156 121 385.5t113 380.5l43 151q5 17 2 32.5t-13 15.5l-164 6
l5 12l337 35l-38 -131q-109 -376 -173 -577t-126 -351l12 -4q83 163 183 316t157 210q69 72 143 72q48 0 91.5 -38.5t43.5 -84.5q0 -59 -106 -321l-154 -383l105 -13l143 223l12 -6q-71 -147 -139 -221t-113 -74zM154 1366l335 385h11l176 -385h-12l-191 231h-6l-303 -231
h-10z" />
    <glyph glyph-name="Hbar" unicode="&#x126;" horiz-adv-x="1452" 
d="M1305 0h-521l7 12l83 8q103 8 107 33l123 588h-672l-127 -594q-1 -6 2 -9t15 -6.5t35 -6.5t63 -7l57 -6l2 -12h-520l6 12l76 8q102 11 106 33l185 869h-182l24 51h168l55 260q1 6 -1.5 9t-15.5 6.5t-34 6l-63 7.5l-50 6l-2 12h521l-9 -12l-81 -8q-103 -8 -107 -33
l-53 -254h674l55 260q1 6 -2 9t-15 6.5t-35 6.5t-63 7l-57 6l-2 12h520l-8 -12l-74 -8q-102 -11 -106 -33l-54 -254h168l-22 -51h-158l-184 -875q-1 -6 1.5 -9t16 -6.5t34 -6t62.5 -7.5l50 -6zM436 662h672l55 260h-671z" />
    <glyph glyph-name="hbar" unicode="&#x127;" horiz-adv-x="872" 
d="M168 1059l25 51h131l43 147q5 17 2 32.5t-13 15.5l-163 6l4 12l335 35l-38 -131q-16 -47 -35 -117h209l-23 -51h-201q-163 -548 -249 -760l12 -4q83 164 183 317.5t157 210.5q70 70 143 70q48 0 91.5 -38.5t43.5 -84.5q0 -59 -106 -321l-154 -383l105 -13l143 223l12 -6
q-71 -147 -139 -221t-113 -74q-32 0 -83.5 29t-51.5 49q0 10 22 67t64 162t66 167q10 26 27 69.5t28.5 73.5t23.5 63t18.5 54t6.5 30q0 30 -27 52t-61 22q-50 0 -173.5 -175.5t-252.5 -449.5l-76 -194l-133 10l119 336q91 278 219 719h-141z" />
    <glyph glyph-name="Imacron" unicode="&#x12a;" horiz-adv-x="659" 
d="M-29 0l6 12l84 8q103 8 107 33l250 1180q1 6 -2.5 9t-15.5 6.5t-34.5 6.5t-62.5 7l-57 6l-2 12h528l-8 -12l-82 -8q-103 -11 -107 -33l-249 -1180q-1 -6 2 -9t14.5 -6.5t34.5 -6.5t63 -7l58 -6l2 -12h-529zM272 1450l25 51h510l-23 -51h-512z" />
    <glyph glyph-name="imacron" unicode="&#x12b;" horiz-adv-x="481" 
d="M180 -25q-32 0 -88.5 27t-56.5 45q0 14 65.5 185t139.5 358.5t84 216.5l-117 10l-139 -221l-13 6q144 295 279 295q36 0 65 -42.5t29 -92.5q0 -28 -58.5 -180t-129 -322.5t-78.5 -191.5l114 -15l144 223l12 -6q-71 -147 -139 -221t-113 -74zM102 1067l25 51h510l-23 -51
h-512z" />
    <glyph glyph-name="Ibreve" unicode="&#x12c;" horiz-adv-x="659" 
d="M-29 0l6 12l84 8q103 8 107 33l250 1180q1 6 -2.5 9t-15.5 6.5t-34.5 6.5t-62.5 7l-57 6l-2 12h528l-8 -12l-82 -8q-103 -11 -107 -33l-249 -1180q-1 -6 2 -9t14.5 -6.5t34.5 -6.5t63 -7l58 -6l2 -12h-529zM530 1378q-47 0 -81 20t-52.5 50t-30 77t-14.5 88t-4 97h12
q22 -118 64 -176.5t123 -58.5q80 0 147 59t135 176h13q-66 -148 -101 -200q-87 -132 -211 -132z" />
    <glyph glyph-name="ibreve" unicode="&#x12d;" horiz-adv-x="481" 
d="M180 -25q-32 0 -88.5 27t-56.5 45q0 14 65.5 185t139.5 358.5t84 216.5l-117 10l-139 -221l-13 6q144 295 279 295q36 0 65 -42.5t29 -92.5q0 -28 -58.5 -180t-129 -322.5t-78.5 -191.5l114 -15l144 223l12 -6q-71 -147 -139 -221t-113 -74zM356 995q-47 0 -81 20
t-52.5 50t-30 77t-14.5 88t-4 97h12q22 -118 64 -176.5t123 -58.5q80 0 147 59t135 176h13q-66 -148 -101 -200q-87 -132 -211 -132z" />
    <glyph glyph-name="Iogonek" unicode="&#x12e;" horiz-adv-x="659" 
d="M276 -461q-66 0 -104.5 44t-38.5 112q0 97 90.5 180.5t216.5 124.5h-469l6 12l84 8q103 8 107 33l250 1180q1 6 -2 9t-15 6.5t-35 6.5t-63 7l-57 6l-2 12h528l-8 -12l-82 -8q-103 -8 -107 -33l-249 -1180q-1 -6 2 -9t14.5 -6.5t34.5 -6.5t63 -7l58 -6l2 -12
q-109 -29 -184.5 -105t-75.5 -169q0 -57 26.5 -91t77.5 -34q28 0 51.5 9t34.5 18t35 30l4 -4q-93 -115 -193 -115z" />
    <glyph glyph-name="iogonek" unicode="&#x12f;" horiz-adv-x="481" 
d="M61 -461q-67 0 -106 44t-39 112q0 152 250 282q-38 5 -83.5 29.5t-45.5 42.5q0 14 65 183.5t139.5 359t84.5 217.5l-117 8l-139 -221l-13 6q144 295 277 295q36 0 65 -42.5t29 -92.5q0 -28 -58.5 -180t-129 -322.5t-78.5 -191.5l114 -15l144 223l12 -6
q-48 -101 -107 -181t-104 -105q-92 -46 -145 -114.5t-53 -143.5q0 -57 27 -91t77 -34q28 0 52 9.5t34 17.5t37 30l4 -4q-93 -115 -193 -115zM567 1206q0 -47 -28 -83t-64 -36q-38 0 -61 25t-23 62q0 47 28 82.5t62 35.5q39 0 63.5 -24.5t22.5 -61.5z" />
    <glyph glyph-name="Idotaccent" unicode="&#x130;" horiz-adv-x="659" 
d="M-29 0l6 12l84 8q103 8 107 33l250 1180q1 6 -2.5 9t-15.5 6.5t-34.5 6.5t-62.5 7l-57 6l-2 12h528l-8 -12l-82 -8q-103 -11 -107 -33l-249 -1180q-1 -6 2 -9t14.5 -6.5t34.5 -6.5t63 -7l58 -6l2 -12h-529zM563 1458q-43 0 -67.5 30t-24.5 62q0 35 23.5 67t68.5 32
q43 0 67.5 -32t24.5 -67q0 -32 -24.5 -62t-67.5 -30z" />
    <glyph glyph-name="dotlessi" unicode="&#x131;" horiz-adv-x="481" 
d="M180 -25q-32 0 -88.5 27t-56.5 45q0 14 65.5 185t139.5 358.5t84 216.5l-117 10l-139 -221l-13 6q144 295 279 295q36 0 65 -42.5t29 -92.5q0 -28 -58.5 -180t-129 -322.5t-78.5 -191.5l114 -15l144 223l12 -6q-71 -147 -139 -221t-113 -74z" />
    <glyph glyph-name="Jcircumflex" unicode="&#x134;" horiz-adv-x="618" 
d="M236 1366l335 385h11l176 -385h-13l-190 231h-6l-303 -231h-10zM-125 -342q-72 0 -111.5 30t-39.5 79q0 44 31 76t75 32q49 0 77.5 -35.5t18.5 -82t-59 -74.5q85 -20 161 67.5t111 267.5l258 1215q1 6 -2 9t-15.5 6.5t-34.5 6.5t-62 7l-58 6l-2 12h529l-9 -12l-81 -8
q-103 -11 -107 -33l-266 -1260q-6 -31 -47 -82.5t-98 -102t-131.5 -87.5t-137.5 -37z" />
    <glyph glyph-name="jcircumflex" unicode="&#x135;" horiz-adv-x="440" 
d="M322 897q36 0 65 -42.5t29 -92.5q0 -46 -81.5 -292.5t-156.5 -436.5q-69 -172 -126 -281t-120 -170q-36 -38 -85.5 -65t-90.5 -27q-46 0 -82 29.5t-36 72.5q0 30 22.5 55t58.5 25q33 0 56 -21t24.5 -55.5t-32.5 -78.5l96 34q48 51 88 141.5t94 256.5l264 860l-108 8
l-144 -221l-12 6q144 295 277 295zM78 983l336 385h10l176 -385h-12l-191 231h-6l-303 -231h-10z" />
    <glyph glyph-name="Kcommaaccent" unicode="&#x136;" horiz-adv-x="1347" 
d="M676 -303q-17 -83 -108 -156t-195 -88l-4 8q66 15 123 63t71 118q13 66 -28 97.5t-101 4.5q-13 45 24.5 86.5t102.5 34.5q64 -6 97 -52.5t18 -115.5zM-41 0l6 12l80 8q98 8 102 33l250 1180q1 6 -1.5 9t-13.5 6.5t-33 6.5t-62 7l-54 6l-2 12h531l-8 -12l-92 -8
q-103 -8 -107 -33l-143 -682l413 342q265 223 314 292q37 51 -2 68q-22 9 -93 15l-75 6v12h491l-8 -12l-29 -2q-27 -2 -45 -4t-40.5 -9.5t-36.5 -13.5t-43 -25.5t-48.5 -34.5t-63.5 -51t-79 -66t-104 -88t-129 -108l-50 -39l256 -651q23 -57 36.5 -85.5t32.5 -45.5
t35.5 -21.5t53.5 -7.5l55 -4l2 -12h-518l6 12l58 4q72 4 84.5 47t-21.5 125l-205 535l-253 -209l-101 -467q-1 -8 5.5 -12.5t32 -8.5t77.5 -8l67 -6l2 -12h-530z" />
    <glyph glyph-name="kcommaaccent" unicode="&#x137;" horiz-adv-x="827" 
d="M383 -303q-17 -83 -108 -156t-195 -88l-4 8q66 15 123 63t71 118q13 66 -28 97.5t-101 4.5q-13 45 24.5 86.5t102.5 34.5q64 -6 97 -52.5t18 -115.5zM555 -25q-65 0 -113 41q-14 294 -20 343q-12 98 -48 119q-19 11 -46 11q-42 0 -72 -24l-152 -471l-135 10
q34 85 119 336q52 156 121 385.5t113 380.5l43 151q5 15 2 31.5t-13 16.5l-164 6l5 12l335 35l-38 -131q-109 -372 -224 -727q11 2 33.5 4t24.5 2q174 66 250.5 113.5t99.5 95.5l-2 4q-31 9 -51.5 34t-20.5 58q0 31 26.5 57.5t59.5 26.5q34 0 60 -26t26 -64q0 -32 -12 -60
t-43 -60.5t-94 -67.5t-156 -70l-96 -41q51 -6 85.5 -35.5t57 -89t35 -133.5t22.5 -187l68 -6l133 240l10 -4q-58 -146 -117.5 -231t-111.5 -85z" />
    <glyph glyph-name="Lacute" unicode="&#x139;" horiz-adv-x="1110" 
d="M434 1389l291 383h166l-445 -383h-12zM-41 0l6 12l80 8q98 8 102 33l250 1180q1 6 -1.5 9t-13.5 6.5t-33 6.5t-62 7l-54 6l-2 12h562l-9 -12l-122 -8q-103 -8 -107 -33l-254 -1198l252 -11q60 0 109.5 11t91 36t72.5 51t64.5 72t56.5 83t59 100l14 26l14 -2l-139 -395
h-936z" />
    <glyph glyph-name="lacute" unicode="&#x13a;" horiz-adv-x="436" 
d="M256 1389l291 383h166l-445 -383h-12zM135 -25q-32 0 -85 28t-50 46l365 1208q5 17 2 32.5t-13 15.5l-164 6l5 12l337 35l-405 -1292l98 -13l144 223l12 -6q-72 -149 -136.5 -222t-109.5 -73z" />
    <glyph glyph-name="Lcommaaccent" unicode="&#x13b;" horiz-adv-x="1110" 
d="M565 -303q-17 -83 -108 -156t-195 -88l-4 8q66 15 123.5 63t71.5 118q13 66 -28 97.5t-101 4.5q-13 45 24.5 86.5t102.5 34.5q64 -6 96.5 -52.5t17.5 -115.5zM-41 0l6 12l80 8q98 8 102 33l250 1180q1 6 -1.5 9t-13.5 6.5t-33 6.5t-62 7l-54 6l-2 12h562l-9 -12l-122 -8
q-103 -8 -107 -33l-254 -1198l252 -11q60 0 109.5 11t91 36t72.5 51t64.5 72t56.5 83t59 100l14 26l14 -2l-139 -395h-936z" />
    <glyph glyph-name="lcommaaccent" unicode="&#x13c;" horiz-adv-x="436" 
d="M184 -303q-17 -83 -108 -156t-195 -88l-4 8q66 15 123.5 63t71.5 118q13 66 -28 97.5t-101 4.5q-13 45 24.5 86.5t102.5 34.5q64 -6 96.5 -52.5t17.5 -115.5zM135 -25q-32 0 -85 28t-50 46l365 1208q5 17 2 32.5t-13 15.5l-164 6l5 12l337 35l-405 -1292l98 -13l144 223
l12 -6q-72 -149 -136.5 -222t-109.5 -73z" />
    <glyph glyph-name="Lcaron" unicode="&#x13d;" horiz-adv-x="1280" 
d="M1135 879l-5 8q92 35 152.5 93t60.5 128q0 30 -16 52.5t-39.5 33t-45 15t-38.5 3.5q0 36 29.5 68.5t79.5 32.5q55 0 91 -40t36 -102q0 -94 -86.5 -176t-218.5 -116zM-41 0l6 12l80 8q98 8 102 33l250 1180q1 6 -1.5 9t-13.5 6.5t-33 6.5t-62 7l-54 6l-2 12h562l-9 -12
l-122 -8q-103 -8 -107 -33l-254 -1198l252 -11q60 0 109.5 11t91 36t72.5 51t64.5 72t56.5 83t59 100l14 26l14 -2l-139 -395h-936z" />
    <glyph glyph-name="lcaron" unicode="&#x13e;" horiz-adv-x="772" 
d="M575 907l-4 8q91 35 152 93.5t61 128.5q0 30 -16 52.5t-39.5 33t-45 15t-38.5 3.5q0 35 29.5 67.5t79.5 32.5q55 0 91 -39.5t36 -101.5q0 -94 -87 -176.5t-219 -116.5zM135 -25q-32 0 -85 28t-50 46l365 1208q5 17 2 32.5t-13 15.5l-164 6l5 12l337 35l-405 -1292l98 -13
l144 223l12 -6q-72 -149 -136.5 -222t-109.5 -73z" />
    <glyph glyph-name="Ldot" unicode="&#x13f;" horiz-adv-x="1241" 
d="M-41 0l6 12l80 8q98 8 102 33l250 1180q1 6 -1.5 9t-13.5 6.5t-33 6.5t-62 7l-54 6l-2 12h562l-9 -12l-122 -8q-103 -8 -107 -33l-254 -1198l252 -11q60 0 109.5 11t91 36t72.5 51t64.5 72t56.5 83t59 100l14 26l14 -2l-139 -395h-936zM1249 532q-45 0 -76.5 32.5
t-31.5 76.5q0 41 31.5 71.5t76.5 30.5q43 0 74 -30.5t31 -71.5q0 -43 -30.5 -76t-74.5 -33z" />
    <glyph glyph-name="ldotaccent" unicode="&#x140;" horiz-adv-x="735" 
d="M135 -25q-32 0 -85 28t-50 46l365 1208q5 17 2 32.5t-13 15.5l-164 6l5 12l337 35l-405 -1292l98 -13l144 223l12 -6q-72 -149 -136.5 -222t-109.5 -73zM649 532q-45 0 -76.5 32.5t-31.5 76.5q0 41 31.5 71.5t76.5 30.5q43 0 74 -30.5t31 -71.5q0 -43 -30.5 -76
t-74.5 -33z" />
    <glyph glyph-name="Lslash" unicode="&#x141;" horiz-adv-x="1118" 
d="M262 584l-221 -68l6 25l219 67l133 625q1 6 -2 9t-14.5 6.5t-34.5 6.5t-63 7l-66 6l-2 12h578l-9 -12l-122 -8q-103 -8 -107 -33l-121 -568l223 68l-2 -25q-225 -67 -227 -67l-127 -606l252 -11q51 0 95.5 10t79 24t68 41t58 52t53.5 66.5t49 74t50 85.5l14 26l14 -2
l-145 -395h-946l6 12l92 8q103 8 107 33z" />
    <glyph glyph-name="lslash" unicode="&#x142;" horiz-adv-x="417" 
d="M180 543q0 1 -42.5 -12t-85.5 -26l-42 -13l8 22q11 3 28.5 8.5t54.5 17t61.5 19t23.5 6.5l211 692q5 17 2.5 32.5t-12.5 15.5l-164 6l4 12l338 35l-233 -748l129 41l-2 -22l-135 -41l-164 -522l98 -13l143 223l13 -6q-72 -149 -136.5 -222t-109.5 -73q-32 0 -85 28
t-50 46q0 8 147 494z" />
    <glyph glyph-name="Nacute" unicode="&#x143;" horiz-adv-x="1359" 
d="M815 1389l291 383h166l-445 -383h-12zM1038 -10l-614 1165h-4l-227 -1073q-11 -53 151 -66l37 -4l2 -12h-424l6 12l41 4q149 16 160 70l237 1090q-49 70 -174 88l-24 4l-2 12h340l536 -1032h4l201 950q11 56 -149 66l-37 4l-2 12h424l-9 -12l-38 -4q-150 -13 -162 -70
l-262 -1204h-11z" />
    <glyph glyph-name="nacute" unicode="&#x144;" horiz-adv-x="927" 
d="M506 1006l291 383h166l-445 -383h-12zM635 -25q-32 0 -87.5 29t-55.5 49q0 10 20.5 65t65.5 167.5t65 163.5q12 32 44 111.5t47.5 122.5t15.5 58q0 29 -28.5 50.5t-62.5 21.5q-49 0 -171.5 -175t-251.5 -450l-74 -194l-135 10l116 338l142 469l-97 8l-139 -223l-12 6
q144 297 268 297q30 0 62 -43.5t32 -91.5q0 -44 -42 -178t-105 -285l8 -4q86 165 185.5 318t154.5 208q69 72 145 72q47 0 91.5 -38.5t44.5 -84.5q0 -58 -107 -323l-153 -383l102 -13l145 226l13 -7q-73 -150 -137.5 -223.5t-108.5 -73.5z" />
    <glyph glyph-name="Ncommaaccent" unicode="&#x145;" horiz-adv-x="1359" 
d="M707 -303q-17 -83 -108 -156t-196 -88l-4 8q66 15 123.5 63t71.5 118q13 66 -28 97.5t-101 4.5q-13 45 24.5 86.5t102.5 34.5q64 -6 97 -52.5t18 -115.5zM1038 -10l-614 1165h-4l-227 -1073q-11 -53 151 -66l37 -4l2 -12h-424l6 12l41 4q149 16 160 70l237 1090
q-49 70 -174 88l-24 4l-2 12h340l536 -1032h4l201 950q11 56 -149 66l-37 4l-2 12h424l-9 -12l-38 -4q-150 -13 -162 -70l-262 -1204h-11z" />
    <glyph glyph-name="ncommaaccent" unicode="&#x146;" horiz-adv-x="927" 
d="M432 -303q-17 -83 -108 -156t-195 -88l-4 8q66 15 123 63t71 118q13 66 -28 97.5t-101 4.5q-13 45 24.5 86.5t102.5 34.5q64 -6 97 -52.5t18 -115.5zM635 -25q-32 0 -87.5 29t-55.5 49q0 10 20.5 65t65.5 167.5t65 163.5q12 32 44 111.5t47.5 122.5t15.5 58
q0 29 -28.5 50.5t-62.5 21.5q-49 0 -171.5 -175t-251.5 -450l-74 -194l-135 10l116 338l142 469l-97 8l-139 -223l-12 6q144 297 268 297q30 0 62 -43.5t32 -91.5q0 -44 -42 -178t-105 -285l8 -4q86 165 185.5 318t154.5 208q69 72 145 72q47 0 91.5 -38.5t44.5 -84.5
q0 -58 -107 -323l-153 -383l102 -13l145 226l13 -7q-73 -150 -137.5 -223.5t-108.5 -73.5z" />
    <glyph glyph-name="Ncaron" unicode="&#x147;" horiz-adv-x="1359" 
d="M870 1366l-176 385h13l192 -231h6l301 231h11l-336 -385h-11zM1038 -10l-614 1165h-4l-227 -1073q-11 -53 151 -66l37 -4l2 -12h-424l6 12l41 4q149 16 160 70l237 1090q-49 70 -174 88l-24 4l-2 12h340l536 -1032h4l201 950q11 56 -149 66l-37 4l-2 12h424l-9 -12
l-38 -4q-150 -13 -162 -70l-262 -1204h-11z" />
    <glyph glyph-name="ncaron" unicode="&#x148;" horiz-adv-x="927" 
d="M561 983l-176 385h12l193 -231h6l301 231h10l-336 -385h-10zM635 -25q-32 0 -87.5 29t-55.5 49q0 10 20.5 65t65.5 167.5t65 163.5q12 32 44 111.5t47.5 122.5t15.5 58q0 29 -28.5 50.5t-62.5 21.5q-49 0 -171.5 -175t-251.5 -450l-74 -194l-135 10l116 338l142 469
l-97 8l-139 -223l-12 6q144 297 268 297q30 0 62 -43.5t32 -91.5q0 -44 -42 -178t-105 -285l8 -4q86 165 185.5 318t154.5 208q69 72 145 72q47 0 91.5 -38.5t44.5 -84.5q0 -58 -107 -323l-153 -383l102 -13l145 226l13 -7q-73 -150 -137.5 -223.5t-108.5 -73.5z" />
    <glyph glyph-name="Omacron" unicode="&#x14c;" horiz-adv-x="1464" 
d="M631 1450l24 51h510l-22 -51h-512zM725 -27q-138 0 -254 48.5t-194 132t-121 195t-43 237.5q0 135 53 265.5t145 232t227.5 163.5t288.5 62q136 0 251 -49.5t193 -133.5t121.5 -197t43.5 -239q0 -149 -57.5 -283t-154 -228.5t-227 -150t-272.5 -55.5zM713 -6
q156 0 285.5 111t200.5 289.5t71 381.5q0 227 -117 369.5t-317 142.5q-122 0 -228.5 -69t-177.5 -181.5t-111 -253.5t-40 -286q0 -227 116 -365.5t318 -138.5z" />
    <glyph glyph-name="omacron" unicode="&#x14d;" horiz-adv-x="770" 
d="M260 1067l25 51h510l-23 -51h-512zM289 -23q-117 0 -183.5 102.5t-66.5 246.5q0 126 65 259.5t165.5 220.5t197.5 87q115 0 190.5 -102t75.5 -259q0 -130 -66 -260t-170 -212.5t-208 -82.5zM264 0q88 0 170 101t129 255q19 59 30 143t11 148q0 108 -27.5 164.5
t-78.5 56.5q-75 0 -159.5 -124t-135.5 -285q-19 -59 -31 -132.5t-12 -123.5q0 -93 28.5 -148t75.5 -55z" />
    <glyph glyph-name="Obreve" unicode="&#x14e;" horiz-adv-x="1464" 
d="M725 -27q-138 0 -254 48.5t-194 132t-121 195t-43 237.5q0 135 53 265.5t145 232t227.5 163.5t288.5 62q136 0 251 -49.5t193 -133.5t121.5 -197t43.5 -239q0 -149 -57.5 -283t-154 -228.5t-227 -150t-272.5 -55.5zM713 -6q156 0 285.5 111t200.5 289.5t71 381.5
q0 227 -117 369.5t-317 142.5q-122 0 -228.5 -69t-177.5 -181.5t-111 -253.5t-40 -286q0 -227 116 -365.5t318 -138.5zM891 1378q-47 0 -81 20t-52.5 50t-30 77t-14.5 88t-4 97h12q22 -118 64 -176.5t122 -58.5t147.5 59t135.5 176h12q-66 -147 -99 -197q-88 -134 -212 -135
z" />
    <glyph glyph-name="obreve" unicode="&#x14f;" horiz-adv-x="770" 
d="M289 -23q-117 0 -183.5 102.5t-66.5 246.5q0 126 65 259.5t165.5 220.5t197.5 87q115 0 190.5 -102t75.5 -259q0 -130 -66 -260t-170 -212.5t-208 -82.5zM264 0q88 0 170 101t129 255q19 59 30 143t11 148q0 108 -27.5 164.5t-78.5 56.5q-75 0 -159.5 -124t-135.5 -285
q-19 -59 -31 -132.5t-12 -123.5q0 -93 28.5 -148t75.5 -55zM500 995q-47 0 -81 20t-53 50t-30.5 77t-14.5 88t-4 97h13q22 -118 64 -176.5t122 -58.5t147.5 59t135.5 176h12q-66 -147 -99 -197q-88 -134 -212 -135z" />
    <glyph glyph-name="Ohungarumlaut" unicode="&#x150;" horiz-adv-x="1464" 
d="M944 1389l291 383h147l-426 -383h-12zM653 1389l291 383h146l-426 -383h-11zM725 -27q-138 0 -254 48.5t-194 132t-121 195t-43 237.5q0 135 53 265.5t145 232t227.5 163.5t288.5 62q136 0 251 -49.5t193 -133.5t121.5 -197t43.5 -239q0 -149 -57.5 -283t-154 -228.5
t-227 -150t-272.5 -55.5zM713 -6q156 0 285.5 111t200.5 289.5t71 381.5q0 227 -117 369.5t-317 142.5q-122 0 -228.5 -69t-177.5 -181.5t-111 -253.5t-40 -286q0 -227 116 -365.5t318 -138.5z" />
    <glyph glyph-name="ohungarumlaut" unicode="&#x151;" horiz-adv-x="770" 
d="M586 1006l291 383h147l-426 -383h-12zM295 1006l291 383h145l-426 -383h-10zM289 -23q-117 0 -183.5 102.5t-66.5 246.5q0 126 65 259.5t165.5 220.5t197.5 87q115 0 190.5 -102t75.5 -259q0 -130 -66 -260t-170 -212.5t-208 -82.5zM264 0q88 0 170 101t129 255
q19 59 30 143t11 148q0 108 -27.5 164.5t-78.5 56.5q-75 0 -159.5 -124t-135.5 -285q-19 -59 -31 -132.5t-12 -123.5q0 -93 28.5 -148t75.5 -55z" />
    <glyph glyph-name="OE" unicode="&#x152;" horiz-adv-x="1882" 
d="M696 0q-158 0 -278.5 50t-190 135.5t-98.5 196t-14 236.5q30 299 251 480.5t580 181.5h873l28 -362l-10 -3l-10 29q-18 52 -30 85t-29.5 70.5t-34.5 59t-40.5 43.5t-51.5 33t-64.5 18t-81.5 7h-203l-121 -580l136 2q96 3 145.5 18t77 46t59.5 100l15 28l12 -2v0l-88 -413
l-12 2l4 26q2 26 2 45.5t-1.5 36t-9 28t-14.5 21t-23 15.5t-31 10t-41 7t-50 4t-62 3l-125 5l-133 -631l289 -11q71 1 132.5 20.5t105 47t89 76t74.5 89t70 105.5l18 29l13 -2l-162 -385h-965zM731 20l137 3l256 1202l-178 37q-145 0 -263 -49.5t-198.5 -138.5t-129.5 -208
t-64 -262q-8 -93 -3 -178.5t37 -159.5t82.5 -128.5t133.5 -86t190 -31.5z" />
    <glyph glyph-name="oe" unicode="&#x153;" horiz-adv-x="1228" 
d="M289 -23q-117 0 -183.5 102.5t-66.5 246.5q0 126 65 259.5t165.5 220.5t197.5 87q86 0 149 -59t91 -162q71 103 161.5 164t180.5 61q88 0 144 -39.5t56 -103.5q0 -98 -127.5 -162.5t-390.5 -108.5q-29 -98 -29 -188q0 -110 41.5 -169.5t122.5 -59.5q76 0 136.5 48.5
t134.5 168.5l14 -7q-173 -299 -350 -299q-82 0 -138 48.5t-79 126.5q-63 -80 -141 -127.5t-154 -47.5zM741 502q211 38 293 97.5t82 166.5q0 48 -22 78t-66 30q-55 0 -127 -69q-47 -47 -91.5 -129t-72.5 -172zM264 0q88 0 170 101t129 255q19 59 30 143t11 148
q0 108 -27.5 164.5t-78.5 56.5q-75 0 -159.5 -124t-135.5 -285q-19 -59 -31 -132.5t-12 -123.5q0 -93 28.5 -148t75.5 -55z" />
    <glyph glyph-name="Racute" unicode="&#x154;" horiz-adv-x="1259" 
d="M614 1389l291 383h166l-444 -383h-13zM-70 0l7 12l104 8q34 3 69.5 13.5t36.5 19.5l250 1180q1 8 -5 12.5t-31.5 8.5t-77.5 8l-78 6l-2 12h549q190 0 304.5 -83t114.5 -214q0 -94 -58.5 -170.5t-153 -118.5t-205.5 -47l200 -469q40 -93 80.5 -125.5t116.5 -38.5l25 -2
l4 -12h-322l-268 651q-66 16 -144 56l-141 -660q-3 -19 115 -29l78 -6l2 -12h-570zM668 674q148 0 242 94t94 252q0 110 -72.5 175t-200.5 65h-168l-112 -535q114 -51 217 -51z" />
    <glyph glyph-name="racute" unicode="&#x155;" horiz-adv-x="755" 
d="M416 1006l291 383h165l-444 -383h-12zM164 -6l-137 10l123 338l135 469l-97 8l-139 -223l-12 6q75 155 138.5 226t123.5 71q31 0 65.5 -44t34.5 -91q0 -72 -120 -393h6q118 224 180 328.5t106 146.5q30 28 55.5 41t59.5 12q55 -3 88 -40.5t31 -84.5q-3 -42 -33 -70
t-65 -26q-33 2 -55 25t-18 58t42 66l-53 23q-29 -15 -56 -45.5t-99.5 -150t-195.5 -347.5z" />
    <glyph glyph-name="Rcommaaccent" unicode="&#x156;" horiz-adv-x="1259" 
d="M698 -303q-17 -83 -108 -156t-195 -88l-4 8q66 15 123.5 63t71.5 118q13 66 -28 97.5t-101 4.5q-13 45 24.5 86.5t102.5 34.5q64 -6 96.5 -52.5t17.5 -115.5zM-70 0l7 12l104 8q34 3 69.5 13.5t36.5 19.5l250 1180q1 8 -5 12.5t-31.5 8.5t-77.5 8l-78 6l-2 12h549
q190 0 304.5 -83t114.5 -214q0 -94 -58.5 -170.5t-153 -118.5t-205.5 -47l200 -469q40 -93 80.5 -125.5t116.5 -38.5l25 -2l4 -12h-322l-268 651q-66 16 -144 56l-141 -660q-3 -19 115 -29l78 -6l2 -12h-570zM668 674q148 0 242 94t94 252q0 110 -72.5 175t-200.5 65h-168
l-112 -535q114 -51 217 -51z" />
    <glyph glyph-name="rcommaaccent" unicode="&#x157;" horiz-adv-x="755" 
d="M188 -303q-17 -83 -108 -156t-195 -88l-4 8q66 15 123.5 63t71.5 118q13 66 -28 97.5t-101 4.5q-13 45 24.5 86.5t102.5 34.5q64 -6 96.5 -52.5t17.5 -115.5zM164 -6l-137 10l123 338l135 469l-97 8l-139 -223l-12 6q75 155 138.5 226t123.5 71q31 0 65.5 -44t34.5 -91
q0 -72 -120 -393h6q118 224 180 328.5t106 146.5q30 28 55.5 41t59.5 12q55 -3 88 -40.5t31 -84.5q-3 -42 -33 -70t-65 -26q-33 2 -55 25t-18 58t42 66l-53 23q-29 -15 -56 -45.5t-99.5 -150t-195.5 -347.5z" />
    <glyph glyph-name="Rcaron" unicode="&#x158;" horiz-adv-x="1259" 
d="M705 1366l-177 385h13l192 -231h6l301 231h11l-336 -385h-10zM-70 0l7 12l104 8q34 3 69.5 13.5t36.5 19.5l250 1180q1 8 -5 12.5t-31.5 8.5t-77.5 8l-78 6l-2 12h549q190 0 304.5 -83t114.5 -214q0 -94 -58.5 -170.5t-153 -118.5t-205.5 -47l200 -469
q40 -93 80.5 -125.5t116.5 -38.5l25 -2l4 -12h-322l-268 651q-66 16 -144 56l-141 -660q-3 -19 115 -29l78 -6l2 -12h-570zM668 674q148 0 242 94t94 252q0 110 -72.5 175t-200.5 65h-168l-112 -535q114 -51 217 -51z" />
    <glyph glyph-name="rcaron" unicode="&#x159;" horiz-adv-x="755" 
d="M487 983l-176 385h13l192 -231h6l301 231h11l-336 -385h-11zM164 -6l-137 10l123 338l135 469l-97 8l-139 -223l-12 6q75 155 138.5 226t123.5 71q31 0 65.5 -44t34.5 -91q0 -72 -120 -393h6q118 224 180 328.5t106 146.5q30 28 55.5 41t59.5 12q55 -3 88 -40.5t31 -84.5
q-3 -42 -33 -70t-65 -26q-33 2 -55 25t-18 58t42 66l-53 23q-29 -15 -56 -45.5t-99.5 -150t-195.5 -347.5z" />
    <glyph glyph-name="Sacute" unicode="&#x15a;" horiz-adv-x="980" 
d="M518 1389l291 383h166l-445 -383h-12zM442 -27q-123 0 -239.5 37.5t-186.5 85.5l47 289h9l20 -104q29 -139 120.5 -214t225.5 -75q141 0 231.5 85t90.5 218q0 96 -59 164.5t-201 154.5q-134 77 -205.5 160.5t-71.5 196.5q0 142 105.5 241t281.5 99q147 0 291 -78l86 16
l-55 -319l-6 2l-78 264q-39 42 -98.5 69t-126.5 27q-122 0 -197.5 -70t-75.5 -180q0 -90 54 -152.5t194 -144.5q147 -87 223 -172.5t76 -203.5q0 -77 -31.5 -148t-88 -126.5t-144 -88.5t-191.5 -33z" />
    <glyph glyph-name="sacute" unicode="&#x15b;" horiz-adv-x="616" 
d="M299 975l291 383h166l-445 -383h-12zM231 -25q-101 0 -175 49t-74 128q0 40 25.5 68t60.5 28q31 0 52 -23t21 -55q0 -28 -20.5 -58.5t-44.5 -41.5q27 -29 77.5 -52.5t96.5 -23.5q59 0 99.5 31.5t55.5 71t15 81.5q0 16 -4.5 33t-9 29.5t-16 29t-18 25.5t-23 26.5t-23 23.5
t-26 24.5t-24.5 23.5q-43 43 -64 66t-46 57t-35.5 65.5t-11.5 67.5q0 102 86.5 174t189.5 72q95 0 154.5 -41t60.5 -121q0 -42 -26 -67t-60 -25q-32 0 -52.5 23t-20.5 57q0 29 19 55t46 37q-61 61 -127 61q-80 0 -121 -52.5t-41 -119.5q1 -26 9.5 -49.5t29 -50t35 -42
t45.5 -46.5l12 -12q2 -2 22 -21t24 -23.5t22 -23t23.5 -25.5t20.5 -25t20 -28.5t15 -28t14 -31.5t7.5 -31t3.5 -34q0 -105 -93.5 -180.5t-205.5 -75.5z" />
    <glyph glyph-name="Scircumflex" unicode="&#x15c;" horiz-adv-x="980" 
d="M356 1366l336 385h10l177 -385h-13l-190 231h-6l-303 -231h-11zM442 -27q-123 0 -239.5 37.5t-186.5 85.5l47 289h9l20 -104q29 -139 120.5 -214t225.5 -75q141 0 231.5 85t90.5 218q0 96 -59 164.5t-201 154.5q-134 77 -205.5 160.5t-71.5 196.5q0 142 105.5 241
t281.5 99q147 0 291 -78l86 16l-55 -319l-6 2l-78 264q-39 42 -98.5 69t-126.5 27q-122 0 -197.5 -70t-75.5 -180q0 -90 54 -152.5t194 -144.5q147 -87 223 -172.5t76 -203.5q0 -77 -31.5 -148t-88 -126.5t-144 -88.5t-191.5 -33z" />
    <glyph glyph-name="scircumflex" unicode="&#x15d;" horiz-adv-x="616" 
d="M139 983l336 385h10l177 -385h-13l-190 231h-6l-303 -231h-11zM231 -25q-101 0 -175 49t-74 128q0 40 25.5 68t60.5 28q31 0 52 -23t21 -55q0 -28 -20.5 -58.5t-44.5 -41.5q27 -29 77.5 -52.5t96.5 -23.5q59 0 99.5 31.5t55.5 71t15 81.5q0 16 -4.5 33t-9 29.5t-16 29
t-18 25.5t-23 26.5t-23 23.5t-26 24.5t-24.5 23.5q-43 43 -64 66t-46 57t-35.5 65.5t-11.5 67.5q0 102 86.5 174t189.5 72q95 0 154.5 -41t60.5 -121q0 -42 -26 -67t-60 -25q-32 0 -52.5 23t-20.5 57q0 29 19 55t46 37q-61 61 -127 61q-80 0 -121 -52.5t-41 -119.5
q1 -26 9.5 -49.5t29 -50t35 -42t45.5 -46.5l12 -12q2 -2 22 -21t24 -23.5t22 -23t23.5 -25.5t20.5 -25t20 -28.5t15 -28t14 -31.5t7.5 -31t3.5 -34q0 -105 -93.5 -180.5t-205.5 -75.5z" />
    <glyph glyph-name="Scedilla" unicode="&#x15e;" horiz-adv-x="980" 
d="M127 -502l-2 10q169 7 253.5 52.5t84.5 120.5q0 48 -44 72t-116 24q-31 0 -113 -15l5 15l217 196q-116 6 -224 42t-172 81l47 289h9l20 -104q29 -139 120.5 -214t225.5 -75q141 0 231.5 85t90.5 218q0 96 -59 164.5t-201 154.5q-134 77 -205.5 160.5t-71.5 196.5
q0 142 105.5 241t281.5 99q147 0 291 -78l86 16l-55 -319l-6 2l-78 264q-39 42 -98.5 69t-126.5 27q-122 0 -197.5 -70t-75.5 -180q0 -90 54 -152.5t194 -144.5q147 -87 223 -172.5t76 -203.5q0 -77 -31.5 -148t-88 -126.5t-144 -88.5t-191.5 -33h-8l-125 -116
q114 10 185 -29t71 -109q0 -58 -35.5 -101.5t-98 -68.5t-138.5 -37.5t-166 -13.5z" />
    <glyph glyph-name="scedilla" unicode="&#x15f;" horiz-adv-x="616" 
d="M-84 -502l-2 10q169 7 253.5 52.5t84.5 120.5q0 48 -44 72t-116 24q-30 0 -112 -15l4 15l221 200q-93 6 -158 53.5t-65 121.5q0 40 25.5 68t60.5 28q31 0 52 -23t21 -55q0 -28 -20.5 -58.5t-44.5 -41.5q27 -29 77.5 -52.5t96.5 -23.5q59 0 99.5 31.5t55.5 71t15 81.5
q0 16 -4.5 33t-9 29.5t-16 29t-18 25.5t-23 26.5t-23 23.5t-26 24.5t-24.5 23.5q-43 43 -64 66t-46 57t-35.5 65.5t-11.5 67.5q0 102 86.5 174t189.5 72q95 0 154.5 -41t60.5 -121q0 -42 -26 -67t-60 -25q-32 0 -52.5 23t-20.5 57q0 29 19 55t46 37q-61 61 -127 61
q-80 0 -121 -52.5t-41 -119.5q1 -26 9.5 -49.5t29 -50t35 -42t45.5 -46.5l12 -12q2 -2 22 -21t24 -23.5t22 -23t23.5 -25.5t20.5 -25t20 -28.5t15 -28t14 -31.5t7.5 -31t3.5 -34q0 -105 -93.5 -180.5t-205.5 -75.5h-6l-127 -118q114 10 185 -29t71 -109q0 -58 -35.5 -101.5
t-98 -68.5t-138.5 -37.5t-166 -13.5z" />
    <glyph glyph-name="Scaron" unicode="&#x160;" horiz-adv-x="980" 
d="M442 -27q-123 0 -239.5 37.5t-186.5 85.5l47 289h9l20 -104q29 -139 120.5 -214t225.5 -75q141 0 231.5 85t90.5 218q0 96 -59 164.5t-201 154.5q-134 77 -205.5 160.5t-71.5 196.5q0 142 105.5 241t281.5 99q147 0 291 -78l86 16l-55 -319l-6 2l-78 264q-39 42 -98.5 69
t-126.5 27q-122 0 -197.5 -70t-75.5 -180q0 -90 54 -152.5t194 -144.5q147 -87 223 -172.5t76 -203.5q0 -77 -31.5 -148t-88 -126.5t-144 -88.5t-191.5 -33zM651 1346l-176 385h12l193 -232h6l301 232h10l-335 -385h-11z" />
    <glyph glyph-name="scaron" unicode="&#x161;" horiz-adv-x="616" 
d="M231 -25q-101 0 -175 49t-74 128q0 40 25.5 68t60.5 28q31 0 52 -23t21 -55q0 -28 -20.5 -58.5t-44.5 -41.5q27 -29 77.5 -52.5t96.5 -23.5q59 0 99.5 31.5t55.5 71t15 81.5q0 16 -4.5 33t-9 29.5t-16 29t-18 25.5t-23 26.5t-23 23.5t-26 24.5t-24.5 23.5q-43 43 -64 66
t-46 57t-35.5 65.5t-11.5 67.5q0 102 86.5 174t189.5 72q95 0 154.5 -41t60.5 -121q0 -42 -26 -67t-60 -25q-32 0 -52.5 23t-20.5 57q0 29 19 55t46 37q-61 61 -127 61q-80 0 -121 -52.5t-41 -119.5q1 -26 9.5 -49.5t29 -50t35 -42t45.5 -46.5l12 -12q2 -2 22 -21t24 -23.5
t22 -23t23.5 -25.5t20.5 -25t20 -28.5t15 -28t14 -31.5t7.5 -31t3.5 -34q0 -105 -93.5 -180.5t-205.5 -75.5zM455 983l-176 385h12l192 -231h6l302 231h10l-336 -385h-10z" />
    <glyph glyph-name="Tcommaaccent" unicode="&#x162;" horiz-adv-x="1294" 
d="M629 -303q-17 -83 -108 -156t-195 -88l-4 8q66 15 123 63t71 118q13 66 -28 97.5t-101 4.5q-13 45 24.5 86.5t102.5 34.5q64 -6 97 -52.5t18 -115.5zM268 0l6 12l105 8q102 8 106 33l254 1209h-157q-58 -4 -111.5 -28.5t-98.5 -67t-81 -89t-74 -108.5l-16 -27h-11
l107 338h1059l-37 -338h-8l-4 25q-24 159 -83.5 223t-181.5 72h-141l-258 -1215q-1 -8 5.5 -12.5t32 -8.5t77.5 -8l78 -6l2 -12h-570z" />
    <glyph glyph-name="tcommaaccent" unicode="&#x163;" horiz-adv-x="526" 
d="M193 -25q-21 0 -62.5 13t-75.5 31.5t-30 31.5l225 752l-152 4l25 61l149 2l84 273h136l-82 -273l172 -2l-9 -65h-184l-235 -737l131 -13l139 223l12 -6q-71 -149 -134.5 -222t-108.5 -73zM248 -303q-17 -83 -108 -156t-195 -88l-4 8q66 15 123 63t71 118q13 66 -28 97.5
t-101 4.5q-13 45 24.5 86.5t102.5 34.5q64 -6 97 -52.5t18 -115.5z" />
    <glyph glyph-name="Tcaron" unicode="&#x164;" horiz-adv-x="1294" 
d="M827 1366l-176 385h13l192 -231h6l301 231h11l-336 -385h-11zM268 0l6 12l105 8q102 8 106 33l254 1209h-157q-58 -4 -111.5 -28.5t-98.5 -67t-81 -89t-74 -108.5l-16 -27h-11l107 338h1059l-37 -338h-8l-4 25q-24 159 -83.5 223t-181.5 72h-141l-258 -1215
q-1 -8 5.5 -12.5t32 -8.5t77.5 -8l78 -6l2 -12h-570z" />
    <glyph glyph-name="tcaron" unicode="&#x165;" horiz-adv-x="733" 
d="M193 -25q-21 0 -62.5 13t-75.5 31.5t-30 31.5l225 752l-152 4l25 61l149 2l84 273h136l-82 -273l172 -2l-9 -65h-184l-235 -737l131 -13l139 223l12 -6q-71 -149 -134.5 -222t-108.5 -73zM539 942l-4 8q76 29 126 76.5t50 106.5q0 46 -40.5 67t-74.5 19q0 28 24.5 54.5
t65.5 26.5q45 0 75 -32.5t30 -83.5q0 -77 -72 -145.5t-180 -96.5z" />
    <glyph glyph-name="Umacron" unicode="&#x16a;" horiz-adv-x="1353" 
d="M694 -31q-146 0 -254 35t-171.5 111.5t-63.5 187.5q0 76 22 172l160 758q1 8 -5.5 12.5t-32 8.5t-77.5 8l-77 6l-2 12h569l-8 -12l-103 -8q-102 -8 -106 -33l-158 -748q-18 -89 -18 -155q0 -149 97.5 -223t281.5 -74q159 0 255 100t140 313l162 758q3 15 -9.5 27.5
t-49 23t-95.5 15.5l-37 4l-2 12h424l-8 -12l-39 -4q-149 -16 -160 -70l-164 -762q-48 -234 -160.5 -348.5t-310.5 -114.5zM692 1450l25 51h510l-23 -51h-512z" />
    <glyph glyph-name="umacron" unicode="&#x16b;" horiz-adv-x="927" 
d="M623 -27q-30 0 -61.5 44t-31.5 92q0 44 42 179t104 285l-8 5q-87 -168 -185.5 -321.5t-152.5 -207.5q-69 -72 -146 -72q-47 0 -91 38.5t-44 84.5q0 59 107 324l151 385l-104 10l-142 -225l-12 6q73 150 137.5 223.5t108.5 73.5q32 0 87.5 -29t55.5 -49q0 -10 -21 -65.5
t-65 -166t-65 -163.5q-11 -29 -44 -111.5t-48 -125t-15 -56.5q0 -29 28 -50.5t62 -21.5q49 0 172 174.5t252 448.5l74 197l133 -11l-117 -338l-143 -467l96 -10l142 223l12 -6q-141 -297 -268 -297zM344 1065l25 51h510l-23 -51h-512z" />
    <glyph glyph-name="Ubreve" unicode="&#x16c;" horiz-adv-x="1353" 
d="M694 -31q-146 0 -254 35t-171.5 111.5t-63.5 187.5q0 76 22 172l160 758q1 8 -5.5 12.5t-32 8.5t-77.5 8l-77 6l-2 12h569l-8 -12l-103 -8q-102 -8 -106 -33l-158 -748q-18 -89 -18 -155q0 -149 97.5 -223t281.5 -74q159 0 255 100t140 313l162 758q3 15 -9.5 27.5
t-49 23t-95.5 15.5l-37 4l-2 12h424l-8 -12l-39 -4q-149 -16 -160 -70l-164 -762q-48 -234 -160.5 -348.5t-310.5 -114.5zM938 1378q-47 0 -81 20t-52.5 50t-30 77t-14.5 88t-4 97h12q22 -118 64 -176.5t122 -58.5t147.5 59t135.5 176h12q-66 -147 -99 -197
q-88 -134 -212 -135z" />
    <glyph glyph-name="ubreve" unicode="&#x16d;" horiz-adv-x="927" 
d="M623 -27q-30 0 -61.5 44t-31.5 92q0 44 42 179t104 285l-8 5q-87 -168 -185.5 -321.5t-152.5 -207.5q-69 -72 -146 -72q-47 0 -91 38.5t-44 84.5q0 59 107 324l151 385l-104 10l-142 -225l-12 6q73 150 137.5 223.5t108.5 73.5q32 0 87.5 -29t55.5 -49q0 -10 -21 -65.5
t-65 -166t-65 -163.5q-11 -29 -44 -111.5t-48 -125t-15 -56.5q0 -29 28 -50.5t62 -21.5q49 0 172 174.5t252 448.5l74 197l133 -11l-117 -338l-143 -467l96 -10l142 223l12 -6q-141 -297 -268 -297zM596 995q-47 0 -81 20t-52.5 50t-30 77t-14.5 88t-4 97h12
q22 -118 64 -176.5t122 -58.5t147.5 59t135.5 176h12q-66 -147 -99 -197q-88 -134 -212 -135z" />
    <glyph glyph-name="Uring" unicode="&#x16e;" horiz-adv-x="1353" 
d="M944 1403q-82 0 -132 53t-50 131q0 77 50 131t132 54t132 -54t50 -131q0 -78 -50 -131t-132 -53zM944 1421q73 0 117.5 48t44.5 118q0 69 -44.5 117.5t-117.5 48.5t-117.5 -48.5t-44.5 -117.5q0 -70 44.5 -118t117.5 -48zM694 -31q-146 0 -254 35t-171.5 111.5
t-63.5 187.5q0 76 22 172l160 758q1 8 -5.5 12.5t-32 8.5t-77.5 8l-77 6l-2 12h569l-8 -12l-103 -8q-102 -8 -106 -33l-158 -748q-18 -89 -18 -155q0 -149 97.5 -223t281.5 -74q159 0 255 100t140 313l162 758q3 15 -9.5 27.5t-49 23t-95.5 15.5l-37 4l-2 12h424l-8 -12
l-39 -4q-149 -16 -160 -70l-164 -762q-48 -234 -160.5 -348.5t-310.5 -114.5z" />
    <glyph glyph-name="uring" unicode="&#x16f;" horiz-adv-x="927" 
d="M606 1020q-82 0 -132 53t-50 131q0 77 50 131t132 54t132 -54t50 -131q0 -78 -50 -131t-132 -53zM606 1038q73 0 117.5 48t44.5 118q0 69 -44.5 117.5t-117.5 48.5t-117.5 -48.5t-44.5 -117.5q0 -70 44.5 -118t117.5 -48zM623 -27q-30 0 -61.5 44t-31.5 92q0 44 42 179
t104 285l-8 5q-87 -168 -185.5 -321.5t-152.5 -207.5q-69 -72 -146 -72q-47 0 -91 38.5t-44 84.5q0 59 107 324l151 385l-104 10l-142 -225l-12 6q73 150 137.5 223.5t108.5 73.5q32 0 87.5 -29t55.5 -49q0 -10 -21 -65.5t-65 -166t-65 -163.5q-11 -29 -44 -111.5t-48 -125
t-15 -56.5q0 -29 28 -50.5t62 -21.5q49 0 172 174.5t252 448.5l74 197l133 -11l-117 -338l-143 -467l96 -10l142 223l12 -6q-141 -297 -268 -297z" />
    <glyph glyph-name="Uhungarumlaut" unicode="&#x170;" horiz-adv-x="1353" 
d="M694 -31q-146 0 -254 35t-171.5 111.5t-63.5 187.5q0 76 22 172l160 758q1 8 -5.5 12.5t-32 8.5t-77.5 8l-77 6l-2 12h569l-8 -12l-103 -8q-102 -8 -106 -33l-158 -748q-18 -89 -18 -155q0 -149 97.5 -223t281.5 -74q159 0 255 100t140 313l162 758q3 15 -9.5 27.5
t-49 23t-95.5 15.5l-37 4l-2 12h424l-8 -12l-39 -4q-149 -16 -160 -70l-164 -762q-48 -234 -160.5 -348.5t-310.5 -114.5zM975 1389l291 383h147l-426 -383h-12zM684 1389l291 383h145l-426 -383h-10z" />
    <glyph glyph-name="uhungarumlaut" unicode="&#x171;" horiz-adv-x="927" 
d="M623 -27q-30 0 -61.5 44t-31.5 92q0 44 42 179t104 285l-8 5q-87 -168 -185.5 -321.5t-152.5 -207.5q-69 -72 -146 -72q-47 0 -91 38.5t-44 84.5q0 59 107 324l151 385l-104 10l-142 -225l-12 6q73 150 137.5 223.5t108.5 73.5q32 0 87.5 -29t55.5 -49q0 -10 -21 -65.5
t-65 -166t-65 -163.5q-11 -29 -44 -111.5t-48 -125t-15 -56.5q0 -29 28 -50.5t62 -21.5q49 0 172 174.5t252 448.5l74 197l133 -11l-117 -338l-143 -467l96 -10l142 223l12 -6q-141 -297 -268 -297zM668 1006l290 383h148l-426 -383h-12zM377 1006l291 383h145l-426 -383
h-10z" />
    <glyph glyph-name="Uogonek" unicode="&#x172;" horiz-adv-x="1353" 
d="M692 -461q-66 0 -104.5 44t-38.5 112q0 85 73.5 156.5t186.5 125.5q-52 -10 -115 -10q-223 0 -356 85t-133 251q0 76 22 172l160 758q1 8 -5.5 12.5t-32 8.5t-77.5 8l-77 6l-2 12h569l-8 -12l-103 -8q-102 -8 -106 -33l-158 -748q-18 -89 -18 -155q0 -149 97.5 -223
t281.5 -74q159 0 255 100t140 313l162 758q5 25 -31 43t-123 25l-37 2l-2 12h424l-8 -12l-39 -4q-149 -13 -160 -70l-164 -762q-37 -172 -104 -274.5t-180 -159.5q-105 -52 -165.5 -123t-60.5 -149q0 -57 27 -91t78 -34q28 0 51.5 9t34.5 18t35 30l4 -4q-93 -115 -193 -115z
" />
    <glyph glyph-name="uogonek" unicode="&#x173;" horiz-adv-x="927" 
d="M520 -461q-66 0 -105.5 44t-39.5 112q0 149 248 278q-31 2 -62 46.5t-31 89.5t42 180.5t104 285.5l-8 5q-88 -169 -186 -323t-152 -208q-69 -72 -146 -72q-47 0 -91 39t-44 84q0 59 107 324l151 385l-102 10l-144 -225l-12 6q73 150 137.5 223.5t108.5 73.5
q32 0 87.5 -29t55.5 -49q0 -10 -21 -65.5t-65 -166t-65 -163.5q-11 -29 -44 -111.5t-48 -125t-15 -56.5q0 -29 28 -50.5t62 -21.5q49 0 172 174.5t252 448.5l74 197l133 -11l-117 -338l-143 -467l96 -10l142 223l12 -6q-113 -233 -209 -284q-97 -49 -149 -117t-52 -143
q0 -57 27.5 -91t77.5 -34q28 0 52 9.5t34 17.5t37 30l4 -4q-93 -115 -193 -115z" />
    <glyph glyph-name="Wcircumflex" unicode="&#x174;" horiz-adv-x="1984" 
d="M915 1366l336 385h11l176 -385h-13l-190 231h-6l-303 -231h-11zM547 -29l-185 1096q-21 129 -40.5 160t-94.5 37l-57 4v12h524l-8 -12l-63 -2q-70 -3 -96.5 -27t-16.5 -92l154 -950h4l436 747l-21 123q-9 49 -13.5 71t-12.5 49.5t-15.5 37t-22 20.5t-31.5 14t-44 5l-55 4
l-2 12h522l-8 -12l-64 -2q-72 -3 -97 -28t-15 -93l145 -946h4l443 802q21 37 34.5 60.5t26 49.5t18.5 41t9.5 31.5t1.5 25t-9.5 18.5t-18.5 14.5t-29 9.5t-38.5 7.5t-50.5 5.5l-41 4l-2 12h436l-8 -12l-30 -4q-34 -4 -54 -8.5t-45 -21t-41 -34t-46.5 -63.5t-57 -91
t-76.5 -133l-520 -942h-16l-150 934h-4l-545 -934h-14z" />
    <glyph glyph-name="wcircumflex" unicode="&#x175;" horiz-adv-x="1138" 
d="M467 983l336 385h10l176 -385h-12l-191 231h-6l-303 -231h-10zM190 -25q-55 0 -94 50.5t-39 121.5q0 57 37 138.5t83.5 152t107 164t90.5 154.5l-201 53l-125 -205l-10 6q74 158 129.5 226.5t105.5 68.5q39 0 113 -13t74 -20q0 -18 -43.5 -93t-95 -160.5t-95 -188
t-43.5 -168.5q0 -156 107 -156q46 0 105.5 57t121.5 154.5t112 187t101 193.5q0 1 -8 6t-20 14t-24.5 21t-21 30t-8.5 38q0 40 24.5 64t65.5 24q32 0 56 -26.5t24 -61.5q0 -31 -16 -63t-37 -58.5t-50 -75t-48 -102.5q-31 -84 -43.5 -136.5t-12.5 -107.5q0 -78 36 -118
t102 -40q77 0 154.5 96.5t125 242.5t47.5 284q-51 -11 -83.5 16t-32.5 64q0 34 25 62t58 28q38 0 66.5 -30.5t28.5 -73.5q0 -72 -37.5 -207.5t-108.5 -287t-149 -230.5q-47 -48 -84.5 -71.5t-83.5 -23.5q-54 0 -91.5 48.5t-37.5 109.5q0 46 15.5 110.5t28 101t44.5 124.5
q-44 -75 -75.5 -127t-73 -114.5t-76 -103.5t-72.5 -77.5t-75 -54t-73 -17.5z" />
    <glyph glyph-name="Ycircumflex" unicode="&#x176;" horiz-adv-x="1249" 
d="M246 0l6 12l104 8q103 8 107 33l110 522l-190 537q-31 88 -59 118t-95 34l-55 4l-2 12h533l-9 -12l-59 -2q-82 -3 -98 -33.5t14 -112.5l174 -495h4l273 366q109 151 125 192q18 44 -18 60q-25 11 -103 19l-47 6l-3 12h447l-8 -12l-43 -4q-80 -6 -137.5 -54.5
t-186.5 -218.5l-295 -397l-114 -547q-1 -8 5 -12.5t31.5 -8.5t77.5 -8l78 -6l2 -12h-569zM561 1366l336 385h10l176 -385h-12l-190 231h-7l-303 -231h-10z" />
    <glyph glyph-name="ycircumflex" unicode="&#x177;" horiz-adv-x="841" 
d="M-55 -373q-85 0 -128.5 31.5t-41.5 87.5q0 36 26.5 61t63.5 25q54 0 74 -49t-15 -107q64 -18 78 -20q108 17 215 96.5t203 202.5q-19 459 -68.5 663.5t-140.5 204.5h-37l-123 -227l-14 6q81 174 111 217q47 71 107 79q10 1 21 1q84 0 136.5 -73t82 -246.5t37.5 -470.5
q0 5 5 0q211 390 208 679q-39 -35 -73.5 -32.5t-57.5 24.5t-24 47q-3 36 21 61t63 25q44 0 73 -35t29 -102q0 -219 -125.5 -492.5t-310.5 -455.5q-204 -201 -395 -201zM240 983l335 385h11l176 -385h-12l-191 231h-6l-303 -231h-10z" />
    <glyph glyph-name="Ydieresis" unicode="&#x178;" horiz-adv-x="1249" 
d="M246 0l6 12l104 8q103 8 107 33l110 522l-190 537q-31 88 -59 118t-95 34l-55 4l-2 12h533l-9 -12l-59 -2q-82 -3 -98 -33.5t14 -112.5l174 -495h4l273 366q109 151 125 192q18 44 -18 60q-25 11 -103 19l-47 6l-3 12h447l-8 -12l-43 -4q-80 -6 -137.5 -54.5
t-186.5 -218.5l-295 -397l-114 -547q-1 -8 5 -12.5t31.5 -8.5t77.5 -8l78 -6l2 -12h-569zM979 1384q-42 0 -66 30.5t-24 62.5q0 34 23.5 66t66.5 32t67.5 -32.5t24.5 -65.5q0 -32 -24.5 -62.5t-67.5 -30.5zM651 1384q-43 0 -67.5 30.5t-24.5 62.5q0 33 24.5 65.5t67.5 32.5
t66.5 -32t23.5 -66q0 -32 -24 -62.5t-66 -30.5z" />
    <glyph glyph-name="Zacute" unicode="&#x179;" horiz-adv-x="1150" 
d="M676 1389l291 383h166l-445 -383h-12zM-25 0l2 8l1059 1249v5h-340q-75 0 -136.5 -16.5t-106 -44t-84 -71.5t-66.5 -88t-57 -106l-13 -25h-10l88 369h926l-2 -8l-1057 -1245l-2 -4l363 -3q84 0 151.5 17.5t117 46t93 78t75 100.5t68.5 125l15 29h14l-129 -416h-969z" />
    <glyph glyph-name="zacute" unicode="&#x17a;" horiz-adv-x="714" 
d="M408 1006l290 383h166l-444 -383h-12zM442 -45q-42 4 -84.5 25.5t-77 49.5t-66.5 55.5t-64.5 46.5t-59.5 20h-14l-47 -175q-31 6 -56.5 28t-25.5 48q0 39 29 65.5t63 33.5l528 542q-46 -11 -94.5 6t-80 43.5t-69 61.5t-53.5 45q-10 5 -57 -45q-35 -37 -25 -37
q35 -3 55.5 -25t20.5 -53q0 -34 -23 -58t-59 -24q-33 0 -53 22t-20 58q0 66 87.5 135.5t165.5 77.5q38 -5 67.5 -19.5t46.5 -33.5t31 -40.5t23 -39.5t20.5 -32t24.5 -17l13 2l47 180q31 -9 55.5 -29t24.5 -47q-1 -37 -32 -68t-62 -36l-529 -545q31 8 62.5 9t61.5 -5
t58.5 -15t56.5 -23t52 -28t48.5 -31t43 -31t37.5 -29q9 -7 14 -11t23.5 15t33 39.5t9.5 21.5q-34 3 -57 30t-23 58q0 35 24 57.5t62 22.5q32 0 52 -25.5t20 -62.5q0 -67 -79.5 -136t-148.5 -77z" />
    <glyph glyph-name="Zdotaccent" unicode="&#x17b;" horiz-adv-x="1150" 
d="M-25 0l2 8l1059 1249v5h-340q-75 0 -136.5 -16.5t-106 -44t-84 -71.5t-66.5 -88t-57 -106l-13 -25h-10l88 369h926l-2 -8l-1057 -1245l-2 -4l363 -3q84 0 151.5 17.5t117 46t93 78t75 100.5t68.5 125l15 29h14l-129 -416h-969zM760 1458q-43 0 -67.5 30t-24.5 62
q0 35 23.5 67t68.5 32q43 0 67.5 -32t24.5 -67q0 -32 -24.5 -62t-67.5 -30z" />
    <glyph glyph-name="zdotaccent" unicode="&#x17c;" horiz-adv-x="714" 
d="M442 -45q-42 4 -84.5 25.5t-77 49.5t-66.5 55.5t-64.5 46.5t-59.5 20h-14l-47 -175q-31 6 -56.5 28t-25.5 48q0 39 29 65.5t63 33.5l528 542q-46 -11 -94.5 6t-80 43.5t-69 61.5t-53.5 45q-10 5 -57 -45q-35 -37 -25 -37q35 -3 55.5 -25t20.5 -53q0 -34 -23 -58t-59 -24
q-33 0 -53 22t-20 58q0 66 87.5 135.5t165.5 77.5q38 -5 67.5 -19.5t46.5 -33.5t31 -40.5t23 -39.5t20.5 -32t24.5 -17l13 2l47 180q31 -9 55.5 -29t24.5 -47q-1 -37 -32 -68t-62 -36l-529 -545q31 8 62.5 9t61.5 -5t58.5 -15t56.5 -23t52 -28t48.5 -31t43 -31t37.5 -29
q9 -7 14 -11t23.5 15t33 39.5t9.5 21.5q-34 3 -57 30t-23 58q0 35 24 57.5t62 22.5q32 0 52 -25.5t20 -62.5q0 -67 -79.5 -136t-148.5 -77zM485 1075q-43 0 -67.5 30t-24.5 62q0 35 23.5 67t68.5 32q43 0 68 -32t25 -67q0 -31 -25 -61.5t-68 -30.5z" />
    <glyph glyph-name="Zcaron" unicode="&#x17d;" horiz-adv-x="1150" 
d="M-25 0l2 8l1059 1249v5h-340q-75 0 -136.5 -16.5t-106 -44t-84 -71.5t-66.5 -88t-57 -106l-13 -25h-10l88 369h926l-2 -8l-1057 -1245l-2 -4l363 -3q84 0 151.5 17.5t117 46t93 78t75 100.5t68.5 125l15 29h14l-129 -416h-969zM731 1325l-176 385h12l193 -231h6l301 231
h10l-336 -385h-10z" />
    <glyph glyph-name="zcaron" unicode="&#x17e;" horiz-adv-x="714" 
d="M442 -45q-42 4 -84.5 25.5t-77 49.5t-66.5 55.5t-64.5 46.5t-59.5 20h-14l-47 -175q-31 6 -56.5 28t-25.5 48q0 39 29 65.5t63 33.5l528 542q-46 -11 -94.5 6t-80 43.5t-69 61.5t-53.5 45q-10 5 -57 -45q-35 -37 -25 -37q35 -3 55.5 -25t20.5 -53q0 -34 -23 -58t-59 -24
q-33 0 -53 22t-20 58q0 66 87.5 135.5t165.5 77.5q38 -5 67.5 -19.5t46.5 -33.5t31 -40.5t23 -39.5t20.5 -32t24.5 -17l13 2l47 180q31 -9 55.5 -29t24.5 -47q-1 -37 -32 -68t-62 -36l-529 -545q31 8 62.5 9t61.5 -5t58.5 -15t56.5 -23t52 -28t48.5 -31t43 -31t37.5 -29
q9 -7 14 -11t23.5 15t33 39.5t9.5 21.5q-34 3 -57 30t-23 58q0 35 24 57.5t62 22.5q32 0 52 -25.5t20 -62.5q0 -67 -79.5 -136t-148.5 -77zM494 983l-177 385h13l192 -231h6l301 231h11l-336 -385h-10z" />
    <glyph glyph-name="florin" unicode="&#x192;" horiz-adv-x="987" 
d="M168 -145q-71 0 -113.5 31t-42.5 79q0 36 26 63t62 27q32 0 56 -23.5t25.5 -58.5t-29.5 -75q3 -1 13 -5t16.5 -6.5t16 -5t17.5 -2.5q52 0 87 44t74.5 177.5t94.5 403.5l47 254l-215 4l25 61l211 2q68 276 186 394q92 92 221 92q72 0 119 -33t47 -84q0 -37 -28.5 -64.5
t-61.5 -27.5q-37 0 -59.5 24.5t-17 63.5t43.5 74q-39 26 -76 26q-86 0 -134.5 -103.5t-98.5 -361.5l252 -2l-8 -65h-256l-62 -258q-52 -222 -111 -358t-133 -210q-72 -77 -194 -77z" />
    <glyph glyph-name="Aringacute" unicode="&#x1fa;" horiz-adv-x="1249" 
d="M674 1612l291 383h165l-444 -383h-12zM764 559h-367l-153 -274q-81 -142 -93 -178q-17 -52 21 -70q29 -15 117 -21l51 -4l2 -12h-440l6 12l33 4q28 3 44.5 6t38 13.5t33 18t35 35t37.5 48t46 73t56 94t72 126.5l467 838q-54 19 -85.5 66.5t-31.5 107.5q0 76 50.5 130
t132.5 54t132 -54t50 -130q0 -77 -48 -129.5t-128 -55.5l114 -1042q17 -122 41.5 -157.5t96.5 -39.5l57 -6l2 -12h-524l6 12l61 4q63 3 89.5 36t19.5 102zM836 1276q73 0 117 48t44 118q0 69 -44 117.5t-117 48.5t-117.5 -48.5t-44.5 -117.5q0 -70 44.5 -118t117.5 -48z
M410 582h352l-53 522h-7z" />
    <glyph glyph-name="aringacute" unicode="&#x1fb;" horiz-adv-x="872" 
d="M422 1407l291 383h166l-445 -383h-12zM584 1020q-82 0 -132.5 53.5t-50.5 130.5q0 76 50.5 130.5t132.5 54.5t132 -54t50 -131q0 -78 -50 -131t-132 -53zM567 -25q-31 0 -74.5 36.5t-43.5 68.5q0 62 90 291h-4q-138 -224 -192 -289q-84 -105 -157 -105q-69 0 -117.5 53.5
t-48.5 137.5q0 79 29.5 168t78.5 169t101 146.5t107 122.5q50 52 106 81.5t105 29.5t73 -43.5t23 -151.5h4l70 207l131 -8l-160 -440l-123 -383l103 -13l141 226l12 -7q-142 -297 -254 -297zM584 1038q73 0 117 48t44 118q0 69 -44 117.5t-117 48.5t-117.5 -48.5
t-44.5 -117.5q0 -70 44.5 -118t117.5 -48zM256 78q108 0 307 399q21 41 37 92t16 78q0 60 -44 110t-109 50q-56 0 -105 -49q-74 -76 -136 -241t-62 -290q0 -72 28 -110.5t68 -38.5z" />
    <glyph glyph-name="AEacute" unicode="&#x1fc;" horiz-adv-x="1718" 
d="M809 559h-373l-186 -235q-132 -167 -150 -194q-43 -64 -21 -86q19 -19 111 -28l54 -4l6 -12h-451l6 12l64 6q36 3 60.5 11t51.5 23.5t63.5 54.5t79 89t116.5 142l678 852q29 37 8 52q-24 17 -121 22l-76 4l-2 12h928l28 -362l-10 -3l-10 29q-18 53 -30 85t-29.5 70
t-34 59.5t-40 43.5t-51 33t-64 18t-81.5 7h-213l-123 -580l148 2q95 3 144.5 18t78 46t59.5 100l13 28l12 -2l-86 -413l-12 2l2 26q3 26 3 45.5t-2 36t-9 28.5t-14.5 21t-23.5 15t-31 10t-41.5 7t-50 4t-61.5 3l-135 5l-131 -631l299 -11q71 1 132 20.5t104.5 47t88.5 76.5
t73.5 89t70.5 105l21 29l10 -2l-160 -385h-1001q-1 0 0.5 3.5t3.5 6.5l2 4l94 9q103 8 107 32zM455 582h358l127 604h-4zM1112 1389l291 383h166l-445 -383h-12z" />
    <glyph glyph-name="aeacute" unicode="&#x1fd;" horiz-adv-x="1196" 
d="M666 1006l290 383h166l-444 -383h-12zM186 -25q-70 0 -118 53t-48 138q0 80 29.5 168.5t78.5 169t100.5 146.5t107.5 122q119 119 209 119q114 0 117 -227q72 106 166.5 169.5t187.5 63.5q88 0 144.5 -39.5t56.5 -103.5q0 -98 -127.5 -162.5t-391.5 -108.5
q-28 -95 -28 -188q0 -110 41.5 -168.5t122.5 -58.5q77 0 137 47.5t133 167.5l14 -7q-173 -299 -350 -299q-109 0 -175.5 82t-66.5 199q0 70 9 109q-57 -92 -87.5 -139.5t-71.5 -105.5t-68.5 -84t-59 -44.5t-62.5 -18.5zM709 502q209 38 291.5 97.5t82.5 166.5q0 48 -22 78
t-66 30q-55 0 -127 -69q-47 -47 -91 -129t-72 -172zM256 76q107 0 307 401q21 41 37 92t16 78q0 60 -44 110t-109 50q-54 0 -105 -51q-74 -77 -136 -240.5t-62 -288.5q0 -73 27.5 -112t68.5 -39z" />
    <glyph glyph-name="Oslashacute" unicode="&#x1fe;" horiz-adv-x="1464" 
d="M1214 1178q106 -86 164 -213t58 -273q0 -149 -57.5 -283t-154 -229t-227 -151t-272.5 -56q-215 0 -367 111l-184 -234h-27l195 246q-110 84 -169.5 213t-59.5 279q0 135 53 264.5t145 231t227.5 163.5t288.5 62q213 0 371 -119l174 221h27zM381 147l778 992
q-120 149 -323 149q-122 0 -228.5 -69t-177.5 -181t-111 -253t-40 -287q0 -212 102 -351zM1171 1122l-776 -989q119 -141 318 -141q156 0 285.5 112t200.5 291.5t71 380.5q0 205 -99 346zM836 1372l290 383h166l-444 -383h-12z" />
    <glyph glyph-name="oslashacute" unicode="&#x1ff;" horiz-adv-x="770" 
d="M670 770q63 -99 63 -238q0 -131 -66 -261t-170 -212t-208 -82q-105 0 -172 86l-256 -325h-27q17 22 45 57.5t87 110.5t98.5 125t39.5 49q-65 100 -65 244q0 127 65 260t165.5 220t197.5 87q113 0 190 -103l304 386h26zM162 156l438 559q-6 73 -33 112t-69 39
q-75 0 -159.5 -123.5t-135.5 -283.5q-19 -58 -31 -132.5t-12 -123.5q0 -33 2 -47zM602 684l-436 -557q9 -60 35 -93.5t63 -33.5q88 0 170 100.5t129 253.5q19 61 30 145t11 148q0 25 -2 37zM442 985l291 383h166l-444 -383h-13z" />
    <glyph glyph-name="Scommaaccent" unicode="&#x218;" horiz-adv-x="980" 
d="M549 -303q-17 -83 -108 -156t-195 -88l-4 8q66 15 123 63t71 118q13 66 -28 97.5t-101 4.5q-13 45 24.5 86.5t102.5 34.5q64 -6 97 -52.5t18 -115.5zM442 -27q-123 0 -239.5 37.5t-186.5 85.5l47 289h9l20 -104q29 -139 120.5 -214t225.5 -75q141 0 231.5 85t90.5 218
q0 96 -59 164.5t-201 154.5q-134 77 -205.5 160.5t-71.5 196.5q0 142 105.5 241t281.5 99q147 0 291 -78l86 16l-55 -319l-6 2l-78 264q-39 42 -98.5 69t-126.5 27q-122 0 -197.5 -70t-75.5 -180q0 -90 54 -152.5t194 -144.5q147 -87 223 -172.5t76 -203.5q0 -77 -31.5 -148
t-88 -126.5t-144 -88.5t-191.5 -33z" />
    <glyph glyph-name="scommaaccent" unicode="&#x219;" horiz-adv-x="616" 
d="M295 -303q-17 -83 -108 -156t-195 -88l-4 8q66 15 123 63t71 118q13 66 -28 97.5t-101 4.5q-13 45 24.5 86.5t102.5 34.5q64 -6 97 -52.5t18 -115.5zM231 -25q-101 0 -175 49t-74 128q0 40 25.5 68t60.5 28q31 0 52 -23t21 -55q0 -28 -20.5 -58.5t-44.5 -41.5
q27 -29 77.5 -52.5t96.5 -23.5q59 0 99.5 31.5t55.5 71t15 81.5q0 16 -4.5 33t-9 29.5t-16 29t-18 25.5t-23 26.5t-23 23.5t-26 24.5t-24.5 23.5q-43 43 -64 66t-46 57t-35.5 65.5t-11.5 67.5q0 102 86.5 174t189.5 72q95 0 154.5 -41t60.5 -121q0 -42 -26 -67t-60 -25
q-32 0 -52.5 23t-20.5 57q0 29 19 55t46 37q-61 61 -127 61q-80 0 -121 -52.5t-41 -119.5q1 -26 9.5 -49.5t29 -50t35 -42t45.5 -46.5l12 -12q2 -2 22 -21t24 -23.5t22 -23t23.5 -25.5t20.5 -25t20 -28.5t15 -28t14 -31.5t7.5 -31t3.5 -34q0 -105 -93.5 -180.5t-205.5 -75.5
z" />
    <glyph glyph-name="uni021A" unicode="&#x21a;" horiz-adv-x="1294" 
d="M629 -303q-17 -83 -108 -156t-195 -88l-4 8q66 15 123 63t71 118q13 66 -28 97.5t-101 4.5q-13 45 24.5 86.5t102.5 34.5q64 -6 97 -52.5t18 -115.5zM268 0l6 12l105 8q102 8 106 33l254 1209h-157q-58 -4 -111.5 -28.5t-98.5 -67t-81 -89t-74 -108.5l-16 -27h-11
l107 338h1059l-37 -338h-8l-4 25q-24 159 -83.5 223t-181.5 72h-141l-258 -1215q-1 -8 5.5 -12.5t32 -8.5t77.5 -8l78 -6l2 -12h-570z" />
    <glyph glyph-name="uni021B" unicode="&#x21b;" horiz-adv-x="526" 
d="M193 -25q-21 0 -62.5 13t-75.5 31.5t-30 31.5l225 752l-152 4l25 61l149 2l84 273h136l-82 -273l172 -2l-9 -65h-184l-235 -737l131 -13l139 223l12 -6q-71 -149 -134.5 -222t-108.5 -73zM248 -303q-17 -83 -108 -156t-195 -88l-4 8q66 15 123 63t71 118q13 66 -28 97.5
t-101 4.5q-13 45 24.5 86.5t102.5 34.5q64 -6 97 -52.5t18 -115.5z" />
    <glyph glyph-name="dotlessj" unicode="&#x237;" horiz-adv-x="440" 
d="M322 897q36 0 65 -42.5t29 -92.5q0 -46 -81.5 -292.5t-156.5 -436.5q-69 -172 -126 -281t-120 -170q-36 -38 -85.5 -65t-90.5 -27q-46 0 -82 29.5t-36 72.5q0 30 22.5 55t58.5 25q33 0 56 -21t24.5 -55.5t-32.5 -78.5l96 34q48 51 88 141.5t94 256.5l264 860l-108 8
l-144 -221l-12 6q144 295 277 295z" />
    <glyph glyph-name="circumflex" unicode="&#x2c6;" horiz-adv-x="757" 
d="M236 983l335 385h11l176 -385h-13l-190 231h-6l-303 -231h-10z" />
    <glyph glyph-name="caron" unicode="&#x2c7;" horiz-adv-x="757" 
d="M489 983l-176 385h13l192 -231h6l301 231h11l-336 -385h-11z" />
    <glyph glyph-name="breve" unicode="&#x2d8;" horiz-adv-x="757" 
d="M508 995q-47 0 -81 20t-52.5 50t-30 77t-14.5 88t-4 97h12q22 -118 64 -176.5t122 -58.5t147.5 59t135.5 176h12q-66 -147 -99 -197q-88 -134 -212 -135z" />
    <glyph glyph-name="dotaccent" unicode="&#x2d9;" horiz-adv-x="757" 
d="M535 1075q-43 0 -68 30.5t-25 61.5q0 35 24 67t69 32q43 0 67.5 -32t24.5 -67q0 -32 -24.5 -62t-67.5 -30z" />
    <glyph glyph-name="ring" unicode="&#x2da;" horiz-adv-x="757" 
d="M545 1020q-82 0 -132.5 53.5t-50.5 130.5q0 76 50.5 130.5t132.5 54.5t132 -54t50 -131q0 -78 -50 -131t-132 -53zM545 1038q73 0 117.5 48t44.5 118q0 69 -44.5 117.5t-117.5 48.5t-117.5 -48.5t-44.5 -117.5q0 -70 44.5 -118t117.5 -48z" />
    <glyph glyph-name="ogonek" unicode="&#x2db;" horiz-adv-x="757" 
d="M211 -461q-66 0 -105.5 44t-39.5 112q0 57 36 112t95 97.5t118 73.5t123 55h23q-289 -124 -289 -307q0 -57 27 -91t77 -34q28 0 52 9.5t34 17.5t37 30l4 -4q-93 -115 -192 -115z" />
    <glyph glyph-name="tilde" unicode="&#x2dc;" horiz-adv-x="757" 
d="M666 1018q-45 0 -107.5 31t-121 61.5t-91.5 30.5q-42 0 -68 -20.5t-40 -86.5h-13q27 110 62.5 156.5t99.5 46.5q44 0 106.5 -30.5t121 -61.5t92.5 -31q40 0 67 22.5t41 84.5h14q-29 -110 -64 -156.5t-99 -46.5z" />
    <glyph glyph-name="hungarumlaut" unicode="&#x2dd;" horiz-adv-x="757" 
d="M561 1006l291 383h147l-426 -383h-12zM270 1006l291 383h146l-426 -383h-11z" />
    <glyph glyph-name="Wgrave" unicode="&#x1e80;" horiz-adv-x="1984" 
d="M547 -29l-185 1096q-21 129 -40.5 160t-94.5 37l-57 4v12h524l-8 -12l-63 -2q-70 -3 -96.5 -27t-16.5 -92l154 -950h4l436 747l-21 123q-9 49 -13.5 71t-12.5 49.5t-15.5 37t-22 20.5t-31.5 14t-44 5l-55 4l-2 12h522l-8 -12l-64 -2q-72 -3 -97 -28t-15 -93l145 -946h4
l443 802q21 37 34.5 60.5t26 49.5t18.5 41t9.5 31.5t1.5 25t-9.5 18.5t-18.5 14.5t-29 9.5t-38.5 7.5t-50.5 5.5l-41 4l-2 12h436l-8 -12l-30 -4q-34 -4 -54 -8.5t-45 -21t-41 -34t-46.5 -63.5t-57 -91t-76.5 -133l-520 -942h-16l-150 934h-4l-545 -934h-14zM1260 1389
l-283 383h147l150 -383h-14z" />
    <glyph glyph-name="wgrave" unicode="&#x1e81;" horiz-adv-x="1138" 
d="M190 -25q-55 0 -94 50.5t-39 121.5q0 57 37 138.5t83.5 152t107 164t90.5 154.5l-201 53l-125 -205l-10 6q74 158 129.5 226.5t105.5 68.5q39 0 113 -13t74 -20q0 -18 -43.5 -93t-95 -160.5t-95 -188t-43.5 -168.5q0 -156 107 -156q46 0 105.5 57t121.5 154.5t112 187
t101 193.5q0 1 -8 6t-20 14t-24.5 21t-21 30t-8.5 38q0 40 24.5 64t65.5 24q32 0 56 -26.5t24 -61.5q0 -31 -16 -63t-37 -58.5t-50 -75t-48 -102.5q-31 -84 -43.5 -136.5t-12.5 -107.5q0 -78 36 -118t102 -40q77 0 154.5 96.5t125 242.5t47.5 284q-51 -11 -83.5 16t-32.5 64
q0 34 25 62t58 28q38 0 66.5 -30.5t28.5 -73.5q0 -72 -37.5 -207.5t-108.5 -287t-149 -230.5q-47 -48 -84.5 -71.5t-83.5 -23.5q-54 0 -91.5 48.5t-37.5 109.5q0 46 15.5 110.5t28 101t44.5 124.5q-44 -75 -75.5 -127t-73 -114.5t-76 -103.5t-72.5 -77.5t-75 -54t-73 -17.5z
M768 1006l-283 383h148l149 -383h-14z" />
    <glyph glyph-name="Wacute" unicode="&#x1e82;" horiz-adv-x="1984" 
d="M1071 1389l291 383h166l-445 -383h-12zM547 -29l-185 1096q-21 129 -40.5 160t-94.5 37l-57 4v12h524l-8 -12l-63 -2q-70 -3 -96.5 -27t-16.5 -92l154 -950h4l436 747l-21 123q-9 49 -13.5 71t-12.5 49.5t-15.5 37t-22 20.5t-31.5 14t-44 5l-55 4l-2 12h522l-8 -12
l-64 -2q-72 -3 -97 -28t-15 -93l145 -946h4l443 802q21 37 34.5 60.5t26 49.5t18.5 41t9.5 31.5t1.5 25t-9.5 18.5t-18.5 14.5t-29 9.5t-38.5 7.5t-50.5 5.5l-41 4l-2 12h436l-8 -12l-30 -4q-34 -4 -54 -8.5t-45 -21t-41 -34t-46.5 -63.5t-57 -91t-76.5 -133l-520 -942h-16
l-150 934h-4l-545 -934h-14z" />
    <glyph glyph-name="wacute" unicode="&#x1e83;" horiz-adv-x="1138" 
d="M702 1006l291 383h166l-444 -383h-13zM190 -25q-55 0 -94 50.5t-39 121.5q0 57 37 138.5t83.5 152t107 164t90.5 154.5l-201 53l-125 -205l-10 6q74 158 129.5 226.5t105.5 68.5q39 0 113 -13t74 -20q0 -18 -43.5 -93t-95 -160.5t-95 -188t-43.5 -168.5q0 -156 107 -156
q46 0 105.5 57t121.5 154.5t112 187t101 193.5q0 1 -8 6t-20 14t-24.5 21t-21 30t-8.5 38q0 40 24.5 64t65.5 24q32 0 56 -26.5t24 -61.5q0 -31 -16 -63t-37 -58.5t-50 -75t-48 -102.5q-31 -84 -43.5 -136.5t-12.5 -107.5q0 -78 36 -118t102 -40q77 0 154.5 96.5t125 242.5
t47.5 284q-51 -11 -83.5 16t-32.5 64q0 34 25 62t58 28q38 0 66.5 -30.5t28.5 -73.5q0 -72 -37.5 -207.5t-108.5 -287t-149 -230.5q-47 -48 -84.5 -71.5t-83.5 -23.5q-54 0 -91.5 48.5t-37.5 109.5q0 46 15.5 110.5t28 101t44.5 124.5q-44 -75 -75.5 -127t-73 -114.5
t-76 -103.5t-72.5 -77.5t-75 -54t-73 -17.5z" />
    <glyph glyph-name="Wdieresis" unicode="&#x1e84;" horiz-adv-x="1984" 
d="M1354 1425q-42 0 -66 30.5t-24 62.5q0 34 23.5 66t66.5 32t67.5 -32.5t24.5 -65.5q0 -32 -24.5 -62.5t-67.5 -30.5zM1026 1425q-43 0 -67.5 30.5t-24.5 62.5q0 33 24.5 65.5t67.5 32.5t66.5 -32t23.5 -66q0 -32 -24 -62.5t-66 -30.5zM547 -29l-185 1096
q-21 129 -40.5 160t-94.5 37l-57 4v12h524l-8 -12l-63 -2q-70 -3 -96.5 -27t-16.5 -92l154 -950h4l436 747l-21 123q-9 49 -13.5 71t-12.5 49.5t-15.5 37t-22 20.5t-31.5 14t-44 5l-55 4l-2 12h522l-8 -12l-64 -2q-72 -3 -97 -28t-15 -93l145 -946h4l443 802
q21 37 34.5 60.5t26 49.5t18.5 41t9.5 31.5t1.5 25t-9.5 18.5t-18.5 14.5t-29 9.5t-38.5 7.5t-50.5 5.5l-41 4l-2 12h436l-8 -12l-30 -4q-34 -4 -54 -8.5t-45 -21t-41 -34t-46.5 -63.5t-57 -91t-76.5 -133l-520 -942h-16l-150 934h-4l-545 -934h-14z" />
    <glyph glyph-name="wdieresis" unicode="&#x1e85;" horiz-adv-x="1138" 
d="M922 1042q-42 0 -66.5 31t-24.5 62q0 34 24 66t67 32t67.5 -32.5t24.5 -65.5q0 -32 -24.5 -62.5t-67.5 -30.5zM594 1042q-43 0 -67.5 30.5t-24.5 62.5q0 33 24.5 65.5t67.5 32.5t66.5 -32t23.5 -66q0 -32 -24 -62.5t-66 -30.5zM190 -25q-55 0 -94 50.5t-39 121.5
q0 57 37 138.5t83.5 152t107 164t90.5 154.5l-201 53l-125 -205l-10 6q74 158 129.5 226.5t105.5 68.5q39 0 113 -13t74 -20q0 -18 -43.5 -93t-95 -160.5t-95 -188t-43.5 -168.5q0 -156 107 -156q46 0 105.5 57t121.5 154.5t112 187t101 193.5q0 1 -8 6t-20 14t-24.5 21
t-21 30t-8.5 38q0 40 24.5 64t65.5 24q32 0 56 -26.5t24 -61.5q0 -31 -16 -63t-37 -58.5t-50 -75t-48 -102.5q-31 -84 -43.5 -136.5t-12.5 -107.5q0 -78 36 -118t102 -40q77 0 154.5 96.5t125 242.5t47.5 284q-51 -11 -83.5 16t-32.5 64q0 34 25 62t58 28q38 0 66.5 -30.5
t28.5 -73.5q0 -72 -37.5 -207.5t-108.5 -287t-149 -230.5q-47 -48 -84.5 -71.5t-83.5 -23.5q-54 0 -91.5 48.5t-37.5 109.5q0 46 15.5 110.5t28 101t44.5 124.5q-44 -75 -75.5 -127t-73 -114.5t-76 -103.5t-72.5 -77.5t-75 -54t-73 -17.5z" />
    <glyph glyph-name="thinspace" unicode="&#x2009;" horiz-adv-x="122" 
 />
    <glyph glyph-name="endash" unicode="&#x2013;" horiz-adv-x="870" 
d="M14 459l21 61h844l-21 -61h-844z" />
    <glyph glyph-name="emdash" unicode="&#x2014;" horiz-adv-x="1835" 
d="M14 459l21 61h1808l-20 -61h-1809z" />
    <glyph glyph-name="quoteleft" unicode="&#x2018;" horiz-adv-x="342" 
d="M301 879q-56 0 -92.5 38.5t-36.5 98.5q0 95 86.5 177t218.5 118l4 -8q-90 -35 -150.5 -94t-60.5 -130q0 -39 27 -64t57 -32.5t54 -5.5q2 -34 -28 -66t-79 -32z" />
    <glyph glyph-name="quoteright" unicode="&#x2019;" horiz-adv-x="339" 
d="M143 887l-4 8q92 35 152.5 93t60.5 128q0 30 -16 52.5t-39.5 33.5t-45 15.5t-38.5 3.5q0 35 29.5 67.5t79.5 32.5q55 0 91 -39.5t36 -101.5q0 -94 -87 -176.5t-219 -116.5z" />
    <glyph glyph-name="quotesinglbase" unicode="&#x201a;" horiz-adv-x="339" 
d="M-92 -209l-4 8q93 35 154 93.5t61 130.5q0 30 -16 52.5t-40 33t-46 15t-40 3.5q0 35 30.5 67.5t80.5 32.5q55 0 91 -39.5t36 -101.5q0 -96 -87 -178.5t-220 -116.5z" />
    <glyph glyph-name="quotedblleft" unicode="&#x201c;" horiz-adv-x="659" 
d="M618 879q-56 0 -92.5 38.5t-36.5 98.5q0 95 86.5 177t219.5 118l4 -8q-90 -35 -150.5 -94t-60.5 -130q0 -39 26.5 -64t56.5 -32.5t54 -5.5q2 -34 -28 -66t-79 -32zM301 879q-56 0 -92.5 38.5t-36.5 98.5q0 95 86.5 177t218.5 118l4 -8q-90 -35 -150.5 -94t-60.5 -130
q0 -39 27 -64t57 -32.5t54 -5.5q2 -34 -28 -66t-79 -32z" />
    <glyph glyph-name="quotedblright" unicode="&#x201d;" horiz-adv-x="657" 
d="M463 887l-4 8q90 36 150.5 93.5t60.5 127.5q0 39 -28 65t-58 33.5t-54 6.5q0 35 29.5 67.5t79.5 32.5q55 0 91 -39.5t36 -101.5q0 -94 -86.5 -176.5t-216.5 -116.5zM143 887l-4 8q92 35 152.5 93t60.5 128q0 30 -16 52.5t-39.5 33.5t-45 15.5t-38.5 3.5q0 35 29.5 67.5
t79.5 32.5q55 0 91 -39.5t36 -101.5q0 -94 -87 -176.5t-219 -116.5z" />
    <glyph glyph-name="quotedblbase" unicode="&#x201e;" horiz-adv-x="657" 
d="M229 -209l-4 8q90 36 150.5 94t60.5 130q0 30 -16 52.5t-39.5 33t-45 15t-38.5 3.5q0 35 29.5 67.5t79.5 32.5q55 0 90.5 -39.5t35.5 -101.5q0 -96 -86 -178.5t-217 -116.5zM-92 -209l-4 8q93 35 154 93.5t61 130.5q0 30 -16 52.5t-40 33t-46 15t-40 3.5q0 35 30.5 67.5
t80.5 32.5q55 0 91 -39.5t36 -101.5q0 -96 -87 -178.5t-220 -116.5z" />
    <glyph glyph-name="dagger" unicode="&#x2020;" horiz-adv-x="886" 
d="M270 -319l248 1167h-414l2 20h416l88 412h23l-88 -412h416l-7 -20h-413l-248 -1167h-23z" />
    <glyph glyph-name="daggerdbl" unicode="&#x2021;" horiz-adv-x="886" 
d="M270 -319l84 393h-415l6 20h413l164 770h-413l2 21h415l84 395h23l-84 -395h416l-7 -21h-413l-164 -770h414l-2 -20h-416l-84 -393h-23z" />
    <glyph glyph-name="bullet" unicode="&#x2022;" horiz-adv-x="870" 
d="M442 80q-43 0 -144.5 43t-129.5 74q-31 33 -74 133.5t-43 144.5t43 146t74 133t132 72.5t144 41.5q44 0 145 -41.5t132 -72.5t73 -133t42 -146q0 -45 -41.5 -145.5t-73.5 -132.5q-30 -32 -132 -74.5t-147 -42.5z" />
    <glyph glyph-name="ellipsis" unicode="&#x2026;" horiz-adv-x="1134" 
d="M881 -27q-45 0 -77 33t-32 76q0 40 32 71t77 31q43 0 73.5 -30.5t30.5 -71.5q0 -44 -30.5 -76.5t-73.5 -32.5zM492 -27q-44 0 -75.5 33t-31.5 76q0 40 31.5 71t75.5 31q45 0 74.5 -30.5t29.5 -71.5q0 -44 -29.5 -76.5t-74.5 -32.5zM104 -27q-45 0 -76.5 32.5t-31.5 76.5
q0 41 31.5 71.5t76.5 30.5q44 0 74.5 -31t30.5 -71q0 -43 -30.5 -76t-74.5 -33z" />
    <glyph glyph-name="perthousand" unicode="&#x2030;" horiz-adv-x="1714" 
d="M397 791q-115 0 -184.5 75t-69.5 183q0 109 69.5 185.5t184.5 76.5q116 0 186 -76.5t70 -185.5q0 -108 -70 -183t-186 -75zM-8 -29l1196 1340h26l-1196 -1340h-26zM1401 -27q-115 0 -184.5 74.5t-69.5 181.5q0 110 69.5 187.5t184.5 77.5q116 0 186 -77.5t70 -187.5
q0 -107 -70 -181.5t-186 -74.5zM813 -27q-115 0 -184.5 74.5t-69.5 181.5q0 110 69.5 187.5t184.5 77.5q116 0 186 -77.5t70 -187.5q0 -107 -70 -181.5t-186 -74.5zM397 811q104 0 168 68t64 170q0 101 -64.5 171t-167.5 70t-166 -70t-63 -171q0 -102 63 -170t166 -68z
M1401 -6q104 0 167.5 67.5t63.5 169.5q0 101 -64 171.5t-167 70.5t-166.5 -70.5t-63.5 -171.5q0 -102 63 -169.5t167 -67.5zM813 -6q104 0 167.5 67.5t63.5 169.5q0 101 -64 171.5t-167 70.5t-166 -70t-63 -172t62.5 -169.5t166.5 -67.5z" />
    <glyph glyph-name="guilsinglleft" unicode="&#x2039;" horiz-adv-x="477" 
d="M365 100l-340 353l4 14l485 342l6 -8l-340 -359l193 -331z" />
    <glyph glyph-name="guilsinglright" unicode="&#x203a;" horiz-adv-x="479" 
d="M-27 100l-4 9l338 356l-194 332l10 10l338 -352l-2 -15z" />
    <glyph glyph-name="fraction" unicode="&#x2044;" horiz-adv-x="940" 
d="M-121 -27l1239 1340h31l-1241 -1340h-29z" />
    <glyph glyph-name="zerosuperior" unicode="&#x2070;" horiz-adv-x="659" 
d="M317 504q-60 0 -106 26.5t-72 71t-38.5 96.5t-12.5 109q0 75 23 159.5t65 160.5t110.5 126t149.5 50q59 0 105 -28.5t71.5 -75t38.5 -99.5t13 -109q0 -60 -13.5 -125t-42 -130t-68.5 -116.5t-98 -83.5t-125 -32zM307 516q66 0 118.5 69.5t80.5 169.5t42.5 189.5
t14.5 149.5q0 194 -123 194q-64 0 -116.5 -71t-81 -172t-43.5 -193t-15 -152q0 -184 123 -184z" />
    <glyph glyph-name="foursuperior" unicode="&#x2074;" horiz-adv-x="577" 
d="M285 518l47 217h-320v4l504 572h33l-105 -500h136l-27 -76h-127l-47 -217h-94zM94 811h252l80 373h-2z" />
    <glyph glyph-name="fivesuperior" unicode="&#x2075;" horiz-adv-x="489" 
d="M115 479q-70 6 -103.5 31.5t-27.5 64.5q6 23 25 38.5t44 15.5q36 -3 51.5 -41.5t4.5 -79.5q3 -1 22.5 -7t34.5 -7q68 -5 130 53t75 143q18 97 -50.5 165.5t-207.5 98.5l153 340h305l-39 -96h-294l-70 -162q155 -35 233.5 -117t61.5 -186q-19 -109 -120 -186.5t-228 -67.5
z" />
    <glyph glyph-name="sixsuperior" unicode="&#x2076;" horiz-adv-x="581" 
d="M297 504q-110 0 -172 76.5t-62 187.5q0 92 43.5 183.5t122.5 167.5t204 124.5t274 50.5l-2 -10q-176 -11 -305.5 -108t-194.5 -238l2 -2q88 63 188 63q87 0 133.5 -52t46.5 -140q0 -125 -83.5 -214t-194.5 -89zM293 516q73 0 126.5 78.5t53.5 189.5q0 79 -36 129t-109 50
q-70 0 -131 -45q-41 -96 -41 -193q0 -209 137 -209z" />
    <glyph glyph-name="sevensuperior" unicode="&#x2077;" horiz-adv-x="505" 
d="M72 518l487 678l-2 6h-207q-100 0 -141 -19t-80 -81l-8 -12h-6l67 202h447v-4l-484 -770h-73z" />
    <glyph glyph-name="eightsuperior" unicode="&#x2078;" horiz-adv-x="579" 
d="M291 498q-107 0 -180.5 57.5t-73.5 142.5q0 82 67.5 140.5t171.5 70.5l3 2q-125 94 -125 189q0 81 68.5 147t168.5 66q94 0 157.5 -54.5t63.5 -134.5q0 -71 -58 -119.5t-151 -64.5v-4q71 -55 108.5 -104t37.5 -115q0 -90 -75.5 -154.5t-182.5 -64.5zM393 944
q58 26 94.5 77.5t36.5 119.5q0 67 -34 113t-99 46q-64 0 -105.5 -47.5t-41.5 -109.5q0 -30 11 -56.5t36.5 -53.5t44.5 -43t57 -46zM295 510q72 0 118 49.5t46 114.5q0 34 -12.5 64.5t-43 62t-50 48.5t-64.5 52q-74 -24 -118 -80.5t-44 -140.5q0 -73 43 -121.5t125 -48.5z
" />
    <glyph glyph-name="ninesuperior" unicode="&#x2079;" horiz-adv-x="600" 
d="M-20 522l2 10q177 11 306 108.5t191 238.5h-2q-86 -64 -184 -64q-87 0 -134.5 52.5t-47.5 142.5q0 124 84.5 212.5t195.5 88.5q110 0 172 -76.5t62 -185.5q0 -74 -26.5 -148t-81 -142t-130 -120t-181 -84t-226.5 -33zM358 852q69 0 131 45q41 93 41 195q0 206 -135 206
q-74 0 -128 -78t-54 -188q0 -80 36 -130t109 -50z" />
    <glyph glyph-name="plussuperior" unicode="&#x207a;" horiz-adv-x="659" 
d="M383 582l-2 315h-305l2 18l303 3l2 307h20v-307l304 -3l4 -18h-308v-315h-20z" />
    <glyph glyph-name="minussuperior" unicode="&#x207b;" horiz-adv-x="659" 
d="M657 895h-546l2 16h540z" />
    <glyph glyph-name="zeroinferior" unicode="&#x2080;" horiz-adv-x="659" 
d="M276 -266q-60 0 -106 26.5t-72 71t-38.5 96.5t-12.5 109q0 59 14 125.5t43.5 132t69.5 118.5t98 86t123 33q59 0 105 -28.5t71.5 -75t38.5 -99t13 -108.5q0 -60 -13.5 -125t-42 -130t-68.5 -116.5t-98 -83.5t-125 -32zM266 -254q66 0 118.5 69.5t80.5 169.5t42.5 189.5
t14.5 149.5q0 194 -123 194q-64 0 -116.5 -71t-81 -172t-43.5 -193t-15 -152q0 -184 123 -184z" />
    <glyph glyph-name="oneinferior" unicode="&#x2081;" horiz-adv-x="446" 
d="M2 -252l6 8h41q59 3 62 21l145 696l-123 21l4 6l236 28l-162 -753q-1 -6 3 -9.5t20 -6.5t45 -3h34l2 -8h-313z" />
    <glyph glyph-name="twoinferior" unicode="&#x2082;" horiz-adv-x="532" 
d="M-74 -252l-2 8q227 188 291 249q129 123 160 225q12 40 14 81q4 76 -36.5 120t-102.5 44q-48 0 -83.5 -24.5t-76.5 -79.5l-8 6q106 164 237 164q77 0 127.5 -53t49.5 -132q-2 -41 -12.5 -77t-35.5 -72.5t-49.5 -65t-70.5 -69t-81 -69t-100.5 -80.5t-109.5 -89v-2h311
q16 0 49.5 37t75.5 108l6 11l6 -2l-102 -238h-457z" />
    <glyph glyph-name="threeinferior" unicode="&#x2083;" horiz-adv-x="491" 
d="M135 -301q-82 0 -134 22t-52 70q0 24 18 41.5t45 17.5q35 0 54 -34t-9 -78q39 -27 90 -27q83 0 140 66t57 160q0 80 -49 127t-139 47q-20 0 -72 -9l-4 9q168 70 231.5 119t63.5 126q0 53 -34 89t-91 36q-46 0 -89.5 -30t-72.5 -78l-8 6q39 72 100 117t133 45
q68 0 116 -43.5t48 -104.5q0 -71 -58 -124t-179 -95v-4h4q89 -7 143.5 -65.5t54.5 -135.5q0 -104 -93.5 -187t-213.5 -83z" />
    <glyph glyph-name="fourinferior" unicode="&#x2084;" horiz-adv-x="577" 
d="M244 -252l47 217h-320v4l504 572h33l-105 -500h136l-27 -76h-127l-47 -217h-94zM53 41h252l80 373h-2z" />
    <glyph glyph-name="fiveinferior" unicode="&#x2085;" horiz-adv-x="489" 
d="M74 -291q-70 6 -103.5 31.5t-27.5 64.5q6 23 25 38.5t44 15.5q36 -3 51.5 -41.5t4.5 -79.5q3 -1 22.5 -7t34.5 -7q68 -5 130 53t75 143q18 97 -50.5 165.5t-207.5 98.5l153 340h305l-38 -96h-295l-70 -162q155 -35 233.5 -117t61.5 -186q-19 -109 -120 -186.5t-228 -67.5
z" />
    <glyph glyph-name="sixinferior" unicode="&#x2086;" horiz-adv-x="581" 
d="M256 -266q-110 0 -171.5 76.5t-61.5 187.5q0 73 26.5 147t81 141t129.5 119.5t180.5 84.5t225.5 34l-2 -10q-176 -11 -305.5 -108t-194.5 -238l2 -2q88 63 188 63q87 0 134 -52t47 -140q0 -125 -84 -214t-195 -89zM252 -254q73 0 126.5 78.5t53.5 189.5q0 79 -36 129
t-109 50q-68 0 -131 -46q-41 -96 -41 -192q0 -209 137 -209z" />
    <glyph glyph-name="seveninferior" unicode="&#x2087;" horiz-adv-x="505" 
d="M31 -252l487 678l-2 6h-207q-100 0 -141 -19t-80 -81l-8 -13h-6l67 203h447v-4l-484 -770h-73z" />
    <glyph glyph-name="eightinferior" unicode="&#x2088;" horiz-adv-x="579" 
d="M250 -272q-107 0 -180.5 57.5t-73.5 142.5q0 82 68 140.5t172 70.5l2 2q-125 94 -125 189q0 81 68.5 147t168.5 66q94 0 157.5 -54.5t63.5 -134.5q0 -71 -58 -119.5t-151 -64.5v-4q71 -55 108.5 -104t37.5 -115q0 -90 -75.5 -154.5t-182.5 -64.5zM352 174
q58 26 94.5 77.5t36.5 119.5q0 67 -34 113t-99 46q-64 0 -105.5 -47.5t-41.5 -109.5q0 -30 11 -56.5t36.5 -53.5t44.5 -43t57 -46zM254 -260q72 0 118 49.5t46 114.5q0 34 -12.5 64.5t-43 62t-50 48.5t-64.5 52q-74 -24 -118 -80.5t-44 -140.5q0 -73 43 -121.5t125 -48.5z
" />
    <glyph glyph-name="nineinferior" unicode="&#x2089;" horiz-adv-x="600" 
d="M-61 -248l2 10q177 11 306 108.5t191 238.5h-2q-86 -64 -184 -64q-88 0 -135 52.5t-47 142.5q0 124 84.5 212.5t195.5 88.5q110 0 172 -76.5t62 -185.5q0 -74 -26.5 -148t-81 -142t-130 -120t-181 -84t-226.5 -33zM317 82q70 0 132 45q40 91 40 195q0 206 -135 206
q-74 0 -128 -78t-54 -188q0 -80 36 -130t109 -50z" />
    <glyph glyph-name="Euro" unicode="&#x20ac;" horiz-adv-x="978" 
d="M541 -29q-91 0 -166.5 40t-124.5 108.5t-77 155t-32 182.5h-137l8 20h129q0 31 13 107q3 75 18 139h-111l7 20h112q50 162 150 291t224.5 199t248.5 70q128 0 205 -54t77 -121q0 -37 -26.5 -65.5t-65.5 -28.5q-43 0 -63.5 31t-13 71t35.5 66q-8 21 -18.5 35.5t-43.5 29.5
t-83 15q-156 0 -286 -149.5t-189 -389.5h407l6 -20h-419q-13 -57 -13 -111q-12 -68 -12 -135h383l4 -20h-385q9 -178 94.5 -289t235.5 -111q154 0 289 156l12 -8q-188 -234 -393 -234z" />
    <glyph glyph-name="trademark" unicode="&#x2122;" horiz-adv-x="827" 
d="M618 958l3 7h10q25 0 32 6t7 30l6 252q-10 15 -35 19l-14 2l-2 6h110l88 -238h2l90 238h115l-2 -6l-24 -2q-23 -3 -23 -8l6 -291q0 -2 29 -6l14 -2l2 -7h-155v7l24 2q21 3 21 8l-4 280h-3l-114 -297h-6l-111 285q-1 0 -2 2l-4 -248q0 -21 8.5 -26.5t38.5 -5.5h10l2 -7
h-119zM354 958l2 7l23 2q24 3 24 8v299h-24q-52 0 -94 -82l-4 -6h-5l17 94h287l10 -94h-2l-4 8q-34 80 -92 80h-25v-301q0 -2 29 -6l16 -2v-7h-158z" />
    <glyph glyph-name="minus" unicode="&#x2212;" horiz-adv-x="886" 
d="M811 473h-735l4 25h727z" />
    <glyph glyph-name="uni2215" unicode="&#x2215;" horiz-adv-x="940" 
d="M-121 -27l1239 1340h31l-1241 -1340h-29z" />
    <glyph glyph-name="approxequal" unicode="&#x2248;" horiz-adv-x="886" 
d="M242 707q-72 0 -118 -36t-65 -122h-24q34 182 207 182q43 0 100 -21.5t103.5 -47t102.5 -47t97 -21.5q72 0 117.5 36t64.5 122h25q-19 -100 -75.5 -141.5t-131.5 -41.5q-54 0 -129 34.5t-149 69t-125 34.5zM242 371q-72 0 -118 -36t-65 -122h-24q34 182 207 182
q43 0 100 -21.5t103.5 -47t102.5 -47t97 -21.5q72 0 117.5 36t64.5 122h25q-19 -100 -75.5 -141.5t-131.5 -41.5q-54 0 -129 34.5t-149 69t-125 34.5z" />
    <glyph glyph-name="notequal" unicode="&#x2260;" horiz-adv-x="876" 
d="M37 647l-6 25h450l90 317h27l-90 -317h338l-6 -25h-340l-92 -330h432l6 -24h-447l-94 -338h-26l94 338h-342l6 24h344l92 330h-436z" />
    <glyph glyph-name="lessequal" unicode="&#x2264;" horiz-adv-x="860" 
d="M829 211l-806 342v22l806 340l11 -22l-781 -326v-4l781 -330zM840 76h-817l4 24h809z" />
    <glyph glyph-name="greaterequal" unicode="&#x2265;" horiz-adv-x="860" 
d="M840 553l-807 -342l-10 22l780 330v4l-780 326l10 22l807 -340v-22zM840 76h-817l4 24h809z" />
    <glyph glyph-name="pcircle" unicode="&#x24df;" horiz-adv-x="1441" 
d="M745 -29q-137 0 -261 53t-213 142.5t-142 213.5t-53 261t53 261t142 214.5t213 143.5t261 53q182 0 336.5 -90t244 -244.5t89.5 -337.5q0 -137 -53 -261t-142.5 -213.5t-213.5 -142.5t-261 -53zM745 -10q132 0 252.5 52t207.5 139t138.5 207.5t51.5 252.5t-51.5 252.5
t-138.5 208.5t-207.5 140t-252.5 52q-176 0 -325.5 -88t-236.5 -238.5t-87 -326.5t87 -326t236.5 -237.5t325.5 -87.5zM461 244l2 8l61 6q60 6 60 21v700q0 6 -4 8.5t-19.5 5.5t-48.5 6l-47 5l-4 8h342q136 0 207 -51.5t71 -141.5q0 -94 -81 -154.5t-209 -60.5
q-45 0 -107 10v-340q0 -14 70 -18l61 -4l4 -8h-358zM791 616q88 0 137 51t49 140q0 94 -48.5 142t-158.5 48h-86v-364q71 -17 107 -17z" />
    <glyph glyph-name="commaaccent" unicode="&#xf6c3;" horiz-adv-x="757" 
d="M360 -303q-17 -83 -108 -156t-195 -88l-4 8q66 15 123.5 63t71.5 118q13 66 -28 97.5t-101 4.5q-13 45 24.5 86.5t102.5 34.5q64 -6 96.5 -52.5t17.5 -115.5z" />
    <glyph glyph-name="J.alt" horiz-adv-x="909" 
d="M252 -23q-133 0 -202.5 55.5t-69.5 121.5q0 51 32.5 85.5t79.5 34.5q40 0 65 -26.5t25 -61.5q0 -15 -4 -28.5t-14.5 -29.5t-33.5 -26.5t-56 -13.5q18 -43 68.5 -68.5t111.5 -25.5q97 0 152 64t86 214l204 963q1 8 -5 12.5t-32 8.5t-79 8l-76 6l-2 12h569l-6 -12l-104 -8
q-103 -8 -107 -33l-215 -1022q-9 -45 -65 -98t-145 -92.5t-177 -39.5z" />
    <glyph glyph-name="Jcircumflex.alt" horiz-adv-x="909" 
d="M537 1366l335 385h11l176 -385h-12l-191 231h-6l-303 -231h-10zM1071 1282l-6 -12l-104 -8q-103 -8 -107 -33l-215 -1022q-9 -45 -65 -98t-145 -92.5t-177 -39.5q-133 0 -202.5 55.5t-69.5 121.5q0 51 32.5 85.5t81.5 34.5q38 0 63 -26.5t25 -61.5q0 -15 -4 -28.5
t-14.5 -29.5t-33.5 -26.5t-56 -13.5q18 -43 69 -68.5t111 -25.5q97 0 152 64.5t86 213.5l204 963q1 8 -5 12.5t-32 8.5t-79 8l-76 6l-2 12h569z" />
    <glyph glyph-name="zero.alt" horiz-adv-x="1114" 
d="M524 -25q-205 0 -333 124.5t-128 314.5q0 154 72.5 287t198 211.5t274.5 78.5q207 0 334 -126.5t127 -317.5q0 -153 -72.5 -285t-198 -209.5t-274.5 -77.5zM524 -8q144 0 265 75.5t190.5 203t69.5 276.5q0 182 -122 305t-319 123q-107 0 -205 -45.5t-167.5 -121.5
t-110.5 -179.5t-41 -214.5q0 -181 122.5 -301.5t317.5 -120.5z" />
    <glyph glyph-name="one.alt" horiz-adv-x="645" 
d="M-6 0l6 12l72 2q54 2 77.5 8.5t26.5 24.5l180 868q2 9 -2.5 14t-27 9t-68.5 6l-59 2l-2 12h473l-8 -12l-68 -2q-54 -2 -77.5 -8.5t-27.5 -24.5l-182 -868q-2 -9 2.5 -14t28 -9t70.5 -6l57 -2l2 -12h-473z" />
    <glyph glyph-name="dot" horiz-adv-x="378" 
d="M188 334q-45 0 -76.5 32.5t-31.5 75.5q0 41 31.5 72t76.5 31q43 0 74 -31t31 -72q0 -43 -30.5 -75.5t-74.5 -32.5z" />
    <glyph glyph-name="ampersand.smallcap" horiz-adv-x="1107" 
d="M942 571q65 -20 102 -73t37 -127q0 -104 -76 -195.5t-202.5 -145t-267.5 -53.5q-219 0 -357.5 106t-138.5 269q0 105 69 189.5t179 122.5q-11 42 -11 69q0 100 68.5 171t167.5 71q89 0 146.5 -76t43.5 -176l-14 4q5 65 -35.5 116.5t-107.5 51.5q-65 0 -105.5 -48.5
t-40.5 -123.5q0 -27 2 -37h29q78 0 129 -34.5t51 -86.5q0 -36 -29.5 -59t-76.5 -23q-66 0 -125 46.5t-86 115.5q-68 -28 -105.5 -83t-37.5 -128q0 -170 131.5 -264t369.5 -94q181 0 297.5 84.5t116.5 210.5q0 75 -48 129.5t-114 54.5q-55 0 -109.5 -45t-54.5 -88
q0 -44 33 -69t92 -27q-25 8 -32 35.5t8.5 52t48.5 24.5q25 0 42 -17t17 -42q0 -28 -23 -49t-57 -21q-73 0 -123.5 46t-50.5 120q0 44 23 78t60 56t81.5 40t89 35.5t81.5 37t60 48.5t23 66q0 51 -36 80.5t-97 31.5q23 -7 32 -37t-6 -58t-51 -28q-27 0 -45 19t-18 47
q0 31 26 53.5t64 22.5q75 0 128.5 -59.5t53.5 -145.5q0 -67 -49.5 -109t-171.5 -82zM406 670q13 -60 50 -95.5t85 -35.5q18 0 31.5 13.5t13.5 27.5q0 37 -46 63.5t-110 26.5h-24z" />
    <glyph glyph-name="at.smallcap" horiz-adv-x="1179" 
d="M598 -158q-247 0 -402 146.5t-155 378.5q0 166 80 308.5t217 226t297 83.5q219 0 361.5 -134t142.5 -339q0 -110 -52 -208.5t-134 -156t-169 -57.5q-74 0 -115.5 36t-41.5 93q0 62 35 137h-3q-95 -140 -153.5 -200t-116.5 -60q-53 0 -91 38.5t-38 94.5q0 92 68.5 200.5
t158.5 191.5q96 90 177 90q37 0 57.5 -41t17.5 -103h2l62 183l117 -7l-105 -266l-57 -151q-34 -97 -13.5 -139t99.5 -42q102 0 190 108.5t88 258.5q0 198 -137.5 328.5t-349.5 130.5q-156 0 -289.5 -81.5t-212 -221t-78.5 -301.5q0 -224 152 -367t391 -143q161 0 296.5 82.5
t197.5 207.5l14 -6q-63 -130 -202.5 -214.5t-305.5 -84.5zM451 174q40 0 101.5 67.5t123.5 184.5q41 84 41 106q0 40 -35.5 78.5t-77.5 38.5q-31 0 -65 -31q-55 -52 -104.5 -159.5t-49.5 -188.5q0 -43 19 -69.5t47 -26.5z" />
    <glyph glyph-name="a.smallcap" horiz-adv-x="950" 
d="M555 414h-260l-102 -183q-70 -124 -78 -148q-15 -43 17 -57q22 -9 83 -12l39 -2l2 -12h-336l6 12l27 2q73 6 111 50t159 260l289 512l-6 57q66 16 117 86h18l84 -797q10 -101 31.5 -132t74.5 -34l46 -4l2 -12h-430l10 12l43 2q51 3 67.5 30t10.5 89zM305 434h246
q1 0 -7.5 93t-17.5 187l-8 93h-4z" />
    <glyph glyph-name="b.smallcap" horiz-adv-x="888" 
d="M-37 0l6 12l58 6q73 8 77 23l189 881q1 4 -1 6t-12.5 4.5t-25.5 4.5t-47 5l-37 4l-2 12h377q161 0 242 -61t81 -147q0 -95 -82 -156.5t-245 -67.5v-4q139 -21 209.5 -86t70.5 -155q-2 -135 -118.5 -208t-340.5 -73h-399zM350 18l58 2q120 4 185.5 85.5t65.5 191.5
q0 103 -71.5 164t-206.5 61h-23l-102 -479zM471 537q118 0 178 69t60 168q0 76 -49 120t-146 44h-68l-84 -391q62 -10 109 -10z" />
    <glyph glyph-name="c.smallcap" horiz-adv-x="1036" 
d="M571 -20q-224 0 -359.5 124.5t-135.5 311.5q0 151 71.5 279t205 206t300.5 78q178 0 287 -76l107 37l-50 -287h-10l-67 224q-33 33 -99.5 57t-140.5 24q-102 0 -187 -51t-140 -134.5t-85 -187t-30 -210.5q0 -175 90 -277t250 -102q103 0 181.5 48.5t147.5 145.5l49 72
l9 -4l-86 -244l-56 -2q-112 -32 -252 -32z" />
    <glyph glyph-name="d.smallcap" horiz-adv-x="1019" 
d="M-37 0l6 12l58 6q73 8 77 23l189 881q1 4 -1 6t-12.5 4.5t-25.5 4.5t-47 5l-37 4l-2 12l379 3q226 1 347.5 -113.5t121.5 -292.5q0 -114 -43.5 -214.5t-122.5 -176.5t-199.5 -120t-265.5 -44h-422zM375 16q115 0 208 47t151 128t89 184t31 219q0 158 -77.5 252t-239.5 94
h-91l-190 -895z" />
    <glyph glyph-name="e.smallcap" horiz-adv-x="909" 
d="M-39 0l8 12l54 6q77 8 81 23l189 881q1 4 -1 6t-12.5 4.5t-25.5 4.5t-47 5l-39 4l-2 12h692l16 -288h-10l-6 20q-27 95 -56.5 146t-82 78.5t-137.5 25.5h-136l-92 -436l103 4q102 4 145 30t76 99l12 25l12 -3l-69 -331h-15l3 24q6 82 -27 104.5t-152 28.5l-92 4l-98 -464
l205 -7q46 0 85.5 8.5t74 29.5t59.5 40t56 56t48.5 60.5t50.5 70.5l15 20l12 -2l-115 -301h-782z" />
    <glyph glyph-name="f.smallcap" horiz-adv-x="851" 
d="M-39 0l8 12l62 6q69 8 73 23l189 881q1 4 -1 6.5t-10.5 5t-24.5 4.5t-44 4l-45 4l-2 12h706l7 -292l-15 -2l-6 20q-16 52 -26 81t-26.5 63.5t-34 52t-44 33.5t-61.5 21.5t-82 4.5h-138l-94 -444l92 4q103 3 147 29.5t75 99.5l10 22l14 -2l-72 -330h-10v23q0 84 -31.5 108
t-146.5 27l-82 2l-92 -442q-1 -6 3.5 -9.5t23.5 -6.5t55 -5l72 -4l2 -12h-451z" />
    <glyph glyph-name="g.smallcap" horiz-adv-x="1069" 
d="M551 -25q-214 0 -344.5 124.5t-130.5 316.5q0 112 42 215t116.5 180.5t184 123.5t236.5 46q179 0 293 -78l101 35l-52 -289l-10 2l-65 230q-33 33 -99 56.5t-139 23.5q-81 0 -153 -32.5t-125 -89t-91 -131t-57.5 -159t-19.5 -172.5q0 -173 88.5 -278t238.5 -105
q90 0 154 33l74 352q1 4 -3 6t-20 4.5t-37 5.5q-7 1 -11 1.5t-11 1t-13 1.5l-57 7v12h436l-8 -12l-59 -7q-71 -8 -74 -22l-66 -320l86 17v-11q-230 -88 -405 -88z" />
    <glyph glyph-name="h.smallcap" horiz-adv-x="1105" 
d="M-37 0l6 12l58 6q73 8 77 23l189 881q1 4 -1 6t-12.5 4.5t-25.5 4.5t-47 5l-37 4l-2 12h420l-6 -12l-62 -6q-77 -8 -80 -22l-86 -418h469l90 422q1 4 -1 6t-11.5 4.5t-25 4.5t-46.5 5l-43 4l-2 12h422l-8 -12l-59 -6q-73 -8 -76 -22l-186 -881q-1 -4 1 -6.5t10.5 -5
t24.5 -4.5t45 -5l39 -4l2 -12h-419l8 12l61 6q74 8 78 23l92 436h-471l-94 -440q-1 -4 1 -6.5t11 -5t25.5 -4.5t46.5 -5l43 -4l2 -12h-420z" />
    <glyph glyph-name="i.smallcap" horiz-adv-x="516" 
d="M-27 0l9 12l61 6q74 8 78 23l188 881q1 4 -1 6t-12 4.5t-25 4.5t-46 5l-45 4l-2 12h428l-8 -12l-61 -6q-77 -8 -80 -22l-187 -881q-1 -4 1.5 -6.5t11.5 -5t25 -4.5t46 -5l43 -4l2 -12h-426z" />
    <glyph glyph-name="j.smallcap" horiz-adv-x="491" 
d="M-98 -262q-61 0 -94 26.5t-33 67.5q0 37 27 64.5t65 27.5q44 0 68.5 -30t15.5 -70t-49 -64q65 -15 120 55.5t84 209.5l191 897q1 4 -1 6.5t-11 5t-26 4.5t-46 4l-45 4v12h424l-8 -12l-62 -6q-75 -8 -78 -22l-196 -928q-7 -36 -62 -95t-136.5 -108t-147.5 -49z" />
    <glyph glyph-name="j.smallcap.alt" horiz-adv-x="706" 
d="M203 -20q-104 0 -163.5 45.5t-59.5 101.5q0 43 28.5 72.5t69.5 29.5q34 0 58 -23.5t24 -53.5q0 -31 -19.5 -56t-64.5 -30q12 -31 48 -49.5t81 -18.5q69 0 108 47t62 160l151 717q1 4 -1 6.5t-11 5t-26 4.5t-46 4l-57 4l-4 12h455l-7 -12l-73 -6q-76 -6 -80 -22l-160 -760
q-12 -54 -111 -116t-202 -62z" />
    <glyph glyph-name="k.smallcap" horiz-adv-x="1030" 
d="M-37 0l6 12l62 6q69 8 73 23l189 881q1 4 -1 6.5t-10.5 5t-24.5 4.5t-44 4l-43 4l-2 12h430l-8 -12l-70 -6q-76 -6 -80 -22l-106 -500l299 248q205 171 233 222q19 35 -23 46q-18 5 -59 8l-53 4v12h385l-8 -12l-27 -2q-30 -2 -50.5 -7.5t-39 -13.5t-51.5 -33t-62.5 -49.5
t-99 -81t-137.5 -110.5l-25 -18l189 -488q33 -86 52 -106t67 -23l41 -2v-12h-416l6 12l37 2q56 3 63.5 36t-24.5 116l-135 360l-166 -139l-76 -350q-1 -3 0 -5t3.5 -4t8.5 -3.5t15.5 -3t23.5 -3t33 -2.5l51 -4l4 -12h-430z" />
    <glyph glyph-name="l.smallcap" horiz-adv-x="854" 
d="M-37 0l6 12l62 6q69 8 73 23l189 881q1 4 -1 6.5t-10.5 5t-24.5 4.5t-44 4l-43 4l-2 12h448l-8 -12l-88 -6q-76 -6 -80 -22l-188 -895l162 -7q53 0 97.5 13.5t77.5 34.5t67 60t59 77t61 98l12 20l13 -2l-105 -317h-733z" />
    <glyph glyph-name="m.smallcap" horiz-adv-x="1259" 
d="M-43 0l6 12l35 2q66 4 93 18.5t32 39.5l201 837q-25 32 -93 35l-43 2l-2 12h295l121 -755h2l465 755h285l-8 -12l-58 -6q-75 -8 -78 -22l-186 -881q-1 -4 1 -6.5t11 -5t25.5 -4.5t46.5 -5l39 -4l2 -12h-424l8 12l66 6q71 5 75 23l181 848h-2l-549 -889h-17l-141 848
q-6 39 -8 39l-191 -821q-11 -42 134 -52l26 -2l2 -12h-352z" />
    <glyph glyph-name="n.smallcap" horiz-adv-x="1040" 
d="M795 -8l-467 852h-2l-164 -776q-11 -46 114 -54l31 -2v-12h-327l8 12l28 2q114 9 123 58l172 790q-47 71 -135 80l-16 2l-2 14h288l392 -731h2l141 664q3 20 -22.5 33.5t-92.5 19.5l-28 2l-2 12h327l-8 -12l-29 -2q-116 -9 -125 -57l-192 -895h-14z" />
    <glyph glyph-name="o.smallcap" horiz-adv-x="1110" 
d="M553 -20q-211 0 -340 133t-129 329q0 100 40 196.5t109 171.5t172 121t220 46q208 0 337.5 -135.5t129.5 -331.5q0 -143 -71.5 -265t-195.5 -193.5t-272 -71.5zM539 -4q111 0 203.5 87.5t143 226t50.5 292.5q0 158 -81 257t-218 99q-89 0 -165.5 -56t-126.5 -145
t-78.5 -196.5t-28.5 -214.5q0 -156 81 -253t220 -97z" />
    <glyph glyph-name="p.smallcap" horiz-adv-x="874" 
d="M-55 0l8 12l74 6q73 5 77 23l189 881q1 4 -1 6.5t-11 5t-26.5 4.5t-47.5 4l-55 4l-2 12h438q156 0 244 -64.5t88 -162.5q0 -117 -104 -195.5t-269 -78.5q-91 0 -199 24l-94 -444q-1 -6 3.5 -9.5t24 -6.5t56.5 -5l72 -4l2 -12h-467zM512 477q112 0 180 85t68 204
q0 79 -46 125t-136 47h-132l-92 -432q73 -29 158 -29z" />
    <glyph glyph-name="q.smallcap" horiz-adv-x="1110" 
d="M891 -279q-385 0 -442 267q-167 33 -266 159t-99 295q0 100 40 196.5t109 171.5t172 121t220 46q208 0 337.5 -135.5t129.5 -331.5q0 -199 -132 -348.5t-331 -177.5q34 -142 122 -192t261 -48v-12q-49 -11 -121 -11zM539 -4q111 0 203.5 87.5t143 226t50.5 292.5
q0 158 -81 257t-218 99q-89 0 -165.5 -56t-126.5 -145t-78.5 -196.5t-28.5 -214.5q0 -156 81 -253t220 -97z" />
    <glyph glyph-name="r.smallcap" horiz-adv-x="962" 
d="M-55 0l8 12l74 6q28 3 52 10t25 13l189 881q1 4 -1 6.5t-11 5t-26.5 4.5t-47.5 4l-55 4l-2 12h423q150 0 242 -63.5t92 -165.5q0 -104 -88 -171.5t-219 -72.5l143 -333q32 -77 60.5 -103.5t85.5 -34.5l18 -2l4 -12h-276l-189 489q-35 8 -86 35l-106 -487q-3 -13 84 -21
l59 -4v-12h-452zM510 510q106 0 174 70t68 182q0 80 -53.5 129t-147.5 49h-105l-84 -397q76 -33 148 -33z" />
    <glyph glyph-name="s.smallcap" horiz-adv-x="753" 
d="M344 -20q-96 0 -184.5 27t-143.5 63l35 229l8 -2l25 -94q26 -100 91.5 -152.5t162.5 -52.5q100 0 164.5 62.5t64.5 156.5q0 69 -45 118.5t-147 108.5t-159.5 122.5t-57.5 146.5q0 109 84.5 187.5t218.5 78.5q117 0 229 -61l70 14l-43 -248h-8l-70 207q-66 70 -164 70
q-85 0 -139.5 -51.5t-54.5 -127.5q0 -64 45.5 -112t138.5 -101q111 -63 171 -129.5t60 -156.5q0 -121 -97.5 -212t-254.5 -91z" />
    <glyph glyph-name="t.smallcap" horiz-adv-x="993" 
d="M201 0l8 12l76 6q73 5 77 23l191 901h-92q-160 -12 -299 -235l-12 -21h-13l88 272h815l-32 -272h-9l-4 21q-24 119 -71.5 175.5t-137.5 59.5h-84l-192 -905q-1 -3 0 -5t3.5 -4t8.5 -3.5t15.5 -3t23.5 -3t33 -2.5l57 -4v-12h-450z" />
    <glyph glyph-name="u.smallcap" horiz-adv-x="1032" 
d="M532 -25q-174 0 -277 66.5t-103 194.5q0 55 16 133q119 551 119 553q0 6 -4.5 8.5t-22.5 5.5t-57 6l-58 4v12h451l-8 -12l-76 -6q-72 -5 -76 -22l-117 -545q-14 -82 -14 -123q0 -221 275 -221q117 0 187.5 74t102.5 229l119 559q10 42 -121 53l-28 2l-2 12h331l-6 -12
l-30 -2q-112 -9 -121 -57l-121 -561q-38 -176 -123 -263.5t-236 -87.5z" />
    <glyph glyph-name="v.smallcap" horiz-adv-x="978" 
d="M414 -18l-140 798q-21 112 -31 132q-14 26 -51 30q-9 1 -20 2l-43 2l-2 12h424l-8 -12l-51 -2q-60 -3 -74 -21t-4 -81l110 -652h4l310 539q70 123 79 148q14 42 -19 55q-23 9 -79 12l-39 2l-2 12h334l-6 -12l-25 -2q-33 -3 -51.5 -8.5t-39.5 -21.5t-42.5 -47t-52 -81.5
t-75.5 -127.5q-9 -15 -13 -23l-379 -653h-14z" />
    <glyph glyph-name="w.smallcap" horiz-adv-x="1503" 
d="M412 -23l-140 803q-20 109 -35 135t-69 29l-43 2v12h424l-6 -12l-49 -2q-57 -3 -75 -20t-9 -72l112 -668h4l310 523l-15 73q-21 107 -33 129q-16 31 -63 35h-6l-43 2l-2 12h426l-8 -12l-50 -2q-57 -3 -73.5 -21t-7.5 -75l100 -664h2l307 545q29 52 43 77.5t24.5 53.5
t8.5 39.5t-14 23t-34.5 15t-60.5 6.5l-32 2v12h333l-6 -12l-24 -2q-26 -2 -42 -5.5t-35 -16t-31 -25t-35 -47t-41.5 -66.5t-55.5 -98l-399 -709h-17l-110 697h-2l-414 -697h-14z" />
    <glyph glyph-name="x.smallcap" horiz-adv-x="987" 
d="M-82 0l6 12l39 2q22 1 40 5t32.5 8t34.5 19t33 25.5t42.5 41t48 51t62.5 69.5l203 226l-142 321q-50 109 -67 131q-24 32 -64 33l-43 2l-2 12h414l-6 -12l-47 -2q-53 -2 -61 -26.5t26 -104.5l106 -248h2l152 176q105 118 119 151t-26 44q-21 5 -68 8l-33 2l-2 12h362
l-8 -12l-33 -2q-74 -4 -120 -38t-175 -177l-161 -182l186 -416q31 -72 49.5 -94t59.5 -23l36 -2l5 -12h-412l6 12l49 2q52 3 64 22t-9 62l-149 342h-2l-193 -217q-104 -119 -117 -153q-14 -36 29 -47q21 -6 62 -9l33 -2l2 -12h-363z" />
    <glyph glyph-name="y.smallcap" horiz-adv-x="956" 
d="M182 0l8 12l74 6q74 6 78 23l84 395l-137 383q-24 72 -46 97t-71 28l-39 2l-2 12h426l-8 -12l-39 -2q-64 -4 -77.5 -26.5t7.5 -77.5l129 -367h4l185 252q93 128 105 160q14 36 -21 47q-19 6 -68 10l-37 4l-2 12h344l-8 -12l-39 -4q-58 -4 -103.5 -44.5t-148.5 -178.5
l-202 -270l-86 -412q-1 -3 0 -5.5t5.5 -4.5t14 -4t25 -3.5t38.5 -3.5l56 -4l2 -12h-451z" />
    <glyph glyph-name="z.smallcap" horiz-adv-x="884" 
d="M-23 0l3 8l784 930l2 2h-209q-75 1 -135 -17t-104 -54.5t-75 -78.5t-61 -100l-10 -18h-8l65 286h723l-2 -10l-786 -928l-2 -2h225q84 -1 148 16t113.5 56.5t85.5 89.5t75 127l12 23h13l-101 -330h-756z" />
    <glyph glyph-name="fi.smallcap" horiz-adv-x="1368" 
d="M827 0l9 12l61 6q74 8 78 23l186 881q1 4 -1 6t-11.5 4.5t-25 4.5t-46.5 5l-43 4l-2 12h426l-8 -12l-61 -6q-77 -8 -80 -22l-187 -881q-1 -4 1.5 -6.5t11.5 -5t25 -4.5t46 -5l43 -4l2 -12h-424zM-39 0l8 12l62 6q69 8 73 23l189 881q1 4 -1 6.5t-10.5 5t-24.5 4.5t-44 4
l-45 4l-2 12h706l7 -292l-15 -2l-6 20q-16 52 -26 81t-26.5 63.5t-34 52t-44 33.5t-61.5 21.5t-82 4.5h-138l-94 -444l92 4q103 3 147 29.5t75 99.5l10 22l14 -2l-72 -330h-10v23q0 84 -31.5 108t-146.5 27l-82 2l-92 -442q-1 -6 3.5 -9.5t23.5 -6.5t55 -5l72 -4l2 -12h-451
z" />
    <glyph glyph-name="fl.smallcap" horiz-adv-x="1705" 
d="M815 0l8 12l60 6q69 8 73 23l189 881q1 4 -1 6.5t-10 5t-24 4.5t-45 4l-43 4l-2 12h448l-8 -12l-88 -6q-76 -6 -80 -22l-188 -895l162 -7q53 0 97.5 13.5t77.5 34.5t67 60t59 77t61 98l12 20l13 -2l-105 -317h-733zM-39 0l8 12l62 6q69 8 73 23l189 881q1 4 -1 6.5
t-10.5 5t-24.5 4.5t-44 4l-45 4l-2 12h706l7 -292l-15 -2l-6 20q-16 52 -26 81t-26.5 63.5t-34 52t-44 33.5t-61.5 21.5t-82 4.5h-138l-94 -444l92 4q103 3 147 29.5t75 99.5l10 22l14 -2l-72 -330h-10v23q0 84 -31.5 108t-146.5 27l-82 2l-92 -442q-1 -6 3.5 -9.5
t23.5 -6.5t55 -5l72 -4l2 -12h-451z" />
    <glyph glyph-name="ff.smallcap" horiz-adv-x="1703" 
d="M813 0l8 12l62 6q69 8 73 23l189 881q1 4 -1 6.5t-10 5t-24 4.5t-45 4l-45 4l-2 12h706l7 -292h-15l-6 20q-16 52 -26 81t-26.5 63t-34 51.5t-44 33.5t-61.5 21.5t-82 5.5l-138 -2l-94 -442l92 2q103 4 147 30t75 99l10 22l14 -2l-72 -327h-10v22q0 84 -31.5 108
t-146.5 27l-82 2l-92 -444q-1 -6 3.5 -9.5t23.5 -6.5t55 -5l72 -4l2 -12h-451zM-39 0l8 12l62 6q69 8 73 23l189 881q1 4 -1 6.5t-10 5t-24 4.5t-45 4l-45 4l-2 12h706l7 -292h-15l-6 20q-16 52 -26 81t-26.5 63t-34 51.5t-44 33.5t-61.5 21.5t-82 5.5l-138 -2l-94 -442
l92 2q103 4 147 30t75 99l10 22l14 -2l-72 -327h-10v22q0 84 -31.5 108t-146.5 27l-82 2l-92 -444q-1 -6 3.5 -9.5t23.5 -6.5t55 -5l72 -4l2 -12h-451z" />
    <glyph glyph-name="ffi.smallcap" horiz-adv-x="2220" 
d="M813 0l8 12l62 6q69 8 73 23l189 881q1 4 -1 6.5t-10 5t-24 4.5t-45 4l-45 4l-2 12h706l7 -292h-15l-6 20q-16 52 -26 81t-26.5 63t-34 51.5t-44 33.5t-61.5 21.5t-82 5.5l-138 -2l-94 -442l92 2q103 4 147 30t75 99l10 22l14 -2l-72 -327h-10v22q0 84 -31.5 108
t-146.5 27l-82 2l-92 -444q-1 -6 3.5 -9.5t23.5 -6.5t55 -5l72 -4l2 -12h-451zM1679 0l9 12l61 6q74 8 78 23l186 881q1 4 -1 6.5t-11 5t-26 4.5t-46 4l-43 4l-2 12h426l-8 -12l-61 -6q-77 -8 -80 -22l-187 -881q-1 -4 1.5 -6.5t11.5 -5t25 -4.5t46 -5l43 -4l2 -12h-424z
M-39 0l8 12l62 6q69 8 73 23l189 881q1 4 -1 6.5t-10 5t-24 4.5t-45 4l-45 4l-2 12h706l7 -292h-15l-6 20q-16 52 -26 81t-26.5 63t-34 51.5t-44 33.5t-61.5 21.5t-82 5.5l-138 -2l-94 -442l92 2q103 4 147 30t75 99l10 22l14 -2l-72 -327h-10v22q0 84 -31.5 108t-146.5 27
l-82 2l-92 -444q-1 -6 3.5 -9.5t23.5 -6.5t55 -5l72 -4l2 -12h-451z" />
    <glyph glyph-name="ffl.smallcap" horiz-adv-x="2557" 
d="M1667 0l8 12l60 6q70 8 73 25l189 879q1 4 -1 6.5t-10 5t-24 4.5t-45 4l-43 4l-2 12h448l-8 -12l-88 -6q-76 -6 -80 -22l-188 -895l162 -5q53 -1 97.5 12.5t77.5 34.5t67 60.5t59 76.5t61 97l12 20l13 -2l-105 -317h-733zM813 0l8 12l62 6q69 8 73 23l189 881q1 4 -1 6.5
t-10 5t-24 4.5t-45 4l-45 4l-2 12h706l7 -292h-15l-6 20q-16 52 -26 81t-26.5 63t-34 51.5t-44 33.5t-61.5 21.5t-82 5.5l-138 -2l-94 -442l92 2q103 4 147 30t75 99l10 22l14 -2l-72 -327h-10v22q0 84 -31.5 108t-146.5 27l-82 2l-92 -444q-1 -6 3.5 -9.5t23.5 -6.5t55 -5
l72 -4l2 -12h-451zM-39 0l8 12l62 6q69 8 73 23l189 881q1 4 -1 6.5t-10 5t-24 4.5t-45 4l-45 4l-2 12h706l7 -292h-15l-6 20q-16 52 -26 81t-26.5 63t-34 51.5t-44 33.5t-61.5 21.5t-82 5.5l-138 -2l-94 -442l92 2q103 4 147 30t75 99l10 22l14 -2l-72 -327h-10v22
q0 84 -31.5 108t-146.5 27l-82 2l-92 -444q-1 -6 3.5 -9.5t23.5 -6.5t55 -5l72 -4l2 -12h-451z" />
    <glyph glyph-name="germandbls.smallcap" horiz-adv-x="1507" 
d="M1098 -20q-96 0 -184.5 27t-143.5 63l35 229l8 -2l25 -94q26 -100 91.5 -152.5t162.5 -52.5q100 0 164.5 62.5t64.5 156.5q0 69 -45.5 118.5t-147.5 108.5t-159.5 122.5t-57.5 146.5q0 109 84.5 187.5t218.5 78.5q118 0 230 -61l69 14l-43 -248h-8l-69 207
q-66 70 -164 70q-85 0 -140 -51.5t-55 -127.5q0 -64 46 -112t139 -101q111 -63 171 -129.5t60 -156.5q0 -121 -97.5 -212t-254.5 -91zM344 -20q-96 0 -184.5 27t-143.5 63l35 229l8 -2l25 -94q26 -100 91.5 -152.5t162.5 -52.5q100 0 164.5 62.5t64.5 156.5q0 69 -45 118.5
t-147 108.5t-159.5 122.5t-57.5 146.5q0 109 84.5 187.5t218.5 78.5q117 0 229 -61l70 14l-43 -248h-8l-70 207q-66 70 -164 70q-85 0 -139.5 -51.5t-54.5 -127.5q0 -64 45.5 -112t138.5 -101q111 -63 171 -129.5t60 -156.5q0 -121 -97.5 -212t-254.5 -91z" />
    <glyph glyph-name="agrave.smallcap" horiz-adv-x="950" 
d="M555 414h-260l-102 -183q-70 -124 -78 -148q-15 -43 17 -57q22 -9 83 -12l39 -2l2 -12h-336l6 12l27 2q73 6 111 50t159 260l289 512l-6 57q66 16 117 86h18l84 -797q10 -101 31.5 -132t74.5 -34l46 -4l2 -12h-430l10 12l43 2q51 3 67.5 30t10.5 89zM305 434h246
q1 0 -7.5 93t-17.5 187l-8 93h-4zM664 1067l-283 383h147l150 -383h-14z" />
    <glyph glyph-name="aacute.smallcap" horiz-adv-x="950" 
d="M555 414h-260l-102 -183q-70 -124 -78 -148q-15 -43 17 -57q22 -9 83 -12l39 -2l2 -12h-336l6 12l27 2q73 6 111 50t159 260l289 512l-6 57q66 16 117 86h18l84 -797q10 -101 31.5 -132t74.5 -34l46 -4l2 -12h-430l10 12l43 2q51 3 67.5 30t10.5 89zM305 434h246
q1 0 -7.5 93t-17.5 187l-8 93h-4zM563 1067l291 383h166l-445 -383h-12z" />
    <glyph glyph-name="acircumflex.smallcap" horiz-adv-x="950" 
d="M555 414h-260l-102 -183q-70 -124 -78 -148q-15 -43 17 -57q22 -9 83 -12l39 -2l2 -12h-336l6 12l27 2q73 6 111 50t159 260l289 512l-6 57q66 16 117 86h18l84 -797q10 -101 31.5 -132t74.5 -34l46 -4l2 -12h-430l10 12l43 2q51 3 67.5 30t10.5 89zM305 434h246
q1 0 -7.5 93t-17.5 187l-8 93h-4zM387 1044l336 386h10l176 -386h-12l-190 232h-7l-303 -232h-10z" />
    <glyph glyph-name="atilde.smallcap" horiz-adv-x="950" 
d="M555 414h-260l-102 -183q-70 -124 -78 -148q-15 -43 17 -57q22 -9 83 -12l39 -2l2 -12h-336l6 12l27 2q73 6 111 50t159 260l289 512l-6 57q66 16 117 86h18l84 -797q10 -101 31.5 -132t74.5 -34l46 -4l2 -12h-430l10 12l43 2q51 3 67.5 30t10.5 89zM305 434h246
q1 0 -7.5 93t-17.5 187l-8 93h-4zM801 1079q-45 0 -107.5 30.5t-121 61.5t-91.5 31q-42 0 -68 -20.5t-40 -85.5h-13q27 109 62.5 155.5t99.5 46.5q44 0 106.5 -30.5t121 -61t92.5 -30.5q41 0 67.5 22t40.5 84h15q-29 -110 -64.5 -156.5t-99.5 -46.5z" />
    <glyph glyph-name="adieresis.smallcap" horiz-adv-x="950" 
d="M555 414h-260l-102 -183q-70 -124 -78 -148q-15 -43 17 -57q22 -9 83 -12l39 -2l2 -12h-336l6 12l27 2q73 6 111 50t159 260l289 512l-6 57q66 16 117 86h18l84 -797q10 -101 31.5 -132t74.5 -34l46 -4l2 -12h-430l10 12l43 2q51 3 67.5 30t10.5 89zM305 434h246
q1 0 -7.5 93t-17.5 187l-8 93h-4zM825 1104q-42 0 -66 30.5t-24 61.5q0 34 23.5 66t66.5 32t68 -32.5t25 -65.5q0 -31 -25 -61.5t-68 -30.5zM498 1104q-43 0 -67.5 30t-24.5 62q0 33 24.5 65.5t67.5 32.5t66.5 -32t23.5 -66q0 -31 -24 -61.5t-66 -30.5z" />
    <glyph glyph-name="aring.smallcap" horiz-adv-x="950" 
d="M555 414h-260l-102 -183q-70 -124 -78 -148q-15 -43 17 -57q22 -9 83 -12l39 -2l2 -12h-336l6 12l27 2q28 2 44 5t36.5 17.5t34 29.5t39.5 55.5t49 81.5t67 121l350 622q-59 17 -93 65.5t-34 112.5q0 76 50.5 130.5t132.5 54.5t132 -54t50 -131q0 -74 -45 -126t-121 -56
l80 -760q10 -101 31.5 -132t74.5 -34l46 -4l2 -12h-430l10 12l43 2q51 3 67.5 30t10.5 89zM629 958q73 0 117.5 48t44.5 118q0 69 -44.5 117.5t-117.5 48.5t-117.5 -48.5t-44.5 -117.5q0 -70 44.5 -118t117.5 -48zM305 434h246q1 0 -7.5 93t-17.5 187l-8 93h-4z" />
    <glyph glyph-name="aringacute.smallcap" horiz-adv-x="950" 
d="M473 1311l291 383h166l-445 -383h-12zM555 414h-260l-102 -183q-70 -124 -78 -148q-15 -43 17 -57q22 -9 83 -12l39 -2l2 -12h-336l6 12l27 2q28 2 44 5t36.5 17.5t34 29.5t39.5 55.5t49 81.5t67 121l350 622q-59 17 -93 65.5t-34 112.5q0 76 50.5 130.5t132.5 54.5
t132 -54t50 -131q0 -74 -45 -126t-121 -56l80 -760q10 -101 31.5 -132t74.5 -34l46 -4l2 -12h-430l10 12l43 2q51 3 67.5 30t10.5 89zM629 958q73 0 117.5 48t44.5 118q0 69 -44.5 117.5t-117.5 48.5t-117.5 -48.5t-44.5 -117.5q0 -70 44.5 -118t117.5 -48zM305 434h246
q1 0 -7.5 93t-17.5 187l-8 93h-4z" />
    <glyph glyph-name="amacron.smallcap" horiz-adv-x="950" 
d="M555 414h-260l-102 -183q-70 -124 -78 -148q-15 -43 17 -57q22 -9 83 -12l39 -2l2 -12h-336l6 12l27 2q73 6 111 50t159 260l289 512l-6 57q66 16 117 86h18l84 -797q10 -101 31.5 -132t74.5 -34l46 -4l2 -12h-430l10 12l43 2q51 3 67.5 30t10.5 89zM305 434h246
q1 0 -7.5 93t-17.5 187l-8 93h-4zM352 1067l25 51h510l-23 -51h-512z" />
    <glyph glyph-name="abreve.smallcap" horiz-adv-x="950" 
d="M555 414h-260l-102 -183q-70 -124 -78 -148q-15 -43 17 -57q22 -9 83 -12l39 -2l2 -12h-336l6 12l27 2q73 6 111 50t159 260l289 512l-6 57q66 16 117 86h18l84 -797q10 -101 31.5 -132t74.5 -34l46 -4l2 -12h-430l10 12l43 2q51 3 67.5 30t10.5 89zM305 434h246
q1 0 -7.5 93t-17.5 187l-8 93h-4zM580 1006q-47 0 -81 20t-53 49.5t-30.5 76.5t-14.5 88t-4 97h13q22 -118 64 -176.5t122 -58.5t147.5 59t135.5 176h12q-66 -147 -99 -198q-88 -132 -212 -133z" />
    <glyph glyph-name="aogonek.smallcap" horiz-adv-x="950" 
d="M664 -461q-66 0 -106 44.5t-40 111.5q0 64 48 126.5t112 104t141 74.5h-368l8 12l45 2q50 3 66.5 30t11.5 89l-27 281h-260l-102 -183q-69 -125 -77 -150q-14 -42 19 -55q22 -9 80 -12l39 -2l2 -12h-336l6 12l27 2q73 6 111 50t159 260l289 514l-6 57q62 12 117 84h18
l84 -797q10 -101 31.5 -132t74.5 -34l46 -4l2 -12q-107 -30 -180.5 -107t-73.5 -167q0 -57 27 -91t77 -34q28 0 52 9.5t34 17.5t37 30l4 -4q-93 -115 -192 -115zM307 434h246l-35 373h-2z" />
    <glyph glyph-name="ae.smallcap" horiz-adv-x="1310" 
d="M598 414h-266l-131 -164q-110 -140 -122 -158q-31 -48 -9 -62q16 -12 80 -16l34 -2l6 -12h-335l4 12l41 2q69 6 111.5 43.5t176.5 204.5l496 621q32 36 1 49q-22 10 -81 12l-59 2v12h719l16 -288h-12l-6 20q-22 73 -42.5 117t-51.5 77t-74 45t-107 11h-125l-92 -436l90 4
q104 4 147.5 29.5t75.5 99.5l13 25l10 -3l-70 -331h-12l2 24q10 81 -24.5 104t-155.5 29l-80 4l-100 -464l196 -7q39 0 75 8t63.5 19t57 33t49 40t46 51t41.5 54t43 60l14 20l13 -2l-115 -301h-784l8 14l69 6q75 6 78 23zM348 434h254l92 434z" />
    <glyph glyph-name="aeacute.smallcap" horiz-adv-x="1310" 
d="M856 1016l291 383h166l-445 -383h-12zM598 414h-266l-131 -164q-110 -140 -122 -158q-31 -48 -9 -62q16 -12 80 -16l34 -2l6 -12h-335l4 12l41 2q69 6 111.5 43.5t176.5 204.5l496 621q32 36 1 49q-22 10 -81 12l-59 2v12h719l16 -288h-12l-6 20q-22 73 -42.5 117
t-51.5 77t-74 45t-107 11h-125l-92 -436l90 4q104 4 147.5 29.5t75.5 99.5l13 25l10 -3l-70 -331h-12l2 24q10 81 -24.5 104t-155.5 29l-80 4l-100 -464l196 -7q39 0 75 8t63.5 19t57 33t49 40t46 51t41.5 54t43 60l14 20l13 -2l-115 -301h-784l8 14l69 6q75 6 78 23z
M348 434h254l92 434z" />
    </font>
</defs>
</svg>
