<?xml version="1.0" standalone="no"?>
<!DOCTYPE svg PUBLIC "-//W3C//DTD SVG 1.1//EN" "http://www.w3.org/Graphics/SVG/1.1/DTD/svg11.dtd" >
<svg xmlns="http://www.w3.org/2000/svg" xmlns:xlink="http://www.w3.org/1999/xlink" version="1.1">
<metadata>
Created by FontForge 20170731 at Wed Mar 31 15:15:22 2021
 By Aleksey,,,
Copyright (c) 2005-2009, Joshua Darden &#38; Phil's Fonts, Inc. All rights reserved. Published by Garagefonts USA 301-879-9222 www.garagefonts.com
</metadata>
<defs>
<font id="FreightBigPro-BoldItalic" horiz-adv-x="1536" >
  <font-face 
    font-family="Freight Big Pro"
    font-weight="700"
    font-style="italic"
    font-stretch="normal"
    units-per-em="2048"
    panose-1="2 0 8 3 2 0 0 9 0 4"
    ascent="1638"
    descent="-410"
    x-height="905"
    cap-height="1280"
    bbox="-487 -602 2710 2005"
    underline-thickness="40"
    underline-position="-312"
    slope="-12"
    unicode-range="U+0020-FB04"
  />
<missing-glyph horiz-adv-x="1024" 
 />
    <glyph glyph-name="ff" unicode="ff" horiz-adv-x="1097" 
d="M930 1233l16 18q102 105 266 105q95 0 152 -43.5t57 -110.5q0 -51 -36 -85t-85 -34q-45 0 -75 25t-36.5 59t13 73t64.5 65q-41 32 -74 32q-40 0 -72.5 -33t-59.5 -98.5t-47 -141t-42 -183.5l211 -2l-33 -95h-199l-112 -489q-44 -187 -95 -307.5t-127 -196.5
q-98 -98 -251 -98q-77 0 -131 32.5t-64 84.5q-31 -45 -66 -80q-99 -99 -239 -99q-85 0 -139 39.5t-54 102.5q0 45 34 80.5t89 35.5q45 0 79 -32.5t36 -79.5t-43 -99q18 -24 45 -24q42 0 75.5 54t70.5 186.5t89 384.5l101 501l-182 4l43 95l165 2q59 211 177 329
q108 105 288 105q132 0 191 -82zM242 -55q18 6 41 6q45 0 77.5 -32.5t33.5 -79.5t-44 -99q35 -25 60 -25q47 0 81.5 51.5t72 181.5t89.5 382l88 454h-282l-125 -551q-44 -182 -92 -288zM819 1034q-50 11 -73.5 51.5t-7 87.5t72.5 74q-4 5 -12 13t-30.5 21t-43.5 13
q-87 0 -145.5 -103.5t-100.5 -309.5h289q15 61 51 153z" />
    <glyph glyph-name="fi" unicode="fi" horiz-adv-x="1036" 
d="M-135 -369q-85 0 -139 39.5t-54 102.5q0 45 34 80.5t89 35.5q45 0 79 -32.5t36 -79.5t-43 -99q18 -24 45 -24q42 0 75.5 54t70.5 186.5t89 384.5l101 501l-182 4l43 95l165 2q29 106 79 206t106 156q113 113 307 113q102 0 167.5 -49.5t65.5 -118.5q0 -50 -32.5 -82.5
t-85.5 -32.5q-60 0 -92 40.5t-16.5 92.5t75.5 82q-49 49 -96 49q-98 0 -160.5 -112t-110.5 -344l256 -2q42 28 78 28q41 0 104.5 -49.5t63.5 -95.5q0 -31 -52 -170t-117 -298.5t-71 -176.5l113 -13l141 213l11 -6q-75 -152 -161 -245t-140 -93q-33 0 -102.5 46t-69.5 77
q0 22 56.5 172t122 316t74.5 192l-2 8h-323l-127 -551q-42 -183 -94 -304.5t-129 -198.5q-99 -99 -248 -99z" />
    <glyph glyph-name="fl" unicode="fl" horiz-adv-x="1056" 
d="M946 1298l209 60l-389 -1241l100 -13l140 213l12 -6q-75 -151 -160.5 -244.5t-138.5 -93.5q-35 0 -103.5 48.5t-60.5 78.5l297 977q-35 9 -56 35.5t-23 58t18 64.5t61 53q-1 2 -2.5 5.5t-8.5 11.5t-17.5 14.5t-30.5 12t-45 5.5q-98 0 -160 -112t-109 -344l221 -2l-32 -95
h-209l-125 -551q-44 -187 -94.5 -307t-126.5 -196q-99 -99 -248 -99q-85 0 -139 39.5t-54 102.5q0 45 34 80.5t89 35.5q45 0 79 -32.5t36 -79.5t-43 -99q18 -24 45 -24q42 0 75.5 54t70.5 186.5t89 384.5l101 501l-182 4l43 95l165 2q29 106 79 206t106 156q113 113 303 113
q112 0 184 -58z" />
    <glyph glyph-name="ffi" unicode="ffi" horiz-adv-x="1478" 
d="M928 1208l16 15q130 133 320 133q92 0 146 -45t54 -115q0 -35 -29 -64.5t-83 -29.5q-51 0 -79.5 33t-22 76t47.5 69q-1 2 -2.5 6t-8 13.5t-14.5 16.5t-21.5 13t-28.5 6q-194 0 -287 -454l252 -2q34 18 76 18q54 0 105.5 -42.5t51.5 -92.5q0 -33 -42 -143.5t-109 -274
t-99 -254.5l140 -16l127 202l8 -6q-65 -145 -139.5 -220t-124.5 -75q-37 0 -121 23.5t-84 40.5q0 20 49 151.5t121.5 319t105.5 281.5l-2 8h-329l-109 -463q-49 -209 -103 -338.5t-145 -220.5q-82 -84 -219 -84q-61 0 -105 35t-44 88q0 34 31 70t79 36q58 0 90 -61.5
t2 -124.5q-5 2 -6 0q0 -6 15 -12l18 -3q48 0 90 129.5t119 489.5q92 459 94 459h-293l-121 -525q-46 -199 -106.5 -332.5t-153.5 -226.5q-84 -84 -223 -84q-64 0 -114 34.5t-50 88.5q0 35 30.5 71t78.5 36q59 0 98.5 -62.5t9.5 -124.5q33 -14 49 -14q45 0 85 127t118 492
l105 520l-172 4l36 78l160 2q26 107 72 179.5t127 151.5q51 47 114.5 74t161.5 27q140 0 187 -107zM817 1049q1 0 2 1t2 1q-50 1 -76.5 34.5t-18.5 76t48 67.5q0 3 -0.5 7t-5 15t-11.5 19t-22 15t-35 7q-96 0 -152.5 -103.5t-96.5 -307.5l301 2q22 88 65 166z" />
    <glyph glyph-name="ffl" unicode="ffl" horiz-adv-x="1552" 
d="M1442 1296l211 62l-389 -1241l100 -13l139 213l13 -6q-76 -152 -162 -245t-140 -93q-20 0 -61.5 22.5t-73.5 53.5t-26 51l297 977q-36 9 -57 35.5t-23 58t18.5 64.5t61.5 53q-2 5 -7.5 13.5t-32.5 22t-67 13.5q-98 0 -158.5 -111t-109.5 -345l221 -2l-31 -95h-209
l-114 -489q-81 -355 -230 -504q-98 -98 -243 -98q-78 0 -132 33.5t-63 87.5q-40 -54 -70 -84q-99 -99 -239 -99q-85 0 -139 39.5t-54 102.5q0 45 34 80.5t89 35.5q45 0 79 -32.5t36 -79.5t-43 -99q18 -24 45 -24q42 0 75.5 54t70.5 186.5t89 384.5l101 501l-182 4l43 95
l165 2q59 211 177 329q108 105 288 105q70 0 121.5 -25.5t75.5 -68.5l20 22q110 113 301 113q118 0 185 -60zM242 -57q28 8 47 8q44 0 76.5 -32.5t33.5 -79.5t-43 -99q27 -25 52 -25q47 0 83 50.5t75.5 183.5t90.5 381l88 454h-286l-125 -551q-40 -169 -92 -290zM825 1034
q-39 6 -63.5 32t-28.5 58.5t15.5 67t62.5 55.5q-4 5 -12 13t-30.5 21t-43.5 13q-87 0 -145.5 -103.5t-100.5 -309.5h293q19 66 53 153z" />
    <glyph glyph-name=".notdef" horiz-adv-x="1024" 
 />
    <glyph glyph-name=".null" horiz-adv-x="0" 
 />
    <glyph glyph-name="nonmarkingreturn" horiz-adv-x="682" 
 />
    <glyph glyph-name="space" unicode=" " horiz-adv-x="368" 
 />
    <glyph glyph-name="exclam" unicode="!" horiz-adv-x="550" 
d="M274 403q-2 -9 -10 -7q-4 2 -4 7l43 789q4 136 158 117h4q46 -6 73 -20.5t33.5 -36.5t3.5 -43.5t-14 -49.5zM207 -25q-55 0 -95 40t-40 96q0 55 39 94t96 39q55 0 95 -40t40 -93q0 -55 -39.5 -95.5t-95.5 -40.5z" />
    <glyph glyph-name="quotedbl" unicode="&#x22;" horiz-adv-x="688" 
d="M434 825l316 496h4l127 -70l-422 -426h-25zM82 825l315 496h4l129 -70l-424 -426h-24z" />
    <glyph glyph-name="numbersign" unicode="#" horiz-adv-x="1011" 
d="M188 -10l107 405h-285v17h289l119 452h-285v17h289l108 413h23l-109 -413h334l109 413h22l-108 -413h282v-17h-286l-119 -452h283v-17h-287l-107 -405h-22l106 405h-334l-106 -405h-23zM322 412h333l119 452h-334z" />
    <glyph glyph-name="dollar" unicode="$" horiz-adv-x="1026" 
d="M209 8q-129 41 -201 90l41 322h8l52 -164q41 -132 124 -197l244 510h-2q-65 35 -115 69.5t-95 79.5t-69 99.5t-24 114.5q0 70 31.5 137.5t85.5 119.5t134.5 84t172.5 32q106 0 213 -39l119 250h24l-123 -256q53 -19 91 -39l106 22l-63 -348l-7 2l-116 299q-17 17 -29 25
l-203 -428q14 -9 19 -11q71 -37 123 -73t98.5 -83t71 -105t24.5 -124q0 -79 -35 -154.5t-96 -135.5t-153.5 -97t-198.5 -37q-107 0 -230 29l-161 -338h-25zM252 47q80 -53 199 -53q124 0 203 84t79 203q0 88 -60 150t-177 126zM793 1233q-82 49 -172 49q-101 0 -171.5 -67.5
t-70.5 -161.5q0 -76 54.5 -135.5t154.5 -114.5z" />
    <glyph glyph-name="percent" unicode="%" horiz-adv-x="1124" 
d="M397 791q-115 0 -184.5 75t-69.5 183q0 109 69.5 185.5t184.5 76.5q116 0 186 -76.5t70 -185.5q0 -108 -70 -183t-186 -75zM-8 -29l1196 1340h26l-1196 -1340h-26zM813 -27q-115 0 -184.5 74.5t-69.5 181.5q0 110 69.5 187.5t184.5 77.5q116 0 186 -77.5t70 -187.5
q0 -107 -70 -181.5t-186 -74.5zM397 811q104 0 168 68t64 170q0 101 -64.5 171t-167.5 70t-166 -70t-63 -171q0 -102 63 -170t166 -68zM813 -6q104 0 167.5 67.5t63.5 169.5q0 101 -64 171.5t-167 70.5t-166 -70t-63 -172t62.5 -169.5t166.5 -67.5z" />
    <glyph glyph-name="ampersand" unicode="&#x26;" 
d="M1309 803q87 -33 137.5 -105t50.5 -166q0 -154 -104 -283.5t-278.5 -203.5t-377.5 -74q-154 0 -282 38.5t-213 106t-132 159.5t-47 198q0 134 89 240.5t233 160.5q-23 58 -23 109q0 138 97 232.5t239 93.5q128 0 206 -102.5t59 -235.5l-21 4q6 87 -45 146t-141 59
q-79 0 -130 -64t-51 -151q0 -12 5 -52q14 2 47 2q99 0 160 -40t61 -103q0 -48 -44 -80.5t-112 -32.5q-89 0 -170 54t-125 137q-139 -74 -139 -246q0 -223 176.5 -347t487.5 -124q246 0 399.5 114.5t153.5 287.5q0 100 -64.5 170.5t-155.5 70.5q-68 0 -139.5 -66t-71.5 -124
q0 -63 45.5 -98t124.5 -35q-43 14 -55.5 59.5t13.5 86t81 40.5q41 0 69 -27.5t28 -70.5q0 -50 -36 -82.5t-97 -32.5q-105 0 -182 70t-77 182q0 54 23 98.5t60.5 73.5t85.5 56t98.5 46.5t98.5 44.5t85.5 50t60.5 63t23 84q0 58 -50 93.5t-126 35.5q30 -7 46.5 -40.5t15 -69.5
t-29 -65.5t-75.5 -29.5q-45 0 -75 30t-30 77q0 54 43.5 89.5t106.5 35.5q113 0 192.5 -81.5t79.5 -199.5q0 -89 -62.5 -146t-219.5 -120zM584 893q13 -69 58.5 -109.5t107.5 -40.5q23 0 40 15.5t17 34.5q0 42 -51.5 72t-128.5 30q-29 0 -43 -2z" />
    <glyph glyph-name="quotesingle" unicode="'" horiz-adv-x="342" 
d="M82 825l315 496h4l129 -70l-424 -426h-24z" />
    <glyph glyph-name="parenleft" unicode="(" horiz-adv-x="647" 
d="M424 -549q-61 44 -118.5 110.5t-111 160t-84.5 204t-39 243t25 275.5q30 139 93.5 266t139.5 220.5t166 171t172 126t158 77.5l11 -21q-77 -29 -157.5 -77.5t-168.5 -125t-161.5 -168.5t-134 -215.5t-89.5 -257.5q-32 -141 -24.5 -270.5t37 -237.5t80.5 -199t106.5 -156
t115.5 -107z" />
    <glyph glyph-name="parenright" unicode=")" horiz-adv-x="647" 
d="M-203 -549l-10 21q77 29 157.5 77.5t168.5 125t161.5 168.5t134 215.5t89.5 258.5q32 140 24.5 269.5t-37 237.5t-81 199t-107 156t-115.5 107l17 19q61 -44 118.5 -110.5t110.5 -160.5t84 -204.5t39 -242t-25 -274.5q-30 -139 -93.5 -266.5t-139.5 -221t-166.5 -171
t-172 -126t-157.5 -77.5z" />
    <glyph glyph-name="asterisk" unicode="*" horiz-adv-x="638" 
d="M494 625l-115 75l41 258q0 5 -5.5 8t-8.5 -1l-152 -205l-135 24q-4 4 -4 7l37 135l249 43q5 1 7 4t0.5 6t-5.5 4l-237 100l-10 138q0 4 8 4l139 -4l105 -234q2 -4 8 -3.5t6 5.5l18 262l127 49q1 1 4 -2l43 -124l-188 -187q-3 -3 -2 -6t3.5 -5t4.5 -1l252 69l88 -106
q3 -3 -2 -6l-106 -84l-232 125q-4 1 -8 -4t-2 -8l145 -222l-69 -112q-3 -3 -4 -2z" />
    <glyph glyph-name="plus" unicode="+" horiz-adv-x="886" 
d="M440 49v424h-417l4 25h413v415h25v-415h412l4 -25h-416v-424h-25z" />
    <glyph glyph-name="comma" unicode="," horiz-adv-x="405" 
d="M-78 -240l-4 9q111 39 176.5 104t65.5 143q0 64 -50 91t-110 -5q-19 55 19.5 114.5t117.5 59.5q76 0 119 -48.5t43 -118.5q0 -109 -109.5 -210.5t-267.5 -138.5z" />
    <glyph glyph-name="hyphen" unicode="-" horiz-adv-x="573" 
d="M39 438l24 82h490l-25 -82h-489z" />
    <glyph glyph-name="period" unicode="." horiz-adv-x="436" 
d="M150 -23q-57 0 -97.5 40.5t-40.5 97.5q0 54 40 94.5t95 40.5q56 0 97 -41t41 -94q0 -56 -40 -97t-95 -41z" />
    <glyph glyph-name="slash" unicode="/" horiz-adv-x="509" 
d="M33 -506l430 1796h20l-430 -1796h-20z" />
    <glyph glyph-name="zero" unicode="0" horiz-adv-x="1132" 
d="M535 -27q-205 0 -331 126.5t-126 326.5q0 159 72.5 293t197.5 211.5t273 77.5q202 0 329 -126.5t127 -326.5q0 -160 -72.5 -294t-197.5 -211t-272 -77zM496 -6q96 0 179 119t127 285.5t44 324.5q0 130 -49.5 197t-143.5 67q-95 0 -176.5 -118.5t-124.5 -287t-43 -331.5
q0 -256 187 -256z" />
    <glyph glyph-name="one" unicode="1" horiz-adv-x="718" 
d="M6 0l8 12l56 2q58 3 78.5 8.5t23.5 22.5l178 866l-184 37l6 10l436 39l-202 -956q-2 -6 3 -10t18.5 -7t34 -5.5t54.5 -4.5l43 -2l2 -12h-555z" />
    <glyph glyph-name="two" unicode="2" horiz-adv-x="962" 
d="M-47 0l2 55q201 128 316.5 209.5t191.5 153.5t102.5 126.5t26.5 119.5q0 97 -56.5 153.5t-154.5 56.5q-68 0 -122 -32.5t-107 -104.5l-13 8q175 263 400 263q131 0 213 -72.5t82 -177.5q0 -126 -109 -220t-422 -283q-76 -46 -117 -71v-6h521q55 0 215 256l14 23l12 -2
l-198 -455h-797z" />
    <glyph glyph-name="three" unicode="3" horiz-adv-x="880" 
d="M209 -408q-155 0 -246.5 45t-91.5 136q0 45 33 80.5t88 35.5q49 0 86.5 -35t43.5 -87.5t-32 -114.5q54 -37 123 -37q83 0 153 52t110 136.5t40 180.5q0 133 -78 211.5t-215 78.5q-65 0 -127 -18l-6 14q82 35 135 58.5t109 52t89.5 51t65 50t47.5 56t25.5 61.5t9.5 73
q0 85 -56.5 142.5t-145.5 57.5q-73 0 -142 -47.5t-110 -119.5l-15 10q72 131 179.5 211t234.5 80q129 0 211 -74t82 -180q0 -111 -90 -192t-299 -152v-5q1 0 5 -1t5 -1q148 -6 235 -105.5t87 -227.5q0 -90 -45.5 -177t-119.5 -152.5t-174 -106t-204 -40.5z" />
    <glyph glyph-name="four" unicode="4" horiz-adv-x="1030" 
d="M379 -377l80 387h-533l2 19l854 954h103l-174 -817l221 -2l-47 -154h-207l-82 -387h-217zM88 166h404l124 586h-6z" />
    <glyph glyph-name="five" unicode="5" horiz-adv-x="837" 
d="M115 -410q-135 9 -200 58.5t-62 120.5q3 52 40.5 89t90.5 36q52 -3 85.5 -42.5t34.5 -90.5t-26 -101q40 -40 106 -43q110 -6 197 89.5t94 240.5q9 150 -102 254t-326 139l262 633h539l-57 -215h-547l-84 -215q142 -21 248.5 -68.5t168 -112t90 -140t23.5 -159.5
q-5 -93 -54.5 -182t-127 -155t-181.5 -104t-212 -32z" />
    <glyph glyph-name="six" unicode="6" horiz-adv-x="1054" 
d="M496 -29q-102 0 -184 35.5t-134 97.5t-80 142t-28 172q0 128 47.5 254t143.5 238.5t229 197.5t317.5 133t394.5 43v-14q-141 -5 -267.5 -49t-224.5 -118t-173 -165.5t-127 -200.5l4 -2q142 82 272 82q148 0 231.5 -93t83.5 -243q0 -138 -67 -255t-183.5 -186t-254.5 -69z
M477 -8q76 0 141.5 74t101.5 185.5t36 225.5q0 126 -55 199.5t-160 73.5q-71 0 -144 -39q-96 -205 -96 -430q0 -289 176 -289z" />
    <glyph glyph-name="seven" unicode="7" horiz-adv-x="917" 
d="M78 -377l764 1143l-2 6h-330q-142 0 -216.5 -13.5t-118.5 -49.5t-73 -109l-10 -20l-16 2l133 393h768v-14l-698 -1338h-201z" />
    <glyph glyph-name="eight" unicode="8" horiz-adv-x="1019" 
d="M481 -33q-187 0 -317.5 99.5t-130.5 242.5q0 125 105.5 213t273.5 105l2 4q-213 143 -213 307q0 91 56 177t154.5 142t211.5 56q182 0 303 -89.5t121 -224.5q0 -79 -50 -140t-128 -95t-177 -47v-4q248 -159 248 -355q0 -153 -138 -272t-321 -119zM672 725q76 38 122 126
t46 189q0 107 -54 179.5t-149 72.5q-100 0 -161.5 -75t-61.5 -175q0 -88 64 -162.5t194 -154.5zM475 -10q109 0 182.5 78.5t73.5 181.5q0 98 -77 186t-218 178q-88 -37 -140 -127t-52 -211q0 -125 61 -205.5t170 -80.5z" />
    <glyph glyph-name="nine" unicode="9" horiz-adv-x="1054" 
d="M-125 -303v16q141 4 267.5 48t224.5 118t172.5 165.5t126.5 199.5h-2q-142 -82 -271 -82q-149 0 -233 93.5t-84 244.5q0 136 67.5 253.5t184 187t254.5 69.5q102 0 184 -36t134 -97.5t80 -141.5t28 -170q0 -107 -34 -214t-98.5 -205.5t-163.5 -182t-221.5 -144.5
t-281 -93.5t-334.5 -28.5zM539 229q64 0 141 41q96 218 96 430q0 287 -174 287q-76 0 -141 -74t-101 -185t-36 -224q0 -127 54.5 -201t160.5 -74z" />
    <glyph glyph-name="colon" unicode=":" horiz-adv-x="432" 
d="M279 584q-56 0 -97 41t-41 98q0 54 40 93.5t95 39.5q56 0 97 -40t41 -93q0 -56 -39.5 -97.5t-95.5 -41.5zM150 -23q-57 0 -97.5 40t-40.5 96q0 54 40 93.5t95 39.5q56 0 97 -40t41 -93q0 -54 -40 -95t-95 -41z" />
    <glyph glyph-name="semicolon" unicode=";" horiz-adv-x="405" 
d="M268 584q-57 0 -97 40.5t-40 96.5q0 55 39.5 95t95.5 40q55 0 95 -41t40 -94q0 -56 -39 -96.5t-94 -40.5zM-78 -238l-4 9q112 39 177 103t65 142q0 64 -50 90.5t-110 -4.5q-19 53 19.5 113.5t117.5 60.5q76 0 119 -49t43 -118q0 -109 -109.5 -209.5t-267.5 -137.5z" />
    <glyph glyph-name="less" unicode="&#x3c;" horiz-adv-x="860" 
d="M834 68l-816 403v23l816 401l10 -23l-793 -387v-4l793 -391z" />
    <glyph glyph-name="equal" unicode="=" horiz-adv-x="876" 
d="M45 647l-6 25h815l-6 -25h-803zM39 293l6 24h803l6 -24h-815z" />
    <glyph glyph-name="greater" unicode="&#x3e;" horiz-adv-x="860" 
d="M43 68l-10 22l792 391v4l-792 387l10 23l815 -401v-23z" />
    <glyph glyph-name="question" unicode="?" horiz-adv-x="657" 
d="M307 375q-62 55 -100.5 120.5t-38.5 118.5q0 73 66 115.5t208 71.5q137 29 183.5 57t46.5 76q0 69 -93 123.5t-255 54.5q-43 0 -97 -8q-30 33 -30 76q0 133 135 133q84 0 154 -33t114 -87.5t68 -121.5t24 -139q0 -135 -50 -209t-171 -107q-138 -32 -179.5 -55t-41.5 -67
q0 -47 69 -113zM244 -25q-55 0 -95 40t-40 96q0 55 39.5 94t95.5 39q55 0 95 -40t40 -93q0 -55 -39.5 -95.5t-95.5 -40.5z" />
    <glyph glyph-name="at" unicode="@" horiz-adv-x="1572" 
d="M827 -211q-216 0 -385.5 88.5t-263.5 248t-94 363.5q0 167 63.5 320t170 263.5t253.5 176.5t308 66q192 0 345.5 -81t239.5 -225.5t86 -324.5q0 -112 -40 -217t-105.5 -181.5t-152 -122.5t-175.5 -46q-101 0 -160 49t-59 127q0 74 43 172h-2q-58 -92 -98.5 -149
t-85.5 -106t-87.5 -71t-88.5 -22q-76 0 -132 54t-57 134q0 114 82 253t201 251q146 143 270 143q57 0 85.5 -64t15.5 -145h2l94 258l198 -8l-135 -340l-92 -239q-72 -203 121 -203q57 0 117 36t109 97t80.5 151t31.5 189q0 264 -184.5 438t-466.5 174q-157 0 -300.5 -64.5
t-247.5 -173.5t-165.5 -258t-61.5 -311q0 -197 91.5 -352.5t256.5 -242.5t375 -87q217 0 398.5 111t263.5 279l18 -9q-84 -172 -270.5 -285.5t-409.5 -113.5zM637 240q53 0 125.5 78t148.5 229q60 113 60 147q0 60 -43.5 115t-96.5 55q-34 0 -69 -35q-68 -64 -135.5 -214
t-67.5 -259q0 -54 21.5 -85t56.5 -31z" />
    <glyph glyph-name="A" unicode="A" horiz-adv-x="1296" 
d="M702 545h-317l-111 -201q-102 -176 -116 -207q-31 -68 -4 -91q24 -21 129 -30l49 -4l2 -12h-445l7 12l34 4q29 3 46.5 5.5t39 13t34 18.5t35 35t37 48t45.5 71.5t54.5 92.5t69.5 124l360 653l-6 86q66 10 114 47t97 105h33l102 -1034q14 -110 34 -166t47 -76t75 -23
l55 -4l2 -12h-637l6 12l58 4q75 6 93 45t7 142zM399 571h301l-38 467h-7z" />
    <glyph glyph-name="B" unicode="B" horiz-adv-x="1245" 
d="M-55 0l6 12l76 8q102 11 106 33l250 1180q1 6 -2 9t-16.5 6.5t-34 6t-62.5 7.5l-49 6l-2 12h543q235 0 351 -79.5t116 -203.5q0 -127 -112.5 -204.5t-319.5 -87.5v-5q177 -30 272.5 -118.5t95.5 -208.5q-2 -180 -158.5 -276.5t-467.5 -96.5h-592zM494 20h69
q99 1 175.5 56t115.5 139t39 180q0 136 -92.5 220.5t-245.5 84.5h-25l-135 -637zM664 713q76 0 135 27t94 73.5t52.5 103.5t17.5 121q0 100 -60.5 158t-179.5 64h-74l-114 -533q68 -14 129 -14z" />
    <glyph glyph-name="C" unicode="C" horiz-adv-x="1402" 
d="M780 -25q-155 0 -283.5 48t-213 130.5t-131 191t-46.5 230.5q0 143 54 275.5t151 234.5t244.5 163t321.5 61q229 0 383 -101l147 43l-55 -383l-13 2l-112 310q-48 45 -129.5 73.5t-163.5 28.5q-105 0 -195.5 -47t-154.5 -126t-109.5 -181t-67.5 -213t-22 -221
q0 -235 110.5 -366.5t309.5 -131.5q251 0 418 268l75 119l9 -2l-105 -358l-69 -3q-55 -16 -159 -30.5t-194 -14.5z" />
    <glyph glyph-name="D" unicode="D" horiz-adv-x="1409" 
d="M-55 0l6 12l78 8q100 11 104 33l250 1180q1 6 -2 9.5t-15.5 6.5t-34.5 6t-61 7l-51 6l-2 12l531 2q161 1 287 -41t205 -116.5t120 -173t41 -214.5q0 -146 -58.5 -279t-164 -235t-265.5 -162.5t-350 -60.5h-618zM528 20q113 0 210 43t167 118.5t120 177t74.5 220
t24.5 246.5q0 198 -93.5 315t-287.5 117h-94l-254 -1196z" />
    <glyph glyph-name="E" unicode="E" horiz-adv-x="1247" 
d="M-55 0l6 12l74 8q104 11 108 33l250 1180q1 6 -2 9.5t-15.5 6.5t-34.5 6t-61 7l-51 6l-2 12h969l12 -416l-14 -2l-8 25q-60 210 -153.5 293.5t-277.5 79.5l-98 -3l-123 -589l88 2q137 6 209 47.5t113 140.5l16 37l15 -2l-107 -487h-14l4 36q6 113 -46 153.5t-210 49.5
l-74 4l-131 -620l203 -11q188 3 322 101t235 282l16 27l15 -2l-144 -426h-1089z" />
    <glyph glyph-name="F" unicode="F" horiz-adv-x="1177" 
d="M-55 0l6 12l82 8q96 10 100 33l250 1180q1 6 -1.5 9t-14 6.5t-33 6.5t-60.5 7l-55 6l-2 12h1006l-15 -416l-14 -2l-8 25q-25 107 -52 173t-71.5 113.5t-107.5 67t-158 19.5l-150 -5l-127 -598l90 2q137 6 208 47t114 140l16 37h15l-107 -488h-14l2 35q5 115 -47.5 158
t-208.5 47l-72 2l-125 -590q-1 -8 5.5 -12.5t31.5 -8.5t76 -8l86 -4l2 -14h-647z" />
    <glyph glyph-name="G" unicode="G" horiz-adv-x="1466" 
d="M760 -33q-292 0 -474 169t-182 431q0 152 56.5 287.5t157 235.5t246.5 158.5t317 58.5q242 0 395 -97l145 39l-61 -395l-10 2l-115 328q-40 41 -118.5 69.5t-164.5 28.5q-126 0 -234 -66t-180 -176.5t-112.5 -254t-40.5 -298.5q0 -230 103.5 -363.5t283.5 -133.5
q100 0 168 35l100 483q1 7 -11 12.5t-42.5 10t-83.5 8.5l-65 6l-2 12h639l-9 -12l-86 -8q-88 -7 -92 -31l-88 -420l115 23v-11q-118 -52 -272 -91.5t-283 -39.5z" />
    <glyph glyph-name="H" unicode="H" horiz-adv-x="1511" 
d="M-55 0l6 12l78 8q100 8 104 33l250 1180q1 6 -2 9.5t-15.5 6.5t-34.5 6t-61 7l-51 6l-2 12h614l-8 -12l-78 -8q-100 -11 -104 -33l-119 -565h561l123 571q1 6 -1.5 9t-16 6.5t-33.5 6t-61 7.5l-54 6l-2 12h615l-8 -12l-76 -8q-101 -11 -105 -33l-250 -1180q-1 -6 2 -9.5
t15.5 -6.5t34.5 -6t61 -7l51 -6l2 -12h-614l6 12l80 8q100 11 104 33l121 588h-559l-127 -594q-1 -6 2 -9t16 -6.5t33.5 -6l61.5 -7.5l53 -6l2 -12h-614z" />
    <glyph glyph-name="I" unicode="I" horiz-adv-x="739" 
d="M-33 0l6 12l82 8q50 4 76.5 13.5t28.5 19.5l250 1180q1 6 -2 9.5t-15.5 6.5t-34.5 6t-61 7l-57 6l-2 12h620l-8 -12l-80 -8q-100 -8 -104 -33l-250 -1180q-1 -6 2 -9t15 -6.5t34 -6.5t61 -7l56 -6l2 -12h-619z" />
    <glyph glyph-name="J" unicode="J" horiz-adv-x="716" 
d="M-141 -360q-91 0 -143 41.5t-52 103.5q0 57 43.5 99t102.5 42q52 0 86 -30t41.5 -71t-12 -86.5t-64.5 -72.5q96 -20 172.5 84t116.5 301l249 1180q1 7 -2 10.5t-15 7t-34 6.5t-61 7l-58 6l-2 12h621l-8 -12l-80 -8q-101 -11 -105 -35l-256 -1217q-7 -33 -44 -80.5
t-95 -97t-124.5 -92.5t-140.5 -70.5t-136 -27.5z" />
    <glyph glyph-name="K" unicode="K" horiz-adv-x="1427" 
d="M-53 0l6 12l80 8q96 8 100 33l250 1180q1 6 -1.5 9t-14 6.5t-33 6.5t-60.5 7l-55 6l-4 12h629l-6 -12l-93 -8q-100 -8 -104 -33l-135 -649l377 315q251 212 288 287q26 52 -30 70q-27 9 -86 14l-62 4l-2 12h541l-6 -12l-49 -4q-23 -2 -44.5 -6.5t-40.5 -10t-43 -18.5
t-41.5 -22t-48.5 -32t-50.5 -37.5t-60 -48t-66.5 -55t-80.5 -67.5t-90.5 -76l-26 -23l241 -657q35 -90 58 -129t45 -51.5t67 -16.5l43 -2l2 -12h-606l6 12l37 2q59 5 80.5 26t15.5 74.5t-45 161.5l-151 414l-182 -149l-105 -494q-1 -6 2 -9t15 -6.5t34 -6.5t62 -7l67 -6
l4 -12h-628z" />
    <glyph glyph-name="L" unicode="L" horiz-adv-x="1200" 
d="M-55 0l6 12l82 8q96 10 100 33l250 1180q1 6 -1.5 9t-14 6.5t-33 6.5t-60.5 7l-55 6l-2 12h647l-8 -12l-111 -8q-42 -4 -72 -14t-32 -19l-254 -1198l176 -11q114 0 203 44.5t165 132.5t169 245l14 27h14l-133 -467h-1050z" />
    <glyph glyph-name="M" unicode="M" horiz-adv-x="1722" 
d="M-61 0l6 12l39 2q67 4 107 20t52.5 33t18.5 42l258 1087q-29 59 -129 66l-55 4l-3 14h451l150 -932l4 -2l559 934h438l-8 -12l-76 -8q-100 -11 -104 -33l-250 -1180q-1 -6 2 -9t15 -6.5t34 -6.5t61 -7l52 -6l2 -12h-621l6 12l92 8q95 8 99 33l237 1137h-4l-713 -1190h-24
l-189 1124q-1 8 -5.5 19.5t-4.5 13.5l-248 -1063q-3 -14 2.5 -26t23.5 -23.5t57 -19.5t96 -11l34 -2l2 -12h-464z" />
    <glyph glyph-name="N" unicode="N" horiz-adv-x="1384" 
d="M1049 -12l-637 1112h-4l-215 -1008q-4 -19 6.5 -33.5t49 -26.5t105.5 -18l37 -2l2 -12h-444l6 12l39 2q157 13 172 95l221 1013q-70 126 -192 140l-21 2l-2 16h457l497 -885h4l170 793q4 19 -7 33.5t-50 27t-106 17.5l-35 2l-2 12h444l-8 -12l-39 -2q-154 -11 -170 -95
l-260 -1183h-18z" />
    <glyph glyph-name="O" unicode="O" horiz-adv-x="1513" 
d="M758 -27q-142 0 -263 49.5t-203 135t-127.5 199.5t-45.5 243q0 133 53.5 260.5t146.5 226.5t231 159.5t296 60.5q142 0 264 -50.5t204 -137t128.5 -202.5t46.5 -245q0 -91 -24.5 -179t-69 -165.5t-110.5 -143t-145.5 -112t-177.5 -73t-204 -26.5zM727 -4q138 0 254 126
t180 322.5t64 409.5q0 194 -93.5 311t-257.5 117q-91 0 -172 -56.5t-138 -148t-99.5 -207t-63 -234.5t-20.5 -228q0 -188 92.5 -300t253.5 -112z" />
    <glyph glyph-name="P" unicode="P" horiz-adv-x="1204" 
d="M-68 0l7 12l90 8q100 11 104 33l250 1180q1 6 -2 9t-15 6.5t-34 6.5t-62 7l-63 6l-2 12h590q227 0 347 -87t120 -224q0 -165 -140 -268t-372 -103q-125 0 -236 29l-123 -580q-1 -8 5.5 -12.5t31.5 -8.5t76 -8l86 -4l2 -14h-660zM668 623q142 0 230.5 119.5t88.5 283.5
q0 102 -52 163.5t-155 70.5h-131l-129 -607q4 -1 18.5 -6t21.5 -7t22 -6t26 -6t27.5 -3.5t32.5 -1.5z" />
    <glyph glyph-name="Q" unicode="Q" horiz-adv-x="1513" 
d="M1208 -371q-129 0 -225.5 16.5t-180 57t-139 114.5t-83.5 183q-212 51 -336.5 215.5t-124.5 384.5q0 133 53.5 260.5t146.5 226.5t231 159.5t296 60.5q142 0 264 -51t204 -137.5t128.5 -202t46.5 -244.5q0 -164 -74.5 -309.5t-211.5 -246t-312 -130.5q45 -196 152.5 -266
t336.5 -68v-10q-60 -13 -172 -13zM727 -4q105 0 199 74.5t159 195t102.5 275t37.5 313.5q0 193 -94 310.5t-257 117.5q-91 0 -172 -56.5t-138 -148.5t-99.5 -207t-63 -234.5t-20.5 -229.5q0 -187 92.5 -298.5t253.5 -111.5z" />
    <glyph glyph-name="R" unicode="R" horiz-adv-x="1329" 
d="M-68 0l7 12l90 8q43 4 72.5 14t31.5 19l250 1180q1 6 -2 9t-15 6.5t-34 6.5t-62 7l-63 6l-2 12h592q211 0 347 -84.5t136 -226.5q0 -136 -114.5 -222.5t-301.5 -89.5l178 -421q52 -125 91.5 -167.5t117.5 -52.5l21 -4l4 -12h-426l-242 662q-13 5 -78 36l-139 -651
q-3 -20 113 -29l76 -4l2 -14h-650zM702 684q138 0 224 96t86 238q0 106 -70.5 172.5t-196.5 66.5h-96l-114 -540q101 -33 167 -33z" />
    <glyph glyph-name="S" unicode="S" horiz-adv-x="1052" 
d="M492 -27q-139 0 -258 37.5t-195 87.5l41 324l8 -2l51 -164q78 -262 342 -262q125 0 205 84t80 203q0 91 -66 155t-196 133q-65 35 -113.5 69.5t-92.5 79t-67.5 99.5t-23.5 117q0 69 30.5 135.5t84.5 119t134 84.5t171 32q146 0 323 -82l107 22l-64 -350l-6 2l-117 299
q-34 36 -93.5 62t-125.5 26q-101 0 -172 -67.5t-71 -161.5q0 -86 58.5 -145t190.5 -128q71 -37 122.5 -73t97.5 -83t70 -105t24 -126q0 -77 -34.5 -152.5t-94.5 -135.5t-152 -97t-198 -37z" />
    <glyph glyph-name="T" unicode="T" horiz-adv-x="1378" 
d="M276 0l7 12l94 8q100 8 104 33l254 1211h-67q-68 -4 -138 -39.5t-130 -92t-105.5 -111t-85.5 -114.5l-21 -28h-12l133 401h1129l-54 -401h-8l-6 28q-16 73 -40.5 132.5t-61 110.5t-89.5 81t-118 33h-66l-258 -1217q-1 -6 2 -9t15 -6.5t34 -6.5t62 -7l68 -6l2 -12h-644z
" />
    <glyph glyph-name="U" unicode="U" horiz-adv-x="1417" 
d="M737 -33q-247 0 -390.5 93t-143.5 274q0 69 24 186q9 45 25 119.5t48.5 231.5t54.5 260.5t22 101.5q1 6 -1.5 9t-14 6.5t-33.5 6.5t-62 7l-65 6l-2 12h641l-9 -12l-90 -8q-100 -11 -104 -33l-148 -695q-22 -113 -22 -186q0 -299 352 -299q148 0 238.5 91.5t130.5 283.5
l164 766q15 65 -166 78l-37 2l-2 12h446l-8 -12l-39 -2q-80 -6 -120.5 -32.5t-47.5 -62.5l-166 -755q-47 -223 -160.5 -336t-314.5 -113z" />
    <glyph glyph-name="V" unicode="V" horiz-adv-x="1337" 
d="M569 -20l-188 1032q-12 64 -19 96.5t-17 65.5t-18 46t-22.5 25t-30 14.5t-41.5 4.5l-55 4v12h619l-6 -12l-66 -2q-65 -2 -88.5 -14.5t-25.5 -49t16 -104.5l135 -770h6l358 608q14 24 39 66q103 164 99.5 207t-138.5 55l-49 4l-2 12h447l-9 -12l-34 -4q-28 -3 -46 -5.5
t-40 -14t-34.5 -19t-36 -35.5t-37.5 -47.5t-47 -71.5t-56 -91t-72 -122l-522 -878h-19z" />
    <glyph glyph-name="W" unicode="W" horiz-adv-x="2039" 
d="M561 -33l-194 1045q-13 71 -21.5 108.5t-19.5 69t-25.5 44.5t-32.5 20t-49 10l-45 4l-2 12h616l-8 -12l-63 -2q-83 -3 -101 -27.5t-6 -103.5l144 -820h4l383 631l-13 68q-26 156 -50 201t-93 49l-57 4l-2 12h630l-8 -12l-61 -2q-87 -3 -107 -29.5t-8 -116.5l119 -798h4
l356 620q7 12 20 35q48 84 65 117.5t31.5 74t-2 53.5t-46.5 24.5t-92 17.5l-41 4l-2 12h448l-8 -12l-31 -4q-37 -5 -59.5 -10.5t-47 -20.5t-42 -33.5t-44.5 -58t-53.5 -84t-70.5 -119.5q-5 -9 -8 -14l-551 -957h-21l-149 940h-4l-568 -940h-14z" />
    <glyph glyph-name="X" unicode="X" horiz-adv-x="1351" 
d="M-102 0l6 12l63 6q91 7 154.5 58t256.5 263q3 4 5 6l5 5t5 6l211 232l-182 430q-8 19 -23 54q-49 116 -74.5 151t-78.5 39l-62 6l-4 12h621l-8 -12l-54 -2q-74 -3 -87 -37.5t30 -143.5l127 -303l4 -2l148 166q149 166 177 208q41 60 13 82q-24 18 -123 28l-41 4l-2 12
h483l-8 -12l-51 -6q-27 -2 -46.5 -5t-43.5 -13t-38.5 -17.5t-43.5 -31.5t-47 -40.5t-59 -59t-70 -74t-90 -97.5l-150 -166q-1 0 58.5 -139.5t119.5 -279.5l60 -140q47 -114 72.5 -148t74.5 -37l47 -2l2 -12h-602l6 12l54 2q73 3 92 30t-6 87l-187 434h-2l-207 -231
q-152 -166 -182 -212q-38 -58 -5 -80q26 -17 122 -26l41 -4l2 -12h-483z" />
    <glyph glyph-name="Y" unicode="Y" horiz-adv-x="1325" 
d="M248 0l6 12l94 8q50 4 76.5 13.5t28.5 19.5l110 529l-166 491q-38 110 -69.5 147t-100.5 44l-41 4l-2 12h629l-8 -12l-33 -2q-98 -7 -122.5 -38.5t1.5 -92.5l162 -494l6 -2l217 289q131 179 155 225q31 61 0 83q-24 17 -118 28l-43 4l-2 12h461l-8 -12l-54 -6
q-80 -9 -145.5 -70.5t-226.5 -276.5l-228 -303l-118 -565q-1 -6 2 -9t15 -6.5t34 -6.5t61 -7l66 -6l2 -12h-641z" />
    <glyph glyph-name="Z" unicode="Z" horiz-adv-x="1234" 
d="M-29 0l2 10l1026 1241l-2 4l-184 5q-397 0 -577 -361l-11 -20h-10l94 401h1016l-4 -10l-1040 -1237v-4l202 -6q125 -4 216.5 16t169.5 76t140 132.5t140 203.5l16 30h13l-146 -481h-1061z" />
    <glyph glyph-name="bracketleft" unicode="[" horiz-adv-x="626" 
d="M-94 -506l381 1786h499l-4 -20h-477l-371 -1745h478l-6 -21h-500z" />
    <glyph glyph-name="backslash" unicode="\" horiz-adv-x="475" 
d="M418 -506l-430 1796h20l430 -1796h-20z" />
    <glyph glyph-name="bracketright" unicode="]" horiz-adv-x="626" 
d="M-184 -506l6 21h477l371 1745h-477l4 20h499l-381 -1786h-499z" />
    <glyph glyph-name="asciicircum" unicode="^" horiz-adv-x="757" 
d="M209 983l362 403h17l194 -403h-14l-219 195h-4l-322 -195h-14z" />
    <glyph glyph-name="underscore" unicode="_" horiz-adv-x="913" 
d="M-55 -57l6 59h819l6 -59h-831z" />
    <glyph glyph-name="grave" unicode="`" horiz-adv-x="819" 
d="M678 1006l-350 383h219l145 -383h-14z" />
    <glyph glyph-name="a" unicode="a" horiz-adv-x="1005" 
d="M688 -27q-36 0 -106 51t-70 78q0 72 92 306h-4q-135 -228 -184 -294q-87 -118 -166 -134q-15 -3 -31 -3q-86 0 -144.5 59t-58.5 150q0 136 82 283t209 276q158 158 287 158q119 0 94 -239h6l90 233l215 -8l-168 -438l-114 -334l108 -13l133 215l13 -6q-71 -154 -151 -247
t-132 -93zM322 113q107 0 276 342q61 120 61 168q0 72 -46 128t-105 56q-34 0 -74 -37q-68 -69 -130 -235.5t-62 -288.5q0 -64 22 -98.5t58 -34.5z" />
    <glyph glyph-name="b" unicode="b" horiz-adv-x="937" 
d="M313 -31q-50 0 -101 16t-95 48.5t-61 83t1 119.5l303 1021q5 17 2.5 32.5t-12.5 15.5l-164 6l4 12l424 35l-41 -131q-64 -209 -116 -368t-95.5 -283.5t-50.5 -145.5q-6 -18 -3 -19t11 13q115 262 206.5 372.5t187.5 110.5q94 0 148 -66t54 -165q0 -129 -66 -278
t-187 -269q-75 -75 -168.5 -117.5t-180.5 -42.5zM354 -4q55 0 107 49q89 89 161 267t72 311q0 151 -94 151q-63 0 -138.5 -116.5t-152.5 -311.5q-59 -142 -59 -231q0 -48 28.5 -83.5t75.5 -35.5z" />
    <glyph glyph-name="c" unicode="c" horiz-adv-x="755" 
d="M297 -25q-118 0 -198.5 87t-80.5 217q0 108 43.5 220t116.5 202.5t178 148t217 57.5q88 0 153 -45t65 -114q0 -61 -36.5 -102.5t-88.5 -41.5q-48 0 -84.5 31.5t-36.5 73.5t26.5 79.5t63.5 49.5q-6 5 -21 18.5t-27 20t-28 6.5q-51 0 -123 -66q-74 -77 -129 -226t-55 -286
q0 -205 151 -205q75 0 129 44.5t125 168.5l17 -6q-170 -332 -377 -332z" />
    <glyph glyph-name="d" unicode="d" horiz-adv-x="1005" 
d="M688 -27q-36 0 -106 51t-70 78q0 72 92 306h-4q-135 -228 -184 -294q-87 -118 -166 -134q-15 -3 -31 -3q-86 0 -144.5 59t-58.5 150q0 136 82 283t209 276q162 162 285 162q43 0 67.5 -36t28.5 -90t0 -117h6l189 593q5 17 2 32.5t-13 15.5l-182 6l4 12l447 35l-289 -846
l-135 -395l108 -13l133 213l13 -6q-71 -152 -151 -245t-132 -93zM322 113q107 0 276 342q61 120 61 168q0 71 -46.5 127.5t-104.5 56.5q-34 0 -74 -37q-68 -69 -130 -236t-62 -290q0 -63 22 -97t58 -34z" />
    <glyph glyph-name="e" unicode="e" horiz-adv-x="780" 
d="M303 -25q-121 0 -203 87t-82 217q0 146 74.5 291t203 241t269.5 96q97 0 162.5 -46t65.5 -120q0 -103 -132.5 -168t-388.5 -102q-20 -79 -20 -168q0 -98 42.5 -150.5t121.5 -52.5q78 0 140.5 46t129.5 167l16 -6q-82 -162 -183.5 -247t-215.5 -85zM281 492
q155 29 243 96.5t88 175.5q0 53 -20 85t-57 32q-43 0 -91 -45q-50 -50 -97 -144t-71 -198z" />
    <glyph glyph-name="f" unicode="f" horiz-adv-x="606" 
d="M-135 -369q-85 0 -139 39.5t-54 102.5q0 45 34 80.5t89 35.5q45 0 79 -32.5t36 -79.5t-43 -99q18 -24 45 -24q42 0 75.5 54t70.5 186.5t89 384.5l101 501l-182 4l43 95l165 2q76 273 175 370q102 105 272 105q95 0 152 -43.5t57 -110.5q0 -51 -36 -85t-85 -34
q-45 0 -75 25t-37 59t12.5 73t64.5 65q-41 32 -74 32q-40 0 -73 -33t-60 -98t-47.5 -141.5t-42.5 -183.5l213 -2l-33 -95h-200l-125 -551q-44 -187 -94.5 -307t-126.5 -196q-99 -99 -246 -99z" />
    <glyph glyph-name="g" unicode="g" horiz-adv-x="837" 
d="M258 -496q-203 0 -328 64.5t-125 169.5q0 74 90 140.5t222 98.5v5q-65 35 -101 72.5t-36 86.5q0 63 71 116t156 75v4q-63 42 -99 104.5t-36 134.5q0 131 117.5 233t254.5 99q123 -6 203 -80l268 47l-22 -135l-227 74v-4q94 -97 94 -205q0 -85 -56 -161.5t-144 -120
t-179 -41.5q-90 3 -152 41q-39 -10 -59 -36.5t-20 -58.5q0 -33 36 -50.5t170 -55.5l58 -17q57 -18 101 -35t89 -43t74.5 -55t48 -69t18.5 -86q0 -81 -67.5 -153t-180.5 -115.5t-239 -43.5zM344 303q49 0 92 43q61 61 96 179t39 212q2 65 -21.5 105.5t-64.5 40.5
q-36 0 -86 -43q-59 -59 -96 -177.5t-41 -207.5q-2 -39 6.5 -76t24.5 -53q23 -23 51 -23zM326 -471q108 0 181 54t73 130q0 63 -62.5 108t-167.5 81q-29 11 -99.5 31t-100.5 32q-69 -18 -111.5 -71t-42.5 -127q0 -108 88.5 -173t241.5 -65z" />
    <glyph glyph-name="h" unicode="h" horiz-adv-x="1001" 
d="M672 -27q-34 0 -98 48t-64 81q0 11 6.5 33.5t19.5 57.5t27 69.5t36 89t38 97.5q13 33 40.5 99t39.5 98.5t12 45.5q0 21 -33.5 42.5t-64.5 21.5q-41 0 -141 -149t-226 -419l-76 -194l-221 10l119 336l285 917q5 17 2 32.5t-13 15.5l-163 6l4 12l422 35l-41 -131
q-173 -594 -303 -926l10 -6v0q91 180 181 329t142 199q35 34 78.5 58t73.5 24q78 0 133 -43t55 -90q0 -81 -98 -323l-133 -332l104 -13l140 213l12 -6q-74 -150 -163 -244t-142 -94z" />
    <glyph glyph-name="i" unicode="i" horiz-adv-x="559" 
d="M514 1053q-56 0 -89.5 35.5t-33.5 89.5q0 65 37.5 109t85.5 44q59 0 93 -34.5t32 -88.5q-1 -66 -38 -110.5t-87 -44.5zM223 -27q-33 0 -102.5 46t-69.5 77q0 22 55 169t119.5 311t73.5 190l-129 10l-129 -211l-12 6q72 153 156.5 244.5t146.5 91.5q41 0 104.5 -49.5
t63.5 -95.5q0 -31 -52 -170t-117 -298.5t-71 -176.5l113 -13l141 213l10 -6q-75 -152 -161 -245t-140 -93z" />
    <glyph glyph-name="j" unicode="j" horiz-adv-x="522" 
d="M520 1053q-57 0 -90 34.5t-33 88.5q0 66 37 109.5t86 43.5q58 0 92.5 -35t32.5 -88q-1 -66 -38.5 -109.5t-86.5 -43.5zM-252 -510q-57 0 -105.5 38t-48.5 99q0 46 33 81.5t90 35.5q36 0 63.5 -23t38.5 -56.5t-1.5 -74.5t-50.5 -73l102 32q45 48 79 131.5t89 262.5
l266 825l-123 8l-135 -211l-12 6q73 153 157 244.5t146 91.5q41 0 104.5 -49.5t63.5 -95.5q0 -51 -96 -320t-177 -450q-113 -257 -237 -381q-55 -56 -119.5 -88.5t-126.5 -32.5z" />
    <glyph glyph-name="k" unicode="k" horiz-adv-x="909" 
d="M604 -25q-35 0 -73.5 14.5t-57.5 33.5q-3 103 -6.5 171t-8.5 123t-11 85t-16 50t-22 26.5t-30 6.5q-37 0 -43 -18l-148 -473l-225 10q42 105 119 336q52 156 121 385.5t112 380.5l43 151q5 15 2.5 31.5t-12.5 16.5l-164 6l4 12l428 35l-38 -131q-57 -196 -96 -320
t-79 -240.5t-55 -164.5q25 8 74 12q249 92 295 148l-2 4q-90 39 -90 125q0 46 37 83t86 37q53 0 88.5 -35.5t35.5 -87.5q0 -74 -63.5 -126.5t-241.5 -114.5l-90 -33q45 -6 78 -28.5t54.5 -55t37 -85t24.5 -104.5t17 -128l64 -7l129 222l12 -6q-69 -156 -145.5 -251.5
t-143.5 -95.5z" />
    <glyph glyph-name="l" unicode="l" horiz-adv-x="509" 
d="M172 -27q-20 0 -61.5 22.5t-74 53.5t-26.5 51l350 1157q5 17 2.5 32.5t-12.5 15.5l-164 6l4 12l420 35l-389 -1241l101 -13l139 213l12 -6q-76 -152 -161.5 -245t-139.5 -93z" />
    <glyph glyph-name="m" unicode="m" horiz-adv-x="1538" 
d="M1208 -27q-34 0 -101 48t-67 81q0 11 6 33t20.5 59t27 69t36.5 90t39 96q13 34 40.5 99.5t40 98.5t12.5 47q0 20 -36 42t-67 22q-39 0 -130.5 -146t-221.5 -424l-74 -194l-219 10l96 281q25 74 64 174t62.5 160.5t23.5 74.5q0 23 -30.5 43.5t-61.5 20.5
q-40 0 -131.5 -146t-221.5 -424l-73 -194l-219 10l116 338l127 428l-100 8l-131 -213l-12 6q72 155 152 246.5t140 91.5q34 0 97 -55t63 -100q0 -44 -41 -170.5t-106 -282.5l12 -4q109 214 185 347.5t124 180.5q35 33 79.5 57.5t74.5 24.5q77 0 125.5 -49.5t48.5 -103.5
q0 -73 -158 -453l10 -4q74 142 120 227.5t102 176.5t90 124q35 34 79 58t74 24q78 0 133.5 -43.5t55.5 -89.5q0 -80 -99 -325l-133 -332l105 -13l139 215l12 -6q-74 -152 -160 -246t-139 -94z" />
    <glyph glyph-name="n" unicode="n" horiz-adv-x="1060" 
d="M731 -27q-34 0 -101 48t-67 81q0 11 6.5 33.5t20 58t27 69.5t35.5 89.5t38 96.5q12 31 40.5 98.5t40 100t11.5 46.5q0 20 -33.5 42t-64.5 22q-41 0 -141 -150t-226 -420l-73 -194l-221 10l116 338l127 428l-100 8l-131 -213l-12 6q71 154 155 246t144 92q34 0 94.5 -54.5
t60.5 -100.5q0 -45 -40.5 -172t-104.5 -281l10 -4q92 180 182.5 329t141.5 199q35 34 78 58t73 24q78 0 133.5 -43.5t55.5 -89.5q0 -80 -99 -325l-133 -332l105 -13l139 215l12 -6q-74 -152 -160 -246t-139 -94z" />
    <glyph glyph-name="o" unicode="o" horiz-adv-x="864" 
d="M350 -25q-137 0 -228 111.5t-91 273.5q0 95 42.5 194.5t108.5 176t151.5 125.5t166.5 49q135 0 232 -115t97 -280q0 -127 -70 -252t-182 -204t-227 -79zM317 0q71 0 137 89t119 253q30 90 45 187t15 163q0 90 -25.5 138.5t-66.5 48.5q-57 0 -131.5 -106.5t-130.5 -276.5
q-56 -177 -56 -320q0 -81 25.5 -128.5t68.5 -47.5z" />
    <glyph glyph-name="p" unicode="p" horiz-adv-x="976" 
d="M-242 -518l6 12l39 2q52 3 69.5 8t21.5 21l372 1243l-100 8l-131 -211l-12 6q72 154 152 245t140 91q36 0 97 -51t61 -94q0 -57 -37 -158h8q69 156 144.5 228.5t169.5 72.5q91 0 144.5 -83t53.5 -216q0 -149 -76 -296.5t-202.5 -242t-261.5 -94.5q-44 0 -83 26t-59 69h-4
l-164 -547q-2 -7 7 -12t35.5 -8.5t72.5 -4.5l64 -2l2 -12h-529zM416 -6q51 0 114 59q81 81 147 260.5t66 307.5q0 85 -28.5 124t-75.5 39q-139 0 -309 -505q-39 -109 -39 -156t38.5 -88t86.5 -41z" />
    <glyph glyph-name="q" unicode="q" horiz-adv-x="978" 
d="M139 -518l6 12l68 2q60 1 80.5 10t25.5 25q39 138 183 563q83 262 104 316h-4q-136 -232 -190 -303q-88 -116 -169 -128q-12 -2 -24 -2q-86 0 -144.5 59t-58.5 150q0 136 82 283t209 276q162 162 285 162q43 0 67.5 -36t28.5 -90t0 -117h6l88 223l213 -8l-176 -461
l-282 -893q-2 -7 3.5 -12t21 -8.5t32.5 -5t45 -3.5l35 -2l6 -12h-541zM322 113q107 0 276 342q61 120 61 168q0 71 -46.5 127.5t-104.5 56.5q-34 0 -74 -37q-68 -69 -130 -236t-62 -290q0 -63 22 -97t58 -34z" />
    <glyph glyph-name="r" unicode="r" horiz-adv-x="868" 
d="M246 -6l-223 10l116 338l127 428l-100 8l-131 -213l-12 6q72 155 152 246.5t140 91.5q34 0 98 -55t64 -100q0 -55 -108 -342q-10 -27 -15 -41h6q117 231 172.5 329.5t102.5 143.5q71 68 141 65q65 -2 110 -47t44 -110q-3 -65 -43.5 -110t-95.5 -44q-56 2 -87 40.5
t-21 88.5t60 82l-61 22q-35 -16 -69.5 -59.5t-94.5 -147.5t-174 -323z" />
    <glyph glyph-name="s" unicode="s" horiz-adv-x="716" 
d="M274 -27q-122 0 -206 53t-84 142q0 56 34 95.5t88 39.5q39 0 67 -30.5t30 -71.5q3 -69 -68 -119q14 -26 65 -58t105 -32q71 0 113.5 52t42.5 114q0 24 -8.5 46t-32 48.5t-37 40.5t-53 48.5t-49.5 43.5q-83 74 -121.5 129t-38.5 123q0 113 96 191.5t225 78.5
q109 0 188 -46t79 -128q0 -56 -33.5 -91.5t-81.5 -35.5q-45 0 -77 32t-32 77q0 32 20.5 60.5t47.5 45.5q-2 2 -15.5 17t-24.5 24t-34.5 18t-50.5 9q-64 0 -103.5 -50t-39.5 -108q0 -22 10 -44.5t30.5 -45.5t38 -40t47.5 -43.5t44 -39.5q40 -37 60.5 -58t52 -58.5t45.5 -74
t14 -75.5q0 -115 -107 -197t-246 -82z" />
    <glyph glyph-name="t" unicode="t" horiz-adv-x="620" 
d="M262 -27q-38 0 -94.5 21.5t-98 51t-38.5 50.5q1 17 93 322.5t112 361.5l-162 4l43 97h153l90 262h213l-79 -262l178 -2l-17 -95h-192l-223 -667l166 -11l129 213l12 -6q-74 -160 -149 -250t-136 -90z" />
    <glyph glyph-name="u" unicode="u" horiz-adv-x="1060" 
d="M741 -27q-33 0 -94 55t-61 101q0 44 40.5 174.5t102.5 280.5l-10 4q-94 -183 -182.5 -331t-139.5 -198q-35 -35 -78 -59.5t-73 -24.5q-79 0 -135 44t-56 90q0 75 101 325l131 334l-105 10l-139 -215l-12 6q76 153 162 246.5t139 93.5q34 0 101.5 -48t66.5 -81
q-1 -12 -7.5 -34t-20 -58t-26.5 -69.5t-35 -88.5t-38 -96q-11 -27 -26 -63.5t-25.5 -62t-20.5 -51t-15 -43t-5 -26.5q0 -21 34 -42t66 -21q41 0 139 148.5t225 418.5l74 197l221 -10l-116 -338l-129 -426l100 -11l133 213l12 -6q-71 -154 -155 -246t-144 -92z" />
    <glyph glyph-name="v" unicode="v" horiz-adv-x="849" 
d="M283 -27q-85 0 -150 58.5t-65 128.5q0 35 16.5 79t53.5 102.5t69.5 104.5t92 127t93.5 129l-264 31l-92 -160l-12 7q77 165 137 250t108 85t124.5 -13.5t76.5 -29.5q0 -24 -45.5 -127t-91 -226t-45.5 -193q0 -96 42 -147.5t124 -51.5q62 0 136 87t127 216.5t62 245.5
q-73 -19 -125.5 17t-52.5 93q0 46 34.5 84.5t88.5 38.5q57 0 94 -38t37 -103q0 -118 -104.5 -335t-237.5 -353q-54 -54 -108 -80.5t-123 -26.5z" />
    <glyph glyph-name="w" unicode="w" horiz-adv-x="1234" 
d="M225 -27q-75 0 -121.5 50.5t-46.5 126.5q0 60 38.5 139.5t85.5 143.5t107.5 145t86.5 124l-242 31l-92 -160l-10 7q77 165 137 250t108 85q25 0 74 -7.5t88.5 -18t38.5 -17.5q-5 -20 -41 -90.5t-74.5 -146t-70 -168.5t-31.5 -158q0 -151 111 -151q40 0 83.5 30.5
t82.5 76.5t82.5 115t76.5 131.5t72 141.5q1 1 -4 4t-13.5 7.5t-19 11t-22.5 14t-23 18.5t-19.5 23t-14 28t-5.5 34q0 51 33 82.5t84 31.5q47 0 81 -34t34 -80q0 -37 -16.5 -70t-38.5 -58t-51 -70.5t-48 -98.5q-39 -107 -39 -172q0 -83 46.5 -124.5t127.5 -41.5q87 0 162 81
t116 204.5t38 250.5q-42 -18 -83.5 -14.5t-71.5 33.5t-30 75q0 50 32.5 85.5t78.5 35.5q60 0 96.5 -45t36.5 -119q0 -138 -88.5 -347.5t-202.5 -323.5q-98 -101 -182 -101q-75 0 -114.5 53.5t-39.5 118.5q0 85 84 308q-266 -480 -467 -480z" />
    <glyph glyph-name="x" unicode="x" horiz-adv-x="952" 
d="M88 -27q-54 0 -96.5 37t-42.5 99q0 55 35 91t82 36q45 0 70.5 -28.5t23.5 -67.5t-29 -68q0 -5 13.5 -14.5t19.5 -8.5q43 3 99 82t120 242q-4 23 -13 67q-11 57 -16.5 85t-16 73t-18.5 67.5t-19 48t-23.5 36t-26.5 10.5l-90 2v0l-94 -172l-17 6q63 148 138.5 230.5
t142.5 82.5q47 0 85 -25.5t65 -73t45.5 -101t33.5 -123.5h4q28 72 47 115t44.5 87.5t49.5 68t55.5 38t69.5 14.5q52 0 95 -36.5t43 -96.5q0 -54 -34 -89.5t-79 -35.5q-34 0 -58.5 18t-33.5 43t-5.5 52.5t21.5 46.5q0 4 -11.5 9t-18.5 5q-76 -6 -179 -278q7 -35 16.5 -87.5
t16 -87t15.5 -77.5t17.5 -70.5t19 -52.5t23.5 -37t28 -12h94l94 172l16 -8q-67 -151 -137 -232.5t-135 -81.5q-50 0 -90.5 29.5t-69.5 83.5t-49 113t-37 135h-4q-40 -99 -68 -157t-64 -109t-76 -73t-91 -22z" />
    <glyph glyph-name="y" unicode="y" horiz-adv-x="909" 
d="M-76 -373q-97 0 -147.5 42t-50.5 110q0 50 37.5 84.5t86.5 34.5q47 0 80.5 -29.5t37 -77t-35.5 -108.5l80 -25q162 39 342 205q7 512 -31.5 724t-136.5 212h-22l-127 -234l-14 6q80 170 99 203q55 97 121 122q29 11 66 11q97 0 152.5 -78t78.5 -264.5t11 -501.5l4 -2
q121 163 197 337t86 319q-60 -47 -110 -42t-82.5 39.5t-33.5 76.5q-2 52 30 87t89 35q61 0 99 -46.5t38 -123.5q0 -191 -123 -427.5t-309 -417.5q-128 -125 -261 -198t-251 -73z" />
    <glyph glyph-name="z" unicode="z" horiz-adv-x="813" 
d="M492 -47q-53 0 -99.5 26t-78.5 63t-59.5 74.5t-55 63.5t-52.5 27h-10l-76 -234q-44 3 -79 31.5t-35 67.5q0 52 52 96t116 53l508 436q-31 -7 -59.5 -7.5t-52 4.5t-48 17t-42 24.5t-39.5 32t-37 34.5t-37 37.5t-36 36.5q-7 5 -46 -38q-43 -46 -25 -46q52 -1 82 -34.5
t30 -78.5t-31.5 -74.5t-80.5 -29.5q-50 0 -78.5 35t-28.5 81t37 94t89 82.5t105.5 58t88.5 25.5q52 -2 89.5 -25.5t56 -56t31.5 -65t24.5 -56t25.5 -24.5l8 2l64 223q42 -5 79 -32.5t37 -63.5q-1 -59 -45.5 -95t-107.5 -44l-508 -438q53 9 97.5 8t89.5 -18.5t81 -37.5
t71 -50t60 -56.5t49 -56.5q5 -5 31 31q45 60 40 72q-1 1 -3 1q-60 -4 -93.5 31.5t-33.5 83.5q0 44 32 74t77 30q52 0 79 -36.5t27 -84.5q0 -60 -46 -123.5t-111.5 -105t-122.5 -45.5z" />
    <glyph glyph-name="braceleft" unicode="{" horiz-adv-x="655" 
d="M459 -532q-191 35 -305 135.5t-86 228.5q17 80 99 222.5t93 189.5q17 77 -40 114.5t-206 61.5l-2 10l8 10q149 10 222.5 40t91.5 108q9 44 1 136t-15 167t8 162q19 85 96 147t189.5 91.5t242.5 25.5v-12q-152 -6 -227 -40t-92 -112q-14 -62 1 -230.5t-1 -244.5
q-25 -113 -131.5 -173t-307.5 -75l-2 -10q191 -29 270 -97t54 -184q-16 -75 -99.5 -230.5t-97.5 -217.5q-18 -76 41 -125.5t201 -85.5z" />
    <glyph glyph-name="bar" unicode="|" horiz-adv-x="313" 
d="M156 -424v1796h18v-1796h-18z" />
    <glyph glyph-name="braceright" unicode="}" horiz-adv-x="655" 
d="M-186 -532l-2 14q152 5 227 39t92 114q12 52 -2.5 148t-28.5 170t0 160q25 113 130.5 172.5t306.5 74.5l2 11q-191 29 -269.5 97t-52.5 183q10 49 44.5 113t70.5 116.5t70 113t44 102.5q17 76 -42 125.5t-201 85.5l8 12q191 -37 304 -136.5t85 -226.5
q-14 -62 -64.5 -141.5t-99.5 -151.5t-59 -116q-16 -78 44.5 -116t199.5 -62l4 -11l-9 -10q-157 -8 -226 -37.5t-87 -107.5q-10 -44 5.5 -137t29.5 -169t0 -163q-18 -85 -95 -147t-188.5 -92t-240.5 -27z" />
    <glyph glyph-name="asciitilde" unicode="~" horiz-adv-x="798" 
d="M575 299q-54 0 -128 32.5t-141 64.5t-103 32q-19 0 -30.5 -2.5t-26 -13t-25.5 -34t-21 -61.5q-12 0 -14 -2q36 148 75.5 201t121.5 53q53 0 126 -32.5t139 -64.5t103 -32q18 0 30.5 3t27 13.5t26 34t21.5 60.5q12 0 14 2q-36 -148 -75 -201t-120 -53z" />
    <glyph glyph-name="nbspace" unicode="&#xa0;" horiz-adv-x="266" 
 />
    <glyph glyph-name="exclamdown" unicode="&#xa1;" horiz-adv-x="550" 
d="M430 1032q-56 0 -95.5 40t-39.5 93q0 55 39 96.5t94 41.5q57 0 97 -41t40 -97q0 -54 -40 -93.5t-95 -39.5zM170 -33q-46 6 -73 20t-33.5 36t-3.5 43.5t14 50.5l286 755q2 5 6 7t7.5 0t3.5 -7l-45 -788q-4 -133 -156 -117h-6z" />
    <glyph glyph-name="cent" unicode="&#xa2;" horiz-adv-x="755" 
d="M229 -16q-93 25 -152 104.5t-59 187.5q0 109 43.5 221t116.5 202.5t178 148t217 57.5q50 0 91 -14l165 346h25l-170 -354q48 -21 77.5 -57.5t29.5 -80.5q0 -59 -36.5 -100t-88.5 -41q-57 0 -95 41l-252 -526q32 -19 80 -19q75 0 131.5 44.5t126.5 166.5l17 -6
q-170 -330 -377 -330q-10 0 -45 5l-143 -299h-25zM555 664q-10 23 -10 43q0 42 26.5 79.5t63.5 49.5q-6 5 -21 18.5t-27 20t-28 6.5q-61 0 -133 -66q-74 -76 -129 -224.5t-55 -287.5q0 -119 59 -172z" />
    <glyph glyph-name="sterling" unicode="&#xa3;" horiz-adv-x="1132" 
d="M399 612h-233l6 21h219q-37 102 -37 180q0 132 71 242t193.5 173.5t268.5 63.5q140 0 223.5 -50t83.5 -134q0 -58 -36 -97.5t-95 -39.5q-65 0 -97.5 46t-23 105.5t52.5 98.5q-9 17 -42.5 33t-78.5 16q-84 0 -151 -55t-90 -166q-14 -57 -9.5 -189t-7.5 -227h261l6 -21
h-269q-14 -87 -43 -151q-39 -105 -106 -207q19 -6 69 -21.5t73.5 -22.5t66 -18.5t68.5 -17t58 -10t58 -4.5q79 0 122.5 47t78.5 174l14 -2q-33 -171 -126.5 -286.5t-227.5 -115.5q-103 0 -191 36.5t-180 99.5q-138 -138 -268 -138q-61 0 -102 39t-41 95q0 84 65.5 142
t181.5 58q86 0 244 -45q27 69 27 123q0 17 -1.5 33.5t-5.5 35.5t-6 30t-10 33.5t-10 29t-12 33t-11 30.5zM332 123q-61 41 -89 58.5t-74 36t-83 18.5q-56 0 -93.5 -37.5t-37.5 -92.5q0 -45 36 -78.5t89 -33.5q60 0 127.5 35.5t124.5 93.5z" />
    <glyph glyph-name="currency" unicode="&#xa4;" horiz-adv-x="886" 
d="M778 436l-16 -16l-117 115q-78 -71 -182 -71t-182 71l-117 -115l-17 16l115 117q-70 77 -70 182t70 183l-115 116l17 17l117 -115q77 70 182.5 70t181.5 -70l117 115l16 -17l-114 -116q70 -78 70 -183t-70 -182zM289 561q72 -72 174 -72t174 72t72 174t-72 174t-174 72
t-174 -72t-72 -174t72 -174z" />
    <glyph glyph-name="yen" unicode="&#xa5;" horiz-adv-x="1280" 
d="M545 604h-377l-4 21h373q1 0 -37 112l-76 224l-39 112q-38 108 -70.5 146t-99.5 45l-41 4l-2 12h629l-8 -12l-33 -2q-98 -7 -122.5 -38.5t1.5 -94.5l158 -471l6 -3l215 289q129 174 148 227q18 50 -23 69q-28 12 -103 20l-43 4l-2 12h461l-8 -12l-55 -6
q-58 -6 -97.5 -30.5t-93 -85t-166.5 -210.5l-225 -305l-2 -6h391l-8 -21h-387l-51 -246h385l4 -20h-393l-62 -291q-1 -6 2 -9t15 -6.5t34 -6.5t62 -7l63 -6l2 -12h-641l6 12l95 8q100 8 104 33l59 285h-383l9 20h379l51 244v2z" />
    <glyph glyph-name="brokenbar" unicode="&#xa6;" horiz-adv-x="313" 
d="M156 598v686h18v-686h-18zM156 -315v686h18v-686h-18z" />
    <glyph glyph-name="section" unicode="&#xa7;" horiz-adv-x="833" 
d="M303 -66q-127 0 -208 46.5t-81 117.5q0 48 32.5 82.5t82.5 34.5q53 0 80.5 -36.5t19 -86t-50.5 -84.5q20 -25 61 -39t78 -14q71 0 120.5 49.5t49.5 104.5q0 61 -52.5 114t-158.5 125q-53 35 -88 62.5t-73 65.5t-57 80.5t-19 88.5q0 88 69 155t177 103q-37 52 -37 125
q0 122 103.5 203.5t240.5 81.5q121 0 198.5 -48t77.5 -120q0 -45 -33.5 -79t-82.5 -34q-55 0 -83.5 37.5t-19.5 88t51 85.5q-21 24 -56 37.5t-66 13.5q-72 0 -119 -48t-47 -105q0 -62 54.5 -118.5t156.5 -123.5q54 -36 88 -62.5t72.5 -64.5t57.5 -80t19 -88q0 -91 -70 -158
t-180 -102q43 -59 43 -129q0 -82 -54 -148t-133 -99.5t-163 -33.5zM602 356q103 52 103 144q0 58 -45.5 104.5t-147.5 114.5q-14 10 -49.5 34.5t-51.5 36.5t-41.5 31.5t-43 36t-31.5 33.5q-100 -53 -100 -141q0 -58 45 -105.5t145 -114.5q6 -5 29 -20.5t30 -20.5t26 -18.5
t27 -20t23.5 -18t24 -19.5t20 -18.5t20.5 -19.5t17 -19z" />
    <glyph glyph-name="dieresis" unicode="&#xa8;" horiz-adv-x="802" 
d="M752 1032q-54 0 -86.5 37.5t-32.5 81.5q0 46 32.5 85.5t86.5 39.5q56 0 88 -39t32 -86q0 -45 -32 -82t-88 -37zM354 1032q-55 0 -88 37.5t-33 81.5q0 46 33 85.5t88 39.5q56 0 88.5 -39.5t32.5 -85.5q0 -45 -32.5 -82t-88.5 -37z" />
    <glyph glyph-name="copyright" unicode="&#xa9;" horiz-adv-x="1441" 
d="M760 -29q-182 0 -335.5 89.5t-243 244t-89.5 336.5t89.5 337t243.5 245t335 90q182 0 336.5 -90t244 -244.5t89.5 -337.5q0 -137 -53 -261t-142.5 -213.5t-213.5 -142.5t-261 -53zM760 -8q176 0 324.5 87t234.5 236.5t86 325.5q0 175 -86 325t-234.5 238t-324.5 88
q-175 0 -323 -88t-234 -238t-86 -325q0 -176 86 -325.5t234 -236.5t323 -87zM786 236q-197 0 -319.5 113t-122.5 284q0 174 122.5 290.5t330.5 116.5q58 0 113 -13.5t87 -33.5l78 27l6 -248h-6l-123 209q-53 43 -155 43q-133 0 -208 -107.5t-75 -275.5q0 -175 80.5 -283
t198.5 -108q98 0 161 46.5t113 141.5l37 72h6l-43 -219l-39 -8q-37 -17 -110 -32t-132 -15z" />
    <glyph glyph-name="ordfeminine" unicode="&#xaa;" horiz-adv-x="806" 
d="M305 573q-66 0 -113.5 45.5t-48.5 116.5q0 107 65 223.5t165 215.5q59 62 120 93t109 31q91 0 72 -186h4l74 180l166 -6l-132 -342l-90 -262l86 -10l105 166l10 -4q-57 -119 -119.5 -190t-103.5 -71q-27 0 -82 38t-55 59q0 53 71 239h-4q-114 -192 -158 -248
q-71 -88 -141 -88zM387 678q86 0 217 268q49 100 49 133q0 56 -37 100t-84 44q-28 0 -57 -29q-54 -54 -105 -186t-51 -228q0 -49 19.5 -75.5t48.5 -26.5z" />
    <glyph glyph-name="guillemotleft" unicode="&#xab;" horiz-adv-x="917" 
d="M809 80l-381 369l6 28l535 350l4 -10l-318 -381l164 -344zM401 100l-374 349l6 28l518 330l6 -10l-301 -361l154 -323z" />
    <glyph glyph-name="logicalnot" unicode="&#xac;" horiz-adv-x="886" 
d="M840 629v-348h-25v323h-792l6 25h811z" />
    <glyph glyph-name="uni00AD" unicode="&#xad;" horiz-adv-x="573" 
d="M39 438l24 82h490l-25 -82h-489z" />
    <glyph glyph-name="registered" unicode="&#xae;" horiz-adv-x="1419" 
d="M760 -29q-182 0 -335.5 89.5t-243 244t-89.5 336.5t89.5 337t243.5 245t335 90q182 0 336.5 -90t244 -244.5t89.5 -337.5q0 -137 -53 -261t-142.5 -213.5t-213.5 -142.5t-261 -53zM760 -8q176 0 324.5 87t234.5 236.5t86 325.5q0 175 -86 325t-234.5 238t-324.5 88
q-175 0 -323 -88t-234 -238t-86 -325q0 -176 86 -325.5t234 -236.5t323 -87zM365 258l2 12l53 6q25 1 42 8t17 13v694q0 6 -12.5 9.5t-58.5 9.5l-39 4l-4 12h352q348 0 348 -203q0 -65 -53.5 -118t-137.5 -72l154 -240q45 -71 74 -91t88 -30l12 -2l4 -12h-278l-10 18
l-205 361q-53 13 -76 22v-366q0 -13 70 -19l45 -4l4 -12h-391zM733 659q80 0 125 46t45 131q0 86 -57.5 129.5t-157.5 38.5l-51 -3v-321q53 -18 96 -21z" />
    <glyph glyph-name="macron" unicode="&#xaf;" horiz-adv-x="755" 
d="M246 1067l39 88h510l-37 -88h-512z" />
    <glyph glyph-name="degree" unicode="&#xb0;" horiz-adv-x="579" 
d="M420 778q-118 0 -190 77.5t-72 188.5q0 110 72 188.5t188 78.5t188 -78.5t72 -188.5q0 -111 -71.5 -188.5t-186.5 -77.5zM420 803q104 0 166.5 69t62.5 172q0 101 -63.5 171.5t-167.5 70.5t-168 -71t-64 -171q0 -102 64.5 -171.5t169.5 -69.5z" />
    <glyph glyph-name="plusminus" unicode="&#xb1;" horiz-adv-x="886" 
d="M440 172v342h-417l4 25h413v354h25v-354h412l4 -25h-416v-342h-25zM860 76h-817l4 24h809z" />
    <glyph glyph-name="twosuperior" unicode="&#xb2;" horiz-adv-x="624" 
d="M-4 518l6 60q231 165 291 215q108 91 135 171q14 42 14 91q-1 64 -41 99.5t-98 35.5q-89 0 -149 -96l-11 6q142 211 295 211q97 0 151 -54.5t54 -132.5q0 -48 -17 -88t-44 -70.5t-76.5 -66.5t-96.5 -65t-124 -78t-140 -94v-3h342q21 0 55.5 35t80.5 117l8 16l6 -2
l-135 -307h-506z" />
    <glyph glyph-name="threesuperior" unicode="&#xb3;" horiz-adv-x="577" 
d="M205 477q-105 0 -166.5 31.5t-61.5 93.5q0 33 26.5 58.5t62.5 25.5q39 0 65.5 -28t28.5 -67.5t-23 -82.5q20 -16 58 -16q77 0 134.5 62.5t57.5 145.5q0 72 -47.5 119t-124.5 47q-37 0 -74 -14l-4 12q159 68 205 99q72 50 72 120q0 48 -32.5 80.5t-88.5 32.5
q-45 0 -92.5 -34t-69.5 -79l-8 7q42 96 118 158.5t167 62.5q83 0 134.5 -43t51.5 -105q0 -137 -234 -213v-4h9q92 -7 144 -60.5t52 -127.5q0 -110 -107.5 -195.5t-252.5 -85.5z" />
    <glyph glyph-name="acute" unicode="&#xb4;" horiz-adv-x="819" 
d="M418 1006l274 383h242l-506 -383h-10z" />
    <glyph glyph-name="mu" unicode="&#xb5;" horiz-adv-x="1050" 
d="M498 -518h-490l6 12l37 2q50 3 68 9t18 22v1309q0 6 -3.5 9t-27 7t-73.5 8l-29 2l-6 12h375l-4 -653q0 -33 11 -55.5t25.5 -34t41.5 -17.5t46 -7t52 -1q86 0 162 58v633q0 36 -19 47t-86 16l-29 2l-6 12h371v-669q0 -60 10 -79t45 -28l76 -16l-2 -8l-360 -107l4 166h-4
q-62 -194 -179 -194q-52 0 -85 37t-70 112h-4v-561q0 -16 18 -22t68 -9l37 -2z" />
    <glyph glyph-name="mu" unicode="&#x3bc;" horiz-adv-x="1050" 
d="M498 -518h-490l6 12l37 2q50 3 68 9t18 22v1309q0 6 -3.5 9t-27 7t-73.5 8l-29 2l-6 12h375l-4 -653q0 -33 11 -55.5t25.5 -34t41.5 -17.5t46 -7t52 -1q86 0 162 58v633q0 36 -19 47t-86 16l-29 2l-6 12h371v-669q0 -60 10 -79t45 -28l76 -16l-2 -8l-360 -107l4 166h-4
q-62 -194 -179 -194q-52 0 -85 37t-70 112h-4v-561q0 -16 18 -22t68 -9l37 -2z" />
    <glyph glyph-name="paragraph" unicode="&#xb6;" horiz-adv-x="884" 
d="M651 -63l119 563h-10q-184 0 -324 44t-219.5 130t-79.5 203q0 192 141 298.5t398 106.5h282l-286 -1345h-21z" />
    <glyph glyph-name="periodcentered" unicode="&#xb7;" horiz-adv-x="442" 
d="M225 340q-57 0 -97 40t-40 97q0 54 40 94.5t95 40.5q56 0 96.5 -41t40.5 -94q0 -56 -40 -96.5t-95 -40.5z" />
    <glyph glyph-name="cedilla" unicode="&#xb8;" horiz-adv-x="794" 
d="M0 -524v10q187 15 266.5 53.5t79.5 112.5q0 31 -17 53.5t-46 34t-60.5 17t-66.5 5.5q-59 0 -107 -10l2 15l264 225h27l-141 -123q123 10 207 -38t84 -124q0 -227 -492 -231z" />
    <glyph glyph-name="onesuperior" unicode="&#xb9;" horiz-adv-x="466" 
d="M27 518l2 8h20q73 0 78 21l145 686l-108 14l4 6l291 50l-162 -758q-1 -5 9.5 -9.5t29 -7t39.5 -2.5h14l2 -8h-364z" />
    <glyph glyph-name="ordmasculine" unicode="&#xba;" horiz-adv-x="694" 
d="M410 567q-108 0 -180 87t-72 214q0 76 33.5 154.5t85 139.5t118.5 99.5t131 38.5q106 0 183 -90.5t77 -218.5q0 -101 -55 -200t-143 -161.5t-178 -62.5zM383 588q57 0 110 71t93 199q47 148 47 277q0 70 -20.5 107.5t-53.5 37.5q-44 0 -104 -85t-103 -218
q-43 -136 -43 -252q0 -64 20 -100.5t54 -36.5z" />
    <glyph glyph-name="guillemotright" unicode="&#xbb;" horiz-adv-x="915" 
d="M373 100l-4 9l299 360l-156 326l10 12l375 -348l-6 -27zM-43 80l-4 8l315 381l-164 346l11 12l383 -368l-6 -27z" />
    <glyph glyph-name="onequarter" unicode="&#xbc;" horiz-adv-x="1314" 
d="M918 -252l36 186h-333l2 15l542 592h90l-106 -496h131l-57 -111h-99l-39 -186h-167zM1053 395l-324 -350h250zM27 518l2 8h20q73 0 78 21l145 686l-108 14l4 6l291 50l-162 -758q-1 -5 9.5 -9.5t29 -7t39.5 -2.5h14l2 -8h-364zM-98 -252l1431 1546h33l-1432 -1546h-32z
" />
    <glyph glyph-name="onehalf" unicode="&#xbd;" horiz-adv-x="1343" 
d="M676 -252l6 59q232 165 293 217q107 91 134 172q13 40 13 89q-1 64 -41 99.5t-98 35.5q-89 0 -149 -96l-11 6q142 211 295 211q97 0 151 -54.5t54 -132.5q0 -48 -17 -88t-44 -70.5t-76.5 -67t-96.5 -65.5t-124 -78t-140 -94v-2h342q21 0 55.5 35t80.5 117l8 16l6 -2
l-135 -307h-506zM27 518l2 8h20q73 0 78 21l145 686l-108 14l4 6l291 50l-162 -758q-1 -5 9.5 -9.5t29 -7t39.5 -2.5h14l2 -8h-364zM-98 -252l1431 1546h33l-1432 -1546h-32z" />
    <glyph glyph-name="threequarters" unicode="&#xbe;" horiz-adv-x="1345" 
d="M946 -252l37 186h-334l2 15l543 592h90l-106 -496h131l-58 -111h-98l-39 -186h-168zM205 477q-105 0 -166.5 31.5t-61.5 93.5q0 33 26.5 58.5t62.5 25.5q39 0 65.5 -28t28.5 -67.5t-23 -82.5q20 -16 58 -16q77 0 134.5 62.5t57.5 145.5q0 72 -47.5 119t-124.5 47
q-37 0 -74 -14l-4 12q159 68 205 99q72 50 72 120q0 48 -32.5 80.5t-88.5 32.5q-45 0 -92.5 -34t-69.5 -79l-8 7q42 96 118 158.5t167 62.5q83 0 134.5 -43t51.5 -105q0 -137 -234 -213v-4h9q92 -7 144 -60.5t52 -127.5q0 -110 -107.5 -195.5t-252.5 -85.5zM-68 -252
l1430 1546h33l-1430 -1546h-33zM1081 395l-323 -350h250z" />
    <glyph glyph-name="questiondown" unicode="&#xbf;" horiz-adv-x="657" 
d="M500 1040q-57 0 -97.5 39t-40.5 92q0 56 40.5 97t95.5 41q57 0 97 -41t40 -97q0 -53 -40 -92t-95 -39zM410 -31q-84 0 -154 33t-114.5 87.5t-68.5 121.5t-24 139q0 135 50 209t171 107q139 34 180.5 56.5t41.5 65.5q0 47 -68 115l12 6q61 -56 99 -121.5t38 -117.5
q0 -74 -65.5 -116t-208.5 -73q-137 -29 -183 -56t-46 -77q0 -69 92.5 -122.5t255.5 -53.5q17 0 98 6q29 -33 29 -76q0 -133 -135 -133z" />
    <glyph glyph-name="Agrave" unicode="&#xc0;" horiz-adv-x="1296" 
d="M702 545h-317l-111 -201q-102 -176 -116 -207q-31 -68 -4 -91q24 -21 129 -30l49 -4l2 -12h-445l7 12l34 4q29 3 46.5 5.5t39 13t34 18.5t35 35t37 48t45.5 71.5t54.5 92.5t69.5 124l360 653l-6 86q66 10 114 47t97 105h33l102 -1034q14 -110 34 -166t47 -76t75 -23
l55 -4l2 -12h-637l6 12l58 4q75 6 93 45t7 142zM399 571h301l-38 467h-7zM850 1348l-350 383h219l145 -383h-14z" />
    <glyph glyph-name="Aacute" unicode="&#xc1;" horiz-adv-x="1296" 
d="M702 545h-317l-111 -201q-102 -176 -116 -207q-31 -68 -4 -91q24 -21 129 -30l49 -4l2 -12h-445l7 12l34 4q29 3 46.5 5.5t39 13t34 18.5t35 35t37 48t45.5 71.5t54.5 92.5t69.5 124l360 653l-6 86q66 10 114 47t97 105h33l102 -1034q14 -110 34 -166t47 -76t75 -23
l55 -4l2 -12h-637l6 12l58 4q75 6 93 45t7 142zM399 571h301l-38 467h-7zM702 1348l275 383h242l-506 -383h-11z" />
    <glyph glyph-name="Acircumflex" unicode="&#xc2;" horiz-adv-x="1296" 
d="M702 545h-317l-111 -201q-102 -176 -116 -207q-31 -68 -4 -91q24 -21 129 -30l49 -4l2 -12h-445l7 12l34 4q29 3 46.5 5.5t39 13t34 18.5t35 35t37 48t45.5 71.5t54.5 92.5t69.5 124l360 653l-6 86q66 10 114 47t97 105h33l102 -1034q14 -110 34 -166t47 -76t75 -23
l55 -4l2 -12h-637l6 12l58 4q75 6 93 45t7 142zM399 571h301l-38 467h-7zM526 1325l363 404h16l195 -404h-15l-219 195h-4l-321 -195h-15z" />
    <glyph glyph-name="Atilde" unicode="&#xc3;" horiz-adv-x="1296" 
d="M702 545h-317l-111 -201q-102 -176 -116 -207q-31 -68 -4 -91q24 -21 129 -30l49 -4l2 -12h-445l7 12l34 4q29 3 46.5 5.5t39 13t34 18.5t35 35t37 48t45.5 71.5t54.5 92.5t69.5 124l360 653l-6 86q66 10 114 47t97 105h33l102 -1034q14 -110 34 -166t47 -76t75 -23
l55 -4l2 -12h-637l6 12l58 4q75 6 93 45t7 142zM399 571h301l-38 467h-7zM987 1360q-43 0 -99 20t-101.5 44.5t-94 44.5t-78.5 20q-19 0 -30 -2.5t-25.5 -13t-25.5 -34t-21 -61.5q-12 0 -14 -2q36 148 75.5 201t120.5 53q42 0 97.5 -20t100 -44.5t93 -44.5t78.5 -20
q18 0 30 3t26.5 13.5t26 34t21.5 60.5q13 0 15 2q-36 -148 -75 -201t-120 -53z" />
    <glyph glyph-name="Adieresis" unicode="&#xc4;" horiz-adv-x="1296" 
d="M702 545h-317l-111 -201q-102 -176 -116 -207q-31 -68 -4 -91q24 -21 129 -30l49 -4l2 -12h-445l7 12l34 4q29 3 46.5 5.5t39 13t34 18.5t35 35t37 48t45.5 71.5t54.5 92.5t69.5 124l360 653l-6 86q66 10 114 47t97 105h33l102 -1034q14 -110 34 -166t47 -76t75 -23
l55 -4l2 -12h-637l6 12l58 4q75 6 93 45t7 142zM399 571h301l-38 467h-7zM1038 1374q-54 0 -86 37t-32 82q0 46 32 85.5t86 39.5q56 0 88.5 -39.5t32.5 -85.5q0 -45 -32.5 -82t-88.5 -37zM641 1374q-55 0 -88 37.5t-33 81.5q0 46 33 85.5t88 39.5q56 0 88.5 -39.5
t32.5 -85.5q0 -45 -32.5 -82t-88.5 -37z" />
    <glyph glyph-name="Aring" unicode="&#xc5;" horiz-adv-x="1296" 
d="M702 545h-317l-111 -201q-102 -176 -116 -207q-31 -68 -4 -91q24 -21 129 -30l49 -4l2 -12h-445l7 12l34 4q38 4 59.5 8t49.5 22.5t45.5 38.5t52.5 73t65.5 107t88.5 159l471 856q-42 23 -66 66t-24 94q0 76 50 130t132 54t132 -54t50 -130q0 -67 -38 -116.5t-103 -61.5
l96 -981q14 -110 34 -166t47 -76t75 -23l55 -4l2 -12h-637l6 12l58 4q75 6 93 45t7 142zM854 1274q73 0 117.5 48t44.5 118q0 69 -44.5 117.5t-117.5 48.5t-117.5 -48.5t-44.5 -117.5q0 -70 44.5 -118t117.5 -48zM399 571h301l-38 465h-7z" />
    <glyph glyph-name="AE" unicode="&#xc6;" horiz-adv-x="1802" 
d="M793 545h-349l-153 -193q-27 -34 -73 -91q-106 -133 -123 -167q-20 -42 14 -58q25 -11 106 -20l35 -4l6 -12h-436l6 12l39 4q40 4 63 8t54.5 20.5t50.5 32.5t61 62t76.5 88.5t105.5 132.5l639 803q18 26 23.5 41.5t-3.5 29t-39 20.5t-85 10l-76 4l-2 12h1008l10 -416
l-14 -2l-6 25q-59 209 -153.5 291.5t-279.5 78.5l-96 -2l-125 -587l90 2q136 6 208 47.5t114 140.5l16 37l15 -2l-109 -487h-14l4 36q7 113 -45 153.5t-211 49.5l-72 4l-131 -620l203 -11q189 3 322.5 101t234.5 282l16 27l13 -2v0l-142 -426h-1106q-1 0 0.5 4t3.5 8l2 4
l95 9q102 8 106 32zM465 571h332l116 555h-4z" />
    <glyph glyph-name="Ccedilla" unicode="&#xc7;" horiz-adv-x="1402" 
d="M727 -23q-190 11 -333 96t-215.5 215.5t-72.5 286.5q0 143 54 275.5t151 234.5t244.5 163t321.5 61q229 0 383 -101l147 43l-55 -383l-13 2l-112 310q-48 45 -129.5 73.5t-163.5 28.5q-105 0 -195.5 -47t-154.5 -126t-109.5 -181t-67.5 -213t-22 -221
q0 -235 110.5 -366.5t309.5 -131.5q251 0 418 268l75 119l9 -2l-105 -358l-69 -3q-55 -16 -159 -30.5t-194 -14.5h-28l-123 -106q123 10 207 -38t84 -124q0 -227 -492 -231v10q187 15 266.5 53.5t79.5 112.5q0 31 -17 53.5t-46 34t-60.5 17t-66.5 5.5q-59 0 -107 -10l2 15z
" />
    <glyph glyph-name="Egrave" unicode="&#xc8;" horiz-adv-x="1247" 
d="M-55 0l6 12l74 8q104 11 108 33l250 1180q1 6 -2 9.5t-15.5 6.5t-34.5 6t-61 7l-51 6l-2 12h969l12 -416l-14 -2l-8 25q-60 210 -153.5 293.5t-277.5 79.5l-98 -3l-123 -589l88 2q137 6 209 47.5t113 140.5l16 37l15 -2l-107 -487h-14l4 36q6 113 -46 153.5t-210 49.5
l-74 4l-131 -620l203 -11q188 3 322 101t235 282l16 27l15 -2l-144 -426h-1089zM848 1348l-350 383h219l145 -383h-14z" />
    <glyph glyph-name="Eacute" unicode="&#xc9;" horiz-adv-x="1247" 
d="M-55 0l6 12l74 8q104 11 108 33l250 1180q1 6 -2 9.5t-15.5 6.5t-34.5 6t-61 7l-51 6l-2 12h969l12 -416l-14 -2l-8 25q-60 210 -153.5 293.5t-277.5 79.5l-98 -3l-123 -589l88 2q137 6 209 47.5t113 140.5l16 37l15 -2l-107 -487h-14l4 36q6 113 -46 153.5t-210 49.5
l-74 4l-131 -620l203 -11q188 3 322 101t235 282l16 27l15 -2l-144 -426h-1089zM659 1348l275 383h242l-506 -383h-11z" />
    <glyph glyph-name="Ecircumflex" unicode="&#xca;" horiz-adv-x="1247" 
d="M-55 0l6 12l74 8q104 11 108 33l250 1180q1 6 -2 9.5t-15.5 6.5t-34.5 6t-61 7l-51 6l-2 12h969l12 -416l-14 -2l-8 25q-60 210 -153.5 293.5t-277.5 79.5l-98 -3l-123 -589l88 2q137 6 209 47.5t113 140.5l16 37l15 -2l-107 -487h-14l4 36q6 113 -46 153.5t-210 49.5
l-74 4l-131 -620l203 -11q188 3 322 101t235 282l16 27l15 -2l-144 -426h-1089zM481 1325l363 404h16l195 -404h-15l-219 195h-4l-321 -195h-15z" />
    <glyph glyph-name="Edieresis" unicode="&#xcb;" horiz-adv-x="1247" 
d="M-55 0l6 12l74 8q104 11 108 33l250 1180q1 6 -2 9.5t-15.5 6.5t-34.5 6t-61 7l-51 6l-2 12h969l12 -416l-14 -2l-8 25q-60 210 -153.5 293.5t-277.5 79.5l-98 -3l-123 -589l88 2q137 6 209 47.5t113 140.5l16 37l15 -2l-107 -487h-14l4 36q6 113 -46 153.5t-210 49.5
l-74 4l-131 -620l203 -11q188 3 322 101t235 282l16 27l15 -2l-144 -426h-1089zM965 1374q-54 0 -86.5 37.5t-32.5 81.5q0 46 32.5 85.5t86.5 39.5q56 0 88 -39t32 -86q0 -45 -32 -82t-88 -37zM567 1374q-55 0 -88 37.5t-33 81.5q0 46 33 85.5t88 39.5q56 0 88.5 -39.5
t32.5 -85.5q0 -45 -32.5 -82t-88.5 -37z" />
    <glyph glyph-name="Igrave" unicode="&#xcc;" horiz-adv-x="739" 
d="M-33 0l6 12l82 8q50 4 76.5 13.5t28.5 19.5l250 1180q1 6 -2 9.5t-15.5 6.5t-34.5 6t-61 7l-57 6l-2 12h620l-8 -12l-80 -8q-100 -8 -104 -33l-250 -1180q-1 -6 2 -9t15 -6.5t34 -6.5t61 -7l56 -6l2 -12h-619zM631 1348l-350 383h219l145 -383h-14z" />
    <glyph glyph-name="Iacute" unicode="&#xcd;" horiz-adv-x="739" 
d="M-33 0l6 12l82 8q50 4 76.5 13.5t28.5 19.5l250 1180q1 6 -2 9.5t-15.5 6.5t-34.5 6t-61 7l-57 6l-2 12h620l-8 -12l-80 -8q-100 -8 -104 -33l-250 -1180q-1 -6 2 -9t15 -6.5t34 -6.5t61 -7l56 -6l2 -12h-619zM453 1348l274 383h242l-506 -383h-10z" />
    <glyph glyph-name="Icircumflex" unicode="&#xce;" horiz-adv-x="739" 
d="M-33 0l6 12l82 8q50 4 76.5 13.5t28.5 19.5l250 1180q1 6 -2 9.5t-15.5 6.5t-34.5 6t-61 7l-57 6l-2 12h620l-8 -12l-80 -8q-100 -8 -104 -33l-250 -1180q-1 -6 2 -9t15 -6.5t34 -6.5t61 -7l56 -6l2 -12h-619zM256 1325l362 404h17l194 -404h-14l-219 195h-4l-322 -195
h-14z" />
    <glyph glyph-name="Idieresis" unicode="&#xcf;" horiz-adv-x="739" 
d="M-33 0l6 12l82 8q50 4 76.5 13.5t28.5 19.5l250 1180q1 6 -2 9.5t-15.5 6.5t-34.5 6t-61 7l-57 6l-2 12h620l-8 -12l-80 -8q-100 -8 -104 -33l-250 -1180q-1 -6 2 -9t15 -6.5t34 -6.5t61 -7l56 -6l2 -12h-619zM768 1374q-54 0 -86.5 37.5t-32.5 81.5q0 46 32.5 85.5
t86.5 39.5q56 0 88.5 -39.5t32.5 -85.5q0 -45 -32.5 -82t-88.5 -37zM371 1374q-55 0 -88 37.5t-33 81.5q0 46 33 85.5t88 39.5q56 0 88.5 -39.5t32.5 -85.5q0 -45 -32.5 -82t-88.5 -37z" />
    <glyph glyph-name="Eth" unicode="&#xd0;" horiz-adv-x="1409" 
d="M256 631h-182l8 24h178l123 578q1 6 -2 9.5t-15.5 6.5t-34.5 6t-61 7l-51 6l-2 12l531 2q161 1 287 -41t205 -116.5t120 -173t41 -214.5q0 -146 -58.5 -279t-164 -235t-265.5 -162.5t-350 -60.5h-618l6 12l78 8q100 11 104 33zM522 655h256l4 -24h-266l-121 -570l133 -41
q113 0 210 43t167 118.5t120 177t74.5 220t24.5 246.5q0 198 -93.5 315t-287.5 117h-94z" />
    <glyph glyph-name="Ntilde" unicode="&#xd1;" horiz-adv-x="1384" 
d="M1049 -12l-637 1112h-4l-215 -1008q-4 -19 6.5 -33.5t49 -26.5t105.5 -18l37 -2l2 -12h-444l6 12l39 2q157 13 172 95l221 1013q-70 126 -192 140l-21 2l-2 16h457l497 -885h4l170 793q4 19 -7 33.5t-50 27t-106 17.5l-35 2l-2 12h444l-8 -12l-39 -2q-154 -11 -170 -95
l-260 -1183h-18zM1049 1360q-43 0 -99 20t-101.5 44.5t-94 44.5t-78.5 20q-19 0 -30.5 -2.5t-26 -13t-25.5 -34t-21 -61.5q-12 0 -14 -2q36 148 75.5 201t121.5 53q53 0 126 -32t139 -64.5t103 -32.5q18 0 30.5 3t27 13.5t26 34t21.5 60.5q12 0 14 2q-37 -148 -75 -201
t-119 -53z" />
    <glyph glyph-name="Ograve" unicode="&#xd2;" horiz-adv-x="1513" 
d="M758 -27q-142 0 -263 49.5t-203 135t-127.5 199.5t-45.5 243q0 133 53.5 260.5t146.5 226.5t231 159.5t296 60.5q142 0 264 -50.5t204 -137t128.5 -202.5t46.5 -245q0 -91 -24.5 -179t-69 -165.5t-110.5 -143t-145.5 -112t-177.5 -73t-204 -26.5zM727 -4q138 0 254 126
t180 322.5t64 409.5q0 194 -93.5 311t-257.5 117q-91 0 -172 -56.5t-138 -148t-99.5 -207t-63 -234.5t-20.5 -228q0 -188 92.5 -300t253.5 -112zM963 1348l-351 383h219l146 -383h-14z" />
    <glyph glyph-name="Oacute" unicode="&#xd3;" horiz-adv-x="1513" 
d="M758 -27q-142 0 -263 49.5t-203 135t-127.5 199.5t-45.5 243q0 133 53.5 260.5t146.5 226.5t231 159.5t296 60.5q142 0 264 -50.5t204 -137t128.5 -202.5t46.5 -245q0 -91 -24.5 -179t-69 -165.5t-110.5 -143t-145.5 -112t-177.5 -73t-204 -26.5zM727 -4q138 0 254 126
t180 322.5t64 409.5q0 194 -93.5 311t-257.5 117q-91 0 -172 -56.5t-138 -148t-99.5 -207t-63 -234.5t-20.5 -228q0 -188 92.5 -300t253.5 -112zM836 1348l274 383h242l-506 -383h-10z" />
    <glyph glyph-name="Ocircumflex" unicode="&#xd4;" horiz-adv-x="1513" 
d="M758 -27q-142 0 -263 49.5t-203 135t-127.5 199.5t-45.5 243q0 133 53.5 260.5t146.5 226.5t231 159.5t296 60.5q142 0 264 -50.5t204 -137t128.5 -202.5t46.5 -245q0 -91 -24.5 -179t-69 -165.5t-110.5 -143t-145.5 -112t-177.5 -73t-204 -26.5zM727 -4q138 0 254 126
t180 322.5t64 409.5q0 194 -93.5 311t-257.5 117q-91 0 -172 -56.5t-138 -148t-99.5 -207t-63 -234.5t-20.5 -228q0 -188 92.5 -300t253.5 -112zM625 1325l362 404h17l194 -404h-14l-219 195h-4l-322 -195h-14z" />
    <glyph glyph-name="Otilde" unicode="&#xd5;" horiz-adv-x="1513" 
d="M758 -27q-142 0 -263 49.5t-203 135t-127.5 199.5t-45.5 243q0 133 53.5 260.5t146.5 226.5t231 159.5t296 60.5q142 0 264 -50.5t204 -137t128.5 -202.5t46.5 -245q0 -91 -24.5 -179t-69 -165.5t-110.5 -143t-145.5 -112t-177.5 -73t-204 -26.5zM727 -4q138 0 254 126
t180 322.5t64 409.5q0 194 -93.5 311t-257.5 117q-91 0 -172 -56.5t-138 -148t-99.5 -207t-63 -234.5t-20.5 -228q0 -188 92.5 -300t253.5 -112zM1098 1360q-43 0 -99 20t-101.5 44.5t-94 44.5t-78.5 20q-19 0 -30 -2.5t-25.5 -13t-25.5 -34t-21 -61.5q-13 0 -15 -2
q36 148 75.5 201t121.5 53q42 0 97.5 -20t100 -44.5t93 -44.5t78.5 -20q18 0 30 3t26.5 13.5t26 34t21.5 60.5q12 0 14 2q-37 -148 -75 -201t-119 -53z" />
    <glyph glyph-name="Odieresis" unicode="&#xd6;" horiz-adv-x="1513" 
d="M758 -27q-142 0 -263 49.5t-203 135t-127.5 199.5t-45.5 243q0 133 53.5 260.5t146.5 226.5t231 159.5t296 60.5q142 0 264 -50.5t204 -137t128.5 -202.5t46.5 -245q0 -91 -24.5 -179t-69 -165.5t-110.5 -143t-145.5 -112t-177.5 -73t-204 -26.5zM727 -4q138 0 254 126
t180 322.5t64 409.5q0 194 -93.5 311t-257.5 117q-91 0 -172 -56.5t-138 -148t-99.5 -207t-63 -234.5t-20.5 -228q0 -188 92.5 -300t253.5 -112zM1141 1374q-54 0 -86.5 37.5t-32.5 81.5q0 46 32.5 85.5t86.5 39.5q56 0 88.5 -39.5t32.5 -85.5q0 -45 -32.5 -82t-88.5 -37z
M743 1374q-55 0 -87.5 37.5t-32.5 81.5q0 46 33 85.5t87 39.5q56 0 88.5 -39.5t32.5 -85.5q0 -45 -32.5 -82t-88.5 -37z" />
    <glyph glyph-name="multiply" unicode="&#xd7;" horiz-adv-x="886" 
d="M807 115l-354 354l-355 -354l-16 16l354 354l-354 355l16 16l355 -354l354 354l16 -16l-354 -355l354 -354z" />
    <glyph glyph-name="Oslash" unicode="&#xd8;" horiz-adv-x="1513" 
d="M1241 1180q117 -88 182.5 -222t65.5 -288q0 -91 -24.5 -179t-69 -165.5t-110.5 -143t-145.5 -112t-177.5 -73t-204 -26.5q-217 0 -379 111l-180 -232h-27l190 244q-116 86 -179.5 218.5t-63.5 287.5q0 133 53.5 259.5t146.5 225.5t231 159.5t296 60.5q219 0 379 -113
l172 219h26zM428 178l735 936q-44 80 -118.5 124t-172.5 44q-91 0 -171.5 -56.5t-137.5 -148.5t-99 -207t-62.5 -234.5t-20.5 -229.5q0 -132 47 -228zM1174 1094l-736 -936q45 -78 119.5 -121t171.5 -43q138 0 253.5 126t179 322.5t63.5 409.5q0 143 -51 242z" />
    <glyph glyph-name="Ugrave" unicode="&#xd9;" horiz-adv-x="1417" 
d="M737 -33q-247 0 -390.5 93t-143.5 274q0 69 24 186q9 45 25 119.5t48.5 231.5t54.5 260.5t22 101.5q1 6 -1.5 9t-14 6.5t-33.5 6.5t-62 7l-65 6l-2 12h641l-9 -12l-90 -8q-100 -11 -104 -33l-148 -695q-22 -113 -22 -186q0 -299 352 -299q148 0 238.5 91.5t130.5 283.5
l164 766q15 65 -166 78l-37 2l-2 12h446l-8 -12l-39 -2q-80 -6 -120.5 -32.5t-47.5 -62.5l-166 -755q-47 -223 -160.5 -336t-314.5 -113zM1014 1348l-350 383h219l145 -383h-14z" />
    <glyph glyph-name="Uacute" unicode="&#xda;" horiz-adv-x="1417" 
d="M737 -33q-247 0 -390.5 93t-143.5 274q0 69 24 186q9 45 25 119.5t48.5 231.5t54.5 260.5t22 101.5q1 6 -1.5 9t-14 6.5t-33.5 6.5t-62 7l-65 6l-2 12h641l-9 -12l-90 -8q-100 -11 -104 -33l-148 -695q-22 -113 -22 -186q0 -299 352 -299q148 0 238.5 91.5t130.5 283.5
l164 766q15 65 -166 78l-37 2l-2 12h446l-8 -12l-39 -2q-80 -6 -120.5 -32.5t-47.5 -62.5l-166 -755q-47 -223 -160.5 -336t-314.5 -113zM866 1348l275 383h241l-505 -383h-11z" />
    <glyph glyph-name="Ucircumflex" unicode="&#xdb;" horiz-adv-x="1417" 
d="M737 -33q-247 0 -390.5 93t-143.5 274q0 69 24 186q9 45 25 119.5t48.5 231.5t54.5 260.5t22 101.5q1 6 -1.5 9t-14 6.5t-33.5 6.5t-62 7l-65 6l-2 12h641l-9 -12l-90 -8q-100 -11 -104 -33l-148 -695q-22 -113 -22 -186q0 -299 352 -299q148 0 238.5 91.5t130.5 283.5
l164 766q15 65 -166 78l-37 2l-2 12h446l-8 -12l-39 -2q-80 -6 -120.5 -32.5t-47.5 -62.5l-166 -755q-47 -223 -160.5 -336t-314.5 -113zM657 1325l363 404h16l195 -404h-14l-220 195h-4l-321 -195h-15z" />
    <glyph glyph-name="Udieresis" unicode="&#xdc;" horiz-adv-x="1417" 
d="M737 -33q-247 0 -390.5 93t-143.5 274q0 69 24 186q9 45 25 119.5t48.5 231.5t54.5 260.5t22 101.5q1 6 -1.5 9t-14 6.5t-33.5 6.5t-62 7l-65 6l-2 12h641l-9 -12l-90 -8q-100 -11 -104 -33l-148 -695q-22 -113 -22 -186q0 -299 352 -299q148 0 238.5 91.5t130.5 283.5
l164 766q15 65 -166 78l-37 2l-2 12h446l-8 -12l-39 -2q-80 -6 -120.5 -32.5t-47.5 -62.5l-166 -755q-47 -223 -160.5 -336t-314.5 -113zM1157 1374q-54 0 -86.5 37.5t-32.5 81.5q0 46 32.5 85.5t86.5 39.5q56 0 88.5 -39.5t32.5 -85.5q0 -45 -32.5 -82t-88.5 -37zM760 1374
q-55 0 -88 37.5t-33 81.5q0 46 33 85.5t88 39.5q56 0 88.5 -39.5t32.5 -85.5q0 -45 -32.5 -82t-88.5 -37z" />
    <glyph glyph-name="Yacute" unicode="&#xdd;" horiz-adv-x="1325" 
d="M248 0l6 12l94 8q50 4 76.5 13.5t28.5 19.5l110 529l-166 491q-38 110 -69.5 147t-100.5 44l-41 4l-2 12h629l-8 -12l-33 -2q-98 -7 -122.5 -38.5t1.5 -92.5l162 -494l6 -2l217 289q131 179 155 225q31 61 0 83q-24 17 -118 28l-43 4l-2 12h461l-8 -12l-54 -6
q-80 -9 -145.5 -70.5t-226.5 -276.5l-228 -303l-118 -565q-1 -6 2 -9t15 -6.5t34 -6.5t61 -7l66 -6l2 -12h-641zM811 1348l274 383h242l-506 -383h-10z" />
    <glyph glyph-name="Thorn" unicode="&#xde;" horiz-adv-x="1204" 
d="M-57 0q-1 0 0.5 4t3.5 8l2 4l90 9q100 8 104 32l250 1172q1 6 -1.5 9t-15 6.5t-34 6t-61.5 6.5l-64 7l-2 16h637q1 0 -1 -4t-5 -8l-2 -4l-88 -9q-101 -8 -105 -32l-45 -205l144 -2q225 0 344.5 -87.5t119.5 -223.5q0 -165 -139.5 -269t-372.5 -104q-121 0 -235 30
l-64 -311q-1 -8 5.5 -12.5t32 -8.5t75.5 -7l84 -7l2 -16h-659zM623 358q94 0 168 57.5t112.5 148.5t38.5 196q0 103 -52 164.5t-157 70.5h-131l-127 -606q90 -31 148 -31z" />
    <glyph glyph-name="germandbls" unicode="&#xdf;" horiz-adv-x="1062" 
d="M741 852q119 -76 197 -206t78 -259q0 -167 -108 -290.5t-259 -123.5q-107 0 -172 55t-65 124q0 58 36 94.5t89 36.5q51 0 81.5 -33t32 -73.5t-27 -77t-82.5 -42.5q7 -21 37 -43t69 -22q78 0 123 84t45 215q0 136 -71.5 277.5t-208.5 252.5v13q159 21 239 98.5t80 224.5
q0 75 -36.5 126.5t-104.5 51.5q-82 0 -126 -80q-37 -65 -84 -269q-1 -6 -24 -107l-147 -646q-44 -187 -94.5 -307t-126.5 -196q-99 -99 -246 -99q-85 0 -139 39.5t-54 102.5q0 45 34 80.5t89 35.5q45 0 79 -32.5t36 -79.5t-43 -99q18 -24 45 -24q42 0 75.5 54t70.5 186.5
t89 384.5l101 501l-182 4l43 95l165 2q68 250 168 363.5t275 113.5q153 0 238 -70.5t85 -187.5q0 -102 -84 -167t-215 -81z" />
    <glyph glyph-name="agrave" unicode="&#xe0;" horiz-adv-x="1005" 
d="M688 -27q-36 0 -106 51t-70 78q0 72 92 306h-4q-135 -228 -184 -294q-87 -118 -166 -134q-15 -3 -31 -3q-86 0 -144.5 59t-58.5 150q0 136 82 283t209 276q158 158 287 158q119 0 94 -239h6l90 233l215 -8l-168 -438l-114 -334l108 -13l133 215l13 -6q-71 -154 -151 -247
t-132 -93zM322 113q107 0 276 342q61 120 61 168q0 72 -46 128t-105 56q-34 0 -74 -37q-68 -69 -130 -235.5t-62 -288.5q0 -64 22 -98.5t58 -34.5zM752 1006l-351 383h220l145 -383h-14z" />
    <glyph glyph-name="aacute" unicode="&#xe1;" horiz-adv-x="1005" 
d="M688 -27q-36 0 -106 51t-70 78q0 72 92 306h-4q-135 -228 -184 -294q-87 -118 -166 -134q-15 -3 -31 -3q-86 0 -144.5 59t-58.5 150q0 136 82 283t209 276q158 158 287 158q119 0 94 -239h6l90 233l215 -8l-168 -438l-114 -334l108 -13l133 215l13 -6q-71 -154 -151 -247
t-132 -93zM322 113q107 0 276 342q61 120 61 168q0 72 -46 128t-105 56q-34 0 -74 -37q-68 -69 -130 -235.5t-62 -288.5q0 -64 22 -98.5t58 -34.5zM543 1006l274 383h242l-506 -383h-10z" />
    <glyph glyph-name="acircumflex" unicode="&#xe2;" horiz-adv-x="1005" 
d="M688 -27q-36 0 -106 51t-70 78q0 72 92 306h-4q-135 -228 -184 -294q-87 -118 -166 -134q-15 -3 -31 -3q-86 0 -144.5 59t-58.5 150q0 136 82 283t209 276q158 158 287 158q119 0 94 -239h6l90 233l215 -8l-168 -438l-114 -334l108 -13l133 215l13 -6q-71 -154 -151 -247
t-132 -93zM322 113q107 0 276 342q61 120 61 168q0 72 -46 128t-105 56q-34 0 -74 -37q-68 -69 -130 -235.5t-62 -288.5q0 -64 22 -98.5t58 -34.5zM313 983l363 403h16l195 -403h-15l-219 195h-4l-321 -195h-15z" />
    <glyph glyph-name="atilde" unicode="&#xe3;" horiz-adv-x="1005" 
d="M688 -27q-36 0 -106 51t-70 78q0 72 92 306h-4q-135 -228 -184 -294q-87 -118 -166 -134q-15 -3 -31 -3q-86 0 -144.5 59t-58.5 150q0 136 82 283t209 276q158 158 287 158q119 0 94 -239h6l90 233l215 -8l-168 -438l-114 -334l108 -13l133 215l13 -6q-71 -154 -151 -247
t-132 -93zM322 113q107 0 276 342q61 120 61 168q0 72 -46 128t-105 56q-34 0 -74 -37q-68 -69 -130 -235.5t-62 -288.5q0 -64 22 -98.5t58 -34.5zM834 1018q-43 0 -99 20t-101.5 44.5t-94 44.5t-78.5 20q-19 0 -30.5 -2.5t-26 -13t-25.5 -34t-21 -61.5q-12 0 -14 -2
q36 148 75.5 201t121.5 53q53 0 126 -32t139 -64.5t103 -32.5q18 0 30.5 3t27 13.5t26 34t21.5 60.5q12 0 14 2q-37 -148 -75 -201t-119 -53z" />
    <glyph glyph-name="adieresis" unicode="&#xe4;" horiz-adv-x="1005" 
d="M688 -27q-36 0 -106 51t-70 78q0 72 92 306h-4q-135 -228 -184 -294q-87 -118 -166 -134q-15 -3 -31 -3q-86 0 -144.5 59t-58.5 150q0 136 82 283t209 276q158 158 287 158q119 0 94 -239h6l90 233l215 -8l-168 -438l-114 -334l108 -13l133 215l13 -6q-71 -154 -151 -247
t-132 -93zM322 113q107 0 276 342q61 120 61 168q0 72 -46 128t-105 56q-34 0 -74 -37q-68 -69 -130 -235.5t-62 -288.5q0 -64 22 -98.5t58 -34.5zM856 1032q-54 0 -86.5 37.5t-32.5 81.5q0 46 32.5 85.5t86.5 39.5q56 0 88.5 -39.5t32.5 -85.5q0 -45 -32.5 -82t-88.5 -37z
M459 1032q-55 0 -88 37.5t-33 81.5q0 46 33 85.5t88 39.5q56 0 88.5 -39.5t32.5 -85.5q0 -45 -32.5 -82t-88.5 -37z" />
    <glyph glyph-name="aring" unicode="&#xe5;" horiz-adv-x="1005" 
d="M659 1020q-82 0 -132 53t-50 131q0 77 50 131t132 54t132.5 -54.5t50.5 -130.5q0 -77 -50.5 -130.5t-132.5 -53.5zM688 -27q-36 0 -106 51t-70 78q0 72 92 306h-4q-135 -228 -184 -294q-87 -118 -166 -134q-15 -3 -31 -3q-86 0 -144.5 59t-58.5 150q0 136 82 283t209 276
q158 158 287 158q119 0 94 -239h6l90 233l215 -8l-168 -438l-114 -334l108 -13l133 215l13 -6q-71 -154 -151 -247t-132 -93zM659 1038q73 0 117.5 48t44.5 118q0 69 -44.5 117.5t-117.5 48.5t-117 -48.5t-44 -117.5q0 -70 44 -118t117 -48zM322 113q107 0 276 342
q61 120 61 168q0 72 -46 128t-105 56q-34 0 -74 -37q-68 -69 -130 -235.5t-62 -288.5q0 -64 22 -98.5t58 -34.5z" />
    <glyph glyph-name="ae" unicode="&#xe6;" horiz-adv-x="1339" 
d="M217 -23q-86 0 -143.5 59t-57.5 150q0 136 82 283t209 276q162 162 285 162q63 0 95 -64t26 -173q78 109 185 173t228 64q102 0 166 -49.5t64 -122.5q0 -102 -124.5 -160.5t-400.5 -103.5q-20 -79 -20 -168q0 -102 39 -152.5t121 -50.5q80 0 143.5 46.5t130.5 166.5
l17 -6q-82 -162 -183 -246t-215 -84q-121 0 -203.5 86t-82.5 216q0 61 6 90q-51 -85 -83.5 -137t-72.5 -106.5t-71 -83t-67 -47t-73 -18.5zM840 492q172 39 248.5 100.5t76.5 171.5q0 117 -78 117q-40 0 -90 -47q-47 -47 -91.5 -141t-69.5 -199zM322 113q107 0 276 342
q61 120 61 168q0 72 -46 128t-105 56q-34 0 -74 -37q-68 -69 -130 -235.5t-62 -288.5q0 -65 21.5 -99t58.5 -34z" />
    <glyph glyph-name="ccedilla" unicode="&#xe7;" horiz-adv-x="755" 
d="M285 -25q-113 5 -190 91t-77 213q0 108 43.5 220t116.5 202.5t178 148t217 57.5q88 0 153 -45t65 -114q0 -61 -36.5 -102.5t-88.5 -41.5q-48 0 -84.5 31.5t-36.5 73.5t26.5 79.5t63.5 49.5q-6 5 -21 18.5t-27 20t-28 6.5q-51 0 -123 -66q-74 -77 -129 -226t-55 -286
q0 -205 151 -205q75 0 129 44.5t125 168.5l17 -6q-163 -320 -363 -332l-123 -106q123 10 207 -38t84 -124q0 -227 -491 -231v10q187 15 266.5 53.5t79.5 112.5q0 40 -31 66t-71.5 35t-88.5 9q-58 0 -106 -10l2 15z" />
    <glyph glyph-name="egrave" unicode="&#xe8;" horiz-adv-x="780" 
d="M303 -25q-121 0 -203 87t-82 217q0 146 74.5 291t203 241t269.5 96q97 0 162.5 -46t65.5 -120q0 -103 -132.5 -168t-388.5 -102q-20 -79 -20 -168q0 -98 42.5 -150.5t121.5 -52.5q78 0 140.5 46t129.5 167l16 -6q-82 -162 -183.5 -247t-215.5 -85zM281 492
q155 29 243 96.5t88 175.5q0 53 -20 85t-57 32q-43 0 -91 -45q-50 -50 -97 -144t-71 -198zM575 1006l-350 383h219l146 -383h-15z" />
    <glyph glyph-name="eacute" unicode="&#xe9;" horiz-adv-x="780" 
d="M303 -25q-121 0 -203 87t-82 217q0 146 74.5 291t203 241t269.5 96q97 0 162.5 -46t65.5 -120q0 -103 -132.5 -168t-388.5 -102q-20 -79 -20 -168q0 -98 42.5 -150.5t121.5 -52.5q78 0 140.5 46t129.5 167l16 -6q-82 -162 -183.5 -247t-215.5 -85zM281 492
q155 29 243 96.5t88 175.5q0 53 -20 85t-57 32q-43 0 -91 -45q-50 -50 -97 -144t-71 -198zM475 1006l275 383h241l-506 -383h-10z" />
    <glyph glyph-name="ecircumflex" unicode="&#xea;" horiz-adv-x="780" 
d="M303 -25q-121 0 -203 87t-82 217q0 146 74.5 291t203 241t269.5 96q97 0 162.5 -46t65.5 -120q0 -103 -132.5 -168t-388.5 -102q-20 -79 -20 -168q0 -98 42.5 -150.5t121.5 -52.5q78 0 140.5 46t129.5 167l16 -6q-82 -162 -183.5 -247t-215.5 -85zM281 492
q155 29 243 96.5t88 175.5q0 53 -20 85t-57 32q-43 0 -91 -45q-50 -50 -97 -144t-71 -198zM246 983l362 403h17l194 -403h-14l-219 195h-4l-322 -195h-14z" />
    <glyph glyph-name="edieresis" unicode="&#xeb;" horiz-adv-x="780" 
d="M303 -25q-121 0 -203 87t-82 217q0 146 74.5 291t203 241t269.5 96q97 0 162.5 -46t65.5 -120q0 -103 -132.5 -168t-388.5 -102q-20 -79 -20 -168q0 -98 42.5 -150.5t121.5 -52.5q78 0 140.5 46t129.5 167l16 -6q-82 -162 -183.5 -247t-215.5 -85zM281 492
q155 29 243 96.5t88 175.5q0 53 -20 85t-57 32q-43 0 -91 -45q-50 -50 -97 -144t-71 -198zM758 1032q-54 0 -86.5 37.5t-32.5 81.5q0 46 32.5 85.5t86.5 39.5q56 0 88.5 -39.5t32.5 -85.5q0 -45 -32.5 -82t-88.5 -37zM360 1032q-55 0 -87.5 37.5t-32.5 81.5q0 46 33 85.5
t87 39.5q56 0 88.5 -39.5t32.5 -85.5q0 -45 -32.5 -82t-88.5 -37z" />
    <glyph glyph-name="igrave" unicode="&#xec;" horiz-adv-x="559" 
d="M223 -27q-33 0 -102.5 46t-69.5 77q0 22 55 169t119.5 311t73.5 190l-129 10l-129 -211l-12 6q72 153 156.5 244.5t146.5 91.5q41 0 104.5 -49.5t63.5 -95.5q0 -31 -52 -170t-117 -298.5t-71 -176.5l113 -13l141 213l10 -6q-75 -152 -161 -245t-140 -93zM455 1006
l-351 383h220l145 -383h-14z" />
    <glyph glyph-name="iacute" unicode="&#xed;" horiz-adv-x="559" 
d="M223 -27q-33 0 -102.5 46t-69.5 77q0 22 55 169t119.5 311t73.5 190l-129 10l-129 -211l-12 6q72 153 156.5 244.5t146.5 91.5q41 0 104.5 -49.5t63.5 -95.5q0 -31 -52 -170t-117 -298.5t-71 -176.5l113 -13l141 213l10 -6q-75 -152 -161 -245t-140 -93zM317 1006
l275 383h242l-506 -383h-11z" />
    <glyph glyph-name="icircumflex" unicode="&#xee;" horiz-adv-x="559" 
d="M143 989l342 400h15l176 -400h-17l-202 193h-4l-295 -193h-15zM223 -27q-33 0 -102.5 46t-69.5 77q0 22 55 169t119.5 311t73.5 190l-129 10l-129 -211l-12 6q72 153 156.5 244.5t146.5 91.5q41 0 104.5 -49.5t63.5 -95.5q0 -31 -52 -170t-117 -298.5t-71 -176.5l113 -13
l141 213l10 -6q-75 -152 -161 -245t-140 -93z" />
    <glyph glyph-name="idieresis" unicode="&#xef;" horiz-adv-x="559" 
d="M223 -27q-33 0 -102.5 46t-69.5 77q0 22 55 169t119.5 311t73.5 190l-129 10l-129 -211l-12 6q72 153 156.5 244.5t146.5 91.5q41 0 104.5 -49.5t63.5 -95.5q0 -31 -52 -170t-117 -298.5t-71 -176.5l113 -13l141 213l10 -6q-75 -152 -161 -245t-140 -93zM651 1032
q-54 0 -86.5 37.5t-32.5 81.5q0 46 32.5 85.5t86.5 39.5q56 0 88.5 -39.5t32.5 -85.5q0 -45 -32.5 -82t-88.5 -37zM254 1032q-55 0 -88 37.5t-33 81.5q0 46 33 85.5t88 39.5q56 0 88.5 -39.5t32.5 -85.5q0 -45 -32.5 -82t-88.5 -37z" />
    <glyph glyph-name="eth" unicode="&#xf0;" horiz-adv-x="870" 
d="M465 1133l-250 -64q-1 0 1 6.5t4 12.5l3 6l228 57q-79 95 -170 141l6 15q158 -40 272 -129l240 61l-2 -25q-215 -53 -215 -55q123 -101 187.5 -249.5t64.5 -319.5q0 -116 -42 -229.5t-109 -197.5t-155.5 -136t-177.5 -52q-137 0 -228 111.5t-91 273.5q0 95 42.5 194
t108.5 175.5t151.5 125t166.5 48.5q59 0 100 -20q-48 136 -135 250zM317 0q72 0 140 89.5t121 252.5q30 90 44.5 186.5t14.5 161.5q0 89 -27 138t-69 49q-57 0 -132 -105.5t-130 -275.5q-56 -177 -56 -320q0 -81 25.5 -128.5t68.5 -47.5z" />
    <glyph glyph-name="ntilde" unicode="&#xf1;" horiz-adv-x="1060" 
d="M731 -27q-34 0 -101 48t-67 81q0 11 6.5 33.5t20 58t27 69.5t35.5 89.5t38 96.5q12 31 40.5 98.5t40 100t11.5 46.5q0 20 -33.5 42t-64.5 22q-41 0 -141 -150t-226 -420l-73 -194l-221 10l116 338l127 428l-100 8l-131 -213l-12 6q71 154 155 246t144 92q34 0 94.5 -54.5
t60.5 -100.5q0 -45 -40.5 -172t-104.5 -281l10 -4q92 180 182.5 329t141.5 199q35 34 78 58t73 24q78 0 133.5 -43.5t55.5 -89.5q0 -80 -99 -325l-133 -332l105 -13l139 215l12 -6q-74 -152 -160 -246t-139 -94zM840 1018q-43 0 -99 20t-101.5 44.5t-94 44.5t-78.5 20
q-19 0 -30 -2.5t-25.5 -13t-25.5 -34t-21 -61.5q-13 0 -15 -2q36 148 75.5 201t121.5 53q53 0 126 -32t139 -64.5t103 -32.5q18 0 30.5 3t27 13.5t26 34t21.5 60.5q12 0 14 2q-37 -148 -75 -201t-119 -53z" />
    <glyph glyph-name="ograve" unicode="&#xf2;" horiz-adv-x="864" 
d="M350 -25q-137 0 -228 111.5t-91 273.5q0 95 42.5 194.5t108.5 176t151.5 125.5t166.5 49q135 0 232 -115t97 -280q0 -127 -70 -252t-182 -204t-227 -79zM317 0q71 0 137 89t119 253q30 90 45 187t15 163q0 90 -25.5 138.5t-66.5 48.5q-57 0 -131.5 -106.5t-130.5 -276.5
q-56 -177 -56 -320q0 -81 25.5 -128.5t68.5 -47.5zM629 1006l-350 383h219l145 -383h-14z" />
    <glyph glyph-name="oacute" unicode="&#xf3;" horiz-adv-x="864" 
d="M350 -25q-137 0 -228 111.5t-91 273.5q0 95 42.5 194.5t108.5 176t151.5 125.5t166.5 49q135 0 232 -115t97 -280q0 -127 -70 -252t-182 -204t-227 -79zM317 0q71 0 137 89t119 253q30 90 45 187t15 163q0 90 -25.5 138.5t-66.5 48.5q-57 0 -131.5 -106.5t-130.5 -276.5
q-56 -177 -56 -320q0 -81 25.5 -128.5t68.5 -47.5zM481 1006l275 383h241l-505 -383h-11z" />
    <glyph glyph-name="ocircumflex" unicode="&#xf4;" horiz-adv-x="864" 
d="M350 -25q-137 0 -228 111.5t-91 273.5q0 95 42.5 194.5t108.5 176t151.5 125.5t166.5 49q135 0 232 -115t97 -280q0 -127 -70 -252t-182 -204t-227 -79zM317 0q71 0 137 89t119 253q30 90 45 187t15 163q0 90 -25.5 138.5t-66.5 48.5q-57 0 -131.5 -106.5t-130.5 -276.5
q-56 -177 -56 -320q0 -81 25.5 -128.5t68.5 -47.5zM272 983l363 403h16l195 -403h-15l-219 195h-4l-321 -195h-15z" />
    <glyph glyph-name="otilde" unicode="&#xf5;" horiz-adv-x="864" 
d="M350 -25q-137 0 -228 111.5t-91 273.5q0 95 42.5 194.5t108.5 176t151.5 125.5t166.5 49q135 0 232 -115t97 -280q0 -127 -70 -252t-182 -204t-227 -79zM317 0q71 0 137 89t119 253q30 90 45 187t15 163q0 90 -25.5 138.5t-66.5 48.5q-57 0 -131.5 -106.5t-130.5 -276.5
q-56 -177 -56 -320q0 -81 25.5 -128.5t68.5 -47.5zM752 1018q-43 0 -99 20t-101.5 44.5t-94 44.5t-78.5 20q-19 0 -30.5 -2.5t-26 -13t-25.5 -34t-21 -61.5q-12 0 -14 -2q36 148 75.5 201t121.5 53q53 0 126 -32t139 -64.5t103 -32.5q18 0 30.5 3t27 13.5t26 34t21.5 60.5
q12 0 14 2q-37 -148 -75 -201t-119 -53z" />
    <glyph glyph-name="odieresis" unicode="&#xf6;" horiz-adv-x="864" 
d="M350 -25q-137 0 -228 111.5t-91 273.5q0 95 42.5 194.5t108.5 176t151.5 125.5t166.5 49q135 0 232 -115t97 -280q0 -127 -70 -252t-182 -204t-227 -79zM317 0q71 0 137 89t119 253q30 90 45 187t15 163q0 90 -25.5 138.5t-66.5 48.5q-57 0 -131.5 -106.5t-130.5 -276.5
q-56 -177 -56 -320q0 -81 25.5 -128.5t68.5 -47.5zM795 1032q-54 0 -86.5 37.5t-32.5 81.5q0 46 32.5 85.5t86.5 39.5q56 0 88 -39t32 -86q0 -45 -32 -82t-88 -37zM397 1032q-55 0 -88 37.5t-33 81.5q0 46 33 85.5t88 39.5q56 0 88.5 -39.5t32.5 -85.5q0 -45 -32.5 -82
t-88.5 -37z" />
    <glyph glyph-name="divide" unicode="&#xf7;" horiz-adv-x="886" 
d="M549 774q0 -40 -28 -70t-70 -30t-71.5 30.5t-29.5 69.5q0 37 29.5 65.5t71.5 28.5t70 -28t28 -66zM860 473h-817l4 25h809zM549 195q0 -39 -28 -69t-70 -30t-71.5 30t-29.5 69q0 37 29.5 65.5t71.5 28.5t70 -28t28 -66z" />
    <glyph glyph-name="oslash" unicode="&#xf8;" horiz-adv-x="864" 
d="M725 797q104 -119 104 -287q0 -127 -70 -252t-182 -204t-227 -79q-118 0 -205 84q0 1 -62.5 -79.5t-125.5 -161.5l-63 -80h-27q17 21 44 56t85 109t96.5 123t38.5 48q-100 114 -100 286q0 95 42.5 194t108.5 175.5t151.5 125t166.5 48.5q116 0 211 -92l284 365h27z
M223 193l410 520q-3 79 -28.5 121.5t-63.5 42.5q-57 0 -132 -105.5t-130 -275.5q-52 -162 -56 -303zM633 680l-410 -520q3 -73 28.5 -115.5t65.5 -42.5q71 0 137 87.5t119 250.5q56 173 60 340z" />
    <glyph glyph-name="ugrave" unicode="&#xf9;" horiz-adv-x="1060" 
d="M741 -27q-33 0 -94 55t-61 101q0 44 40.5 174.5t102.5 280.5l-10 4q-94 -183 -182.5 -331t-139.5 -198q-35 -35 -78 -59.5t-73 -24.5q-79 0 -135 44t-56 90q0 75 101 325l131 334l-105 10l-139 -215l-12 6q76 153 162 246.5t139 93.5q34 0 101.5 -48t66.5 -81
q-1 -12 -7.5 -34t-20 -58t-26.5 -69.5t-35 -88.5t-38 -96q-11 -27 -26 -63.5t-25.5 -62t-20.5 -51t-15 -43t-5 -26.5q0 -21 34 -42t66 -21q41 0 139 148.5t225 418.5l74 197l221 -10l-116 -338l-129 -426l100 -11l133 213l12 -6q-71 -154 -155 -246t-144 -92zM715 1006
l-350 383h219l145 -383h-14z" />
    <glyph glyph-name="uacute" unicode="&#xfa;" horiz-adv-x="1060" 
d="M741 -27q-33 0 -94 55t-61 101q0 44 40.5 174.5t102.5 280.5l-10 4q-94 -183 -182.5 -331t-139.5 -198q-35 -35 -78 -59.5t-73 -24.5q-79 0 -135 44t-56 90q0 75 101 325l131 334l-105 10l-139 -215l-12 6q76 153 162 246.5t139 93.5q34 0 101.5 -48t66.5 -81
q-1 -12 -7.5 -34t-20 -58t-26.5 -69.5t-35 -88.5t-38 -96q-11 -27 -26 -63.5t-25.5 -62t-20.5 -51t-15 -43t-5 -26.5q0 -21 34 -42t66 -21q41 0 139 148.5t225 418.5l74 197l221 -10l-116 -338l-129 -426l100 -11l133 213l12 -6q-71 -154 -155 -246t-144 -92zM584 1006
l274 383h242l-506 -383h-10z" />
    <glyph glyph-name="ucircumflex" unicode="&#xfb;" horiz-adv-x="1060" 
d="M741 -27q-33 0 -94 55t-61 101q0 44 40.5 174.5t102.5 280.5l-10 4q-94 -183 -182.5 -331t-139.5 -198q-35 -35 -78 -59.5t-73 -24.5q-79 0 -135 44t-56 90q0 75 101 325l131 334l-105 10l-139 -215l-12 6q76 153 162 246.5t139 93.5q34 0 101.5 -48t66.5 -81
q-1 -12 -7.5 -34t-20 -58t-26.5 -69.5t-35 -88.5t-38 -96q-11 -27 -26 -63.5t-25.5 -62t-20.5 -51t-15 -43t-5 -26.5q0 -21 34 -42t66 -21q41 0 139 148.5t225 418.5l74 197l221 -10l-116 -338l-129 -426l100 -11l133 213l12 -6q-71 -154 -155 -246t-144 -92zM385 983
l363 403h16l194 -403h-14l-219 195h-4l-322 -195h-14z" />
    <glyph glyph-name="udieresis" unicode="&#xfc;" horiz-adv-x="1060" 
d="M741 -27q-33 0 -94 55t-61 101q0 44 40.5 174.5t102.5 280.5l-10 4q-94 -183 -182.5 -331t-139.5 -198q-35 -35 -78 -59.5t-73 -24.5q-79 0 -135 44t-56 90q0 75 101 325l131 334l-105 10l-139 -215l-12 6q76 153 162 246.5t139 93.5q34 0 101.5 -48t66.5 -81
q-1 -12 -7.5 -34t-20 -58t-26.5 -69.5t-35 -88.5t-38 -96q-11 -27 -26 -63.5t-25.5 -62t-20.5 -51t-15 -43t-5 -26.5q0 -21 34 -42t66 -21q41 0 139 148.5t225 418.5l74 197l221 -10l-116 -338l-129 -426l100 -11l133 213l12 -6q-71 -154 -155 -246t-144 -92zM907 1032
q-54 0 -86.5 37.5t-32.5 81.5q0 46 32.5 85.5t86.5 39.5q56 0 88.5 -39.5t32.5 -85.5q0 -45 -32.5 -82t-88.5 -37zM510 1032q-55 0 -88 37.5t-33 81.5q0 46 33 85.5t88 39.5q56 0 88.5 -39.5t32.5 -85.5q0 -45 -32.5 -82t-88.5 -37z" />
    <glyph glyph-name="yacute" unicode="&#xfd;" horiz-adv-x="909" 
d="M-76 -373q-97 0 -147.5 42t-50.5 110q0 50 37.5 84.5t86.5 34.5q47 0 80.5 -29.5t37 -77t-35.5 -108.5l80 -25q162 39 342 205q7 512 -31.5 724t-136.5 212h-22l-127 -234l-14 6q80 170 99 203q55 97 121 122q29 11 66 11q97 0 152.5 -78t78.5 -264.5t11 -501.5l4 -2
q121 163 197 337t86 319q-60 -47 -110 -42t-82.5 39.5t-33.5 76.5q-2 52 30 87t89 35q61 0 99 -46.5t38 -123.5q0 -191 -123 -427.5t-309 -417.5q-128 -125 -261 -198t-251 -73zM537 1006l274 383h242l-506 -383h-10z" />
    <glyph glyph-name="thorn" unicode="&#xfe;" horiz-adv-x="927" 
d="M-291 -518l6 12l39 2q52 3 69 8t21 21l516 1730q5 17 2.5 32.5t-12.5 15.5l-164 6l4 12l424 35l-41 -131q-64 -208 -117 -369.5t-94 -278.5t-51 -149q-6 -18 -3 -19t11 13q115 264 206.5 374.5t187.5 110.5q93 0 143.5 -81t50.5 -208q0 -155 -76 -305t-202 -245t-262 -95
q-44 0 -84 26t-60 69h-4l-162 -547q-2 -7 7 -12t35.5 -8.5t72.5 -4.5l64 -2l2 -12h-529zM367 -6q53 0 112 59q82 82 145.5 257t63.5 304q0 85 -22 122.5t-66 37.5q-63 0 -138.5 -116.5t-152.5 -311.5q-69 -166 -69 -223q0 -47 38.5 -88t88.5 -41z" />
    <glyph glyph-name="ydieresis" unicode="&#xff;" horiz-adv-x="909" 
d="M-76 -373q-97 0 -147.5 42t-50.5 110q0 50 37.5 84.5t86.5 34.5q47 0 80.5 -29.5t37 -77t-35.5 -108.5l80 -25q162 39 342 205q7 512 -31.5 724t-136.5 212h-22l-127 -234l-14 6q80 170 99 203q55 97 121 122q29 11 66 11q97 0 152.5 -78t78.5 -264.5t11 -501.5l4 -2
q121 163 197 337t86 319q-60 -47 -110 -42t-82.5 39.5t-33.5 76.5q-2 52 30 87t89 35q61 0 99 -46.5t38 -123.5q0 -191 -123 -427.5t-309 -417.5q-128 -125 -261 -198t-251 -73zM829 1032q-54 0 -86 37t-32 82q0 46 32 85.5t86 39.5q56 0 88.5 -39.5t32.5 -85.5
q0 -45 -32.5 -82t-88.5 -37zM432 1032q-55 0 -88 37.5t-33 81.5q0 46 33 85.5t88 39.5q56 0 88.5 -39.5t32.5 -85.5q0 -45 -32.5 -82t-88.5 -37z" />
    <glyph glyph-name="Amacron" unicode="&#x100;" horiz-adv-x="1296" 
d="M702 545h-317l-111 -201q-102 -176 -116 -207q-31 -68 -4 -91q24 -21 129 -30l49 -4l2 -12h-445l7 12l34 4q29 3 46.5 5.5t39 13t34 18.5t35 35t37 48t45.5 71.5t54.5 92.5t69.5 124l360 653l-6 86q66 10 114 47t97 105h33l102 -1034q14 -110 34 -166t47 -76t75 -23
l55 -4l2 -12h-637l6 12l58 4q75 6 93 45t7 142zM399 571h301l-38 467h-7zM561 1438l39 88h510l-37 -88h-512z" />
    <glyph glyph-name="amacron" unicode="&#x101;" horiz-adv-x="1005" 
d="M688 -27q-36 0 -106 51t-70 78q0 72 92 306h-4q-135 -228 -184 -294q-87 -118 -166 -134q-15 -3 -31 -3q-86 0 -144.5 59t-58.5 150q0 136 82 283t209 276q158 158 287 158q119 0 94 -239h6l90 233l215 -8l-168 -438l-114 -334l108 -13l133 215l13 -6q-71 -154 -151 -247
t-132 -93zM322 113q107 0 276 342q61 120 61 168q0 72 -46 128t-105 56q-34 0 -74 -37q-68 -69 -130 -235.5t-62 -288.5q0 -64 22 -98.5t58 -34.5zM434 1067l39 88h510l-37 -88h-512z" />
    <glyph glyph-name="Abreve" unicode="&#x102;" horiz-adv-x="1296" 
d="M702 545h-317l-111 -201q-102 -176 -116 -207q-31 -68 -4 -91q24 -21 129 -30l49 -4l2 -12h-445l7 12l34 4q29 3 46.5 5.5t39 13t34 18.5t35 35t37 48t45.5 71.5t54.5 92.5t69.5 124l360 653l-6 86q66 10 114 47t97 105h33l102 -1034q14 -110 34 -166t47 -76t75 -23
l55 -4l2 -12h-637l6 12l58 4q75 6 93 45t7 142zM399 571h301l-38 467h-7zM793 1366q-213 0 -213 373h16q28 -219 219 -219q194 0 313 219h19q-30 -72 -54.5 -121.5t-58 -101t-67 -81.5t-78.5 -49.5t-96 -19.5z" />
    <glyph glyph-name="abreve" unicode="&#x103;" horiz-adv-x="1005" 
d="M688 -27q-36 0 -106 51t-70 78q0 72 92 306h-4q-135 -228 -184 -294q-87 -118 -166 -134q-15 -3 -31 -3q-86 0 -144.5 59t-58.5 150q0 136 82 283t209 276q158 158 287 158q119 0 94 -239h6l90 233l215 -8l-168 -438l-114 -334l108 -13l133 215l13 -6q-71 -154 -151 -247
t-132 -93zM322 113q107 0 276 342q61 120 61 168q0 72 -46 128t-105 56q-34 0 -74 -37q-68 -69 -130 -235.5t-62 -288.5q0 -64 22 -98.5t58 -34.5zM676 995q-213 0 -213 373h16q28 -219 219 -219q195 0 314 219h18q-30 -72 -54.5 -121.5t-58 -101t-67 -81.5t-78.5 -49.5
t-96 -19.5z" />
    <glyph glyph-name="Aogonek" unicode="&#x104;" horiz-adv-x="1296" 
d="M940 -489q-75 0 -120.5 45t-45.5 120q0 73 51.5 139.5t127 111t167.5 73.5h-553l8 12l56 4q76 6 94.5 45.5t5.5 143.5l-29 340h-317l-111 -201q-101 -178 -113 -204q-32 -69 -7 -92q23 -23 131 -32l47 -4l2 -12h-445l7 12l34 4q29 3 46.5 6t39.5 13.5t34 18t35 35
t37 47.5t45 71.5t54 92.5t70 124l362 653l-8 86q67 11 116 48.5t95 103.5h33l102 -1034q14 -110 34 -166t47 -75t75 -22l55 -6l2 -12q-127 -23 -206.5 -100.5t-79.5 -180.5q0 -58 31 -90t93 -32q27 0 51 8.5t37.5 17.5t40.5 29l3 -4q-40 -56 -99.5 -96.5t-134.5 -40.5z
M399 571h301l-38 467h-5z" />
    <glyph glyph-name="aogonek" unicode="&#x105;" horiz-adv-x="1005" 
d="M561 -489q-74 0 -120 45.5t-46 121.5q0 175 281 297q-46 8 -105 53t-59 74q-3 64 92 306h-4q-135 -228 -184 -294q-87 -118 -166 -134q-15 -3 -31 -3q-86 0 -143.5 59t-57.5 150q0 138 82 286.5t209 275.5q78 78 152 116.5t133 38.5q119 0 94 -237h6l90 231l215 -8
l-168 -436l-114 -336l108 -13l133 215l13 -6q-61 -130 -126 -217t-116 -114q-93 -48 -141.5 -117.5t-48.5 -143.5q0 -58 32.5 -91t94.5 -33q27 0 51 9t36 17t40 29l4 -4q-39 -56 -100 -96.5t-136 -40.5zM659 625q0 71 -46.5 126.5t-104.5 55.5q-34 0 -74 -37
q-68 -69 -130 -235.5t-62 -288.5q0 -64 22 -98.5t58 -34.5q106 0 276 342q61 120 61 170z" />
    <glyph glyph-name="Cacute" unicode="&#x106;" horiz-adv-x="1402" 
d="M813 1376l274 383h242l-506 -383h-10zM780 -25q-155 0 -283.5 48t-213 130.5t-131 191t-46.5 230.5q0 143 54 275.5t151 234.5t244.5 163t321.5 61q229 0 383 -101l147 43l-55 -383l-13 2l-112 310q-48 45 -129.5 73.5t-163.5 28.5q-105 0 -195.5 -47t-154.5 -126
t-109.5 -181t-67.5 -213t-22 -221q0 -235 110.5 -366.5t309.5 -131.5q251 0 418 268l75 119l9 -2l-105 -358l-69 -3q-55 -16 -159 -30.5t-194 -14.5z" />
    <glyph glyph-name="cacute" unicode="&#x107;" horiz-adv-x="755" 
d="M455 1006l274 383h242l-506 -383h-10zM297 -25q-118 0 -198.5 87t-80.5 217q0 108 43.5 220t116.5 202.5t178 148t217 57.5q88 0 153 -45t65 -114q0 -61 -36.5 -102.5t-88.5 -41.5q-48 0 -84.5 31.5t-36.5 73.5t26.5 79.5t63.5 49.5q-6 5 -21 18.5t-27 20t-28 6.5
q-51 0 -123 -66q-74 -77 -129 -226t-55 -286q0 -205 151 -205q75 0 129 44.5t125 168.5l17 -6q-170 -332 -377 -332z" />
    <glyph glyph-name="Ccircumflex" unicode="&#x108;" horiz-adv-x="1402" 
d="M610 1354l363 403h16l195 -403h-15l-219 194h-4l-321 -194h-15zM780 -25q-155 0 -283.5 48t-213 130.5t-131 191t-46.5 230.5q0 143 54 275.5t151 234.5t244.5 163t321.5 61q229 0 383 -101l147 43l-55 -383l-13 2l-112 310q-48 45 -129.5 73.5t-163.5 28.5
q-105 0 -195.5 -47t-154.5 -126t-109.5 -181t-67.5 -213t-22 -221q0 -235 110.5 -366.5t309.5 -131.5q251 0 418 268l75 119l9 -2l-105 -358l-69 -3q-55 -16 -159 -30.5t-194 -14.5z" />
    <glyph glyph-name="ccircumflex" unicode="&#x109;" horiz-adv-x="755" 
d="M233 983l363 403h16l195 -403h-14l-220 195h-4l-321 -195h-15zM297 -25q-118 0 -198.5 87t-80.5 217q0 108 43.5 220t116.5 202.5t178 148t217 57.5q88 0 153 -45t65 -114q0 -61 -36.5 -102.5t-88.5 -41.5q-48 0 -84.5 31.5t-36.5 73.5t26.5 79.5t63.5 49.5
q-6 5 -21 18.5t-27 20t-28 6.5q-51 0 -123 -66q-74 -77 -129 -226t-55 -286q0 -205 151 -205q75 0 129 44.5t125 168.5l17 -6q-170 -332 -377 -332z" />
    <glyph glyph-name="Cdotaccent" unicode="&#x10a;" horiz-adv-x="1402" 
d="M780 -25q-155 0 -283.5 48t-213 130.5t-131 191t-46.5 230.5q0 143 54 275.5t151 234.5t244.5 163t321.5 61q229 0 383 -101l147 43l-55 -383l-13 2l-112 310q-48 45 -129.5 73.5t-163.5 28.5q-105 0 -195.5 -47t-154.5 -126t-109.5 -181t-67.5 -213t-22 -221
q0 -235 110.5 -366.5t309.5 -131.5q251 0 418 268l75 119l9 -2l-105 -358l-69 -3q-55 -16 -159 -30.5t-194 -14.5zM936 1432q-61 0 -98 41.5t-37 91.5q0 52 36.5 95.5t98.5 43.5t98.5 -43.5t36.5 -95.5q0 -51 -36 -92t-99 -41z" />
    <glyph glyph-name="cdotaccent" unicode="&#x10b;" horiz-adv-x="755" 
d="M297 -25q-118 0 -198.5 87t-80.5 217q0 108 43.5 220t116.5 202.5t178 148t217 57.5q88 0 153 -45t65 -114q0 -61 -36.5 -102.5t-88.5 -41.5q-48 0 -84.5 31.5t-36.5 73.5t26.5 79.5t63.5 49.5q-6 5 -21 18.5t-27 20t-28 6.5q-51 0 -123 -66q-74 -77 -129 -226t-55 -286
q0 -205 151 -205q75 0 129 44.5t125 168.5l17 -6q-170 -332 -377 -332zM586 1061q-61 0 -98 41.5t-37 91.5q0 52 36.5 95.5t98.5 43.5t98.5 -43.5t36.5 -95.5q0 -51 -36 -92t-99 -41z" />
    <glyph glyph-name="Ccaron" unicode="&#x10c;" horiz-adv-x="1402" 
d="M891 1354l-195 403h15l219 -194h6l319 194h15l-367 -403h-12zM780 -25q-155 0 -283.5 48t-213 130.5t-131 191t-46.5 230.5q0 143 54 275.5t151 234.5t244.5 163t321.5 61q229 0 383 -101l147 43l-55 -383l-13 2l-112 310q-48 45 -129.5 73.5t-163.5 28.5
q-105 0 -195.5 -47t-154.5 -126t-109.5 -181t-67.5 -213t-22 -221q0 -235 110.5 -366.5t309.5 -131.5q251 0 418 268l75 119l9 -2l-105 -358l-69 -3q-55 -16 -159 -30.5t-194 -14.5z" />
    <glyph glyph-name="ccaron" unicode="&#x10d;" horiz-adv-x="755" 
d="M522 983l-194 403h14l219 -194h6l320 194h14l-366 -403h-13zM297 -25q-118 0 -198.5 87t-80.5 217q0 108 43.5 220t116.5 202.5t178 148t217 57.5q88 0 153 -45t65 -114q0 -61 -36.5 -102.5t-88.5 -41.5q-48 0 -84.5 31.5t-36.5 73.5t26.5 79.5t63.5 49.5q-6 5 -21 18.5
t-27 20t-28 6.5q-51 0 -123 -66q-74 -77 -129 -226t-55 -286q0 -205 151 -205q75 0 129 44.5t125 168.5l17 -6q-170 -332 -377 -332z" />
    <glyph glyph-name="Dcaron" unicode="&#x10e;" horiz-adv-x="1409" 
d="M764 1354l-195 403h15l219 -194h6l319 194h15l-367 -403h-12zM-55 0l6 12l78 8q100 11 104 33l250 1180q1 6 -2 9.5t-15.5 6.5t-34.5 6t-61 7l-51 6l-2 12l531 2q161 1 287 -41t205 -116.5t120 -173t41 -214.5q0 -146 -58.5 -279t-164 -235t-265.5 -162.5t-350 -60.5
h-618zM528 20q113 0 210 43t167 118.5t120 177t74.5 220t24.5 246.5q0 198 -93.5 315t-287.5 117h-94l-254 -1196z" />
    <glyph glyph-name="dcaron" unicode="&#x10f;" horiz-adv-x="1404" 
d="M1155 844l-4 8q111 38 176.5 101t65.5 139q0 25 -7.5 45.5t-24.5 36t-29.5 25t-37 19t-30.5 11.5t-27 8q5 51 41.5 88t95.5 37q73 0 114.5 -50.5t41.5 -121.5q0 -111 -101.5 -209t-273.5 -137zM688 -27q-36 0 -106 51t-70 78q0 72 92 306h-4q-135 -228 -184 -294
q-87 -118 -166 -134q-15 -3 -31 -3q-86 0 -144.5 59t-58.5 150q0 136 82 283t209 276q162 162 285 162q43 0 67.5 -36t28.5 -90t0 -117h6l189 593q5 17 2 32.5t-13 15.5l-182 6l4 12l447 35l-289 -846l-135 -395l108 -13l133 213l13 -6q-71 -152 -151 -245t-132 -93z
M322 113q107 0 276 342q61 120 61 168q0 71 -46.5 127.5t-104.5 56.5q-34 0 -74 -37q-68 -69 -130 -236t-62 -290q0 -63 22 -97t58 -34z" />
    <glyph glyph-name="Dcroat" unicode="&#x110;" horiz-adv-x="1409" 
d="M256 631h-182l8 24h178l123 578q1 6 -2 9.5t-15.5 6.5t-34.5 6t-61 7l-51 6l-2 12l531 2q161 1 287 -41t205 -116.5t120 -173t41 -214.5q0 -146 -58.5 -279t-164 -235t-265.5 -162.5t-350 -60.5h-618l6 12l78 8q100 11 104 33zM522 655h256l4 -24h-266l-121 -570l133 -41
q113 0 210 43t167 118.5t120 177t74.5 220t24.5 246.5q0 198 -93.5 315t-287.5 117h-94z" />
    <glyph glyph-name="dcroat" unicode="&#x111;" horiz-adv-x="1005" 
d="M688 -27q-36 0 -106 51t-70 78q0 72 92 306h-4q-135 -228 -184 -294q-87 -118 -166 -134q-15 -3 -31 -3q-86 0 -144.5 59t-58.5 150q0 136 82 283t209 276q162 162 285 162q43 0 67.5 -36t28.5 -90t0 -117h6l121 385h-207l19 77h213l43 131q5 17 2 32.5t-13 15.5l-182 6
l4 12l447 35l-80 -232h133q-1 -5 -3 -13t-5.5 -25t-6 -28t-1.5 -11l-144 -2l-182 -535l-135 -395l108 -13l133 213l13 -6q-71 -152 -151 -245t-132 -93zM322 113q107 0 276 342q61 120 61 168q0 71 -46.5 127.5t-104.5 56.5q-34 0 -74 -37q-68 -69 -130 -236t-62 -290
q0 -63 22 -97t58 -34z" />
    <glyph glyph-name="Emacron" unicode="&#x112;" horiz-adv-x="1247" 
d="M-55 0l6 12l74 8q104 11 108 33l250 1180q1 6 -2 9.5t-15.5 6.5t-34.5 6t-61 7l-51 6l-2 12h969l12 -416l-14 -2l-8 25q-60 210 -153.5 293.5t-277.5 79.5l-98 -3l-123 -589l88 2q137 6 209 47.5t113 140.5l16 37l15 -2l-107 -487h-14l4 36q6 113 -46 153.5t-210 49.5
l-74 4l-131 -620l203 -11q188 3 322 101t235 282l16 27l15 -2l-144 -426h-1089zM510 1438l39 88h510l-37 -88h-512z" />
    <glyph glyph-name="emacron" unicode="&#x113;" horiz-adv-x="780" 
d="M303 -25q-121 0 -203 87t-82 217q0 146 74.5 291t203 241t269.5 96q97 0 162.5 -46t65.5 -120q0 -103 -132.5 -168t-388.5 -102q-20 -79 -20 -168q0 -98 42.5 -150.5t121.5 -52.5q78 0 140.5 46t129.5 167l16 -6q-82 -162 -183.5 -247t-215.5 -85zM281 492
q155 29 243 96.5t88 175.5q0 53 -20 85t-57 32q-43 0 -91 -45q-50 -50 -97 -144t-71 -198zM250 1067l39 88h510l-37 -88h-512z" />
    <glyph glyph-name="Ebreve" unicode="&#x114;" horiz-adv-x="1247" 
d="M-55 0l6 12l74 8q104 11 108 33l250 1180q1 6 -2 9.5t-15.5 6.5t-34.5 6t-61 7l-51 6l-2 12h969l12 -416l-14 -2l-8 25q-60 210 -153.5 293.5t-277.5 79.5l-98 -3l-123 -589l88 2q137 6 209 47.5t113 140.5l16 37l15 -2l-107 -487h-14l4 36q6 113 -46 153.5t-210 49.5
l-74 4l-131 -620l203 -11q188 3 322 101t235 282l16 27l15 -2l-144 -426h-1089zM788 1366q-213 0 -213 373h17q28 -219 219 -219q194 0 313 219h19q-30 -72 -54.5 -121.5t-58 -100.5t-67.5 -82t-79 -50t-96 -19z" />
    <glyph glyph-name="ebreve" unicode="&#x115;" horiz-adv-x="780" 
d="M303 -25q-121 0 -203 87t-82 217q0 146 74.5 291t203 241t269.5 96q97 0 162.5 -46t65.5 -120q0 -103 -132.5 -168t-388.5 -102q-20 -79 -20 -168q0 -98 42.5 -150.5t121.5 -52.5q78 0 140.5 46t129.5 167l16 -6q-82 -162 -183.5 -247t-215.5 -85zM281 492
q155 29 243 96.5t88 175.5q0 53 -20 85t-57 32q-43 0 -91 -45q-50 -50 -97 -144t-71 -198zM504 995q-213 0 -213 373h16q28 -219 219 -219q195 0 314 219h18q-30 -72 -54.5 -121.5t-58 -101t-67 -81.5t-78.5 -49.5t-96 -19.5z" />
    <glyph glyph-name="Edotaccent" unicode="&#x116;" horiz-adv-x="1247" 
d="M-55 0l6 12l74 8q104 11 108 33l250 1180q1 6 -2 9.5t-15.5 6.5t-34.5 6t-61 7l-51 6l-2 12h969l12 -416l-14 -2l-8 25q-60 210 -153.5 293.5t-277.5 79.5l-98 -3l-123 -589l88 2q137 6 209 47.5t113 140.5l16 37l15 -2l-107 -487h-14l4 36q6 113 -46 153.5t-210 49.5
l-74 4l-131 -620l203 -11q188 3 322 101t235 282l16 27l15 -2l-144 -426h-1089zM784 1432q-61 0 -98 41.5t-37 91.5q0 52 36.5 95.5t98.5 43.5t99 -43.5t37 -95.5q0 -51 -36.5 -92t-99.5 -41z" />
    <glyph glyph-name="edotaccent" unicode="&#x117;" horiz-adv-x="780" 
d="M303 -25q-121 0 -203 87t-82 217q0 146 74.5 291t203 241t269.5 96q97 0 162.5 -46t65.5 -120q0 -103 -132.5 -168t-388.5 -102q-20 -79 -20 -168q0 -98 42.5 -150.5t121.5 -52.5q78 0 140.5 46t129.5 167l16 -6q-82 -162 -183.5 -247t-215.5 -85zM281 492
q155 29 243 96.5t88 175.5q0 53 -20 85t-57 32q-43 0 -91 -45q-50 -50 -97 -144t-71 -198zM573 1061q-61 0 -98 41.5t-37 91.5q0 52 36.5 95.5t98.5 43.5t99 -43.5t37 -95.5q0 -51 -36.5 -92t-99.5 -41z" />
    <glyph glyph-name="Eogonek" unicode="&#x118;" horiz-adv-x="1247" 
d="M760 -489q-73 0 -117.5 49t-44.5 123q0 69 45.5 132t110.5 106t151 79h-960l6 12l76 8q104 11 108 33l250 1180q1 6 -2 9.5t-15.5 6.5t-34.5 6t-61 7l-51 6l-2 12h967l12 -416h-14l-8 25q-40 140 -91.5 219.5t-133 117t-206.5 34.5l-98 -3l-123 -589l88 2
q138 8 209.5 48.5t112.5 139.5l16 37l15 -2l-107 -487l-14 2l4 36q7 111 -45.5 151.5t-210.5 49.5l-74 4l-131 -620l203 -11q189 3 322.5 101t234.5 282l16 27l15 -2l-144 -426h-86q-106 -54 -157.5 -126.5t-51.5 -147.5q0 -62 30.5 -95.5t92.5 -33.5q27 0 51 8.5t37.5 17.5
t40.5 29l2 -4q-97 -137 -233 -137z" />
    <glyph glyph-name="eogonek" unicode="&#x119;" horiz-adv-x="780" 
d="M248 -489q-75 0 -120.5 44.5t-45.5 120.5q0 88 79.5 174t184.5 130q-25 -5 -43 -5q-120 0 -202.5 87.5t-82.5 216.5q0 87 28.5 177.5t80.5 170.5t119 143t150.5 100t168.5 37q97 0 162.5 -46t65.5 -120q0 -103 -132.5 -168t-388.5 -102q-20 -79 -20 -168
q0 -98 42.5 -150.5t121.5 -52.5q78 0 140.5 46t129.5 167l16 -6q-127 -252 -274 -311q-97 -40 -150 -120t-53 -157q0 -58 32.5 -90t94.5 -32q27 0 51 9t36 17t40 29l4 -4q-39 -56 -99.5 -96.5t-135.5 -40.5zM281 492q155 31 243 98.5t88 173.5q0 53 -20 85t-57 32
q-43 0 -91 -45q-50 -50 -97 -144t-71 -198z" />
    <glyph glyph-name="Ecaron" unicode="&#x11a;" horiz-adv-x="1247" 
d="M772 1354l-194 403h14l219 -194h6l320 194h14l-367 -403h-12zM-55 0l6 12l74 8q104 11 108 33l250 1180q1 6 -2 9.5t-15.5 6.5t-34.5 6t-61 7l-51 6l-2 12h969l12 -416l-14 -2l-8 25q-60 210 -153.5 293.5t-277.5 79.5l-98 -3l-123 -589l88 2q137 6 209 47.5t113 140.5
l16 37l15 -2l-107 -487h-14l4 36q6 113 -46 153.5t-210 49.5l-74 4l-131 -620l203 -11q188 3 322 101t235 282l16 27l15 -2l-144 -426h-1089z" />
    <glyph glyph-name="ecaron" unicode="&#x11b;" horiz-adv-x="780" 
d="M508 983l-195 403h15l219 -194h6l319 194h15l-367 -403h-12zM303 -25q-121 0 -203 87t-82 217q0 146 74.5 291t203 241t269.5 96q97 0 162.5 -46t65.5 -120q0 -103 -132.5 -168t-388.5 -102q-20 -79 -20 -168q0 -98 42.5 -150.5t121.5 -52.5q78 0 140.5 46t129.5 167
l16 -6q-82 -162 -183.5 -247t-215.5 -85zM281 492q155 29 243 96.5t88 175.5q0 53 -20 85t-57 32q-43 0 -91 -45q-50 -50 -97 -144t-71 -198z" />
    <glyph glyph-name="Gcircumflex" unicode="&#x11c;" horiz-adv-x="1466" 
d="M594 1354l362 403h17l194 -403h-14l-219 194h-4l-322 -194h-14zM760 -33q-292 0 -474 169t-182 431q0 152 56.5 287.5t157 235.5t246.5 158.5t317 58.5q242 0 395 -97l145 39l-61 -395l-10 2l-115 328q-40 41 -118.5 69.5t-164.5 28.5q-126 0 -234 -66t-180 -176.5
t-112.5 -254t-40.5 -298.5q0 -230 103.5 -363.5t283.5 -133.5q100 0 168 35l100 483q1 7 -11 12.5t-42.5 10t-83.5 8.5l-65 6l-2 12h639l-9 -12l-86 -8q-88 -7 -92 -31l-88 -420l115 23v-11q-118 -52 -272 -91.5t-283 -39.5z" />
    <glyph glyph-name="gcircumflex" unicode="&#x11d;" horiz-adv-x="837" 
d="M207 983l362 403h17l194 -403h-14l-219 195h-4l-322 -195h-14zM258 -496q-203 0 -328 64.5t-125 169.5q0 74 90 140.5t222 98.5v5q-65 35 -101 72.5t-36 86.5q0 63 71 116t156 75v4q-63 42 -99 104.5t-36 134.5q0 131 117.5 233t254.5 99q123 -6 203 -80l268 47l-22 -135
l-227 74v-4q94 -97 94 -205q0 -85 -56 -161.5t-144 -120t-179 -41.5q-90 3 -152 41q-39 -10 -59 -36.5t-20 -58.5q0 -33 36 -50.5t170 -55.5l58 -17q57 -18 101 -35t89 -43t74.5 -55t48 -69t18.5 -86q0 -81 -67.5 -153t-180.5 -115.5t-239 -43.5zM344 303q49 0 92 43
q61 61 96 179t39 212q2 65 -21.5 105.5t-64.5 40.5q-36 0 -86 -43q-59 -59 -96 -177.5t-41 -207.5q-2 -39 6.5 -76t24.5 -53q23 -23 51 -23zM326 -471q108 0 181 54t73 130q0 63 -62.5 108t-167.5 81q-29 11 -99.5 31t-100.5 32q-69 -18 -111.5 -71t-42.5 -127
q0 -108 88.5 -173t241.5 -65z" />
    <glyph glyph-name="Gbreve" unicode="&#x11e;" horiz-adv-x="1466" 
d="M760 -33q-292 0 -474 169t-182 431q0 152 56.5 287.5t157 235.5t246.5 158.5t317 58.5q242 0 395 -97l145 39l-61 -395l-10 2l-115 328q-40 41 -118.5 69.5t-164.5 28.5q-126 0 -234 -66t-180 -176.5t-112.5 -254t-40.5 -298.5q0 -230 103.5 -363.5t283.5 -133.5
q100 0 168 35l100 483q1 7 -11 12.5t-42.5 10t-83.5 8.5l-65 6l-2 12h639l-9 -12l-86 -8q-88 -7 -92 -31l-88 -420l115 23v-11q-118 -52 -272 -91.5t-283 -39.5zM915 1366q-213 0 -213 373h17q28 -219 219 -219q194 0 313 219h19q-30 -72 -54.5 -121.5t-58 -100.5t-67.5 -82
t-79 -50t-96 -19z" />
    <glyph glyph-name="gbreve" unicode="&#x11f;" horiz-adv-x="837" 
d="M258 -496q-203 0 -328 64.5t-125 169.5q0 74 90 140.5t222 98.5v5q-65 35 -101 72.5t-36 86.5q0 63 71 116t156 75v4q-63 42 -99 104.5t-36 134.5q0 131 117.5 233t254.5 99q123 -6 203 -80l268 47l-22 -135l-227 74v-4q94 -97 94 -205q0 -85 -56 -161.5t-144 -120
t-179 -41.5q-90 3 -152 41q-39 -10 -59 -36.5t-20 -58.5q0 -33 36 -50.5t170 -55.5l58 -17q57 -18 101 -35t89 -43t74.5 -55t48 -69t18.5 -86q0 -81 -67.5 -153t-180.5 -115.5t-239 -43.5zM344 303q49 0 92 43q61 61 96 179t39 212q2 65 -21.5 105.5t-64.5 40.5
q-36 0 -86 -43q-59 -59 -96 -177.5t-41 -207.5q-2 -39 6.5 -76t24.5 -53q23 -23 51 -23zM326 -471q108 0 181 54t73 130q0 63 -62.5 108t-167.5 81q-29 11 -99.5 31t-100.5 32q-69 -18 -111.5 -71t-42.5 -127q0 -108 88.5 -173t241.5 -65zM512 995q-213 0 -213 373h16
q28 -219 220 -219q194 0 313 219h18q-30 -72 -54.5 -121.5t-58 -101t-67 -81.5t-78.5 -49.5t-96 -19.5z" />
    <glyph glyph-name="Gdotaccent" unicode="&#x120;" horiz-adv-x="1466" 
d="M760 -33q-292 0 -474 169t-182 431q0 152 56.5 287.5t157 235.5t246.5 158.5t317 58.5q242 0 395 -97l145 39l-61 -395l-10 2l-115 328q-40 41 -118.5 69.5t-164.5 28.5q-126 0 -234 -66t-180 -176.5t-112.5 -254t-40.5 -298.5q0 -230 103.5 -363.5t283.5 -133.5
q100 0 168 35l100 483q1 7 -11 12.5t-42.5 10t-83.5 8.5l-65 6l-2 12h639l-9 -12l-86 -8q-88 -7 -92 -31l-88 -420l115 23v-11q-118 -52 -272 -91.5t-283 -39.5zM934 1432q-61 0 -98 41.5t-37 91.5q0 52 36.5 95.5t98.5 43.5t98.5 -43.5t36.5 -95.5q0 -51 -36 -92t-99 -41z
" />
    <glyph glyph-name="gdotaccent" unicode="&#x121;" horiz-adv-x="837" 
d="M258 -496q-203 0 -328 64.5t-125 169.5q0 74 90 140.5t222 98.5v5q-65 35 -101 72.5t-36 86.5q0 63 71 116t156 75v4q-63 42 -99 104.5t-36 134.5q0 131 117.5 233t254.5 99q123 -6 203 -80l268 47l-22 -135l-227 74v-4q94 -97 94 -205q0 -85 -56 -161.5t-144 -120
t-179 -41.5q-90 3 -152 41q-39 -10 -59 -36.5t-20 -58.5q0 -33 36 -50.5t170 -55.5l58 -17q57 -18 101 -35t89 -43t74.5 -55t48 -69t18.5 -86q0 -81 -67.5 -153t-180.5 -115.5t-239 -43.5zM344 303q49 0 92 43q61 61 96 179t39 212q2 65 -21.5 105.5t-64.5 40.5
q-36 0 -86 -43q-59 -59 -96 -177.5t-41 -207.5q-2 -39 6.5 -76t24.5 -53q23 -23 51 -23zM326 -471q108 0 181 54t73 130q0 63 -62.5 108t-167.5 81q-29 11 -99.5 31t-100.5 32q-69 -18 -111.5 -71t-42.5 -127q0 -108 88.5 -173t241.5 -65zM549 1061q-61 0 -98 41.5t-37 91.5
q0 52 36.5 95.5t98.5 43.5t98.5 -43.5t36.5 -95.5q0 -51 -36 -92t-99 -41z" />
    <glyph glyph-name="Gcommaaccent" unicode="&#x122;" horiz-adv-x="1466" 
d="M864 -322q-20 -89 -119.5 -160.5t-240.5 -78.5l-4 10q90 10 146 54.5t67 105.5q15 70 -40.5 103t-123.5 3q-10 66 39.5 117.5t134.5 42.5q83 -7 121 -63.5t20 -133.5zM760 -33q-292 0 -474 169t-182 431q0 152 56.5 287.5t157 235.5t246.5 158.5t317 58.5q242 0 395 -97
l145 39l-61 -395l-10 2l-115 328q-40 41 -118.5 69.5t-164.5 28.5q-126 0 -234 -66t-180 -176.5t-112.5 -254t-40.5 -298.5q0 -230 103.5 -363.5t283.5 -133.5q100 0 168 35l100 483q1 7 -11 12.5t-42.5 10t-83.5 8.5l-65 6l-2 12h639l-9 -12l-86 -8q-88 -7 -92 -31
l-88 -420l115 23v-11q-118 -52 -272 -91.5t-283 -39.5z" />
    <glyph glyph-name="gcommaaccent" unicode="&#x123;" horiz-adv-x="837" 
d="M436 1221q20 89 120 160.5t241 78.5l4 -10q-90 -10 -146 -54.5t-67 -105.5q-15 -70 40.5 -103t123.5 -3q10 -66 -39.5 -117.5t-134.5 -42.5q-83 7 -121.5 63.5t-20.5 133.5zM258 -496q-203 0 -328 64.5t-125 169.5q0 74 90 140.5t222 98.5v5q-65 35 -101 72.5t-36 86.5
q0 63 71 116t156 75v4q-63 42 -99 104.5t-36 134.5q0 131 117.5 233t254.5 99q123 -6 203 -80l268 47l-22 -135l-227 74v-4q94 -97 94 -205q0 -85 -56 -161.5t-144 -120t-179 -41.5q-90 3 -152 41q-39 -10 -59 -36.5t-20 -58.5q0 -33 36 -50.5t170 -55.5l58 -17
q57 -18 101 -35t89 -43t74.5 -55t48 -69t18.5 -86q0 -81 -67.5 -153t-180.5 -115.5t-239 -43.5zM344 303q49 0 92 43q61 61 96 179t39 212q2 65 -21.5 105.5t-64.5 40.5q-36 0 -86 -43q-59 -59 -96 -177.5t-41 -207.5q-2 -39 6.5 -76t24.5 -53q23 -23 51 -23zM326 -471
q108 0 181 54t73 130q0 63 -62.5 108t-167.5 81q-29 11 -99.5 31t-100.5 32q-69 -18 -111.5 -71t-42.5 -127q0 -108 88.5 -173t241.5 -65z" />
    <glyph glyph-name="Hcircumflex" unicode="&#x124;" horiz-adv-x="1511" 
d="M627 1354l362 403h17l194 -403h-14l-219 194h-4l-322 -194h-14zM-55 0l6 12l78 8q100 8 104 33l250 1180q1 6 -2 9.5t-15.5 6.5t-34.5 6t-61 7l-51 6l-2 12h614l-8 -12l-78 -8q-100 -11 -104 -33l-119 -565h561l123 571q1 6 -1.5 9t-16 6.5t-33.5 6t-61 7.5l-54 6l-2 12
h615l-8 -12l-76 -8q-101 -11 -105 -33l-250 -1180q-1 -6 2 -9.5t15.5 -6.5t34.5 -6t61 -7l51 -6l2 -12h-614l6 12l80 8q100 11 104 33l121 588h-559l-127 -594q-1 -6 2 -9t16 -6.5t33.5 -6l61.5 -7.5l53 -6l2 -12h-614z" />
    <glyph glyph-name="hcircumflex" unicode="&#x125;" horiz-adv-x="1001" 
d="M672 -27q-34 0 -98 48t-64 81q0 11 6.5 33.5t19.5 57.5t27 69.5t36 89t38 97.5q13 33 40.5 99t39.5 98.5t12 45.5q0 21 -33.5 42.5t-64.5 21.5q-41 0 -141 -149t-226 -419l-76 -194l-221 10l119 336l285 917q5 17 2 32.5t-13 15.5l-163 6l4 12l422 35l-41 -131
q-173 -594 -303 -926l10 -6v0q91 180 181 329t142 199q35 34 78.5 58t73.5 24q78 0 133 -43t55 -90q0 -81 -98 -323l-133 -332l104 -13l140 213l12 -6q-74 -150 -163 -244t-142 -94zM168 1354l362 403h17l194 -403h-14l-219 194h-4l-322 -194h-14z" />
    <glyph glyph-name="Hbar" unicode="&#x126;" horiz-adv-x="1511" 
d="M1380 0h-614l6 12l80 8q100 11 104 33l123 588h-561l-127 -594q-1 -6 2 -9t16 -6.5t33.5 -6l61.5 -7.5l53 -6l2 -12h-614l6 12l80 8q100 11 104 33l178 840h-182l35 76h164l55 264q1 6 -2 9.5t-15.5 6.5t-34.5 6t-61 7l-51 6l-2 12h612l-8 -12l-78 -8q-100 -11 -104 -33
l-55 -258h563l57 264q1 6 -2 9t-15 6.5t-34 6.5t-61 7l-54 6l-2 12h615l-8 -12l-76 -8q-101 -11 -105 -33l-55 -258h158l-33 -76h-141l-179 -846q-1 -6 2 -9t16 -6.5t33.5 -6l61.5 -7.5l51 -6zM522 662h561l52 231h-564z" />
    <glyph glyph-name="hbar" unicode="&#x127;" horiz-adv-x="1001" 
d="M170 1049l33 77h127l41 131q5 17 2 32.5t-13 15.5l-163 6l4 12l422 35l-41 -131l-29 -101h217l-31 -77h-207q-135 -447 -253 -748l10 -6v0q91 180 181 329t142 199q35 34 78.5 58t73.5 24q78 0 133 -43t55 -88q0 -83 -98 -325l-133 -332l104 -13l140 213l12 -6
q-74 -150 -163 -244t-142 -94q-34 0 -98 48t-64 81q0 11 6.5 33.5t19.5 57.5t27 69.5t36 89t38 97.5q14 36 41 100.5t39 97.5t12 47q0 20 -33.5 41t-64.5 21q-42 0 -141.5 -149t-225.5 -419l-76 -194l-221 10l119 336q168 524 223 709h-139z" />
    <glyph glyph-name="Imacron" unicode="&#x12a;" horiz-adv-x="739" 
d="M-33 0l6 12l82 8q50 4 76.5 13.5t28.5 19.5l250 1180q1 6 -2 9.5t-15.5 6.5t-34.5 6t-61 7l-57 6l-2 12h620l-8 -12l-80 -8q-100 -8 -104 -33l-250 -1180q-1 -6 2 -9t15 -6.5t34 -6.5t61 -7l56 -6l2 -12h-619zM307 1438l39 88h510l-37 -88h-512z" />
    <glyph glyph-name="imacron" unicode="&#x12b;" horiz-adv-x="559" 
d="M223 -27q-33 0 -102.5 46t-69.5 77q0 22 55 169t119.5 311t73.5 190l-129 10l-129 -211l-12 6q72 153 156.5 244.5t146.5 91.5q41 0 104.5 -49.5t63.5 -95.5q0 -31 -52 -170t-117 -298.5t-71 -176.5l113 -13l141 213l10 -6q-75 -152 -161 -245t-140 -93zM135 1067l39 88
h510l-37 -88h-512z" />
    <glyph glyph-name="Ibreve" unicode="&#x12c;" horiz-adv-x="739" 
d="M-33 0l6 12l82 8q50 4 76.5 13.5t28.5 19.5l250 1180q1 6 -2 9.5t-15.5 6.5t-34.5 6t-61 7l-57 6l-2 12h620l-8 -12l-80 -8q-100 -8 -104 -33l-250 -1180q-1 -6 2 -9t15 -6.5t34 -6.5t61 -7l56 -6l2 -12h-619zM565 1366q-213 0 -213 373h17q28 -219 219 -219
q194 0 313 219h19q-30 -72 -54.5 -121.5t-58 -100.5t-67.5 -82t-79 -50t-96 -19z" />
    <glyph glyph-name="ibreve" unicode="&#x12d;" horiz-adv-x="559" 
d="M223 -27q-33 0 -102.5 46t-69.5 77q0 22 55 169t119.5 311t73.5 190l-129 10l-129 -211l-12 6q72 153 156.5 244.5t146.5 91.5q41 0 104.5 -49.5t63.5 -95.5q0 -31 -52 -170t-117 -298.5t-71 -176.5l113 -13l141 213l10 -6q-75 -152 -161 -245t-140 -93zM389 995
q-213 0 -213 373h17q28 -219 219 -219q194 0 313 219h18q-30 -72 -54.5 -121.5t-58 -101t-67 -81.5t-78.5 -49.5t-96 -19.5z" />
    <glyph glyph-name="Iogonek" unicode="&#x12e;" horiz-adv-x="739" 
d="M324 -489q-75 0 -120.5 45t-45.5 120q0 110 103.5 200t248.5 124h-543l6 12l82 8q50 4 76.5 13.5t28.5 19.5l250 1180q1 6 -2 9.5t-15.5 6.5t-34.5 6t-61 7l-57 6l-2 12h620l-8 -12l-80 -8q-100 -8 -104 -33l-250 -1180q-1 -6 2 -9t15 -6.5t34 -6.5t61 -7l56 -6l2 -12
q-130 -23 -207.5 -103t-77.5 -178q0 -122 125 -122q27 0 51 8.5t37.5 17.5t40.5 29l2 -4q-97 -137 -233 -137z" />
    <glyph glyph-name="iogonek" unicode="&#x12f;" horiz-adv-x="559" 
d="M100 -489q-75 0 -120.5 44.5t-45.5 120.5q0 170 275 299q-43 10 -100.5 51.5t-57.5 69.5q0 22 55.5 169.5t119.5 311t73 191.5l-127 8l-131 -211l-12 6q73 153 157 244.5t146 91.5q41 0 104.5 -49.5t63.5 -95.5q0 -31 -52 -170.5t-116.5 -296.5t-71.5 -178l113 -13
l141 213l10 -6q-63 -127 -132.5 -213t-125.5 -116q-91 -44 -139.5 -118.5t-48.5 -144.5q0 -57 32.5 -89.5t94.5 -32.5q27 0 51 9t36 17t40 29l4 -4q-39 -56 -100 -96.5t-136 -40.5zM639 1208q-1 -65 -38 -109t-87 -44q-56 0 -89.5 35.5t-33.5 87.5q0 65 37.5 109t85.5 44
q59 0 93 -34.5t32 -88.5z" />
    <glyph glyph-name="Idotaccent" unicode="&#x130;" horiz-adv-x="739" 
d="M-33 0l6 12l82 8q50 4 76.5 13.5t28.5 19.5l250 1180q1 6 -2 9.5t-15.5 6.5t-34.5 6t-61 7l-57 6l-2 12h620l-8 -12l-80 -8q-100 -8 -104 -33l-250 -1180q-1 -6 2 -9t15 -6.5t34 -6.5t61 -7l56 -6l2 -12h-619zM608 1432q-61 0 -98 41.5t-37 91.5q0 52 36.5 95.5
t98.5 43.5t98.5 -43.5t36.5 -95.5q0 -51 -36 -92t-99 -41z" />
    <glyph glyph-name="dotlessi" unicode="&#x131;" horiz-adv-x="559" 
d="M223 -27q-33 0 -102.5 46t-69.5 77q0 22 55 169t119.5 311t73.5 190l-129 10l-129 -211l-12 6q72 153 156.5 244.5t146.5 91.5q41 0 104.5 -49.5t63.5 -95.5q0 -31 -52 -170t-117 -298.5t-71 -176.5l113 -13l141 213l10 -6q-75 -152 -161 -245t-140 -93z" />
    <glyph glyph-name="Jcircumflex" unicode="&#x134;" horiz-adv-x="716" 
d="M262 1354l363 403h16l195 -403h-15l-219 194h-4l-322 -194h-14zM-141 -360q-91 0 -143 41.5t-52 103.5q0 57 43.5 99t102.5 42q52 0 86 -30t41.5 -71t-12 -86.5t-64.5 -72.5q96 -20 172.5 84t116.5 301l249 1180q1 7 -2 10.5t-15 7t-34 6.5t-61 7l-58 6l-2 12h621l-8 -12
l-80 -8q-101 -11 -105 -35l-256 -1217q-7 -33 -44 -80.5t-95 -97t-124.5 -92.5t-140.5 -70.5t-136 -27.5z" />
    <glyph glyph-name="jcircumflex" unicode="&#x135;" horiz-adv-x="522" 
d="M336 907q41 0 104.5 -49.5t63.5 -95.5q0 -51 -96 -320t-177 -450q-115 -262 -237 -381q-55 -56 -119.5 -88.5t-126.5 -32.5q-58 0 -106 37.5t-48 99.5q0 46 32.5 80.5t88.5 34.5q36 0 64 -23t39 -55.5t-1 -73.5t-50 -73l102 32q45 48 79 131.5t89 262.5l266 825l-123 8
l-135 -211l-12 6q73 153 157 244.5t146 91.5zM104 983l363 403h16l195 -403h-14l-220 195h-4l-321 -195h-15z" />
    <glyph glyph-name="Kcommaaccent" unicode="&#x136;" horiz-adv-x="1427" 
d="M750 -322q-20 -89 -120 -160.5t-241 -78.5l-4 10q90 10 146 54.5t67 105.5q15 70 -40.5 103t-123.5 3q-10 66 39.5 117.5t134.5 42.5q83 -7 121.5 -63.5t20.5 -133.5zM-53 0l6 12l80 8q96 8 100 33l250 1180q1 6 -1.5 9t-14 6.5t-33 6.5t-60.5 7l-55 6l-4 12h629l-6 -12
l-93 -8q-100 -8 -104 -33l-135 -649l377 315q251 212 288 287q26 52 -30 70q-27 9 -86 14l-62 4l-2 12h541l-6 -12l-49 -4q-23 -2 -44.5 -6.5t-40.5 -10t-43 -18.5t-41.5 -22t-48.5 -32t-50.5 -37.5t-60 -48t-66.5 -55t-80.5 -67.5t-90.5 -76l-26 -23l241 -657
q35 -90 58 -129t45 -51.5t67 -16.5l43 -2l2 -12h-606l6 12l37 2q59 5 80.5 26t15.5 74.5t-45 161.5l-151 414l-182 -149l-105 -494q-1 -6 2 -9t15 -6.5t34 -6.5t62 -7l67 -6l4 -12h-628z" />
    <glyph glyph-name="kcommaaccent" unicode="&#x137;" horiz-adv-x="909" 
d="M451 -322q-20 -89 -120 -160.5t-241 -78.5l-4 10q90 10 146 54.5t67 105.5q15 70 -40.5 103t-123.5 3q-10 66 39.5 117.5t134.5 42.5q83 -7 121.5 -63.5t20.5 -133.5zM604 -25q-35 0 -73.5 14.5t-57.5 33.5q-3 103 -6.5 171t-8.5 123t-11 85t-16 50t-22 26.5t-30 6.5
q-37 0 -43 -18l-148 -473l-225 10q42 105 119 336q52 156 121 385.5t112 380.5l43 151q5 15 2.5 31.5t-12.5 16.5l-164 6l4 12l428 35l-38 -131q-57 -196 -96 -320t-79 -240.5t-55 -164.5q25 8 74 12q249 92 295 148l-2 4q-90 39 -90 125q0 46 37 83t86 37q53 0 88.5 -35.5
t35.5 -87.5q0 -74 -63.5 -126.5t-241.5 -114.5l-90 -33q45 -6 78 -28.5t54.5 -55t37 -85t24.5 -104.5t17 -128l64 -7l129 222l12 -6q-69 -156 -145.5 -251.5t-143.5 -95.5z" />
    <glyph glyph-name="Lacute" unicode="&#x139;" horiz-adv-x="1200" 
d="M432 1376l275 383h241l-506 -383h-10zM-55 0l6 12l82 8q96 10 100 33l250 1180q1 6 -1.5 9t-14 6.5t-33 6.5t-60.5 7l-55 6l-2 12h647l-8 -12l-111 -8q-42 -4 -72 -14t-32 -19l-254 -1198l176 -11q114 0 203 44.5t165 132.5t169 245l14 27h14l-133 -467h-1050z" />
    <glyph glyph-name="lacute" unicode="&#x13a;" horiz-adv-x="509" 
d="M348 1378l275 383h241l-506 -383h-10zM172 -27q-20 0 -61.5 22.5t-74 53.5t-26.5 51l350 1157q5 17 2.5 32.5t-12.5 15.5l-164 6l4 12l420 35l-389 -1241l101 -13l139 213l12 -6q-76 -152 -161.5 -245t-139.5 -93z" />
    <glyph glyph-name="Lcommaaccent" unicode="&#x13b;" horiz-adv-x="1200" 
d="M645 -322q-20 -89 -119.5 -160.5t-240.5 -78.5l-4 10q90 10 146 54.5t67 105.5q15 70 -40.5 103t-123.5 3q-10 66 39.5 117.5t134.5 42.5q83 -7 121 -63.5t20 -133.5zM-55 0l6 12l82 8q96 10 100 33l250 1180q1 6 -1.5 9t-14 6.5t-33 6.5t-60.5 7l-55 6l-2 12h647l-8 -12
l-111 -8q-42 -4 -72 -14t-32 -19l-254 -1198l176 -11q114 0 203 44.5t165 132.5t169 245l14 27h14l-133 -467h-1050z" />
    <glyph glyph-name="lcommaaccent" unicode="&#x13c;" horiz-adv-x="509" 
d="M248 -322q-20 -89 -120 -160.5t-241 -78.5l-4 10q90 10 146 54.5t67 105.5q15 70 -40.5 103t-123.5 3q-10 66 39.5 117.5t134.5 42.5q83 -7 121.5 -63.5t20.5 -133.5zM172 -27q-20 0 -61.5 22.5t-74 53.5t-26.5 51l350 1157q5 17 2.5 32.5t-12.5 15.5l-164 6l4 12l420 35
l-389 -1241l101 -13l139 213l12 -6q-76 -152 -161.5 -245t-139.5 -93z" />
    <glyph glyph-name="Lcaron" unicode="&#x13d;" horiz-adv-x="1400" 
d="M1149 786l-4 9q111 38 176 100.5t65 138.5q0 29 -13.5 54t-28.5 39t-42 27t-38 16.5t-33 9.5q5 51 41.5 88t95.5 37q73 0 114.5 -50.5t41.5 -121.5q0 -111 -101.5 -209.5t-273.5 -137.5zM-55 0l6 12l82 8q96 10 100 33l250 1180q1 6 -1.5 9t-14 6.5t-33 6.5t-60.5 7
l-55 6l-2 12h647l-8 -12l-111 -8q-42 -4 -72 -14t-32 -19l-254 -1198l176 -11q114 0 203 44.5t165 132.5t169 245l14 27h14l-133 -467h-1050z" />
    <glyph glyph-name="lcaron" unicode="&#x13e;" horiz-adv-x="909" 
d="M627 850l-4 8q111 38 176 101t65 139q0 29 -13.5 54t-28 38.5t-42.5 26.5t-38 16t-33 10q5 51 41.5 88t95.5 37q73 0 114 -50.5t41 -121.5q0 -111 -101 -209t-273 -137zM172 -27q-20 0 -61.5 22.5t-74 53.5t-26.5 51l350 1157q5 17 2.5 32.5t-12.5 15.5l-164 6l4 12
l420 35l-389 -1241l101 -13l139 213l12 -6q-76 -152 -161.5 -245t-139.5 -93z" />
    <glyph glyph-name="Ldot" unicode="&#x13f;" horiz-adv-x="1355" 
d="M-55 0l6 12l82 8q96 10 100 33l250 1180q1 6 -1.5 9t-14 6.5t-33 6.5t-60.5 7l-55 6l-2 12h647l-8 -12l-111 -8q-42 -4 -72 -14t-32 -19l-254 -1198l176 -11q114 0 203 44.5t165 132.5t169 245l14 27h14l-133 -467h-1050zM1354 502q-57 0 -97 40t-40 97q0 54 40 94.5
t95 40.5q56 0 96.5 -41t40.5 -94q0 -56 -40 -96.5t-95 -40.5z" />
    <glyph glyph-name="ldotaccent" unicode="&#x140;" horiz-adv-x="864" 
d="M172 -27q-20 0 -61.5 22.5t-74 53.5t-26.5 51l350 1157q5 17 2.5 32.5t-12.5 15.5l-164 6l4 12l420 35l-389 -1241l101 -13l139 213l12 -6q-76 -152 -161.5 -245t-139.5 -93zM727 442q-57 0 -97 40.5t-40 97.5q0 54 40 94.5t95 40.5q56 0 96.5 -41t40.5 -94
q0 -56 -40 -97t-95 -41z" />
    <glyph glyph-name="Lslash" unicode="&#x141;" horiz-adv-x="1155" 
d="M246 575l-215 -65l8 25l213 65l133 633q1 6 -2 9.5t-15.5 6.5t-34.5 6t-61 7l-65 6l-2 12h661l-8 -12l-110 -8q-42 -4 -72.5 -14t-32.5 -19l-115 -541l226 70l-2 -25q-228 -69 -230 -69l-133 -633l164 -11q168 0 284 95t255 327l14 27h14l-139 -467h-1049l7 12l92 8
q100 11 104 33z" />
    <glyph glyph-name="lslash" unicode="&#x142;" horiz-adv-x="503" 
d="M170 537l-166 -50l8 23l164 51l211 696q5 17 2.5 32.5t-12.5 15.5l-164 6l4 12l422 35l-227 -725l145 45v-23l-154 -47l-153 -491l100 -13l139 213l13 -6q-75 -151 -160.5 -244.5t-138.5 -93.5q-35 0 -105.5 48.5t-60.5 78.5q8 28 22 73.5t43 141.5t48.5 159.5t19.5 62.5
z" />
    <glyph glyph-name="Nacute" unicode="&#x143;" horiz-adv-x="1384" 
d="M807 1376l274 383h242l-506 -383h-10zM1049 -12l-637 1112h-4l-215 -1008q-4 -19 6.5 -33.5t49 -26.5t105.5 -18l37 -2l2 -12h-444l6 12l39 2q157 13 172 95l221 1013q-70 126 -192 140l-21 2l-2 16h457l497 -885h4l170 793q4 19 -7 33.5t-50 27t-106 17.5l-35 2l-2 12
h444l-8 -12l-39 -2q-154 -11 -170 -95l-260 -1183h-18z" />
    <glyph glyph-name="nacute" unicode="&#x144;" horiz-adv-x="1060" 
d="M575 1006l275 383h242l-506 -383h-11zM731 -27q-34 0 -101 48t-67 81q0 11 6.5 33.5t20 58t27 69.5t35.5 89.5t38 96.5q12 31 40.5 98.5t40 100t11.5 46.5q0 20 -33.5 42t-64.5 22q-41 0 -141 -150t-226 -420l-73 -194l-221 10l116 338l127 428l-100 8l-131 -213l-12 6
q71 154 155 246t144 92q34 0 94.5 -54.5t60.5 -100.5q0 -45 -40.5 -172t-104.5 -281l10 -4q92 180 182.5 329t141.5 199q35 34 78 58t73 24q78 0 133.5 -43.5t55.5 -89.5q0 -80 -99 -325l-133 -332l105 -13l139 215l12 -6q-74 -152 -160 -246t-139 -94z" />
    <glyph glyph-name="Ncommaaccent" unicode="&#x145;" horiz-adv-x="1384" 
d="M748 -322q-20 -89 -120 -160.5t-241 -78.5l-4 10q90 10 146 54.5t67 105.5q15 70 -40.5 103t-123.5 3q-10 66 39.5 117.5t134.5 42.5q83 -7 121.5 -63.5t20.5 -133.5zM1049 -12l-637 1112h-4l-215 -1008q-4 -19 6.5 -33.5t49 -26.5t105.5 -18l37 -2l2 -12h-444l6 12l39 2
q157 13 172 95l221 1013q-70 126 -192 140l-21 2l-2 16h457l497 -885h4l170 793q4 19 -7 33.5t-50 27t-106 17.5l-35 2l-2 12h444l-8 -12l-39 -2q-154 -11 -170 -95l-260 -1183h-18z" />
    <glyph glyph-name="ncommaaccent" unicode="&#x146;" horiz-adv-x="1060" 
d="M537 -322q-20 -89 -120 -160.5t-241 -78.5l-4 10q90 10 146 54.5t67 105.5q15 70 -40.5 103t-123.5 3q-10 66 39.5 117.5t134.5 42.5q83 -7 121.5 -63.5t20.5 -133.5zM731 -27q-34 0 -101 48t-67 81q0 11 6.5 33.5t20 58t27 69.5t35.5 89.5t38 96.5q12 31 40.5 98.5
t40 100t11.5 46.5q0 20 -33.5 42t-64.5 22q-41 0 -141 -150t-226 -420l-73 -194l-221 10l116 338l127 428l-100 8l-131 -213l-12 6q71 154 155 246t144 92q34 0 94.5 -54.5t60.5 -100.5q0 -45 -40.5 -172t-104.5 -281l10 -4q92 180 182.5 329t141.5 199q35 34 78 58t73 24
q78 0 133.5 -43.5t55.5 -89.5q0 -80 -99 -325l-133 -332l105 -13l139 215l12 -6q-74 -152 -160 -246t-139 -94z" />
    <glyph glyph-name="Ncaron" unicode="&#x147;" horiz-adv-x="1384" 
d="M895 1354l-195 403h15l219 -194h6l320 194h14l-367 -403h-12zM1049 -12l-637 1112h-4l-215 -1008q-4 -19 6.5 -33.5t49 -26.5t105.5 -18l37 -2l2 -12h-444l6 12l39 2q157 13 172 95l221 1013q-70 126 -192 140l-21 2l-2 16h457l497 -885h4l170 793q4 19 -7 33.5t-50 27
t-106 17.5l-35 2l-2 12h444l-8 -12l-39 -2q-154 -11 -170 -95l-260 -1183h-18z" />
    <glyph glyph-name="ncaron" unicode="&#x148;" horiz-adv-x="1060" 
d="M616 983l-194 403h14l219 -194h7l319 194h14l-366 -403h-13zM731 -27q-34 0 -101 48t-67 81q0 11 6.5 33.5t20 58t27 69.5t35.5 89.5t38 96.5q12 31 40.5 98.5t40 100t11.5 46.5q0 20 -33.5 42t-64.5 22q-41 0 -141 -150t-226 -420l-73 -194l-221 10l116 338l127 428
l-100 8l-131 -213l-12 6q71 154 155 246t144 92q34 0 94.5 -54.5t60.5 -100.5q0 -45 -40.5 -172t-104.5 -281l10 -4q92 180 182.5 329t141.5 199q35 34 78 58t73 24q78 0 133.5 -43.5t55.5 -89.5q0 -80 -99 -325l-133 -332l105 -13l139 215l12 -6q-74 -152 -160 -246
t-139 -94z" />
    <glyph glyph-name="Omacron" unicode="&#x14c;" horiz-adv-x="1513" 
d="M676 1438l39 88h510l-37 -88h-512zM758 -27q-142 0 -263 49.5t-203 135t-127.5 199.5t-45.5 243q0 133 53.5 260.5t146.5 226.5t231 159.5t296 60.5q142 0 264 -50.5t204 -137t128.5 -202.5t46.5 -245q0 -91 -24.5 -179t-69 -165.5t-110.5 -143t-145.5 -112t-177.5 -73
t-204 -26.5zM727 -4q138 0 254 126t180 322.5t64 409.5q0 194 -93.5 311t-257.5 117q-91 0 -172 -56.5t-138 -148t-99.5 -207t-63 -234.5t-20.5 -228q0 -188 92.5 -300t253.5 -112z" />
    <glyph glyph-name="omacron" unicode="&#x14d;" horiz-adv-x="864" 
d="M285 1067l39 88h510l-37 -88h-512zM350 -25q-137 0 -228 111.5t-91 273.5q0 95 42.5 194.5t108.5 176t151.5 125.5t166.5 49q135 0 232 -115t97 -280q0 -127 -70 -252t-182 -204t-227 -79zM317 0q71 0 137 89t119 253q30 90 45 187t15 163q0 90 -25.5 138.5t-66.5 48.5
q-57 0 -131.5 -106.5t-130.5 -276.5q-56 -177 -56 -320q0 -81 25.5 -128.5t68.5 -47.5z" />
    <glyph glyph-name="Obreve" unicode="&#x14e;" horiz-adv-x="1513" 
d="M758 -27q-142 0 -263 49.5t-203 135t-127.5 199.5t-45.5 243q0 133 53.5 260.5t146.5 226.5t231 159.5t296 60.5q142 0 264 -50.5t204 -137t128.5 -202.5t46.5 -245q0 -91 -24.5 -179t-69 -165.5t-110.5 -143t-145.5 -112t-177.5 -73t-204 -26.5zM727 -4q138 0 254 126
t180 322.5t64 409.5q0 194 -93.5 311t-257.5 117q-91 0 -172 -56.5t-138 -148t-99.5 -207t-63 -234.5t-20.5 -228q0 -188 92.5 -300t253.5 -112zM926 1366q-213 0 -213 373h16q28 -219 219 -219q195 0 314 219h18q-30 -72 -54.5 -121.5t-58 -101t-67 -81.5t-78.5 -49.5
t-96 -19.5z" />
    <glyph glyph-name="obreve" unicode="&#x14f;" horiz-adv-x="864" 
d="M350 -25q-137 0 -228 111.5t-91 273.5q0 95 42.5 194.5t108.5 176t151.5 125.5t166.5 49q135 0 232 -115t97 -280q0 -127 -70 -252t-182 -204t-227 -79zM317 0q71 0 137 89t119 253q30 90 45 187t15 163q0 90 -25.5 138.5t-66.5 48.5q-57 0 -131.5 -106.5t-130.5 -276.5
q-56 -177 -56 -320q0 -81 25.5 -128.5t68.5 -47.5zM545 995q-213 0 -213 373h16q28 -219 219 -219q195 0 314 219h18q-30 -72 -54.5 -121.5t-58 -101t-67 -81.5t-78.5 -49.5t-96 -19.5z" />
    <glyph glyph-name="Ohungarumlaut" unicode="&#x150;" horiz-adv-x="1513" 
d="M1036 1376l275 383h227l-489 -383h-13zM678 1376l274 383h226l-492 -383h-8zM758 -27q-142 0 -263 49.5t-203 135t-127.5 199.5t-45.5 243q0 133 53.5 260.5t146.5 226.5t231 159.5t296 60.5q142 0 264 -50.5t204 -137t128.5 -202.5t46.5 -245q0 -91 -24.5 -179
t-69 -165.5t-110.5 -143t-145.5 -112t-177.5 -73t-204 -26.5zM727 -4q138 0 254 126t180 322.5t64 409.5q0 194 -93.5 311t-257.5 117q-91 0 -172 -56.5t-138 -148t-99.5 -207t-63 -234.5t-20.5 -228q0 -188 92.5 -300t253.5 -112z" />
    <glyph glyph-name="ohungarumlaut" unicode="&#x151;" horiz-adv-x="864" 
d="M664 1006l274 383h227l-489 -383h-12zM305 1006l275 383h225l-492 -383h-8zM350 -25q-137 0 -228 111.5t-91 273.5q0 95 42.5 194.5t108.5 176t151.5 125.5t166.5 49q135 0 232 -115t97 -280q0 -127 -70 -252t-182 -204t-227 -79zM317 0q71 0 137 89t119 253
q30 90 45 187t15 163q0 90 -25.5 138.5t-66.5 48.5q-57 0 -131.5 -106.5t-130.5 -276.5q-56 -177 -56 -320q0 -81 25.5 -128.5t68.5 -47.5z" />
    <glyph glyph-name="OE" unicode="&#x152;" horiz-adv-x="1982" 
d="M758 0q-170 0 -299.5 50t-204.5 136t-107 197.5t-18 239.5q15 137 79.5 256.5t170 208.5t256 140.5t326.5 51.5h960l12 -416l-14 -2l-8 25q-40 141 -91.5 220.5t-132.5 116t-206 33.5l-88 -2l-123 -587l78 2q137 6 208.5 47.5t112.5 140.5l17 37l14 -2l-107 -487h-14
l4 36q7 113 -45 153.5t-211 49.5l-63 4l-131 -618l192 -13q188 3 322 101t235 282l16 27l15 -2l-144 -426h-1011zM780 23l90 2l254 1198l-131 37q-164 0 -291.5 -94.5t-199.5 -251.5t-92 -359q-9 -86 -6 -164t30 -145.5t70 -117t114 -77.5t162 -28z" />
    <glyph glyph-name="oe" unicode="&#x153;" horiz-adv-x="1339" 
d="M350 -25q-136 0 -227.5 111t-91.5 274q0 126 69.5 253.5t179.5 209.5t220 82q86 0 155.5 -50.5t108.5 -137.5q76 89 169.5 139.5t192.5 50.5q100 0 165 -48t65 -124q0 -102 -124.5 -160.5t-400.5 -103.5q-20 -79 -20 -168q0 -203 160 -203q80 0 143.5 46.5t130.5 166.5
l17 -6q-82 -162 -184 -247t-216 -85q-76 0 -134 37.5t-91 102.5q-62 -65 -136.5 -102.5t-150.5 -37.5zM840 492q172 39 248.5 100.5t76.5 171.5q0 53 -20 85t-58 32q-40 0 -90 -47q-47 -47 -91.5 -141t-69.5 -199zM317 0q71 0 137 89t119 253q30 90 45 187t15 163
q0 90 -24.5 138.5t-67.5 48.5q-57 0 -131.5 -106.5t-130.5 -276.5q-56 -177 -56 -320q0 -81 26 -128.5t68 -47.5z" />
    <glyph glyph-name="Racute" unicode="&#x154;" horiz-adv-x="1329" 
d="M651 1376l275 383h241l-505 -383h-11zM-68 0l7 12l90 8q43 4 72.5 14t31.5 19l250 1180q1 6 -2 9t-15 6.5t-34 6.5t-62 7l-63 6l-2 12h592q211 0 347 -84.5t136 -226.5q0 -136 -114.5 -222.5t-301.5 -89.5l178 -421q52 -125 91.5 -167.5t117.5 -52.5l21 -4l4 -12h-426
l-242 662q-13 5 -78 36l-139 -651q-3 -20 113 -29l76 -4l2 -14h-650zM702 684q138 0 224 96t86 238q0 106 -70.5 172.5t-196.5 66.5h-96l-114 -540q101 -33 167 -33z" />
    <glyph glyph-name="racute" unicode="&#x155;" horiz-adv-x="868" 
d="M473 1006l275 383h241l-506 -383h-10zM246 -6l-223 10l116 338l127 428l-100 8l-131 -213l-12 6q72 155 152 246.5t140 91.5q34 0 98 -55t64 -100q0 -55 -108 -342q-10 -27 -15 -41h6q117 231 172.5 329.5t102.5 143.5q71 68 141 65q65 -2 110 -47t44 -110
q-3 -65 -43.5 -110t-95.5 -44q-56 2 -87 40.5t-21 88.5t60 82l-61 22q-35 -16 -69.5 -59.5t-94.5 -147.5t-174 -323z" />
    <glyph glyph-name="Rcommaaccent" unicode="&#x156;" horiz-adv-x="1329" 
d="M793 -322q-20 -89 -120 -160.5t-241 -78.5l-4 10q90 10 146 54.5t67 105.5q15 70 -40.5 103t-123.5 3q-10 66 39.5 117.5t134.5 42.5q83 -7 121.5 -63.5t20.5 -133.5zM-68 0l7 12l90 8q43 4 72.5 14t31.5 19l250 1180q1 6 -2 9t-15 6.5t-34 6.5t-62 7l-63 6l-2 12h592
q211 0 347 -84.5t136 -226.5q0 -136 -114.5 -222.5t-301.5 -89.5l178 -421q52 -125 91.5 -167.5t117.5 -52.5l21 -4l4 -12h-426l-242 662q-13 5 -78 36l-139 -651q-3 -20 113 -29l76 -4l2 -14h-650zM702 684q138 0 224 96t86 238q0 106 -70.5 172.5t-196.5 66.5h-96
l-114 -540q101 -33 167 -33z" />
    <glyph glyph-name="rcommaaccent" unicode="&#x157;" horiz-adv-x="868" 
d="M258 -322q-20 -89 -119.5 -160.5t-240.5 -78.5l-4 10q90 10 145.5 54.5t66.5 105.5q15 70 -40 103t-123 3q-10 66 39.5 117.5t134.5 42.5q83 -7 121 -63.5t20 -133.5zM246 -6l-223 10l116 338l127 428l-100 8l-131 -213l-12 6q72 155 152 246.5t140 91.5q34 0 98 -55
t64 -100q0 -55 -108 -342q-10 -27 -15 -41h6q117 231 172.5 329.5t102.5 143.5q71 68 141 65q65 -2 110 -47t44 -110q-3 -65 -43.5 -110t-95.5 -44q-56 2 -87 40.5t-21 88.5t60 82l-61 22q-35 -16 -69.5 -59.5t-94.5 -147.5t-174 -323z" />
    <glyph glyph-name="Rcaron" unicode="&#x158;" horiz-adv-x="1329" 
d="M748 1354l-195 403h14l219 -194h7l319 194h14l-366 -403h-12zM-68 0l7 12l90 8q43 4 72.5 14t31.5 19l250 1180q1 6 -2 9t-15 6.5t-34 6.5t-62 7l-63 6l-2 12h592q211 0 347 -84.5t136 -226.5q0 -136 -114.5 -222.5t-301.5 -89.5l178 -421q52 -125 91.5 -167.5
t117.5 -52.5l21 -4l4 -12h-426l-242 662q-13 5 -78 36l-139 -651q-3 -20 113 -29l76 -4l2 -14h-650zM702 684q138 0 224 96t86 238q0 106 -70.5 172.5t-196.5 66.5h-96l-114 -540q101 -33 167 -33z" />
    <glyph glyph-name="rcaron" unicode="&#x159;" horiz-adv-x="868" 
d="M545 983l-195 403h15l219 -194h6l319 194h15l-367 -403h-12zM246 -6l-223 10l116 338l127 428l-100 8l-131 -213l-12 6q72 155 152 246.5t140 91.5q34 0 98 -55t64 -100q0 -55 -108 -342q-10 -27 -15 -41h6q117 231 172.5 329.5t102.5 143.5q71 68 141 65q65 -2 110 -47
t44 -110q-3 -65 -43.5 -110t-95.5 -44q-56 2 -87 40.5t-21 88.5t60 82l-61 22q-35 -16 -69.5 -59.5t-94.5 -147.5t-174 -323z" />
    <glyph glyph-name="Sacute" unicode="&#x15a;" horiz-adv-x="1052" 
d="M547 1376l274 383h242l-506 -383h-10zM492 -27q-139 0 -258 37.5t-195 87.5l41 324l8 -2l51 -164q78 -262 342 -262q125 0 205 84t80 203q0 91 -66 155t-196 133q-65 35 -113.5 69.5t-92.5 79t-67.5 99.5t-23.5 117q0 69 30.5 135.5t84.5 119t134 84.5t171 32
q146 0 323 -82l107 22l-64 -350l-6 2l-117 299q-34 36 -93.5 62t-125.5 26q-101 0 -172 -67.5t-71 -161.5q0 -86 58.5 -145t190.5 -128q71 -37 122.5 -73t97.5 -83t70 -105t24 -126q0 -77 -34.5 -152.5t-94.5 -135.5t-152 -97t-198 -37z" />
    <glyph glyph-name="sacute" unicode="&#x15b;" horiz-adv-x="716" 
d="M358 1006l275 383h241l-505 -383h-11zM274 -27q-122 0 -206 53t-84 142q0 56 34 95.5t88 39.5q39 0 67 -30.5t30 -71.5q3 -69 -68 -119q14 -26 65 -58t105 -32q71 0 113.5 52t42.5 114q0 24 -8.5 46t-32 48.5t-37 40.5t-53 48.5t-49.5 43.5q-83 74 -121.5 129t-38.5 123
q0 113 96 191.5t225 78.5q109 0 188 -46t79 -128q0 -56 -33.5 -91.5t-81.5 -35.5q-45 0 -77 32t-32 77q0 32 20.5 60.5t47.5 45.5q-2 2 -15.5 17t-24.5 24t-34.5 18t-50.5 9q-64 0 -103.5 -50t-39.5 -108q0 -22 10 -44.5t30.5 -45.5t38 -40t47.5 -43.5t44 -39.5
q40 -37 60.5 -58t52 -58.5t45.5 -74t14 -75.5q0 -115 -107 -197t-246 -82z" />
    <glyph glyph-name="Scircumflex" unicode="&#x15c;" horiz-adv-x="1052" 
d="M389 1354l363 403h16l195 -403h-15l-219 194h-4l-322 -194h-14zM492 -27q-139 0 -258 37.5t-195 87.5l41 324l8 -2l51 -164q78 -262 342 -262q125 0 205 84t80 203q0 91 -66 155t-196 133q-65 35 -113.5 69.5t-92.5 79t-67.5 99.5t-23.5 117q0 69 30.5 135.5t84.5 119
t134 84.5t171 32q146 0 323 -82l107 22l-64 -350l-6 2l-117 299q-34 36 -93.5 62t-125.5 26q-101 0 -172 -67.5t-71 -161.5q0 -86 58.5 -145t190.5 -128q71 -37 122.5 -73t97.5 -83t70 -105t24 -126q0 -77 -34.5 -152.5t-94.5 -135.5t-152 -97t-198 -37z" />
    <glyph glyph-name="scircumflex" unicode="&#x15d;" horiz-adv-x="716" 
d="M162 983l362 403h17l194 -403h-14l-219 195h-4l-322 -195h-14zM274 -27q-122 0 -206 53t-84 142q0 56 34 95.5t88 39.5q39 0 67 -30.5t30 -71.5q3 -69 -68 -119q14 -26 65 -58t105 -32q71 0 113.5 52t42.5 114q0 24 -8.5 46t-32 48.5t-37 40.5t-53 48.5t-49.5 43.5
q-83 74 -121.5 129t-38.5 123q0 113 96 191.5t225 78.5q109 0 188 -46t79 -128q0 -56 -33.5 -91.5t-81.5 -35.5q-45 0 -77 32t-32 77q0 32 20.5 60.5t47.5 45.5q-2 2 -15.5 17t-24.5 24t-34.5 18t-50.5 9q-64 0 -103.5 -50t-39.5 -108q0 -22 10 -44.5t30.5 -45.5t38 -40
t47.5 -43.5t44 -39.5q40 -37 60.5 -58t52 -58.5t45.5 -74t14 -75.5q0 -115 -107 -197t-246 -82z" />
    <glyph glyph-name="Scedilla" unicode="&#x15e;" horiz-adv-x="1052" 
d="M160 -524v10q187 15 266.5 53.5t79.5 112.5q0 40 -31 66t-71.5 35t-88.5 9q-58 0 -106 -10l2 15l242 206q-128 5 -237 41.5t-177 83.5l41 324l8 -2l51 -164q78 -262 342 -262q125 0 205 84t80 203q0 91 -66 155t-196 133q-65 35 -113.5 69.5t-92.5 79t-67.5 99.5
t-23.5 117q0 69 30.5 135.5t84.5 119t134 84.5t171 32q146 0 323 -82l107 22l-64 -350l-6 2l-117 299q-34 36 -93.5 62t-125.5 26q-101 0 -172 -67.5t-71 -161.5q0 -86 58.5 -145t190.5 -128q71 -37 122.5 -73t97.5 -83t70 -105t24 -126q0 -77 -34.5 -152.5t-94.5 -135.5
t-152 -97t-198 -37h-13l-119 -104q123 10 207 -38t84 -124q0 -227 -491 -231z" />
    <glyph glyph-name="scedilla" unicode="&#x15f;" horiz-adv-x="716" 
d="M-37 -524v10q187 15 266.5 53.5t79.5 112.5q0 31 -17 53.5t-46 34t-60.5 17t-66.5 5.5q-59 0 -107 -10l2 15l242 206q-116 5 -194 57t-78 138q0 56 34 95.5t88 39.5q39 0 67 -30.5t30 -71.5q3 -69 -68 -119q11 -24 58.5 -55t99.5 -35h12q71 0 113.5 52t42.5 114
q0 24 -8.5 46t-32 48.5t-37 40.5t-53 48.5t-49.5 43.5q-83 74 -121.5 129t-38.5 123q0 113 96 191.5t225 78.5q109 0 188 -46t79 -128q0 -56 -33.5 -91.5t-81.5 -35.5q-45 0 -77 32t-32 77q0 32 20.5 60.5t47.5 45.5q-2 2 -15.5 17t-24.5 24t-34.5 18t-50.5 9
q-64 0 -103.5 -50t-39.5 -108q0 -22 10 -44.5t30.5 -45.5t38 -40t47.5 -43.5t44 -39.5q40 -37 60.5 -58t52 -58.5t45.5 -74t14 -75.5q0 -113 -103.5 -194.5t-240.5 -84.5l-119 -104q123 10 207 -38t84 -124q0 -227 -492 -231z" />
    <glyph glyph-name="Scaron" unicode="&#x160;" horiz-adv-x="1052" 
d="M492 -27q-139 0 -258 37.5t-195 87.5l41 324l8 -2l51 -164q78 -262 342 -262q125 0 205 84t80 203q0 91 -66 155t-196 133q-65 35 -113.5 69.5t-92.5 79t-67.5 99.5t-23.5 117q0 69 30.5 135.5t84.5 119t134 84.5t171 32q146 0 323 -82l107 22l-64 -350l-6 2l-117 299
q-34 36 -93.5 62t-125.5 26q-101 0 -172 -67.5t-71 -161.5q0 -86 58.5 -145t190.5 -128q71 -37 122.5 -73t97.5 -83t70 -105t24 -126q0 -77 -34.5 -152.5t-94.5 -135.5t-152 -97t-198 -37zM686 1335l-194 404h14l219 -195h6l320 195h14l-367 -404h-12z" />
    <glyph glyph-name="scaron" unicode="&#x161;" horiz-adv-x="716" 
d="M274 -27q-122 0 -206 53t-84 142q0 56 34 95.5t88 39.5q39 0 67 -30.5t30 -71.5q3 -69 -68 -119q14 -26 65 -58t105 -32q71 0 113.5 52t42.5 114q0 24 -8.5 46t-32 48.5t-37 40.5t-53 48.5t-49.5 43.5q-83 74 -121.5 129t-38.5 123q0 113 96 191.5t225 78.5
q109 0 188 -46t79 -128q0 -56 -33.5 -91.5t-81.5 -35.5q-45 0 -77 32t-32 77q0 32 20.5 60.5t47.5 45.5q-2 2 -15.5 17t-24.5 24t-34.5 18t-50.5 9q-64 0 -103.5 -50t-39.5 -108q0 -22 10 -44.5t30.5 -45.5t38 -40t47.5 -43.5t44 -39.5q40 -37 60.5 -58t52 -58.5t45.5 -74
t14 -75.5q0 -115 -107 -197t-246 -82zM485 983l-194 403h14l219 -194h6l320 194h14l-366 -403h-13z" />
    <glyph glyph-name="Tcommaaccent" unicode="&#x162;" horiz-adv-x="1378" 
d="M705 -322q-20 -89 -120 -160.5t-241 -78.5l-4 10q90 10 146 54.5t67 105.5q15 70 -40.5 103t-123.5 3q-10 66 39.5 117.5t134.5 42.5q83 -7 121.5 -63.5t20.5 -133.5zM276 0l7 12l94 8q100 8 104 33l254 1211h-67q-68 -4 -138 -39.5t-130 -92t-105.5 -111t-85.5 -114.5
l-21 -28h-12l133 401h1129l-54 -401h-8l-6 28q-16 73 -40.5 132.5t-61 110.5t-89.5 81t-118 33h-66l-258 -1217q-1 -6 2 -9t15 -6.5t34 -6.5t62 -7l68 -6l2 -12h-644z" />
    <glyph glyph-name="tcommaaccent" unicode="&#x163;" horiz-adv-x="620" 
d="M305 -322q-20 -89 -119.5 -160.5t-240.5 -78.5l-4 10q90 10 146 54.5t67 105.5q15 70 -40.5 103t-123.5 3q-10 66 39.5 117.5t134.5 42.5q83 -7 121 -63.5t20 -133.5zM262 -27q-38 0 -94.5 21.5t-98 51t-38.5 50.5q1 17 93 322.5t112 361.5l-162 4l43 97h153l90 262h213
l-79 -262l178 -2l-17 -95h-192l-223 -667l166 -11l129 213l12 -6q-74 -160 -149 -250t-136 -90z" />
    <glyph glyph-name="Tcaron" unicode="&#x164;" horiz-adv-x="1378" 
d="M872 1354l-194 403h14l219 -194h7l319 194h14l-366 -403h-13zM276 0l7 12l94 8q100 8 104 33l254 1211h-67q-68 -4 -138 -39.5t-130 -92t-105.5 -111t-85.5 -114.5l-21 -28h-12l133 401h1129l-54 -401h-8l-6 28q-16 73 -40.5 132.5t-61 110.5t-89.5 81t-118 33h-66
l-258 -1217q-1 -6 2 -9t15 -6.5t34 -6.5t62 -7l68 -6l2 -12h-644z" />
    <glyph glyph-name="tcaron" unicode="&#x165;" horiz-adv-x="880" 
d="M633 958l-4 7q89 30 140.5 79.5t51.5 110.5q0 24 -11 44t-22 30.5t-34 21.5t-29.5 13t-26.5 8q3 41 32 70.5t77 29.5q58 0 91.5 -40.5t33.5 -96.5q0 -90 -81 -168.5t-218 -108.5zM262 -27q-38 0 -94.5 21.5t-98 51t-38.5 50.5q1 17 93 322.5t112 361.5l-162 4l43 97h153
l90 262h213l-79 -262l178 -2l-17 -95h-192l-223 -667l166 -11l129 213l12 -6q-74 -160 -149 -250t-136 -90z" />
    <glyph glyph-name="Umacron" unicode="&#x16a;" horiz-adv-x="1417" 
d="M737 -33q-247 0 -390.5 93t-143.5 274q0 69 24 186q9 45 25 119.5t48.5 231.5t54.5 260.5t22 101.5q1 6 -1.5 9t-14 6.5t-33.5 6.5t-62 7l-65 6l-2 12h641l-9 -12l-90 -8q-100 -11 -104 -33l-148 -695q-22 -113 -22 -186q0 -299 352 -299q148 0 238.5 91.5t130.5 283.5
l164 766q15 65 -166 78l-37 2l-2 12h446l-8 -12l-39 -2q-80 -6 -120.5 -32.5t-47.5 -62.5l-166 -755q-47 -223 -160.5 -336t-314.5 -113zM725 1438l39 88h510l-37 -88h-512z" />
    <glyph glyph-name="umacron" unicode="&#x16b;" horiz-adv-x="1060" 
d="M741 -27q-33 0 -94 55t-61 101q0 44 40.5 174.5t102.5 280.5l-10 4q-94 -183 -182.5 -331t-139.5 -198q-35 -35 -78 -59.5t-73 -24.5q-79 0 -135 44t-56 90q0 75 101 325l131 334l-105 10l-139 -215l-12 6q76 153 162 246.5t139 93.5q34 0 101.5 -48t66.5 -81
q-1 -12 -7.5 -34t-20 -58t-26.5 -69.5t-35 -88.5t-38 -96q-11 -27 -26 -63.5t-25.5 -62t-20.5 -51t-15 -43t-5 -26.5q0 -21 34 -42t66 -21q41 0 139 148.5t225 418.5l74 197l221 -10l-116 -338l-129 -426l100 -11l133 213l12 -6q-71 -154 -155 -246t-144 -92zM410 1067
l39 88h509l-36 -88h-512z" />
    <glyph glyph-name="Ubreve" unicode="&#x16c;" horiz-adv-x="1417" 
d="M737 -33q-247 0 -390.5 93t-143.5 274q0 69 24 186q9 45 25 119.5t48.5 231.5t54.5 260.5t22 101.5q1 6 -1.5 9t-14 6.5t-33.5 6.5t-62 7l-65 6l-2 12h641l-9 -12l-90 -8q-100 -11 -104 -33l-148 -695q-22 -113 -22 -186q0 -299 352 -299q148 0 238.5 91.5t130.5 283.5
l164 766q15 65 -166 78l-37 2l-2 12h446l-8 -12l-39 -2q-80 -6 -120.5 -32.5t-47.5 -62.5l-166 -755q-47 -223 -160.5 -336t-314.5 -113zM981 1366q-213 0 -213 373h16q28 -219 220 -219q194 0 313 219h18q-30 -72 -54.5 -121.5t-58 -101t-67 -81.5t-78.5 -49.5t-96 -19.5z
" />
    <glyph glyph-name="ubreve" unicode="&#x16d;" horiz-adv-x="1060" 
d="M741 -27q-33 0 -94 55t-61 101q0 44 40.5 174.5t102.5 280.5l-10 4q-94 -183 -182.5 -331t-139.5 -198q-35 -35 -78 -59.5t-73 -24.5q-79 0 -135 44t-56 90q0 75 101 325l131 334l-105 10l-139 -215l-12 6q76 153 162 246.5t139 93.5q34 0 101.5 -48t66.5 -81
q-1 -12 -7.5 -34t-20 -58t-26.5 -69.5t-35 -88.5t-38 -96q-11 -27 -26 -63.5t-25.5 -62t-20.5 -51t-15 -43t-5 -26.5q0 -21 34 -42t66 -21q41 0 139 148.5t225 418.5l74 197l221 -10l-116 -338l-129 -426l100 -11l133 213l12 -6q-71 -154 -155 -246t-144 -92zM653 995
q-213 0 -213 373h17q28 -219 219 -219q194 0 313 219h19q-30 -72 -54.5 -121.5t-58 -100.5t-67.5 -82t-79 -50t-96 -19z" />
    <glyph glyph-name="Uring" unicode="&#x16e;" horiz-adv-x="1417" 
d="M995 1391q-82 0 -132 53t-50 131q0 76 50 130t132 54t132.5 -54t50.5 -130q0 -77 -50.5 -130.5t-132.5 -53.5zM995 1409q73 0 117.5 48t44.5 118q0 69 -44.5 117.5t-117.5 48.5t-117 -48.5t-44 -117.5q0 -70 44 -118t117 -48zM737 -33q-247 0 -390.5 93t-143.5 274
q0 69 24 186q9 45 25 119.5t48.5 231.5t54.5 260.5t22 101.5q1 6 -1.5 9t-14 6.5t-33.5 6.5t-62 7l-65 6l-2 12h641l-9 -12l-90 -8q-100 -11 -104 -33l-148 -695q-22 -113 -22 -186q0 -299 352 -299q148 0 238.5 91.5t130.5 283.5l164 766q15 65 -166 78l-37 2l-2 12h446
l-8 -12l-39 -2q-80 -6 -120.5 -32.5t-47.5 -62.5l-166 -755q-47 -223 -160.5 -336t-314.5 -113z" />
    <glyph glyph-name="uring" unicode="&#x16f;" horiz-adv-x="1060" 
d="M662 997q-82 0 -132.5 53.5t-50.5 131.5q0 76 50.5 130t132.5 54t132 -54t50 -130q0 -78 -50 -131.5t-132 -53.5zM662 1016q73 0 117 48t44 118q0 69 -44 117.5t-117 48.5t-117.5 -48.5t-44.5 -117.5q0 -70 44.5 -118t117.5 -48zM741 -27q-33 0 -94 55t-61 101
q0 44 40.5 174.5t102.5 280.5l-10 4q-94 -183 -182.5 -331t-139.5 -198q-35 -35 -78 -59.5t-73 -24.5q-79 0 -135 44t-56 90q0 75 101 325l131 334l-105 10l-139 -215l-12 6q76 153 162 246.5t139 93.5q34 0 101.5 -48t66.5 -81q-1 -12 -7.5 -34t-20 -58t-26.5 -69.5
t-35 -88.5t-38 -96q-11 -27 -26 -63.5t-25.5 -62t-20.5 -51t-15 -43t-5 -26.5q0 -21 34 -42t66 -21q41 0 139 148.5t225 418.5l74 197l221 -10l-116 -338l-129 -426l100 -11l133 213l12 -6q-71 -154 -155 -246t-144 -92z" />
    <glyph glyph-name="Uhungarumlaut" unicode="&#x170;" horiz-adv-x="1417" 
d="M737 -33q-247 0 -390.5 93t-143.5 274q0 69 24 186q9 45 25 119.5t48.5 231.5t54.5 260.5t22 101.5q1 6 -1.5 9t-14 6.5t-33.5 6.5t-62 7l-65 6l-2 12h641l-9 -12l-90 -8q-100 -11 -104 -33l-148 -695q-22 -113 -22 -186q0 -299 352 -299q148 0 238.5 91.5t130.5 283.5
l164 766q15 65 -166 78l-37 2l-2 12h446l-8 -12l-39 -2q-80 -6 -120.5 -32.5t-47.5 -62.5l-166 -755q-47 -223 -160.5 -336t-314.5 -113zM1055 1376l274 383h227l-489 -383h-12zM696 1376l275 383h225l-491 -383h-9z" />
    <glyph glyph-name="uhungarumlaut" unicode="&#x171;" horiz-adv-x="1060" 
d="M741 -27q-33 0 -94 55t-61 101q0 44 40.5 174.5t102.5 280.5l-10 4q-94 -183 -182.5 -331t-139.5 -198q-35 -35 -78 -59.5t-73 -24.5q-79 0 -135 44t-56 90q0 75 101 325l131 334l-105 10l-139 -215l-12 6q76 153 162 246.5t139 93.5q34 0 101.5 -48t66.5 -81
q-1 -12 -7.5 -34t-20 -58t-26.5 -69.5t-35 -88.5t-38 -96q-11 -27 -26 -63.5t-25.5 -62t-20.5 -51t-15 -43t-5 -26.5q0 -21 34 -42t66 -21q41 0 139 148.5t225 418.5l74 197l221 -10l-116 -338l-129 -426l100 -11l133 213l12 -6q-71 -154 -155 -246t-144 -92zM764 1006
l274 383h228l-490 -383h-12zM406 1006l274 383h225l-491 -383h-8z" />
    <glyph glyph-name="Uogonek" unicode="&#x172;" horiz-adv-x="1417" 
d="M721 -489q-75 0 -120.5 44.5t-45.5 120.5q0 92 83 169t204 128q-40 -6 -105 -6q-247 0 -389.5 93t-142.5 274q0 79 22 186q10 45 25.5 119.5t48.5 231.5t55 260.5t21 101.5q1 8 -5 12.5t-30 8.5t-74 8l-67 6l-2 12h641l-9 -12l-90 -8q-100 -8 -104 -33l-148 -695
q-22 -113 -22 -186q0 -299 352 -299q148 0 238.5 91.5t130.5 283.5l164 766q15 65 -166 78l-37 2l-2 12h446l-8 -12l-39 -2q-80 -6 -120.5 -31.5t-47.5 -60.5l-166 -758q-37 -171 -108.5 -271t-198.5 -159q-96 -44 -151.5 -118.5t-55.5 -148.5q0 -58 31.5 -90t93.5 -32
q27 0 51 8.5t37.5 17.5t40.5 29l2 -4q-97 -137 -233 -137z" />
    <glyph glyph-name="uogonek" unicode="&#x173;" horiz-adv-x="1060" 
d="M625 -489q-75 0 -120.5 44.5t-45.5 120.5q0 95 79.5 171t200.5 126q-37 3 -95 59t-58 97q0 44 40.5 174.5t102.5 280.5l-10 4q-94 -183 -182.5 -331t-139.5 -198q-35 -35 -78 -59.5t-73 -24.5q-78 0 -133.5 43.5t-55.5 90.5q0 80 99 325l131 336l-105 8l-137 -213l-12 6
q75 151 160.5 244.5t138.5 93.5q34 0 101.5 -47.5t66.5 -79.5q-1 -12 -7 -34t-20 -58.5t-27 -69.5t-35.5 -90t-37.5 -96q-11 -27 -26 -63.5t-25.5 -62t-20.5 -51t-15 -43t-5 -26.5q0 -21 34 -42t66 -21q41 0 139 148.5t225 418.5l74 197l221 -10l-116 -338l-129 -426
l100 -11l133 213l12 -6q-115 -249 -247 -325q-94 -54 -142.5 -124.5t-48.5 -142.5q0 -58 32.5 -90t94.5 -32q27 0 51 9t36 17t40 29l4 -4q-39 -56 -99.5 -96.5t-135.5 -40.5z" />
    <glyph glyph-name="Wcircumflex" unicode="&#x174;" horiz-adv-x="2039" 
d="M965 1354l362 403h16l195 -403h-14l-219 194h-5l-321 -194h-14zM561 -33l-194 1045q-13 71 -21.5 108.5t-19.5 69t-25.5 44.5t-32.5 20t-49 10l-45 4l-2 12h616l-8 -12l-63 -2q-83 -3 -101 -27.5t-6 -103.5l144 -820h4l383 631l-13 68q-26 156 -50 201t-93 49l-57 4
l-2 12h630l-8 -12l-61 -2q-87 -3 -107 -29.5t-8 -116.5l119 -798h4l356 620q7 12 20 35q48 84 65 117.5t31.5 74t-2 53.5t-46.5 24.5t-92 17.5l-41 4l-2 12h448l-8 -12l-31 -4q-37 -5 -59.5 -10.5t-47 -20.5t-42 -33.5t-44.5 -58t-53.5 -84t-70.5 -119.5q-5 -9 -8 -14
l-551 -957h-21l-149 940h-4l-568 -940h-14z" />
    <glyph glyph-name="wcircumflex" unicode="&#x175;" horiz-adv-x="1234" 
d="M481 983l363 403h16l195 -403h-15l-219 195h-4l-321 -195h-15zM225 -27q-75 0 -121.5 50.5t-46.5 126.5q0 60 38.5 139.5t85.5 143.5t107.5 145t86.5 124l-242 31l-92 -160l-10 7q77 165 137 250t108 85q25 0 74 -7.5t88.5 -18t38.5 -17.5q-5 -20 -41 -90.5t-74.5 -146
t-70 -168.5t-31.5 -158q0 -151 111 -151q40 0 83.5 30.5t82.5 76.5t82.5 115t76.5 131.5t72 141.5q1 1 -4 4t-13.5 7.5t-19 11t-22.5 14t-23 18.5t-19.5 23t-14 28t-5.5 34q0 51 33 82.5t84 31.5q47 0 81 -34t34 -80q0 -37 -16.5 -70t-38.5 -58t-51 -70.5t-48 -98.5
q-39 -107 -39 -172q0 -83 46.5 -124.5t127.5 -41.5q87 0 162 81t116 204.5t38 250.5q-42 -18 -83.5 -14.5t-71.5 33.5t-30 75q0 50 32.5 85.5t78.5 35.5q60 0 96.5 -45t36.5 -119q0 -138 -88.5 -347.5t-202.5 -323.5q-98 -101 -182 -101q-75 0 -114.5 53.5t-39.5 118.5
q0 85 84 308q-266 -480 -467 -480z" />
    <glyph glyph-name="Ycircumflex" unicode="&#x176;" horiz-adv-x="1325" 
d="M248 0l6 12l94 8q50 4 76.5 13.5t28.5 19.5l110 529l-166 491q-38 110 -69.5 147t-100.5 44l-41 4l-2 12h629l-8 -12l-33 -2q-98 -7 -122.5 -38.5t1.5 -92.5l162 -494l6 -2l217 289q131 179 155 225q31 61 0 83q-24 17 -118 28l-43 4l-2 12h461l-8 -12l-54 -6
q-80 -9 -145.5 -70.5t-226.5 -276.5l-228 -303l-118 -565q-1 -6 2 -9t15 -6.5t34 -6.5t61 -7l66 -6l2 -12h-641zM608 1354l363 403h16l195 -403h-15l-219 194h-4l-321 -194h-15z" />
    <glyph glyph-name="ycircumflex" unicode="&#x177;" horiz-adv-x="909" 
d="M-76 -373q-97 0 -147.5 42t-50.5 110q0 50 37.5 84.5t86.5 34.5q47 0 80.5 -29.5t37 -77t-35.5 -108.5l80 -25q162 39 342 205q7 512 -31.5 724t-136.5 212h-22l-127 -234l-14 6q80 170 99 203q55 97 121 122q29 11 66 11q97 0 152.5 -78t78.5 -264.5t11 -501.5l4 -2
q121 163 197 337t86 319q-60 -47 -110 -42t-82.5 39.5t-33.5 76.5q-2 52 30 87t89 35q61 0 99 -46.5t38 -123.5q0 -191 -123 -427.5t-309 -417.5q-128 -125 -261 -198t-251 -73zM248 983l362 403h17l194 -403h-14l-219 195h-4l-322 -195h-14z" />
    <glyph glyph-name="Ydieresis" unicode="&#x178;" horiz-adv-x="1325" 
d="M248 0l6 12l94 8q50 4 76.5 13.5t28.5 19.5l110 529l-166 491q-38 110 -69.5 147t-100.5 44l-41 4l-2 12h629l-8 -12l-33 -2q-98 -7 -122.5 -38.5t1.5 -92.5l162 -494l6 -2l217 289q131 179 155 225q31 61 0 83q-24 17 -118 28l-43 4l-2 12h461l-8 -12l-54 -6
q-80 -9 -145.5 -70.5t-226.5 -276.5l-228 -303l-118 -565q-1 -6 2 -9t15 -6.5t34 -6.5t61 -7l66 -6l2 -12h-641zM1065 1374q-54 0 -86.5 37.5t-32.5 81.5q0 46 32.5 85.5t86.5 39.5q56 0 88.5 -39.5t32.5 -85.5q0 -45 -32.5 -82t-88.5 -37zM668 1374q-55 0 -88 37.5
t-33 81.5q0 46 33 85.5t88 39.5q56 0 88 -39t32 -86q0 -45 -32 -82t-88 -37z" />
    <glyph glyph-name="Zacute" unicode="&#x179;" horiz-adv-x="1234" 
d="M686 1376l275 383h241l-506 -383h-10zM-29 0l2 10l1026 1241l-2 4l-184 5q-397 0 -577 -361l-11 -20h-10l94 401h1016l-4 -10l-1040 -1237v-4l202 -6q125 -4 216.5 16t169.5 76t140 132.5t140 203.5l16 30h13l-146 -481h-1061z" />
    <glyph glyph-name="zacute" unicode="&#x17a;" horiz-adv-x="813" 
d="M436 1006l275 383h241l-506 -383h-10zM492 -47q-53 0 -99.5 26t-78.5 63t-59.5 74.5t-55 63.5t-52.5 27h-10l-76 -234q-44 3 -79 31.5t-35 67.5q0 52 52 96t116 53l508 436q-31 -7 -59.5 -7.5t-52 4.5t-48 17t-42 24.5t-39.5 32t-37 34.5t-37 37.5t-36 36.5q-7 5 -46 -38
q-43 -46 -25 -46q52 -1 82 -34.5t30 -78.5t-31.5 -74.5t-80.5 -29.5q-50 0 -78.5 35t-28.5 81t37 94t89 82.5t105.5 58t88.5 25.5q52 -2 89.5 -25.5t56 -56t31.5 -65t24.5 -56t25.5 -24.5l8 2l64 223q42 -5 79 -32.5t37 -63.5q-1 -59 -45.5 -95t-107.5 -44l-508 -438
q53 9 97.5 8t89.5 -18.5t81 -37.5t71 -50t60 -56.5t49 -56.5q5 -5 31 31q45 60 40 72q-1 1 -3 1q-60 -4 -93.5 31.5t-33.5 83.5q0 44 32 74t77 30q52 0 79 -36.5t27 -84.5q0 -60 -46 -123.5t-111.5 -105t-122.5 -45.5z" />
    <glyph glyph-name="Zdotaccent" unicode="&#x17b;" horiz-adv-x="1234" 
d="M-29 0l2 10l1026 1241l-2 4l-184 5q-397 0 -577 -361l-11 -20h-10l94 401h1016l-4 -10l-1040 -1237v-4l202 -6q125 -4 216.5 16t169.5 76t140 132.5t140 203.5l16 30h13l-146 -481h-1061zM805 1432q-61 0 -98 41.5t-37 91.5q0 52 36.5 95.5t98.5 43.5t98.5 -43.5
t36.5 -95.5q0 -51 -36 -92t-99 -41z" />
    <glyph glyph-name="zdotaccent" unicode="&#x17c;" horiz-adv-x="813" 
d="M492 -47q-53 0 -99.5 26t-78.5 63t-59.5 74.5t-55 63.5t-52.5 27h-10l-76 -234q-44 3 -79 31.5t-35 67.5q0 52 52 96t116 53l508 436q-31 -7 -59.5 -7.5t-52 4.5t-48 17t-42 24.5t-39.5 32t-37 34.5t-37 37.5t-36 36.5q-7 5 -46 -38q-43 -46 -25 -46q52 -1 82 -34.5
t30 -78.5t-31.5 -74.5t-80.5 -29.5q-50 0 -78.5 35t-28.5 81t37 94t89 82.5t105.5 58t88.5 25.5q52 -2 89.5 -25.5t56 -56t31.5 -65t24.5 -56t25.5 -24.5l8 2l64 223q42 -5 79 -32.5t37 -63.5q-1 -59 -45.5 -95t-107.5 -44l-508 -438q53 9 97.5 8t89.5 -18.5t81 -37.5
t71 -50t60 -56.5t49 -56.5q5 -5 31 31q45 60 40 72q-1 1 -3 1q-60 -4 -93.5 31.5t-33.5 83.5q0 44 32 74t77 30q52 0 79 -36.5t27 -84.5q0 -60 -46 -123.5t-111.5 -105t-122.5 -45.5zM559 1061q-61 0 -98 41.5t-37 91.5q0 52 36.5 95.5t98.5 43.5t98.5 -43.5t36.5 -95.5
q0 -51 -36 -92t-99 -41z" />
    <glyph glyph-name="Zcaron" unicode="&#x17d;" horiz-adv-x="1234" 
d="M-29 0l2 10l1026 1241l-2 4l-184 5q-397 0 -577 -361l-11 -20h-10l94 401h1016l-4 -10l-1040 -1237v-4l202 -6q125 -4 216.5 16t169.5 76t140 132.5t140 203.5l16 30h13l-146 -481h-1061zM762 1335l-195 404h15l219 -195h6l319 195h15l-367 -404h-12z" />
    <glyph glyph-name="zcaron" unicode="&#x17e;" horiz-adv-x="813" 
d="M492 -47q-53 0 -99.5 26t-78.5 63t-59.5 74.5t-55 63.5t-52.5 27h-10l-76 -234q-44 3 -79 31.5t-35 67.5q0 52 52 96t116 53l508 436q-31 -7 -59.5 -7.5t-52 4.5t-48 17t-42 24.5t-39.5 32t-37 34.5t-37 37.5t-36 36.5q-7 5 -46 -38q-43 -46 -25 -46q52 -1 82 -34.5
t30 -78.5t-31.5 -74.5t-80.5 -29.5q-50 0 -78.5 35t-28.5 81t37 94t89 82.5t105.5 58t88.5 25.5q52 -2 89.5 -25.5t56 -56t31.5 -65t24.5 -56t25.5 -24.5l8 2l64 223q42 -5 79 -32.5t37 -63.5q-1 -59 -45.5 -95t-107.5 -44l-508 -438q53 9 97.5 8t89.5 -18.5t81 -37.5
t71 -50t60 -56.5t49 -56.5q5 -5 31 31q45 60 40 72q-1 1 -3 1q-60 -4 -93.5 31.5t-33.5 83.5q0 44 32 74t77 30q52 0 79 -36.5t27 -84.5q0 -60 -46 -123.5t-111.5 -105t-122.5 -45.5zM541 983l-195 403h14l220 -194h6l319 194h15l-367 -403h-12z" />
    <glyph glyph-name="florin" unicode="&#x192;" horiz-adv-x="1128" 
d="M211 -145q-99 0 -159 39.5t-60 105.5q0 47 34 84t91 37q46 0 81 -33.5t37 -82.5t-45 -103q43 -25 68 -25q21 0 38 11.5t34 41.5t32.5 73.5t34.5 118t38.5 163t45.5 219.5l41 229l-225 4l43 94l209 3q77 277 172 372q103 103 287 103q95 0 153 -43t58 -109q0 -51 -37 -86
t-84 -35q-61 0 -93 40.5t-17 94t75 86.5q-41 31 -74 31q-25 0 -47 -14.5t-40.5 -46t-33 -67t-29.5 -93.5t-26.5 -107.5t-26.5 -125.5l246 -3l-16 -94h-250l-68 -278q-86 -353 -239 -506q-98 -98 -248 -98z" />
    <glyph glyph-name="Aringacute" unicode="&#x1fa;" horiz-adv-x="1296" 
d="M686 1622l275 383h241l-506 -383h-10zM702 545h-317l-111 -201q-102 -176 -116 -207q-31 -68 -4 -91q24 -21 129 -30l49 -4l2 -12h-445l7 12l34 4q38 4 59.5 8t49.5 22.5t45.5 38.5t52.5 73t65.5 107t88.5 159l471 856q-42 23 -66 66t-24 94q0 76 50 130t132 54t132 -54
t50 -130q0 -67 -38 -116.5t-103 -61.5l96 -981q14 -110 34 -166t47 -76t75 -23l55 -4l2 -12h-637l6 12l58 4q75 6 93 45t7 142zM854 1274q73 0 117.5 48t44.5 118q0 69 -44.5 117.5t-117.5 48.5t-117.5 -48.5t-44.5 -117.5q0 -70 44.5 -118t117.5 -48zM399 571h301l-38 465
h-7z" />
    <glyph glyph-name="aringacute" unicode="&#x1fb;" horiz-adv-x="1005" 
d="M502 1409l274 383h242l-506 -383h-10zM659 1020q-82 0 -132 53t-50 131q0 77 50 131t132 54t132.5 -54.5t50.5 -130.5q0 -77 -50.5 -130.5t-132.5 -53.5zM688 -27q-36 0 -106 51t-70 78q0 72 92 306h-4q-135 -228 -184 -294q-87 -118 -166 -134q-15 -3 -31 -3
q-86 0 -144.5 59t-58.5 150q0 136 82 283t209 276q158 158 287 158q119 0 94 -239h6l90 233l215 -8l-168 -438l-114 -334l108 -13l133 215l13 -6q-71 -154 -151 -247t-132 -93zM659 1038q73 0 117.5 48t44.5 118q0 69 -44.5 117.5t-117.5 48.5t-117 -48.5t-44 -117.5
q0 -70 44 -118t117 -48zM322 113q107 0 276 342q61 120 61 168q0 72 -46 128t-105 56q-34 0 -74 -37q-68 -69 -130 -235.5t-62 -288.5q0 -64 22 -98.5t58 -34.5z" />
    <glyph glyph-name="AEacute" unicode="&#x1fc;" horiz-adv-x="1802" 
d="M1204 1376l275 383h241l-506 -383h-10zM793 545h-349l-153 -193q-27 -34 -73 -91q-106 -133 -123 -167q-20 -42 14 -58q25 -11 106 -20l35 -4l6 -12h-436l6 12l39 4q40 4 63 8t54.5 20.5t50.5 32.5t61 62t76.5 88.5t105.5 132.5l639 803q18 26 23.5 41.5t-3.5 29
t-39 20.5t-85 10l-76 4l-2 12h1008l10 -416l-14 -2l-6 25q-59 209 -153.5 291.5t-279.5 78.5l-96 -2l-125 -587l90 2q136 6 208 47.5t114 140.5l16 37l15 -2l-109 -487h-14l4 36q7 113 -45 153.5t-211 49.5l-72 4l-131 -620l203 -11q189 3 322.5 101t234.5 282l16 27l13 -2
v0l-142 -426h-1106q-1 0 0.5 4t3.5 8l2 4l95 9q102 8 106 32zM465 571h332l116 555h-4z" />
    <glyph glyph-name="aeacute" unicode="&#x1fd;" horiz-adv-x="1339" 
d="M715 1006l274 383h242l-506 -383h-10zM217 -23q-86 0 -143.5 59t-57.5 150q0 136 82 283t209 276q162 162 285 162q63 0 95 -64t26 -173q78 109 185 173t228 64q102 0 166 -49.5t64 -122.5q0 -102 -124.5 -160.5t-400.5 -103.5q-20 -79 -20 -168q0 -102 39 -152.5
t121 -50.5q80 0 143.5 46.5t130.5 166.5l17 -6q-82 -162 -183 -246t-215 -84q-121 0 -203.5 86t-82.5 216q0 61 6 90q-51 -85 -83.5 -137t-72.5 -106.5t-71 -83t-67 -47t-73 -18.5zM840 492q172 39 248.5 100.5t76.5 171.5q0 117 -78 117q-40 0 -90 -47q-47 -47 -91.5 -141
t-69.5 -199zM322 113q107 0 276 342q61 120 61 168q0 72 -46 128t-105 56q-34 0 -74 -37q-68 -69 -130 -235.5t-62 -288.5q0 -65 21.5 -99t58.5 -34z" />
    <glyph glyph-name="Oslashacute" unicode="&#x1fe;" horiz-adv-x="1513" 
d="M1241 1180q117 -88 182.5 -222t65.5 -288q0 -91 -24.5 -179t-69 -165.5t-110.5 -143t-145.5 -112t-177.5 -73t-204 -26.5q-217 0 -379 111l-180 -232h-27l190 244q-116 86 -179.5 218.5t-63.5 287.5q0 133 53.5 259.5t146.5 225.5t231 159.5t296 60.5q219 0 379 -113
l172 219h26zM428 178l735 936q-44 80 -118.5 124t-172.5 44q-91 0 -171.5 -56.5t-137.5 -148.5t-99 -207t-62.5 -234.5t-20.5 -229.5q0 -132 47 -228zM1174 1094l-736 -936q45 -78 119.5 -121t171.5 -43q138 0 253.5 126t179 322.5t63.5 409.5q0 143 -51 242zM856 1370
l274 383h242l-506 -383h-10z" />
    <glyph glyph-name="oslashacute" unicode="&#x1ff;" horiz-adv-x="864" 
d="M725 797q104 -119 104 -287q0 -127 -70 -252t-182 -204t-227 -79q-118 0 -205 84q0 1 -62.5 -79.5t-125.5 -161.5l-63 -80h-27q17 21 44 56t85 109t96.5 123t38.5 48q-100 114 -100 286q0 95 42.5 194t108.5 175.5t151.5 125t166.5 48.5q116 0 211 -92l284 365h27z
M223 193l410 520q-3 79 -28.5 121.5t-63.5 42.5q-57 0 -132 -105.5t-130 -275.5q-52 -162 -56 -303zM633 680l-410 -520q3 -73 28.5 -115.5t65.5 -42.5q71 0 137 87.5t119 250.5q56 173 60 340zM487 985l275 383h242l-506 -383h-11z" />
    <glyph glyph-name="Scommaaccent" unicode="&#x218;" horiz-adv-x="1052" 
d="M594 -322q-20 -89 -120 -160.5t-241 -78.5l-4 10q90 10 146 54.5t67 105.5q15 70 -40 103t-123 3q-10 66 39.5 117.5t134.5 42.5q83 -7 121 -63.5t20 -133.5zM492 -27q-139 0 -258 37.5t-195 87.5l41 324l8 -2l51 -164q78 -262 342 -262q125 0 205 84t80 203
q0 91 -66 155t-196 133q-65 35 -113.5 69.5t-92.5 79t-67.5 99.5t-23.5 117q0 69 30.5 135.5t84.5 119t134 84.5t171 32q146 0 323 -82l107 22l-64 -350l-6 2l-117 299q-34 36 -93.5 62t-125.5 26q-101 0 -172 -67.5t-71 -161.5q0 -86 58.5 -145t190.5 -128
q71 -37 122.5 -73t97.5 -83t70 -105t24 -126q0 -77 -34.5 -152.5t-94.5 -135.5t-152 -97t-198 -37z" />
    <glyph glyph-name="scommaaccent" unicode="&#x219;" horiz-adv-x="716" 
d="M373 -322q-20 -89 -120 -160.5t-241 -78.5l-4 10q90 10 146 54.5t67 105.5q15 70 -40.5 103t-123.5 3q-10 66 39.5 117.5t134.5 42.5q83 -7 121.5 -63.5t20.5 -133.5zM274 -27q-122 0 -206 53t-84 142q0 56 34 95.5t88 39.5q39 0 67 -30.5t30 -71.5q3 -69 -68 -119
q14 -26 65 -58t105 -32q71 0 113.5 52t42.5 114q0 24 -8.5 46t-32 48.5t-37 40.5t-53 48.5t-49.5 43.5q-83 74 -121.5 129t-38.5 123q0 113 96 191.5t225 78.5q109 0 188 -46t79 -128q0 -56 -33.5 -91.5t-81.5 -35.5q-45 0 -77 32t-32 77q0 32 20.5 60.5t47.5 45.5
q-2 2 -15.5 17t-24.5 24t-34.5 18t-50.5 9q-64 0 -103.5 -50t-39.5 -108q0 -22 10 -44.5t30.5 -45.5t38 -40t47.5 -43.5t44 -39.5q40 -37 60.5 -58t52 -58.5t45.5 -74t14 -75.5q0 -115 -107 -197t-246 -82z" />
    <glyph glyph-name="uni021A" unicode="&#x21a;" horiz-adv-x="1378" 
d="M705 -322q-20 -89 -120 -160.5t-241 -78.5l-4 10q90 10 146 54.5t67 105.5q15 70 -40.5 103t-123.5 3q-10 66 39.5 117.5t134.5 42.5q83 -7 121.5 -63.5t20.5 -133.5zM276 0l7 12l94 8q100 8 104 33l254 1211h-67q-68 -4 -138 -39.5t-130 -92t-105.5 -111t-85.5 -114.5
l-21 -28h-12l133 401h1129l-54 -401h-8l-6 28q-16 73 -40.5 132.5t-61 110.5t-89.5 81t-118 33h-66l-258 -1217q-1 -6 2 -9t15 -6.5t34 -6.5t62 -7l68 -6l2 -12h-644z" />
    <glyph glyph-name="uni021B" unicode="&#x21b;" horiz-adv-x="620" 
d="M305 -322q-20 -89 -119.5 -160.5t-240.5 -78.5l-4 10q90 10 146 54.5t67 105.5q15 70 -40.5 103t-123.5 3q-10 66 39.5 117.5t134.5 42.5q83 -7 121 -63.5t20 -133.5zM262 -27q-38 0 -94.5 21.5t-98 51t-38.5 50.5q1 17 93 322.5t112 361.5l-162 4l43 97h153l90 262h213
l-79 -262l178 -2l-17 -95h-192l-223 -667l166 -11l129 213l12 -6q-74 -160 -149 -250t-136 -90z" />
    <glyph glyph-name="dotlessj" unicode="&#x237;" horiz-adv-x="522" 
d="M336 907q41 0 104.5 -49.5t63.5 -95.5q0 -51 -96 -320t-177 -450q-115 -262 -237 -381q-55 -56 -119.5 -88.5t-126.5 -32.5q-58 0 -106 37.5t-48 99.5q0 46 32.5 80.5t88.5 34.5q36 0 64 -23t39 -55.5t-1 -73.5t-50 -73l102 32q45 48 79 131.5t89 262.5l266 825l-123 8
l-135 -211l-12 6q73 153 157 244.5t146 91.5z" />
    <glyph glyph-name="circumflex" unicode="&#x2c6;" horiz-adv-x="757" 
d="M209 983l362 403h17l194 -403h-14l-219 195h-4l-322 -195h-14z" />
    <glyph glyph-name="caron" unicode="&#x2c7;" horiz-adv-x="757" 
d="M487 983l-194 403h14l219 -194h6l320 194h14l-366 -403h-13z" />
    <glyph glyph-name="breve" unicode="&#x2d8;" horiz-adv-x="798" 
d="M530 995q-213 0 -213 373h17q28 -219 219 -219q194 0 313 219h19q-30 -72 -54.5 -121.5t-58 -100.5t-67.5 -82t-79 -50t-96 -19z" />
    <glyph glyph-name="dotaccent" unicode="&#x2d9;" horiz-adv-x="815" 
d="M569 1061q-61 0 -98 41.5t-37 91.5q0 52 36.5 95.5t98.5 43.5t99 -43.5t37 -95.5q0 -51 -36.5 -92t-99.5 -41z" />
    <glyph glyph-name="ring" unicode="&#x2da;" horiz-adv-x="757" 
d="M545 1020q-82 0 -132.5 53.5t-50.5 130.5q0 76 50.5 130.5t132.5 54.5t132 -54t50 -131q0 -78 -50 -131t-132 -53zM545 1038q73 0 117.5 48t44.5 118q0 69 -44.5 117.5t-117.5 48.5t-117.5 -48.5t-44.5 -117.5q0 -70 44.5 -118t117.5 -48z" />
    <glyph glyph-name="ogonek" unicode="&#x2db;" horiz-adv-x="811" 
d="M233 -489q-73 0 -117 49.5t-44 124.5q0 62 36.5 119.5t97.5 101t130.5 76t146.5 55.5h27q-149 -53 -222 -138t-73 -171q0 -131 123 -131q27 0 50.5 8.5t36.5 18t40 30.5l4 -4q-40 -56 -100.5 -97.5t-135.5 -41.5z" />
    <glyph glyph-name="tilde" unicode="&#x2dc;" horiz-adv-x="798" 
d="M698 1018q-43 0 -99 20t-101 44.5t-93.5 44.5t-78.5 20q-19 0 -30.5 -2.5t-26 -13t-25.5 -34t-21 -61.5q-12 0 -14 -2q36 148 75.5 201t121.5 53q53 0 126 -32t139 -64.5t103 -32.5q18 0 30.5 3t27 13.5t26 34t21.5 60.5q12 0 14 2q-36 -148 -75 -201t-120 -53z" />
    <glyph glyph-name="hungarumlaut" unicode="&#x2dd;" horiz-adv-x="876" 
d="M618 1006l275 383h227l-489 -383h-13zM260 1006l275 383h225l-492 -383h-8z" />
    <glyph glyph-name="Wgrave" unicode="&#x1e80;" horiz-adv-x="2039" 
d="M561 -33l-194 1045q-13 71 -21.5 108.5t-19.5 69t-25.5 44.5t-32.5 20t-49 10l-45 4l-2 12h616l-8 -12l-63 -2q-83 -3 -101 -27.5t-6 -103.5l144 -820h4l383 631l-13 68q-26 156 -50 201t-93 49l-57 4l-2 12h630l-8 -12l-61 -2q-87 -3 -107 -29.5t-8 -116.5l119 -798h4
l356 620q7 12 20 35q48 84 65 117.5t31.5 74t-2 53.5t-46.5 24.5t-92 17.5l-41 4l-2 12h448l-8 -12l-31 -4q-37 -5 -59.5 -10.5t-47 -20.5t-42 -33.5t-44.5 -58t-53.5 -84t-70.5 -119.5q-5 -9 -8 -14l-551 -957h-21l-149 940h-4l-568 -940h-14zM1346 1376l-351 383h219
l146 -383h-14z" />
    <glyph glyph-name="wgrave" unicode="&#x1e81;" horiz-adv-x="1234" 
d="M225 -27q-75 0 -121.5 50.5t-46.5 126.5q0 60 38.5 139.5t85.5 143.5t107.5 145t86.5 124l-242 31l-92 -160l-10 7q77 165 137 250t108 85q25 0 74 -7.5t88.5 -18t38.5 -17.5q-5 -20 -41 -90.5t-74.5 -146t-70 -168.5t-31.5 -158q0 -151 111 -151q40 0 83.5 30.5
t82.5 76.5t82.5 115t76.5 131.5t72 141.5q1 1 -4 4t-13.5 7.5t-19 11t-22.5 14t-23 18.5t-19.5 23t-14 28t-5.5 34q0 51 33 82.5t84 31.5q47 0 81 -34t34 -80q0 -37 -16.5 -70t-38.5 -58t-51 -70.5t-48 -98.5q-39 -107 -39 -172q0 -83 46.5 -124.5t127.5 -41.5q87 0 162 81
t116 204.5t38 250.5q-42 -18 -83.5 -14.5t-71.5 33.5t-30 75q0 50 32.5 85.5t78.5 35.5q60 0 96.5 -45t36.5 -119q0 -138 -88.5 -347.5t-202.5 -323.5q-98 -101 -182 -101q-75 0 -114.5 53.5t-39.5 118.5q0 85 84 308q-266 -480 -467 -480zM811 1006l-350 383h219l145 -383
h-14z" />
    <glyph glyph-name="Wacute" unicode="&#x1e82;" horiz-adv-x="2039" 
d="M1112 1376l274 383h242l-506 -383h-10zM561 -33l-194 1045q-13 71 -21.5 108.5t-19.5 69t-25.5 44.5t-32.5 20t-49 10l-45 4l-2 12h616l-8 -12l-63 -2q-83 -3 -101 -27.5t-6 -103.5l144 -820h4l383 631l-13 68q-26 156 -50 201t-93 49l-57 4l-2 12h630l-8 -12l-61 -2
q-87 -3 -107 -29.5t-8 -116.5l119 -798h4l356 620q7 12 20 35q48 84 65 117.5t31.5 74t-2 53.5t-46.5 24.5t-92 17.5l-41 4l-2 12h448l-8 -12l-31 -4q-37 -5 -59.5 -10.5t-47 -20.5t-42 -33.5t-44.5 -58t-53.5 -84t-70.5 -119.5q-5 -9 -8 -14l-551 -957h-21l-149 940h-4
l-568 -940h-14z" />
    <glyph glyph-name="wacute" unicode="&#x1e83;" horiz-adv-x="1234" 
d="M739 1006l275 383h241l-505 -383h-11zM225 -27q-75 0 -121.5 50.5t-46.5 126.5q0 60 38.5 139.5t85.5 143.5t107.5 145t86.5 124l-242 31l-92 -160l-10 7q77 165 137 250t108 85q25 0 74 -7.5t88.5 -18t38.5 -17.5q-5 -20 -41 -90.5t-74.5 -146t-70 -168.5t-31.5 -158
q0 -151 111 -151q40 0 83.5 30.5t82.5 76.5t82.5 115t76.5 131.5t72 141.5q1 1 -4 4t-13.5 7.5t-19 11t-22.5 14t-23 18.5t-19.5 23t-14 28t-5.5 34q0 51 33 82.5t84 31.5q47 0 81 -34t34 -80q0 -37 -16.5 -70t-38.5 -58t-51 -70.5t-48 -98.5q-39 -107 -39 -172
q0 -83 46.5 -124.5t127.5 -41.5q87 0 162 81t116 204.5t38 250.5q-42 -18 -83.5 -14.5t-71.5 33.5t-30 75q0 50 32.5 85.5t78.5 35.5q60 0 96.5 -45t36.5 -119q0 -138 -88.5 -347.5t-202.5 -323.5q-98 -101 -182 -101q-75 0 -114.5 53.5t-39.5 118.5q0 85 84 308
q-266 -480 -467 -480z" />
    <glyph glyph-name="Wdieresis" unicode="&#x1e84;" horiz-adv-x="2039" 
d="M1444 1403q-54 0 -86.5 37.5t-32.5 81.5q0 46 32.5 85.5t86.5 39.5q56 0 88.5 -39.5t32.5 -85.5q0 -45 -32.5 -82t-88.5 -37zM1047 1403q-55 0 -88 37.5t-33 81.5q0 46 33 85.5t88 39.5q56 0 88 -39t32 -86q0 -45 -32 -82t-88 -37zM561 -33l-194 1045q-13 71 -21.5 108.5
t-19.5 69t-25.5 44.5t-32.5 20t-49 10l-45 4l-2 12h616l-8 -12l-63 -2q-83 -3 -101 -27.5t-6 -103.5l144 -820h4l383 631l-13 68q-26 156 -50 201t-93 49l-57 4l-2 12h630l-8 -12l-61 -2q-87 -3 -107 -29.5t-8 -116.5l119 -798h4l356 620q7 12 20 35q48 84 65 117.5t31.5 74
t-2 53.5t-46.5 24.5t-92 17.5l-41 4l-2 12h448l-8 -12l-31 -4q-37 -5 -59.5 -10.5t-47 -20.5t-42 -33.5t-44.5 -58t-53.5 -84t-70.5 -119.5q-5 -9 -8 -14l-551 -957h-21l-149 940h-4l-568 -940h-14z" />
    <glyph glyph-name="wdieresis" unicode="&#x1e85;" horiz-adv-x="1234" 
d="M1018 1032q-54 0 -86.5 37.5t-32.5 81.5q0 46 32.5 85.5t86.5 39.5q56 0 88.5 -39.5t32.5 -85.5q0 -45 -32.5 -82t-88.5 -37zM621 1032q-55 0 -88 37.5t-33 81.5q0 46 33 85.5t88 39.5q56 0 88 -39t32 -86q0 -45 -32 -82t-88 -37zM225 -27q-75 0 -121.5 50.5t-46.5 126.5
q0 60 38.5 139.5t85.5 143.5t107.5 145t86.5 124l-242 31l-92 -160l-10 7q77 165 137 250t108 85q25 0 74 -7.5t88.5 -18t38.5 -17.5q-5 -20 -41 -90.5t-74.5 -146t-70 -168.5t-31.5 -158q0 -151 111 -151q40 0 83.5 30.5t82.5 76.5t82.5 115t76.5 131.5t72 141.5q1 1 -4 4
t-13.5 7.5t-19 11t-22.5 14t-23 18.5t-19.5 23t-14 28t-5.5 34q0 51 33 82.5t84 31.5q47 0 81 -34t34 -80q0 -37 -16.5 -70t-38.5 -58t-51 -70.5t-48 -98.5q-39 -107 -39 -172q0 -83 46.5 -124.5t127.5 -41.5q87 0 162 81t116 204.5t38 250.5q-42 -18 -83.5 -14.5
t-71.5 33.5t-30 75q0 50 32.5 85.5t78.5 35.5q60 0 96.5 -45t36.5 -119q0 -138 -88.5 -347.5t-202.5 -323.5q-98 -101 -182 -101q-75 0 -114.5 53.5t-39.5 118.5q0 85 84 308q-266 -480 -467 -480z" />
    <glyph glyph-name="thinspace" unicode="&#x2009;" horiz-adv-x="122" 
 />
    <glyph glyph-name="endash" unicode="&#x2013;" horiz-adv-x="872" 
d="M12 444l21 70h841l-14 -70h-848z" />
    <glyph glyph-name="emdash" unicode="&#x2014;" horiz-adv-x="1835" 
d="M12 444l21 70h1804l-14 -70h-1811z" />
    <glyph glyph-name="quoteleft" unicode="&#x2018;" horiz-adv-x="399" 
d="M305 793q-73 0 -114 50t-41 120q0 111 101 209.5t273 138.5l4 -8q-111 -39 -176 -102t-65 -138q0 -30 13 -55t28.5 -39.5t41.5 -27t38.5 -16.5t33.5 -10q-3 -49 -40 -85.5t-97 -36.5z" />
    <glyph glyph-name="quoteright" unicode="&#x2019;" horiz-adv-x="399" 
d="M137 813l-4 8q111 38 176.5 101t65.5 139q0 25 -7.5 45.5t-24.5 36t-29.5 25t-37 19t-30.5 11.5t-27 8q5 51 41.5 88t95.5 37q73 0 114.5 -50.5t41.5 -121.5q0 -111 -101.5 -209t-273.5 -137z" />
    <glyph glyph-name="quotesinglbase" unicode="&#x201a;" horiz-adv-x="399" 
d="M-88 -240l-4 9q113 38 178.5 100.5t65.5 138.5q0 29 -13.5 54t-29 39t-42.5 26.5t-39 16.5t-34 10q7 51 43.5 88t95.5 37q73 0 114.5 -51t41.5 -122q0 -111 -102 -209t-275 -137z" />
    <glyph glyph-name="quotedblleft" unicode="&#x201c;" horiz-adv-x="782" 
d="M690 793q-74 0 -116 50t-42 120q0 111 101.5 209.5t273.5 138.5l4 -8q-111 -39 -175 -102t-64 -138q0 -30 12.5 -55t28 -39.5t41 -27t38.5 -16.5t33 -10q-3 -49 -40 -85.5t-95 -36.5zM305 793q-73 0 -114 50t-41 120q0 111 101 209.5t273 138.5l4 -8q-111 -39 -176 -102
t-65 -138q0 -30 13 -55t28.5 -39.5t41.5 -27t38.5 -16.5t33.5 -10q-3 -49 -40 -85.5t-97 -36.5z" />
    <glyph glyph-name="quotedblright" unicode="&#x201d;" horiz-adv-x="782" 
d="M520 813l-4 8q111 38 176.5 101t65.5 139q0 25 -7.5 45.5t-24.5 36t-29.5 25t-37 19t-30.5 11.5t-27 8q5 51 41.5 88t95.5 37q73 0 114.5 -50.5t41.5 -121.5q0 -111 -101.5 -209t-273.5 -137zM137 813l-4 8q111 38 176.5 101t65.5 139q0 25 -7.5 45.5t-24.5 36t-29.5 25
t-37 19t-30.5 11.5t-27 8q5 51 41.5 88t95.5 37q73 0 114.5 -50.5t41.5 -121.5q0 -111 -101.5 -209t-273.5 -137z" />
    <glyph glyph-name="quotedblbase" unicode="&#x201e;" horiz-adv-x="782" 
d="M297 -240l-4 9q112 38 177 100.5t65 138.5q0 29 -13.5 54t-28.5 39t-42.5 27t-38.5 16t-33 10q5 51 41.5 88t95.5 37q73 0 114.5 -51t41.5 -122q0 -111 -101.5 -209t-273.5 -137zM-88 -240l-4 9q113 38 178.5 100.5t65.5 138.5q0 29 -13.5 54t-29 39t-42.5 26.5t-39 16.5
t-34 10q7 51 43.5 88t95.5 37q73 0 114.5 -51t41.5 -122q0 -111 -102 -209t-275 -137z" />
    <glyph glyph-name="dagger" unicode="&#x2020;" horiz-adv-x="886" 
d="M270 -319l248 1167h-414l2 20h416l88 412h23l-88 -412h416l-7 -20h-413l-248 -1167h-23z" />
    <glyph glyph-name="daggerdbl" unicode="&#x2021;" horiz-adv-x="886" 
d="M270 -319l84 393h-415l6 20h413l164 770h-413l2 21h415l84 395h23l-84 -395h416l-7 -21h-413l-164 -770h414l-2 -20h-416l-84 -393h-23z" />
    <glyph glyph-name="bullet" unicode="&#x2022;" horiz-adv-x="870" 
d="M440 80q-43 0 -144.5 43t-129.5 74q-31 33 -74 133.5t-43 144.5t43 146t74 133t132 72.5t144 41.5q44 0 145 -41.5t132 -72.5t73 -133t42 -146q0 -45 -41.5 -145.5t-73.5 -132.5q-30 -32 -132 -74.5t-147 -42.5z" />
    <glyph glyph-name="ellipsis" unicode="&#x2026;" horiz-adv-x="1312" 
d="M1034 -23q-56 0 -95.5 40.5t-39.5 97.5q0 55 39.5 95t95.5 40q55 0 95 -41t40 -94q2 -56 -38 -97t-97 -41zM588 -23q-57 0 -97 40.5t-40 97.5q0 54 40 94.5t95 40.5q56 0 95.5 -40.5t41.5 -94.5q0 -56 -40 -97t-95 -41zM141 -23q-57 0 -97 40.5t-40 97.5q0 55 39.5 95
t95.5 40q55 0 95 -41t40 -94q2 -56 -38 -97t-95 -41z" />
    <glyph glyph-name="perthousand" unicode="&#x2030;" horiz-adv-x="1714" 
d="M397 791q-115 0 -184.5 75t-69.5 183q0 109 69.5 185.5t184.5 76.5q116 0 186 -76.5t70 -185.5q0 -108 -70 -183t-186 -75zM-8 -29l1196 1340h26l-1196 -1340h-26zM1401 -27q-115 0 -184.5 74.5t-69.5 181.5q0 110 69.5 187.5t184.5 77.5q116 0 186 -77.5t70 -187.5
q0 -107 -70 -181.5t-186 -74.5zM813 -27q-115 0 -184.5 74.5t-69.5 181.5q0 110 69.5 187.5t184.5 77.5q116 0 186 -77.5t70 -187.5q0 -107 -70 -181.5t-186 -74.5zM397 811q104 0 168 68t64 170q0 101 -64.5 171t-167.5 70t-166 -70t-63 -171q0 -102 63 -170t166 -68z
M1401 -6q104 0 167.5 67.5t63.5 169.5q0 101 -64 171.5t-167 70.5t-166.5 -70.5t-63.5 -171.5q0 -102 63 -169.5t167 -67.5zM813 -6q104 0 167.5 67.5t63.5 169.5q0 101 -64 171.5t-167 70.5t-166 -70t-63 -172t62.5 -169.5t166.5 -67.5z" />
    <glyph glyph-name="guilsinglleft" unicode="&#x2039;" horiz-adv-x="550" 
d="M430 80l-403 369l6 30l555 348l6 -8l-326 -383l172 -344z" />
    <glyph glyph-name="guilsinglright" unicode="&#x203a;" horiz-adv-x="552" 
d="M-29 80l-4 8l328 383l-174 344l8 12l406 -368l-7 -27z" />
    <glyph glyph-name="fraction" unicode="&#x2044;" horiz-adv-x="940" 
d="M-121 -27l1239 1340h31l-1241 -1340h-29z" />
    <glyph glyph-name="zerosuperior" unicode="&#x2070;" horiz-adv-x="712" 
d="M346 504q-85 0 -147 47t-90.5 117.5t-28.5 152.5q0 79 25 162.5t70.5 156t119.5 119t162 46.5q126 0 196 -93t70 -223q0 -78 -25.5 -161.5t-71 -156.5t-119.5 -120t-161 -47zM322 518q154 0 237 578q10 84 -10.5 139t-77.5 55q-43 0 -82.5 -53t-68.5 -143t-50.5 -193.5
t-36.5 -220.5q-6 -71 15.5 -116.5t73.5 -45.5z" />
    <glyph glyph-name="foursuperior" unicode="&#x2074;" horiz-adv-x="677" 
d="M319 518l37 187h-333l2 14l542 592h90l-106 -496h131l-57 -110h-99l-39 -187h-168zM455 1165l-324 -350h250z" />
    <glyph glyph-name="fivesuperior" unicode="&#x2075;" horiz-adv-x="542" 
d="M166 471q-92 0 -144 35.5t-47 81.5q3 44 32 71t67 27q40 1 65.5 -25t21.5 -64.5t-42 -68.5q10 -15 30 -27.5t46 -11.5q70 0 121.5 48t60.5 120q11 97 -67 155t-230 67l190 413h342l-26 -155h-373l-53 -115q201 -13 294.5 -81.5t82.5 -176.5q-10 -120 -120 -205t-251 -88z
" />
    <glyph glyph-name="sixsuperior" unicode="&#x2076;" horiz-adv-x="700" 
d="M346 496q-132 0 -209.5 87t-77.5 212q0 84 33.5 162.5t97.5 143.5t151 112t202.5 70t242.5 15l-2 -10q-170 1 -292.5 -88t-188.5 -235l2 -2q81 43 162 43q96 0 153.5 -53t57.5 -146q0 -127 -94 -219t-238 -92zM326 510q45 0 84.5 50t60.5 117.5t21 127.5q0 162 -121 162
q-37 0 -76 -23q-57 -137 -57 -289q0 -145 88 -145z" />
    <glyph glyph-name="sevensuperior" unicode="&#x2077;" horiz-adv-x="585" 
d="M76 518l512 619l-2 6h-271q-100 0 -141 -25.5t-70 -87.5l-6 -12l-10 2l92 272h502l-2 -10l-442 -764h-162z" />
    <glyph glyph-name="eightsuperior" unicode="&#x2078;" horiz-adv-x="653" 
d="M328 500q-117 0 -200 62t-83 151q0 65 59 111t160 59l2 2q-63 47 -99 95.5t-36 111.5q0 89 87 154t192 65q123 0 197.5 -52.5t74.5 -136.5q0 -64 -57.5 -103t-151.5 -52v-4q70 -53 109 -104.5t39 -123.5q0 -95 -88.5 -165t-204.5 -70zM459 973q44 33 70 81.5t26 102.5
q0 60 -32.5 100.5t-96.5 40.5q-59 0 -94 -37.5t-35 -95.5q0 -13 2.5 -25.5t9 -25t12 -22t18 -22t19.5 -20t23.5 -20t24.5 -18.5t27 -20t26 -19zM319 514q61 0 101.5 39.5t40.5 103.5q0 15 -3 29.5t-11 29t-13.5 25t-20.5 25.5l-22.5 22.5t-27.5 23.5t-27 21t-30.5 22.5
t-29.5 21.5q-96 -76 -96 -195q0 -74 36 -121t103 -47z" />
    <glyph glyph-name="ninesuperior" unicode="&#x2079;" horiz-adv-x="698" 
d="M465 821q-78 -40 -148 -37q-99 0 -157 55.5t-58 151.5q0 128 94.5 224t239.5 96q131 0 208 -86.5t77 -210.5q0 -84 -33 -163t-97 -144.5t-151 -112.5t-202 -69.5t-242 -14.5l2 10q163 -1 282 82t185 219zM412 821q35 0 65 21q66 144 66 311q0 143 -86 143q-46 0 -86 -52
t-61 -121t-21 -130q0 -172 123 -172z" />
    <glyph glyph-name="plussuperior" unicode="&#x207a;" horiz-adv-x="712" 
d="M406 557l-3 342h-329l2 19l327 2l3 331h22v-331l328 -2l4 -19h-332v-342h-22z" />
    <glyph glyph-name="minussuperior" unicode="&#x207b;" horiz-adv-x="712" 
d="M702 895h-591l4 16h583z" />
    <glyph glyph-name="zeroinferior" unicode="&#x2080;" horiz-adv-x="712" 
d="M305 -266q-85 0 -147 47t-90.5 117.5t-28.5 152.5q0 79 25 162.5t70.5 156t119.5 119t162 46.5q126 0 196 -93t70 -223q0 -78 -25.5 -161.5t-71 -156.5t-119.5 -120t-161 -47zM281 -252q154 0 237 578q10 84 -10.5 139t-77.5 55q-43 0 -82 -53t-68.5 -143.5t-50.5 -193.5
t-36 -220q-7 -72 14.5 -117t73.5 -45z" />
    <glyph glyph-name="oneinferior" unicode="&#x2081;" horiz-adv-x="466" 
d="M-14 -252l2 8h20q73 0 78 21l145 686l-108 14l4 6l291 49l-162 -757q-1 -5 9.5 -9.5t29 -7t39.5 -2.5h14l2 -8h-364z" />
    <glyph glyph-name="twoinferior" unicode="&#x2082;" horiz-adv-x="624" 
d="M-45 -252l6 59q232 165 293 217q107 91 134 172q13 40 13 89q-1 64 -41 99.5t-98 35.5q-89 0 -149 -96l-11 6q142 211 295 211q97 0 151 -54.5t54 -132.5q0 -48 -17 -88t-44 -70.5t-76.5 -67t-96.5 -65.5t-124 -78t-140 -94v-2h342q21 0 55.5 35t80.5 117l8 16l6 -2
l-135 -307h-506z" />
    <glyph glyph-name="threeinferior" unicode="&#x2083;" horiz-adv-x="577" 
d="M164 -293q-105 0 -166 31.5t-61 93.5q0 33 26 58.5t62 25.5q39 0 65.5 -28t28.5 -67.5t-23 -82.5q8 -6 26.5 -11.5t31.5 -5.5q76 0 134 63t58 146q0 72 -47.5 119t-124.5 47q-37 0 -74 -14l-4 12q159 68 205 99q72 50 72 120q0 48 -32.5 80.5t-88.5 32.5q-45 0 -92.5 -34
t-69.5 -79l-8 6q42 96 118 159t167 63q83 0 134.5 -43t51.5 -105q0 -137 -234 -213v-4h9q92 -7 144 -60.5t52 -127.5q0 -110 -107.5 -195.5t-252.5 -85.5z" />
    <glyph glyph-name="fourinferior" unicode="&#x2084;" horiz-adv-x="677" 
d="M279 -252l36 186h-333l2 15l542 592h90l-106 -496h131l-57 -111h-99l-39 -186h-167zM414 395l-324 -350h250z" />
    <glyph glyph-name="fiveinferior" unicode="&#x2085;" horiz-adv-x="542" 
d="M125 -299q-92 0 -144 35.5t-47 81.5q3 44 32 71t67 27q40 1 65.5 -25t21.5 -64.5t-42 -68.5q10 -15 30 -27.5t46 -11.5q70 0 121.5 48t60.5 120q11 97 -67 155t-230 67l190 413h342l-26 -155h-373l-53 -115q201 -13 294.5 -81.5t82.5 -176.5q-10 -120 -120 -205t-251 -88
z" />
    <glyph glyph-name="sixinferior" unicode="&#x2086;" horiz-adv-x="700" 
d="M305 -274q-132 0 -209.5 87t-77.5 212q0 84 33.5 162.5t97.5 143.5t151 112t202.5 70t242.5 15l-2 -10q-170 1 -292.5 -88t-188.5 -235l2 -2q81 43 162 43q96 0 153.5 -53t57.5 -146q0 -127 -94 -219t-238 -92zM285 -260q45 0 84.5 50t60.5 117.5t21 127.5
q0 162 -121 162q-37 0 -76 -23q-57 -137 -57 -289q0 -145 88 -145z" />
    <glyph glyph-name="seveninferior" unicode="&#x2087;" horiz-adv-x="585" 
d="M35 -252l512 619l-2 6h-271q-100 0 -141 -25.5t-70 -87.5l-6 -12l-10 2l92 272h502l-2 -10l-442 -764h-162z" />
    <glyph glyph-name="eightinferior" unicode="&#x2088;" horiz-adv-x="653" 
d="M287 -270q-117 0 -200 62t-83 151q0 65 59 111t160 59l2 2q-63 47 -99 95.5t-36 111.5q0 89 87 154t192 65q123 0 197.5 -52.5t74.5 -136.5q0 -64 -57.5 -103t-151.5 -52v-4q70 -53 109 -104.5t39 -123.5q0 -95 -88.5 -165t-204.5 -70zM418 203q44 33 70 81.5t26 102.5
q0 60 -32.5 100.5t-96.5 40.5q-59 0 -94 -37.5t-35 -95.5q0 -13 2.5 -25.5t9 -25t12 -22t18 -22t19.5 -20t23.5 -20t24.5 -18.5t27 -20t26 -19zM279 -256q61 0 101 39.5t40 103.5q0 15 -3 29.5t-10.5 29t-13.5 25t-20.5 25t-22 22.5t-27 23t-27 21t-31 22.5t-29.5 21.5
q-97 -77 -97 -194q0 -74 36.5 -121t103.5 -47z" />
    <glyph glyph-name="nineinferior" unicode="&#x2089;" horiz-adv-x="698" 
d="M424 51q-78 -40 -148 -37q-99 0 -157 55.5t-58 151.5q0 128 94.5 224t239.5 96q131 0 208 -86.5t77 -210.5q0 -84 -33 -163t-97 -144.5t-151 -112.5t-202 -69.5t-242 -14.5l2 10q163 -1 282 82t185 219zM371 51q35 0 65 21q66 144 66 311q0 143 -86 143q-46 0 -86 -52
t-61 -121t-21 -130q0 -172 123 -172z" />
    <glyph glyph-name="Euro" unicode="&#x20ac;" horiz-adv-x="1046" 
d="M596 -25q-84 0 -155.5 27t-122.5 73t-89 109t-59 134t-27 149h-137l6 20h129q0 6 1 19.5t1 19.5q0 104 25 207h-105l7 21h106q75 234 269.5 388t414.5 154q130 0 212.5 -58.5t82.5 -139.5q0 -52 -38.5 -92.5t-98.5 -40.5q-66 0 -97.5 48.5t-17 112t67.5 103.5
q-1 1 -11 11.5t-18 16t-30 11.5t-52 6q-154 0 -270 -145.5t-162 -374.5h395l6 -21h-407q-16 -76 -16 -184q0 -42 2 -62h358l6 -20h-362q19 -168 108 -267.5t234 -99.5q146 0 262 131l12 -8q-88 -121 -198 -184.5t-232 -63.5z" />
    <glyph glyph-name="trademark" unicode="&#x2122;" horiz-adv-x="843" 
d="M623 958l2 7h10q26 0 31.5 6.5t7.5 36.5l6 237q-14 23 -39 27l-16 2l-2 6h129l79 -215h3l81 215h134l-2 -6l-25 -2q-25 -3 -25 -8l9 -291q0 -2 28 -6l17 -2l2 -7h-176v7l24 2q21 3 21 8l-4 280h-3l-112 -297h-8l-107 277q-2 2 -2 0l-4 -234q0 -24 8.5 -30t38.5 -6h10
l2 -7h-118zM352 958v7l23 2q22 3 22 8v299h-14q-53 2 -100 -94l-4 -9h-7l15 109h305l10 -109h-4l-4 9q-44 94 -96 94h-19v-301q0 -2 29 -6l14 -2v-7h-170z" />
    <glyph glyph-name="minus" unicode="&#x2212;" horiz-adv-x="886" 
d="M819 473h-735l4 25h727z" />
    <glyph glyph-name="uni2215" unicode="&#x2215;" horiz-adv-x="940" 
d="M-121 -27l1239 1340h31l-1241 -1340h-29z" />
    <glyph glyph-name="approxequal" unicode="&#x2248;" horiz-adv-x="886" 
d="M250 707q-72 0 -117.5 -36t-64.5 -122h-25q34 182 207 182q43 0 100 -21.5t103.5 -47t102.5 -47t97 -21.5q72 0 118 36t65 122h24q-19 -100 -75.5 -141.5t-131.5 -41.5q-54 0 -129 34.5t-149 69t-125 34.5zM250 371q-72 0 -117.5 -36t-64.5 -122h-25q34 182 207 182
q43 0 100 -21.5t103.5 -47t102.5 -47t97 -21.5q72 0 118 36t65 122h24q-19 -100 -75.5 -141.5t-131.5 -41.5q-54 0 -129 34.5t-149 69t-125 34.5z" />
    <glyph glyph-name="notequal" unicode="&#x2260;" horiz-adv-x="876" 
d="M45 647l-6 25h450l91 317h26l-90 -317h338l-6 -25h-340l-92 -330h432l6 -24h-446l-95 -338h-26l94 338h-342l6 24h344l92 330h-436z" />
    <glyph glyph-name="lessequal" unicode="&#x2264;" horiz-adv-x="860" 
d="M838 211l-807 342v22l807 340l10 -22l-780 -326v-4l780 -330zM848 76h-817l4 24h809z" />
    <glyph glyph-name="greaterequal" unicode="&#x2265;" horiz-adv-x="860" 
d="M848 553l-807 -342l-10 22l780 330v4l-780 326l10 22l807 -340v-22zM848 76h-817l4 24h809z" />
    <glyph glyph-name="pcircle" unicode="&#x24df;" horiz-adv-x="1441" 
d="M760 -29q-182 0 -335.5 89.5t-243 244t-89.5 336.5t89.5 337t243.5 245t335 90q182 0 336.5 -90t244 -244.5t89.5 -337.5q0 -137 -53 -261t-142.5 -213.5t-213.5 -142.5t-261 -53zM760 -8q176 0 324.5 87t234.5 236.5t86 325.5q0 175 -86 325t-234.5 238t-324.5 88
q-175 0 -323 -88t-234 -238t-86 -325q0 -176 86 -325.5t234 -236.5t323 -87zM453 246l4 12l53 6q57 5 57 21v694q0 6 -11 9t-58 9l-39 4l-4 13h354q160 0 242 -52.5t82 -146.5q0 -98 -91.5 -160.5t-242.5 -62.5q-34 0 -74 8v-319q0 -12 72 -19l51 -4l4 -12h-399zM795 608
q75 0 123.5 54t48.5 139q0 193 -181 196l-61 -2v-377q30 -10 70 -10z" />
    <glyph glyph-name="commaaccent" unicode="&#xf6c3;" horiz-adv-x="794" 
d="M410 -322q-20 -89 -120 -160.5t-241 -78.5l-4 10q90 10 146 54.5t67 105.5q15 70 -40.5 103t-123.5 3q-10 66 39.5 117.5t134.5 42.5q83 -7 121.5 -63.5t20.5 -133.5z" />
    <glyph glyph-name="J.alt" horiz-adv-x="1009" 
d="M309 -25q-151 0 -243.5 65.5t-92.5 154.5q0 69 44 114t108 45q57 0 96 -37t39 -88q0 -54 -31 -91t-88 -46q10 -44 57.5 -72t110.5 -28q85 0 133 62.5t80 215.5l205 965q1 8 -5.5 12.5t-32 8.5t-77.5 8l-75 6l-5 12h654l-6 -12l-90 -8q-103 -11 -107 -33l-211 -1006
q-10 -48 -80 -106t-177 -100t-206 -42z" />
    <glyph glyph-name="Jcircumflex.alt" horiz-adv-x="1009" 
d="M582 1354l362 403h17l194 -403h-14l-219 194h-4l-322 -194h-14zM1186 1282l-6 -12l-90 -8q-103 -8 -107 -33l-211 -1006q-10 -48 -80 -106t-177 -100t-206 -42q-151 0 -243.5 65.5t-92.5 154.5q0 69 44 114t108 45q57 0 96 -37t39 -88q0 -54 -31 -91t-88 -46
q10 -44 57.5 -72t110.5 -28q85 0 133 62.5t80 215.5l205 965q1 8 -5.5 12.5t-32 8.5t-77.5 8l-75 6l-5 12h654z" />
    <glyph glyph-name="zero.alt" horiz-adv-x="1142" 
d="M541 -25q-211 0 -341 123.5t-130 323.5q0 163 74 298t201 211.5t280 76.5q210 0 340.5 -124.5t130.5 -322.5q0 -124 -44 -233t-118.5 -186.5t-176.5 -122t-216 -44.5zM541 -8q110 0 208.5 43.5t170 119t113.5 181.5t42 225q0 190 -125 310t-325 120q-147 0 -270 -75
t-194 -206t-71 -288q0 -191 125 -310.5t326 -119.5z" />
    <glyph glyph-name="one.alt" horiz-adv-x="710" 
d="M-12 0q-1 0 0.5 4t3.5 8l2 4l55 2q56 2 80 7.5t27 23.5l184 879q2 6 -2.5 10.5t-16.5 8t-32.5 5.5t-52.5 4l-46 2l-2 15h555l-8 -15l-53 -2q-58 -3 -80.5 -9t-26.5 -23l-184 -879q-2 -6 2.5 -10.5t17 -7.5t33.5 -5t54 -4l41 -2l2 -16h-553z" />
    <glyph glyph-name="dot" horiz-adv-x="442" 
d="M225 340q-57 0 -97 40t-40 97q0 54 40 94.5t95 40.5q56 0 96.5 -41t40.5 -94q0 -56 -40 -96.5t-95 -40.5z" />
    <glyph glyph-name="ampersand.smallcap" horiz-adv-x="1204" 
d="M1028 631q68 -28 108 -82.5t40 -122.5q0 -124 -80.5 -228t-218 -163.5t-299.5 -59.5q-241 0 -380 106t-139 284q0 92 66.5 169t175.5 119q-25 45 -25 95q0 108 71.5 175.5t187.5 67.5q106 0 166.5 -77t46.5 -179l-17 4q5 58 -32.5 99t-102.5 41q-59 0 -96 -42.5
t-37 -109.5q0 -27 2 -39q16 2 47 2q70 0 113 -28t43 -74q0 -35 -35.5 -58.5t-89.5 -23.5q-71 0 -132 34t-96 89q-84 -49 -84 -154q0 -163 133 -258.5t357 -95.5q191 0 312.5 86.5t121.5 218.5q0 75 -50.5 127.5t-123.5 52.5q-43 0 -92 -51.5t-49 -95.5q0 -53 30.5 -81
t87.5 -28q-37 17 -47.5 57.5t12.5 74.5t70 34q36 0 59 -24.5t23 -63.5q0 -44 -31.5 -71t-85.5 -27q-83 0 -144.5 57.5t-61.5 142.5q0 66 39.5 114.5t95.5 78t112.5 56t96 63.5t39.5 86q0 47 -37 76.5t-94 29.5q29 -7 45 -36.5t14.5 -62t-26.5 -58t-68 -25.5q-40 0 -66 26
t-26 66q0 47 37.5 78t95.5 31q91 0 156 -63.5t65 -153.5q0 -66 -46 -111.5t-157 -93.5zM469 670q10 -47 41 -74t74 -27q20 0 35.5 12.5t15.5 26.5q0 28 -34 46t-89 18q-29 0 -43 -2z" />
    <glyph glyph-name="at.smallcap" horiz-adv-x="1196" 
d="M606 -160q-250 0 -407.5 149t-157.5 384q0 127 48 242.5t129 199.5t193 134t234 50q222 0 366 -135.5t144 -343.5q0 -113 -50 -212.5t-133.5 -158.5t-178.5 -59q-75 0 -119.5 37.5t-44.5 105.5q0 37 33 129h-3q-85 -146 -146 -209t-134 -63q-61 0 -107 42.5t-47 105.5
q0 84 54 183t145 191q117 117 223 117q51 0 74 -51t8 -117h2l78 203l176 -6l-104 -269l-70 -176q-25 -60 -4 -100.5t90 -40.5q54 0 109 42t94 124.5t39 181.5q0 201 -139.5 333t-354.5 132q-159 0 -294.5 -83t-214.5 -224t-79 -305q0 -228 153.5 -373t395.5 -145
q164 0 301.5 83.5t200.5 211.5l14 -7q-63 -131 -205 -217t-311 -86zM463 193q88 0 192 210q45 93 45 117q0 51 -28.5 99.5t-59.5 48.5q-24 0 -45 -21q-50 -48 -104.5 -171t-54.5 -208q0 -35 15 -55t40 -20z" />
    <glyph glyph-name="a.smallcap" horiz-adv-x="1021" 
d="M516 397h-229l-74 -131q-82 -147 -85 -152q-27 -56 -7 -75q18 -15 92 -23l29 -4l2 -12h-334l8 12l29 4q30 3 47 6.5t38.5 17.5t33 25.5t36.5 49.5t43.5 70.5t59.5 105.5l280 495l-8 74q61 8 101 41.5t86 102.5h36l78 -783q8 -84 24.5 -129t37 -59t55.5 -17l47 -4v-12
h-524l10 12l37 4q54 4 65 28.5t5 98.5zM299 420h215l-22 340h-3z" />
    <glyph glyph-name="b.smallcap" horiz-adv-x="993" 
d="M-51 0l8 12l57 6q77 8 80 25l191 893q1 4 -1 6t-12.5 4.5t-25.5 4.5t-47 5l-39 5l-2 12h454q183 0 279 -59t96 -158q0 -93 -82 -152.5t-231 -68.5v-3q128 -23 197 -88t69 -155q0 -137 -116 -213t-353 -76h-522zM406 18h47q69 1 125 41t87 104.5t31 137.5
q0 96 -68.5 160.5t-170.5 64.5h-19l-100 -473zM535 541q103 0 163 71.5t60 178.5q0 73 -43 115t-125 48h-60l-88 -401q58 -12 93 -12z" />
    <glyph glyph-name="c.smallcap" horiz-adv-x="1075" 
d="M600 -16q-122 0 -222 38.5t-163.5 103.5t-98 147.5t-34.5 172.5q0 105 38.5 201.5t110 173t185 122.5t252.5 46q186 0 299 -76l110 39l-51 -307l-12 2l-82 244q-38 35 -94.5 54.5t-114.5 19.5q-67 0 -124.5 -26t-99 -71t-73.5 -103.5t-51.5 -126t-29 -136t-9.5 -135.5
q0 -174 75 -268.5t214 -94.5q188 0 305 205l67 115l9 -5l-76 -303h-53q-44 -11 -126.5 -21.5t-150.5 -10.5z" />
    <glyph glyph-name="d.smallcap" horiz-adv-x="1103" 
d="M-49 0l8 12l59 6q73 8 76 25l191 893q1 4 -1.5 6.5t-11 5t-25 4.5t-44.5 4l-43 5l-2 12h436q237 1 368.5 -117.5t131.5 -308.5q0 -108 -44.5 -206.5t-125 -174.5t-203.5 -121t-270 -45h-500zM438 20q123 0 216.5 90.5t139.5 233t46 311.5q0 142 -60.5 219.5t-187.5 77.5
h-64l-192 -907z" />
    <glyph glyph-name="e.smallcap" horiz-adv-x="985" 
d="M-49 0l8 12l59 6q73 8 76 25l191 893q1 4 -1 6t-12 4.5t-24.5 4.5t-44.5 5l-43 5l-2 12h792v-330l-16 2l-2 17q-19 91 -52 152.5t-78.5 92.5t-96.5 41.5t-117 5.5l-60 -4l-94 -442l74 2q173 6 227 147l13 37l14 -2l-90 -405h-15l5 35q3 83 -33.5 119t-141.5 46l-55 5
l-102 -467l135 -9q142 3 254.5 76.5t187.5 220.5l8 19h17l-103 -332h-878z" />
    <glyph glyph-name="f.smallcap" horiz-adv-x="917" 
d="M-49 0l8 12l59 6q73 8 76 25l191 893q1 4 -1 6.5t-10.5 5t-25 4.5t-45.5 4l-43 5l-2 12h811l-27 -330l-14 2l-4 17q-31 174 -94 233t-193 57l-109 -4l-96 -448l64 4q88 5 142 39.5t85 107.5l14 35h15l-90 -403h-15l2 28q0 89 -35 129t-137 41h-47l-94 -442q-1 -7 3 -10.5
t22 -6.5t55 -6l61 -4v-12h-526z" />
    <glyph glyph-name="g.smallcap" horiz-adv-x="1138" 
d="M596 -27q-228 0 -371 131t-143 336q0 239 165 394t425 155q200 0 313 -74l115 35l-53 -309h-11l-82 252q-37 34 -95.5 55t-115.5 21q-123 0 -216.5 -82t-142 -221t-48.5 -312q0 -167 69 -263.5t189 -96.5q36 0 65.5 6.5t38.5 13.5l76 371q0 3 -1.5 4.5t-6 3t-10 2.5
t-16 2.5t-20 2.5t-25.5 2.5t-31 3.5l-46 6v12h527l-6 -12l-76 -6q-26 -2 -39.5 -6t-16 -7t-3.5 -10l-66 -311l90 20v-10q-85 -42 -206 -75.5t-226 -33.5z" />
    <glyph glyph-name="h.smallcap" horiz-adv-x="1181" 
d="M-49 0l8 12l59 6q73 8 76 25l191 893q1 4 -1 6t-12 4.5t-24.5 4.5t-44.5 5l-43 5l-2 12h510l-9 -12l-57 -7q-75 -8 -78 -22l-90 -424h385l94 428q1 4 -1 6t-12 4.5t-25 4.5t-46 5l-38 5l-3 12h508l-8 -12l-61 -7q-73 -8 -76 -22l-190 -893q-2 -9 12.5 -13t70.5 -10l41 -4
v-12h-505l10 12l55 6q75 9 78 25l92 438h-385l-94 -442q-2 -9 12 -13t70 -10l39 -4l2 -12h-508z" />
    <glyph glyph-name="i.smallcap" horiz-adv-x="598" 
d="M-27 0l7 12l61 6q72 6 76 25l190 893q1 4 -1 6.5t-10.5 5t-25 4.5t-45.5 4l-45 5l-2 12h512l-6 -12l-59 -7q-77 -8 -80 -22l-189 -893q-2 -9 12.5 -13t71.5 -10l39 -4l2 -12h-508z" />
    <glyph glyph-name="j.smallcap" horiz-adv-x="589" 
d="M-119 -287q-80 0 -124 36.5t-44 90.5q0 48 37 83.5t88 35.5q57 0 87 -40.5t18.5 -93t-62.5 -85.5q85 -17 143.5 60.5t96.5 258.5l184 877q1 4 -1 6.5t-10 5t-24 4.5t-45 4l-47 5l-2 12h512l-6 -12l-61 -7q-72 -8 -76 -22l-191 -895q-7 -34 -56.5 -89t-117 -107.5
t-151 -90t-148.5 -37.5z" />
    <glyph glyph-name="j.smallcap.alt" horiz-adv-x="825" 
d="M266 -23q-119 0 -200.5 54.5t-81.5 132.5q0 64 38.5 101.5t94.5 37.5q50 0 86.5 -32.5t36.5 -77.5q0 -50 -26.5 -80.5t-70.5 -40.5q7 -36 42 -56t79 -20q59 0 91 45t57 160l155 735q1 4 -1 6.5t-11 5t-26.5 4.5t-47.5 4l-57 5l-4 12h534l-6 -12l-63 -7q-74 -6 -78 -22
l-158 -756q-8 -39 -66.5 -85.5t-147 -80t-169.5 -33.5z" />
    <glyph glyph-name="k.smallcap" horiz-adv-x="1118" 
d="M-45 0l4 12l59 6q73 8 76 25l191 893q1 4 -1 6.5t-10.5 5t-25 4.5t-45.5 4l-43 5l-2 12h514l-6 -12l-64 -7q-74 -6 -78 -22l-100 -477l281 237q180 153 197 205q11 36 -43 50l-58 9l-39 5l-4 12h436l-6 -12l-47 -3q-25 -2 -47 -7t-48.5 -19t-44.5 -24.5t-53.5 -38
t-56 -44.5t-72 -60t-82.5 -69l-18 -14l180 -508q20 -55 34.5 -86t31 -47t29.5 -20t40 -7l23 -2l2 -12h-492l6 12l21 2q45 4 59 19.5t8 55.5t-38 134l-103 291l-100 -88l-84 -387q-2 -9 12 -13t70 -10l43 -4l6 -12h-512z" />
    <glyph glyph-name="l.smallcap" horiz-adv-x="940" 
d="M-49 0l8 12l59 6q73 8 76 25l191 893q1 4 -1 6.5t-10.5 5t-25 4.5t-45.5 4l-43 5l-2 12h528l-6 -12l-78 -7q-75 -9 -78 -22l-194 -907l104 -9q114 0 212.5 74.5t207.5 263.5l10 21h13l-93 -375h-833z" />
    <glyph glyph-name="m.smallcap" horiz-adv-x="1341" 
d="M657 317l387 656h377l-8 -12l-61 -7q-73 -8 -76 -22l-191 -893q-2 -9 12.5 -13t71.5 -10l41 -4l2 -12h-516l6 12l76 6q64 5 68 25l182 860h-2l-534 -903h-25l-143 836q-6 16 -7 16l-176 -780q-3 -15 4.5 -25.5t39 -19.5t89.5 -13l27 -2l2 -12h-356l6 12l31 2
q72 5 99 24.5t34 51.5l190 795q-22 66 -104 73l-45 3l-2 12h389z" />
    <glyph glyph-name="n.smallcap" horiz-adv-x="1087" 
d="M322 811l-156 -739q-3 -15 5 -25.5t39 -19.5t87 -13l29 -2v-12h-355l9 12l28 2q122 7 135 74l164 743q-29 55 -73 87.5t-87 37.5h-14l-2 17h404l366 -608h2l113 536q3 15 -5.5 25.5t-40 19.5t-87.5 12l-29 3l-2 12h354l-6 -12l-29 -3q-121 -7 -133 -73l-198 -895h-19z
" />
    <glyph glyph-name="o.smallcap" horiz-adv-x="1165" 
d="M584 -23q-219 0 -353.5 137.5t-134.5 342.5q0 102 40.5 198t111.5 170t176.5 119t226.5 45q146 0 260.5 -66.5t176 -177t61.5 -243.5q0 -101 -41 -196t-113 -168t-179.5 -117t-231.5 -44zM559 -4q98 0 178.5 97.5t124 253t43.5 329.5q0 134 -60 212.5t-169 78.5
q-67 0 -124.5 -48t-96 -124t-66.5 -170t-40.5 -186t-12.5 -173q0 -124 58.5 -197t164.5 -73z" />
    <glyph glyph-name="p.smallcap" horiz-adv-x="976" 
d="M-51 0l8 12l61 6q73 8 76 25l191 893q1 4 -1 6.5t-10.5 5t-25 4.5t-45.5 4l-45 5l-2 12h473q190 0 290.5 -69t100.5 -179q0 -130 -111 -207.5t-301 -77.5q-111 0 -182 19l-90 -420q-1 -7 3 -10.5t22 -6.5t55 -6l61 -4v-12h-528zM524 463q103 0 174.5 93t71.5 218
q0 76 -41.5 126t-114.5 54h-84l-100 -477q42 -14 94 -14z" />
    <glyph glyph-name="q.smallcap" horiz-adv-x="1165" 
d="M928 -289q-105 0 -178 11t-138.5 41.5t-110 88t-71.5 146.5q-154 44 -244 169.5t-90 289.5q0 102 40.5 198t111.5 170t176.5 119t226.5 45q146 0 260.5 -66.5t176 -177t61.5 -243.5q0 -179 -118.5 -323.5t-313.5 -186.5q35 -153 108.5 -207t247.5 -53v-11
q-83 -10 -145 -10zM559 -4q98 0 178.5 97.5t124 253t43.5 329.5q0 134 -60 212.5t-169 78.5q-67 0 -124.5 -48t-96 -124t-66.5 -170t-40.5 -186t-12.5 -173q0 -124 58.5 -197t164.5 -73z" />
    <glyph glyph-name="r.smallcap" horiz-adv-x="1062" 
d="M-51 0l8 12l61 6q73 9 76 25l191 893q1 4 -1 6.5t-10.5 5t-25 4.5t-45.5 4l-45 5l-2 12h485q166 0 273.5 -64t107.5 -176q0 -100 -80.5 -161t-228.5 -62l118 -307q44 -112 71 -146t87 -41l25 -4v-12h-363l-157 502q-29 7 -54 24l-104 -487q-1 -5 1 -8t10.5 -6t24.5 -5
t44 -4l59 -4v-12h-526zM551 524q101 0 164 71t63 171q0 81 -49 134.5t-141 53.5h-60l-86 -409q62 -21 109 -21z" />
    <glyph glyph-name="s.smallcap" horiz-adv-x="835" 
d="M397 -23q-187 0 -350 101l23 260h10l51 -150q67 -192 260 -192q93 0 150 60t57 139q0 26 -7 49t-25 44t-32 35t-45.5 33t-46.5 27.5t-53 28.5q-49 26 -87 51.5t-75 60.5t-57 77.5t-20 90.5q0 118 98.5 207.5t240.5 89.5q116 0 244 -65l101 20l-48 -282h-8l-110 251
q-20 22 -65.5 40t-92.5 18q-73 0 -124.5 -49t-51.5 -117q0 -34 14.5 -62t47.5 -53.5t59 -41t77 -42.5q52 -27 89 -52t76.5 -61.5t60 -83.5t20.5 -102q0 -130 -108.5 -230t-272.5 -100z" />
    <glyph glyph-name="t.smallcap" horiz-adv-x="1093" 
d="M221 0l6 12l66 6q75 8 78 25l192 913h-41q-40 -2 -84.5 -23.5t-82 -51t-76 -70t-65 -73t-50.5 -66.5l-17 -25h-12l109 326h891l-43 -324h-11l-6 25q-11 49 -29 94t-45.5 89.5t-68 71t-88.5 27.5h-41l-197 -917q-1 -5 1 -8t10.5 -6t25 -5t45.5 -4l49 -4v-12h-516z" />
    <glyph glyph-name="u.smallcap" horiz-adv-x="1101" 
d="M573 -27q-199 0 -307 76.5t-108 222.5q0 73 14 144q3 15 8.5 40.5t20.5 94t28 128.5t26.5 122.5t21 99t6.5 35.5q1 4 -0.5 6.5t-9.5 5t-24.5 4.5t-45.5 4l-45 5l-2 12h516l-8 -12l-64 -7q-72 -5 -76 -22l-108 -508q-19 -108 -19 -152q0 -118 64 -170.5t190 -52.5
q112 0 178 65.5t95 204.5l114 543q12 59 -11.5 76t-111.5 20l-28 3l-2 12h354l-6 -12l-31 -3q-76 -3 -101 -23t-40 -91l-117 -529q-37 -172 -127 -257t-244 -85z" />
    <glyph glyph-name="v.smallcap" horiz-adv-x="1056" 
d="M455 -10l-158 778q-18 87 -32 124t-30.5 50t-52.5 16l-41 3v12h504l-6 -12l-45 -3q-69 -3 -79.5 -25.5t9.5 -98.5l103 -541h8l250 416q13 21 35 58q76 120 74 150t-99 41l-31 3l-2 12h334l-8 -12l-27 -3q-22 -2 -36 -4t-31.5 -10.5t-26 -13t-26 -24t-27 -31.5t-32.5 -48
t-38 -60t-49 -81l-424 -696h-16z" />
    <glyph glyph-name="w.smallcap" horiz-adv-x="1564" 
d="M436 -25l-157 793q-17 83 -30 120.5t-30.5 52t-50.5 17.5l-31 3l-2 12h498l-8 -12l-47 -3q-61 -3 -74.5 -17.5t-5.5 -57.5l112 -596h2l262 432l-10 49q-19 111 -38 148.5t-62 41.5l-45 3l-2 12h522l-8 -12l-47 -3q-61 -3 -78 -19.5t-10 -70.5l86 -561h2l231 404
q11 18 30 51q17 29 24.5 42t19 34.5t15 30t8 23t2 20t-6 14.5t-12.5 12t-21.5 8t-29 7.5t-39.5 4.5l-33 3l-2 12h342l-8 -12l-25 -3q-19 -3 -33 -6t-26.5 -6t-23.5 -10.5t-19 -12t-19 -19t-18 -23t-21 -32.5t-23 -38.5t-29.5 -50.5t-34.5 -60l-416 -725h-21l-114 711h-2
l-430 -711h-13z" />
    <glyph glyph-name="x.smallcap" horiz-adv-x="1044" 
d="M-74 0l6 12l58 4q58 2 106.5 42t172.5 175q40 43 63 68l119 131l-140 344q-7 16 -16 40.5t-13.5 36t-12 28.5t-11.5 24.5t-11 18.5t-12.5 15t-13.5 9.5t-17 7t-20 2.5l-51 3v12h526l-8 -12l-41 -3q-54 -3 -67 -24.5t10 -83.5l88 -234h2l72 80q137 154 158 184q32 46 9 61
q-16 10 -91 17l-35 3v12h374l-8 -12l-43 -3q-76 -6 -133.5 -52t-226.5 -234l-68 -76l170 -416q43 -104 62 -134.5t55 -31.5l33 -2l2 -12h-508l6 12l41 2q57 3 72.5 24t-4.5 68l-119 306h-2l-119 -133q-139 -152 -158 -199q-17 -41 28 -55q20 -6 58 -9l31 -4l2 -12h-375z" />
    <glyph glyph-name="y.smallcap" horiz-adv-x="1040" 
d="M190 0l7 12l67 6q72 6 76 25l86 406l-115 342q-33 99 -56.5 128.5t-78.5 38.5l-24 3l-2 12h514l-9 -12l-20 -3q-75 -7 -97 -24.5t-12 -50.5l129 -391h4l146 196q113 152 131 192q20 45 -13 60q-22 10 -85 16l-35 5l-2 12h373l-9 -12l-43 -5q-70 -7 -116 -52t-183 -229
q-5 -7 -8 -11l-145 -191l-92 -434q-2 -9 12 -13t69 -10l46 -4l2 -12h-517z" />
    <glyph glyph-name="z.smallcap" horiz-adv-x="978" 
d="M-20 0l2 10l759 936v2l-114 6q-133 1 -252.5 -77t-190.5 -213l-8 -17h-12l80 326h800l-4 -10l-780 -934v-2l115 -7q119 -6 204 23.5t166 108.5t177 229l16 25h10l-133 -406h-835z" />
    <glyph glyph-name="fi.smallcap" horiz-adv-x="1513" 
d="M891 0l6 12l61 6q72 6 76 25l191 893q1 4 -1 6.5t-10.5 5t-25 4.5t-45.5 4l-45 5l-2 12h510l-4 -12l-62 -7q-75 -8 -78 -22l-190 -893q-2 -9 12.5 -13t71.5 -10l41 -4l2 -12h-508zM-49 0l8 12l59 6q73 8 76 25l191 893q1 4 -1 6.5t-10.5 5t-25 4.5t-45.5 4l-43 5l-2 12
h811l-27 -330l-14 2l-4 17q-31 174 -94 233t-193 57l-109 -4l-96 -448l64 4q88 5 142 39.5t85 107.5l14 35h15l-90 -403h-15l2 28q0 89 -35 129t-137 41h-47l-94 -442q-1 -7 3 -10.5t22 -6.5t55 -6l61 -4v-12h-526z" />
    <glyph glyph-name="fl.smallcap" horiz-adv-x="1855" 
d="M868 0l9 12l59 6q73 8 76 25l190 893q1 4 -1 6.5t-10.5 5t-25 4.5t-45.5 4l-43 5l-2 12h529l-9 -12l-77 -7q-73 -9 -76 -22l-195 -907l105 -9q114 0 212 74.5t205 263.5l13 21h12l-94 -375h-832zM-49 0l8 12l59 6q73 8 76 25l191 893q1 4 -1 6.5t-10.5 5t-25 4.5t-45.5 4
l-43 5l-2 12h811l-27 -330l-14 2l-4 17q-31 174 -94 233t-193 57l-109 -4l-96 -448l64 4q88 5 142 39.5t85 107.5l14 35h15l-90 -403h-15l2 28q0 89 -35 129t-137 41h-47l-94 -442q-1 -7 3 -10.5t22 -6.5t55 -6l61 -4v-12h-526z" />
    <glyph glyph-name="ff.smallcap" horiz-adv-x="1832" 
d="M868 0l9 12l59 6q73 8 76 25l190 893q1 4 -1 6.5t-10.5 5t-25 4.5t-45.5 4l-43 5l-2 12h811l-26 -328h-17l-4 19q-15 89 -38 145.5t-58.5 88.5t-80 43.5t-110.5 10.5l-108 -4l-96 -448l65 4q88 5 141.5 39.5t85.5 107.5l15 35h12l-90 -403h-12v30q0 88 -34.5 127.5
t-137.5 40.5h-47l-95 -442q-1 -7 3 -10.5t22.5 -6.5t56.5 -6l60 -4l2 -12h-527zM-49 0l8 12l61 6q73 8 76 25l191 893q1 4 -1.5 6.5t-11 5t-25 4.5t-44.5 4l-43 5l-2 12h809l-27 -328h-14l-4 19q-31 172 -94 231t-193 57l-109 -4l-96 -448l64 4q88 5 142 39.5t85 107.5
l14 35h15l-90 -403h-15l2 30q0 88 -35 127.5t-137 40.5h-47l-94 -442q-1 -7 3 -10.5t22 -6.5t55 -6l61 -4v-12h-526z" />
    <glyph glyph-name="ffi.smallcap" horiz-adv-x="2430" 
d="M868 0l9 12l59 6q73 8 76 25l190 893q1 4 -1 6.5t-10.5 5t-25 4.5t-45.5 4l-43 5l-2 12h811l-26 -328h-17l-4 19q-15 89 -38 145.5t-58.5 88.5t-80 43.5t-110.5 10.5l-108 -4l-96 -448l65 4q88 5 141.5 39.5t85.5 107.5l15 35h12l-90 -403h-12v30q0 88 -34.5 127.5
t-137.5 40.5h-47l-95 -442q-1 -7 3 -10.5t22.5 -6.5t56.5 -6l60 -4l2 -12h-527zM1806 0l6 12l64 6q73 9 76 25l188 893q1 4 -1 6.5t-10.5 5t-25 4.5t-45.5 4l-45 5l-2 12h512l-6 -12l-59 -7q-77 -8 -80 -22l-189 -893q-2 -9 12.5 -13t71.5 -10l39 -4l2 -12h-508zM-49 0l8 12
l61 6q73 8 76 25l191 893q1 4 -1.5 6.5t-11 5t-25 4.5t-44.5 4l-43 5l-2 12h809l-27 -328h-14l-4 19q-31 172 -94 231t-193 57l-109 -4l-96 -448l64 4q88 5 142 39.5t85 107.5l14 35h15l-90 -403h-15l2 30q0 88 -35 127.5t-137 40.5h-47l-94 -442q-1 -7 3 -10.5t22 -6.5
t55 -6l61 -4v-12h-526z" />
    <glyph glyph-name="ffl.smallcap" horiz-adv-x="2772" 
d="M1784 0l8 12l61 6q73 8 76 25l191 893q1 4 -1.5 6.5t-11 5t-25 4.5t-44.5 4l-43 5l-2 12h526l-6 -12l-78 -7q-75 -9 -78 -22l-194 -907l104 -9q113 0 212 75t208 263l10 21h13l-93 -375h-833zM868 0l9 12l59 6q73 8 76 25l190 893q1 4 -1 6.5t-10.5 5t-25 4.5t-45.5 4
l-43 5l-2 12h811l-26 -328h-17l-4 19q-15 89 -38 145.5t-58.5 88.5t-80 43.5t-110.5 10.5l-108 -4l-96 -448l65 4q88 5 141.5 39.5t85.5 107.5l15 35h12l-90 -403h-12v30q0 88 -34.5 127.5t-137.5 40.5h-47l-95 -442q-1 -7 3 -10.5t22.5 -6.5t56.5 -6l60 -4l2 -12h-527z
M-49 0l8 12l61 6q73 8 76 25l191 893q1 4 -1.5 6.5t-11 5t-25 4.5t-44.5 4l-43 5l-2 12h809l-27 -328h-14l-4 19q-31 172 -94 231t-193 57l-109 -4l-96 -448l64 4q88 5 142 39.5t85 107.5l14 35h15l-90 -403h-15l2 30q0 88 -35 127.5t-137 40.5h-47l-94 -442q-1 -7 3 -10.5
t22 -6.5t55 -6l61 -4v-12h-526z" />
    <glyph glyph-name="germandbls.smallcap" horiz-adv-x="1671" 
d="M1233 -23q-187 0 -350 101l22 260h10l52 -150q67 -192 260 -192q93 0 150 60t57 139q0 26 -7 49t-25 44t-32 35t-45.5 33t-46.5 27.5t-53 28.5q-49 26 -87 51.5t-75 60.5t-57.5 77.5t-20.5 90.5q0 118 99 207.5t241 89.5q116 0 244 -65l100 20l-47 -282h-8l-111 251
q-20 22 -65 40t-92 18q-73 0 -125 -49t-52 -117q0 -27 12 -52t27 -42.5t46.5 -38.5t52 -32.5t61.5 -33.5q52 -27 89 -52t76.5 -61.5t60 -83.5t20.5 -102q0 -130 -108.5 -230t-272.5 -100zM397 -23q-187 0 -350 101l23 260h10l51 -150q67 -192 260 -192q93 0 150 60t57 139
q0 26 -7 49t-25 44t-32 35t-45.5 33t-46.5 27.5t-53 28.5q-49 26 -87 51.5t-75 60.5t-57 77.5t-20 90.5q0 118 98.5 207.5t240.5 89.5q116 0 244 -65l101 20l-48 -282h-8l-110 251q-20 22 -65.5 40t-92.5 18q-73 0 -124.5 -49t-51.5 -117q0 -34 14.5 -62t47.5 -53.5t59 -41
t77 -42.5q52 -27 89 -52t76.5 -61.5t60 -83.5t20.5 -102q0 -130 -108.5 -230t-272.5 -100z" />
    <glyph glyph-name="agrave.smallcap" horiz-adv-x="1021" 
d="M516 397h-229l-74 -131q-82 -147 -85 -152q-27 -56 -7 -75q18 -15 92 -23l29 -4l2 -12h-334l8 12l29 4q30 3 47 6.5t38.5 17.5t33 25.5t36.5 49.5t43.5 70.5t59.5 105.5l280 495l-8 74q61 8 101 41.5t86 102.5h36l78 -783q8 -84 24.5 -129t37 -59t55.5 -17l47 -4v-12
h-524l10 12l37 4q54 4 65 28.5t5 98.5zM299 420h215l-22 340h-3zM713 1067l-351 383h220l145 -383h-14z" />
    <glyph glyph-name="aacute.smallcap" horiz-adv-x="1021" 
d="M516 397h-229l-74 -131q-82 -147 -85 -152q-27 -56 -7 -75q18 -15 92 -23l29 -4l2 -12h-334l8 12l29 4q30 3 47 6.5t38.5 17.5t33 25.5t36.5 49.5t43.5 70.5t59.5 105.5l280 495l-8 74q61 8 101 41.5t86 102.5h36l78 -783q8 -84 24.5 -129t37 -59t55.5 -17l47 -4v-12
h-524l10 12l37 4q54 4 65 28.5t5 98.5zM299 420h215l-22 340h-3zM565 1067l275 383h241l-506 -383h-10z" />
    <glyph glyph-name="acircumflex.smallcap" horiz-adv-x="1021" 
d="M516 397h-229l-74 -131q-82 -147 -85 -152q-27 -56 -7 -75q18 -15 92 -23l29 -4l2 -12h-334l8 12l29 4q30 3 47 6.5t38.5 17.5t33 25.5t36.5 49.5t43.5 70.5t59.5 105.5l280 495l-8 74q61 8 101 41.5t86 102.5h36l78 -783q8 -84 24.5 -129t37 -59t55.5 -17l47 -4v-12
h-524l10 12l37 4q54 4 65 28.5t5 98.5zM389 1044l363 404h16l195 -404h-15l-219 195h-4l-322 -195h-14zM299 420h215l-22 340h-3z" />
    <glyph glyph-name="atilde.smallcap" horiz-adv-x="1021" 
d="M516 397h-229l-74 -131q-82 -147 -85 -152q-27 -56 -7 -75q18 -15 92 -23l29 -4l2 -12h-334l8 12l29 4q30 3 47 6.5t38.5 17.5t33 25.5t36.5 49.5t43.5 70.5t59.5 105.5l280 495l-8 74q61 8 101 41.5t86 102.5h36l78 -783q8 -84 24.5 -129t37 -59t55.5 -17l47 -4v-12
h-524l10 12l37 4q54 4 65 28.5t5 98.5zM299 420h215l-22 340h-3zM850 1079q-54 0 -128 32.5t-141.5 64.5t-103.5 32q-19 0 -30 -2.5t-25.5 -12.5t-25.5 -33.5t-21 -61.5q-13 0 -15 -2q36 148 75.5 201t121.5 53q42 0 97.5 -20t100 -44.5t93 -44.5t78.5 -20q19 0 30.5 3
t26 13t26 33.5t21.5 60.5q12 0 14 2q-37 -148 -75 -201t-119 -53z" />
    <glyph glyph-name="adieresis.smallcap" horiz-adv-x="1021" 
d="M516 397h-229l-74 -131q-82 -147 -85 -152q-27 -56 -7 -75q18 -15 92 -23l29 -4l2 -12h-334l8 12l29 4q30 3 47 6.5t38.5 17.5t33 25.5t36.5 49.5t43.5 70.5t59.5 105.5l280 495l-8 74q61 8 101 41.5t86 102.5h36l78 -783q8 -84 24.5 -129t37 -59t55.5 -17l47 -4v-12
h-524l10 12l37 4q54 4 65 28.5t5 98.5zM299 420h215l-22 340h-3zM901 1094q-55 0 -87 37t-32 81q0 46 32.5 85.5t86.5 39.5q56 0 88.5 -39.5t32.5 -85.5q0 -44 -32.5 -81t-88.5 -37zM504 1094q-55 0 -88 37t-33 81q0 46 33 85.5t88 39.5q56 0 88.5 -39.5t32.5 -85.5
q0 -44 -32.5 -81t-88.5 -37z" />
    <glyph glyph-name="aring.smallcap" horiz-adv-x="1021" 
d="M516 397h-229l-74 -131q-82 -147 -85 -152q-27 -56 -7 -75q18 -15 92 -23l29 -4l2 -12h-334l8 12l29 4q30 3 47 6.5t38 16.5t33 25.5t36.5 49.5t44 71t59.5 106l377 665q-49 22 -77 66t-28 100q0 77 50 131t132 54t132.5 -54.5t50.5 -130.5q0 -66 -36 -115.5t-99 -64.5
l71 -721q8 -84 24.5 -129t37 -59t55.5 -17l47 -4v-12h-524l10 12l37 4q54 4 65 28.5t5 98.5zM659 956q73 0 117.5 48t44.5 118q0 69 -44.5 117.5t-117.5 48.5t-117 -48.5t-44 -117.5q0 -70 44 -118t117 -48zM299 420h215l-22 340h-3z" />
    <glyph glyph-name="aringacute.smallcap" horiz-adv-x="1021" 
d="M514 1309l274 383h242l-506 -383h-10zM516 397h-229l-74 -131q-82 -147 -85 -152q-27 -56 -7 -75q18 -15 92 -23l29 -4l2 -12h-334l8 12l29 4q30 3 47 6.5t38 16.5t33 25.5t36.5 49.5t44 71t59.5 106l377 665q-49 22 -77 66t-28 100q0 77 50 131t132 54t132.5 -54.5
t50.5 -130.5q0 -66 -36 -115.5t-99 -64.5l71 -721q8 -84 24.5 -129t37 -59t55.5 -17l47 -4v-12h-524l10 12l37 4q54 4 65 28.5t5 98.5zM659 956q73 0 117.5 48t44.5 118q0 69 -44.5 117.5t-117.5 48.5t-117 -48.5t-44 -117.5q0 -70 44 -118t117 -48zM299 420h215l-22 340h-3
z" />
    <glyph glyph-name="amacron.smallcap" horiz-adv-x="1021" 
d="M516 397h-229l-74 -131q-82 -147 -85 -152q-27 -56 -7 -75q18 -15 92 -23l29 -4l2 -12h-334l8 12l29 4q30 3 47 6.5t38.5 17.5t33 25.5t36.5 49.5t43.5 70.5t59.5 105.5l280 495l-8 74q61 8 101 41.5t86 102.5h36l78 -783q8 -84 24.5 -129t37 -59t55.5 -17l47 -4v-12
h-524l10 12l37 4q54 4 65 28.5t5 98.5zM369 1067l39 88h510l-37 -88h-512zM299 420h215l-22 340h-3z" />
    <glyph glyph-name="abreve.smallcap" horiz-adv-x="1021" 
d="M516 397h-229l-74 -131q-82 -147 -85 -152q-27 -56 -7 -75q18 -15 92 -23l29 -4l2 -12h-334l8 12l29 4q30 3 47 6.5t38.5 17.5t33 25.5t36.5 49.5t43.5 70.5t59.5 105.5l280 495l-8 74q61 8 101 41.5t86 102.5h36l78 -783q8 -84 24.5 -129t37 -59t55.5 -17l47 -4v-12
h-524l10 12l37 4q54 4 65 28.5t5 98.5zM299 420h215l-22 340h-3zM606 1036q-213 0 -213 373h17q28 -219 219 -219q194 0 313 219h19q-30 -72 -54.5 -121.5t-58 -100.5t-67.5 -82t-79 -50t-96 -19z" />
    <glyph glyph-name="aogonek.smallcap" horiz-adv-x="1021" 
d="M694 -489q-73 0 -117.5 49t-44.5 123q0 97 95.5 183.5t218.5 133.5h-428l10 12l37 4q54 4 66 29t6 98l-19 254h-231l-74 -131q-82 -147 -85 -152q-27 -56 -7 -75q18 -15 92 -23l31 -4l2 -12h-336l8 12l29 4q30 3 47 6.5t38.5 17.5t33 25.5t36.5 49.5t43.5 70.5
t59.5 105.5l280 497l-6 74q59 7 98.5 40t86.5 102h36l78 -783q8 -84 24.5 -129t37 -59t55.5 -17l47 -4v-12q-125 -29 -195.5 -107t-70.5 -167q0 -62 30.5 -95.5t92.5 -33.5q27 0 51 9t36 17t40 29l4 -4q-39 -56 -100 -96.5t-136 -40.5zM299 420h217l-22 342h-2z" />
    <glyph glyph-name="ae.smallcap" horiz-adv-x="1411" 
d="M608 395h-266l-102 -129q-23 -29 -63 -78q-81 -99 -90 -123q-10 -28 24 -38q19 -6 69 -11l29 -4l4 -12h-334l4 12l29 4q30 3 48 6t39.5 14t36.5 23t43 43t53.5 62.5t74.5 91.5q10 13 16 20l486 607q14 17 17.5 29.5t-5.5 22.5t-33 15.5t-65 7.5l-60 3v12h811l2 -330
l-14 2l-6 17q-32 93 -66 152.5t-76.5 91.5t-89.5 42.5t-112 5.5l-47 -4l-95 -442l64 2q174 6 227 147l15 37l12 -2l-90 -405h-15l4 35q9 82 -28.5 118.5t-145.5 46.5l-47 5l-98 -467l123 -9q139 3 247 75t195 222l10 19h15l-103 -332h-886l8 16l78 9q77 6 80 22zM360 418
h252l90 424h-2z" />
    </font>
</defs>
</svg>
