<?xml version="1.0" standalone="no"?>
<!DOCTYPE svg PUBLIC "-//W3C//DTD SVG 1.1//EN" "http://www.w3.org/Graphics/SVG/1.1/DTD/svg11.dtd" >
<svg xmlns="http://www.w3.org/2000/svg" xmlns:xlink="http://www.w3.org/1999/xlink" version="1.1">
<metadata>
Created by FontForge 20170731 at Wed Mar 31 15:15:29 2021
 By Aleksey,,,
Copyright (c) 2005-2009, Joshua Darden &#38; Phil's Fonts, Inc. All rights reserved. Published by Garagefonts USA 301-879-9222 www.garagefonts.com
</metadata>
<defs>
<font id="FreightBigPro-SemiboldItalic" horiz-adv-x="1536" >
  <font-face 
    font-family="Freight Big Pro"
    font-weight="600"
    font-style="italic"
    font-stretch="normal"
    units-per-em="2048"
    panose-1="2 0 6 3 9 0 0 9 0 4"
    ascent="1638"
    descent="-410"
    x-height="899"
    cap-height="1280"
    bbox="-487 -588 2648 2001"
    underline-thickness="40"
    underline-position="-312"
    slope="-12"
    unicode-range="U+0020-FB04"
  />
<missing-glyph horiz-adv-x="1024" 
 />
    <glyph glyph-name="ff" unicode="ff" horiz-adv-x="1042" 
d="M905 1231q11 14 21 22q98 103 250 103q87 0 138.5 -38t51.5 -99q0 -45 -35.5 -78t-77.5 -33q-53 0 -81 34.5t-17.5 83t59.5 83.5q-36 26 -69 26q-40 0 -73.5 -33t-60.5 -98.5t-47 -142t-42 -184.5l208 -3l-30 -81h-195l-110 -478q-47 -206 -97.5 -330.5t-128.5 -203.5
q-84 -88 -233 -88q-74 0 -123 36t-49 93v20q-52 -81 -92 -123q-84 -88 -222 -88q-76 0 -126 35.5t-50 93.5q0 40 31.5 74.5t79.5 34.5q39 0 70.5 -29.5t36 -72.5t-30.5 -91q24 -20 49 -20q42 0 75 53.5t69.5 185t88.5 384.5l103 512l-174 4l37 82l161 2q51 201 183 333
q103 103 272 103q127 0 180 -84zM195 -102q32 32 75 32q40 0 69.5 -30t32 -72.5t-31.5 -89.5q32 -21 57 -21q33 0 57.5 25t51.5 99t54 186t67 307l92 459h-285l-123 -539q-54 -226 -116 -356zM801 1055q-45 7 -67.5 41.5t-10.5 77t59 69.5q-3 6 -9.5 14.5t-27.5 22.5t-45 14
q-90 0 -148.5 -104.5t-100.5 -312.5l290 2q30 109 60 176z" />
    <glyph glyph-name="fi" unicode="fi" horiz-adv-x="991" 
d="M-150 -369q-76 0 -126 35.5t-50 93.5q0 40 31.5 74.5t79.5 34.5q39 0 70.5 -29.5t36 -72.5t-30.5 -91q24 -20 49 -20q42 0 75 53.5t69.5 185t88.5 384.5l103 512l-174 4l37 82l161 2q28 108 78 204.5t109 155.5q114 117 297 117q94 0 154.5 -47t60.5 -113
q0 -43 -30.5 -72.5t-80.5 -29.5q-53 0 -81 34.5t-17 80.5t61 75q-2 2 -4.5 5.5t-12 12.5t-19.5 15.5t-25.5 12t-30.5 5.5q-98 0 -163 -110t-113 -348l258 -3q40 29 80 29q42 0 93.5 -47t51.5 -94q0 -31 -51.5 -166.5t-118 -297t-80.5 -200.5l121 -14l137 213l12 -6
q-72 -148 -151 -232t-129 -84q-34 0 -103 35.5t-69 59.5q0 19 56.5 167.5t126.5 327t85 219.5l-2 9h-334l-123 -539q-49 -205 -101.5 -330.5t-131.5 -204.5q-84 -88 -230 -88z" />
    <glyph glyph-name="fl" unicode="fl" horiz-adv-x="1007" 
d="M918 1305l190 53l-395 -1262l100 -12l137 213l13 -6q-74 -150 -150 -233t-125 -83q-33 0 -100 38t-60 61l308 1024q-40 10 -59 44t-6 75t58 67q-1 2 -2.5 5.5t-9.5 12.5t-19 15.5t-31.5 12t-45.5 5.5q-97 0 -158 -107.5t-112 -350.5l223 -3l-31 -81h-209l-123 -539
q-47 -204 -99.5 -330t-131.5 -205q-84 -88 -230 -88q-76 0 -126 35.5t-50 93.5q0 40 31.5 74.5t79.5 34.5q39 0 70.5 -29.5t36 -72.5t-30.5 -91q24 -20 49 -20q42 0 75 53.5t69.5 185t88.5 384.5l103 512l-174 4l37 82l161 2q28 108 78 204.5t109 155.5q114 117 288 117
q111 0 173 -51z" />
    <glyph glyph-name="ffi" unicode="ffi" horiz-adv-x="1443" 
d="M909 1208l21 21q124 127 303 127q91 0 145 -44.5t54 -111.5q0 -36 -28.5 -64t-78.5 -28q-47 0 -74 31.5t-20 73t47 67.5q-3 6 -8.5 15t-27 24.5t-46.5 15.5q-98 0 -168 -112t-117 -346l256 -3q38 23 78 23q48 0 94.5 -43t46.5 -92q0 -33 -45 -152.5t-113.5 -287.5
t-94.5 -238l133 -14l131 206l10 -6q-66 -145 -139.5 -220t-122.5 -75q-36 0 -113.5 24.5t-77.5 41.5q0 19 54 159.5t126.5 325.5t100.5 267l-2 6h-336l-109 -463q-49 -212 -104 -343.5t-141 -217.5q-78 -82 -209 -82q-63 0 -106.5 34.5t-43.5 86.5q0 35 29.5 68.5t75.5 33.5
q36 0 63.5 -28t33.5 -68t-15 -84h-2q1 -8 19 -13q7 -2 15 -2q55 0 100.5 129t119.5 490l94 459h-293l-121 -525q-49 -207 -108.5 -340t-149.5 -221q-76 -82 -211 -82q-66 0 -114 33.5t-48 87.5q0 35 29.5 69t75.5 34q57 0 92.5 -60.5t1.5 -120.5q42 -14 51 -14
q54 0 96.5 126t118.5 493l105 520l-168 4l32 76l160 2q26 107 71.5 181t121.5 152q108 101 268 101q72 0 118 -29t64 -78zM809 1061q-47 1 -73 32t-19 72t47 68q0 2 -1 6t-6 14.5t-12.5 18t-22.5 14t-34 6.5q-50 0 -88.5 -28t-68 -84.5t-51.5 -128.5t-42 -174l301 4
q26 102 70 180z" />
    <glyph glyph-name="ffl" unicode="ffl" horiz-adv-x="1486" 
d="M1397 1305l190 53l-395 -1262l100 -12l135 213l13 -6q-72 -150 -148 -233t-125 -83q-21 0 -61 17.5t-72 42t-28 39.5l309 1024q-41 10 -60 44t-5.5 75t57.5 67q-1 2 -2.5 5.5t-9.5 12.5t-18.5 15.5t-31 12t-45.5 5.5q-98 0 -160 -108.5t-110 -349.5l223 -3l-31 -81h-209
l-110 -478q-48 -200 -103 -327t-135 -207q-84 -88 -221 -88q-75 0 -123.5 36t-48.5 93q0 40 29.5 74t77.5 34q39 0 68.5 -30t31.5 -72.5t-33 -89.5q22 -21 47 -21q45 0 79.5 51.5t73 183.5t89.5 382l90 459h-291l-123 -539q-45 -196 -101.5 -324.5t-137.5 -210.5
q-84 -88 -222 -88q-76 0 -126 35.5t-50 93.5q0 40 31.5 74.5t79.5 34.5q39 0 70.5 -29.5t36 -72.5t-30.5 -91q24 -20 49 -20q42 0 75 53.5t69.5 185t88.5 384.5l103 512l-174 4l37 82l161 2q51 201 183 333q103 103 272 103q70 0 118.5 -28t69.5 -73l23 25q114 117 289 117
q110 0 172 -51zM811 1053q-36 3 -60 25t-30 51t9.5 61t51.5 53q-3 5 -9.5 13.5t-27.5 22t-45 13.5q-90 0 -148.5 -103.5t-100.5 -311.5l299 2q20 87 61 174z" />
    <glyph glyph-name=".notdef" horiz-adv-x="1024" 
 />
    <glyph glyph-name=".null" horiz-adv-x="0" 
 />
    <glyph glyph-name="nonmarkingreturn" horiz-adv-x="682" 
 />
    <glyph glyph-name="space" unicode=" " horiz-adv-x="368" 
 />
    <glyph glyph-name="exclam" unicode="!" horiz-adv-x="532" 
d="M262 391q-1 -4 -5 -5.5t-7 0.5t-2 7l63 811q3 25 9 42.5t20 35t42 24.5t69 3h6q41 -5 64.5 -17.5t29 -32.5t3.5 -38t-11 -43zM197 -27q-54 0 -91.5 38t-37.5 91q0 50 37 86.5t90 36.5q55 0 92 -36.5t37 -86.5q0 -53 -37 -91t-90 -38z" />
    <glyph glyph-name="quotedbl" unicode="&#x22;" horiz-adv-x="669" 
d="M426 825l317 496h2l119 -61l-415 -435h-23zM84 825l317 496h5l116 -61l-416 -435h-22z" />
    <glyph glyph-name="numbersign" unicode="#" horiz-adv-x="1011" 
d="M188 -10l107 405h-285v17h289l119 452h-285v17h289l108 413h23l-109 -413h334l109 413h22l-108 -413h282v-17h-286l-119 -452h283v-17h-287l-107 -405h-22l106 405h-334l-106 -405h-23zM322 412h333l119 452h-334z" />
    <glyph glyph-name="dollar" unicode="$" horiz-adv-x="1017" 
d="M195 6q-128 35 -207 88l51 309h8l39 -143q37 -137 131 -207l252 531q-137 74 -217 160t-80 198q0 142 116.5 252.5t297.5 110.5q102 0 209 -35l118 246h25l-121 -252q53 -18 96 -39l93 20l-66 -336h-6l-98 279q-15 18 -39 33q0 1 -52.5 -109.5t-104.5 -221.5l-52 -110
l12 -6q74 -40 127.5 -77.5t99 -84.5t68.5 -102.5t23 -118.5q0 -76 -34.5 -150t-95 -133.5t-153 -96t-199.5 -36.5q-101 0 -219 25q1 0 -39 -84l-80 -168l-41 -84h-24zM238 41q77 -47 186 -47q127 0 212 88.5t85 212.5q0 85 -59 150.5t-173 127.5zM778 1233q-76 51 -170 51
q-105 0 -177.5 -68t-72.5 -169q0 -78 55 -139.5t154 -116.5z" />
    <glyph glyph-name="percent" unicode="%" horiz-adv-x="1124" 
d="M397 791q-115 0 -184.5 75t-69.5 183q0 109 69.5 185.5t184.5 76.5q116 0 186 -76.5t70 -185.5q0 -108 -70 -183t-186 -75zM-8 -29l1196 1340h26l-1196 -1340h-26zM813 -27q-115 0 -184.5 74.5t-69.5 181.5q0 110 69.5 187.5t184.5 77.5q116 0 186 -77.5t70 -187.5
q0 -107 -70 -181.5t-186 -74.5zM397 811q104 0 168 68t64 170q0 101 -64.5 171t-167.5 70t-166 -70t-63 -171q0 -102 63 -170t166 -68zM813 -6q104 0 167.5 67.5t63.5 169.5q0 101 -64 171.5t-167 70.5t-166 -70t-63 -172t62.5 -169.5t166.5 -67.5z" />
    <glyph glyph-name="ampersand" unicode="&#x26;" horiz-adv-x="1505" 
d="M1278 782q87 -28 137.5 -99.5t50.5 -170.5q0 -146 -103 -271.5t-274 -197.5t-366 -72q-197 0 -350.5 66t-236.5 180t-83 256q0 137 90 247.5t236 162.5q-17 53 -17 98q0 136 97.5 232.5t234.5 95.5q123 0 198 -103t56 -235l-20 4q6 88 -46.5 151.5t-144.5 63.5
q-79 0 -131.5 -66t-52.5 -159q0 -15 4 -47q12 2 39 2q103 0 167 -43.5t64 -110.5q0 -50 -41 -81.5t-108 -31.5q-90 0 -170 58.5t-119 146.5q-79 -37 -120.5 -105t-41.5 -161q0 -228 177.5 -352.5t498.5 -124.5q241 0 391 113t150 286q0 100 -63.5 172t-149.5 72
q-74 0 -148.5 -63t-74.5 -124q0 -58 48 -92.5t128 -34.5q-39 9 -51 50.5t11 79.5t73 38q38 0 63 -25t25 -65q0 -44 -32 -75t-87 -31q-101 0 -174.5 68.5t-73.5 179.5q0 60 30.5 106.5t79.5 76t108 54.5t118.5 48t108.5 49.5t79.5 66.5t30.5 92q0 63 -49 100t-131 37
q35 -9 48.5 -53.5t-9 -85.5t-78.5 -41q-42 0 -68 26t-26 70q0 46 40.5 80.5t94.5 34.5q106 0 181 -81.5t75 -199.5q0 -91 -64 -147t-229 -115zM561 899q15 -72 63 -117t111 -45q22 0 37.5 14.5t15.5 34.5q0 45 -55.5 79t-136.5 34h-35z" />
    <glyph glyph-name="quotesingle" unicode="'" horiz-adv-x="333" 
d="M84 825l317 496h5l116 -61l-416 -435h-22z" />
    <glyph glyph-name="parenleft" unicode="(" horiz-adv-x="647" 
d="M424 -549q-61 44 -118.5 110.5t-111 160t-84.5 204t-39 243t25 275.5q30 139 93.5 266t139.5 220.5t166 171t172 126t158 77.5l11 -21q-77 -29 -157.5 -77.5t-168.5 -125t-161.5 -168.5t-134 -215.5t-89.5 -257.5q-32 -141 -24.5 -270.5t37 -237.5t80.5 -199t106.5 -156
t115.5 -107z" />
    <glyph glyph-name="parenright" unicode=")" horiz-adv-x="647" 
d="M-203 -549l-10 21q77 29 157.5 77.5t168.5 125t161.5 168.5t134 215.5t89.5 258.5q32 140 24.5 269.5t-37 237.5t-81 199t-107 156t-115.5 107l17 19q61 -44 118.5 -110.5t110.5 -160.5t84 -204.5t39 -242t-25 -274.5q-30 -139 -93.5 -266.5t-139.5 -221t-166.5 -171
t-172 -126t-157.5 -77.5z" />
    <glyph glyph-name="asterisk" unicode="*" horiz-adv-x="628" 
d="M489 629l-108 86l35 243q0 4 -5.5 7.5t-7.5 1.5l-147 -193l-139 19q-3 0 0 6l47 129l235 43q6 0 6 4.5t-6 7.5l-221 96l-22 135q-2 5 6 5l139 -13l102 -219q1 -4 8 -3.5t7 5.5l22 250l121 57q4 2 4 -2l37 -129l-180 -178q-4 -5 -0.5 -9.5t8.5 -4.5l240 65l94 -100
q3 -3 0 -6l-113 -74l-221 113q-6 1 -9.5 -2t-0.5 -8l133 -211l-59 -119q-5 -5 -5 -2z" />
    <glyph glyph-name="plus" unicode="+" horiz-adv-x="886" 
d="M440 49v424h-417l4 25h413v415h25v-415h412l4 -25h-416v-424h-25z" />
    <glyph glyph-name="comma" unicode="," horiz-adv-x="382" 
d="M-82 -229l-4 8q102 35 169 100t67 139q0 63 -48.5 86.5t-105.5 -10.5q-19 52 16 108t111 56q68 0 109.5 -46.5t41.5 -113.5q0 -103 -106 -198.5t-250 -128.5z" />
    <glyph glyph-name="hyphen" unicode="-" horiz-adv-x="573" 
d="M39 438l24 82h490l-25 -82h-489z" />
    <glyph glyph-name="period" unicode="." horiz-adv-x="421" 
d="M141 -25q-53 0 -91 39t-38 92q0 51 37 89t90 38t91 -38.5t38 -88.5q0 -53 -37 -92t-90 -39z" />
    <glyph glyph-name="slash" unicode="/" horiz-adv-x="509" 
d="M33 -506l430 1796h20l-430 -1796h-20z" />
    <glyph glyph-name="zero" unicode="0" horiz-adv-x="1103" 
d="M512 -27q-196 0 -316 124.5t-120 324.5q0 157 72 290t195.5 210t268.5 77q194 0 314.5 -125.5t120.5 -324.5q0 -158 -72 -291t-195 -209t-268 -76zM483 -8q97 0 181 108t130 271t46 331q0 135 -52.5 205t-148.5 70q-100 0 -182.5 -107t-127 -271t-44.5 -339
q0 -268 198 -268z" />
    <glyph glyph-name="one" unicode="1" horiz-adv-x="704" 
d="M16 0q-1 0 1 3l4 6l2 3l63 2q53 2 74 8.5t24 24.5l176 854l-192 33l6 12l410 43l-201 -946q-2 -8 6.5 -13.5t34 -9.5t70.5 -6l49 -2l2 -12h-529z" />
    <glyph glyph-name="two" unicode="2" horiz-adv-x="935" 
d="M-49 0v37q139 93 232.5 158.5t170.5 125.5t121.5 103t74.5 85.5t41 78.5t11 78q0 102 -56.5 158.5t-154.5 56.5q-69 0 -124.5 -35t-112.5 -111l-13 8q165 254 387 254q124 0 203.5 -70.5t79.5 -170.5q0 -30 -7 -58.5t-17.5 -53t-33 -52.5t-42.5 -50t-59 -52.5
t-68.5 -52.5t-84 -58.5t-94 -62t-110.5 -71.5t-121 -79v-4h510q56 0 209 250l12 20l13 -2l-189 -430h-778z" />
    <glyph glyph-name="three" unicode="3" horiz-adv-x="849" 
d="M197 -408q-147 0 -237.5 41t-90.5 127q0 43 31 76t84 33q41 0 75.5 -31t42 -78.5t-27.5 -103.5q62 -43 135 -43q126 0 216.5 110t90.5 257q0 135 -80 214.5t-225 79.5q-53 0 -121 -14l-6 12q83 35 135.5 58.5t109.5 52t90.5 51t65.5 50.5t48.5 56t26 61.5t9.5 72.5
q0 86 -56 146.5t-148 60.5q-74 0 -146 -50t-113 -124l-14 10q63 123 170 201.5t232 78.5q123 0 201.5 -73t78.5 -176q0 -118 -89 -200.5t-298 -152.5v-4l6 -2q101 -7 176.5 -58.5t111.5 -125t36 -156.5q0 -84 -43 -167.5t-113 -147t-166.5 -103t-197.5 -39.5z" />
    <glyph glyph-name="four" unicode="4" horiz-adv-x="999" 
d="M377 -377l80 393h-531l2 11l846 950h78l-174 -819h221l-41 -142h-213l-82 -393h-186zM80 158h409l125 596h-4z" />
    <glyph glyph-name="five" unicode="5" horiz-adv-x="817" 
d="M100 -408q-128 11 -185 58.5t-52 116.5q3 46 38.5 76t84.5 26q46 -3 75 -39.5t32.5 -84t-7.5 -95.5q46 -31 96 -33q106 -11 195.5 82.5t101.5 239.5q14 155 -97 265.5t-327 151.5l238 611h528l-59 -195h-520l-90 -240q273 -49 400.5 -181.5t113.5 -311.5q-7 -91 -56 -177
t-124 -149t-177.5 -97.5t-208.5 -23.5z" />
    <glyph glyph-name="six" unicode="6" horiz-adv-x="1019" 
d="M479 -25q-98 0 -177 36t-129 97.5t-76.5 140t-26.5 167.5q0 123 44.5 246.5t137.5 236t221.5 198.5t310.5 137t392 50l-2 -16q-145 -7 -275 -53.5t-230 -122t-176.5 -169.5t-127.5 -204l4 -2q145 90 284 90q149 0 231.5 -90t82.5 -240q0 -104 -40 -197.5t-107 -160
t-156 -105.5t-185 -39zM465 -6q76 0 142.5 65t105.5 171.5t39 224.5q0 130 -58 208t-172 78q-90 0 -172 -53q-82 -186 -82 -377q0 -151 45.5 -234t151.5 -83z" />
    <glyph glyph-name="seven" unicode="7" horiz-adv-x="890" 
d="M90 -377l748 1153l-2 6h-316q-74 0 -120.5 -2t-92 -8t-72.5 -17t-53 -30t-43 -45.5t-33 -65.5l-10 -20l-16 2l123 371h760v-13l-707 -1331h-166z" />
    <glyph glyph-name="eight" unicode="8" horiz-adv-x="995" 
d="M469 -33q-184 0 -312 98t-128 240q0 131 109 222t280 108l2 4q-98 73 -153.5 147t-55.5 164q0 64 30.5 129t83 117t130 84.5t163.5 32.5q171 0 286.5 -89.5t115.5 -224.5q0 -119 -98.5 -195t-253.5 -97v-5q55 -40 94 -75t76 -79.5t56 -96t19 -107.5q0 -150 -132 -263.5
t-312 -113.5zM649 715q85 40 137 127t52 194t-54.5 181.5t-154.5 74.5q-104 0 -167 -76.5t-63 -177.5q0 -89 64 -163.5t186 -159.5zM469 -12q114 0 186 80t72 184q0 54 -22 104t-66.5 97.5t-88.5 84t-112 85.5q-103 -39 -163 -129.5t-60 -219.5q0 -123 66 -204.5t188 -81.5z
" />
    <glyph glyph-name="nine" unicode="9" horiz-adv-x="1019" 
d="M-129 -303l2 14q144 7 273.5 54t230 122.5t176.5 169.5t127 203h-4q-145 -90 -285 -90q-148 0 -230.5 90.5t-82.5 241.5q0 103 40 196.5t106.5 160t156.5 106t186 39.5q129 0 223.5 -63t139.5 -161t45 -217q0 -103 -32 -206.5t-93 -200.5t-156.5 -181t-214.5 -146.5
t-275.5 -97.5t-332.5 -34zM522 236q84 0 172 55q82 189 82 377q0 150 -45 232.5t-151 82.5q-76 0 -142.5 -65t-105.5 -171t-39 -223q0 -131 57.5 -209.5t171.5 -78.5z" />
    <glyph glyph-name="colon" unicode=":" horiz-adv-x="417" 
d="M272 592q-54 0 -92.5 39t-38.5 92q0 50 37.5 86.5t91.5 36.5t91.5 -36.5t37.5 -86.5q0 -53 -37 -92t-90 -39zM141 -25q-53 0 -91 38.5t-38 90.5q0 50 37 87.5t90 37.5t91 -37.5t38 -87.5q0 -52 -37 -90.5t-90 -38.5z" />
    <glyph glyph-name="semicolon" unicode=";" horiz-adv-x="382" 
d="M258 592q-54 0 -92.5 38t-38.5 91q0 50 38 87.5t91 37.5q54 0 91.5 -37t37.5 -88q0 -53 -36 -91t-91 -38zM-82 -227l-4 8q103 35 169.5 99t66.5 138q0 62 -48.5 85.5t-105.5 -9.5q-11 22 -5.5 50t19.5 53t44 42t69 17q68 0 109.5 -46t41.5 -112q0 -103 -105.5 -197.5
t-250.5 -127.5z" />
    <glyph glyph-name="less" unicode="&#x3c;" horiz-adv-x="860" 
d="M834 68l-816 403v23l816 401l10 -23l-793 -387v-4l793 -391z" />
    <glyph glyph-name="equal" unicode="=" horiz-adv-x="876" 
d="M45 647l-6 25h815l-6 -25h-803zM39 293l6 24h803l6 -24h-815z" />
    <glyph glyph-name="greater" unicode="&#x3e;" horiz-adv-x="860" 
d="M43 68l-10 22l792 391v4l-792 387l10 23l815 -401v-23z" />
    <glyph glyph-name="question" unicode="?" horiz-adv-x="634" 
d="M299 375q-62 56 -99.5 120t-37.5 113q0 73 61.5 117t202.5 80q141 35 188.5 63t47.5 82q0 70 -89 126.5t-254 56.5q-7 0 -94 -7q-18 21 -18 60q0 56 25.5 91.5t101.5 35.5q109 0 190.5 -54t119.5 -134.5t38 -172.5q0 -130 -51.5 -202t-181.5 -111q-129 -36 -170 -60
t-41 -73q0 -55 73 -125zM231 -27q-55 0 -93 38t-38 91q0 50 37.5 86.5t91.5 36.5q53 0 90 -36.5t37 -86.5q0 -53 -36 -91t-89 -38z" />
    <glyph glyph-name="at" unicode="@" horiz-adv-x="1570" 
d="M823 -211q-216 0 -385.5 88.5t-263.5 248t-94 363.5q0 167 63 320t170 263.5t253.5 176.5t307.5 66q192 0 345.5 -81t240 -225.5t86.5 -324.5q0 -111 -40.5 -216.5t-106 -181t-151.5 -121.5t-173 -46q-103 0 -160 47t-57 119q0 79 41 172h-4q-121 -181 -196.5 -259.5
t-155.5 -78.5q-75 0 -128.5 51t-54.5 131q0 117 88.5 259.5t206.5 250.5q146 137 260 137q48 0 74 -60.5t21 -137.5h2l86 249l176 -8l-131 -332l-92 -241q-81 -215 118 -215q62 0 126 37t115 100t83.5 154t32.5 190q0 264 -185 438t-467 174q-157 0 -300.5 -64.5
t-247 -173.5t-165 -258t-61.5 -311q0 -197 91.5 -352.5t256.5 -242.5t375 -87q217 0 398.5 111t263.5 279l18 -9q-84 -172 -270.5 -285.5t-409.5 -113.5zM633 229q49 0 128 87.5t159 240.5q57 107 57 145q0 54 -45 104t-105 50q-37 0 -77 -37q-69 -64 -134 -210t-65 -251
q0 -61 22.5 -95t59.5 -34z" />
    <glyph glyph-name="A" unicode="A" horiz-adv-x="1277" 
d="M721 549h-332l-117 -207q-13 -22 -35 -62q-98 -163 -93 -208t145 -56l53 -4l2 -12h-450l6 12l34 4q28 3 45.5 6t39 14t34 20t36 37t39 51t48 77t58.5 100t75 134l365 647l-8 80q107 21 184 129h27l96 -1035q14 -109 32 -163t44 -73t75 -22l60 -6v-12h-606l8 12l59 4
q78 4 97 47.5t6 151.5zM403 575h316l-39 484h-4z" />
    <glyph glyph-name="B" unicode="B" horiz-adv-x="1218" 
d="M-49 0l6 12l78 8q100 11 104 33l250 1180q1 6 -2 9t-16 6.5t-33.5 6l-61.5 7.5l-51 6l-2 12h518q120 0 210 -24t140.5 -65t74.5 -89t24 -103q0 -132 -114.5 -210t-327.5 -87v-2q183 -28 280.5 -118.5t97.5 -212.5q0 -181 -160 -275t-474 -94h-541zM469 20l86 3
q104 1 182 56.5t115 138t37 177.5q0 141 -95 223t-259 82h-33l-135 -639zM643 717q81 0 143 27.5t97.5 74t53 101t17.5 114.5q0 104 -63 162t-191 61h-79l-113 -528q62 -12 135 -12z" />
    <glyph glyph-name="C" unicode="C" horiz-adv-x="1400" 
d="M776 -29q-152 0 -279 46.5t-212.5 126.5t-133 189t-47.5 232q0 147 56 282.5t155.5 238t247 164t318.5 61.5q220 0 374 -97l146 37l-64 -372l-10 2l-98 299q-45 45 -129.5 75.5t-177.5 30.5q-110 0 -204.5 -46t-161 -123.5t-114 -179t-70 -212.5t-22.5 -223
q0 -237 117.5 -372.5t325.5 -135.5q133 0 238 67t194 195l65 100l10 -4l-108 -329l-70 -5q-54 -17 -154.5 -32t-191.5 -15z" />
    <glyph glyph-name="D" unicode="D" horiz-adv-x="1386" 
d="M-47 0l6 12l76 8q102 11 106 33l250 1180q1 6 -2 9t-17 6.5t-34 6t-62 7.5l-49 6l-2 12l506 2q162 1 288 -39.5t204 -114t117.5 -170t39.5 -210.5q0 -149 -58.5 -284t-163.5 -238t-264 -164.5t-349 -61.5h-592zM502 18q122 0 226 41.5t178.5 114.5t127 171.5t78 213.5
t25.5 240q0 99 -23.5 180.5t-72 145.5t-130 99.5t-190.5 35.5h-100l-254 -1197z" />
    <glyph glyph-name="E" unicode="E" horiz-adv-x="1230" 
d="M-47 0l6 12l70 8q108 12 112 33l250 1180q1 6 -2 9t-16.5 6.5t-34 6t-62.5 7.5l-49 6l-2 12h932l19 -408h-15l-6 25q-25 81 -46.5 133t-54.5 100.5t-74 74.5t-101 41t-140 14h-118l-125 -592l92 2q152 8 221.5 45t114.5 137l14 33l14 -2l-100 -461l-14 2l4 33q5 47 -2 78
t-23.5 51t-53 32t-79.5 17.5t-115 9.5l-77 4l-132 -620l228 -11q81 1 150.5 21t123 52t103 82t86.5 101.5t77 120.5l19 27h10l-145 -422h-1059z" />
    <glyph glyph-name="F" unicode="F" horiz-adv-x="1165" 
d="M-47 0l6 12l82 8q96 8 100 33l250 1180q1 6 -1.5 9t-13 6.5t-32.5 6.5t-61 7l-56 6l-2 12h969l-4 -408h-12l-9 25q-20 69 -35 112t-38 89t-49.5 72t-65 48.5t-89.5 32t-118 9.5l-153 -3l-127 -600l92 2q152 8 221 44.5t113 136.5l14 32l14 -2l-96 -460l-14 2l2 32
q6 112 -50 148.5t-225 42.5l-76 2l-124 -590q-1 -8 4.5 -12.5t31 -9t76.5 -7.5l92 -6l2 -12h-618z" />
    <glyph glyph-name="G" unicode="G" horiz-adv-x="1452" 
d="M745 -31q-289 0 -465 165.5t-176 424.5q0 150 56 286.5t156 239t247.5 163.5t319.5 61q223 0 381 -95l143 37l-66 -385h-8l-98 316q-43 43 -126.5 73.5t-176.5 30.5q-107 0 -201 -44t-163 -120t-118.5 -176t-74.5 -214t-25 -232q0 -235 113 -373.5t307 -138.5
q112 0 186 43l101 477q1 7 -9 12.5t-39.5 9.5t-82.5 7l-70 6l-2 12h604l-8 -12l-80 -6q-94 -10 -98 -33l-88 -422l108 18v-8q-116 -49 -268 -86t-279 -37z" />
    <glyph glyph-name="H" unicode="H" horiz-adv-x="1497" 
d="M-47 0l6 12l76 8q102 11 106 33l250 1180q1 6 -2 9t-16.5 6.5t-34 6t-62.5 7.5l-49 6l-2 12h582l-8 -12l-80 -8q-101 -11 -105 -33l-118 -565h600l123 571q1 6 -2.5 9t-15.5 6.5t-34.5 6.5t-62.5 7l-55 6l-2 12h583l-8 -12l-76 -8q-100 -11 -104 -33l-250 -1180
q-1 -6 2 -9t16 -6.5t33.5 -6l61.5 -7.5l51 -6l2 -12h-584l6 12l82 8q103 8 107 33l121 588h-601l-124 -594q-1 -6 2 -9t14.5 -6.5t33.5 -6.5t62 -7l55 -6l3 -12h-582z" />
    <glyph glyph-name="I" unicode="I" horiz-adv-x="714" 
d="M-31 0l6 12l82 8q103 8 107 33l250 1180q1 6 -2.5 9t-15.5 6.5t-34.5 6.5t-62.5 7l-57 6l-2 12h591l-8 -12l-82 -8q-100 -11 -104 -33l-250 -1180q-1 -6 2 -9t15 -6.5t34 -6.5t62 -7l57 -6l2 -12h-590z" />
    <glyph glyph-name="J" unicode="J" horiz-adv-x="684" 
d="M-127 -352q-86 0 -133 39t-47 98q0 53 40 91t95 38q66 0 99.5 -45t19.5 -102.5t-70 -90.5q84 -20 156.5 77.5t109.5 279.5l256 1200q1 6 -2 9t-15.5 6.5t-34.5 6.5t-62 7l-58 6l-2 12h590l-8 -12l-80 -8q-102 -11 -106 -33l-263 -1243q-7 -38 -57 -95.5t-119 -111
t-154.5 -91.5t-154.5 -38z" />
    <glyph glyph-name="K" unicode="K" horiz-adv-x="1402" 
d="M-47 0l6 12l82 8q96 8 100 33l250 1180q1 6 -1.5 9t-13 6.5t-32.5 6.5t-61 7l-56 6l-4 12h600l-8 -12l-96 -8q-50 -4 -76.5 -13.5t-28.5 -19.5l-139 -664l381 318q267 225 309 301q28 50 -24 67q-25 8 -82 13l-72 6v12h524l-8 -12l-41 -4q-93 -5 -176.5 -61t-310.5 -251
q-62 -53 -96 -82l-29 -22l244 -647q24 -66 38.5 -98t33.5 -53t37.5 -26.5t53.5 -7.5l52 -4l2 -12h-582l6 12l47 4q80 6 90.5 54t-43.5 194l-157 432l-207 -170l-100 -479q-1 -8 5 -12.5t31 -8.5t76 -8l72 -6l4 -12h-600z" />
    <glyph glyph-name="L" unicode="L" horiz-adv-x="1169" 
d="M-47 0l6 12l82 8q96 8 100 33l250 1180q1 6 -1.5 9t-13 6.5t-32.5 6.5t-61 7l-56 6l-2 12h619l-8 -12l-117 -8q-47 -4 -75 -13.5t-30 -19.5l-254 -1198l187 -11q96 0 168.5 23.5t135 79.5t110.5 123.5t114 181.5l15 27h14l-139 -453h-1012z" />
    <glyph glyph-name="M" unicode="M" horiz-adv-x="1699" 
d="M-55 0l6 12l39 2q97 5 132 27t44 59l264 1114q-32 44 -121 50l-53 4l-4 12h416l151 -975l4 -2l592 977h402l-9 -12l-73 -8q-103 -11 -107 -33l-250 -1180q-1 -6 2 -9t16.5 -6.5t34 -6t62.5 -7.5l49 -6l2 -12h-586l7 12l88 8q98 8 102 33l238 1139h-4l-719 -1192h-21
l-186 1133q-6 28 -17 47l-251 -1088q-4 -20 6.5 -34.5t53 -27t118.5 -16.5l35 -2l2 -12h-465z" />
    <glyph glyph-name="N" unicode="N" horiz-adv-x="1363" 
d="M1034 -10l-628 1126h-5l-219 -1022q-7 -29 28 -49.5t128 -28.5l35 -4l2 -12h-434l8 12l39 4q75 6 118.5 30t49.5 56l225 1035q-32 51 -72 84t-106 41l-23 4l-2 14h410l510 -936h4l178 842q15 65 -154 78l-36 4l-3 12h435l-9 -12l-36 -4q-76 -6 -119 -29.5t-49 -56.5
l-258 -1188h-17z" />
    <glyph glyph-name="O" unicode="O" horiz-adv-x="1503" 
d="M754 -27q-188 0 -335 85t-224.5 227t-77.5 313q0 133 53 260t145 227t229.5 161t295.5 61q188 0 335 -86t224.5 -229.5t77.5 -315.5q0 -186 -92 -346.5t-259.5 -258.5t-371.5 -98zM725 -6q143 0 265 124.5t189.5 315.5t67.5 393q0 206 -103 332.5t-280 126.5
q-92 0 -175.5 -52t-145 -138.5t-106.5 -196t-68 -227.5t-23 -230q0 -201 103.5 -324.5t275.5 -123.5z" />
    <glyph glyph-name="P" unicode="P" horiz-adv-x="1169" 
d="M-70 0l7 12l98 8q102 8 106 33l250 1180q1 8 -6 12.5t-32.5 8.5t-76.5 8l-71 6l-2 12h588q211 0 323.5 -85t112.5 -216q0 -162 -138 -266.5t-362 -104.5q-107 0 -238 31l-124 -592q-1 -8 4.5 -12.5t31 -9t76.5 -7.5l92 -6l2 -12h-641zM670 633q98 0 172.5 58t110.5 147
t36 192q0 104 -53 164t-158 63h-157l-125 -589l20 -7q20 -7 25.5 -8.5t24.5 -7t31.5 -7t32.5 -3.5t40 -2z" />
    <glyph glyph-name="Q" unicode="Q" horiz-adv-x="1503" 
d="M1202 -367q-124 0 -220.5 17.5t-179 57.5t-136.5 111.5t-76 174.5q-217 49 -345 215.5t-128 388.5q0 133 53 260t145 227t229.5 161t295.5 61q142 0 262.5 -50.5t202 -136.5t127 -201t45.5 -243q0 -169 -78.5 -319t-220 -250t-318.5 -125q22 -99 61.5 -163.5t103.5 -101
t144 -50t195 -11.5v-12q-48 -11 -162 -11zM725 -6q144 0 266 124.5t189 315.5t67 393q0 206 -103 332.5t-280 126.5q-92 0 -175.5 -52t-145 -138.5t-106.5 -196t-68 -227.5t-23 -230q0 -201 103.5 -324.5t275.5 -123.5z" />
    <glyph glyph-name="R" unicode="R" horiz-adv-x="1306" 
d="M-70 0l7 12l98 8q38 3 71 13.5t35 19.5l250 1180q1 8 -6 12.5t-32.5 8.5t-76.5 8l-71 6l-2 12h581q209 0 335 -84.5t126 -222.5q0 -140 -119 -230.5t-303 -95.5l191 -430q46 -113 88.5 -153.5t124.5 -49.5l22 -2l2 -12h-397l-256 657q-36 14 -96 43l-137 -653
q-3 -18 112 -29l76 -6l2 -12h-625zM692 680q143 0 231.5 94.5t88.5 247.5q0 106 -69.5 172t-194.5 66h-127l-115 -539q99 -41 186 -41z" />
    <glyph glyph-name="S" unicode="S" horiz-adv-x="1032" 
d="M471 -25q-139 0 -258 36.5t-188 82.5l49 312h8l41 -146q33 -131 121 -198.5t215 -67.5t214 89t87 212q0 90 -64.5 157t-189.5 132q-138 73 -215.5 159.5t-77.5 204.5q0 66 29 129.5t80.5 115t130 83t170.5 31.5q151 0 327 -80l90 20l-63 -338h-6l-101 281
q-39 41 -98 68.5t-127 27.5q-105 0 -179.5 -68.5t-74.5 -168.5q0 -89 55 -147.5t191 -127.5q153 -82 232 -171t79 -216q0 -73 -33.5 -146t-93 -132.5t-151.5 -96.5t-199 -37z" />
    <glyph glyph-name="T" unicode="T" horiz-adv-x="1361" 
d="M276 0l7 12l100 8q100 8 104 33l254 1209h-86q-69 -4 -137 -36t-124.5 -83t-101 -104.5t-83.5 -114.5l-21 -29h-10l125 385h1118l-47 -385h-8l-6 27q-61 329 -309 340h-82l-258 -1215q-1 -8 5 -12.5t31.5 -8.5t77.5 -8l72 -6l2 -12h-623z" />
    <glyph glyph-name="U" unicode="U" horiz-adv-x="1398" 
d="M727 -33q-155 0 -270 36.5t-183.5 116t-68.5 195.5q0 82 22 189q10 46 26 122t50 236t56.5 266t21.5 105q1 8 -5 12.5t-30.5 8.5t-75.5 8l-73 6l-2 12h620l-8 -12l-96 -8q-101 -8 -105 -33l-149 -711q-23 -98 -23 -176q0 -301 361 -301q152 0 244.5 95.5t134.5 299.5
l159 752q7 29 -27.5 49.5t-125.5 30.5l-37 2l-4 12h436l-8 -12l-39 -2q-75 -7 -117.5 -31t-48.5 -57l-162 -752q-50 -230 -159.5 -344.5t-313.5 -114.5z" />
    <glyph glyph-name="V" unicode="V" horiz-adv-x="1312" 
d="M555 -27l-178 1039q-30 162 -44 196q-17 39 -54 49q-17 5 -48 7l-55 4l-2 12h594l-8 -12l-72 -2q-33 -1 -53 -3.5t-34 -11t-19.5 -17t-6 -31t2.5 -43t10 -62.5l135 -811h4l381 651q12 21 35 60q102 163 98 209t-143 57l-54 4l-2 12h451l-8 -12l-31 -4q-28 -3 -45.5 -6
t-39.5 -14.5t-34.5 -20t-37 -37.5t-40 -51.5t-49.5 -77t-60 -99t-77 -131.5l-500 -854h-16z" />
    <glyph glyph-name="W" unicode="W" horiz-adv-x="2031" 
d="M555 -33l-184 1045q-11 62 -17 93t-15.5 64.5t-17.5 46.5t-23 26t-32 16.5t-45 5.5l-51 4l-2 12h592l-8 -12l-62 -2q-84 -3 -104 -30t-6 -120l143 -844l4 -2l408 676l-11 68q-29 161 -52 202.5t-97 47.5l-57 4l-3 12h598l-8 -12l-63 -2q-62 -2 -87 -14t-31 -47t7 -99
l123 -832h4l387 670q95 167 111 212q20 61 -19 83q-31 17 -120 25l-41 4l-2 12h450l-8 -12l-31 -4q-34 -4 -56 -9.5t-47 -21.5t-42.5 -34t-47 -61t-56.5 -87.5t-74 -126.5l-553 -957h-21l-147 938h-4l-568 -938h-14z" />
    <glyph glyph-name="X" unicode="X" horiz-adv-x="1339" 
d="M-106 0l6 12l55 4q35 3 58.5 7.5t54.5 22.5t49 31t63.5 58.5t76 78.5t105.5 116l250 276l-180 410q-68 155 -88 186q-32 51 -78 60l-16 2l-60 4l-6 12h578l-6 -12l-56 -2q-51 -2 -71 -17.5t-14.5 -58t42.5 -125.5l129 -301l5 -2l180 203q135 151 161 189q41 59 11 82
q-24 19 -121 28l-41 4l-2 12h481l-8 -12l-49 -4q-36 -4 -60.5 -8.5t-55 -21.5t-51 -32t-63.5 -57.5t-76.5 -79t-105.5 -115.5l-192 -211l250 -563q42 -99 67.5 -128t75.5 -32l49 -4l4 -12h-565l6 12l55 2q71 3 89.5 30.5t-7.5 82.5l-200 455h-5l-237 -267
q-134 -150 -160 -187q-41 -59 -11 -82q24 -19 122 -30l39 -4l2 -12h-479z" />
    <glyph glyph-name="Y" unicode="Y" horiz-adv-x="1302" 
d="M248 0l6 12l98 8q50 4 76.5 13.5t28.5 19.5l112 525l-178 514q-34 99 -65 132.5t-97 39.5l-49 4l-2 12h600l-8 -12l-39 -2q-96 -6 -117 -40t9 -110l161 -483h4l234 311q124 173 145 210q32 58 6 79q-21 18 -114 29l-45 6l-2 12h448l-8 -12l-55 -6q-72 -9 -139 -70.5
t-209 -251.5l-252 -338l-117 -555q-1 -8 5.5 -12.5t32 -8.5t77.5 -8l71 -6l2 -12h-620z" />
    <glyph glyph-name="Z" unicode="Z" horiz-adv-x="1206" 
d="M-31 0l2 10l1045 1243l-2 4l-205 3q-98 0 -180.5 -18.5t-142 -49t-108.5 -76t-81.5 -93.5t-60.5 -108l-11 -20h-10l86 385h995l-4 -10l-1048 -1241v-4l235 -5q88 -1 158.5 8.5t128 33.5t102.5 54t87.5 79t76.5 100t76 125l14 29h15l-129 -449h-1039z" />
    <glyph glyph-name="bracketleft" unicode="[" horiz-adv-x="626" 
d="M-94 -506l381 1786h499l-4 -20h-477l-371 -1745h478l-6 -21h-500z" />
    <glyph glyph-name="backslash" unicode="\" horiz-adv-x="475" 
d="M418 -506l-430 1796h20l430 -1796h-20z" />
    <glyph glyph-name="bracketright" unicode="]" horiz-adv-x="626" 
d="M-184 -506l6 21h477l371 1745h-477l4 20h499l-381 -1786h-499z" />
    <glyph glyph-name="asciicircum" unicode="^" horiz-adv-x="757" 
d="M215 983l358 403h15l190 -403h-16l-207 211h-6l-322 -211h-12z" />
    <glyph glyph-name="underscore" unicode="_" horiz-adv-x="913" 
d="M-55 -57l6 59h819l6 -59h-831z" />
    <glyph glyph-name="grave" unicode="`" horiz-adv-x="788" 
d="M623 1006l-316 383h197l133 -383h-14z" />
    <glyph glyph-name="a" unicode="a" horiz-adv-x="958" 
d="M653 -25q-34 0 -105 39.5t-71 63.5q0 71 94 309h-4q-17 -27 -48 -77q-42 -68 -62 -99.5t-52 -79t-52 -68.5t-46.5 -45t-50.5 -32.5t-51 -8.5q-78 0 -132.5 57t-54.5 146q0 144 85 293.5t210 274.5q69 70 139.5 107.5t129.5 37.5q53 0 72.5 -50.5t13.5 -170.5h4l86 225
l186 -8l-168 -436l-117 -357l111 -12l133 215l12 -6q-72 -153 -143 -235.5t-119 -82.5zM299 102q100 0 281 363q59 116 59 168q0 66 -47 115t-107 49q-46 0 -88 -39q-68 -69 -125 -230t-57 -282q0 -69 23 -106.5t61 -37.5z" />
    <glyph glyph-name="b" unicode="b" horiz-adv-x="892" 
d="M289 -31q-50 0 -97.5 13t-89 43t-55 78t3.5 118l309 1036q5 17 2.5 32.5t-12.5 15.5l-164 6l4 12l398 35l-41 -131q-64 -209 -116 -368t-95.5 -283.5t-50.5 -145.5q-6 -18 -3 -19t11 13q113 259 204 368t181 109q86 0 139 -64.5t53 -164.5q0 -121 -68 -276.5t-196 -282.5
q-67 -67 -153.5 -105.5t-163.5 -38.5zM336 -2q50 0 108 55q91 92 161.5 265.5t70.5 304.5q0 155 -101 155q-122 0 -292 -432q-60 -145 -60 -217q0 -57 30 -94t83 -37z" />
    <glyph glyph-name="c" unicode="c" horiz-adv-x="727" 
d="M283 -25q-114 0 -189.5 85t-75.5 208q0 107 44.5 221t116.5 205t173.5 150t206.5 59q81 0 144 -44t63 -111q0 -53 -34.5 -91.5t-80.5 -38.5q-42 0 -76 28.5t-34 66.5q0 37 23.5 71.5t58.5 49.5q-7 5 -20 18.5t-26 20t-32 6.5q-54 0 -133 -72q-77 -80 -133 -226.5
t-56 -279.5q0 -211 150 -211q76 0 130.5 44.5t127.5 168.5l16 -6q-82 -152 -171.5 -237t-192.5 -85z" />
    <glyph glyph-name="d" unicode="d" horiz-adv-x="958" 
d="M653 -25q-34 0 -105 39.5t-71 63.5q0 69 92 309h-4q-135 -218 -160 -255q-83 -120 -150 -146q-24 -9 -50 -9q-78 0 -132.5 57t-54.5 146q0 144 85 293t210 272q151 154 265 154q94 0 90 -227h4l186 585q8 48 -10 48l-193 6l4 12l428 35l-280 -815l-148 -447l111 -12
l133 213l12 -6q-72 -152 -143 -234t-119 -82zM299 102q102 0 281 363q59 116 59 168q0 64 -47 113t-107 49q-46 0 -88 -39q-67 -67 -124.5 -227.5t-57.5 -282.5q0 -69 23 -106.5t61 -37.5z" />
    <glyph glyph-name="e" unicode="e" horiz-adv-x="753" 
d="M287 -25q-116 0 -192.5 85t-76.5 208q0 145 75 292.5t199.5 245t254.5 97.5q98 0 159.5 -44.5t61.5 -117.5q0 -100 -130.5 -165.5t-391.5 -104.5q-23 -94 -23 -172q0 -209 164 -209q77 0 136.5 46t131.5 167l17 -6q-78 -146 -177.5 -234t-207.5 -88zM254 487
q174 36 259 102t85 173q0 115 -76 115q-46 0 -102 -56q-49 -49 -95.5 -140t-74.5 -192z" />
    <glyph glyph-name="f" unicode="f" horiz-adv-x="571" 
d="M-150 -369q-76 0 -126 35.5t-50 93.5q0 40 31.5 74.5t79.5 34.5q39 0 70.5 -29.5t36 -72.5t-30.5 -91q24 -20 49 -20q42 0 75 53.5t69.5 185t88.5 384.5l103 512l-174 4l37 82l161 2q66 259 181 374q98 103 254 103q87 0 138.5 -38t51.5 -99q0 -45 -35.5 -78t-77.5 -33
q-53 0 -81 34.5t-17.5 83t59.5 83.5q-36 26 -69 26q-40 0 -74 -33t-61 -98.5t-47.5 -142t-42.5 -184.5l210 -3l-30 -81h-197l-125 -539q-47 -206 -98.5 -331t-130.5 -204q-84 -88 -228 -88z" />
    <glyph glyph-name="g" unicode="g" horiz-adv-x="804" 
d="M231 -496q-194 0 -312 65.5t-118 172.5q0 75 91.5 144.5t220.5 99.5v4q-64 34 -100 70.5t-36 86.5q0 58 68.5 110t149.5 73l2 4q-54 39 -85.5 98.5t-31.5 128.5q0 87 51.5 166.5t133.5 127t169 46.5q103 -3 184 -74l275 47l-25 -131l-233 72v-4q94 -98 94 -205
q0 -83 -53 -160t-137.5 -123t-171.5 -44q-92 0 -148 38q-42 -7 -66 -35.5t-24 -62.5q0 -33 39 -53.5t170 -63.5l49 -14q73 -24 127.5 -49.5t102 -59t72 -77t24.5 -95.5q0 -80 -66 -150.5t-177.5 -111.5t-238.5 -41zM326 299q27 0 57 14.5t51 36.5q62 62 96.5 176.5
t34.5 202.5q2 68 -22 108t-68 40q-25 0 -44.5 -12t-47.5 -38q-61 -61 -99 -176t-40 -198q0 -99 30 -129q25 -25 52 -25zM305 -471q108 0 182 56.5t74 133.5q0 37 -20 68t-58 55.5t-76.5 41.5t-91.5 36l-168 55q-77 -18 -123.5 -71.5t-46.5 -130.5q0 -109 89 -176.5
t239 -67.5z" />
    <glyph glyph-name="h" unicode="h" horiz-adv-x="956" 
d="M637 -25q-32 0 -95 38.5t-63 64.5q0 9 7 32t23 64t30 77t39 98t40 100t43 104.5t42 104t14 51.5q0 24 -33 45.5t-66 21.5q-45 0 -149 -156t-233 -432l-78 -194l-191 10q2 6 24 69.5t51 145.5t42 121q39 117 109.5 346.5t120.5 399.5l51 171q5 17 2 32.5t-13 15.5l-164 6
l5 12l395 35l-39 -131q-187 -647 -303 -928l12 -4q89 175 180 324t144 202q34 34 77 56t74 22q68 0 120 -39t52 -84q0 -75 -102 -327l-141 -353l106 -12l137 213l13 -6q-71 -147 -152.5 -231.5t-130.5 -84.5z" />
    <glyph glyph-name="i" unicode="i" horiz-adv-x="532" 
d="M500 1063q-51 0 -82 32t-31 81q0 60 34.5 101.5t78.5 41.5q53 0 84.5 -32.5t29.5 -80.5q-1 -61 -35 -102t-79 -41zM215 -25q-34 0 -103 35.5t-69 59.5q0 19 55.5 168t123.5 324.5t83 219.5l-129 9l-131 -211l-12 6q73 152 152.5 234.5t144.5 82.5q42 0 93.5 -47t51.5 -94
q0 -31 -51 -166.5t-117 -297.5t-80 -200l119 -14l137 213l13 -6q-72 -148 -151.5 -232t-129.5 -84z" />
    <glyph glyph-name="j" unicode="j" horiz-adv-x="491" 
d="M498 1061q-51 0 -82 32t-31 81q0 60 34.5 101.5t78.5 41.5q53 0 84.5 -32.5t29.5 -80.5q-1 -61 -35 -102t-79 -41zM-248 -510q-54 0 -98.5 35t-44.5 90q0 41 28.5 71.5t77.5 30.5q42 0 71.5 -29t28.5 -76t-42 -91l100 33q31 33 60 94.5t46 113t58 183.5l264 837l-121 9
l-137 -211l-12 6q71 152 150.5 234.5t144.5 82.5q42 0 94.5 -47t52.5 -94q0 -50 -88 -305.5t-168 -444.5q-119 -283 -248 -415q-47 -47 -105 -77t-112 -30z" />
    <glyph glyph-name="k" unicode="k" horiz-adv-x="878" 
d="M586 -25q-34 0 -67.5 14t-53.5 34q-14 294 -31.5 379t-73.5 85q-27 0 -41 -8.5t-16 -17.5l-143 -467l-197 10q34 85 119 336q52 156 121 385.5t112 380.5l43 151q5 15 2.5 31.5t-12.5 16.5l-164 6l4 12l400 35l-39 -131q-58 -197 -97.5 -321t-79 -238.5t-55.5 -163.5
q40 6 72 6q265 105 309 162l-2 4q-80 43 -80 119q0 41 34.5 74.5t78.5 33.5q47 0 81 -32.5t34 -82.5q0 -34 -11 -59.5t-43 -54.5t-94 -59.5t-159 -65.5l-99 -39q37 -6 66.5 -22t50.5 -45.5t36 -62.5t26.5 -82t18.5 -95t15 -111l62 -6l131 225l10 -4q-63 -153 -132.5 -242.5
t-135.5 -89.5z" />
    <glyph glyph-name="l" unicode="l" horiz-adv-x="483" 
d="M164 -25q-21 0 -61.5 17.5t-72.5 42t-28 39.5l358 1183q5 17 2.5 32.5t-12.5 15.5l-164 6l4 12l394 35l-396 -1262l101 -12l135 213l12 -6q-72 -150 -147.5 -233t-124.5 -83z" />
    <glyph glyph-name="m" unicode="m" horiz-adv-x="1460" 
d="M1147 -25q-32 0 -99 38.5t-67 64.5q0 9 7.5 32.5t22.5 64t29.5 77.5t38.5 97.5t39 99.5q15 40 43 105t43 103t15 52q0 25 -33.5 47t-67.5 22q-86 0 -362 -590l-72 -194l-192 10l94 281q25 74 65 177t64 166.5t24 78.5q0 27 -26.5 49t-59.5 22q-87 0 -366 -590l-74 -194
l-190 10l116 338l131 442l-100 9l-131 -213l-12 6q72 155 144 237t132 82q34 0 90 -50.5t56 -96.5q0 -42 -42.5 -171t-107.5 -286l12 -4q109 212 183.5 344.5t123.5 181.5q33 33 78 55.5t76 22.5q67 0 111.5 -45.5t44.5 -99.5q0 -47 -39.5 -156t-118.5 -299l10 -4
q81 158 119 230.5t94 167t90 128.5q33 33 77 55.5t75 22.5q68 0 120 -39t52 -84q0 -77 -102 -329l-142 -353l107 -12l139 215l12 -6q-74 -151 -150 -234.5t-124 -83.5z" />
    <glyph glyph-name="n" unicode="n" horiz-adv-x="1015" 
d="M700 -25q-34 0 -101 38.5t-67 64.5q0 9 7 32t23.5 65t30 76.5t39.5 99t40 98.5q14 36 42.5 104t42 105t13.5 51q0 25 -32.5 47t-65.5 22q-45 0 -149.5 -156.5t-233.5 -433.5l-74 -194l-192 10l116 338l131 442l-100 9l-131 -213l-12 6q71 153 147 236t137 83
q33 0 86.5 -50.5t53.5 -96.5q0 -44 -41.5 -174.5t-104.5 -282.5l8 -4q90 176 181 325t143 201q34 34 77 56t74 22q68 0 120.5 -39.5t52.5 -83.5q0 -74 -103 -329l-141 -353l106 -12l138 215l12 -6q-72 -150 -148.5 -234t-124.5 -84z" />
    <glyph glyph-name="o" unicode="o" horiz-adv-x="837" 
d="M334 -25q-129 0 -215 110t-86 269q0 124 69 252t176 210.5t211 82.5q129 0 221.5 -111.5t92.5 -269.5q0 -94 -42 -193t-107.5 -175.5t-151.5 -125.5t-168 -49zM303 2q80 0 150.5 93.5t121.5 254.5q24 73 37 163.5t13 154.5q0 97 -26.5 149.5t-70.5 52.5
q-63 0 -142 -114.5t-132 -278.5q-47 -145 -47 -287q0 -87 26 -137.5t70 -50.5z" />
    <glyph glyph-name="p" unicode="p" horiz-adv-x="931" 
d="M-240 -518l7 12l38 2q52 3 69.5 8t21.5 21l374 1257l-100 9l-131 -211l-12 6q72 154 144 235.5t132 81.5q35 0 88 -49.5t53 -91.5q0 -65 -38 -158h10q70 155 144 225t165 70q83 0 134.5 -81.5t51.5 -207.5q0 -112 -45.5 -228t-118.5 -205t-169 -145.5t-191 -56.5t-139 93
h-4l-162 -547q-2 -7 7 -12t35.5 -8.5t72.5 -4.5l63 -2l2 -12h-502zM387 -6q52 0 119 67q82 82 148.5 257t66.5 296q0 89 -29 130.5t-76 41.5q-155 0 -325 -546q-27 -78 -27 -121q0 -47 37 -86t86 -39z" />
    <glyph glyph-name="q" unicode="q" horiz-adv-x="931" 
d="M115 -518l6 12l67 2q60 1 81 10t26 25l180 561q85 264 98 299h-4q-135 -218 -165 -262q-86 -121 -155 -145q-22 -7 -44 -7q-78 0 -132.5 57t-54.5 146q0 144 85 293t210 272q151 154 265 154q94 0 90 -227h4l82 209l186 -9l-170 -438l-289 -909q-2 -7 4 -12t21 -8.5
t32.5 -5t45.5 -3.5l34 -2l7 -12h-510zM299 102q102 0 281 363q59 116 59 168q0 64 -47 113t-107 49q-46 0 -88 -39q-67 -67 -124.5 -227.5t-57.5 -282.5q0 -69 23 -106.5t61 -37.5z" />
    <glyph glyph-name="r" unicode="r" horiz-adv-x="825" 
d="M217 -6l-194 10l116 338l131 442l-100 9l-131 -213l-12 6q72 155 144 237t132 82q34 0 91 -50.5t57 -96.5q0 -36 -26.5 -116.5t-84.5 -234.5q-3 -7 -5 -11.5t-4.5 -11.5t-4.5 -13h6q17 32 43.5 83.5t40 77t34.5 65.5t33 61t28.5 50t27 45.5t23.5 35t24 31t22 22.5
q69 66 133 63q64 -4 104.5 -47.5t35.5 -101.5q-3 -57 -41 -96t-86 -37q-47 2 -74 35t-19 78.5t54 76.5l-58 23q-32 -15 -62 -51.5t-96 -148t-184 -335.5z" />
    <glyph glyph-name="s" unicode="s" horiz-adv-x="675" 
d="M250 -25q-111 0 -192 51t-81 136q0 48 32.5 83.5t80.5 35.5q37 0 62.5 -28t27.5 -65q0 -33 -18.5 -66.5t-44.5 -51.5q18 -23 69 -48.5t97 -25.5q76 0 116.5 55t40.5 117q0 25 -8 47.5t-28 47t-34 38.5t-46.5 43.5t-44.5 40.5q-85 80 -122.5 133.5t-37.5 122.5
q0 110 93.5 185t215.5 75q102 0 174 -43t72 -125q0 -51 -32.5 -83t-78.5 -32q-39 0 -66.5 30.5t-27.5 70.5q0 29 20.5 59t45.5 45q-1 1 -24.5 19t-46.5 27.5t-50 9.5q-70 0 -108 -51t-38 -109q0 -22 7 -43t27.5 -46t31 -36.5t44 -43t40.5 -38.5q83 -79 110 -113
q60 -77 60 -153q0 -112 -104 -191.5t-234 -79.5z" />
    <glyph glyph-name="t" unicode="t" horiz-adv-x="591" 
d="M242 -25q-47 0 -135 36t-84 59q0 12 215 721l-160 4l37 82l153 2l86 264h193l-80 -264l172 -2l-8 -84h-193l-231 -697l160 -12l129 213l14 -6q-71 -153 -142 -234.5t-126 -81.5z" />
    <glyph glyph-name="u" unicode="u" horiz-adv-x="1015" 
d="M705 -27q-33 0 -85.5 50t-52.5 96q0 45 40 179t102 282l-7 4q-95 -185 -182.5 -332.5t-138.5 -196.5q-33 -33 -77 -55.5t-75 -22.5q-68 0 -120 39t-52 82q0 82 101 332l139 354l-107 9l-135 -213l-12 6q72 149 149 233t125 84q32 0 100 -38.5t68 -63.5q-1 -9 -8.5 -33.5
t-22.5 -64t-30.5 -77.5t-38.5 -96.5t-39 -99.5q-15 -38 -42.5 -105.5t-41.5 -105t-14 -51.5q0 -24 32.5 -46t65.5 -22q44 0 148 156.5t235 431.5l74 197l190 -11l-116 -337l-134 -443l101 -10l133 213l12 -6q-71 -153 -147 -235.5t-137 -82.5z" />
    <glyph glyph-name="v" unicode="v" horiz-adv-x="831" 
d="M266 -25q-79 0 -142 55.5t-63 123.5q1 56 45 138.5t145 230.5t132 198l-242 39l-100 -166l-8 6q74 160 131 235.5t106 75.5q45 0 122 -13.5t77 -25.5q0 -18 -34.5 -88t-76 -148.5t-76 -172t-34.5 -154.5q0 -94 43.5 -147t128.5 -53q63 0 141 94t135 233t62 258
q-66 -16 -114 18t-48 81q0 42 32 77t79 35q53 0 86.5 -37.5t33.5 -93.5q0 -119 -103 -341.5t-232 -352.5q-102 -105 -226 -105z" />
    <glyph glyph-name="w" unicode="w" horiz-adv-x="1196" 
d="M213 -25q-67 0 -111.5 51t-44.5 124q0 58 37 137t83.5 145t106.5 151.5t89 137.5l-230 39l-98 -166l-10 6q74 160 131 235.5t106 75.5q26 0 74.5 -7t87 -16.5t37.5 -15.5q-3 -19 -41.5 -90t-82.5 -149.5t-80 -175t-36 -162.5q0 -77 29 -115.5t82 -38.5q154 0 414 525
q0 2 -10.5 8t-26.5 16.5t-32 24t-27 35t-11 45.5q0 47 30.5 76.5t76.5 29.5q42 0 73 -31t31 -73q0 -36 -16 -68.5t-37.5 -56.5t-50 -69.5t-47.5 -98.5q-47 -128 -47 -201q0 -81 41 -121.5t114 -40.5q83 0 158 82.5t118.5 213t41.5 265.5q-59 -21 -107.5 8.5t-48.5 84.5
q0 44 30 77t72 33q52 0 84.5 -39t32.5 -100q0 -132 -90 -354.5t-205 -339.5q-94 -97 -178 -97q-67 0 -103 50.5t-36 113.5q0 87 88 322q-60 -104 -111 -181.5t-111.5 -151.5t-121 -113.5t-117.5 -39.5z" />
    <glyph glyph-name="x" unicode="x" horiz-adv-x="917" 
d="M82 -25q-56 0 -96.5 34t-40.5 93q0 51 31 83t75 32q40 0 64 -25t23.5 -60.5t-25.5 -63.5q0 -5 14 -18t20 -13q42 5 105.5 93.5t126.5 244.5q-4 26 -10.5 66t-10.5 66t-10 61t-11 57.5t-11 49t-13 43t-15 31t-17.5 21t-20.5 6.5h-88l-90 -162l-16 7q62 145 130 214.5
t134 69.5q42 0 75.5 -24.5t57 -71t39 -97t30.5 -120.5h5q69 175 120.5 244t133.5 69q54 0 94.5 -34.5t40.5 -90.5q0 -49 -31 -81.5t-72 -32.5q-39 0 -65 27t-26 59t20 57q0 6 -13.5 12t-21.5 4q-72 -6 -176 -272q8 -46 20 -127t19.5 -127t20 -97.5t28 -75.5t35.5 -24h88
l90 162l16 -8q-121 -281 -260 -281q-45 0 -80.5 28.5t-60.5 82.5t-41 111t-31 135h-4q-82 -196 -145 -276.5t-154 -80.5z" />
    <glyph glyph-name="y" unicode="y" horiz-adv-x="884" 
d="M-86 -373q-93 0 -139.5 38t-46.5 102q0 45 33.5 75.5t78.5 30.5q42 0 72 -26.5t34 -68.5t-26 -93l78 -25q177 38 371 236q4 489 -37.5 698t-138.5 209h-29l-123 -223l-14 6q79 170 103 209q51 84 115 102q22 6 50 6q93 0 148 -76.5t79.5 -255.5t18.5 -483l4 -2
q114 171 182.5 341t75.5 314q-51 -42 -95.5 -38t-75 34t-32.5 66q-2 46 27.5 78t81.5 32q51 0 88 -40.5t37 -114.5q0 -199 -128.5 -448.5t-318.5 -434.5q-114 -114 -238 -181t-235 -67z" />
    <glyph glyph-name="z" unicode="z" horiz-adv-x="774" 
d="M481 -45q-48 0 -94.5 23t-81.5 55.5t-66.5 65.5t-62.5 56.5t-57 24.5h-10l-64 -205q-38 5 -69 30.5t-31 60.5q0 48 40 80.5t89 39.5l528 488q-38 -7 -65.5 -8.5t-57.5 10.5t-51 24t-45.5 33.5t-41.5 38.5l-38.5 38.5t-36.5 33.5q-8 5 -46 -39q-34 -40 -23 -41
q45 -3 73.5 -32t28.5 -68q0 -42 -30 -71.5t-74 -29.5q-43 0 -69 31t-26 74q0 56 53.5 112.5t121 90.5t116.5 36q50 -3 86 -24t53.5 -50t30 -57.5t25.5 -49.5t30 -24l9 3l57 200q37 -7 68.5 -33t31.5 -59q0 -50 -36 -79t-84 -36l-531 -487q39 9 77.5 10t74 -8t67 -19.5
t63.5 -30.5t54.5 -35t50 -39t40.5 -36t34 -33q5 -4 25 25q33 48 29 60q-1 1 -3 1q-48 0 -78 34t-30 75q0 43 29.5 70.5t74.5 27.5q43 0 68.5 -33t25.5 -77q0 -82 -88 -163.5t-164 -84.5z" />
    <glyph glyph-name="braceleft" unicode="{" horiz-adv-x="634" 
d="M455 -526q-184 32 -292 129.5t-81 226.5q19 84 93.5 224t86.5 196q18 78 -43 120t-209 68l-4 11l8 8q72 3 120.5 9t94.5 20.5t72.5 42t34.5 69.5q13 57 2 214.5t8 240.5q30 128 172.5 198t333.5 64v-12q-157 -5 -232.5 -44.5t-95.5 -128.5q-15 -64 -5 -220.5t-7 -237.5
q-45 -202 -410 -228l-2 -10q167 -33 245.5 -102t55.5 -174q-18 -79 -93 -228t-89 -213q-20 -87 36.5 -140.5t205.5 -92.5z" />
    <glyph glyph-name="bar" unicode="|" horiz-adv-x="313" 
d="M156 -424v1796h18v-1796h-18z" />
    <glyph glyph-name="braceright" unicode="}" horiz-adv-x="634" 
d="M-188 -524v12q157 5 232 44t95 128q13 55 -2.5 139.5t-31 173t-1.5 152.5q44 205 408 227l2 10q-165 35 -243.5 105t-55.5 174q11 52 45.5 114t70.5 110.5t69.5 107t43.5 102.5q20 86 -36.5 140.5t-204.5 89.5l6 12q185 -32 292 -127.5t79 -224.5q-12 -54 -47 -116
t-69.5 -108t-67 -100t-40.5 -94q-17 -81 48 -122.5t202 -68.5l2 -8l-8 -8q-155 -3 -228 -32t-91 -109q-9 -40 -1 -100.5t21 -115.5t19.5 -122.5t-5.5 -122.5q-19 -86 -92.5 -148t-180 -90.5t-230.5 -23.5z" />
    <glyph glyph-name="asciitilde" unicode="~" horiz-adv-x="778" 
d="M549 303q-53 0 -124.5 31.5t-135.5 63.5t-99 32q-22 0 -33.5 -2t-26 -12t-24.5 -33.5t-18 -63.5h-16q32 135 69 185.5t113 50.5q41 0 94.5 -20t96.5 -43.5t89 -43.5t74 -20q22 0 35 3t27.5 13.5t25.5 33.5t19 61h16q-32 -135 -69 -185.5t-113 -50.5z" />
    <glyph glyph-name="nbspace" unicode="&#xa0;" horiz-adv-x="266" 
 />
    <glyph glyph-name="exclamdown" unicode="&#xa1;" horiz-adv-x="532" 
d="M422 1047q-54 0 -91.5 36t-37.5 86q0 53 37 91t90 38q54 0 91.5 -38t37.5 -91q0 -50 -37 -86t-90 -36zM162 -37q-34 4 -56 14t-31.5 21.5t-11.5 29t1 32t10 34.5l280 787q2 4 6 5.5t7 -0.5t2 -7l-64 -811q-3 -25 -8.5 -42.5t-19.5 -35t-42 -24.5t-69 -3h-4z" />
    <glyph glyph-name="cent" unicode="&#xa2;" horiz-adv-x="727" 
d="M217 -16q-89 25 -144 103t-55 179q0 86 28 177.5t79 172t117.5 145t149 102.5t167.5 38q44 0 90 -16l170 352h25l-174 -360q43 -21 69.5 -55.5t26.5 -76.5q0 -52 -34.5 -89.5t-80.5 -37.5q-51 0 -88 37l-264 -551q28 -14 74 -14q76 0 130.5 44.5t127.5 166.5l16 -6
q-83 -150 -172 -235t-192 -85q-8 0 -43 5l-146 -302h-24zM549 676q-8 13 -8 35q0 37 23.5 71t58.5 49q-7 5 -20 19t-26 20.5t-32 6.5q-62 0 -137 -72q-78 -78 -134.5 -224.5t-56.5 -281.5q0 -133 64 -182z" />
    <glyph glyph-name="sterling" unicode="&#xa3;" horiz-adv-x="1112" 
d="M389 604h-227l6 21h217q-18 77 -18 141q0 102 39.5 197.5t108 168.5t169 116.5t215.5 43.5q128 0 202.5 -46.5t74.5 -123.5q0 -51 -33 -87t-86 -36q-58 0 -87 41t-22 93.5t43 85.5q-11 17 -41.5 33t-79.5 16q-90 0 -160.5 -61t-95.5 -183q-12 -54 -12 -189t-10 -210h260
l6 -21h-270q-9 -56 -27 -119q-40 -134 -129 -258q25 -7 82 -24.5t87 -25.5t73.5 -19t77.5 -16t63 -5q85 0 130 46.5t83 174.5l14 -2q-37 -164 -128.5 -270t-213.5 -106q-71 0 -143.5 22t-116 44.5t-108.5 62.5q-135 -132 -256 -132q-56 0 -94.5 35t-38.5 86q0 77 59 129
t162 52q97 0 231 -41q37 79 37 147q0 24 -2 45.5t-8 48t-9 39t-12.5 45.5t-11.5 41zM313 121q-56 35 -81 50t-67 31.5t-77 16.5q-53 0 -89 -35.5t-36 -87.5q0 -42 33 -72t82 -30q57 0 119.5 35t115.5 92z" />
    <glyph glyph-name="currency" unicode="&#xa4;" horiz-adv-x="886" 
d="M791 436l-17 -16l-117 115q-78 -71 -182 -71t-182 71l-117 -115l-16 16l114 117q-70 77 -70 182t70 183l-114 116l16 17l117 -115q77 70 182.5 70t181.5 -70l117 115l17 -17l-115 -116q70 -78 70 -183t-70 -182zM301 561q72 -72 174 -72t174 72t72 174t-72 174t-174 72
t-174 -72t-72 -174t72 -174z" />
    <glyph glyph-name="yen" unicode="&#xa5;" horiz-adv-x="1259" 
d="M555 608h-375l-4 21h371q1 0 -39 115.5t-80 231.5l-41 116q-34 98 -65.5 132t-96.5 40l-49 4l-2 12h598l-8 -12l-41 -2q-94 -6 -114.5 -41t9.5 -111l152 -450h6l234 311q135 186 136.5 230.5t-124.5 56.5l-43 6l-2 12h446l-8 -12l-55 -6q-52 -5 -87 -24.5t-87.5 -77.5
t-151.5 -189l-250 -338q0 -4 -2 -4h381q1 0 -0.5 -5.5t-3.5 -10.5l-2 -5h-379q1 0 -12 -61t-26 -121l-13 -61h377l4 -21h-385l-61 -297q-1 -8 5 -12.5t31 -8.5t76 -8l72 -6l2 -12h-623l6 12l101 8q100 8 104 33l62 291h-379l8 21h375z" />
    <glyph glyph-name="brokenbar" unicode="&#xa6;" horiz-adv-x="313" 
d="M156 598v686h18v-686h-18zM156 -315v686h18v-686h-18z" />
    <glyph glyph-name="section" unicode="&#xa7;" horiz-adv-x="802" 
d="M283 -78q-119 0 -197 44.5t-78 111.5q0 45 29 76.5t74 31.5q48 0 72 -33.5t17 -78t-40 -74.5q17 -27 57.5 -42t79.5 -15q77 0 127.5 51.5t50.5 107.5q0 63 -53.5 122t-155.5 134q-49 36 -83.5 65.5t-69 67.5t-52.5 79.5t-18 84.5q0 89 65.5 155.5t170.5 98.5
q-33 49 -33 125q0 117 98 197t236 80q114 0 190 -46t76 -114q0 -40 -33 -70t-78 -30q-50 0 -74 34.5t-16 79.5t41 74q-17 26 -52.5 39.5t-68.5 13.5q-77 0 -126.5 -50t-49.5 -107q0 -64 53.5 -123t157.5 -135q51 -37 83.5 -64t69 -65t54.5 -79.5t18 -86.5q0 -90 -68 -157.5
t-173 -100.5q37 -52 37 -129q0 -80 -50.5 -143.5t-127.5 -96.5t-160 -33zM578 336q50 29 77 70.5t27 85.5q0 55 -40.5 102.5t-127.5 112.5q-26 21 -84 64.5t-89.5 71.5t-51.5 56q-105 -57 -105 -154q0 -57 40 -104t128 -111q19 -14 54.5 -41t54 -41.5t43.5 -35t42.5 -39
t31.5 -37.5z" />
    <glyph glyph-name="dieresis" unicode="&#xa8;" horiz-adv-x="780" 
d="M733 1038q-52 0 -82 36t-30 77q0 43 30 81t82 38t82.5 -38t30.5 -81q0 -41 -30.5 -77t-82.5 -36zM350 1038q-52 0 -82 36t-30 77q0 43 30 81t82 38t82.5 -38t30.5 -81q0 -41 -30.5 -77t-82.5 -36z" />
    <glyph glyph-name="copyright" unicode="&#xa9;" horiz-adv-x="1441" 
d="M754 -29q-137 0 -261 53t-213.5 142.5t-142.5 213.5t-53 261q0 183 89.5 337.5t244 244.5t336.5 90q136 0 259.5 -53t213 -143t142 -214.5t52.5 -261.5t-52.5 -261t-142 -213.5t-213 -142.5t-259.5 -53zM754 -10q175 0 323.5 87.5t235 237.5t86.5 326t-86.5 326.5
t-235 238.5t-323.5 88q-132 0 -252 -52t-206.5 -140t-138 -208.5t-51.5 -252.5t51.5 -252.5t138 -207.5t206.5 -139t252 -52zM774 236q-193 0 -315.5 112t-122.5 287t123.5 290t326.5 115q57 0 115.5 -14t89.5 -33l76 27l6 -242h-8l-117 205q-57 43 -164 43
q-140 0 -219.5 -109t-79.5 -274q0 -175 85.5 -285t211.5 -110q99 0 160 46t117 144l35 62l6 -2l-43 -209l-41 -8q-35 -16 -108 -30.5t-134 -14.5z" />
    <glyph glyph-name="ordfeminine" unicode="&#xaa;" horiz-adv-x="765" 
d="M295 580q-62 0 -105 44t-43 113q0 113 66.5 230.5t163.5 214.5q54 54 111 84t102 30q41 0 55.5 -39.5t9.5 -134.5h4l70 176l145 -6l-131 -340l-92 -280l86 -8l105 165l8 -4q-56 -118 -111 -181.5t-92 -63.5q-28 0 -83.5 29.5t-55.5 47.5q0 56 74 244h-4q-9 -14 -25 -41
q-41 -68 -60.5 -99t-50.5 -74t-50.5 -61t-45 -32t-51.5 -14zM369 678q38 0 96 73.5t125 209.5q45 92 45 131q0 51 -37 90t-84 39q-33 0 -68 -31q-53 -54 -99 -181t-46 -221q0 -54 18.5 -82t49.5 -28z" />
    <glyph glyph-name="guillemotleft" unicode="&#xab;" horiz-adv-x="905" 
d="M799 88l-375 363l4 22l524 348l6 -14l-329 -369l178 -338zM401 109l-374 342l6 22l516 326l4 -11l-317 -350l176 -315z" />
    <glyph glyph-name="logicalnot" unicode="&#xac;" horiz-adv-x="886" 
d="M840 629v-348h-25v323h-792l6 25h811z" />
    <glyph glyph-name="uni00AD" unicode="&#xad;" horiz-adv-x="573" 
d="M39 438l24 82h490l-25 -82h-489z" />
    <glyph glyph-name="registered" unicode="&#xae;" horiz-adv-x="1429" 
d="M754 -29q-137 0 -261 53t-213.5 142.5t-142.5 213.5t-53 261q0 183 89.5 337.5t244 244.5t336.5 90q136 0 259.5 -53t213 -143t142 -214.5t52.5 -261.5t-52.5 -261t-142 -213.5t-213 -142.5t-259.5 -53zM754 -10q175 0 323.5 87.5t235 237.5t86.5 326t-86.5 326.5
t-235 238.5t-323.5 88q-132 0 -252 -52t-206.5 -140t-138 -208.5t-51.5 -252.5t51.5 -252.5t138 -207.5t206.5 -139t252 -52zM373 258l4 10l57 6q23 1 41.5 8t18.5 13v700q0 6 -13 9.5t-59 7.5l-43 4l-4 10h342q327 0 327 -203q0 -66 -52.5 -118.5t-137.5 -69.5l164 -250
q41 -66 69.5 -86.5t83.5 -28.5l15 -2l4 -10h-256l-8 18l-215 363q-51 12 -80 23v-371q0 -12 71 -19l46 -4l4 -10h-379zM729 659q82 0 127 44t45 128q0 88 -56.5 133t-160.5 42l-53 -2v-324q65 -21 98 -21z" />
    <glyph glyph-name="macron" unicode="&#xaf;" horiz-adv-x="755" 
d="M248 1067l31 70h512l-31 -70h-512z" />
    <glyph glyph-name="degree" unicode="&#xb0;" horiz-adv-x="579" 
d="M420 778q-118 0 -190 77.5t-72 188.5q0 110 72 188.5t188 78.5t188 -78.5t72 -188.5q0 -111 -71.5 -188.5t-186.5 -77.5zM420 803q104 0 166.5 69t62.5 172q0 101 -63.5 171.5t-167.5 70.5t-168 -71t-64 -171q0 -102 64.5 -171.5t169.5 -69.5z" />
    <glyph glyph-name="plusminus" unicode="&#xb1;" horiz-adv-x="886" 
d="M440 172v342h-417l4 25h413v354h25v-354h412l4 -25h-416v-342h-25zM860 76h-817l4 24h809z" />
    <glyph glyph-name="twosuperior" unicode="&#xb2;" horiz-adv-x="579" 
d="M-18 518v35q231 177 294 233q116 104 144 193q14 43 14 92q0 68 -41 107t-100 39q-81 0 -152 -99l-8 6q124 187 266 187q85 0 138 -53t55 -130q0 -49 -16.5 -91t-41 -74t-73 -72.5t-92.5 -71t-120 -84.5t-136 -100v-2h325q20 0 54 36t77 115l9 13l6 -2l-121 -277h-481z
" />
    <glyph glyph-name="threesuperior" unicode="&#xb3;" horiz-adv-x="536" 
d="M190 471q-94 0 -151 27.5t-57 83.5q0 28 21.5 49.5t53.5 21.5q48 0 70.5 -45.5t-10.5 -99.5q35 -23 76 -23q77 0 133.5 63.5t56.5 149.5q0 78 -49 126t-135 48q-25 0 -70 -10l-4 8q166 70 226.5 114.5t60.5 119.5q0 48 -33.5 83.5t-89.5 35.5q-46 0 -92 -32.5t-70 -78.5
l-8 6q39 83 108.5 138t151.5 55q76 0 127 -44.5t51 -105.5q0 -70 -58 -122.5t-180 -90.5v-4h7q91 -9 144.5 -67t53.5 -132q0 -106 -100.5 -190t-233.5 -84z" />
    <glyph glyph-name="acute" unicode="&#xb4;" horiz-adv-x="788" 
d="M418 1006l268 383h217l-473 -383h-12z" />
    <glyph glyph-name="mu" unicode="&#xb5;" horiz-adv-x="1017" 
d="M467 -518h-461l6 12l37 2q52 3 69 8t17 21v1304q0 7 -4.5 10.5t-28 8t-73.5 8.5l-29 2l-6 12h346l-2 -645q-1 -38 16 -64t46.5 -37.5t56 -15.5t57.5 -4q126 0 184 50v620q0 49 -18.5 63t-83.5 19l-29 2l-6 12h340v-696q0 -47 8.5 -61.5t34.5 -22.5l88 -16l-2 -11
l-330 -96l2 158h-4q-38 -80 -80 -116t-104 -36q-97 0 -172 133h-4v-581q0 -16 17 -21t69 -8l37 -2z" />
    <glyph glyph-name="mu" unicode="&#x3bc;" horiz-adv-x="1017" 
d="M467 -518h-461l6 12l37 2q52 3 69 8t17 21v1304q0 7 -4.5 10.5t-28 8t-73.5 8.5l-29 2l-6 12h346l-2 -645q-1 -38 16 -64t46.5 -37.5t56 -15.5t57.5 -4q126 0 184 50v620q0 49 -18.5 63t-83.5 19l-29 2l-6 12h340v-696q0 -47 8.5 -61.5t34.5 -22.5l88 -16l-2 -11
l-330 -96l2 158h-4q-38 -80 -80 -116t-104 -36q-97 0 -172 133h-4v-581q0 -16 17 -21t69 -8l37 -2z" />
    <glyph glyph-name="paragraph" unicode="&#xb6;" horiz-adv-x="882" 
d="M651 -63l119 569h-4q-189 0 -330 43.5t-220 129t-79 204.5q0 193 144.5 296t388.5 103h288l-286 -1345h-21z" />
    <glyph glyph-name="periodcentered" unicode="&#xb7;" horiz-adv-x="428" 
d="M217 338q-53 0 -91 39t-38 92q0 51 37 89t90 38t91 -38.5t38 -88.5q0 -53 -37 -92t-90 -39z" />
    <glyph glyph-name="cedilla" unicode="&#xb8;" horiz-adv-x="776" 
d="M-10 -522v10q185 13 265.5 55.5t80.5 116.5q0 39 -28 64t-66.5 34t-87.5 9q-36 0 -107 -13l4 17l254 221h27l-139 -125q119 10 199.5 -36t80.5 -120q0 -225 -483 -233z" />
    <glyph glyph-name="onesuperior" unicode="&#xb9;" horiz-adv-x="460" 
d="M37 518l2 8h31q66 0 69 21l146 692l-115 16l4 7l266 38l-161 -755q-4 -19 71 -19h25l4 -8h-342z" />
    <glyph glyph-name="ordmasculine" unicode="&#xba;" horiz-adv-x="671" 
d="M395 573q-100 0 -166.5 86t-66.5 209q0 97 54 199.5t138 169t166 66.5q101 0 173.5 -88t72.5 -211q0 -100 -55 -201t-142 -165.5t-174 -64.5zM375 594q61 0 117 75t96 201q39 127 39 252q0 75 -20.5 116.5t-55.5 41.5q-49 0 -113 -92.5t-104 -220.5q-39 -128 -39 -226
q0 -69 21.5 -108t58.5 -39z" />
    <glyph glyph-name="guillemotright" unicode="&#xbb;" horiz-adv-x="903" 
d="M367 109l-5 10l316 350l-176 317l10 13l375 -340l-6 -23zM-39 88l-4 10l328 371l-181 338l11 14l377 -362l-5 -23z" />
    <glyph glyph-name="onequarter" unicode="&#xbc;" horiz-adv-x="1241" 
d="M872 -252l43 201h-327l2 10l524 582h64l-107 -496h133l-39 -96h-116l-41 -201h-136zM686 45h248l78 358h-4zM37 518l2 8h31q66 0 69 21l146 692l-115 16l4 7l266 38l-161 -755q-4 -19 71 -19h25l4 -8h-342zM-102 -252l1429 1546h33l-1430 -1546h-32z" />
    <glyph glyph-name="onehalf" unicode="&#xbd;" horiz-adv-x="1294" 
d="M655 -252v35q231 177 292 231q117 105 147 193q14 44 14 94q0 67 -41 106t-100 39q-82 0 -152 -98l-8 6q124 187 266 187q85 0 138 -53t55 -130q0 -49 -16.5 -91t-41.5 -74t-73.5 -72.5t-92.5 -71t-120 -84.5t-136 -100v-2h326q20 0 54 36t77 115l8 13l6 -2l-120 -277
h-482zM37 518l2 8h31q66 0 69 21l146 692l-115 16l4 7l266 38l-161 -755q-4 -19 71 -19h25l4 -8h-342zM-102 -252l1429 1546h33l-1430 -1546h-32z" />
    <glyph glyph-name="threequarters" unicode="&#xbe;" horiz-adv-x="1234" 
d="M866 -252l43 201h-327l2 10l524 582h63l-106 -496h133l-39 -96h-117l-41 -201h-135zM190 471q-94 0 -151 27.5t-57 83.5q0 28 21.5 49.5t53.5 21.5q48 0 70.5 -45.5t-10.5 -99.5q35 -23 76 -23q77 0 133.5 63.5t56.5 149.5q0 78 -49 126t-135 48q-25 0 -70 -10l-4 8
q166 70 226.5 114.5t60.5 119.5q0 48 -33.5 83.5t-89.5 35.5q-46 0 -92 -32.5t-70 -78.5l-8 6q39 83 108.5 138t151.5 55q76 0 127 -44.5t51 -105.5q0 -70 -58 -122.5t-180 -90.5v-4h7q91 -9 144.5 -67t53.5 -132q0 -106 -100.5 -190t-233.5 -84zM-111 -252l1432 1546h33
l-1432 -1546h-33zM680 45h248l78 358h-5z" />
    <glyph glyph-name="questiondown" unicode="&#xbf;" horiz-adv-x="634" 
d="M492 1057q-53 0 -90 37.5t-37 87.5q0 52 36.5 89.5t90.5 37.5t91.5 -37.5t37.5 -89.5t-37 -88.5t-92 -36.5zM387 -29q-82 0 -149.5 31t-109.5 82t-64.5 114.5t-22.5 131.5q0 130 50.5 202.5t180.5 112.5q129 34 171 58t42 73q0 56 -75 125l12 6q62 -55 100.5 -118.5
t38.5 -114.5q0 -73 -61.5 -116.5t-202.5 -78.5q-143 -36 -189.5 -64.5t-46.5 -84.5q0 -69 87.5 -124.5t252.5 -55.5q45 0 95 8q18 -24 18 -62q0 -26 -4.5 -45t-16.5 -39t-39 -30.5t-67 -10.5z" />
    <glyph glyph-name="Agrave" unicode="&#xc0;" horiz-adv-x="1277" 
d="M721 549h-332l-117 -207q-13 -22 -35 -62q-98 -163 -93 -208t145 -56l53 -4l2 -12h-450l6 12l34 4q28 3 45.5 6t39 14t34 20t36 37t39 51t48 77t58.5 100t75 134l365 647l-8 80q107 21 184 129h27l96 -1035q14 -109 32 -163t44 -73t75 -22l60 -6v-12h-606l8 12l59 4
q78 4 97 47.5t6 151.5zM403 575h316l-39 484h-4zM838 1348l-316 383h197l133 -383h-14z" />
    <glyph glyph-name="Aacute" unicode="&#xc1;" horiz-adv-x="1277" 
d="M721 549h-332l-117 -207q-13 -22 -35 -62q-98 -163 -93 -208t145 -56l53 -4l2 -12h-450l6 12l34 4q28 3 45.5 6t39 14t34 20t36 37t39 51t48 77t58.5 100t75 134l365 647l-8 80q107 21 184 129h27l96 -1035q14 -109 32 -163t44 -73t75 -22l60 -6v-12h-606l8 12l59 4
q78 4 97 47.5t6 151.5zM403 575h316l-39 484h-4zM709 1348l268 383h217l-473 -383h-12z" />
    <glyph glyph-name="Acircumflex" unicode="&#xc2;" horiz-adv-x="1277" 
d="M721 549h-332l-117 -207q-13 -22 -35 -62q-98 -163 -93 -208t145 -56l53 -4l2 -12h-450l6 12l34 4q28 3 45.5 6t39 14t34 20t36 37t39 51t48 77t58.5 100t75 134l365 647l-8 80q107 21 184 129h27l96 -1035q14 -109 32 -163t44 -73t75 -22l60 -6v-12h-606l8 12l59 4
q78 4 97 47.5t6 151.5zM403 575h316l-39 484h-4zM526 1325l359 404h14l191 -404h-17l-207 211h-6l-321 -211h-13z" />
    <glyph glyph-name="Atilde" unicode="&#xc3;" horiz-adv-x="1277" 
d="M721 549h-332l-117 -207q-13 -22 -35 -62q-98 -163 -93 -208t145 -56l53 -4l2 -12h-450l6 12l34 4q28 3 45.5 6t39 14t34 20t36 37t39 51t48 77t58.5 100t75 134l365 647l-8 80q107 21 184 129h27l96 -1035q14 -109 32 -163t44 -73t75 -22l60 -6v-12h-606l8 12l59 4
q78 4 97 47.5t6 151.5zM977 1360q-53 0 -124.5 32t-135.5 63.5t-99 31.5q-22 0 -33.5 -2t-26 -12t-24.5 -33.5t-18 -63.5h-16q32 135 69 185.5t113 50.5q51 0 122 -32t134.5 -63.5t97.5 -31.5q22 0 35 3t28 13t25.5 33t18.5 61h16q-32 -135 -69 -185t-113 -50zM403 575h316
l-39 484h-4z" />
    <glyph glyph-name="Adieresis" unicode="&#xc4;" horiz-adv-x="1277" 
d="M721 549h-332l-117 -207q-13 -22 -35 -62q-98 -163 -93 -208t145 -56l53 -4l2 -12h-450l6 12l34 4q28 3 45.5 6t39 14t34 20t36 37t39 51t48 77t58.5 100t75 134l365 647l-8 80q107 21 184 129h27l96 -1035q14 -109 32 -163t44 -73t75 -22l60 -6v-12h-606l8 12l59 4
q78 4 97 47.5t6 151.5zM403 575h316l-39 484h-4zM1020 1380q-52 0 -82.5 36t-30.5 77q0 43 30.5 81t82.5 38t82.5 -38t30.5 -81q0 -41 -30.5 -77t-82.5 -36zM637 1380q-52 0 -82.5 36t-30.5 77q0 43 30.5 81t82.5 38t82.5 -38t30.5 -81q0 -41 -30.5 -77t-82.5 -36z" />
    <glyph glyph-name="Aring" unicode="&#xc5;" horiz-adv-x="1277" 
d="M721 549h-332q1 0 -28.5 -52t-58.5 -105l-30 -52q-98 -173 -110 -199q-32 -69 -7 -93t134 -32l53 -4l2 -12h-450l6 12l34 4q28 3 45.5 6t39 14t34 20t36 37t39 51t48 77t58.5 100t75 134l461 821q-46 22 -72 66t-26 98q0 76 50 130t132 54t132 -54t50 -130
q0 -69 -42.5 -120t-112.5 -60l92 -984q14 -109 32 -163t44 -73t75 -22l60 -6v-12h-606l8 12l59 4q78 4 97 47.5t6 151.5zM854 1274q73 0 117.5 48t44.5 118q0 69 -44.5 117.5t-117.5 48.5t-117.5 -48.5t-44.5 -117.5q0 -70 44.5 -118t117.5 -48zM403 575h316l-39 484h-4
q-271 -484 -273 -484z" />
    <glyph glyph-name="AE" unicode="&#xc6;" horiz-adv-x="1771" 
d="M784 549h-346l-157 -197q-27 -34 -73 -91q-106 -133 -123 -167q-20 -42 14 -58q25 -11 106 -20l35 -4l6 -12h-436l6 12l37 4q30 3 49 5.5t42.5 12t37.5 16t40 30t42.5 40.5t53.5 60.5t64 77t82 102.5l641 803q19 26 25 41.5t-1.5 29t-37 20.5t-84.5 10l-76 4l-2 12h969
l18 -408h-12l-8 25q-25 81 -46.5 132.5t-54.5 100t-74 74.5t-101 41.5t-140 14.5l-119 -3l-123 -589l90 2q153 8 222.5 45t113.5 137l15 33l14 -2l-98 -461l-15 2l4 33q4 39 0.5 66.5t-17 48t-32 33t-53.5 21t-73.5 12.5t-98.5 7l-78 4l-129 -618l227 -11q100 1 182 29
t146.5 82t112 115.5t98.5 148.5l19 27h12l-148 -422h-1071l6 14l88 9q103 8 107 32zM459 575h332l116 560h-4z" />
    <glyph glyph-name="Ccedilla" unicode="&#xc7;" horiz-adv-x="1400" 
d="M729 -27q-141 7 -259.5 56t-198 128t-123.5 184.5t-44 223.5q0 147 56 282.5t155.5 238t247 164t318.5 61.5q220 0 374 -97l146 37l-64 -372l-10 2l-98 299q-45 45 -129.5 75.5t-177.5 30.5q-110 0 -204.5 -46t-161 -123.5t-114 -179t-70 -212.5t-22.5 -223
q0 -237 117.5 -372.5t325.5 -135.5q133 0 238 67t194 195l65 100l10 -4l-108 -329l-70 -5q-54 -17 -154.5 -32t-191.5 -15h-20l-117 -104q119 10 200 -36t81 -120q0 -225 -484 -233v10q185 13 265.5 55.5t80.5 116.5q0 39 -28 64t-66.5 34t-87.5 9q-34 0 -106 -13l4 17z" />
    <glyph glyph-name="Egrave" unicode="&#xc8;" horiz-adv-x="1230" 
d="M-47 0l6 12l70 8q108 12 112 33l250 1180q1 6 -2 9t-16.5 6.5t-34 6t-62.5 7.5l-49 6l-2 12h932l19 -408h-15l-6 25q-25 81 -46.5 133t-54.5 100.5t-74 74.5t-101 41t-140 14h-118l-125 -592l92 2q152 8 221.5 45t114.5 137l14 33l14 -2l-100 -461l-14 2l4 33q5 47 -2 78
t-23.5 51t-53 32t-79.5 17.5t-115 9.5l-77 4l-132 -620l228 -11q81 1 150.5 21t123 52t103 82t86.5 101.5t77 120.5l19 27h10l-145 -422h-1059zM809 1348l-315 383h196l133 -383h-14z" />
    <glyph glyph-name="Eacute" unicode="&#xc9;" horiz-adv-x="1230" 
d="M-47 0l6 12l70 8q108 12 112 33l250 1180q1 6 -2 9t-16.5 6.5t-34 6t-62.5 7.5l-49 6l-2 12h932l19 -408h-15l-6 25q-25 81 -46.5 133t-54.5 100.5t-74 74.5t-101 41t-140 14h-118l-125 -592l92 2q152 8 221.5 45t114.5 137l14 33l14 -2l-100 -461l-14 2l4 33q5 47 -2 78
t-23.5 51t-53 32t-79.5 17.5t-115 9.5l-77 4l-132 -620l228 -11q81 1 150.5 21t123 52t103 82t86.5 101.5t77 120.5l19 27h10l-145 -422h-1059zM662 1348l268 383h217l-473 -383h-12z" />
    <glyph glyph-name="Ecircumflex" unicode="&#xca;" horiz-adv-x="1230" 
d="M-47 0l6 12l70 8q108 12 112 33l250 1180q1 6 -2 9t-16.5 6.5t-34 6t-62.5 7.5l-49 6l-2 12h932l19 -408h-15l-6 25q-25 81 -46.5 133t-54.5 100.5t-74 74.5t-101 41t-140 14h-118l-125 -592l92 2q152 8 221.5 45t114.5 137l14 33l14 -2l-100 -461l-14 2l4 33q5 47 -2 78
t-23.5 51t-53 32t-79.5 17.5t-115 9.5l-77 4l-132 -620l228 -11q81 1 150.5 21t123 52t103 82t86.5 101.5t77 120.5l19 27h10l-145 -422h-1059zM463 1325l358 404h15l190 -404h-16l-207 211h-6l-322 -211h-12z" />
    <glyph glyph-name="Edieresis" unicode="&#xcb;" horiz-adv-x="1230" 
d="M-47 0l6 12l70 8q108 12 112 33l250 1180q1 6 -2 9t-16.5 6.5t-34 6t-62.5 7.5l-49 6l-2 12h932l19 -408h-15l-6 25q-25 81 -46.5 133t-54.5 100.5t-74 74.5t-101 41t-140 14h-118l-125 -592l92 2q152 8 221.5 45t114.5 137l14 33l14 -2l-100 -461l-14 2l4 33q5 47 -2 78
t-23.5 51t-53 32t-79.5 17.5t-115 9.5l-77 4l-132 -620l228 -11q81 1 150.5 21t123 52t103 82t86.5 101.5t77 120.5l19 27h10l-145 -422h-1059zM948 1380q-52 0 -82 36t-30 77q0 43 30 81t82 38t82.5 -38t30.5 -81q0 -41 -30.5 -77t-82.5 -36zM565 1380q-52 0 -82 36t-30 77
q0 43 30 81t82 38t82.5 -38t30.5 -81q0 -41 -30.5 -77t-82.5 -36z" />
    <glyph glyph-name="Igrave" unicode="&#xcc;" horiz-adv-x="714" 
d="M-31 0l6 12l82 8q103 8 107 33l250 1180q1 6 -2.5 9t-15.5 6.5t-34.5 6.5t-62.5 7l-57 6l-2 12h591l-8 -12l-82 -8q-100 -11 -104 -33l-250 -1180q-1 -6 2 -9t15 -6.5t34 -6.5t62 -7l57 -6l2 -12h-590zM606 1348l-315 383h196l134 -383h-15z" />
    <glyph glyph-name="Iacute" unicode="&#xcd;" horiz-adv-x="714" 
d="M-31 0l6 12l82 8q103 8 107 33l250 1180q1 6 -2.5 9t-15.5 6.5t-34.5 6.5t-62.5 7l-57 6l-2 12h591l-8 -12l-82 -8q-100 -11 -104 -33l-250 -1180q-1 -6 2 -9t15 -6.5t34 -6.5t62 -7l57 -6l2 -12h-590zM442 1348l269 383h217l-473 -383h-13z" />
    <glyph glyph-name="Icircumflex" unicode="&#xce;" horiz-adv-x="714" 
d="M-31 0l6 12l82 8q103 8 107 33l250 1180q1 6 -2.5 9t-15.5 6.5t-34.5 6.5t-62.5 7l-57 6l-2 12h591l-8 -12l-82 -8q-100 -11 -104 -33l-250 -1180q-1 -6 2 -9t15 -6.5t34 -6.5t62 -7l57 -6l2 -12h-590zM252 1325l358 404h15l190 -404h-16l-207 211h-6l-322 -211h-12z" />
    <glyph glyph-name="Idieresis" unicode="&#xcf;" horiz-adv-x="714" 
d="M-31 0l6 12l82 8q103 8 107 33l250 1180q1 6 -2.5 9t-15.5 6.5t-34.5 6.5t-62.5 7l-57 6l-2 12h591l-8 -12l-82 -8q-100 -11 -104 -33l-250 -1180q-1 -6 2 -9t15 -6.5t34 -6.5t62 -7l57 -6l2 -12h-590zM754 1380q-52 0 -82.5 36t-30.5 77q0 43 30.5 81t82.5 38t82 -38
t30 -81q0 -41 -30 -77t-82 -36zM371 1380q-52 0 -82.5 36t-30.5 77q0 43 30.5 81t82.5 38t82 -38t30 -81q0 -41 -30 -77t-82 -36z" />
    <glyph glyph-name="Eth" unicode="&#xd0;" horiz-adv-x="1386" 
d="M264 631h-188l8 24h184l123 578q1 6 -2 9t-17 6.5t-34 6t-62 7.5l-49 6l-2 12l506 2q162 1 288 -39.5t204 -114t117.5 -170t39.5 -210.5q0 -149 -58.5 -284t-163.5 -238t-264 -164.5t-349 -61.5h-592l6 12l76 8q102 11 106 33zM492 655h288l4 -24h-299l-118 -568l135 -45
q122 0 226 41.5t178.5 114.5t127 171.5t78 213.5t25.5 240q0 99 -23.5 180.5t-72 145.5t-130 99.5t-190.5 35.5h-100z" />
    <glyph glyph-name="Ntilde" unicode="&#xd1;" horiz-adv-x="1363" 
d="M1034 -10l-628 1126h-5l-219 -1022q-7 -29 28 -49.5t128 -28.5l35 -4l2 -12h-434l8 12l39 4q75 6 118.5 30t49.5 56l225 1035q-32 51 -72 84t-106 41l-23 4l-2 14h410l510 -936h4l178 842q15 65 -154 78l-36 4l-3 12h435l-9 -12l-36 -4q-76 -6 -119 -29.5t-49 -56.5
l-258 -1188h-17zM1032 1360q-53 0 -124.5 32t-135 63.5t-98.5 31.5q-22 0 -33.5 -2t-26 -12t-25 -34t-18.5 -63h-16q32 135 69 185.5t113 50.5q41 0 94.5 -20t97 -43.5t89.5 -43.5t74 -20q22 0 34.5 3t27.5 13t25.5 33t18.5 61h16q-32 -135 -69 -185t-113 -50z" />
    <glyph glyph-name="Ograve" unicode="&#xd2;" horiz-adv-x="1503" 
d="M754 -27q-188 0 -335 85t-224.5 227t-77.5 313q0 133 53 260t145 227t229.5 161t295.5 61q188 0 335 -86t224.5 -229.5t77.5 -315.5q0 -186 -92 -346.5t-259.5 -258.5t-371.5 -98zM725 -6q143 0 265 124.5t189.5 315.5t67.5 393q0 206 -103 332.5t-280 126.5
q-92 0 -175.5 -52t-145 -138.5t-106.5 -196t-68 -227.5t-23 -230q0 -201 103.5 -324.5t275.5 -123.5zM942 1348l-315 383h196l133 -383h-14z" />
    <glyph glyph-name="Oacute" unicode="&#xd3;" horiz-adv-x="1503" 
d="M754 -27q-188 0 -335 85t-224.5 227t-77.5 313q0 133 53 260t145 227t229.5 161t295.5 61q188 0 335 -86t224.5 -229.5t77.5 -315.5q0 -186 -92 -346.5t-259.5 -258.5t-371.5 -98zM725 -6q143 0 265 124.5t189.5 315.5t67.5 393q0 206 -103 332.5t-280 126.5
q-92 0 -175.5 -52t-145 -138.5t-106.5 -196t-68 -227.5t-23 -230q0 -201 103.5 -324.5t275.5 -123.5zM813 1348l268 383h217l-473 -383h-12z" />
    <glyph glyph-name="Ocircumflex" unicode="&#xd4;" horiz-adv-x="1503" 
d="M754 -27q-188 0 -335 85t-224.5 227t-77.5 313q0 133 53 260t145 227t229.5 161t295.5 61q188 0 335 -86t224.5 -229.5t77.5 -315.5q0 -186 -92 -346.5t-259.5 -258.5t-371.5 -98zM725 -6q143 0 265 124.5t189.5 315.5t67.5 393q0 206 -103 332.5t-280 126.5
q-92 0 -175.5 -52t-145 -138.5t-106.5 -196t-68 -227.5t-23 -230q0 -201 103.5 -324.5t275.5 -123.5zM608 1325l359 404h14l190 -404h-16l-207 211h-6l-321 -211h-13z" />
    <glyph glyph-name="Otilde" unicode="&#xd5;" horiz-adv-x="1503" 
d="M754 -27q-188 0 -335 85t-224.5 227t-77.5 313q0 133 53 260t145 227t229.5 161t295.5 61q188 0 335 -86t224.5 -229.5t77.5 -315.5q0 -186 -92 -346.5t-259.5 -258.5t-371.5 -98zM725 -6q143 0 265 124.5t189.5 315.5t67.5 393q0 206 -103 332.5t-280 126.5
q-92 0 -175.5 -52t-145 -138.5t-106.5 -196t-68 -227.5t-23 -230q0 -201 103.5 -324.5t275.5 -123.5zM1073 1360q-53 0 -124.5 32t-135 63.5t-98.5 31.5q-22 0 -33.5 -2t-26 -12t-25 -34t-18.5 -63h-16q32 135 69 185.5t113 50.5q41 0 94.5 -20t97 -43.5t89.5 -43.5t74 -20
q22 0 34.5 3t27.5 13t25.5 33t18.5 61h16q-32 -135 -69 -185t-113 -50z" />
    <glyph glyph-name="Odieresis" unicode="&#xd6;" horiz-adv-x="1503" 
d="M754 -27q-188 0 -335 85t-224.5 227t-77.5 313q0 133 53 260t145 227t229.5 161t295.5 61q188 0 335 -86t224.5 -229.5t77.5 -315.5q0 -186 -92 -346.5t-259.5 -258.5t-371.5 -98zM725 -6q143 0 265 124.5t189.5 315.5t67.5 393q0 206 -103 332.5t-280 126.5
q-92 0 -175.5 -52t-145 -138.5t-106.5 -196t-68 -227.5t-23 -230q0 -201 103.5 -324.5t275.5 -123.5zM1114 1380q-52 0 -82.5 36t-30.5 77q0 43 30.5 81t82.5 38t82.5 -38t30.5 -81q0 -41 -30.5 -77t-82.5 -36zM731 1380q-52 0 -82.5 36t-30.5 77q0 43 30.5 81t82.5 38
t82.5 -38t30.5 -81q0 -41 -30.5 -77t-82.5 -36z" />
    <glyph glyph-name="multiply" unicode="&#xd7;" horiz-adv-x="886" 
d="M807 115l-354 354l-355 -354l-16 16l354 354l-354 355l16 16l355 -354l354 354l16 -16l-354 -355l354 -354z" />
    <glyph glyph-name="Oslash" unicode="&#xd8;" horiz-adv-x="1503" 
d="M1237 1180q114 -90 177 -221t63 -283q0 -186 -92 -346.5t-259.5 -258.5t-371.5 -98q-215 0 -377 111q1 0 -44.5 -58.5t-91.5 -117.5l-46 -58h-27l192 246q-115 85 -179 217t-64 285q0 133 53 260t145 227t229.5 161t295.5 61q219 0 379 -115l174 219h26zM416 166l751 958
q-48 76 -126.5 118t-178.5 42q-114 0 -213.5 -79.5t-164 -204t-101.5 -272t-37 -288.5q0 -159 70 -274zM1180 1106l-752 -959q103 -153 299 -153q108 0 206 73.5t166 191.5t108 268t40 300q0 166 -67 279z" />
    <glyph glyph-name="Ugrave" unicode="&#xd9;" horiz-adv-x="1398" 
d="M727 -33q-155 0 -270 36.5t-183.5 116t-68.5 195.5q0 82 22 189q10 46 26 122t50 236t56.5 266t21.5 105q1 8 -5 12.5t-30.5 8.5t-75.5 8l-73 6l-2 12h620l-8 -12l-96 -8q-101 -8 -105 -33l-149 -711q-23 -98 -23 -176q0 -301 361 -301q152 0 244.5 95.5t134.5 299.5
l159 752q7 29 -27.5 49.5t-125.5 30.5l-37 2l-4 12h436l-8 -12l-39 -2q-75 -7 -117.5 -31t-48.5 -57l-162 -752q-50 -230 -159.5 -344.5t-313.5 -114.5zM997 1348l-315 383h197l133 -383h-15z" />
    <glyph glyph-name="Uacute" unicode="&#xda;" horiz-adv-x="1398" 
d="M727 -33q-155 0 -270 36.5t-183.5 116t-68.5 195.5q0 82 22 189q10 46 26 122t50 236t56.5 266t21.5 105q1 8 -5 12.5t-30.5 8.5t-75.5 8l-73 6l-2 12h620l-8 -12l-96 -8q-101 -8 -105 -33l-149 -711q-23 -98 -23 -176q0 -301 361 -301q152 0 244.5 95.5t134.5 299.5
l159 752q7 29 -27.5 49.5t-125.5 30.5l-37 2l-4 12h436l-8 -12l-39 -2q-75 -7 -117.5 -31t-48.5 -57l-162 -752q-50 -230 -159.5 -344.5t-313.5 -114.5zM850 1348l268 383h217l-473 -383h-12z" />
    <glyph glyph-name="Ucircumflex" unicode="&#xdb;" horiz-adv-x="1398" 
d="M727 -33q-155 0 -270 36.5t-183.5 116t-68.5 195.5q0 82 22 189q10 46 26 122t50 236t56.5 266t21.5 105q1 8 -5 12.5t-30.5 8.5t-75.5 8l-73 6l-2 12h620l-8 -12l-96 -8q-101 -8 -105 -33l-149 -711q-23 -98 -23 -176q0 -301 361 -301q152 0 244.5 95.5t134.5 299.5
l159 752q7 29 -27.5 49.5t-125.5 30.5l-37 2l-4 12h436l-8 -12l-39 -2q-75 -7 -117.5 -31t-48.5 -57l-162 -752q-50 -230 -159.5 -344.5t-313.5 -114.5zM647 1325l359 404h14l190 -404h-16l-207 211h-6l-322 -211h-12z" />
    <glyph glyph-name="Udieresis" unicode="&#xdc;" horiz-adv-x="1398" 
d="M727 -33q-155 0 -270 36.5t-183.5 116t-68.5 195.5q0 82 22 189q10 46 26 122t50 236t56.5 266t21.5 105q1 8 -5 12.5t-30.5 8.5t-75.5 8l-73 6l-2 12h620l-8 -12l-96 -8q-101 -8 -105 -33l-149 -711q-23 -98 -23 -176q0 -301 361 -301q152 0 244.5 95.5t134.5 299.5
l159 752q7 29 -27.5 49.5t-125.5 30.5l-37 2l-4 12h436l-8 -12l-39 -2q-75 -7 -117.5 -31t-48.5 -57l-162 -752q-50 -230 -159.5 -344.5t-313.5 -114.5zM1133 1380q-52 0 -82.5 36t-30.5 77q0 43 30.5 81t82.5 38t82 -38t30 -81q0 -41 -30 -77t-82 -36zM750 1380
q-52 0 -82.5 36t-30.5 77q0 43 30.5 81t82.5 38t82 -38t30 -81q0 -41 -30 -77t-82 -36z" />
    <glyph glyph-name="Yacute" unicode="&#xdd;" horiz-adv-x="1302" 
d="M248 0l6 12l98 8q50 4 76.5 13.5t28.5 19.5l112 525l-178 514q-34 99 -65 132.5t-97 39.5l-49 4l-2 12h600l-8 -12l-39 -2q-96 -6 -117 -40t9 -110l161 -483h4l234 311q124 173 145 210q32 58 6 79q-21 18 -114 29l-45 6l-2 12h448l-8 -12l-55 -6q-72 -9 -139 -70.5
t-209 -251.5l-252 -338l-117 -555q-1 -8 5.5 -12.5t32 -8.5t77.5 -8l71 -6l2 -12h-620zM791 1348l268 383h217l-473 -383h-12z" />
    <glyph glyph-name="Thorn" unicode="&#xde;" horiz-adv-x="1169" 
d="M-63 0l8 14l96 9q102 8 106 32l248 1176q1 8 -5 12.5t-31 8.5t-76 8l-72 6l-2 14h620l-8 -14l-96 -9q-99 -8 -107 -32l-43 -207l164 -2q212 0 325.5 -85.5t113.5 -217.5q0 -160 -138.5 -265.5t-361.5 -105.5q-101 0 -240 33l-67 -326q-1 -8 5 -12.5t31.5 -9t75.5 -7.5
l92 -6l3 -14h-641zM618 369q98 0 173 58t111 146.5t36 190.5q0 104 -52.5 164.5t-158.5 64.5h-158l-125 -590q91 -34 174 -34z" />
    <glyph glyph-name="germandbls" unicode="&#xdf;" horiz-adv-x="1028" 
d="M702 854q113 -76 194 -207.5t81 -261.5q0 -104 -48 -198.5t-132 -153t-181 -58.5q-98 0 -164.5 56.5t-66.5 124.5q0 56 36.5 92.5t88.5 36.5q66 0 95 -53t-1 -105.5t-108 -50.5q8 -25 41 -53.5t77 -28.5q83 0 132 88t49 221q0 134 -72.5 274t-210.5 250l2 13
q156 12 233.5 88.5t77.5 228.5q0 76 -33 127t-100 51q-21 0 -38 -3.5t-33 -14.5t-28 -20.5t-24.5 -31.5t-21.5 -38.5t-20 -50t-18 -56.5t-18.5 -68.5t-18.5 -75t-20 -86.5q0 -2 -0.5 -3t-1 -3t-1 -3.5t-0.5 -3.5l-142 -623q-47 -206 -98.5 -331t-130.5 -204
q-84 -88 -228 -88q-76 0 -126 35.5t-50 93.5q0 40 31.5 74.5t79.5 34.5q39 0 70.5 -29.5t36 -72.5t-30.5 -91q24 -20 49 -20q42 0 75 53.5t69.5 185t88.5 384.5l103 512l-174 4l37 82l161 2q64 250 167 363.5t263 113.5q144 0 221.5 -68.5t77.5 -177.5q0 -105 -83.5 -170.5
t-213.5 -85.5z" />
    <glyph glyph-name="agrave" unicode="&#xe0;" horiz-adv-x="958" 
d="M653 -25q-34 0 -105 39.5t-71 63.5q0 71 94 309h-4q-17 -27 -48 -77q-42 -68 -62 -99.5t-52 -79t-52 -68.5t-46.5 -45t-50.5 -32.5t-51 -8.5q-78 0 -132.5 57t-54.5 146q0 144 85 293.5t210 274.5q69 70 139.5 107.5t129.5 37.5q53 0 72.5 -50.5t13.5 -170.5h4l86 225
l186 -8l-168 -436l-117 -357l111 -12l133 215l12 -6q-72 -153 -143 -235.5t-119 -82.5zM299 102q100 0 281 363q59 116 59 168q0 66 -47 115t-107 49q-46 0 -88 -39q-68 -69 -125 -230t-57 -282q0 -69 23 -106.5t61 -37.5zM688 1006l-315 383h196l133 -383h-14z" />
    <glyph glyph-name="aacute" unicode="&#xe1;" horiz-adv-x="958" 
d="M653 -25q-34 0 -105 39.5t-71 63.5q0 71 94 309h-4q-17 -27 -48 -77q-42 -68 -62 -99.5t-52 -79t-52 -68.5t-46.5 -45t-50.5 -32.5t-51 -8.5q-78 0 -132.5 57t-54.5 146q0 144 85 293.5t210 274.5q69 70 139.5 107.5t129.5 37.5q53 0 72.5 -50.5t13.5 -170.5h4l86 225
l186 -8l-168 -436l-117 -357l111 -12l133 215l12 -6q-72 -153 -143 -235.5t-119 -82.5zM299 102q100 0 281 363q59 116 59 168q0 66 -47 115t-107 49q-46 0 -88 -39q-68 -69 -125 -230t-57 -282q0 -69 23 -106.5t61 -37.5zM520 1006l268 383h218l-474 -383h-12z" />
    <glyph glyph-name="acircumflex" unicode="&#xe2;" horiz-adv-x="958" 
d="M653 -25q-34 0 -105 39.5t-71 63.5q0 71 94 309h-4q-17 -27 -48 -77q-42 -68 -62 -99.5t-52 -79t-52 -68.5t-46.5 -45t-50.5 -32.5t-51 -8.5q-78 0 -132.5 57t-54.5 146q0 144 85 293.5t210 274.5q69 70 139.5 107.5t129.5 37.5q53 0 72.5 -50.5t13.5 -170.5h4l86 225
l186 -8l-168 -436l-117 -357l111 -12l133 215l12 -6q-72 -153 -143 -235.5t-119 -82.5zM299 102q100 0 281 363q59 116 59 168q0 66 -47 115t-107 49q-46 0 -88 -39q-68 -69 -125 -230t-57 -282q0 -69 23 -106.5t61 -37.5zM297 983l358 403h15l190 -403h-16l-207 211h-6
l-322 -211h-12z" />
    <glyph glyph-name="atilde" unicode="&#xe3;" horiz-adv-x="958" 
d="M653 -25q-34 0 -105 39.5t-71 63.5q0 71 94 309h-4q-17 -27 -48 -77q-42 -68 -62 -99.5t-52 -79t-52 -68.5t-46.5 -45t-50.5 -32.5t-51 -8.5q-78 0 -132.5 57t-54.5 146q0 144 85 293.5t210 274.5q69 70 139.5 107.5t129.5 37.5q53 0 72.5 -50.5t13.5 -170.5h4l86 225
l186 -8l-168 -436l-117 -357l111 -12l133 215l12 -6q-72 -153 -143 -235.5t-119 -82.5zM299 102q100 0 281 363q59 116 59 168q0 66 -47 115t-107 49q-46 0 -88 -39q-68 -69 -125 -230t-57 -282q0 -69 23 -106.5t61 -37.5zM815 1018q-53 0 -124.5 32t-135 63.5t-98.5 31.5
q-22 0 -33.5 -2t-26 -12t-25 -34t-18.5 -63h-16q32 135 69 185.5t113 50.5q51 0 122 -32t134.5 -63.5t97.5 -31.5q22 0 35 3t28 13t25.5 33t18.5 61h16q-32 -135 -69 -185t-113 -50z" />
    <glyph glyph-name="adieresis" unicode="&#xe4;" horiz-adv-x="958" 
d="M653 -25q-34 0 -105 39.5t-71 63.5q0 71 94 309h-4q-17 -27 -48 -77q-42 -68 -62 -99.5t-52 -79t-52 -68.5t-46.5 -45t-50.5 -32.5t-51 -8.5q-78 0 -132.5 57t-54.5 146q0 144 85 293.5t210 274.5q69 70 139.5 107.5t129.5 37.5q53 0 72.5 -50.5t13.5 -170.5h4l86 225
l186 -8l-168 -436l-117 -357l111 -12l133 215l12 -6q-72 -153 -143 -235.5t-119 -82.5zM299 102q100 0 281 363q59 116 59 168q0 66 -47 115t-107 49q-46 0 -88 -39q-68 -69 -125 -230t-57 -282q0 -69 23 -106.5t61 -37.5zM815 1038q-52 0 -82.5 36t-30.5 77q0 43 30.5 81
t82.5 38t82.5 -38t30.5 -81q0 -41 -30.5 -77t-82.5 -36zM432 1038q-52 0 -82.5 36t-30.5 77q0 43 30.5 81t82.5 38t82.5 -38t30.5 -81q0 -41 -30.5 -77t-82.5 -36z" />
    <glyph glyph-name="aring" unicode="&#xe5;" horiz-adv-x="958" 
d="M631 1020q-82 0 -132 53t-50 131q0 77 50 131t132 54t132 -54t50 -131q0 -78 -50 -131t-132 -53zM653 -25q-34 0 -105 39.5t-71 63.5q0 71 94 309h-4q-17 -27 -48 -77q-42 -68 -62 -99.5t-52 -79t-52 -68.5t-46.5 -45t-50.5 -32.5t-51 -8.5q-78 0 -132.5 57t-54.5 146
q0 144 85 293.5t210 274.5q69 70 139.5 107.5t129.5 37.5q53 0 72.5 -50.5t13.5 -170.5h4l86 225l186 -8l-168 -436l-117 -357l111 -12l133 215l12 -6q-72 -153 -143 -235.5t-119 -82.5zM631 1038q73 0 117.5 48t44.5 118q0 69 -44.5 117.5t-117.5 48.5t-117.5 -48.5
t-44.5 -117.5q0 -70 44.5 -118t117.5 -48zM299 102q100 0 281 363q59 116 59 168q0 66 -47 115t-107 49q-46 0 -88 -39q-68 -69 -125 -230t-57 -282q0 -69 23 -106.5t61 -37.5z" />
    <glyph glyph-name="ae" unicode="&#xe6;" horiz-adv-x="1284" 
d="M205 -25q-79 0 -133 57.5t-54 147.5q0 144 85 293.5t210 274.5q150 153 265 153t118 -223q77 103 177 164t206 61q100 0 160.5 -46t60.5 -118q0 -100 -126 -162t-396 -106q-24 -98 -24 -172q0 -105 40 -157t124 -52q76 0 136.5 46t133.5 167l14 -6q-78 -146 -176.5 -233
t-206.5 -87q-116 0 -192 84t-76 207q0 61 4 90q-130 -209 -179 -270q-93 -109 -171 -113zM786 487q182 40 262 103.5t80 171.5q0 115 -77 115q-46 0 -105 -56q-48 -50 -93 -141t-71 -191zM297 100q101 0 283 365q59 116 59 168q0 66 -47 115t-107 49q-46 0 -88 -39
q-68 -69 -125 -230t-57 -282q0 -69 22.5 -107.5t59.5 -38.5z" />
    <glyph glyph-name="ccedilla" unicode="&#xe7;" horiz-adv-x="727" 
d="M270 -25q-109 4 -180.5 88.5t-71.5 204.5q0 107 44.5 221t116.5 205t173.5 150t206.5 59q81 0 144 -44t63 -111q0 -53 -34.5 -91.5t-80.5 -38.5q-42 0 -76 28.5t-34 66.5q0 37 23.5 71.5t58.5 49.5q-7 5 -20 18.5t-26 20t-32 6.5q-54 0 -133 -72q-77 -80 -133 -226.5
t-56 -279.5q0 -211 150 -211q76 0 130.5 44.5t127.5 168.5l16 -6q-167 -309 -350 -322l-121 -108q119 10 200 -36t81 -120q0 -225 -484 -233v10q185 13 265.5 55.5t80.5 116.5q0 39 -28 64t-66.5 34t-87.5 9q-35 0 -106 -13l4 17z" />
    <glyph glyph-name="egrave" unicode="&#xe8;" horiz-adv-x="753" 
d="M287 -25q-116 0 -192.5 85t-76.5 208q0 145 75 292.5t199.5 245t254.5 97.5q98 0 159.5 -44.5t61.5 -117.5q0 -100 -130.5 -165.5t-391.5 -104.5q-23 -94 -23 -172q0 -209 164 -209q77 0 136.5 46t131.5 167l17 -6q-78 -146 -177.5 -234t-207.5 -88zM254 487
q174 36 259 102t85 173q0 115 -76 115q-46 0 -102 -56q-49 -49 -95.5 -140t-74.5 -192zM557 1006l-315 383h196l133 -383h-14z" />
    <glyph glyph-name="eacute" unicode="&#xe9;" horiz-adv-x="753" 
d="M287 -25q-116 0 -192.5 85t-76.5 208q0 145 75 292.5t199.5 245t254.5 97.5q98 0 159.5 -44.5t61.5 -117.5q0 -100 -130.5 -165.5t-391.5 -104.5q-23 -94 -23 -172q0 -209 164 -209q77 0 136.5 46t131.5 167l17 -6q-78 -146 -177.5 -234t-207.5 -88zM254 487
q174 36 259 102t85 173q0 115 -76 115q-46 0 -102 -56q-49 -49 -95.5 -140t-74.5 -192zM463 1006l268 383h217l-473 -383h-12z" />
    <glyph glyph-name="ecircumflex" unicode="&#xea;" horiz-adv-x="753" 
d="M287 -25q-116 0 -192.5 85t-76.5 208q0 145 75 292.5t199.5 245t254.5 97.5q98 0 159.5 -44.5t61.5 -117.5q0 -100 -130.5 -165.5t-391.5 -104.5q-23 -94 -23 -172q0 -209 164 -209q77 0 136.5 46t131.5 167l17 -6q-78 -146 -177.5 -234t-207.5 -88zM254 487
q174 36 259 102t85 173q0 115 -76 115q-46 0 -102 -56q-49 -49 -95.5 -140t-74.5 -192zM240 983l358 403h14l191 -403h-17l-206 211h-7l-321 -211h-12z" />
    <glyph glyph-name="edieresis" unicode="&#xeb;" horiz-adv-x="753" 
d="M287 -25q-116 0 -192.5 85t-76.5 208q0 145 75 292.5t199.5 245t254.5 97.5q98 0 159.5 -44.5t61.5 -117.5q0 -100 -130.5 -165.5t-391.5 -104.5q-23 -94 -23 -172q0 -209 164 -209q77 0 136.5 46t131.5 167l17 -6q-78 -146 -177.5 -234t-207.5 -88zM254 487
q174 36 259 102t85 173q0 115 -76 115q-46 0 -102 -56q-49 -49 -95.5 -140t-74.5 -192zM731 1038q-52 0 -82.5 36t-30.5 77q0 43 30.5 81t82.5 38t82.5 -38t30.5 -81q0 -41 -30.5 -77t-82.5 -36zM348 1038q-52 0 -82 36t-30 77q0 43 30 81t82 38t82.5 -38t30.5 -81
q0 -41 -30.5 -77t-82.5 -36z" />
    <glyph glyph-name="igrave" unicode="&#xec;" horiz-adv-x="532" 
d="M215 -25q-34 0 -103 35.5t-69 59.5q0 19 55.5 168t123.5 324.5t83 219.5l-129 9l-131 -211l-12 6q73 152 152.5 234.5t144.5 82.5q42 0 93.5 -47t51.5 -94q0 -31 -51 -166.5t-117 -297.5t-80 -200l119 -14l137 213l13 -6q-72 -148 -151.5 -232t-129.5 -84zM430 1006
l-315 383h196l133 -383h-14z" />
    <glyph glyph-name="iacute" unicode="&#xed;" horiz-adv-x="532" 
d="M215 -25q-34 0 -103 35.5t-69 59.5q0 19 55.5 168t123.5 324.5t83 219.5l-129 9l-131 -211l-12 6q73 152 152.5 234.5t144.5 82.5q42 0 93.5 -47t51.5 -94q0 -31 -51 -166.5t-117 -297.5t-80 -200l119 -14l137 213l13 -6q-72 -148 -151.5 -232t-129.5 -84zM307 1006
l268 383h218l-474 -383h-12z" />
    <glyph glyph-name="icircumflex" unicode="&#xee;" horiz-adv-x="532" 
d="M125 989l336 400h14l172 -400h-16l-197 209h-6l-291 -209h-12zM215 -25q-34 0 -103 35.5t-69 59.5q0 19 55.5 168t123.5 324.5t83 219.5l-129 9l-131 -211l-12 6q73 152 152.5 234.5t144.5 82.5q42 0 93.5 -47t51.5 -94q0 -31 -51 -166.5t-117 -297.5t-80 -200l119 -14
l137 213l13 -6q-72 -148 -151.5 -232t-129.5 -84z" />
    <glyph glyph-name="idieresis" unicode="&#xef;" horiz-adv-x="532" 
d="M215 -25q-34 0 -103 35.5t-69 59.5q0 19 55.5 168t123.5 324.5t83 219.5l-129 9l-131 -211l-12 6q73 152 152.5 234.5t144.5 82.5q42 0 93.5 -47t51.5 -94q0 -31 -51 -166.5t-117 -297.5t-80 -200l119 -14l137 213l13 -6q-72 -148 -151.5 -232t-129.5 -84zM633 1038
q-52 0 -82.5 36t-30.5 77q0 43 30.5 81t82.5 38t82 -38t30 -81q0 -41 -30 -77t-82 -36zM250 1038q-52 0 -82.5 36t-30.5 77q0 43 30.5 81t82.5 38t82 -38t30 -81q0 -41 -30 -77t-82 -36z" />
    <glyph glyph-name="eth" unicode="&#xf0;" horiz-adv-x="847" 
d="M455 1135l-246 -68l8 25l223 61q-78 96 -170 143l6 15q148 -38 261 -131l241 67l-2 -24q-217 -60 -219 -60q120 -103 186 -251.5t66 -317.5q0 -114 -42 -228t-108 -199.5t-153 -138.5t-172 -53q-129 0 -215 110t-86 269q0 124 69 251.5t176 209.5t211 82q58 0 103 -25
q-51 151 -137 263zM303 2q80 0 154.5 94t124.5 252q24 75 36.5 165.5t12.5 154.5q0 95 -29 147.5t-74 52.5q-62 0 -141.5 -114t-132.5 -277q-47 -145 -47 -287q0 -87 26 -137.5t70 -50.5z" />
    <glyph glyph-name="ntilde" unicode="&#xf1;" horiz-adv-x="1015" 
d="M700 -25q-34 0 -101 38.5t-67 64.5q0 9 7 32t23.5 65t30 76.5t39.5 99t40 98.5q14 36 42.5 104t42 105t13.5 51q0 25 -32.5 47t-65.5 22q-45 0 -149.5 -156.5t-233.5 -433.5l-74 -194l-192 10l116 338l131 442l-100 9l-131 -213l-12 6q71 153 147 236t137 83
q33 0 86.5 -50.5t53.5 -96.5q0 -44 -41.5 -174.5t-104.5 -282.5l8 -4q90 176 181 325t143 201q34 34 77 56t74 22q68 0 120.5 -39.5t52.5 -83.5q0 -74 -103 -329l-141 -353l106 -12l138 215l12 -6q-72 -150 -148.5 -234t-124.5 -84zM805 1018q-53 0 -124.5 32t-135.5 63.5
t-99 31.5q-22 0 -33.5 -2t-26 -12t-24.5 -33.5t-18 -63.5h-16q32 135 69 185.5t113 50.5q51 0 122 -32t134.5 -63.5t97.5 -31.5q22 0 35 3t28 13t25.5 33t18.5 61h16q-32 -135 -69 -185t-113 -50z" />
    <glyph glyph-name="ograve" unicode="&#xf2;" horiz-adv-x="837" 
d="M334 -25q-129 0 -215 110t-86 269q0 124 69 252t176 210.5t211 82.5q129 0 221.5 -111.5t92.5 -269.5q0 -94 -42 -193t-107.5 -175.5t-151.5 -125.5t-168 -49zM303 2q80 0 150.5 93.5t121.5 254.5q24 73 37 163.5t13 154.5q0 97 -26.5 149.5t-70.5 52.5
q-63 0 -142 -114.5t-132 -278.5q-47 -145 -47 -287q0 -87 26 -137.5t70 -50.5zM616 1006l-315 383h197l133 -383h-15z" />
    <glyph glyph-name="oacute" unicode="&#xf3;" horiz-adv-x="837" 
d="M334 -25q-129 0 -215 110t-86 269q0 124 69 252t176 210.5t211 82.5q129 0 221.5 -111.5t92.5 -269.5q0 -94 -42 -193t-107.5 -175.5t-151.5 -125.5t-168 -49zM303 2q80 0 150.5 93.5t121.5 254.5q24 73 37 163.5t13 154.5q0 97 -26.5 149.5t-70.5 52.5
q-63 0 -142 -114.5t-132 -278.5q-47 -145 -47 -287q0 -87 26 -137.5t70 -50.5zM467 1006l268 383h217l-473 -383h-12z" />
    <glyph glyph-name="ocircumflex" unicode="&#xf4;" horiz-adv-x="837" 
d="M334 -25q-129 0 -215 110t-86 269q0 124 69 252t176 210.5t211 82.5q129 0 221.5 -111.5t92.5 -269.5q0 -94 -42 -193t-107.5 -175.5t-151.5 -125.5t-168 -49zM303 2q80 0 150.5 93.5t121.5 254.5q24 73 37 163.5t13 154.5q0 97 -26.5 149.5t-70.5 52.5
q-63 0 -142 -114.5t-132 -278.5q-47 -145 -47 -287q0 -87 26 -137.5t70 -50.5zM264 983l359 403h14l190 -403h-16l-207 211h-6l-322 -211h-12z" />
    <glyph glyph-name="otilde" unicode="&#xf5;" horiz-adv-x="837" 
d="M334 -25q-129 0 -215 110t-86 269q0 124 69 252t176 210.5t211 82.5q129 0 221.5 -111.5t92.5 -269.5q0 -94 -42 -193t-107.5 -175.5t-151.5 -125.5t-168 -49zM303 2q80 0 150.5 93.5t121.5 254.5q24 73 37 163.5t13 154.5q0 97 -26.5 149.5t-70.5 52.5
q-63 0 -142 -114.5t-132 -278.5q-47 -145 -47 -287q0 -87 26 -137.5t70 -50.5zM733 1018q-53 0 -124.5 32t-135 63.5t-98.5 31.5q-22 0 -33.5 -2t-26 -12t-25 -34t-18.5 -63h-16q32 135 69 185.5t113 50.5q41 0 94.5 -20t97 -43.5t89.5 -43.5t74 -20q22 0 34.5 3t27.5 13
t25.5 33t18.5 61h16q-32 -135 -69 -185t-113 -50z" />
    <glyph glyph-name="odieresis" unicode="&#xf6;" horiz-adv-x="837" 
d="M334 -25q-129 0 -215 110t-86 269q0 124 69 252t176 210.5t211 82.5q129 0 221.5 -111.5t92.5 -269.5q0 -94 -42 -193t-107.5 -175.5t-151.5 -125.5t-168 -49zM303 2q80 0 150.5 93.5t121.5 254.5q24 73 37 163.5t13 154.5q0 97 -26.5 149.5t-70.5 52.5
q-63 0 -142 -114.5t-132 -278.5q-47 -145 -47 -287q0 -87 26 -137.5t70 -50.5zM772 1038q-52 0 -82.5 36t-30.5 77q0 43 30.5 81t82.5 38t82.5 -38t30.5 -81q0 -41 -30.5 -77t-82.5 -36zM389 1038q-52 0 -82.5 36t-30.5 77q0 43 30.5 81t82.5 38t82.5 -38t30.5 -81
q0 -41 -30.5 -77t-82.5 -36z" />
    <glyph glyph-name="divide" unicode="&#xf7;" horiz-adv-x="886" 
d="M549 774q0 -40 -28 -70t-70 -30t-71.5 30.5t-29.5 69.5q0 37 29.5 65.5t71.5 28.5t70 -28t28 -66zM860 473h-817l4 25h809zM549 195q0 -39 -28 -69t-70 -30t-71.5 30t-29.5 69q0 37 29.5 65.5t71.5 28.5t70 -28t28 -66z" />
    <glyph glyph-name="oslash" unicode="&#xf8;" horiz-adv-x="837" 
d="M709 786q94 -112 94 -268q0 -127 -69.5 -253.5t-179.5 -207t-220 -80.5q-112 0 -193 84l-254 -323h-26l266 340q-94 108 -94 274q0 125 69 253t176 210t211 82q117 0 205 -94l291 368h27q-301 -385 -303 -385zM625 678l-416 -531q6 -68 31 -106.5t63 -38.5q80 0 150.5 93
t121.5 253q24 75 37 166t13 154v10zM207 180l416 531q-4 75 -30 116t-65 41q-62 0 -141.5 -114t-132.5 -277q-47 -145 -47 -287v-10z" />
    <glyph glyph-name="ugrave" unicode="&#xf9;" horiz-adv-x="1015" 
d="M705 -27q-33 0 -85.5 50t-52.5 96q0 45 40 179t102 282l-7 4q-95 -185 -182.5 -332.5t-138.5 -196.5q-33 -33 -77 -55.5t-75 -22.5q-68 0 -120 39t-52 82q0 82 101 332l139 354l-107 9l-135 -213l-12 6q72 149 149 233t125 84q32 0 100 -38.5t68 -63.5q-1 -9 -8.5 -33.5
t-22.5 -64t-30.5 -77.5t-38.5 -96.5t-39 -99.5q-15 -38 -42.5 -105.5t-41.5 -105t-14 -51.5q0 -24 32.5 -46t65.5 -22q44 0 148 156.5t235 431.5l74 197l190 -11l-116 -337l-134 -443l101 -10l133 213l12 -6q-71 -153 -147 -235.5t-137 -82.5zM707 1006l-316 383h197
l133 -383h-14z" />
    <glyph glyph-name="uacute" unicode="&#xfa;" horiz-adv-x="1015" 
d="M705 -27q-33 0 -85.5 50t-52.5 96q0 45 40 179t102 282l-7 4q-95 -185 -182.5 -332.5t-138.5 -196.5q-33 -33 -77 -55.5t-75 -22.5q-68 0 -120 39t-52 82q0 82 101 332l139 354l-107 9l-135 -213l-12 6q72 149 149 233t125 84q32 0 100 -38.5t68 -63.5q-1 -9 -8.5 -33.5
t-22.5 -64t-30.5 -77.5t-38.5 -96.5t-39 -99.5q-15 -38 -42.5 -105.5t-41.5 -105t-14 -51.5q0 -24 32.5 -46t65.5 -22q44 0 148 156.5t235 431.5l74 197l190 -11l-116 -337l-134 -443l101 -10l133 213l12 -6q-71 -153 -147 -235.5t-137 -82.5zM565 1006l269 383h217
l-473 -383h-13z" />
    <glyph glyph-name="ucircumflex" unicode="&#xfb;" horiz-adv-x="1015" 
d="M705 -27q-33 0 -85.5 50t-52.5 96q0 45 40 179t102 282l-7 4q-95 -185 -182.5 -332.5t-138.5 -196.5q-33 -33 -77 -55.5t-75 -22.5q-68 0 -120 39t-52 82q0 82 101 332l139 354l-107 9l-135 -213l-12 6q72 149 149 233t125 84q32 0 100 -38.5t68 -63.5q-1 -9 -8.5 -33.5
t-22.5 -64t-30.5 -77.5t-38.5 -96.5t-39 -99.5q-15 -38 -42.5 -105.5t-41.5 -105t-14 -51.5q0 -24 32.5 -46t65.5 -22q44 0 148 156.5t235 431.5l74 197l190 -11l-116 -337l-134 -443l101 -10l133 213l12 -6q-71 -153 -147 -235.5t-137 -82.5zM367 983l358 403h14l191 -403
h-17l-206 211h-7l-321 -211h-12z" />
    <glyph glyph-name="udieresis" unicode="&#xfc;" horiz-adv-x="1015" 
d="M705 -27q-33 0 -85.5 50t-52.5 96q0 45 40 179t102 282l-7 4q-95 -185 -182.5 -332.5t-138.5 -196.5q-33 -33 -77 -55.5t-75 -22.5q-68 0 -120 39t-52 82q0 82 101 332l139 354l-107 9l-135 -213l-12 6q72 149 149 233t125 84q32 0 100 -38.5t68 -63.5q-1 -9 -8.5 -33.5
t-22.5 -64t-30.5 -77.5t-38.5 -96.5t-39 -99.5q-15 -38 -42.5 -105.5t-41.5 -105t-14 -51.5q0 -24 32.5 -46t65.5 -22q44 0 148 156.5t235 431.5l74 197l190 -11l-116 -337l-134 -443l101 -10l133 213l12 -6q-71 -153 -147 -235.5t-137 -82.5zM874 1038q-52 0 -82 36t-30 77
q0 43 30 81t82 38t82.5 -38t30.5 -81q0 -41 -30.5 -77t-82.5 -36zM492 1038q-52 0 -82.5 36t-30.5 77q0 43 30.5 81t82.5 38t82 -38t30 -81q0 -41 -30 -77t-82 -36z" />
    <glyph glyph-name="yacute" unicode="&#xfd;" horiz-adv-x="884" 
d="M-86 -373q-93 0 -139.5 38t-46.5 102q0 45 33.5 75.5t78.5 30.5q42 0 72 -26.5t34 -68.5t-26 -93l78 -25q177 38 371 236q4 489 -37.5 698t-138.5 209h-29l-123 -223l-14 6q79 170 103 209q51 84 115 102q22 6 50 6q93 0 148 -76.5t79.5 -255.5t18.5 -483l4 -2
q114 171 182.5 341t75.5 314q-51 -42 -95.5 -38t-75 34t-32.5 66q-2 46 27.5 78t81.5 32q51 0 88 -40.5t37 -114.5q0 -199 -128.5 -448.5t-318.5 -434.5q-114 -114 -238 -181t-235 -67zM532 1006l269 383h217l-473 -383h-13z" />
    <glyph glyph-name="thorn" unicode="&#xfe;" horiz-adv-x="878" 
d="M-291 -518l6 12l39 2q52 3 69 8t21 21l516 1730q5 17 2.5 32.5t-12.5 15.5l-164 6l4 12l398 35l-41 -131q-64 -208 -117 -369.5t-94 -278.5t-51 -149q-6 -18 -3 -19t11 13q113 260 204 369.5t181 109.5q85 0 132.5 -80t47.5 -205q0 -114 -45.5 -231t-118.5 -206.5
t-169 -146.5t-191 -57q-45 0 -80.5 24.5t-56.5 68.5h-4l-164 -547q-2 -7 7 -12t35 -8.5t72 -4.5l64 -2l2 -12h-500zM334 -6q54 0 121 67q81 81 147 254.5t66 294.5q0 92 -23 130t-70 38q-122 0 -292 -432q-70 -169 -70 -227q0 -46 37 -85.5t84 -39.5z" />
    <glyph glyph-name="ydieresis" unicode="&#xff;" horiz-adv-x="884" 
d="M-86 -373q-93 0 -139.5 38t-46.5 102q0 45 33.5 75.5t78.5 30.5q42 0 72 -26.5t34 -68.5t-26 -93l78 -25q177 38 371 236q4 489 -37.5 698t-138.5 209h-29l-123 -223l-14 6q79 170 103 209q51 84 115 102q22 6 50 6q93 0 148 -76.5t79.5 -255.5t18.5 -483l4 -2
q114 171 182.5 341t75.5 314q-51 -42 -95.5 -38t-75 34t-32.5 66q-2 46 27.5 78t81.5 32q51 0 88 -40.5t37 -114.5q0 -199 -128.5 -448.5t-318.5 -434.5q-114 -114 -238 -181t-235 -67zM813 1038q-52 0 -82.5 36t-30.5 77q0 43 30.5 81t82.5 38t82.5 -38t30.5 -81
q0 -41 -30.5 -77t-82.5 -36zM430 1038q-52 0 -82.5 36t-30.5 77q0 43 30.5 81t82.5 38t82.5 -38t30.5 -81q0 -41 -30.5 -77t-82.5 -36z" />
    <glyph glyph-name="Amacron" unicode="&#x100;" horiz-adv-x="1277" 
d="M721 549h-332l-117 -207q-13 -22 -35 -62q-98 -163 -93 -208t145 -56l53 -4l2 -12h-450l6 12l34 4q28 3 45.5 6t39 14t34 20t36 37t39 51t48 77t58.5 100t75 134l365 647l-8 80q107 21 184 129h27l96 -1035q14 -109 32 -163t44 -73t75 -22l60 -6v-12h-606l8 12l59 4
q78 4 97 47.5t6 151.5zM403 575h316l-39 484h-4zM555 1442l31 69h512l-31 -69h-512z" />
    <glyph glyph-name="amacron" unicode="&#x101;" horiz-adv-x="960" 
d="M653 -25q-34 0 -105 39.5t-71 63.5q0 71 94 309h-4q-17 -27 -48 -77q-42 -68 -62 -99.5t-52 -79t-52 -68.5t-46.5 -45t-50.5 -32.5t-51 -8.5q-78 0 -132.5 57t-54.5 146q0 144 85 293.5t210 274.5q69 70 139.5 107.5t129.5 37.5q53 0 72.5 -50.5t13.5 -170.5h4l86 225
l186 -8l-168 -436l-117 -357l111 -12l133 215l12 -6q-72 -153 -143 -235.5t-119 -82.5zM299 102q100 0 281 363q59 116 59 168q0 66 -47 115t-107 49q-46 0 -88 -39q-68 -69 -125 -230t-57 -282q0 -69 23 -106.5t61 -37.5zM412 1067l30 70h512l-30 -70h-512z" />
    <glyph glyph-name="Abreve" unicode="&#x102;" horiz-adv-x="1277" 
d="M721 549h-332l-117 -207q-13 -22 -35 -62q-98 -163 -93 -208t145 -56l53 -4l2 -12h-450l6 12l34 4q28 3 45.5 6t39 14t34 20t36 37t39 51t48 77t58.5 100t75 134l365 647l-8 80q107 21 184 129h27l96 -1035q14 -109 32 -163t44 -73t75 -22l60 -6v-12h-606l8 12l59 4
q78 4 97 47.5t6 151.5zM403 575h316l-39 484h-4zM795 1370q-60 0 -101.5 29t-63 83t-30.5 117t-8 144h16q15 -124 65.5 -181t141.5 -57q89 0 162.5 57t140.5 181h19q-31 -73 -51.5 -117.5t-53.5 -99t-64.5 -84.5t-76 -51t-96.5 -21z" />
    <glyph glyph-name="abreve" unicode="&#x103;" horiz-adv-x="960" 
d="M653 -25q-34 0 -105 39.5t-71 63.5q0 71 94 309h-4q-17 -27 -48 -77q-42 -68 -62 -99.5t-52 -79t-52 -68.5t-46.5 -45t-50.5 -32.5t-51 -8.5q-78 0 -132.5 57t-54.5 146q0 144 85 293.5t210 274.5q69 70 139.5 107.5t129.5 37.5q53 0 72.5 -50.5t13.5 -170.5h4l86 225
l186 -8l-168 -436l-117 -357l111 -12l133 215l12 -6q-72 -153 -143 -235.5t-119 -82.5zM299 102q100 0 281 363q59 116 59 168q0 66 -47 115t-107 49q-46 0 -88 -39q-68 -69 -125 -230t-57 -282q0 -69 23 -106.5t61 -37.5zM653 995q-60 0 -101.5 29t-63 83t-30 117t-7.5 144
h16q15 -124 65.5 -181t141.5 -57q89 0 162.5 57t140.5 181h18q-31 -73 -51.5 -117.5t-53.5 -99t-64.5 -84.5t-76 -51t-96.5 -21z" />
    <glyph glyph-name="Aogonek" unicode="&#x104;" horiz-adv-x="1277" 
d="M926 -487q-74 0 -116 45.5t-42 119.5q0 54 28 104.5t76 91t103.5 72t118.5 54.5h-516l8 12l59 4q77 4 95.5 47t7.5 152l-27 334h-332l-117 -207q-13 -22 -35 -62q-98 -163 -93 -208t145 -56l53 -4l2 -12h-450l6 12l34 4q28 3 45.5 6t39 14t34 19.5t36 37t39 51.5t48 76.5
t58.5 99.5t75 133l365 649l-8 80q107 21 184 129h27l98 -1035q14 -110 31.5 -163t43.5 -72.5t76 -22.5l58 -6l2 -12q-130 -23 -207.5 -102t-77.5 -181q0 -60 29 -93.5t88 -33.5q12 0 21.5 1t19.5 4.5t16 5.5t17 8.5t14.5 9t16.5 12t16 11.5l4 -4q-39 -51 -95 -88t-122 -37z
M403 575h316l-39 484h-6z" />
    <glyph glyph-name="aogonek" unicode="&#x105;" horiz-adv-x="960" 
d="M528 -487q-73 0 -115 45.5t-42 119.5q0 174 268 297q-44 8 -102 44t-58 59q0 70 94 311h-4q-136 -220 -160 -254q-84 -121 -150 -148q-25 -10 -52 -10q-80 0 -134.5 57t-54.5 146q0 144 85 293.5t210 274.5q69 70 140.5 107.5t128.5 37.5q54 0 73 -50t13 -171h4l88 225
l186 -8l-168 -436l-116 -357l110 -12l133 215l13 -6q-60 -125 -118 -204t-104 -103q-94 -51 -143 -121.5t-49 -145.5q0 -60 29.5 -94.5t87.5 -34.5q10 0 19.5 1.5t16.5 2.5t16 5t14 6t14.5 8t12.5 8.5t14.5 10.5t14.5 10l2 -4q-39 -51 -95 -88t-122 -37zM639 633
q0 66 -47 115t-107 49q-47 0 -86 -39q-68 -69 -125 -230t-57 -282q0 -69 22 -106.5t60 -37.5q100 0 281 363q59 116 59 168z" />
    <glyph glyph-name="Cacute" unicode="&#x106;" horiz-adv-x="1400" 
d="M797 1380l268 383h217l-473 -383h-12zM776 -29q-152 0 -279 46.5t-212.5 126.5t-133 189t-47.5 232q0 147 56 282.5t155.5 238t247 164t318.5 61.5q220 0 374 -97l146 37l-64 -372l-10 2l-98 299q-45 45 -129.5 75.5t-177.5 30.5q-110 0 -204.5 -46t-161 -123.5
t-114 -179t-70 -212.5t-22.5 -223q0 -237 117.5 -372.5t325.5 -135.5q133 0 238 67t194 195l65 100l10 -4l-108 -329l-70 -5q-54 -17 -154.5 -32t-191.5 -15z" />
    <glyph glyph-name="cacute" unicode="&#x107;" horiz-adv-x="727" 
d="M440 1006l269 383h217l-473 -383h-13zM283 -25q-114 0 -189.5 85t-75.5 208q0 107 44.5 221t116.5 205t173.5 150t206.5 59q81 0 144 -44t63 -111q0 -53 -34.5 -91.5t-80.5 -38.5q-42 0 -76 28.5t-34 66.5q0 37 23.5 71.5t58.5 49.5q-7 5 -20 18.5t-26 20t-32 6.5
q-54 0 -133 -72q-77 -80 -133 -226.5t-56 -279.5q0 -211 150 -211q76 0 130.5 44.5t127.5 168.5l16 -6q-82 -152 -171.5 -237t-192.5 -85z" />
    <glyph glyph-name="Ccircumflex" unicode="&#x108;" horiz-adv-x="1400" 
d="M616 1358l359 403h14l191 -403h-17l-207 211h-6l-321 -211h-13zM776 -29q-152 0 -279 46.5t-212.5 126.5t-133 189t-47.5 232q0 147 56 282.5t155.5 238t247 164t318.5 61.5q220 0 374 -97l146 37l-64 -372l-10 2l-98 299q-45 45 -129.5 75.5t-177.5 30.5
q-110 0 -204.5 -46t-161 -123.5t-114 -179t-70 -212.5t-22.5 -223q0 -237 117.5 -372.5t325.5 -135.5q133 0 238 67t194 195l65 100l10 -4l-108 -329l-70 -5q-54 -17 -154.5 -32t-191.5 -15z" />
    <glyph glyph-name="ccircumflex" unicode="&#x109;" horiz-adv-x="727" 
d="M229 983l359 403h14l191 -403h-17l-207 211h-6l-321 -211h-13zM283 -25q-114 0 -189.5 85t-75.5 208q0 107 44.5 221t116.5 205t173.5 150t206.5 59q81 0 144 -44t63 -111q0 -53 -34.5 -91.5t-80.5 -38.5q-42 0 -76 28.5t-34 66.5q0 37 23.5 71.5t58.5 49.5
q-7 5 -20 18.5t-26 20t-32 6.5q-54 0 -133 -72q-77 -80 -133 -226.5t-56 -279.5q0 -211 150 -211q76 0 130.5 44.5t127.5 168.5l16 -6q-82 -152 -171.5 -237t-192.5 -85z" />
    <glyph glyph-name="Cdotaccent" unicode="&#x10a;" horiz-adv-x="1400" 
d="M776 -29q-152 0 -279 46.5t-212.5 126.5t-133 189t-47.5 232q0 147 56 282.5t155.5 238t247 164t318.5 61.5q220 0 374 -97l146 37l-64 -372l-10 2l-98 299q-45 45 -129.5 75.5t-177.5 30.5q-110 0 -204.5 -46t-161 -123.5t-114 -179t-70 -212.5t-22.5 -223
q0 -237 117.5 -372.5t325.5 -135.5q133 0 238 67t194 195l65 100l10 -4l-108 -329l-70 -5q-54 -17 -154.5 -32t-191.5 -15zM938 1442q-57 0 -90 38.5t-33 82.5q0 47 32.5 87t88.5 40q57 0 89 -40t32 -87q0 -44 -32 -82.5t-87 -38.5z" />
    <glyph glyph-name="cdotaccent" unicode="&#x10b;" horiz-adv-x="727" 
d="M283 -25q-114 0 -189.5 85t-75.5 208q0 107 44.5 221t116.5 205t173.5 150t206.5 59q81 0 144 -44t63 -111q0 -53 -34.5 -91.5t-80.5 -38.5q-42 0 -76 28.5t-34 66.5q0 37 23.5 71.5t58.5 49.5q-7 5 -20 18.5t-26 20t-32 6.5q-54 0 -133 -72q-77 -80 -133 -226.5
t-56 -279.5q0 -211 150 -211q76 0 130.5 44.5t127.5 168.5l16 -6q-82 -152 -171.5 -237t-192.5 -85zM575 1067q-57 0 -89.5 38.5t-32.5 82.5q0 47 32 87t88 40q57 0 89 -40t32 -87q0 -44 -32 -82.5t-87 -38.5z" />
    <glyph glyph-name="Ccaron" unicode="&#x10c;" horiz-adv-x="1400" 
d="M891 1358l-191 403h17l209 -211h6l317 211h15l-359 -403h-14zM776 -29q-152 0 -279 46.5t-212.5 126.5t-133 189t-47.5 232q0 147 56 282.5t155.5 238t247 164t318.5 61.5q220 0 374 -97l146 37l-64 -372l-10 2l-98 299q-45 45 -129.5 75.5t-177.5 30.5
q-110 0 -204.5 -46t-161 -123.5t-114 -179t-70 -212.5t-22.5 -223q0 -237 117.5 -372.5t325.5 -135.5q133 0 238 67t194 195l65 100l10 -4l-108 -329l-70 -5q-54 -17 -154.5 -32t-191.5 -15z" />
    <glyph glyph-name="ccaron" unicode="&#x10d;" horiz-adv-x="727" 
d="M502 983l-191 403h17l209 -210h6l317 210h14l-358 -403h-14zM283 -25q-114 0 -189.5 85t-75.5 208q0 107 44.5 221t116.5 205t173.5 150t206.5 59q81 0 144 -44t63 -111q0 -53 -34.5 -91.5t-80.5 -38.5q-42 0 -76 28.5t-34 66.5q0 37 23.5 71.5t58.5 49.5q-7 5 -20 18.5
t-26 20t-32 6.5q-54 0 -133 -72q-77 -80 -133 -226.5t-56 -279.5q0 -211 150 -211q76 0 130.5 44.5t127.5 168.5l16 -6q-82 -152 -171.5 -237t-192.5 -85z" />
    <glyph glyph-name="Dcaron" unicode="&#x10e;" horiz-adv-x="1386" 
d="M754 1358l-191 403h17l208 -211h7l317 211h14l-358 -403h-14zM-47 0l6 12l76 8q102 11 106 33l250 1180q1 6 -2 9t-17 6.5t-34 6t-62 7.5l-49 6l-2 12l506 2q162 1 288 -39.5t204 -114t117.5 -170t39.5 -210.5q0 -149 -58.5 -284t-163.5 -238t-264 -164.5t-349 -61.5
h-592zM502 18q122 0 226 41.5t178.5 114.5t127 171.5t78 213.5t25.5 240q0 99 -23.5 180.5t-72 145.5t-130 99.5t-190.5 35.5h-100l-254 -1197z" />
    <glyph glyph-name="dcaron" unicode="&#x10f;" horiz-adv-x="1345" 
d="M1116 872l-4 9q104 35 169 97t65 136q0 30 -13 53.5t-35 38t-41 23t-39.5 14t-21.5 6.5q5 46 38.5 80.5t88.5 34.5q68 0 109 -48t41 -118q0 -106 -95.5 -198.5t-261.5 -127.5zM653 -25q-34 0 -105 39.5t-71 63.5q0 69 92 309h-4q-135 -218 -160 -255q-83 -120 -150 -146
q-24 -9 -50 -9q-78 0 -132.5 57t-54.5 146q0 144 85 293t210 272q151 154 265 154q94 0 90 -227h4l186 585q8 48 -10 48l-193 6l4 12l428 35l-280 -815l-148 -447l111 -12l133 213l12 -6q-72 -152 -143 -234t-119 -82zM299 102q102 0 281 363q59 116 59 168q0 64 -47 113
t-107 49q-46 0 -88 -39q-67 -67 -124.5 -227.5t-57.5 -282.5q0 -69 23 -106.5t61 -37.5z" />
    <glyph glyph-name="Dcroat" unicode="&#x110;" horiz-adv-x="1386" 
d="M264 631h-188l8 24h184l123 578q1 6 -2 9t-17 6.5t-34 6t-62 7.5l-49 6l-2 12l506 2q162 1 288 -39.5t204 -114t117.5 -170t39.5 -210.5q0 -149 -58.5 -284t-163.5 -238t-264 -164.5t-349 -61.5h-592l6 12l76 8q102 11 106 33zM492 655h288l4 -24h-299l-118 -568l135 -45
q122 0 226 41.5t178.5 114.5t127 171.5t78 213.5t25.5 240q0 99 -23.5 180.5t-72 145.5t-130 99.5t-190.5 35.5h-100z" />
    <glyph glyph-name="dcroat" unicode="&#x111;" horiz-adv-x="958" 
d="M653 -25q-34 0 -105 39.5t-71 63.5q0 69 92 309h-4q-135 -218 -160 -255q-83 -120 -150 -146q-24 -9 -50 -9q-78 0 -132.5 57t-54.5 146q0 144 85 293t210 272q151 154 265 154q94 0 90 -227h4l119 377h-232l35 65h217l47 143q8 48 -10 48l-193 6l4 12l428 35l-83 -244
h131l-35 -65h-119l-174 -506l-148 -447l111 -12l133 213l12 -6q-72 -152 -143 -234t-119 -82zM299 102q102 0 281 363q59 116 59 168q0 64 -47 113t-107 49q-46 0 -88 -39q-67 -67 -124.5 -227.5t-57.5 -282.5q0 -69 23 -106.5t61 -37.5z" />
    <glyph glyph-name="Emacron" unicode="&#x112;" horiz-adv-x="1230" 
d="M-47 0l6 12l70 8q108 12 112 33l250 1180q1 6 -2 9t-16.5 6.5t-34 6t-62.5 7.5l-49 6l-2 12h932l19 -408h-15l-6 25q-25 81 -46.5 133t-54.5 100.5t-74 74.5t-101 41t-140 14h-118l-125 -592l92 2q152 8 221.5 45t114.5 137l14 33l14 -2l-100 -461l-14 2l4 33q5 47 -2 78
t-23.5 51t-53 32t-79.5 17.5t-115 9.5l-77 4l-132 -620l228 -11q81 1 150.5 21t123 52t103 82t86.5 101.5t77 120.5l19 27h10l-145 -422h-1059zM500 1442l30 69h512l-30 -69h-512z" />
    <glyph glyph-name="emacron" unicode="&#x113;" horiz-adv-x="753" 
d="M287 -25q-116 0 -192.5 85t-76.5 208q0 145 75 292.5t199.5 245t254.5 97.5q98 0 159.5 -44.5t61.5 -117.5q0 -100 -130.5 -165.5t-391.5 -104.5q-23 -94 -23 -172q0 -209 164 -209q77 0 136.5 46t131.5 167l17 -6q-78 -146 -177.5 -234t-207.5 -88zM254 487
q174 36 259 102t85 173q0 115 -76 115q-46 0 -102 -56q-49 -49 -95.5 -140t-74.5 -192zM246 1067l30 70h512l-30 -70h-512z" />
    <glyph glyph-name="Ebreve" unicode="&#x114;" horiz-adv-x="1230" 
d="M-47 0l6 12l70 8q108 12 112 33l250 1180q1 6 -2 9t-16.5 6.5t-34 6t-62.5 7.5l-49 6l-2 12h932l19 -408h-15l-6 25q-25 81 -46.5 133t-54.5 100.5t-74 74.5t-101 41t-140 14h-118l-125 -592l92 2q152 8 221.5 45t114.5 137l14 33l14 -2l-100 -461l-14 2l4 33q5 47 -2 78
t-23.5 51t-53 32t-79.5 17.5t-115 9.5l-77 4l-132 -620l228 -11q81 1 150.5 21t123 52t103 82t86.5 101.5t77 120.5l19 27h10l-145 -422h-1059zM782 1370q-60 0 -101.5 29t-63 83t-30 117t-7.5 144h16q15 -124 65.5 -181t141.5 -57q89 0 162.5 57t140.5 181h18
q-31 -73 -51.5 -117.5t-53.5 -99t-64.5 -84.5t-76 -51t-96.5 -21z" />
    <glyph glyph-name="ebreve" unicode="&#x115;" horiz-adv-x="753" 
d="M287 -25q-116 0 -192.5 85t-76.5 208q0 145 75 292.5t199.5 245t254.5 97.5q98 0 159.5 -44.5t61.5 -117.5q0 -100 -130.5 -165.5t-391.5 -104.5q-23 -94 -23 -172q0 -209 164 -209q77 0 136.5 46t131.5 167l17 -6q-78 -146 -177.5 -234t-207.5 -88zM254 487
q174 36 259 102t85 173q0 115 -76 115q-46 0 -102 -56q-49 -49 -95.5 -140t-74.5 -192zM496 995q-60 0 -101.5 29t-63 83t-30.5 117t-8 144h16q15 -124 65.5 -181t141.5 -57q89 0 162.5 57t140.5 181h19q-31 -73 -51.5 -117.5t-53.5 -99t-64.5 -84.5t-76 -51t-96.5 -21z" />
    <glyph glyph-name="Edotaccent" unicode="&#x116;" horiz-adv-x="1230" 
d="M-47 0l6 12l70 8q108 12 112 33l250 1180q1 6 -2 9t-16.5 6.5t-34 6t-62.5 7.5l-49 6l-2 12h932l19 -408h-15l-6 25q-25 81 -46.5 133t-54.5 100.5t-74 74.5t-101 41t-140 14h-118l-125 -592l92 2q152 8 221.5 45t114.5 137l14 33l14 -2l-100 -461l-14 2l4 33q5 47 -2 78
t-23.5 51t-53 32t-79.5 17.5t-115 9.5l-77 4l-132 -620l228 -11q81 1 150.5 21t123 52t103 82t86.5 101.5t77 120.5l19 27h10l-145 -422h-1059zM766 1442q-57 0 -90 38.5t-33 82.5q0 47 32.5 87t88.5 40q57 0 89 -40t32 -87q0 -44 -32 -82.5t-87 -38.5z" />
    <glyph glyph-name="edotaccent" unicode="&#x117;" horiz-adv-x="753" 
d="M287 -25q-116 0 -192.5 85t-76.5 208q0 145 75 292.5t199.5 245t254.5 97.5q98 0 159.5 -44.5t61.5 -117.5q0 -100 -130.5 -165.5t-391.5 -104.5q-23 -94 -23 -172q0 -209 164 -209q77 0 136.5 46t131.5 167l17 -6q-78 -146 -177.5 -234t-207.5 -88zM254 487
q174 36 259 102t85 173q0 115 -76 115q-46 0 -102 -56q-49 -49 -95.5 -140t-74.5 -192zM551 1067q-57 0 -90 38.5t-33 82.5q0 47 32.5 87t88.5 40q57 0 89 -40t32 -87q0 -44 -32 -82.5t-87 -38.5z" />
    <glyph glyph-name="Eogonek" unicode="&#x118;" horiz-adv-x="1230" 
d="M748 -487q-73 0 -115.5 48t-42.5 122q0 52 25.5 100.5t70.5 88t95.5 70.5t111.5 58h-940l6 12l70 8q108 12 112 33l250 1180q1 6 -2 9t-16.5 6.5t-34 6t-62.5 7.5l-49 6l-2 12h934l17 -408h-13l-8 25q-25 81 -46.5 133t-54.5 100.5t-74 74.5t-101 41t-140 14h-118
l-123 -592l90 2q153 8 222.5 45t113.5 137l14 33l14 -2l-100 -461h-14l4 35q5 47 -2 78t-23.5 51t-53 32t-79.5 17.5t-115 9.5l-77 4l-132 -620l228 -11q81 1 150.5 21t123 52t103 82t86.5 101.5t77 120.5l19 27h12l-147 -422h-78q-105 -55 -158 -128.5t-53 -150.5
q0 -131 115 -131q12 0 22 1t20.5 4.5l16.5 5.5t17 9t14 9t16.5 11.5t16.5 11.5l4 -4q-39 -51 -95 -88t-122 -37z" />
    <glyph glyph-name="eogonek" unicode="&#x119;" horiz-adv-x="753" 
d="M231 -487q-73 0 -115 45.5t-42 119.5q0 85 73.5 172t169.5 127q-1 0 -15 -1t-15 -1q-116 0 -192.5 85t-76.5 208q0 145 75 292.5t199.5 245t254.5 97.5q98 0 159.5 -44.5t61.5 -117.5q0 -100 -130.5 -165.5t-389.5 -104.5q-25 -102 -25 -172q0 -209 164 -209q77 0 137 46
t133 167l15 -6q-131 -246 -271 -301q-91 -37 -142.5 -120t-51.5 -159q0 -59 29.5 -93t87.5 -34q10 0 19.5 1.5t16.5 2.5t16 5t14 6t14.5 8t12.5 8.5t14.5 10.5t14.5 10l3 -4q-39 -51 -95 -88t-123 -37zM256 487q173 36 258.5 102.5t85.5 172.5q0 115 -78 115q-45 0 -102 -54
q-50 -50 -96 -141.5t-72 -192.5z" />
    <glyph glyph-name="Ecaron" unicode="&#x11a;" horiz-adv-x="1230" 
d="M-47 0l6 12l70 8q108 12 112 33l250 1180q1 6 -2 9t-16.5 6.5t-34 6t-62.5 7.5l-49 6l-2 12h932l19 -408h-15l-6 25q-25 81 -46.5 133t-54.5 100.5t-74 74.5t-101 41t-140 14h-118l-125 -592l92 2q152 8 221.5 45t114.5 137l14 33l14 -2l-100 -461l-14 2l4 33q5 47 -2 78
t-23.5 51t-53 32t-79.5 17.5t-115 9.5l-77 4l-132 -620l228 -11q81 1 150.5 21t123 52t103 82t86.5 101.5t77 120.5l19 27h10l-145 -422h-1059zM762 1358l-191 403h17l209 -211h6l317 211h15l-359 -403h-14z" />
    <glyph glyph-name="ecaron" unicode="&#x11b;" horiz-adv-x="753" 
d="M489 983l-190 403h16l209 -210h6l318 210h14l-358 -403h-15zM287 -25q-116 0 -192.5 85t-76.5 208q0 145 75 292.5t199.5 245t254.5 97.5q98 0 159.5 -44.5t61.5 -117.5q0 -100 -130.5 -165.5t-391.5 -104.5q-23 -94 -23 -172q0 -209 164 -209q77 0 136.5 46t131.5 167
l17 -6q-78 -146 -177.5 -234t-207.5 -88zM254 487q174 36 259 102t85 173q0 115 -76 115q-46 0 -102 -56q-49 -49 -95.5 -140t-74.5 -192z" />
    <glyph glyph-name="Gcircumflex" unicode="&#x11c;" horiz-adv-x="1452" 
d="M588 1358l358 403h15l190 -403h-16l-207 211h-6l-322 -211h-12zM745 -31q-289 0 -465 165.5t-176 424.5q0 150 56 286.5t156 239t247.5 163.5t319.5 61q223 0 381 -95l143 37l-66 -385h-8l-98 316q-43 43 -126.5 73.5t-176.5 30.5q-107 0 -201 -44t-163 -120t-118.5 -176
t-74.5 -214t-25 -232q0 -235 113 -373.5t307 -138.5q112 0 186 43l101 477q1 7 -9 12.5t-39.5 9.5t-82.5 7l-70 6l-2 12h604l-8 -12l-80 -6q-94 -10 -98 -33l-88 -422l108 18v-8q-116 -49 -268 -86t-279 -37z" />
    <glyph glyph-name="gcircumflex" unicode="&#x11d;" horiz-adv-x="804" 
d="M199 983l358 403h14l191 -403h-17l-206 211h-7l-321 -211h-12zM231 -496q-194 0 -312 65.5t-118 172.5q0 75 91.5 144.5t220.5 99.5v4q-64 34 -100 70.5t-36 86.5q0 58 68.5 110t149.5 73l2 4q-54 39 -85.5 98.5t-31.5 128.5q0 87 51.5 166.5t133.5 127t169 46.5
q103 -3 184 -74l275 47l-25 -131l-233 72v-4q94 -98 94 -205q0 -83 -53 -160t-137.5 -123t-171.5 -44q-92 0 -148 38q-42 -7 -66 -35.5t-24 -62.5q0 -33 39 -53.5t170 -63.5l49 -14q73 -24 127.5 -49.5t102 -59t72 -77t24.5 -95.5q0 -80 -66 -150.5t-177.5 -111.5
t-238.5 -41zM326 299q27 0 57 14.5t51 36.5q62 62 96.5 176.5t34.5 202.5q2 68 -22 108t-68 40q-25 0 -44.5 -12t-47.5 -38q-61 -61 -99 -176t-40 -198q0 -99 30 -129q25 -25 52 -25zM305 -471q108 0 182 56.5t74 133.5q0 37 -20 68t-58 55.5t-76.5 41.5t-91.5 36l-168 55
q-77 -18 -123.5 -71.5t-46.5 -130.5q0 -109 89 -176.5t239 -67.5z" />
    <glyph glyph-name="Gbreve" unicode="&#x11e;" horiz-adv-x="1452" 
d="M745 -31q-289 0 -465 165.5t-176 424.5q0 150 56 286.5t156 239t247.5 163.5t319.5 61q223 0 381 -95l143 37l-66 -385h-8l-98 316q-43 43 -126.5 73.5t-176.5 30.5q-107 0 -201 -44t-163 -120t-118.5 -176t-74.5 -214t-25 -232q0 -235 113 -373.5t307 -138.5
q112 0 186 43l101 477q1 7 -9 12.5t-39.5 9.5t-82.5 7l-70 6l-2 12h604l-8 -12l-80 -6q-94 -10 -98 -33l-88 -422l108 18v-8q-116 -49 -268 -86t-279 -37zM905 1370q-60 0 -101.5 29t-63 83t-30.5 117t-8 144h17q15 -124 65.5 -181t141.5 -57q89 0 162.5 57t140.5 181h18
q-31 -73 -51.5 -117.5t-53.5 -99t-64.5 -84.5t-76 -51t-96.5 -21z" />
    <glyph glyph-name="gbreve" unicode="&#x11f;" horiz-adv-x="804" 
d="M231 -496q-194 0 -312 65.5t-118 172.5q0 75 91.5 144.5t220.5 99.5v4q-64 34 -100 70.5t-36 86.5q0 58 68.5 110t149.5 73l2 4q-54 39 -85.5 98.5t-31.5 128.5q0 87 51.5 166.5t133.5 127t169 46.5q103 -3 184 -74l275 47l-25 -131l-233 72v-4q94 -98 94 -205
q0 -83 -53 -160t-137.5 -123t-171.5 -44q-92 0 -148 38q-42 -7 -66 -35.5t-24 -62.5q0 -33 39 -53.5t170 -63.5l49 -14q73 -24 127.5 -49.5t102 -59t72 -77t24.5 -95.5q0 -80 -66 -150.5t-177.5 -111.5t-238.5 -41zM326 299q27 0 57 14.5t51 36.5q62 62 96.5 176.5
t34.5 202.5q2 68 -22 108t-68 40q-25 0 -44.5 -12t-47.5 -38q-61 -61 -99 -176t-40 -198q0 -99 30 -129q25 -25 52 -25zM305 -471q108 0 182 56.5t74 133.5q0 37 -20 68t-58 55.5t-76.5 41.5t-91.5 36l-168 55q-77 -18 -123.5 -71.5t-46.5 -130.5q0 -109 89 -176.5
t239 -67.5zM496 995q-60 0 -101.5 29t-63 83t-30.5 117t-8 144h16q15 -124 65.5 -181t141.5 -57q89 0 162.5 57t140.5 181h19q-31 -73 -51.5 -117.5t-53.5 -99t-64.5 -84.5t-76 -51t-96.5 -21z" />
    <glyph glyph-name="Gdotaccent" unicode="&#x120;" horiz-adv-x="1452" 
d="M745 -31q-289 0 -465 165.5t-176 424.5q0 150 56 286.5t156 239t247.5 163.5t319.5 61q223 0 381 -95l143 37l-66 -385h-8l-98 316q-43 43 -126.5 73.5t-176.5 30.5q-107 0 -201 -44t-163 -120t-118.5 -176t-74.5 -214t-25 -232q0 -235 113 -373.5t307 -138.5
q112 0 186 43l101 477q1 7 -9 12.5t-39.5 9.5t-82.5 7l-70 6l-2 12h604l-8 -12l-80 -6q-94 -10 -98 -33l-88 -422l108 18v-8q-116 -49 -268 -86t-279 -37zM926 1442q-57 0 -90 38.5t-33 82.5q0 47 32.5 87t88.5 40q57 0 88.5 -40t31.5 -87q0 -44 -31.5 -82.5t-86.5 -38.5z
" />
    <glyph glyph-name="gdotaccent" unicode="&#x121;" horiz-adv-x="804" 
d="M231 -496q-194 0 -312 65.5t-118 172.5q0 75 91.5 144.5t220.5 99.5v4q-64 34 -100 70.5t-36 86.5q0 58 68.5 110t149.5 73l2 4q-54 39 -85.5 98.5t-31.5 128.5q0 87 51.5 166.5t133.5 127t169 46.5q103 -3 184 -74l275 47l-25 -131l-233 72v-4q94 -98 94 -205
q0 -83 -53 -160t-137.5 -123t-171.5 -44q-92 0 -148 38q-42 -7 -66 -35.5t-24 -62.5q0 -33 39 -53.5t170 -63.5l49 -14q73 -24 127.5 -49.5t102 -59t72 -77t24.5 -95.5q0 -80 -66 -150.5t-177.5 -111.5t-238.5 -41zM326 299q27 0 57 14.5t51 36.5q62 62 96.5 176.5
t34.5 202.5q2 68 -22 108t-68 40q-25 0 -44.5 -12t-47.5 -38q-61 -61 -99 -176t-40 -198q0 -99 30 -129q25 -25 52 -25zM305 -471q108 0 182 56.5t74 133.5q0 37 -20 68t-58 55.5t-76.5 41.5t-91.5 36l-168 55q-77 -18 -123.5 -71.5t-46.5 -130.5q0 -109 89 -176.5
t239 -67.5zM528 1067q-57 0 -89.5 38.5t-32.5 82.5q0 47 32 87t88 40q57 0 89 -40t32 -87q0 -44 -32 -82.5t-87 -38.5z" />
    <glyph glyph-name="Gcommaaccent" unicode="&#x122;" horiz-adv-x="1452" 
d="M848 -317q-19 -86 -121 -159.5t-227 -80.5l-4 8q83 10 140 56t69 108q10 48 -12.5 82t-60.5 40t-81 -11q-11 57 34.5 105t125.5 40q78 -6 116 -58.5t21 -129.5zM745 -31q-289 0 -465 165.5t-176 424.5q0 150 56 286.5t156 239t247.5 163.5t319.5 61q223 0 381 -95l143 37
l-66 -385h-8l-98 316q-43 43 -126.5 73.5t-176.5 30.5q-107 0 -201 -44t-163 -120t-118.5 -176t-74.5 -214t-25 -232q0 -235 113 -373.5t307 -138.5q112 0 186 43l101 477q1 7 -9 12.5t-39.5 9.5t-82.5 7l-70 6l-2 12h604l-8 -12l-80 -6q-94 -10 -98 -33l-88 -422l108 18v-8
q-116 -49 -268 -86t-279 -37z" />
    <glyph glyph-name="gcommaaccent" unicode="&#x123;" horiz-adv-x="804" 
d="M420 1214q19 86 121 159.5t227 80.5l4 -8q-83 -10 -140 -56t-69 -108q-10 -48 12.5 -82t60.5 -40t81 11q11 -57 -34.5 -105t-125.5 -40q-78 6 -116 58.5t-21 129.5zM231 -496q-194 0 -312 65.5t-118 172.5q0 75 91.5 144.5t220.5 99.5v4q-64 34 -100 70.5t-36 86.5
q0 58 68.5 110t149.5 73l2 4q-54 39 -85.5 98.5t-31.5 128.5q0 87 51.5 166.5t133.5 127t169 46.5q103 -3 184 -74l275 47l-25 -131l-233 72v-4q94 -98 94 -205q0 -83 -53 -160t-137.5 -123t-171.5 -44q-92 0 -148 38q-42 -7 -66 -35.5t-24 -62.5q0 -33 39 -53.5t170 -63.5
l49 -14q73 -24 127.5 -49.5t102 -59t72 -77t24.5 -95.5q0 -80 -66 -150.5t-177.5 -111.5t-238.5 -41zM326 299q27 0 57 14.5t51 36.5q62 62 96.5 176.5t34.5 202.5q2 68 -22 108t-68 40q-25 0 -44.5 -12t-47.5 -38q-61 -61 -99 -176t-40 -198q0 -99 30 -129q25 -25 52 -25z
M305 -471q108 0 182 56.5t74 133.5q0 37 -20 68t-58 55.5t-76.5 41.5t-91.5 36l-168 55q-77 -18 -123.5 -71.5t-46.5 -130.5q0 -109 89 -176.5t239 -67.5z" />
    <glyph glyph-name="Hcircumflex" unicode="&#x124;" horiz-adv-x="1497" 
d="M625 1358l358 403h14l191 -403h-17l-206 211h-7l-321 -211h-12zM-47 0l6 12l76 8q102 11 106 33l250 1180q1 6 -2 9t-16.5 6.5t-34 6t-62.5 7.5l-49 6l-2 12h582l-8 -12l-80 -8q-101 -11 -105 -33l-118 -565h600l123 571q1 6 -2.5 9t-15.5 6.5t-34.5 6.5t-62.5 7l-55 6
l-2 12h583l-8 -12l-76 -8q-100 -11 -104 -33l-250 -1180q-1 -6 2 -9t16 -6.5t33.5 -6l61.5 -7.5l51 -6l2 -12h-584l6 12l82 8q103 8 107 33l121 588h-601l-124 -594q-1 -6 2 -9t14.5 -6.5t33.5 -6.5t62 -7l55 -6l3 -12h-582z" />
    <glyph glyph-name="hcircumflex" unicode="&#x125;" horiz-adv-x="958" 
d="M156 1358l358 403h14l191 -403h-17l-206 211h-7l-321 -211h-12zM637 -25q-32 0 -95 38.5t-63 64.5q0 9 7 32t23 64t30 77t39 98t40 100t43 104.5t42 104t14 51.5q0 24 -33 45.5t-66 21.5q-45 0 -149 -156t-233 -432l-78 -194l-191 10q2 6 24 69.5t51 145.5t42 121
q39 117 109.5 346.5t120.5 399.5l51 171q5 17 2 32.5t-13 15.5l-164 6l5 12l395 35l-39 -131q-187 -647 -303 -928l12 -4q89 175 180 324t144 202q34 34 77 56t74 22q68 0 120 -39t52 -84q0 -75 -102 -327l-141 -353l106 -12l137 213l13 -6q-71 -147 -152.5 -231.5
t-130.5 -84.5z" />
    <glyph glyph-name="Hbar" unicode="&#x126;" horiz-adv-x="1497" 
d="M1358 0h-584l6 12l82 8q103 8 107 33l121 588h-601l-124 -594q-1 -6 2 -9t14.5 -6.5t34.5 -6.5t63 -7l53 -6l3 -12h-582l6 12l76 8q102 11 106 33l176 834h-174l29 63h160l59 283q1 6 -2 9t-16.5 6.5t-34 6t-62.5 7.5l-49 6l-2 12h582l-8 -12l-78 -8q-103 -11 -107 -33
l-59 -277h602l62 283q1 6 -2.5 9t-15.5 6.5t-34.5 6.5t-62.5 7l-55 6l-2 12h583l-8 -12l-74 -8q-102 -11 -106 -33l-60 -277h144l-29 -63h-127l-178 -840q-1 -6 2 -9t16.5 -6.5t34 -6t62.5 -7.5l49 -6zM496 662h600l49 225h-602z" />
    <glyph glyph-name="hbar" unicode="&#x127;" horiz-adv-x="958" 
d="M170 1049l27 65h127l41 143q5 17 2 32.5t-13 15.5l-164 6l5 12l395 35l-39 -131l-33 -113h219l-26 -65h-211q-146 -489 -250 -750l10 -4v0q89 175 180 324t144 202q34 34 77 56t74 22q69 0 120.5 -39t51.5 -84q0 -80 -100 -327l-141 -353l106 -12l137 213l13 -6
q-71 -147 -152.5 -231.5t-130.5 -84.5q-33 0 -96.5 38.5t-63.5 64.5q0 15 18 64t59 150t62 157q15 39 43 105t42 103t14 50q0 25 -33 47t-66 22q-44 0 -147.5 -156t-234.5 -432l-76 -194l-193 10l117 336q103 310 221 709h-135z" />
    <glyph glyph-name="Imacron" unicode="&#x12a;" horiz-adv-x="714" 
d="M-31 0l6 12l82 8q103 8 107 33l250 1180q1 6 -2.5 9t-15.5 6.5t-34.5 6.5t-62.5 7l-57 6l-2 12h591l-8 -12l-82 -8q-100 -11 -104 -33l-250 -1180q-1 -6 2 -9t15 -6.5t34 -6.5t62 -7l57 -6l2 -12h-590zM293 1442l31 69h512l-31 -69h-512z" />
    <glyph glyph-name="imacron" unicode="&#x12b;" horiz-adv-x="532" 
d="M215 -25q-34 0 -103 35.5t-69 59.5q0 19 55.5 168t123.5 324.5t83 219.5l-129 9l-131 -211l-12 6q73 152 152.5 234.5t144.5 82.5q42 0 93.5 -47t51.5 -94q0 -31 -51 -166.5t-117 -297.5t-80 -200l119 -14l137 213l13 -6q-72 -148 -151.5 -232t-129.5 -84zM121 1067
l31 70h512l-31 -70h-512z" />
    <glyph glyph-name="Ibreve" unicode="&#x12c;" horiz-adv-x="714" 
d="M-31 0l6 12l82 8q103 8 107 33l250 1180q1 6 -2.5 9t-15.5 6.5t-34.5 6.5t-62.5 7l-57 6l-2 12h591l-8 -12l-82 -8q-100 -11 -104 -33l-250 -1180q-1 -6 2 -9t15 -6.5t34 -6.5t62 -7l57 -6l2 -12h-590zM551 1370q-60 0 -101.5 29t-63 83t-30.5 117t-8 144h17
q15 -124 65.5 -181t140.5 -57q89 0 162.5 57t140.5 181h19q-31 -73 -51.5 -117.5t-53.5 -99t-64.5 -84.5t-76 -51t-96.5 -21z" />
    <glyph glyph-name="ibreve" unicode="&#x12d;" horiz-adv-x="532" 
d="M215 -25q-34 0 -103 35.5t-69 59.5q0 19 55.5 168t123.5 324.5t83 219.5l-129 9l-131 -211l-12 6q73 152 152.5 234.5t144.5 82.5q42 0 93.5 -47t51.5 -94q0 -31 -51 -166.5t-117 -297.5t-80 -200l119 -14l137 213l13 -6q-72 -148 -151.5 -232t-129.5 -84zM377 995
q-60 0 -101.5 29t-63 83t-30.5 117t-8 144h16q15 -124 65.5 -181t141.5 -57q89 0 162.5 57t140.5 181h19q-31 -73 -51.5 -117.5t-53.5 -99t-64.5 -84.5t-76 -51t-96.5 -21z" />
    <glyph glyph-name="Iogonek" unicode="&#x12e;" horiz-adv-x="714" 
d="M307 -487q-73 0 -115 45.5t-42 119.5q0 109 99 199.5t238 122.5h-518l6 12l82 8q103 8 107 33l250 1180q1 6 -2.5 9t-15.5 6.5t-34.5 6.5t-62.5 7l-57 6l-2 12h591l-8 -12l-80 -8q-102 -11 -106 -33l-250 -1180q-1 -6 2 -9t15 -6.5t35 -6.5t63 -7l55 -6l2 -12
q-124 -23 -200 -104.5t-76 -178.5q0 -127 116 -127q12 0 21.5 1t19.5 4.5t16 5.5t17 8.5t14.5 9t16.5 12t16 11.5l4 -4q-39 -51 -95 -88t-122 -37z" />
    <glyph glyph-name="iogonek" unicode="&#x12f;" horiz-adv-x="532" 
d="M92 -487q-74 0 -116 45t-42 120q0 169 265 299q-44 8 -100 40t-56 55q0 19 55.5 167t123.5 323.5t83 217.5l-129 11l-131 -211l-12 6q73 152 152.5 234.5t144.5 82.5q42 0 93.5 -47t51.5 -94q0 -31 -51 -167.5t-116 -297t-79 -199.5l119 -14l137 213l11 -6
q-60 -124 -122.5 -202.5t-115.5 -104.5q-92 -47 -141 -120.5t-49 -146.5q0 -59 29 -93t87 -34q9 0 17 0.5t16 3t14 3.5t14 5t11.5 6t12.5 8t12 7.5t13 9t13 9.5l2 -4q-39 -51 -95 -88t-122 -37zM614 1206q-1 -61 -34.5 -102t-79.5 -41q-51 0 -82 32t-31 81q0 60 34.5 101.5
t78.5 41.5q54 0 85 -32t29 -81z" />
    <glyph glyph-name="Idotaccent" unicode="&#x130;" horiz-adv-x="714" 
d="M-31 0l6 12l82 8q103 8 107 33l250 1180q1 6 -2.5 9t-15.5 6.5t-34.5 6.5t-62.5 7l-57 6l-2 12h591l-8 -12l-82 -8q-100 -11 -104 -33l-250 -1180q-1 -6 2 -9t15 -6.5t34 -6.5t62 -7l57 -6l2 -12h-590zM598 1442q-57 0 -90 38.5t-33 82.5q0 47 32.5 87t88.5 40
q57 0 89 -40t32 -87q0 -44 -32 -82.5t-87 -38.5z" />
    <glyph glyph-name="dotlessi" unicode="&#x131;" horiz-adv-x="532" 
d="M215 -25q-34 0 -103 35.5t-69 59.5q0 19 55.5 168t123.5 324.5t83 219.5l-129 9l-131 -211l-12 6q73 152 152.5 234.5t144.5 82.5q42 0 93.5 -47t51.5 -94q0 -31 -51 -166.5t-117 -297.5t-80 -200l119 -14l137 213l13 -6q-72 -148 -151.5 -232t-129.5 -84z" />
    <glyph glyph-name="Jcircumflex" unicode="&#x134;" horiz-adv-x="684" 
d="M244 1358l358 403h14l191 -403h-16l-207 211h-6l-322 -211h-12zM-127 -352q-86 0 -133 39t-47 98q0 53 40 91t95 38q66 0 99.5 -45t19.5 -102.5t-70 -90.5q84 -20 156.5 77.5t109.5 279.5l256 1200q1 6 -2 9t-15.5 6.5t-34.5 6.5t-62 7l-58 6l-2 12h590l-8 -12l-80 -8
q-102 -11 -106 -33l-263 -1243q-7 -38 -57 -95.5t-119 -111t-154.5 -91.5t-154.5 -38z" />
    <glyph glyph-name="jcircumflex" unicode="&#x135;" horiz-adv-x="493" 
d="M326 903q42 0 94.5 -47t52.5 -94q0 -50 -88 -305.5t-168 -444.5q-121 -288 -248 -415q-47 -47 -105 -77t-112 -30t-98.5 35t-44.5 90q0 41 29 72.5t77 31.5q43 0 72.5 -29.5t28 -77t-42.5 -91.5l100 33q31 33 60 94.5t46 113t58 183.5l264 837l-121 9l-137 -211l-12 6
q71 151 151 234t144 83zM92 983l359 403h14l190 -403h-16l-207 211h-6l-322 -211h-12z" />
    <glyph glyph-name="Kcommaaccent" unicode="&#x136;" horiz-adv-x="1402" 
d="M727 -317q-19 -86 -121 -159.5t-227 -80.5l-4 8q83 10 140 56t69 108q10 48 -12.5 82t-60.5 40t-81 -11q-11 57 34.5 105t125.5 40q78 -6 116 -58.5t21 -129.5zM-47 0l6 12l82 8q96 8 100 33l250 1180q1 6 -1.5 9t-13 6.5t-32.5 6.5t-61 7l-56 6l-4 12h600l-8 -12l-96 -8
q-50 -4 -76.5 -13.5t-28.5 -19.5l-139 -664l381 318q267 225 309 301q28 50 -24 67q-25 8 -82 13l-72 6v12h524l-8 -12l-41 -4q-93 -5 -176.5 -61t-310.5 -251q-62 -53 -96 -82l-29 -22l244 -647q24 -66 38.5 -98t33.5 -53t37.5 -26.5t53.5 -7.5l52 -4l2 -12h-582l6 12l47 4
q80 6 90.5 54t-43.5 194l-157 432l-207 -170l-100 -479q-1 -8 5 -12.5t31 -8.5t76 -8l72 -6l4 -12h-600z" />
    <glyph glyph-name="kcommaaccent" unicode="&#x137;" horiz-adv-x="880" 
d="M426 -317q-19 -86 -121 -159.5t-227 -80.5l-4 8q83 10 140 56t69 108q10 48 -12.5 82t-60.5 40t-81 -11q-11 57 34.5 105t125.5 40q78 -6 116 -58.5t21 -129.5zM586 -25q-34 0 -67.5 14t-53.5 34q-14 294 -31.5 379t-73.5 85q-27 0 -41 -8.5t-16 -17.5l-143 -467l-197 10
q34 85 119 336q52 156 121 385.5t112 380.5l43 151q5 15 2.5 31.5t-12.5 16.5l-164 6l4 12l400 35l-39 -131q-58 -197 -97.5 -321t-79 -238.5t-55.5 -163.5q40 6 72 6q265 105 309 162l-2 4q-80 43 -80 119q0 41 34.5 74.5t78.5 33.5q47 0 81 -32.5t34 -82.5
q0 -34 -11 -59.5t-43 -54.5t-94 -59.5t-159 -65.5l-99 -39q37 -6 66.5 -22t50.5 -45.5t36 -62.5t26.5 -82t18.5 -95t15 -111l62 -6l131 225l10 -4q-63 -153 -132.5 -242.5t-135.5 -89.5z" />
    <glyph glyph-name="Lacute" unicode="&#x139;" horiz-adv-x="1171" 
d="M444 1380l269 383h217l-473 -383h-13zM-47 0l6 12l82 8q96 8 100 33l250 1180q1 6 -1.5 9t-13 6.5t-32.5 6.5t-61 7l-56 6l-2 12h619l-8 -12l-117 -8q-47 -4 -75 -13.5t-30 -19.5l-254 -1198l187 -11q96 0 168.5 23.5t135 79.5t110.5 123.5t114 181.5l15 27h14l-139 -453
h-1012z" />
    <glyph glyph-name="lacute" unicode="&#x13a;" horiz-adv-x="485" 
d="M309 1380l269 383h217l-473 -383h-13zM164 -25q-21 0 -61.5 17.5t-72.5 42t-28 39.5l358 1183q5 17 2.5 32.5t-12.5 15.5l-164 6l4 12l394 35l-396 -1262l101 -12l135 213l12 -6q-72 -150 -147.5 -233t-124.5 -83z" />
    <glyph glyph-name="Lcommaaccent" unicode="&#x13b;" horiz-adv-x="1171" 
d="M627 -317q-19 -86 -121 -159.5t-227 -80.5l-5 8q83 10 140 56t69 108q10 48 -12.5 82t-60 40t-80.5 -11q-11 57 34 105t125 40q78 -6 116.5 -58.5t21.5 -129.5zM-47 0l6 12l82 8q96 8 100 33l250 1180q1 6 -1.5 9t-13 6.5t-32.5 6.5t-61 7l-56 6l-2 12h619l-8 -12
l-117 -8q-47 -4 -75 -13.5t-30 -19.5l-254 -1198l187 -11q96 0 168.5 23.5t135 79.5t110.5 123.5t114 181.5l15 27h14l-139 -453h-1012z" />
    <glyph glyph-name="lcommaaccent" unicode="&#x13c;" horiz-adv-x="485" 
d="M227 -317q-19 -86 -121 -159.5t-227 -80.5l-4 8q83 10 140 56t69 108q10 48 -12.5 82t-60.5 40t-81 -11q-11 57 34.5 105t125.5 40q78 -6 116 -58.5t21 -129.5zM164 -25q-21 0 -61.5 17.5t-72.5 42t-28 39.5l358 1183q5 17 2.5 32.5t-12.5 15.5l-164 6l4 12l394 35
l-396 -1262l101 -12l135 213l12 -6q-72 -150 -147.5 -233t-124.5 -83z" />
    <glyph glyph-name="Lcaron" unicode="&#x13d;" horiz-adv-x="1363" 
d="M1130 811l-4 8q104 35 169 97.5t65 136.5q0 30 -13 53.5t-35 38t-41 23t-39.5 14t-21.5 6.5q5 46 38.5 80.5t88.5 34.5q68 0 109 -48t41 -118q0 -106 -95.5 -198.5t-261.5 -127.5zM-47 0l6 12l82 8q96 8 100 33l250 1180q1 6 -1.5 9t-13 6.5t-32.5 6.5t-61 7l-56 6l-2 12
h619l-8 -12l-117 -8q-47 -4 -75 -13.5t-30 -19.5l-254 -1198l187 -11q96 0 168.5 23.5t135 79.5t110.5 123.5t114 181.5l15 27h14l-139 -453h-1012z" />
    <glyph glyph-name="lcaron" unicode="&#x13e;" horiz-adv-x="870" 
d="M610 877l-4 8q104 35 169 97t65 136q0 30 -13 53.5t-35 38t-41 23t-39.5 14t-21.5 6.5q5 46 38.5 80.5t88.5 34.5q68 0 109 -48t41 -118q0 -106 -95.5 -198t-261.5 -127zM164 -25q-21 0 -61.5 17.5t-72.5 42t-28 39.5l358 1183q5 17 2.5 32.5t-12.5 15.5l-164 6l4 12
l394 35l-396 -1262l101 -12l135 213l12 -6q-72 -150 -147.5 -233t-124.5 -83z" />
    <glyph glyph-name="Ldot" unicode="&#x13f;" horiz-adv-x="1320" 
d="M-47 0l6 12l82 8q96 8 100 33l250 1180q1 6 -1.5 9t-13 6.5t-32.5 6.5t-61 7l-56 6l-2 12h619l-8 -12l-117 -8q-47 -4 -75 -13.5t-30 -19.5l-254 -1198l187 -11q96 0 168.5 23.5t135 79.5t110.5 123.5t114 181.5l15 27h14l-139 -453h-1012zM1317 508q-54 0 -91.5 38.5
t-37.5 92.5q0 51 37.5 89t91.5 38q53 0 91 -38.5t38 -88.5q0 -55 -37 -93t-92 -38z" />
    <glyph glyph-name="ldotaccent" unicode="&#x140;" horiz-adv-x="827" 
d="M164 -25q-21 0 -61.5 17.5t-72.5 42t-28 39.5l358 1183q5 17 2.5 32.5t-12.5 15.5l-164 6l4 12l394 35l-396 -1262l101 -12l135 213l12 -6q-72 -150 -147.5 -233t-124.5 -83zM705 477q-54 0 -92 38.5t-38 92.5q0 51 38 89t92 38q53 0 91 -38.5t38 -88.5q0 -55 -37 -93
t-92 -38z" />
    <glyph glyph-name="Lslash" unicode="&#x141;" horiz-adv-x="1146" 
d="M252 580q1 0 -53 -16.5t-108 -33.5l-54 -16l8 25l213 65l133 629q1 8 -5 12.5t-31 8.5t-76 8l-72 6l-2 12h641l-8 -12l-117 -8q-47 -4 -76 -13.5t-31 -19.5l-116 -551l225 69l-2 -24q-227 -70 -229 -70l-132 -622l185 -11q77 0 139.5 17.5t111 47t97 84t87 112
t91.5 147.5l14 27h15l-148 -453h-1020l7 12l98 8q100 8 104 33z" />
    <glyph glyph-name="lslash" unicode="&#x142;" horiz-adv-x="475" 
d="M172 539l-166 -52l8 23q10 3 27.5 8.5t53.5 16.5t60 18.5t23 7.5l211 696q5 17 2.5 32.5t-12.5 15.5l-164 6l4 12l395 35l-229 -733l141 43l-2 -23l-147 -45q0 1 -39.5 -125t-79.5 -253l-39 -126l100 -12l138 213l12 -6q-74 -150 -149.5 -233t-124.5 -83
q-20 0 -60.5 17.5t-73.5 42t-28 39.5z" />
    <glyph glyph-name="Nacute" unicode="&#x143;" horiz-adv-x="1363" 
d="M799 1380l268 383h217l-473 -383h-12zM1034 -10l-628 1126h-5l-219 -1022q-7 -29 28 -49.5t128 -28.5l35 -4l2 -12h-434l8 12l39 4q75 6 118.5 30t49.5 56l225 1035q-32 51 -72 84t-106 41l-23 4l-2 14h410l510 -936h4l178 842q15 65 -154 78l-36 4l-3 12h435l-9 -12
l-36 -4q-76 -6 -119 -29.5t-49 -56.5l-258 -1188h-17z" />
    <glyph glyph-name="nacute" unicode="&#x144;" horiz-adv-x="1015" 
d="M563 1006l268 383h218l-474 -383h-12zM700 -25q-34 0 -101 38.5t-67 64.5q0 9 7 32t23.5 65t30 76.5t39.5 99t40 98.5q14 36 42.5 104t42 105t13.5 51q0 25 -32.5 47t-65.5 22q-45 0 -149.5 -156.5t-233.5 -433.5l-74 -194l-192 10l116 338l131 442l-100 9l-131 -213
l-12 6q71 153 147 236t137 83q33 0 86.5 -50.5t53.5 -96.5q0 -44 -41.5 -174.5t-104.5 -282.5l8 -4q90 176 181 325t143 201q34 34 77 56t74 22q68 0 120.5 -39.5t52.5 -83.5q0 -74 -103 -329l-141 -353l106 -12l138 215l12 -6q-72 -150 -148.5 -234t-124.5 -84z" />
    <glyph glyph-name="Ncommaaccent" unicode="&#x145;" horiz-adv-x="1363" 
d="M719 -317q-19 -86 -121 -159.5t-227 -80.5l-4 8q83 10 139.5 56t68.5 108q10 48 -12.5 82t-60 40t-80.5 -11q-11 57 34.5 105t125.5 40q78 -6 116 -58.5t21 -129.5zM1034 -10l-628 1126h-5l-219 -1022q-7 -29 28 -49.5t128 -28.5l35 -4l2 -12h-434l8 12l39 4
q75 6 118.5 30t49.5 56l225 1035q-32 51 -72 84t-106 41l-23 4l-2 14h410l510 -936h4l178 842q15 65 -154 78l-36 4l-3 12h435l-9 -12l-36 -4q-76 -6 -119 -29.5t-49 -56.5l-258 -1188h-17z" />
    <glyph glyph-name="ncommaaccent" unicode="&#x146;" horiz-adv-x="1015" 
d="M502 -317q-19 -86 -121 -159.5t-227 -80.5l-4 8q83 10 139.5 56t68.5 108q10 48 -12.5 82t-60 40t-80.5 -11q-11 57 34.5 105t125.5 40q78 -6 116 -58.5t21 -129.5zM700 -25q-34 0 -101 38.5t-67 64.5q0 9 7 32t23.5 65t30 76.5t39.5 99t40 98.5q14 36 42.5 104t42 105
t13.5 51q0 25 -32.5 47t-65.5 22q-45 0 -149.5 -156.5t-233.5 -433.5l-74 -194l-192 10l116 338l131 442l-100 9l-131 -213l-12 6q71 153 147 236t137 83q33 0 86.5 -50.5t53.5 -96.5q0 -44 -41.5 -174.5t-104.5 -282.5l8 -4q90 176 181 325t143 201q34 34 77 56t74 22
q68 0 120.5 -39.5t52.5 -83.5q0 -74 -103 -329l-141 -353l106 -12l138 215l12 -6q-72 -150 -148.5 -234t-124.5 -84z" />
    <glyph glyph-name="Ncaron" unicode="&#x147;" horiz-adv-x="1363" 
d="M868 1358l-190 403h16l209 -211h6l318 211h14l-358 -403h-15zM1034 -10l-628 1126h-5l-219 -1022q-7 -29 28 -49.5t128 -28.5l35 -4l2 -12h-434l8 12l39 4q75 6 118.5 30t49.5 56l225 1035q-32 51 -72 84t-106 41l-23 4l-2 14h410l510 -936h4l178 842q15 65 -154 78
l-36 4l-3 12h435l-9 -12l-36 -4q-76 -6 -119 -29.5t-49 -56.5l-258 -1188h-17z" />
    <glyph glyph-name="ncaron" unicode="&#x148;" horiz-adv-x="1015" 
d="M592 983l-191 403h17l209 -210h6l317 210h15l-359 -403h-14zM700 -25q-34 0 -101 38.5t-67 64.5q0 9 7 32t23.5 65t30 76.5t39.5 99t40 98.5q14 36 42.5 104t42 105t13.5 51q0 25 -32.5 47t-65.5 22q-45 0 -149.5 -156.5t-233.5 -433.5l-74 -194l-192 10l116 338l131 442
l-100 9l-131 -213l-12 6q71 153 147 236t137 83q33 0 86.5 -50.5t53.5 -96.5q0 -44 -41.5 -174.5t-104.5 -282.5l8 -4q90 176 181 325t143 201q34 34 77 56t74 22q68 0 120.5 -39.5t52.5 -83.5q0 -74 -103 -329l-141 -353l106 -12l138 215l12 -6q-72 -150 -148.5 -234
t-124.5 -84z" />
    <glyph glyph-name="Omacron" unicode="&#x14c;" horiz-adv-x="1503" 
d="M668 1442l30 69h512l-30 -69h-512zM754 -27q-188 0 -335 85t-224.5 227t-77.5 313q0 133 53 260t145 227t229.5 161t295.5 61q188 0 335 -86t224.5 -229.5t77.5 -315.5q0 -186 -92 -346.5t-259.5 -258.5t-371.5 -98zM725 -6q143 0 265 124.5t189.5 315.5t67.5 393
q0 206 -103 332.5t-280 126.5q-92 0 -175.5 -52t-145 -138.5t-106.5 -196t-68 -227.5t-23 -230q0 -201 103.5 -324.5t275.5 -123.5z" />
    <glyph glyph-name="omacron" unicode="&#x14d;" horiz-adv-x="839" 
d="M274 1067l31 70h512l-31 -70h-512zM334 -25q-129 0 -215 110t-86 269q0 124 69 252t176 210.5t211 82.5q129 0 221.5 -111.5t92.5 -269.5q0 -94 -42 -193t-107.5 -175.5t-151.5 -125.5t-168 -49zM303 2q80 0 150.5 93.5t121.5 254.5q24 73 37 163.5t13 154.5
q0 97 -26.5 149.5t-70.5 52.5q-63 0 -142 -114.5t-132 -278.5q-47 -145 -47 -287q0 -87 26 -137.5t70 -50.5z" />
    <glyph glyph-name="Obreve" unicode="&#x14e;" horiz-adv-x="1503" 
d="M754 -27q-188 0 -335 85t-224.5 227t-77.5 313q0 133 53 260t145 227t229.5 161t295.5 61q188 0 335 -86t224.5 -229.5t77.5 -315.5q0 -186 -92 -346.5t-259.5 -258.5t-371.5 -98zM725 -6q143 0 265 124.5t189.5 315.5t67.5 393q0 206 -103 332.5t-280 126.5
q-92 0 -175.5 -52t-145 -138.5t-106.5 -196t-68 -227.5t-23 -230q0 -201 103.5 -324.5t275.5 -123.5zM913 1370q-60 0 -101.5 29t-63 83t-30 117t-7.5 144h16q15 -124 65.5 -181t141.5 -57q89 0 162.5 57t140.5 181h18q-31 -73 -51.5 -117.5t-53.5 -99t-64.5 -84.5t-76 -51
t-96.5 -21z" />
    <glyph glyph-name="obreve" unicode="&#x14f;" horiz-adv-x="839" 
d="M334 -25q-129 0 -215 110t-86 269q0 124 69 252t176 210.5t211 82.5q129 0 221.5 -111.5t92.5 -269.5q0 -94 -42 -193t-107.5 -175.5t-151.5 -125.5t-168 -49zM303 2q80 0 150.5 93.5t121.5 254.5q24 73 37 163.5t13 154.5q0 97 -26.5 149.5t-70.5 52.5
q-63 0 -142 -114.5t-132 -278.5q-47 -145 -47 -287q0 -87 26 -137.5t70 -50.5zM526 995q-60 0 -101.5 29t-63 83t-30 117t-7.5 144h16q15 -124 65.5 -181t141.5 -57q89 0 162.5 57t140.5 181h18q-31 -73 -51.5 -117.5t-53.5 -99t-64.5 -84.5t-76 -51t-96.5 -21z" />
    <glyph glyph-name="Ohungarumlaut" unicode="&#x150;" horiz-adv-x="1503" 
d="M1010 1380l268 383h201l-457 -383h-12zM674 1380l270 383h199l-457 -383h-12zM754 -27q-188 0 -335 85t-224.5 227t-77.5 313q0 133 53 260t145 227t229.5 161t295.5 61q188 0 335 -86t224.5 -229.5t77.5 -315.5q0 -186 -92 -346.5t-259.5 -258.5t-371.5 -98zM725 -6
q143 0 265 124.5t189.5 315.5t67.5 393q0 206 -103 332.5t-280 126.5q-92 0 -175.5 -52t-145 -138.5t-106.5 -196t-68 -227.5t-23 -230q0 -201 103.5 -324.5t275.5 -123.5z" />
    <glyph glyph-name="ohungarumlaut" unicode="&#x151;" horiz-adv-x="839" 
d="M641 1006l268 383h201l-457 -383h-12zM305 1006l270 383h199l-457 -383h-12zM334 -25q-129 0 -215 110t-86 269q0 124 69 252t176 210.5t211 82.5q129 0 221.5 -111.5t92.5 -269.5q0 -94 -42 -193t-107.5 -175.5t-151.5 -125.5t-168 -49zM303 2q80 0 150.5 93.5
t121.5 254.5q24 73 37 163.5t13 154.5q0 97 -26.5 149.5t-70.5 52.5q-63 0 -142 -114.5t-132 -278.5q-47 -145 -47 -287q0 -87 26 -137.5t70 -50.5z" />
    <glyph glyph-name="OE" unicode="&#x152;" horiz-adv-x="1957" 
d="M741 0q-119 0 -217.5 24.5t-168.5 68.5t-121.5 104.5t-76.5 133t-33.5 154.5t7.5 168q21 134 89 249t172 199t249 131.5t313 47.5h932l17 -408h-13l-8 25q-25 81 -46.5 132.5t-54.5 100t-74 74.5t-101 41.5t-140 14.5l-104 -3l-123 -589l78 2q151 8 220.5 45t113.5 137
l16 33l14 -2l-100 -461l-14 2l4 33q10 111 -45 145t-230 43l-61 4l-131 -618l213 -11q99 1 181 29t146 82t112 115.5t99 148.5l19 27h12l-147 -422h-998zM776 23l98 2l254 1196l-131 41q-252 0 -413 -171.5t-205 -461.5q-14 -77 -14 -150t13 -141.5t44.5 -125t78.5 -99.5
t117 -66.5t158 -23.5z" />
    <glyph glyph-name="oe" unicode="&#x153;" horiz-adv-x="1308" 
d="M334 -25q-128 0 -214.5 110t-86.5 269q0 123 69 251t176 211t211 83q86 0 156 -52.5t107 -141.5q74 92 166 145t186 53q98 0 159.5 -45.5t61.5 -118.5q0 -100 -126 -162t-396 -106q-25 -102 -25 -172q0 -209 164 -209q76 0 136.5 46t133.5 167l15 -6q-78 -146 -177 -233
t-208 -87q-76 0 -133.5 39.5t-87.5 106.5q-64 -67 -139.5 -107.5t-147.5 -40.5zM811 487q182 40 262 103.5t80 171.5q0 115 -78 115q-45 0 -104 -56q-48 -50 -93 -141t-71 -191zM303 2q80 0 150.5 93.5t121.5 254.5q24 73 37 163.5t13 154.5q0 97 -26 149.5t-71 52.5
q-63 0 -142 -114.5t-132 -278.5q-47 -145 -47 -287q0 -87 26.5 -137.5t69.5 -50.5z" />
    <glyph glyph-name="Racute" unicode="&#x154;" horiz-adv-x="1306" 
d="M635 1380l268 383h217l-473 -383h-12zM-70 0l7 12l98 8q38 3 71 13.5t35 19.5l250 1180q1 8 -6 12.5t-32.5 8.5t-76.5 8l-71 6l-2 12h581q209 0 335 -84.5t126 -222.5q0 -140 -119 -230.5t-303 -95.5l191 -430q46 -113 88.5 -153.5t124.5 -49.5l22 -2l2 -12h-397
l-256 657q-36 14 -96 43l-137 -653q-3 -18 112 -29l76 -6l2 -12h-625zM692 680q143 0 231.5 94.5t88.5 247.5q0 106 -69.5 172t-194.5 66h-127l-115 -539q99 -41 186 -41z" />
    <glyph glyph-name="racute" unicode="&#x155;" horiz-adv-x="827" 
d="M451 1006l268 383h217l-473 -383h-12zM217 -6l-194 10l116 338l131 442l-100 9l-131 -213l-12 6q72 155 144 237t132 82q34 0 91 -50.5t57 -96.5q0 -36 -26.5 -116.5t-84.5 -234.5q-3 -7 -5 -11.5t-4.5 -11.5t-4.5 -13h6q17 32 43.5 83.5t40 77t34.5 65.5t33 61t28.5 50
t27 45.5t23.5 35t24 31t22 22.5q69 66 133 63q64 -4 104.5 -47.5t35.5 -101.5q-3 -57 -41 -96t-86 -37q-47 2 -74 35t-19 78.5t54 76.5l-58 23q-32 -15 -62 -51.5t-96 -148t-184 -335.5z" />
    <glyph glyph-name="Rcommaaccent" unicode="&#x156;" horiz-adv-x="1306" 
d="M766 -317q-19 -86 -121 -159.5t-227 -80.5l-4 8q83 10 140 56t69 108q10 48 -12.5 82t-60.5 40t-81 -11q-11 57 34.5 105t125.5 40q78 -6 116 -58.5t21 -129.5zM-70 0l7 12l98 8q38 3 71 13.5t35 19.5l250 1180q1 8 -6 12.5t-32.5 8.5t-76.5 8l-71 6l-2 12h581
q209 0 335 -84.5t126 -222.5q0 -140 -119 -230.5t-303 -95.5l191 -430q46 -113 88.5 -153.5t124.5 -49.5l22 -2l2 -12h-397l-256 657q-36 14 -96 43l-137 -653q-3 -18 112 -29l76 -6l2 -12h-625zM692 680q143 0 231.5 94.5t88.5 247.5q0 106 -69.5 172t-194.5 66h-127
l-115 -539q99 -41 186 -41z" />
    <glyph glyph-name="rcommaaccent" unicode="&#x157;" horiz-adv-x="827" 
d="M236 -317q-19 -86 -121.5 -159.5t-227.5 -80.5l-4 8q83 10 140 56t69 108q10 48 -12.5 82t-60 40t-80.5 -11q-11 57 34 105t125 40q78 -6 116.5 -58.5t21.5 -129.5zM217 -6l-194 10l116 338l131 442l-100 9l-131 -213l-12 6q72 155 144 237t132 82q34 0 91 -50.5
t57 -96.5q0 -36 -26.5 -116.5t-84.5 -234.5q-3 -7 -5 -11.5t-4.5 -11.5t-4.5 -13h6q17 32 43.5 83.5t40 77t34.5 65.5t33 61t28.5 50t27 45.5t23.5 35t24 31t22 22.5q69 66 133 63q64 -4 104.5 -47.5t35.5 -101.5q-3 -57 -41 -96t-86 -37q-47 2 -74 35t-19 78.5t54 76.5
l-58 23q-32 -15 -62 -51.5t-96 -148t-184 -335.5z" />
    <glyph glyph-name="Rcaron" unicode="&#x158;" horiz-adv-x="1306" 
d="M733 1358l-190 403h16l209 -211h6l318 211h14l-358 -403h-15zM-70 0l7 12l98 8q38 3 71 13.5t35 19.5l250 1180q1 8 -6 12.5t-32.5 8.5t-76.5 8l-71 6l-2 12h581q209 0 335 -84.5t126 -222.5q0 -140 -119 -230.5t-303 -95.5l191 -430q46 -113 88.5 -153.5t124.5 -49.5
l22 -2l2 -12h-397l-256 657q-36 14 -96 43l-137 -653q-3 -18 112 -29l76 -6l2 -12h-625zM692 680q143 0 231.5 94.5t88.5 247.5q0 106 -69.5 172t-194.5 66h-127l-115 -539q99 -41 186 -41z" />
    <glyph glyph-name="rcaron" unicode="&#x159;" horiz-adv-x="827" 
d="M522 983l-190 403h16l209 -210h6l318 210h14l-358 -403h-15zM217 -6l-194 10l116 338l131 442l-100 9l-131 -213l-12 6q72 155 144 237t132 82q34 0 91 -50.5t57 -96.5q0 -36 -26.5 -116.5t-84.5 -234.5q-3 -7 -5 -11.5t-4.5 -11.5t-4.5 -13h6q17 32 43.5 83.5t40 77
t34.5 65.5t33 61t28.5 50t27 45.5t23.5 35t24 31t22 22.5q69 66 133 63q64 -4 104.5 -47.5t35.5 -101.5q-3 -57 -41 -96t-86 -37q-47 2 -74 35t-19 78.5t54 76.5l-58 23q-32 -15 -62 -51.5t-96 -148t-184 -335.5z" />
    <glyph glyph-name="Sacute" unicode="&#x15a;" horiz-adv-x="1032" 
d="M547 1380l268 383h217l-473 -383h-12zM471 -25q-139 0 -258 36.5t-188 82.5l49 312h8l41 -146q33 -131 121 -198.5t215 -67.5t214 89t87 212q0 90 -64.5 157t-189.5 132q-138 73 -215.5 159.5t-77.5 204.5q0 66 29 129.5t80.5 115t130 83t170.5 31.5q151 0 327 -80l90 20
l-63 -338h-6l-101 281q-39 41 -98 68.5t-127 27.5q-105 0 -179.5 -68.5t-74.5 -168.5q0 -89 55 -147.5t191 -127.5q153 -82 232 -171t79 -216q0 -73 -33.5 -146t-93 -132.5t-151.5 -96.5t-199 -37z" />
    <glyph glyph-name="sacute" unicode="&#x15b;" horiz-adv-x="677" 
d="M338 1006l268 383h217l-473 -383h-12zM250 -25q-111 0 -192 51t-81 136q0 48 32.5 83.5t80.5 35.5q37 0 62.5 -28t27.5 -65q0 -33 -18.5 -66.5t-44.5 -51.5q18 -23 69 -48.5t97 -25.5q76 0 116.5 55t40.5 117q0 25 -8 47.5t-28 47t-34 38.5t-46.5 43.5t-44.5 40.5
q-85 80 -122.5 133.5t-37.5 122.5q0 110 93.5 185t215.5 75q102 0 174 -43t72 -125q0 -51 -32.5 -83t-78.5 -32q-39 0 -66.5 30.5t-27.5 70.5q0 29 20.5 59t45.5 45q-1 1 -24.5 19t-46.5 27.5t-50 9.5q-70 0 -108 -51t-38 -109q0 -22 7 -43t27.5 -46t31 -36.5t44 -43
t40.5 -38.5q83 -79 110 -113q60 -77 60 -153q0 -112 -104 -191.5t-234 -79.5z" />
    <glyph glyph-name="Scircumflex" unicode="&#x15c;" horiz-adv-x="1032" 
d="M391 1358l359 403h14l190 -403h-16l-207 211h-6l-322 -211h-12zM471 -25q-139 0 -258 36.5t-188 82.5l49 312h8l41 -146q33 -131 121 -198.5t215 -67.5t214 89t87 212q0 90 -64.5 157t-189.5 132q-138 73 -215.5 159.5t-77.5 204.5q0 66 29 129.5t80.5 115t130 83
t170.5 31.5q151 0 327 -80l90 20l-63 -338h-6l-101 281q-39 41 -98 68.5t-127 27.5q-105 0 -179.5 -68.5t-74.5 -168.5q0 -89 55 -147.5t191 -127.5q153 -82 232 -171t79 -216q0 -73 -33.5 -146t-93 -132.5t-151.5 -96.5t-199 -37z" />
    <glyph glyph-name="scircumflex" unicode="&#x15d;" horiz-adv-x="677" 
d="M147 983l359 403h14l191 -403h-17l-207 211h-6l-321 -211h-13zM250 -25q-111 0 -192 51t-81 136q0 48 32.5 83.5t80.5 35.5q37 0 62.5 -28t27.5 -65q0 -33 -18.5 -66.5t-44.5 -51.5q18 -23 69 -48.5t97 -25.5q76 0 116.5 55t40.5 117q0 25 -8 47.5t-28 47t-34 38.5
t-46.5 43.5t-44.5 40.5q-85 80 -122.5 133.5t-37.5 122.5q0 110 93.5 185t215.5 75q102 0 174 -43t72 -125q0 -51 -32.5 -83t-78.5 -32q-39 0 -66.5 30.5t-27.5 70.5q0 29 20.5 59t45.5 45q-1 1 -24.5 19t-46.5 27.5t-50 9.5q-70 0 -108 -51t-38 -109q0 -22 7 -43t27.5 -46
t31 -36.5t44 -43t40.5 -38.5q83 -79 110 -113q60 -77 60 -153q0 -112 -104 -191.5t-234 -79.5z" />
    <glyph glyph-name="Scedilla" unicode="&#x15e;" horiz-adv-x="1032" 
d="M162 -522v10q185 13 265.5 55.5t80.5 116.5q0 39 -28 64t-66.5 34t-87.5 9q-36 0 -107 -13l4 17l236 204q-137 3 -253 38.5t-181 80.5l49 312h8l41 -146q33 -131 121 -198.5t215 -67.5t214 89t87 212q0 90 -64.5 157t-189.5 132q-138 73 -215.5 159.5t-77.5 204.5
q0 66 29 129.5t80.5 115t130 83t170.5 31.5q151 0 327 -80l90 20l-63 -338h-6l-101 281q-39 41 -98 68.5t-127 27.5q-105 0 -179.5 -68.5t-74.5 -168.5q0 -89 55 -147.5t191 -127.5q153 -82 232 -171t79 -216q0 -72 -32.5 -143.5t-90 -130.5t-147 -97t-193.5 -41l-120 -108
q119 10 199.5 -36t80.5 -120q0 -225 -483 -233z" />
    <glyph glyph-name="scedilla" unicode="&#x15f;" horiz-adv-x="677" 
d="M-59 -522v10q185 13 265.5 55.5t80.5 116.5q0 39 -28 64t-67 34t-88 9q-34 0 -106 -13l4 17l236 204q-108 3 -184.5 53t-76.5 134q0 48 32.5 83.5t80.5 35.5q37 0 62.5 -28t27.5 -65q0 -33 -18.5 -66.5t-44.5 -51.5q18 -23 69 -48.5t97 -25.5q76 0 116.5 55t40.5 117
q0 25 -8 47.5t-28 47t-34 38.5t-46.5 43.5t-44.5 40.5q-85 80 -122.5 133.5t-37.5 122.5q0 110 93.5 185t215.5 75q102 0 174 -43t72 -125q0 -51 -32.5 -83t-78.5 -32q-39 0 -66.5 30.5t-27.5 70.5q0 29 20.5 59t45.5 45q-1 1 -24.5 19t-46.5 27.5t-50 9.5q-70 0 -108 -51
t-38 -109q0 -22 7 -43t27.5 -46t31 -36.5t44 -43t40.5 -38.5q83 -79 110 -113q60 -77 60 -153q0 -109 -99 -187.5t-225 -83.5l-121 -108q119 10 200 -36t81 -120q0 -225 -483 -233z" />
    <glyph glyph-name="Scaron" unicode="&#x160;" horiz-adv-x="1032" 
d="M471 -25q-139 0 -258 36.5t-188 82.5l49 312h8l41 -146q33 -131 121 -198.5t215 -67.5t214 89t87 212q0 90 -64.5 157t-189.5 132q-138 73 -215.5 159.5t-77.5 204.5q0 66 29 129.5t80.5 115t130 83t170.5 31.5q151 0 327 -80l90 20l-63 -338h-6l-101 281
q-39 41 -98 68.5t-127 27.5q-105 0 -179.5 -68.5t-74.5 -168.5q0 -89 55 -147.5t191 -127.5q153 -82 232 -171t79 -216q0 -73 -33.5 -146t-93 -132.5t-151.5 -96.5t-199 -37zM680 1331l-191 404h17l209 -211h6l317 211h15l-359 -404h-14z" />
    <glyph glyph-name="scaron" unicode="&#x161;" horiz-adv-x="675" 
d="M250 -25q-111 0 -192 51t-81 136q0 48 32.5 83.5t80.5 35.5q37 0 62.5 -28t27.5 -65q0 -33 -18.5 -66.5t-44.5 -51.5q18 -23 69 -48.5t97 -25.5q76 0 116.5 55t40.5 117q0 25 -8 47.5t-28 47t-34 38.5t-46.5 43.5t-44.5 40.5q-85 80 -122.5 133.5t-37.5 122.5
q0 110 93.5 185t215.5 75q102 0 174 -43t72 -125q0 -51 -32.5 -83t-78.5 -32q-39 0 -66.5 30.5t-27.5 70.5q0 29 20.5 59t45.5 45q-1 1 -24.5 19t-46.5 27.5t-50 9.5q-70 0 -108 -51t-38 -109q0 -22 7 -43t27.5 -46t31 -36.5t44 -43t40.5 -38.5q83 -79 110 -113
q60 -77 60 -153q0 -112 -104 -191.5t-234 -79.5zM483 983l-190 403h16l209 -210h6l318 210h14l-358 -403h-15z" />
    <glyph glyph-name="Tcommaaccent" unicode="&#x162;" horiz-adv-x="1361" 
d="M684 -317q-19 -86 -121 -159.5t-227 -80.5l-4 8q83 10 140 56t69 108q10 48 -12.5 82t-60.5 40t-81 -11q-11 57 34.5 105t125.5 40q78 -6 116 -58.5t21 -129.5zM276 0l7 12l100 8q100 8 104 33l254 1209h-86q-69 -4 -137 -36t-124.5 -83t-101 -104.5t-83.5 -114.5
l-21 -29h-10l125 385h1118l-47 -385h-8l-6 27q-61 329 -309 340h-82l-258 -1215q-1 -8 5 -12.5t31.5 -8.5t77.5 -8l72 -6l2 -12h-623z" />
    <glyph glyph-name="tcommaaccent" unicode="&#x163;" horiz-adv-x="591" 
d="M289 -317q-19 -86 -121 -159.5t-227 -80.5l-4 8q83 10 139.5 56t68.5 108q10 48 -12.5 82t-60 40t-80.5 -11q-11 57 34.5 105t125.5 40q78 -6 116 -58.5t21 -129.5zM242 -25q-47 0 -135 36t-84 59q0 12 215 721l-160 4l37 82l153 2l86 264h193l-80 -264l172 -2l-8 -84
h-193l-231 -697l160 -12l129 213l14 -6q-71 -153 -142 -234.5t-126 -81.5z" />
    <glyph glyph-name="Tcaron" unicode="&#x164;" horiz-adv-x="1361" 
d="M864 1358l-190 403h16l209 -211h6l318 211h14l-358 -403h-15zM276 0l7 12l100 8q100 8 104 33l254 1209h-86q-69 -4 -137 -36t-124.5 -83t-101 -104.5t-83.5 -114.5l-21 -29h-10l125 385h1118l-47 -385h-8l-6 27q-61 329 -309 340h-82l-258 -1215q-1 -8 5 -12.5
t31.5 -8.5t77.5 -8l72 -6l2 -12h-623z" />
    <glyph glyph-name="tcaron" unicode="&#x165;" horiz-adv-x="833" 
d="M596 954l-4 7q83 29 134.5 78t51.5 108q0 24 -10.5 43t-28 30.5t-32 18t-31 11.5t-17.5 5q3 37 30.5 65t70.5 28q55 0 88 -39t33 -95q0 -85 -76.5 -158.5t-208.5 -101.5zM242 -25q-47 0 -135 36t-84 59q0 12 215 721l-160 4l37 82l153 2l86 264h193l-80 -264l172 -2
l-8 -84h-193l-231 -697l160 -12l129 213l14 -6q-71 -153 -142 -234.5t-126 -81.5z" />
    <glyph glyph-name="Umacron" unicode="&#x16a;" horiz-adv-x="1400" 
d="M727 -33q-155 0 -270 36.5t-183.5 116t-68.5 195.5q0 82 22 189q10 46 26 122t50 236t56.5 266t21.5 105q1 8 -5 12.5t-30.5 8.5t-75.5 8l-73 6l-2 12h620l-8 -12l-96 -8q-101 -8 -105 -33l-149 -711q-23 -98 -23 -176q0 -301 361 -301q152 0 244.5 95.5t134.5 299.5
l159 752q7 29 -27.5 49.5t-125.5 30.5l-37 2l-4 12h436l-8 -12l-39 -2q-75 -7 -117.5 -31t-48.5 -57l-162 -752q-50 -230 -159.5 -344.5t-313.5 -114.5zM721 1442l31 69h512l-31 -69h-512z" />
    <glyph glyph-name="umacron" unicode="&#x16b;" horiz-adv-x="1015" 
d="M705 -27q-33 0 -85.5 50t-52.5 96q0 45 40 179t102 282l-7 4q-95 -185 -182.5 -332.5t-138.5 -196.5q-33 -33 -77 -55.5t-75 -22.5q-68 0 -120 39t-52 82q0 82 101 332l139 354l-107 9l-135 -213l-12 6q72 149 149 233t125 84q32 0 100 -38.5t68 -63.5q-1 -9 -8.5 -33.5
t-22.5 -64t-30.5 -77.5t-38.5 -96.5t-39 -99.5q-15 -38 -42.5 -105.5t-41.5 -105t-14 -51.5q0 -24 32.5 -46t65.5 -22q44 0 148 156.5t235 431.5l74 197l190 -11l-116 -337l-134 -443l101 -10l133 213l12 -6q-71 -153 -147 -235.5t-137 -82.5zM393 1067l31 70h512l-31 -70
h-512z" />
    <glyph glyph-name="Ubreve" unicode="&#x16c;" horiz-adv-x="1400" 
d="M727 -33q-155 0 -270 36.5t-183.5 116t-68.5 195.5q0 82 22 189q10 46 26 122t50 236t56.5 266t21.5 105q1 8 -5 12.5t-30.5 8.5t-75.5 8l-73 6l-2 12h620l-8 -12l-96 -8q-101 -8 -105 -33l-149 -711q-23 -98 -23 -176q0 -301 361 -301q152 0 244.5 95.5t134.5 299.5
l159 752q7 29 -27.5 49.5t-125.5 30.5l-37 2l-4 12h436l-8 -12l-39 -2q-75 -7 -117.5 -31t-48.5 -57l-162 -752q-50 -230 -159.5 -344.5t-313.5 -114.5zM973 1370q-60 0 -101.5 29t-63 83t-30.5 117t-8 144h16q15 -124 65.5 -181t141.5 -57q89 0 162.5 57t140.5 181h19
q-31 -73 -51.5 -117.5t-53.5 -99t-64.5 -84.5t-76 -51t-96.5 -21z" />
    <glyph glyph-name="ubreve" unicode="&#x16d;" horiz-adv-x="1015" 
d="M705 -27q-33 0 -85.5 50t-52.5 96q0 45 40 179t102 282l-7 4q-95 -185 -182.5 -332.5t-138.5 -196.5q-33 -33 -77 -55.5t-75 -22.5q-68 0 -120 39t-52 82q0 82 101 332l139 354l-107 9l-135 -213l-12 6q72 149 149 233t125 84q32 0 100 -38.5t68 -63.5q-1 -9 -8.5 -33.5
t-22.5 -64t-30.5 -77.5t-38.5 -96.5t-39 -99.5q-15 -38 -42.5 -105.5t-41.5 -105t-14 -51.5q0 -24 32.5 -46t65.5 -22q44 0 148 156.5t235 431.5l74 197l190 -11l-116 -337l-134 -443l101 -10l133 213l12 -6q-71 -153 -147 -235.5t-137 -82.5zM641 995q-60 0 -101.5 29
t-63 83t-30.5 117t-8 144h17q15 -124 65.5 -181t141.5 -57q89 0 162.5 57t140.5 181h18q-31 -73 -51.5 -117.5t-53.5 -99t-64.5 -84.5t-76 -51t-96.5 -21z" />
    <glyph glyph-name="Uring" unicode="&#x16e;" horiz-adv-x="1400" 
d="M975 1395q-82 0 -132 53t-50 131q0 76 50 130t132 54t132 -54t50 -130q0 -78 -50 -131t-132 -53zM975 1413q73 0 117.5 48t44.5 118q0 69 -44.5 117.5t-117.5 48.5t-117.5 -48.5t-44.5 -117.5q0 -70 44.5 -118t117.5 -48zM727 -33q-155 0 -270 36.5t-183.5 116
t-68.5 195.5q0 82 22 189q10 46 26 122t50 236t56.5 266t21.5 105q1 8 -5 12.5t-30.5 8.5t-75.5 8l-73 6l-2 12h620l-8 -12l-96 -8q-101 -8 -105 -33l-149 -711q-23 -98 -23 -176q0 -301 361 -301q152 0 244.5 95.5t134.5 299.5l159 752q7 29 -27.5 49.5t-125.5 30.5l-37 2
l-4 12h436l-8 -12l-39 -2q-75 -7 -117.5 -31t-48.5 -57l-162 -752q-50 -230 -159.5 -344.5t-313.5 -114.5z" />
    <glyph glyph-name="uring" unicode="&#x16f;" horiz-adv-x="1015" 
d="M643 1010q-82 0 -132 53t-50 131q0 76 50 130t132 54t132 -54t50 -130q0 -78 -50 -131t-132 -53zM643 1028q73 0 117.5 48t44.5 118q0 69 -44.5 117.5t-117.5 48.5t-117.5 -48.5t-44.5 -117.5q0 -70 44.5 -118t117.5 -48zM705 -27q-33 0 -85.5 50t-52.5 96q0 45 40 179
t102 282l-7 4q-95 -185 -182.5 -332.5t-138.5 -196.5q-33 -33 -77 -55.5t-75 -22.5q-68 0 -120 39t-52 82q0 82 101 332l139 354l-107 9l-135 -213l-12 6q72 149 149 233t125 84q32 0 100 -38.5t68 -63.5q-1 -9 -8.5 -33.5t-22.5 -64t-30.5 -77.5t-38.5 -96.5t-39 -99.5
q-15 -38 -42.5 -105.5t-41.5 -105t-14 -51.5q0 -24 32.5 -46t65.5 -22q44 0 148 156.5t235 431.5l74 197l190 -11l-116 -337l-134 -443l101 -10l133 213l12 -6q-71 -153 -147 -235.5t-137 -82.5z" />
    <glyph glyph-name="Uhungarumlaut" unicode="&#x170;" horiz-adv-x="1400" 
d="M727 -33q-155 0 -270 36.5t-183.5 116t-68.5 195.5q0 82 22 189q10 46 26 122t50 236t56.5 266t21.5 105q1 8 -5 12.5t-30.5 8.5t-75.5 8l-73 6l-2 12h620l-8 -12l-96 -8q-101 -8 -105 -33l-149 -711q-23 -98 -23 -176q0 -301 361 -301q152 0 244.5 95.5t134.5 299.5
l159 752q7 29 -27.5 49.5t-125.5 30.5l-37 2l-4 12h436l-8 -12l-39 -2q-75 -7 -117.5 -31t-48.5 -57l-162 -752q-50 -230 -159.5 -344.5t-313.5 -114.5zM1012 1380l268 383h201l-457 -383h-12zM676 1380l270 383h199l-457 -383h-12z" />
    <glyph glyph-name="uhungarumlaut" unicode="&#x171;" horiz-adv-x="1015" 
d="M705 -27q-33 0 -85.5 50t-52.5 96q0 45 40 179t102 282l-7 4q-95 -185 -182.5 -332.5t-138.5 -196.5q-33 -33 -77 -55.5t-75 -22.5q-68 0 -120 39t-52 82q0 82 101 332l139 354l-107 9l-135 -213l-12 6q72 149 149 233t125 84q32 0 100 -38.5t68 -63.5q-1 -9 -8.5 -33.5
t-22.5 -64t-30.5 -77.5t-38.5 -96.5t-39 -99.5q-15 -38 -42.5 -105.5t-41.5 -105t-14 -51.5q0 -24 32.5 -46t65.5 -22q44 0 148 156.5t235 431.5l74 197l190 -11l-116 -337l-134 -443l101 -10l133 213l12 -6q-71 -153 -147 -235.5t-137 -82.5zM733 1006l268 383h201
l-457 -383h-12zM397 1006l271 383h198l-456 -383h-13z" />
    <glyph glyph-name="Uogonek" unicode="&#x172;" horiz-adv-x="1400" 
d="M715 -487q-74 0 -116 45.5t-42 119.5q0 92 80.5 168t200.5 129q-54 -8 -111 -8q-155 0 -270 36.5t-183.5 116.5t-68.5 197q0 80 22 187q10 46 26 122t50 236t56.5 266t21.5 105q1 8 -5 12.5t-30.5 8.5t-75.5 8l-73 6l-2 12h622l-8 -12l-96 -8q-103 -8 -107 -33l-149 -711
q-21 -102 -21 -176q0 -301 361 -301q151 0 242.5 95t134.5 300l161 752q7 29 -28 49.5t-127 30.5l-37 2l-4 12h436l-8 -12l-39 -2q-75 -7 -117.5 -31t-48.5 -57l-162 -752q-37 -172 -106 -273t-191 -163q-97 -49 -155 -124t-58 -149q0 -60 29 -93.5t88 -33.5q9 0 17 0.5
t16 3t14 3.5t14 5t11.5 6t12.5 8t12 7.5t13 9t13 9.5l2 -4q-39 -51 -95 -88t-122 -37z" />
    <glyph glyph-name="uogonek" unicode="&#x173;" horiz-adv-x="1015" 
d="M594 -487q-74 0 -116 45.5t-42 119.5q0 92 76.5 167.5t192.5 127.5q-36 3 -87 54t-51 92q0 45 41 178t103 283l-9 4q-95 -185 -182.5 -332.5t-138.5 -196.5q-33 -33 -77 -55.5t-75 -22.5q-68 0 -120 39t-52 82q0 82 101 332l139 352l-107 11l-135 -215l-12 6
q72 150 149 234.5t125 84.5q34 0 101 -39t67 -65q-2 -26 -139 -369q-15 -38 -42.5 -105.5t-41.5 -105t-14 -51.5q0 -24 32.5 -46t65.5 -22q45 0 149.5 156t233.5 432l74 197l192 -11l-116 -337l-134 -443l101 -10l133 213l12 -6q-113 -237 -227 -305q-96 -53 -145.5 -124
t-49.5 -145q0 -59 29.5 -93t87.5 -34q9 0 17 0.5t16 3t14 3.5t14 5t11.5 6t12.5 8t12 7.5t13 9t13 9.5l2 -4q-39 -51 -95 -88t-122 -37z" />
    <glyph glyph-name="Wcircumflex" unicode="&#x174;" horiz-adv-x="2031" 
d="M950 1358l359 403h14l190 -403h-16l-207 211h-6l-321 -211h-13zM555 -33l-184 1045q-11 62 -17 93t-15.5 64.5t-17.5 46.5t-23 26t-32 16.5t-45 5.5l-51 4l-2 12h592l-8 -12l-62 -2q-84 -3 -104 -30t-6 -120l143 -844l4 -2l408 676l-11 68q-29 161 -52 202.5t-97 47.5
l-57 4l-3 12h598l-8 -12l-63 -2q-62 -2 -87 -14t-31 -47t7 -99l123 -832h4l387 670q95 167 111 212q20 61 -19 83q-31 17 -120 25l-41 4l-2 12h450l-8 -12l-31 -4q-34 -4 -56 -9.5t-47 -21.5t-42.5 -34t-47 -61t-56.5 -87.5t-74 -126.5l-553 -957h-21l-147 938h-4l-568 -938
h-14z" />
    <glyph glyph-name="wcircumflex" unicode="&#x175;" horiz-adv-x="1198" 
d="M473 983l358 403h15l190 -403h-16l-207 211h-6l-322 -211h-12zM213 -25q-67 0 -111.5 51t-44.5 124q0 58 37 137t83.5 145t106.5 151.5t89 137.5l-230 39l-98 -166l-10 6q74 160 131 235.5t106 75.5q26 0 74.5 -7t87 -16.5t37.5 -15.5q-3 -19 -41.5 -90t-82.5 -149.5
t-80 -175t-36 -162.5q0 -77 29 -115.5t82 -38.5q154 0 414 525q0 2 -10.5 8t-26.5 16.5t-32 24t-27 35t-11 45.5q0 47 30.5 76.5t76.5 29.5q42 0 73 -31t31 -73q0 -36 -16 -68.5t-37.5 -56.5t-50 -69.5t-47.5 -98.5q-47 -128 -47 -201q0 -81 41 -121.5t114 -40.5
q83 0 158 82.5t118.5 213t41.5 265.5q-59 -21 -107.5 8.5t-48.5 84.5q0 44 30 77t72 33q52 0 84.5 -39t32.5 -100q0 -132 -90 -354.5t-205 -339.5q-94 -97 -178 -97q-67 0 -103 50.5t-36 113.5q0 87 88 322q-60 -104 -111 -181.5t-111.5 -151.5t-121 -113.5t-117.5 -39.5z
" />
    <glyph glyph-name="Ycircumflex" unicode="&#x176;" horiz-adv-x="1302" 
d="M248 0l6 12l98 8q50 4 76.5 13.5t28.5 19.5l112 525l-178 514q-34 99 -65 132.5t-97 39.5l-49 4l-2 12h600l-8 -12l-39 -2q-96 -6 -117 -40t9 -110l161 -483h4l234 311q124 173 145 210q32 58 6 79q-21 18 -114 29l-45 6l-2 12h448l-8 -12l-55 -6q-72 -9 -139 -70.5
t-209 -251.5l-252 -338l-117 -555q-1 -8 5.5 -12.5t32 -8.5t77.5 -8l71 -6l2 -12h-620zM596 1358l358 403h15l190 -403h-16l-207 211h-6l-322 -211h-12z" />
    <glyph glyph-name="ycircumflex" unicode="&#x177;" horiz-adv-x="886" 
d="M-86 -373q-93 0 -139.5 38t-46.5 102q0 45 33.5 75.5t78.5 30.5q42 0 72 -26.5t34 -68.5t-26 -93l78 -25q177 38 371 236q4 489 -37.5 698t-138.5 209h-29l-123 -223l-14 6q79 170 103 209q51 84 115 102q22 6 50 6q93 0 148 -76.5t79.5 -255.5t18.5 -483l4 -2
q114 171 182.5 341t75.5 314q-51 -42 -95.5 -38t-75 34t-32.5 66q-2 46 27.5 78t81.5 32q51 0 88 -40.5t37 -114.5q0 -199 -128.5 -448.5t-318.5 -434.5q-114 -114 -238 -181t-235 -67zM236 983l358 403h14l191 -403h-17l-207 211h-6l-321 -211h-12z" />
    <glyph glyph-name="Ydieresis" unicode="&#x178;" horiz-adv-x="1302" 
d="M248 0l6 12l98 8q50 4 76.5 13.5t28.5 19.5l112 525l-178 514q-34 99 -65 132.5t-97 39.5l-49 4l-2 12h600l-8 -12l-39 -2q-96 -6 -117 -40t9 -110l161 -483h4l234 311q124 173 145 210q32 58 6 79q-21 18 -114 29l-45 6l-2 12h448l-8 -12l-55 -6q-72 -9 -139 -70.5
t-209 -251.5l-252 -338l-117 -555q-1 -8 5.5 -12.5t32 -8.5t77.5 -8l71 -6l2 -12h-620zM1034 1380q-52 0 -82 36t-30 77q0 43 30 81t82 38t82.5 -38t30.5 -81q0 -41 -30.5 -77t-82.5 -36zM651 1380q-52 0 -82 36t-30 77q0 43 30 81t82 38t82.5 -38t30.5 -81q0 -41 -30.5 -77
t-82.5 -36z" />
    <glyph glyph-name="Zacute" unicode="&#x179;" horiz-adv-x="1206" 
d="M668 1380l268 383h217l-473 -383h-12zM-31 0l2 10l1045 1243l-2 4l-205 3q-98 0 -180.5 -18.5t-142 -49t-108.5 -76t-81.5 -93.5t-60.5 -108l-11 -20h-10l86 385h995l-4 -10l-1048 -1241v-4l235 -5q88 -1 158.5 8.5t128 33.5t102.5 54t87.5 79t76.5 100t76 125l14 29h15
l-129 -449h-1039z" />
    <glyph glyph-name="zacute" unicode="&#x17a;" horiz-adv-x="776" 
d="M424 1006l268 383h217l-473 -383h-12zM481 -45q-48 0 -94.5 23t-81.5 55.5t-66.5 65.5t-62.5 56.5t-57 24.5h-10l-64 -205q-38 5 -69 30.5t-31 60.5q0 48 40 80.5t89 39.5l528 488q-38 -7 -65.5 -8.5t-57.5 10.5t-51 24t-45.5 33.5t-41.5 38.5l-38.5 38.5t-36.5 33.5
q-8 5 -46 -39q-34 -40 -23 -41q45 -3 73.5 -32t28.5 -68q0 -42 -30 -71.5t-74 -29.5q-43 0 -69 31t-26 74q0 56 53.5 112.5t121 90.5t116.5 36q50 -3 86 -24t53.5 -50t30 -57.5t25.5 -49.5t30 -24l9 3l57 200q37 -7 68.5 -33t31.5 -59q0 -50 -36 -79t-84 -36l-531 -487
q39 9 77.5 10t74 -8t67 -19.5t63.5 -30.5t54.5 -35t50 -39t40.5 -36t34 -33q5 -4 25 25q33 48 29 60q-1 1 -3 1q-48 0 -78 34t-30 75q0 43 29.5 70.5t74.5 27.5q43 0 68.5 -33t25.5 -77q0 -82 -88 -163.5t-164 -84.5z" />
    <glyph glyph-name="Zdotaccent" unicode="&#x17b;" horiz-adv-x="1206" 
d="M-31 0l2 10l1045 1243l-2 4l-205 3q-98 0 -180.5 -18.5t-142 -49t-108.5 -76t-81.5 -93.5t-60.5 -108l-11 -20h-10l86 385h995l-4 -10l-1048 -1241v-4l235 -5q88 -1 158.5 8.5t128 33.5t102.5 54t87.5 79t76.5 100t76 125l14 29h15l-129 -449h-1039zM782 1442
q-57 0 -90 38.5t-33 82.5q0 47 32.5 87t88.5 40q57 0 89 -40t32 -87q0 -44 -32 -82.5t-87 -38.5z" />
    <glyph glyph-name="zdotaccent" unicode="&#x17c;" horiz-adv-x="776" 
d="M481 -45q-48 0 -94.5 23t-81.5 55.5t-66.5 65.5t-62.5 56.5t-57 24.5h-10l-64 -205q-38 5 -69 30.5t-31 60.5q0 48 40 80.5t89 39.5l528 488q-38 -7 -65.5 -8.5t-57.5 10.5t-51 24t-45.5 33.5t-41.5 38.5l-38.5 38.5t-36.5 33.5q-8 5 -46 -39q-34 -40 -23 -41
q45 -3 73.5 -32t28.5 -68q0 -42 -30 -71.5t-74 -29.5q-43 0 -69 31t-26 74q0 56 53.5 112.5t121 90.5t116.5 36q50 -3 86 -24t53.5 -50t30 -57.5t25.5 -49.5t30 -24l9 3l57 200q37 -7 68.5 -33t31.5 -59q0 -50 -36 -79t-84 -36l-531 -487q39 9 77.5 10t74 -8t67 -19.5
t63.5 -30.5t54.5 -35t50 -39t40.5 -36t34 -33q5 -4 25 25q33 48 29 60q-1 1 -3 1q-48 0 -78 34t-30 75q0 43 29.5 70.5t74.5 27.5q43 0 68.5 -33t25.5 -77q0 -82 -88 -163.5t-164 -84.5zM528 1067q-57 0 -89.5 38.5t-32.5 82.5q0 47 32 87t88 40q57 0 89 -40t32 -87
q0 -44 -32 -82.5t-87 -38.5z" />
    <glyph glyph-name="Zcaron" unicode="&#x17d;" horiz-adv-x="1206" 
d="M-31 0l2 10l1045 1243l-2 4l-205 3q-98 0 -180.5 -18.5t-142 -49t-108.5 -76t-81.5 -93.5t-60.5 -108l-11 -20h-10l86 385h995l-4 -10l-1048 -1241v-4l235 -5q88 -1 158.5 8.5t128 33.5t102.5 54t87.5 79t76.5 100t76 125l14 29h15l-129 -449h-1039zM737 1331l-190 404
h16l209 -211h6l318 211h14l-358 -404h-15z" />
    <glyph glyph-name="zcaron" unicode="&#x17e;" horiz-adv-x="774" 
d="M481 -45q-48 0 -94.5 23t-81.5 55.5t-66.5 65.5t-62.5 56.5t-57 24.5h-10l-64 -205q-38 5 -69 30.5t-31 60.5q0 48 40 80.5t89 39.5l528 488q-38 -7 -65.5 -8.5t-57.5 10.5t-51 24t-45.5 33.5t-41.5 38.5l-38.5 38.5t-36.5 33.5q-8 5 -46 -39q-34 -40 -23 -41
q45 -3 73.5 -32t28.5 -68q0 -42 -30 -71.5t-74 -29.5q-43 0 -69 31t-26 74q0 56 53.5 112.5t121 90.5t116.5 36q50 -3 86 -24t53.5 -50t30 -57.5t25.5 -49.5t30 -24l9 3l57 200q37 -7 68.5 -33t31.5 -59q0 -50 -36 -79t-84 -36l-531 -487q39 9 77.5 10t74 -8t67 -19.5
t63.5 -30.5t54.5 -35t50 -39t40.5 -36t34 -33q5 -4 25 25q33 48 29 60q-1 1 -3 1q-48 0 -78 34t-30 75q0 43 29.5 70.5t74.5 27.5q43 0 68.5 -33t25.5 -77q0 -82 -88 -163.5t-164 -84.5zM537 983l-191 403h16l209 -210h7l317 210h14l-358 -403h-14z" />
    <glyph glyph-name="florin" unicode="&#x192;" horiz-adv-x="1073" 
d="M182 -145q-84 0 -137 36t-53 95q0 41 31 74.5t81 33.5q40 0 72 -30t36 -73t-32 -91q37 -21 62 -21q32 0 55.5 26t50 101t53.5 189t66 309l45 241l-227 3l37 83h215q68 267 180 379q102 99 260 99q87 0 137.5 -37t50.5 -96q0 -46 -34 -79.5t-78 -33.5q-52 0 -80 34.5
t-18 82.5t59 82q-37 28 -70 28q-31 0 -57.5 -23.5t-46.5 -60.5t-39.5 -100.5t-33.5 -124t-32 -150.5l248 -2l-8 -84h-256l-64 -266q-48 -198 -105.5 -326t-137.5 -210q-84 -88 -230 -88z" />
    <glyph glyph-name="Aringacute" unicode="&#x1fa;" horiz-adv-x="1277" 
d="M686 1618l268 383h217l-473 -383h-12zM721 549h-332q1 0 -28.5 -52t-58.5 -105l-30 -52q-98 -173 -110 -199q-32 -69 -7 -93t134 -32l53 -4l2 -12h-450l6 12l34 4q28 3 45.5 6t39 14t34 20t36 37t39 51t48 77t58.5 100t75 134l461 821q-46 22 -72 66t-26 98q0 76 50 130
t132 54t132 -54t50 -130q0 -69 -42.5 -120t-112.5 -60l92 -984q14 -109 32 -163t44 -73t75 -22l60 -6v-12h-606l8 12l59 4q78 4 97 47.5t6 151.5zM854 1274q73 0 117.5 48t44.5 118q0 69 -44.5 117.5t-117.5 48.5t-117.5 -48.5t-44.5 -117.5q0 -70 44.5 -118t117.5 -48z
M403 575h316l-39 484h-4q-271 -484 -273 -484z" />
    <glyph glyph-name="aringacute" unicode="&#x1fb;" horiz-adv-x="960" 
d="M477 1409l268 383h218l-474 -383h-12zM631 1020q-82 0 -132 53t-50 131q0 77 50 131t132 54t132 -54t50 -131q0 -78 -50 -131t-132 -53zM653 -25q-34 0 -105 39.5t-71 63.5q0 71 94 309h-4q-17 -27 -48 -77q-42 -68 -62 -99.5t-52 -79t-52 -68.5t-46.5 -45t-50.5 -32.5
t-51 -8.5q-78 0 -132.5 57t-54.5 146q0 144 85 293.5t210 274.5q69 70 139.5 107.5t129.5 37.5q53 0 72.5 -50.5t13.5 -170.5h4l86 225l186 -8l-168 -436l-117 -357l111 -12l133 215l12 -6q-72 -153 -143 -235.5t-119 -82.5zM631 1038q73 0 117.5 48t44.5 118
q0 69 -44.5 117.5t-117.5 48.5t-117.5 -48.5t-44.5 -117.5q0 -70 44.5 -118t117.5 -48zM299 102q100 0 281 363q59 116 59 168q0 66 -47 115t-107 49q-46 0 -88 -39q-68 -69 -125 -230t-57 -282q0 -69 23 -106.5t61 -37.5z" />
    <glyph glyph-name="AEacute" unicode="&#x1fc;" horiz-adv-x="1771" 
d="M1180 1380l268 383h217l-473 -383h-12zM784 549h-346l-157 -197q-27 -34 -73 -91q-106 -133 -123 -167q-20 -42 14 -58q25 -11 106 -20l35 -4l6 -12h-436l6 12l37 4q30 3 49 5.5t42.5 12t37.5 16t40 30t42.5 40.5t53.5 60.5t64 77t82 102.5l641 803q19 26 25 41.5
t-1.5 29t-37 20.5t-84.5 10l-76 4l-2 12h969l18 -408h-12l-8 25q-25 81 -46.5 132.5t-54.5 100t-74 74.5t-101 41.5t-140 14.5l-119 -3l-123 -589l90 2q153 8 222.5 45t113.5 137l15 33l14 -2l-98 -461l-15 2l4 33q4 39 0.5 66.5t-17 48t-32 33t-53.5 21t-73.5 12.5t-98.5 7
l-78 4l-129 -618l227 -11q100 1 182 29t146.5 82t112 115.5t98.5 148.5l19 27h12l-148 -422h-1071l6 14l88 9q103 8 107 32zM459 575h332l116 560h-4z" />
    <glyph glyph-name="aeacute" unicode="&#x1fd;" horiz-adv-x="1286" 
d="M705 1006l268 383h217l-473 -383h-12zM205 -25q-79 0 -133 57.5t-54 147.5q0 144 85 293.5t210 274.5q150 153 265 153t118 -223q77 103 177 164t206 61q100 0 160.5 -46t60.5 -118q0 -100 -126 -162t-396 -106q-24 -98 -24 -172q0 -105 40 -157t124 -52q76 0 136.5 46
t133.5 167l14 -6q-78 -146 -176.5 -233t-206.5 -87q-116 0 -192 84t-76 207q0 61 4 90q-130 -209 -179 -270q-93 -109 -171 -113zM786 487q182 40 262 103.5t80 171.5q0 115 -77 115q-46 0 -105 -56q-48 -50 -93 -141t-71 -191zM297 100q101 0 283 365q59 116 59 168
q0 66 -47 115t-107 49q-46 0 -88 -39q-68 -69 -125 -230t-57 -282q0 -69 22.5 -107.5t59.5 -38.5z" />
    <glyph glyph-name="Oslashacute" unicode="&#x1fe;" horiz-adv-x="1503" 
d="M1237 1180q114 -90 177 -221t63 -283q0 -186 -92 -346.5t-259.5 -258.5t-371.5 -98q-215 0 -377 111q1 0 -44.5 -58.5t-91.5 -117.5l-46 -58h-27l192 246q-115 85 -179 217t-64 285q0 133 53 260t145 227t229.5 161t295.5 61q219 0 379 -115l174 219h26zM416 166l751 958
q-48 76 -126.5 118t-178.5 42q-114 0 -213.5 -79.5t-164 -204t-101.5 -272t-37 -288.5q0 -159 70 -274zM1180 1106l-752 -959q103 -153 299 -153q108 0 206 73.5t166 191.5t108 268t40 300q0 166 -67 279zM852 1372l268 383h217l-473 -383h-12z" />
    <glyph glyph-name="oslashacute" unicode="&#x1ff;" horiz-adv-x="839" 
d="M709 786q94 -112 94 -268q0 -127 -69.5 -253.5t-179.5 -207t-220 -80.5q-112 0 -193 84l-254 -323h-26l266 340q-94 108 -94 274q0 125 69 253t176 210t211 82q117 0 205 -94l291 368h27q-301 -385 -303 -385zM625 678l-416 -531q6 -68 31 -106.5t63 -38.5q80 0 150.5 93
t121.5 253q24 75 37 166t13 154v10zM207 180l416 531q-4 75 -30 116t-65 41q-62 0 -141.5 -114t-132.5 -277q-47 -145 -47 -287v-10zM471 985l268 383h217l-473 -383h-12z" />
    <glyph glyph-name="Scommaaccent" unicode="&#x218;" horiz-adv-x="1032" 
d="M573 -317q-19 -86 -121 -159.5t-227 -80.5l-4 8q83 10 140 56t69 108q10 48 -12.5 82t-60.5 40t-81 -11q-11 57 34.5 105t125.5 40q78 -6 116 -58.5t21 -129.5zM471 -25q-139 0 -258 36.5t-188 82.5l49 312h8l41 -146q33 -131 121 -198.5t215 -67.5t214 89t87 212
q0 90 -64.5 157t-189.5 132q-138 73 -215.5 159.5t-77.5 204.5q0 66 29 129.5t80.5 115t130 83t170.5 31.5q151 0 327 -80l90 20l-63 -338h-6l-101 281q-39 41 -98 68.5t-127 27.5q-105 0 -179.5 -68.5t-74.5 -168.5q0 -89 55 -147.5t191 -127.5q153 -82 232 -171t79 -216
q0 -73 -33.5 -146t-93 -132.5t-151.5 -96.5t-199 -37z" />
    <glyph glyph-name="scommaaccent" unicode="&#x219;" horiz-adv-x="677" 
d="M336 -317q-19 -86 -121 -159.5t-227 -80.5l-4 8q83 10 140 56t69 108q10 48 -12.5 82t-60.5 40t-81 -11q-11 57 34.5 105t125.5 40q78 -6 116 -58.5t21 -129.5zM250 -25q-111 0 -192 51t-81 136q0 48 32.5 83.5t80.5 35.5q37 0 62.5 -28t27.5 -65q0 -33 -18.5 -66.5
t-44.5 -51.5q18 -23 69 -48.5t97 -25.5q76 0 116.5 55t40.5 117q0 25 -8 47.5t-28 47t-34 38.5t-46.5 43.5t-44.5 40.5q-85 80 -122.5 133.5t-37.5 122.5q0 110 93.5 185t215.5 75q102 0 174 -43t72 -125q0 -51 -32.5 -83t-78.5 -32q-39 0 -66.5 30.5t-27.5 70.5
q0 29 20.5 59t45.5 45q-1 1 -24.5 19t-46.5 27.5t-50 9.5q-70 0 -108 -51t-38 -109q0 -22 7 -43t27.5 -46t31 -36.5t44 -43t40.5 -38.5q83 -79 110 -113q60 -77 60 -153q0 -112 -104 -191.5t-234 -79.5z" />
    <glyph glyph-name="uni021A" unicode="&#x21a;" horiz-adv-x="1361" 
d="M684 -317q-19 -86 -121 -159.5t-227 -80.5l-4 8q83 10 140 56t69 108q10 48 -12.5 82t-60.5 40t-81 -11q-11 57 34.5 105t125.5 40q78 -6 116 -58.5t21 -129.5zM276 0l7 12l100 8q100 8 104 33l254 1209h-86q-69 -4 -137 -36t-124.5 -83t-101 -104.5t-83.5 -114.5
l-21 -29h-10l125 385h1118l-47 -385h-8l-6 27q-61 329 -309 340h-82l-258 -1215q-1 -8 5 -12.5t31.5 -8.5t77.5 -8l72 -6l2 -12h-623z" />
    <glyph glyph-name="uni021B" unicode="&#x21b;" horiz-adv-x="591" 
d="M289 -317q-19 -86 -121 -159.5t-227 -80.5l-4 8q83 10 139.5 56t68.5 108q10 48 -12.5 82t-60 40t-80.5 -11q-11 57 34.5 105t125.5 40q78 -6 116 -58.5t21 -129.5zM242 -25q-47 0 -135 36t-84 59q0 12 215 721l-160 4l37 82l153 2l86 264h193l-80 -264l172 -2l-8 -84
h-193l-231 -697l160 -12l129 213l14 -6q-71 -153 -142 -234.5t-126 -81.5z" />
    <glyph glyph-name="dotlessj" unicode="&#x237;" horiz-adv-x="493" 
d="M326 903q42 0 94.5 -47t52.5 -94q0 -50 -88 -305.5t-168 -444.5q-121 -288 -248 -415q-47 -47 -105 -77t-112 -30t-98.5 35t-44.5 90q0 41 29 72.5t77 31.5q43 0 72.5 -29.5t28 -77t-42.5 -91.5l100 33q31 33 60 94.5t46 113t58 183.5l264 837l-121 9l-137 -211l-12 6
q71 151 151 234t144 83z" />
    <glyph glyph-name="circumflex" unicode="&#x2c6;" horiz-adv-x="757" 
d="M215 983l358 403h15l190 -403h-16l-207 211h-6l-322 -211h-12z" />
    <glyph glyph-name="caron" unicode="&#x2c7;" horiz-adv-x="757" 
d="M487 983l-190 403h16l209 -210h6l318 210h14l-358 -403h-15z" />
    <glyph glyph-name="breve" unicode="&#x2d8;" horiz-adv-x="778" 
d="M522 995q-60 0 -101.5 29t-63 83t-30.5 117t-8 144h17q15 -124 65.5 -181t141.5 -57q89 0 162.5 57t140.5 181h18q-31 -73 -51.5 -117.5t-53.5 -99t-64.5 -84.5t-76 -51t-96.5 -21z" />
    <glyph glyph-name="dotaccent" unicode="&#x2d9;" horiz-adv-x="786" 
d="M555 1067q-57 0 -90 38.5t-33 82.5q0 47 32.5 87t88.5 40q57 0 89 -40t32 -87q0 -44 -32 -82.5t-87 -38.5z" />
    <glyph glyph-name="ring" unicode="&#x2da;" horiz-adv-x="757" 
d="M545 1020q-82 0 -132.5 53.5t-50.5 130.5q0 76 50.5 130.5t132.5 54.5t132 -54t50 -131q0 -78 -50 -131t-132 -53zM545 1038q73 0 117.5 48t44.5 118q0 69 -44.5 117.5t-117.5 48.5t-117.5 -48.5t-44.5 -117.5q0 -70 44.5 -118t117.5 -48z" />
    <glyph glyph-name="ogonek" unicode="&#x2db;" horiz-adv-x="784" 
d="M227 -487q-73 0 -114 47.5t-41 122.5q0 62 36 119t97 101t125 76t135 56h29q-144 -56 -216.5 -140t-72.5 -174q0 -131 114 -131q9 0 17 0.5t16 3t14 3.5t14 5t11.5 6t12.5 8t12 7.5t13 9t13 9.5l2 -4q-39 -51 -95 -88t-122 -37z" />
    <glyph glyph-name="tilde" unicode="&#x2dc;" horiz-adv-x="778" 
d="M688 1018q-53 0 -124.5 32t-135 63.5t-98.5 31.5q-22 0 -33.5 -2t-26 -12t-25 -34t-18.5 -63h-16q32 135 69 185.5t113 50.5q41 0 94.5 -20t97 -43.5t89.5 -43.5t74 -20q22 0 34.5 3t27.5 13t25.5 33t18.5 61h16q-32 -135 -69 -185t-113 -50z" />
    <glyph glyph-name="hungarumlaut" unicode="&#x2dd;" horiz-adv-x="817" 
d="M596 1006l268 383h201l-457 -383h-12zM260 1006l270 383h199l-457 -383h-12z" />
    <glyph glyph-name="Wgrave" unicode="&#x1e80;" horiz-adv-x="2031" 
d="M555 -33l-184 1045q-11 62 -17 93t-15.5 64.5t-17.5 46.5t-23 26t-32 16.5t-45 5.5l-51 4l-2 12h592l-8 -12l-62 -2q-84 -3 -104 -30t-6 -120l143 -844l4 -2l408 676l-11 68q-29 161 -52 202.5t-97 47.5l-57 4l-3 12h598l-8 -12l-63 -2q-62 -2 -87 -14t-31 -47t7 -99
l123 -832h4l387 670q95 167 111 212q20 61 -19 83q-31 17 -120 25l-41 4l-2 12h450l-8 -12l-31 -4q-34 -4 -56 -9.5t-47 -21.5t-42.5 -34t-47 -61t-56.5 -87.5t-74 -126.5l-553 -957h-21l-147 938h-4l-568 -938h-14zM1323 1380l-315 383h196l133 -383h-14z" />
    <glyph glyph-name="wgrave" unicode="&#x1e81;" horiz-adv-x="1198" 
d="M213 -25q-67 0 -111.5 51t-44.5 124q0 58 37 137t83.5 145t106.5 151.5t89 137.5l-230 39l-98 -166l-10 6q74 160 131 235.5t106 75.5q26 0 74.5 -7t87 -16.5t37.5 -15.5q-3 -19 -41.5 -90t-82.5 -149.5t-80 -175t-36 -162.5q0 -77 29 -115.5t82 -38.5q154 0 414 525
q0 2 -10.5 8t-26.5 16.5t-32 24t-27 35t-11 45.5q0 47 30.5 76.5t76.5 29.5q42 0 73 -31t31 -73q0 -36 -16 -68.5t-37.5 -56.5t-50 -69.5t-47.5 -98.5q-47 -128 -47 -201q0 -81 41 -121.5t114 -40.5q83 0 158 82.5t118.5 213t41.5 265.5q-59 -21 -107.5 8.5t-48.5 84.5
q0 44 30 77t72 33q52 0 84.5 -39t32.5 -100q0 -132 -90 -354.5t-205 -339.5q-94 -97 -178 -97q-67 0 -103 50.5t-36 113.5q0 87 88 322q-60 -104 -111 -181.5t-111.5 -151.5t-121 -113.5t-117.5 -39.5zM784 1006l-315 383h197l133 -383h-15z" />
    <glyph glyph-name="Wacute" unicode="&#x1e82;" horiz-adv-x="2031" 
d="M1122 1380l269 383h217l-473 -383h-13zM555 -33l-184 1045q-11 62 -17 93t-15.5 64.5t-17.5 46.5t-23 26t-32 16.5t-45 5.5l-51 4l-2 12h592l-8 -12l-62 -2q-84 -3 -104 -30t-6 -120l143 -844l4 -2l408 676l-11 68q-29 161 -52 202.5t-97 47.5l-57 4l-3 12h598l-8 -12
l-63 -2q-62 -2 -87 -14t-31 -47t7 -99l123 -832h4l387 670q95 167 111 212q20 61 -19 83q-31 17 -120 25l-41 4l-2 12h450l-8 -12l-31 -4q-34 -4 -56 -9.5t-47 -21.5t-42.5 -34t-47 -61t-56.5 -87.5t-74 -126.5l-553 -957h-21l-147 938h-4l-568 -938h-14z" />
    <glyph glyph-name="wacute" unicode="&#x1e83;" horiz-adv-x="1198" 
d="M731 1006l268 383h218l-474 -383h-12zM213 -25q-67 0 -111.5 51t-44.5 124q0 58 37 137t83.5 145t106.5 151.5t89 137.5l-230 39l-98 -166l-10 6q74 160 131 235.5t106 75.5q26 0 74.5 -7t87 -16.5t37.5 -15.5q-3 -19 -41.5 -90t-82.5 -149.5t-80 -175t-36 -162.5
q0 -77 29 -115.5t82 -38.5q154 0 414 525q0 2 -10.5 8t-26.5 16.5t-32 24t-27 35t-11 45.5q0 47 30.5 76.5t76.5 29.5q42 0 73 -31t31 -73q0 -36 -16 -68.5t-37.5 -56.5t-50 -69.5t-47.5 -98.5q-47 -128 -47 -201q0 -81 41 -121.5t114 -40.5q83 0 158 82.5t118.5 213
t41.5 265.5q-59 -21 -107.5 8.5t-48.5 84.5q0 44 30 77t72 33q52 0 84.5 -39t32.5 -100q0 -132 -90 -354.5t-205 -339.5q-94 -97 -178 -97q-67 0 -103 50.5t-36 113.5q0 87 88 322q-60 -104 -111 -181.5t-111.5 -151.5t-121 -113.5t-117.5 -39.5z" />
    <glyph glyph-name="Wdieresis" unicode="&#x1e84;" horiz-adv-x="2031" 
d="M1419 1413q-52 0 -82 36t-30 77q0 43 30 81t82 38t82.5 -38t30.5 -81q0 -41 -30.5 -77t-82.5 -36zM1036 1413q-52 0 -82 36t-30 77q0 43 30 81t82 38t82.5 -38t30.5 -81q0 -41 -30.5 -77t-82.5 -36zM555 -33l-184 1045q-11 62 -17 93t-15.5 64.5t-17.5 46.5t-23 26
t-32 16.5t-45 5.5l-51 4l-2 12h592l-8 -12l-62 -2q-84 -3 -104 -30t-6 -120l143 -844l4 -2l408 676l-11 68q-29 161 -52 202.5t-97 47.5l-57 4l-3 12h598l-8 -12l-63 -2q-62 -2 -87 -14t-31 -47t7 -99l123 -832h4l387 670q95 167 111 212q20 61 -19 83q-31 17 -120 25l-41 4
l-2 12h450l-8 -12l-31 -4q-34 -4 -56 -9.5t-47 -21.5t-42.5 -34t-47 -61t-56.5 -87.5t-74 -126.5l-553 -957h-21l-147 938h-4l-568 -938h-14z" />
    <glyph glyph-name="wdieresis" unicode="&#x1e85;" horiz-adv-x="1198" 
d="M987 1038q-52 0 -82.5 36t-30.5 77q0 43 30.5 81t82.5 38t82.5 -38t30.5 -81q0 -41 -30.5 -77t-82.5 -36zM604 1038q-52 0 -82 36t-30 77q0 43 30 81t82 38t82.5 -38t30.5 -81q0 -41 -30.5 -77t-82.5 -36zM213 -25q-67 0 -111.5 51t-44.5 124q0 58 37 137t83.5 145
t106.5 151.5t89 137.5l-230 39l-98 -166l-10 6q74 160 131 235.5t106 75.5q26 0 74.5 -7t87 -16.5t37.5 -15.5q-3 -19 -41.5 -90t-82.5 -149.5t-80 -175t-36 -162.5q0 -77 29 -115.5t82 -38.5q154 0 414 525q0 2 -10.5 8t-26.5 16.5t-32 24t-27 35t-11 45.5q0 47 30.5 76.5
t76.5 29.5q42 0 73 -31t31 -73q0 -36 -16 -68.5t-37.5 -56.5t-50 -69.5t-47.5 -98.5q-47 -128 -47 -201q0 -81 41 -121.5t114 -40.5q83 0 158 82.5t118.5 213t41.5 265.5q-59 -21 -107.5 8.5t-48.5 84.5q0 44 30 77t72 33q52 0 84.5 -39t32.5 -100q0 -132 -90 -354.5
t-205 -339.5q-94 -97 -178 -97q-67 0 -103 50.5t-36 113.5q0 87 88 322q-60 -104 -111 -181.5t-111.5 -151.5t-121 -113.5t-117.5 -39.5z" />
    <glyph glyph-name="thinspace" unicode="&#x2009;" horiz-adv-x="122" 
 />
    <glyph glyph-name="endash" unicode="&#x2013;" horiz-adv-x="870" 
d="M10 442l23 76h844l-21 -76h-846z" />
    <glyph glyph-name="emdash" unicode="&#x2014;" horiz-adv-x="1835" 
d="M10 442l23 76h1808l-20 -76h-1811z" />
    <glyph glyph-name="quoteleft" unicode="&#x2018;" horiz-adv-x="385" 
d="M309 819q-68 0 -108.5 47.5t-40.5 116.5q0 108 95.5 199.5t260.5 128.5l4 -8q-103 -35 -167 -98t-64 -136q0 -38 21.5 -66t44 -39.5t52.5 -21.5t31 -10q-7 -45 -40 -79t-89 -34z" />
    <glyph glyph-name="quoteright" unicode="&#x2019;" horiz-adv-x="385" 
d="M137 840l-4 8q104 35 169 97t65 136q0 30 -13 53.5t-35 38t-41 23t-39.5 14.5t-21.5 7q5 46 38.5 80t88.5 34q68 0 109 -48t41 -118q0 -106 -95.5 -198t-261.5 -127z" />
    <glyph glyph-name="quotesinglbase" unicode="&#x201a;" horiz-adv-x="385" 
d="M-92 -231l-4 8q104 35 168.5 97t64.5 136q0 30 -13 53.5t-35 38t-40.5 23t-39 14t-21.5 6.5q5 46 38.5 80.5t88.5 34.5q68 0 108.5 -48t40.5 -118q0 -106 -95 -198t-261 -127z" />
    <glyph glyph-name="quotedblleft" unicode="&#x201c;" horiz-adv-x="755" 
d="M680 819q-68 0 -108 47.5t-40 116.5q0 108 95 199.5t260 128.5l4 -8q-102 -35 -167 -98t-65 -136q0 -31 13 -55t34.5 -38t40.5 -22.5t39 -14.5t23 -7q-7 -45 -40 -79t-89 -34zM309 819q-68 0 -108.5 47.5t-40.5 116.5q0 108 95.5 199.5t260.5 128.5l4 -8
q-103 -35 -167 -98t-64 -136q0 -38 21.5 -66t44 -39.5t52.5 -21.5t31 -10q-7 -45 -40 -79t-89 -34z" />
    <glyph glyph-name="quotedblright" unicode="&#x201d;" horiz-adv-x="755" 
d="M510 840l-4 8q102 35 166.5 97t64.5 136q0 30 -13 53.5t-35 38t-40.5 23t-39 14.5t-21.5 7q5 46 38.5 80t88.5 34q68 0 108.5 -48t40.5 -118q0 -106 -95 -198t-259 -127zM137 840l-4 8q104 35 169 97t65 136q0 30 -13 53.5t-35 38t-41 23t-39.5 14.5t-21.5 7
q5 46 38.5 80t88.5 34q68 0 109 -48t41 -118q0 -106 -95.5 -198t-261.5 -127z" />
    <glyph glyph-name="quotedblbase" unicode="&#x201e;" horiz-adv-x="755" 
d="M281 -231l-5 8q103 35 167.5 97t64.5 136q0 30 -13 53.5t-35 38t-41 23t-39.5 14t-21.5 6.5q5 46 38.5 80.5t88.5 34.5q68 0 109 -48t41 -118q0 -106 -95 -198t-259 -127zM-92 -231l-4 8q104 35 168.5 97t64.5 136q0 30 -13 53.5t-35 38t-40.5 23t-39 14t-21.5 6.5
q5 46 38.5 80.5t88.5 34.5q68 0 108.5 -48t40.5 -118q0 -106 -95 -198t-261 -127z" />
    <glyph glyph-name="dagger" unicode="&#x2020;" horiz-adv-x="886" 
d="M270 -319l248 1167h-414l2 20h416l88 412h23l-88 -412h416l-7 -20h-413l-248 -1167h-23z" />
    <glyph glyph-name="daggerdbl" unicode="&#x2021;" horiz-adv-x="886" 
d="M270 -319l84 393h-415l6 20h413l164 770h-413l2 21h415l84 395h23l-84 -395h416l-7 -21h-413l-164 -770h414l-2 -20h-416l-84 -393h-23z" />
    <glyph glyph-name="bullet" unicode="&#x2022;" horiz-adv-x="870" 
d="M442 80q-43 0 -144.5 43t-129.5 74q-31 33 -74 133.5t-43 144.5t43 146t74 133t132 72.5t144 41.5q44 0 145 -41.5t132 -72.5t73 -133t42 -146q0 -45 -41.5 -145.5t-73.5 -132.5q-30 -32 -132 -74.5t-147 -42.5z" />
    <glyph glyph-name="ellipsis" unicode="&#x2026;" horiz-adv-x="1273" 
d="M1008 -25q-55 0 -93 39t-38 92q0 50 38 88.5t91 38.5t91 -38.5t38 -88.5q0 -53 -37 -92t-90 -39zM567 -25q-53 0 -91 39t-38 92q0 51 37 89t90 38t91 -38.5t38 -88.5q2 -53 -35.5 -92t-91.5 -39zM127 -25q-53 0 -91 39t-38 92q0 51 37 89t90 38q54 0 91.5 -38t39.5 -89
q0 -53 -38 -92t-91 -39z" />
    <glyph glyph-name="perthousand" unicode="&#x2030;" horiz-adv-x="1714" 
d="M397 791q-115 0 -184.5 75t-69.5 183q0 109 69.5 185.5t184.5 76.5q116 0 186 -76.5t70 -185.5q0 -108 -70 -183t-186 -75zM-8 -29l1196 1340h26l-1196 -1340h-26zM1401 -27q-115 0 -184.5 74.5t-69.5 181.5q0 110 69.5 187.5t184.5 77.5q116 0 186 -77.5t70 -187.5
q0 -107 -70 -181.5t-186 -74.5zM813 -27q-115 0 -184.5 74.5t-69.5 181.5q0 110 69.5 187.5t184.5 77.5q116 0 186 -77.5t70 -187.5q0 -107 -70 -181.5t-186 -74.5zM397 811q104 0 168 68t64 170q0 101 -64.5 171t-167.5 70t-166 -70t-63 -171q0 -102 63 -170t166 -68z
M1401 -6q104 0 167.5 67.5t63.5 169.5q0 101 -64 171.5t-167 70.5t-166.5 -70.5t-63.5 -171.5q0 -102 63 -169.5t167 -67.5zM813 -6q104 0 167.5 67.5t63.5 169.5q0 101 -64 171.5t-167 70.5t-166 -70t-63 -172t62.5 -169.5t166.5 -67.5z" />
    <glyph glyph-name="guilsinglleft" unicode="&#x2039;" horiz-adv-x="534" 
d="M414 88l-387 363l6 24l536 346l4 -12l-331 -373l182 -336z" />
    <glyph glyph-name="guilsinglright" unicode="&#x203a;" horiz-adv-x="536" 
d="M-23 88l-6 10l334 371l-184 336l10 16l387 -362l-6 -25z" />
    <glyph glyph-name="fraction" unicode="&#x2044;" horiz-adv-x="940" 
d="M-121 -27l1239 1340h31l-1241 -1340h-29z" />
    <glyph glyph-name="zerosuperior" unicode="&#x2070;" horiz-adv-x="694" 
d="M336 504q-84 0 -142 46.5t-83 115t-25 149.5q0 61 14.5 127.5t45 131t72.5 116t102 83.5t129 32q83 0 141 -48t83 -117t25 -149q0 -62 -14.5 -128t-45 -130.5t-72 -115t-101.5 -82t-129 -31.5zM317 518q55 0 100.5 58.5t74 153t45.5 185t26 181.5q2 37 -1 69t-13.5 61
t-33 45.5t-54.5 16.5q-54 0 -100 -62t-74.5 -159t-46 -192.5t-25.5 -186.5q-8 -170 102 -170z" />
    <glyph glyph-name="foursuperior" unicode="&#x2074;" horiz-adv-x="628" 
d="M301 518l43 201h-328l2 10l525 582h63l-106 -496h133l-39 -96h-117l-41 -201h-135zM115 815h247l78 359h-4z" />
    <glyph glyph-name="fivesuperior" unicode="&#x2075;" horiz-adv-x="518" 
d="M141 475q-83 4 -125 35t-36 74q4 33 28.5 54t57.5 19q49 -1 67 -49.5t-14 -89.5q26 -26 63 -26q67 -3 122.5 47t68.5 127q15 97 -57.5 161t-219.5 84l176 381h324l-33 -129h-336l-61 -133q181 -27 267.5 -104.5t68.5 -184.5q-17 -115 -123.5 -193.5t-237.5 -72.5z" />
    <glyph glyph-name="sixsuperior" unicode="&#x2076;" horiz-adv-x="643" 
d="M324 500q-122 0 -192.5 82.5t-70.5 199.5q0 77 29.5 152.5t88.5 142t140.5 116.5t193 78t237.5 25l-2 -10q-172 -4 -297.5 -97t-190.5 -235v-2q92 52 174 52q92 0 144.5 -53t52.5 -144q0 -128 -89 -217.5t-218 -89.5zM311 514q69 0 120.5 87.5t51.5 191.5q0 81 -34 126.5
t-101 45.5q-44 0 -98 -31q-49 -119 -49 -244q0 -176 110 -176z" />
    <glyph glyph-name="sevensuperior" unicode="&#x2077;" horiz-adv-x="546" 
d="M74 518l499 645l-2 4h-221q-77 0 -120 -10.5t-66 -31t-47 -62.5l-6 -12h-11l82 241h475v-6l-467 -768h-116z" />
    <glyph glyph-name="eightsuperior" unicode="&#x2078;" horiz-adv-x="620" 
d="M313 500q-114 0 -193 59.5t-79 147.5q0 73 63 124.5t166 63.5l2 2q-61 47 -95 93.5t-34 105.5q0 84 77 149.5t181 65.5q109 0 179.5 -53t70.5 -136q0 -69 -58 -112.5t-153 -57.5v-2q48 -37 75 -62.5t51 -69.5t24 -93q0 -90 -83 -157.5t-194 -67.5zM430 958q49 31 79 80.5
t30 110.5q0 64 -32 106.5t-97 42.5q-61 0 -98.5 -42t-37.5 -101q0 -28 10.5 -53.5t35 -50.5t43.5 -41t55 -43zM309 512q66 0 109 45t43 107q0 16 -2.5 30.5t-10.5 29.5t-13.5 25.5t-20 25.5t-21 23t-26.5 24t-26.5 21t-29.5 22.5t-28 21.5q-125 -64 -125 -205
q0 -74 38.5 -122t112.5 -48z" />
    <glyph glyph-name="ninesuperior" unicode="&#x2079;" horiz-adv-x="653" 
d="M-12 516l2 10q169 6 293.5 95.5t189.5 226.5h-2q-81 -49 -164 -49q-94 0 -147.5 54.5t-53.5 147.5q0 127 91 218.5t219 91.5q122 0 191 -82t69 -199q0 -98 -47 -191t-132.5 -167t-218 -117t-290.5 -39zM389 836q42 0 94 30q54 123 54 256q0 174 -109 174
q-69 0 -120.5 -88.5t-51.5 -191.5q0 -83 33 -131.5t100 -48.5z" />
    <glyph glyph-name="plussuperior" unicode="&#x207a;" horiz-adv-x="694" 
d="M399 565l-2 332h-323l4 21h319l2 323h21v-323h319l4 -21h-323v-332h-21z" />
    <glyph glyph-name="minussuperior" unicode="&#x207b;" horiz-adv-x="694" 
d="M688 895h-577l4 16h569z" />
    <glyph glyph-name="zeroinferior" unicode="&#x2080;" horiz-adv-x="694" 
d="M295 -266q-84 0 -142 46.5t-83 115t-25 149.5q0 61 14.5 127.5t45 131t72.5 116t102 83.5t129 32q83 0 141 -48t83 -117t25 -149q0 -62 -14.5 -128t-45 -130.5t-72 -115t-101.5 -82t-129 -31.5zM276 -252q55 0 100.5 58.5t74 153t45.5 185t26 181.5q2 37 -1 69t-13.5 61
t-33 45.5t-54.5 16.5q-54 0 -100 -62t-74.5 -159t-46 -192.5t-25.5 -186.5q-8 -170 102 -170z" />
    <glyph glyph-name="oneinferior" unicode="&#x2081;" horiz-adv-x="460" 
d="M-4 -252l2 8h31q66 0 69 21l146 692l-115 16l4 7l266 38l-161 -755q-4 -19 71 -19h25l4 -8h-342z" />
    <glyph glyph-name="twoinferior" unicode="&#x2082;" horiz-adv-x="579" 
d="M-59 -252v35q231 177 294 233q116 104 144 193q14 43 14 92q0 67 -41 106t-100 39q-82 0 -152 -98l-8 6q124 187 266 187q85 0 138 -53t55 -130q0 -49 -16.5 -91t-41 -74t-73 -72.5t-92.5 -71t-120 -84.5t-136 -100v-2h325q20 0 54 36t77 115l9 13l6 -2l-121 -277h-481z
" />
    <glyph glyph-name="threeinferior" unicode="&#x2083;" horiz-adv-x="536" 
d="M150 -299q-95 0 -152 27.5t-57 83.5q0 28 21.5 49.5t53.5 21.5q48 0 70.5 -45.5t-10.5 -99.5q34 -23 76 -23q77 0 133.5 63.5t56.5 149.5q0 78 -49 126t-135 48q-25 0 -70 -10l-4 8q166 70 226.5 114.5t60.5 119.5q0 48 -33.5 83.5t-89.5 35.5q-46 0 -92 -32.5t-70 -78.5
l-8 6q39 83 108.5 138t151.5 55q76 0 127 -44.5t51 -105.5q0 -71 -58 -123t-179 -90v-4h6q91 -9 144.5 -67t53.5 -132q0 -106 -100 -190t-233 -84z" />
    <glyph glyph-name="fourinferior" unicode="&#x2084;" horiz-adv-x="628" 
d="M260 -252l43 201h-328l2 10l525 582h63l-106 -496h133l-39 -96h-117l-41 -201h-135zM74 45h248l77 358h-4z" />
    <glyph glyph-name="fiveinferior" unicode="&#x2085;" horiz-adv-x="518" 
d="M100 -295q-83 4 -125 35t-36 74q4 33 28.5 54t57.5 19q49 -1 67 -49.5t-14 -89.5q27 -27 63 -27q67 -3 122.5 47.5t68.5 127.5q15 97 -57.5 161t-219.5 84l176 381h324l-33 -129h-336l-61 -133q181 -27 267.5 -104.5t68.5 -184.5q-17 -115 -123.5 -193.5t-237.5 -72.5z
" />
    <glyph glyph-name="sixinferior" unicode="&#x2086;" horiz-adv-x="643" 
d="M283 -270q-122 0 -192.5 82.5t-70.5 199.5q0 77 29.5 152.5t88.5 142t140.5 116.5t193 78t237.5 25l-2 -10q-172 -4 -297.5 -97t-190.5 -235v-2q90 51 174 51q92 0 144.5 -52.5t52.5 -143.5q0 -128 -89 -217.5t-218 -89.5zM270 -256q69 0 120.5 87.5t51.5 191.5
q0 81 -34 126.5t-101 45.5q-44 0 -98 -31q-49 -119 -49 -244q0 -176 110 -176z" />
    <glyph glyph-name="seveninferior" unicode="&#x2087;" horiz-adv-x="546" 
d="M33 -252l499 645l-2 4h-221q-77 0 -120 -10.5t-66 -31t-47 -62.5l-6 -12h-11l82 241h475v-6l-466 -768h-117z" />
    <glyph glyph-name="eightinferior" unicode="&#x2088;" horiz-adv-x="620" 
d="M272 -270q-114 0 -193 59.5t-79 147.5q0 73 63 124.5t166 63.5l2 2q-61 47 -95 93.5t-34 105.5q0 84 77 149.5t181 65.5q109 0 179.5 -53t70.5 -136q0 -69 -58 -112.5t-153 -57.5v-2q48 -37 75 -62.5t51 -69.5t24 -93q0 -90 -83 -157.5t-194 -67.5zM389 188
q49 31 79 80.5t30 110.5q0 64 -32 106.5t-97 42.5q-61 0 -98.5 -42t-37.5 -101q0 -28 10.5 -53.5t35 -50.5t43.5 -41t55 -43zM268 -258q66 0 109 45t43 107q0 16 -2.5 30.5t-10.5 29.5t-13.5 25.5t-20 25.5t-21 23t-26.5 24t-26.5 21t-29.5 22.5t-28 21.5
q-125 -64 -125 -205q0 -74 38.5 -122t112.5 -48z" />
    <glyph glyph-name="nineinferior" unicode="&#x2089;" horiz-adv-x="653" 
d="M-53 -254l2 10q169 6 293.5 95.5t189.5 226.5h-2q-81 -49 -164 -49q-94 0 -147 54.5t-53 147.5q0 127 90.5 218.5t218.5 91.5q122 0 191 -82t69 -199q0 -98 -47 -191t-132.5 -167t-218 -117t-290.5 -39zM348 66q42 0 94 30q54 123 54 256q0 174 -109 174
q-69 0 -120.5 -88.5t-51.5 -191.5q0 -83 33 -131.5t100 -48.5z" />
    <glyph glyph-name="Euro" unicode="&#x20ac;" horiz-adv-x="1028" 
d="M588 -27q-82 0 -152 27t-120.5 74t-88 109.5t-58 133t-26.5 146.5h-137l6 20h129q0 5 1 17.5t1 17.5q0 108 25 211h-107l7 21h108q49 156 156 282t243 195t273 69q127 0 208 -53.5t81 -126.5q0 -47 -34.5 -84t-86.5 -37q-58 0 -86.5 42.5t-18.5 97.5t50 88q-1 1 -4.5 6
t-5.5 8t-7 8.5t-10 8.5t-14 7.5t-18.5 7t-23.5 4t-30 1.5q-165 0 -284.5 -145.5t-168.5 -378.5h402l6 -21h-414q-18 -89 -18 -186q0 -42 2 -60h368l7 -20h-373q19 -173 111 -274t241 -101q141 0 268 133l13 -10q-88 -116 -197 -177t-223 -61z" />
    <glyph glyph-name="trademark" unicode="&#x2122;" horiz-adv-x="837" 
d="M621 958l2 7h10q26 0 32.5 7t6.5 36l6 239q-13 22 -37 25l-16 2l-2 6h125l81 -221h2l84 221h127l-2 -6l-24 -2q-25 -3 -25 -8l8 -291q0 -2 9 -3q11 -1 20 -3l16 -2l3 -7h-170v7l24 2q21 3 21 8l-4 280h-3l-112 -297h-8l-109 281q-2 2 -2 0l-4 -238q0 -24 8.5 -30t38.5 -6
h10l2 -7h-118zM352 958v7l23 2q24 3 24 8v299h-16q-55 0 -100 -92l-4 -8h-7l15 106h303l10 -106h-4l-4 8q-41 92 -96 92h-21v-301q0 -2 29 -6l16 -2v-7h-168z" />
    <glyph glyph-name="minus" unicode="&#x2212;" horiz-adv-x="886" 
d="M819 473h-735l4 25h727z" />
    <glyph glyph-name="uni2215" unicode="&#x2215;" horiz-adv-x="940" 
d="M-121 -27l1239 1340h31l-1241 -1340h-29z" />
    <glyph glyph-name="approxequal" unicode="&#x2248;" horiz-adv-x="886" 
d="M250 707q-72 0 -117.5 -36t-64.5 -122h-25q34 182 207 182q43 0 100 -21.5t103.5 -47t102.5 -47t97 -21.5q72 0 118 36t65 122h24q-19 -100 -75.5 -141.5t-131.5 -41.5q-54 0 -129 34.5t-149 69t-125 34.5zM250 371q-72 0 -117.5 -36t-64.5 -122h-25q34 182 207 182
q43 0 100 -21.5t103.5 -47t102.5 -47t97 -21.5q72 0 118 36t65 122h24q-19 -100 -75.5 -141.5t-131.5 -41.5q-54 0 -129 34.5t-149 69t-125 34.5z" />
    <glyph glyph-name="notequal" unicode="&#x2260;" horiz-adv-x="876" 
d="M45 647l-6 25h450l91 317h26l-90 -317h338l-6 -25h-340l-92 -330h432l6 -24h-446l-95 -338h-26l94 338h-342l6 24h344l92 330h-436z" />
    <glyph glyph-name="lessequal" unicode="&#x2264;" horiz-adv-x="860" 
d="M838 211l-807 342v22l807 340l10 -22l-780 -326v-4l780 -330zM848 76h-817l4 24h809z" />
    <glyph glyph-name="greaterequal" unicode="&#x2265;" horiz-adv-x="860" 
d="M848 553l-807 -342l-10 22l780 330v4l-780 326l10 22l807 -340v-22zM848 76h-817l4 24h809z" />
    <glyph glyph-name="pcircle" unicode="&#x24df;" horiz-adv-x="1441" 
d="M754 -29q-137 0 -261 53t-213.5 142.5t-142.5 213.5t-53 261q0 183 89.5 337.5t244 244.5t336.5 90q136 0 259.5 -53t213 -143t142 -214.5t52.5 -261.5t-52.5 -261t-142 -213.5t-213 -142.5t-259.5 -53zM754 -10q175 0 323.5 87.5t235 237.5t86.5 326t-86.5 326.5
t-235 238.5t-323.5 88q-132 0 -252 -52t-206.5 -140t-138 -208.5t-51.5 -252.5t51.5 -252.5t138 -207.5t206.5 -139t252 -52zM455 246l2 10l57 4q59 5 59 21v698q0 8 -11 11t-60 7l-43 4l-4 13h352q152 0 229.5 -53.5t77.5 -145.5q0 -95 -88 -158t-229 -63q-15 0 -30.5 1.5
t-32 3.5t-23.5 3v-326q0 -4 4.5 -6.5t20 -5t46.5 -4.5l56 -4l4 -10h-387zM795 608q78 0 126 53.5t48 139.5q0 195 -189 198l-69 -2v-376q50 -13 84 -13z" />
    <glyph glyph-name="commaaccent" unicode="&#xf6c3;" horiz-adv-x="776" 
d="M393 -317q-19 -86 -121 -159.5t-227 -80.5l-4 8q83 10 140 56t69 108q10 48 -12.5 82t-60.5 40t-81 -11q-11 57 34.5 105t125.5 40q78 -6 116 -58.5t21 -129.5z" />
    <glyph glyph-name="J.alt" horiz-adv-x="958" 
d="M283 -25q-147 0 -230.5 63t-83.5 144q0 60 39.5 102t97.5 42q50 0 84.5 -34t34.5 -79q0 -46 -28 -80.5t-84 -40.5q11 -43 58 -70.5t114 -27.5q90 0 141.5 63t83.5 217l201 961q1 8 -5.5 12.5t-32 8.5t-77.5 8l-76 6l-4 12h629l-6 -12l-97 -8q-104 -8 -108 -33l-213 -1014
q-15 -74 -155 -157t-283 -83z" />
    <glyph glyph-name="Jcircumflex.alt" horiz-adv-x="960" 
d="M561 1358l359 403h14l190 -403h-16l-207 211h-6l-322 -211h-12zM1145 1282l-6 -12l-97 -8q-102 -8 -106 -33l-213 -1014q-10 -46 -76 -102t-167 -97t-195 -41q-147 0 -231.5 63t-84.5 144q0 62 39.5 104t97.5 42q51 0 85 -34.5t34 -80.5t-27.5 -80.5t-84.5 -40.5
q12 -43 59 -70.5t113 -27.5q90 0 141.5 63t83.5 217l203 961q1 8 -5.5 12.5t-32 8.5t-77.5 8l-76 6l-4 12h627z" />
    <glyph glyph-name="zero.alt" horiz-adv-x="1128" 
d="M537 -25q-210 0 -340.5 124t-130.5 321q0 121 43 229t116 184.5t174 121t213 44.5q211 0 342 -125t131 -321q0 -163 -73.5 -296t-199 -207.5t-275.5 -74.5zM537 -8q145 0 266 73t191.5 202t70.5 286q0 187 -126 308.5t-327 121.5q-144 0 -265 -74t-191 -203.5t-70 -285.5
q0 -188 125.5 -308t325.5 -120z" />
    <glyph glyph-name="one.alt" horiz-adv-x="694" 
d="M-10 0l8 14l63 2q54 2 78 8.5t27 24.5l182 873q1 4 0 7.5t-4.5 6t-11 5t-19 4t-28.5 3t-39 2.5l-51 2l-2 15h528q1 0 -1 -3.5t-4 -7.5l-3 -4l-60 -2q-55 -2 -78 -8t-26 -24l-184 -873q-2 -9 4 -14t29.5 -9t68.5 -6l51 -2l2 -14h-530z" />
    <glyph glyph-name="dot" horiz-adv-x="428" 
d="M215 338q-54 0 -91.5 38.5t-37.5 92.5q0 51 37.5 89t91.5 38q53 0 91 -38.5t38 -88.5q0 -55 -37 -93t-92 -38z" />
    <glyph glyph-name="ampersand.smallcap" horiz-adv-x="1171" 
d="M999 608q65 -25 103.5 -78.5t38.5 -123.5q0 -118 -79 -217t-212 -155.5t-289 -56.5q-234 0 -372 105.5t-138 277.5q0 95 67 173.5t175 119.5q-19 46 -19 86q0 105 72 174.5t182 69.5q99 0 157.5 -77.5t43.5 -176.5l-14 4q5 62 -33 105t-104 43q-60 0 -98 -45.5
t-38 -112.5q0 -25 2 -37q12 2 39 2q73 0 118.5 -31t45.5 -77q0 -36 -34 -60t-87 -24q-69 0 -130.5 38.5t-92.5 98.5q-98 -52 -98 -172q0 -167 131.5 -261t363.5 -94q187 0 305.5 85t118.5 215q0 75 -50 129.5t-118 54.5q-49 0 -102 -51.5t-53 -96.5q0 -47 34 -74.5t91 -27.5
q-33 13 -43 49.5t10.5 68t62.5 31.5q33 0 54.5 -22.5t21.5 -56.5q0 -38 -28 -63t-76 -25q-81 0 -139 53t-58 137q0 54 29.5 96t73 66.5t95 49.5t95 45.5t73 54.5t29.5 77q0 46 -37 74.5t-96 28.5q33 -8 47 -48.5t-6 -78t-71 -37.5q-37 0 -60.5 24t-23.5 62q0 42 33.5 70
t84.5 28q87 0 148 -62.5t61 -152.5q0 -65 -46.5 -110t-160.5 -91zM449 670q12 -52 44 -81.5t76 -29.5q18 0 32.5 12.5t14.5 26.5q0 30 -38 51t-95 21h-34z" />
    <glyph glyph-name="at.smallcap" horiz-adv-x="1187" 
d="M602 -160q-249 0 -405 147.5t-156 381.5q0 168 80.5 312t219 228t300.5 84q219 0 362.5 -135.5t143.5 -341.5q0 -170 -110 -299t-249 -129q-75 0 -119 37.5t-44 99.5q0 31 32 129h-2q-89 -142 -148 -204t-126 -62q-58 0 -100.5 41.5t-42.5 101.5q0 86 58.5 189.5
t147.5 189.5q112 109 209 109q45 0 67 -48.5t11 -111.5h2l72 197l158 -6l-101 -258l-71 -181q-52 -149 88 -149q91 0 171 103t80 251q0 200 -138.5 330.5t-350.5 130.5q-119 0 -227 -48.5t-186 -130t-124.5 -194t-46.5 -235.5q0 -226 152 -369t393 -143q163 0 299.5 83
t198.5 210l14 -7q-63 -131 -203.5 -217t-308.5 -86zM459 182q39 0 93 58.5t110 169.5q43 84 43 110q0 48 -31 91.5t-68 43.5q-26 0 -51 -22q-50 -49 -102 -166t-52 -199q0 -39 16.5 -62.5t41.5 -23.5z" />
    <glyph glyph-name="a.smallcap" horiz-adv-x="993" 
d="M526 403h-237l-80 -143q-79 -141 -86 -157q-23 -52 1 -69q20 -14 89 -20l35 -2l2 -12h-336l6 12l29 2q75 7 111.5 48t149.5 241q2 2 3 4l2 4l277 490l-7 69q53 7 88.5 36t75.5 87h29l76 -776q9 -83 25 -127t36 -57.5t55 -16.5l48 -4v-12h-496l10 12l39 2q55 4 67.5 32
t6.5 106zM301 426h223l-26 346h-2z" />
    <glyph glyph-name="b.smallcap" horiz-adv-x="956" 
d="M-45 0l8 12l55 6q74 8 78 23l191 887q1 5 -1 7.5t-12 5t-25 4.5t-46 5l-41 4v13h426q178 0 268 -60.5t90 -154.5t-83.5 -154.5t-235.5 -67.5v-4q131 -21 201.5 -87t68.5 -156q0 -135 -117.5 -209t-353.5 -74h-471zM381 18l55 2q108 3 176 85.5t68 193.5q0 99 -69 162
t-179 63h-18l-103 -473zM510 539q108 0 167.5 70.5t59.5 172.5q0 75 -45.5 118t-132.5 46h-57l-86 -397q52 -10 94 -10z" />
    <glyph glyph-name="c.smallcap" horiz-adv-x="1060" 
d="M590 -18q-118 0 -216 37t-162 99.5t-99 144.5t-35 173q0 108 40.5 206.5t113.5 175t185.5 122t246.5 45.5q176 0 288 -74l117 41l-51 -303h-12l-80 236q-37 34 -95.5 55t-119.5 21q-99 0 -179.5 -54.5t-129 -142t-74 -189.5t-25.5 -206q0 -174 80.5 -271.5t226.5 -97.5
q192 0 314 201l57 100l10 -4l-78 -283h-53q-39 -12 -119.5 -22t-150.5 -10z" />
    <glyph glyph-name="d.smallcap" horiz-adv-x="1075" 
d="M-45 0l8 12l60 6q71 8 75 23l189 887q1 5 -1 7.5t-12 5t-25 4.5t-46 5l-39 4l-2 13h411q237 1 365.5 -115t128.5 -301q0 -110 -44 -209t-124 -175.5t-201 -121.5t-266 -45h-477zM410 18q102 0 185.5 50.5t137 135.5t82.5 195t29 232q0 145 -68 230t-207 85h-67l-191 -899
z" />
    <glyph glyph-name="e.smallcap" horiz-adv-x="964" 
d="M-45 0l8 12l55 6q76 8 80 23l189 887q1 5 -1 7.5t-12 5t-25 4.5t-46 5l-39 4l-2 13h762l6 -320h-15l-4 19q-36 163 -113 225.5t-216 54.5l-82 -2l-92 -440l81 2q97 6 151 38.5t83 104.5l14 31h13l-82 -381h-15l4 31q6 82 -32.5 113t-153.5 40l-68 6l-98 -464l158 -7
q139 1 240.5 74.5t183.5 214.5l12 19l14 -2l-106 -324h-852z" />
    <glyph glyph-name="f.smallcap" horiz-adv-x="897" 
d="M-45 0l8 12l62 6q69 8 73 23l189 887q1 9 -11.5 12.5t-68.5 9.5l-43 4l-2 13h774l-14 -320h-17l-4 19q-21 85 -42.5 136t-55 85.5t-79 47.5t-114.5 11l-110 -4l-94 -446l65 4q98 5 151 36.5t85 104.5l14 31l12 -2l-84 -377h-12v26q0 88 -36 121.5t-148 36.5h-52l-92 -440
q-1 -6 3 -9.5t23 -6.5t56 -5l64 -4l2 -12h-502z" />
    <glyph glyph-name="g.smallcap" horiz-adv-x="1114" 
d="M578 -25q-223 0 -361.5 128t-138.5 327q0 115 43 217t119.5 176.5t187.5 118t240 43.5q186 0 301 -74l110 37l-49 -305h-12l-80 244q-35 33 -93 54.5t-120 21.5q-126 0 -223.5 -83.5t-148 -220t-50.5 -299.5q0 -169 76.5 -267.5t206.5 -98.5q79 0 119 24l75 365q1 4 -7 7
q-3 1 -97 13l-51 7v12h497l-8 -12l-67 -7q-63 -7 -66 -22l-66 -313l86 18v-10q-85 -40 -203 -70.5t-220 -30.5z" />
    <glyph glyph-name="h.smallcap" horiz-adv-x="1153" 
d="M-45 0l8 12l60 6q71 8 75 23l189 887q1 5 -1 7.5t-12 5t-25 4.5t-46 5l-39 4l-2 13h479l-6 -13l-62 -6q-72 -8 -75 -24l-90 -422h411l90 426q1 9 -12 12.5t-72 9.5l-39 4l-2 13h480l-9 -13l-59 -6q-75 -8 -78 -24l-186 -887q-1 -4 1 -6.5t11 -5t25 -4.5t45 -5l39 -4
l2 -12h-477l8 12l59 6q74 9 78 23l90 436h-412l-92 -440q-1 -4 1 -6.5t11 -5t25 -4.5t45 -5l41 -4l2 -12h-479z" />
    <glyph glyph-name="i.smallcap" horiz-adv-x="569" 
d="M-27 0l7 12l63 6q72 9 76 23l188 887q1 9 -12 12.5t-70 9.5l-45 4l-2 13h484l-7 -13l-61 -6q-75 -8 -78 -24l-188 -887q-1 -4 1.5 -6.5t11.5 -5t25 -4.5t46 -5l41 -4l2 -12h-482z" />
    <glyph glyph-name="j.smallcap" horiz-adv-x="557" 
d="M-109 -276q-74 0 -113.5 33.5t-39.5 82.5q0 43 34 77t81 34q54 0 82 -37.5t16.5 -86.5t-57.5 -79q75 -15 131 61.5t88 237.5l188 881q1 5 -1 8t-10.5 5.5t-25 4.5t-45.5 4l-47 4v13h483l-8 -13l-61 -6q-73 -8 -76 -24l-191 -906q-9 -45 -79.5 -114t-170.5 -124.5
t-178 -55.5z" />
    <glyph glyph-name="j.smallcap.alt" horiz-adv-x="778" 
d="M244 -23q-116 0 -190 52.5t-74 122.5q0 56 35 91.5t87 35.5q44 0 75.5 -30t31.5 -71q0 -43 -23 -72t-67 -36q9 -33 43.5 -52.5t81.5 -19.5q60 0 94 45t59 160l154 725q1 5 -1 8t-11 5.5t-25.5 4.5t-46.5 4l-59 4l-2 13h507l-6 -13l-67 -6q-75 -8 -78 -24l-160 -754
q-7 -37 -61.5 -82t-137.5 -78t-159 -33z" />
    <glyph glyph-name="k.smallcap" horiz-adv-x="1087" 
d="M-43 0l6 12l62 6q69 8 73 23l189 887q1 9 -11.5 12.5t-68.5 9.5l-43 4l-4 13h489l-6 -13l-70 -6q-72 -8 -75 -24l-103 -484l281 238q192 162 213 215q14 36 -37 48q-20 5 -57 9l-43 4l-4 13h419l-6 -13l-43 -4q-25 -1 -45.5 -5.5t-45 -16.5t-42.5 -23t-53 -38.5
t-59.5 -47.5t-79 -65.5t-95.5 -79.5l-14 -15l180 -495q35 -98 57.5 -122.5t71.5 -27.5l31 -2l2 -12h-469l6 12l25 2q43 3 57 18.5t8.5 54.5t-35.5 124l-108 303l-121 -104l-80 -373q-1 -3 0.5 -5.5t6 -4.5t13.5 -4t24 -3.5t38 -3.5l49 -4l4 -12h-487z" />
    <glyph glyph-name="l.smallcap" horiz-adv-x="909" 
d="M-45 0l8 12l62 6q69 8 73 23l189 887q1 9 -11.5 12.5t-68.5 9.5l-43 4l-2 13h502l-9 -13l-82 -6q-72 -11 -75 -24l-193 -901l117 -7q122 0 212.5 73t194.5 251l13 18h12l-98 -358h-801z" />
    <glyph glyph-name="m.smallcap" horiz-adv-x="1310" 
d="M639 279l410 688h346l-9 -13l-59 -6q-73 -8 -76 -24l-188 -887q-1 -4 1 -6.5t11 -5t25 -4.5t45 -5l43 -4v-12h-486l9 12l69 6q68 5 72 23l182 854h-4l-534 -895h-23l-143 840l-4 25v-1l-183 -794q-3 -14 5 -24t39.5 -19t88.5 -13l27 -2l2 -12h-354l6 12l31 2
q71 4 97.5 22t33.5 48l194 809q-23 54 -98 57l-43 4l-2 13h354z" />
    <glyph glyph-name="n.smallcap" horiz-adv-x="1067" 
d="M809 -8l-485 825h-2l-158 -745q-3 -15 5 -26t37.5 -20t82.5 -12l28 -2v-12h-344l9 12l30 2q118 8 129 70l166 754q-58 101 -149 110l-17 2l-2 17h365l373 -648h2l120 576q3 15 -5.5 25.5t-38 19t-81.5 12.5l-28 2l-2 13h344l-6 -13l-31 -2q-117 -8 -129 -71l-195 -889
h-18z" />
    <glyph glyph-name="o.smallcap" horiz-adv-x="1146" 
d="M573 -23q-216 0 -349.5 137t-133.5 337q0 101 40.5 197t111 170.5t175 119.5t224.5 45q144 0 256.5 -65.5t172.5 -174.5t60 -239q0 -102 -41 -197.5t-112.5 -168.5t-177 -117t-226.5 -44zM551 -2q102 0 187 95t131 244t46 312q0 142 -66.5 227t-184.5 85
q-84 0 -155 -66.5t-114.5 -168.5t-67.5 -216t-24 -217q0 -134 66 -214.5t182 -80.5z" />
    <glyph glyph-name="p.smallcap" horiz-adv-x="940" 
d="M-53 0l8 12l68 6q71 5 75 23l189 887q1 9 -12 12.5t-72 9.5l-47 4l-2 13h460q179 0 275 -67.5t96 -172.5q0 -125 -109.5 -203t-289.5 -78q-103 0 -185 19l-92 -428q-1 -6 3 -9.5t23 -6.5t56 -5l64 -4l2 -12h-510zM518 469q105 0 176.5 91t71.5 212q0 75 -43 122.5
t-119 51.5h-102l-96 -459q56 -18 112 -18z" />
    <glyph glyph-name="q.smallcap" horiz-adv-x="1146" 
d="M915 -283q-100 0 -173 11.5t-137 41.5t-106.5 85.5t-64.5 138.5q-158 42 -251 167.5t-93 289.5q0 101 40.5 197t111 170.5t175 119.5t224.5 45q144 0 256.5 -65.5t172.5 -174.5t60 -239q0 -186 -123 -333t-321 -183q33 -148 112 -200t253 -50v-12q-70 -9 -136 -9zM551 -2
q102 0 187 95t131 244t46 312q0 142 -66.5 227t-184.5 85q-84 0 -155 -66.5t-114.5 -168.5t-67.5 -216t-24 -217q0 -134 66 -214.5t182 -80.5z" />
    <glyph glyph-name="r.smallcap" horiz-adv-x="1024" 
d="M-53 0l8 12l68 6q72 10 75 23l189 887q1 9 -12 12.5t-72 9.5l-47 4l-2 13h460q162 0 265.5 -64.5t103.5 -173.5q0 -101 -83.5 -164.5t-227.5 -66.5l129 -312q42 -101 69 -133t86 -39l21 -2l2 -12h-338l-170 498q-33 11 -57 26l-105 -487q-1 -5 7 -9t26.5 -7t48.5 -5
l58 -4v-12h-502zM537 520q102 0 166.5 70.5t64.5 173.5q0 80 -51 131t-144 51h-71l-86 -403q65 -23 121 -23z" />
    <glyph glyph-name="s.smallcap" horiz-adv-x="806" 
d="M377 -20q-191 0 -344 94l30 250l9 -2l43 -129q63 -195 256 -195q94 0 153.5 62t59.5 147q0 69 -50.5 116t-150.5 99q-105 55 -169 120.5t-64 153.5q0 114 94 200.5t233 86.5q118 0 246 -63l86 18l-47 -270h-8l-97 233q-22 25 -66.5 44.5t-92.5 19.5q-75 0 -128 -50
t-53 -120q0 -62 48 -106t143 -95q53 -29 92 -55.5t75.5 -63t55.5 -81t19 -95.5q0 -79 -45.5 -151.5t-132.5 -120t-195 -47.5z" />
    <glyph glyph-name="t.smallcap" horiz-adv-x="1058" 
d="M213 0l6 12l70 6q74 6 78 23l192 909h-51q-96 -7 -188 -89.5t-158 -182.5l-17 -23h-12l103 312h868l-41 -312h-10l-4 25q-12 53 -30 98t-45.5 85t-68 63t-88.5 24h-47l-197 -913q-1 -3 0 -5t3.5 -4t8.5 -3.5t15.5 -3t23.5 -3t33 -2.5l52 -4v-12h-496z" />
    <glyph glyph-name="u.smallcap" horiz-adv-x="1077" 
d="M559 -25q-189 0 -297 72t-108 211q0 61 16 139l115 531q0 7 -4.5 10t-22 6t-55.5 6l-51 4v13h493l-6 -13l-68 -6q-74 -8 -77 -24l-109 -516q-18 -82 -18 -144q0 -223 260 -223q112 0 178.5 68t97.5 213l119 552q8 40 -17 56t-106 22l-27 2l-2 13h342l-6 -13l-28 -2
q-69 -4 -97 -23.5t-39 -66.5l-116 -543q-39 -174 -126 -259t-241 -85z" />
    <glyph glyph-name="v.smallcap" horiz-adv-x="1026" 
d="M440 -14l-151 776q-11 56 -18 84.5t-15 52.5t-19 32.5t-23.5 13t-35.5 5.5l-41 4l-2 13h481l-6 -13l-49 -2q-69 -3 -79.5 -26t7.5 -99l105 -565h4l264 443q84 143 93 163q23 50 -3 66q-19 12 -86 16l-37 4l-2 13h338l-8 -13l-27 -4q-76 -7 -113.5 -49t-158.5 -246
l-403 -669h-15z" />
    <glyph glyph-name="w.smallcap" horiz-adv-x="1544" 
d="M426 -25l-150 787q-24 124 -40.5 154.5t-67.5 33.5l-37 4v13h477l-8 -13l-49 -2q-62 -3 -75.5 -20t-4.5 -72l111 -606h2l278 459l-10 49q-24 119 -40 152t-64 36l-46 4v13h492l-8 -13l-47 -2q-64 -3 -79.5 -21t-6.5 -81l88 -584h2l256 441q77 133 88 164q16 47 -19 63
q-24 11 -84 16l-32 4l-2 13h340l-7 -13l-24 -4q-75 -8 -107.5 -41.5t-118.5 -181.5q-12 -20 -18 -31l-416 -721h-18l-113 705h-2l-428 -705h-12z" />
    <glyph glyph-name="x.smallcap" horiz-adv-x="1026" 
d="M-78 0l6 12l52 2q63 3 110 41t167 171q10 11 16 17.5t15 16.5t17 19l150 161l-140 328q-8 18 -19 46t-16 40t-13.5 30t-13.5 25.5t-13 17.5t-16 13.5t-18 6.5t-22 3l-47 4l-2 13h488l-9 -13l-41 -2q-37 -2 -53 -12t-15 -37t21 -78l92 -229h3l98 111q123 140 143 168
q30 45 4 59q-19 11 -88 16l-33 4v13h369l-8 -13l-39 -4q-75 -4 -128.5 -46.5t-211.5 -217.5l-100 -111l180 -415q36 -91 54.5 -118t53.5 -28l37 -2l4 -12h-475l6 12l41 2q56 3 71 22.5t-5 65.5l-131 318h-2l-144 -160q-125 -138 -144 -179q-20 -43 22 -57q21 -6 63 -10
l33 -2l2 -12h-371z" />
    <glyph glyph-name="y.smallcap" horiz-adv-x="1009" 
d="M186 0l9 12l67 6q74 6 78 23l86 403l-125 357q-29 88 -52 116.5t-75 32.5l-31 4l-2 13h484l-9 -13l-24 -2q-72 -6 -90.5 -27t-3.5 -65l129 -375h4l155 211q106 144 123 179q20 44 -11 59q-21 9 -81 16l-35 4l-2 13h359l-9 -13l-43 -4q-63 -7 -110 -53t-176 -217
l-162 -217l-90 -426q-1 -3 0.5 -5.5t6 -4.5t13.5 -4t24 -3.5t38 -3.5l49 -4l2 -12h-496z" />
    <glyph glyph-name="z.smallcap" horiz-adv-x="946" 
d="M-23 0l3 8l768 932v2l-132 4q-150 3 -259.5 -71t-176.5 -203l-8 -17h-10l74 312h776l-2 -11l-783 -931v-2l142 -5q124 -3 210 29t154.5 102.5t147.5 202.5l14 23h12l-116 -375h-814z" />
    <glyph glyph-name="fi.smallcap" horiz-adv-x="1466" 
d="M870 0l7 12l63 6q72 9 76 23l188 887q1 5 -1 7.5t-12 5t-25 4.5t-46 5l-43 4l-2 13h484l-7 -13l-61 -6q-77 -8 -80 -24l-186 -887q-1 -4 1.5 -6.5t11.5 -5t25 -4.5t46 -5l41 -4l2 -12h-482zM-45 0l8 12l62 6q69 8 73 23l189 887q1 9 -11.5 12.5t-68.5 9.5l-43 4l-2 13
h774l-14 -320h-17l-4 19q-21 85 -42.5 136t-55 85.5t-79 47.5t-114.5 11l-110 -4l-94 -446l65 4q98 5 151 36.5t85 104.5l14 31l12 -2l-84 -377h-12v26q0 88 -36 121.5t-148 36.5h-52l-92 -440q-1 -6 3 -9.5t23 -6.5t56 -5l64 -4l2 -12h-502z" />
    <glyph glyph-name="fl.smallcap" horiz-adv-x="1806" 
d="M852 0l8 12l62 6q69 8 73 23l189 887q1 9 -11.5 12.5t-68.5 9.5l-43 4l-2 13h502l-9 -13l-82 -6q-74 -11 -77 -24l-193 -901l119 -7q122 0 212.5 73t194.5 251l11 18h12l-96 -358h-801zM-45 0l8 12l62 6q69 8 73 23l189 887q1 9 -11.5 12.5t-68.5 9.5l-43 4l-2 13h774
l-14 -320h-17l-4 19q-21 85 -42.5 136t-55 85.5t-79 47.5t-114.5 11l-110 -4l-94 -446l65 4q98 5 151 36.5t85 104.5l14 31l12 -2l-84 -377h-12v26q0 88 -36 121.5t-148 36.5h-52l-92 -440q-1 -6 3 -9.5t23 -6.5t56 -5l64 -4l2 -12h-502z" />
    <glyph glyph-name="ff.smallcap" horiz-adv-x="1794" 
d="M852 0l8 12l62 6q69 8 73 23l189 887q2 9 -10.5 12.5t-69.5 9.5l-43 4l-2 13h776l-16 -320h-15l-6 19q-39 165 -98 224t-191 56l-110 -4l-96 -446l67 4q97 5 149.5 36.5t84.5 104.5l14 31h14l-84 -379h-14l2 26q0 88 -36.5 121.5t-147.5 36.5h-52l-94 -440
q-1 -6 3.5 -9.5t23.5 -6.5t55 -5l66 -4l2 -12h-504zM-45 0l8 12l62 6q69 8 73 23l189 887q1 9 -11.5 12.5t-68.5 9.5l-43 4l-2 13h776l-16 -320h-15l-6 19q-39 165 -98 224t-191 56l-110 -4l-96 -446l65 4q98 5 151 36.5t85 104.5l14 31h14l-86 -379h-12v26q0 88 -36 121.5
t-146 36.5h-52l-94 -440q-1 -6 3.5 -9.5t23.5 -6.5t55 -5l66 -4v-12h-502z" />
    <glyph glyph-name="ffi.smallcap" horiz-adv-x="2365" 
d="M852 0l8 12l62 6q69 8 73 23l189 887q2 9 -10.5 12.5t-69.5 9.5l-43 4l-2 13h776l-16 -320h-15l-6 19q-39 165 -98 224t-191 56l-110 -4l-96 -446l67 4q97 5 149.5 36.5t84.5 104.5l14 31h14l-84 -379h-14l2 26q0 88 -36.5 121.5t-147.5 36.5h-52l-94 -440
q-1 -6 3.5 -9.5t23.5 -6.5t55 -5l66 -4l2 -12h-504zM1767 0l9 12l61 6q72 9 76 23l188 887q1 9 -12 12.5t-70 9.5l-45 4l-2 13h486l-7 -13l-61 -6q-77 -8 -80 -24l-186 -887q-1 -4 1.5 -6.5t11.5 -5t25 -4.5t46 -5l41 -4l2 -12h-484zM-45 0l8 12l62 6q69 8 73 23l189 887
q1 9 -11.5 12.5t-68.5 9.5l-43 4l-2 13h776l-16 -320h-15l-6 19q-39 165 -98 224t-191 56l-110 -4l-96 -446l65 4q98 5 151 36.5t85 104.5l14 31h14l-86 -379h-12v26q0 88 -36 121.5t-146 36.5h-52l-94 -440q-1 -6 3.5 -9.5t23.5 -6.5t55 -5l66 -4v-12h-502z" />
    <glyph glyph-name="ffl.smallcap" horiz-adv-x="2705" 
d="M1749 0l8 12l62 6q69 8 73 23l191 887q1 9 -12 12.5t-70 9.5l-43 4l-2 13h504l-9 -13l-81 -6q-76 -12 -78 -24l-193 -901l119 -7q122 0 212.5 72.5t195.5 251.5l10 20h12l-96 -360h-803zM852 0l8 12l62 6q69 8 73 23l189 887q2 9 -10.5 12.5t-69.5 9.5l-43 4l-2 13h776
l-16 -320h-15l-6 19q-39 165 -98 224t-191 56l-110 -4l-96 -446l67 4q97 5 149.5 36.5t84.5 104.5l14 31h14l-84 -379h-14l2 26q0 88 -36.5 121.5t-147.5 36.5h-52l-94 -440q-1 -6 3.5 -9.5t23.5 -6.5t55 -5l66 -4l2 -12h-504zM-45 0l8 12l62 6q69 8 73 23l189 887
q1 9 -11.5 12.5t-68.5 9.5l-43 4l-2 13h776l-16 -320h-15l-6 19q-39 165 -98 224t-191 56l-110 -4l-96 -446l65 4q98 5 151 36.5t85 104.5l14 31h14l-86 -379h-12v26q0 88 -36 121.5t-146 36.5h-52l-94 -440q-1 -6 3.5 -9.5t23.5 -6.5t55 -5l66 -4v-12h-502z" />
    <glyph glyph-name="germandbls.smallcap" horiz-adv-x="1613" 
d="M1184 -20q-191 0 -344 94l30 250l9 -2l43 -129q63 -195 256 -195q94 0 153.5 62t59.5 147q0 69 -50.5 116t-150.5 99q-105 55 -168.5 120.5t-63.5 153.5q0 114 93.5 200.5t232.5 86.5q118 0 246 -63l86 18l-47 -270h-8l-97 233q-22 25 -66.5 44.5t-92.5 19.5
q-75 0 -128 -50t-53 -120q0 -62 48 -106t143 -95q53 -29 92 -56t75 -62.5t55 -80.5t19 -96q0 -59 -27 -116t-74 -102t-118 -73t-153 -28zM377 -20q-191 0 -344 94l30 250l9 -2l43 -129q63 -195 256 -195q94 0 153.5 62t59.5 147q0 69 -50.5 116t-150.5 99
q-105 55 -169 120.5t-64 153.5q0 114 94 200.5t233 86.5q118 0 246 -63l86 18l-47 -270h-8l-97 233q-22 25 -66.5 44.5t-92.5 19.5q-75 0 -128 -50t-53 -120q0 -62 48 -106t143 -95q53 -29 92 -55.5t75.5 -63t55.5 -81t19 -95.5q0 -79 -45.5 -151.5t-132.5 -120t-195 -47.5z
" />
    <glyph glyph-name="agrave.smallcap" horiz-adv-x="993" 
d="M526 403h-237l-80 -143q-79 -141 -86 -157q-23 -52 1 -69q20 -14 89 -20l35 -2l2 -12h-336l6 12l29 2q75 7 111.5 48t149.5 241q2 2 3 4l2 4l277 490l-7 69q53 7 88.5 36t75.5 87h29l76 -776q9 -83 25 -127t36 -57.5t55 -16.5l48 -4v-12h-496l10 12l39 2q55 4 67.5 32
t6.5 106zM301 426h223l-26 346h-2zM696 1067l-315 383h197l133 -383h-15z" />
    <glyph glyph-name="aacute.smallcap" horiz-adv-x="993" 
d="M526 403h-237l-80 -143q-79 -141 -86 -157q-23 -52 1 -69q20 -14 89 -20l35 -2l2 -12h-336l6 12l29 2q75 7 111.5 48t149.5 241q2 2 3 4l2 4l277 490l-7 69q53 7 88.5 36t75.5 87h29l76 -776q9 -83 25 -127t36 -57.5t55 -16.5l48 -4v-12h-496l10 12l39 2q55 4 67.5 32
t6.5 106zM301 426h223l-26 346h-2zM567 1067l269 383h217l-473 -383h-13z" />
    <glyph glyph-name="acircumflex.smallcap" horiz-adv-x="993" 
d="M526 403h-237l-80 -143q-79 -141 -86 -157q-23 -52 1 -69q20 -14 89 -20l35 -2l2 -12h-336l6 12l29 2q75 7 111.5 48t149.5 241q2 2 3 4l2 4l277 490l-7 69q53 7 88.5 36t75.5 87h29l76 -776q9 -83 25 -127t36 -57.5t55 -16.5l48 -4v-12h-496l10 12l39 2q55 4 67.5 32
t6.5 106zM301 426h223l-26 346h-2zM385 1044l358 404h15l190 -404h-16l-207 211h-6l-322 -211h-12z" />
    <glyph glyph-name="atilde.smallcap" horiz-adv-x="993" 
d="M526 403h-237l-80 -143q-79 -141 -86 -157q-23 -52 1 -69q20 -14 89 -20l35 -2l2 -12h-336l6 12l29 2q75 7 111.5 48t149.5 241q2 2 3 4l2 4l277 490l-7 69q53 7 88.5 36t75.5 87h29l76 -776q9 -83 25 -127t36 -57.5t55 -16.5l48 -4v-12h-496l10 12l39 2q55 4 67.5 32
t6.5 106zM836 1079q-53 0 -124.5 31.5t-135.5 63.5t-99 32q-22 0 -33 -2t-26 -12t-25 -33t-18 -63h-17q32 134 69.5 184.5t113.5 50.5q41 0 94.5 -20t96.5 -43.5t89 -43.5t74 -20q22 0 35 3t27.5 13.5t25 33.5t18.5 61h17q-32 -135 -69 -185.5t-113 -50.5zM301 426h223
l-26 346h-2z" />
    <glyph glyph-name="adieresis.smallcap" horiz-adv-x="993" 
d="M526 403h-237l-80 -143q-79 -141 -86 -157q-23 -52 1 -69q20 -14 89 -20l35 -2l2 -12h-336l6 12l29 2q75 7 111.5 48t149.5 241q2 2 3 4l2 4l277 490l-7 69q53 7 88.5 36t75.5 87h29l76 -776q9 -83 25 -127t36 -57.5t55 -16.5l48 -4v-12h-496l10 12l39 2q55 4 67.5 32
t6.5 106zM301 426h223l-26 346h-2zM879 1100q-52 0 -82.5 35.5t-30.5 76.5q0 43 30.5 81t82.5 38t82 -38t30 -81q0 -41 -30 -76.5t-82 -35.5zM496 1100q-52 0 -82.5 35.5t-30.5 76.5q0 43 30.5 81t82.5 38t82 -38t30 -81q0 -41 -30 -76.5t-82 -35.5z" />
    <glyph glyph-name="aring.smallcap" horiz-adv-x="993" 
d="M526 403h-237l-80 -143q-79 -141 -86 -157q-23 -52 1 -69q20 -14 89 -20l35 -2l2 -12h-336l6 12l29 2q34 3 54.5 10.5t40 20t45.5 51.5t50.5 81t75.5 134l360 641q-54 17 -85 63.5t-31 106.5q0 77 50 131t132 54t132 -54t50 -131q0 -66 -37 -115.5t-102 -62.5l70 -727
q9 -83 25 -127t36 -57.5t55 -16.5l48 -4v-12h-496l10 12l39 2q55 4 67.5 32t6.5 106zM641 956q73 0 117.5 48t44.5 118q0 69 -44.5 117.5t-117.5 48.5t-117.5 -48.5t-44.5 -117.5q0 -70 44.5 -118t117.5 -48zM301 426h223l-26 346h-2z" />
    <glyph glyph-name="aringacute.smallcap" horiz-adv-x="993" 
d="M508 1325l268 383h217l-473 -383h-12zM526 403h-237l-80 -143q-79 -141 -86 -157q-23 -52 1 -69q20 -14 89 -20l35 -2l2 -12h-336l6 12l29 2q34 3 54.5 10.5t40 20t45.5 51.5t50.5 81t75.5 134l360 641q-54 17 -85 63.5t-31 106.5q0 77 50 131t132 54t132 -54t50 -131
q0 -66 -37 -115.5t-102 -62.5l70 -727q9 -83 25 -127t36 -57.5t55 -16.5l48 -4v-12h-496l10 12l39 2q55 4 67.5 32t6.5 106zM641 956q73 0 117.5 48t44.5 118q0 69 -44.5 117.5t-117.5 48.5t-117.5 -48.5t-44.5 -117.5q0 -70 44.5 -118t117.5 -48zM301 426h223l-26 346h-2z
" />
    <glyph glyph-name="amacron.smallcap" horiz-adv-x="993" 
d="M526 403h-237l-80 -143q-79 -141 -86 -157q-23 -52 1 -69q20 -14 89 -20l35 -2l2 -12h-336l6 12l29 2q75 7 111.5 48t149.5 241q2 2 3 4l2 4l277 490l-7 69q53 7 88.5 36t75.5 87h29l76 -776q9 -83 25 -127t36 -57.5t55 -16.5l48 -4v-12h-496l10 12l39 2q55 4 67.5 32
t6.5 106zM301 426h223l-26 346h-2zM371 1067l30 70h512l-30 -70h-512z" />
    <glyph glyph-name="abreve.smallcap" horiz-adv-x="993" 
d="M526 403h-237l-80 -143q-79 -141 -86 -157q-23 -52 1 -69q20 -14 89 -20l35 -2l2 -12h-336l6 12l29 2q75 7 111.5 48t149.5 241q2 2 3 4l2 4l277 490l-7 69q53 7 88.5 36t75.5 87h29l76 -776q9 -83 25 -127t36 -57.5t55 -16.5l48 -4v-12h-496l10 12l39 2q55 4 67.5 32
t6.5 106zM301 426h223l-26 346h-2zM596 1026q-60 0 -101.5 29t-63 83t-30.5 117t-8 144h17q15 -124 65.5 -181t140.5 -57q89 0 163.5 57t140.5 181h18q-31 -73 -51.5 -117.5t-53.5 -99t-64.5 -84.5t-76 -51t-96.5 -21z" />
    <glyph glyph-name="aogonek.smallcap" horiz-adv-x="993" 
d="M684 -487q-73 0 -114.5 48t-41.5 122q0 51 28 101.5t74.5 90.5t100 71.5t109.5 53.5h-418l10 12l39 2q55 4 67.5 32t6.5 106l-21 251h-235l-80 -143q-79 -141 -86 -157q-23 -52 1 -69q20 -14 89 -20l35 -2l2 -12h-336l6 12l29 2q75 7 111.5 48t149.5 241q2 2 3 4l2 4
l277 490l-7 69q53 7 88.5 36t75.5 87h31l76 -776q8 -84 23.5 -127.5t35.5 -57t57 -16.5l46 -4l2 -12q-115 -28 -186.5 -108.5t-71.5 -170.5q0 -131 114 -131q9 0 17 0.5t16 3t14 3.5t14 5t11.5 6t12.5 8t12 7.5t13 9t13 9.5l2 -4q-39 -51 -95 -88t-122 -37zM301 426h221
l-24 346h-2z" />
    <glyph glyph-name="ae.smallcap" horiz-adv-x="1372" 
d="M598 401h-262l-109 -137q-122 -153 -126 -158q-38 -54 -23 -71q13 -14 90 -21l29 -2l4 -12h-332l4 12l31 2q77 7 118 41.5t174 200.5l15 18l483 603q31 35 15 52.5t-95 20.5l-59 4v13h774l6 -320h-12l-6 19q-58 169 -126 228t-202 52l-65 -2l-95 -440l66 2
q99 6 153.5 37.5t84.5 105.5l12 31h12l-84 -381h-14l4 31q12 81 -27.5 112.5t-156.5 40.5l-52 6l-100 -464l145 -7q135 1 233 73t189 216l13 19l14 -2l-107 -324h-852l9 16l73 7q75 6 78 22zM354 424h248l88 420z" />
    </font>
</defs>
</svg>
