<?xml version="1.0" standalone="no"?>
<!DOCTYPE svg PUBLIC "-//W3C//DTD SVG 1.1//EN" "http://www.w3.org/Graphics/SVG/1.1/DTD/svg11.dtd" >
<svg xmlns="http://www.w3.org/2000/svg" xmlns:xlink="http://www.w3.org/1999/xlink" version="1.1">
<metadata>
Created by FontForge 20170731 at Wed Mar 31 15:15:25 2021
 By Aleksey,,,
Copyright (c) 2005-2009, Joshua Darden &#38; Phil's Fonts, Inc. All rights reserved. Published by Garagefonts USA 301-879-9222 www.garagefonts.com
</metadata>
<defs>
<font id="FreightBigPro-MediumItalic" horiz-adv-x="1536" >
  <font-face 
    font-family="Freight Big Pro"
    font-weight="500"
    font-style="italic"
    font-stretch="normal"
    units-per-em="2048"
    panose-1="2 0 6 3 9 0 0 9 0 4"
    ascent="1638"
    descent="-410"
    x-height="891"
    cap-height="1280"
    bbox="-420 -575 2583 1997"
    underline-thickness="40"
    underline-position="-312"
    slope="-12"
    unicode-range="U+0020-FB04"
  />
<missing-glyph horiz-adv-x="1024" 
 />
    <glyph glyph-name="ff" unicode="ff" horiz-adv-x="989" 
d="M881 1229l24 26q47 47 109 74t127 27q77 0 122.5 -33t45.5 -88q0 -39 -33.5 -69.5t-71.5 -30.5q-44 0 -69 28.5t-18.5 70.5t44.5 79q-32 22 -65 22q-40 0 -73.5 -33t-60 -100t-46.5 -143t-42 -185l205 -2l-30 -71h-189l-108 -465q-55 -232 -104 -359t-128 -206
q-75 -78 -211 -78q-65 0 -107 33t-42 84q0 35 28 66.5t70 31.5q55 0 81 -55t-11 -117q30 -17 55 -17q21 0 37.5 10.5t33.5 41.5t31 71.5t33.5 117t37.5 161t46 219.5l92 461h-284l-121 -527q-50 -214 -109 -347.5t-143 -217.5q-75 -78 -201 -78q-67 0 -113.5 32.5
t-46.5 84.5q0 35 28.5 66.5t70.5 31.5q35 0 63.5 -26.5t35 -64.5t-18.5 -81q30 -16 55 -16q32 0 56 26t51 99.5t54.5 188t67.5 307.5l105 522l-166 4l31 69l157 3q28 112 73 189t116 148q104 101 256 101q62 0 105.5 -23.5t64.5 -62.5zM784 1073q-40 4 -61.5 33t-13.5 67.5
t45 65.5q-2 6 -6.5 15t-24.5 23.5t-47 14.5q-94 0 -152 -103.5t-100 -314.5l293 3q30 121 67 196z" />
    <glyph glyph-name="fi" unicode="fi" horiz-adv-x="944" 
d="M-164 -369q-67 0 -113.5 32.5t-46.5 84.5q0 35 28.5 66.5t70.5 31.5q35 0 63.5 -26.5t35 -64.5t-18.5 -81q30 -16 55 -16q32 0 56 26t51 99.5t54.5 188t67.5 307.5l105 522l-166 4l31 69l157 3q55 224 189 358q118 121 286 121q88 0 141.5 -44t53.5 -108q0 -36 -26.5 -63
t-73.5 -27q-44 0 -69 29t-18 69t46 68q-3 6 -9 15t-29 24.5t-50 15.5q-99 0 -165.5 -107.5t-117.5 -353.5l260 -2q39 25 80 25q45 0 85 -43t40 -92q0 -31 -50.5 -162.5t-119 -297.5t-88.5 -224l127 -15l135 213l10 -6q-68 -146 -139.5 -220.5t-118.5 -74.5q-34 0 -104 25.5
t-70 42.5t58 167.5t130.5 335.5t94.5 249l-2 6h-342l-121 -527q-52 -221 -106.5 -352.5t-135.5 -212.5q-75 -78 -211 -78z" />
    <glyph glyph-name="fl" unicode="fl" horiz-adv-x="960" 
d="M891 1311l170 47l-402 -1282l101 -13l133 213l12 -6q-70 -148 -135.5 -221.5t-110.5 -73.5q-32 0 -97.5 28t-61.5 42l321 1071q-55 14 -62.5 69t46.5 95l-3 6t-10 13.5t-19.5 16.5t-31.5 13t-45 6q-97 0 -159 -105.5t-113 -355.5l225 -2l-31 -71h-208l-121 -527
q-52 -221 -106.5 -352.5t-135.5 -212.5q-75 -78 -211 -78q-67 0 -113.5 32.5t-46.5 84.5q0 35 28.5 66.5t70.5 31.5q35 0 63.5 -26.5t35 -64.5t-18.5 -81q30 -16 55 -16q32 0 56 26t51 99.5t54.5 188t67.5 307.5l105 522l-166 4l31 69l157 3q55 224 189 358q60 61 125 91
t151 30q104 0 160 -45z" />
    <glyph glyph-name="ffi" unicode="ffi" horiz-adv-x="1404" 
d="M889 1206l26 29q118 121 287 121q88 0 141.5 -44t53.5 -108q0 -36 -27 -63t-74 -27q-44 0 -69 29t-18 69t46 68q-3 6 -9 15t-29 24.5t-50 15.5q-99 0 -165 -107.5t-117 -353.5l260 -2q39 25 80 25q45 0 85 -43t40 -92q0 -31 -50.5 -162.5t-119 -297.5t-88.5 -224l127 -15
l135 213l10 -6q-68 -146 -139.5 -220.5t-118.5 -74.5q-34 0 -104 25.5t-70 42.5t57.5 167t130 335.5t94.5 249.5l-2 6h-342l-108 -465q-52 -219 -107 -351t-137 -214q-75 -78 -199 -78q-66 0 -107.5 33t-41.5 84q0 35 28 66.5t70 31.5q55 0 81 -55t-11 -117q16 -17 41 -17
q42 0 75 53t69.5 184t88.5 384l93 461h-295l-121 -527q-50 -214 -109 -347.5t-143 -217.5q-75 -78 -201 -78q-67 0 -113.5 32.5t-46.5 84.5q0 35 28.5 66.5t70.5 31.5q35 0 63.5 -26.5t35 -64.5t-18.5 -81q30 -16 55 -16q32 0 56 26t51 99.5t54.5 188t67.5 307.5l105 522
l-166 4l31 69l157 3q28 112 73 189t116 148q104 101 256 101q71 0 117.5 -30.5t60.5 -78.5zM801 1073h-6q-44 0 -69 29t-18 69t46 68q-2 6 -6.5 15t-24.5 23.5t-47 14.5q-94 0 -152 -103.5t-100 -314.5l303 3q26 108 74 196z" />
    <glyph glyph-name="ffl" unicode="ffl" horiz-adv-x="1421" 
d="M1352 1311l170 47l-402 -1282l101 -13l133 213l12 -6q-70 -148 -135.5 -221.5t-110.5 -73.5q-32 0 -97.5 28t-61.5 42l321 1071q-55 14 -62.5 69t46.5 95l-3 6t-10 13.5t-19.5 16.5t-31.5 13t-45 6q-97 0 -159 -105.5t-113 -355.5l225 -2l-31 -71h-209l-108 -465
q-52 -219 -107 -351t-137 -214q-75 -78 -199 -78q-66 0 -107.5 33t-41.5 84q0 35 28 66.5t70 31.5q55 0 81 -55t-11 -117q16 -17 41 -17q42 0 75 53t69.5 184t88.5 384l93 461h-295l-121 -527q-50 -214 -109 -347.5t-143 -217.5q-75 -78 -201 -78q-67 0 -113.5 32.5
t-46.5 84.5q0 35 28.5 66.5t70.5 31.5q35 0 63.5 -26.5t35 -64.5t-18.5 -81q30 -16 55 -16q32 0 56 26t51 99.5t54.5 188t67.5 307.5l105 522l-166 4l31 69l157 3q28 112 73 189t116 148q104 101 256 101q71 0 117.5 -30.5t60.5 -78.5l26 29q59 61 125 91t152 30
q104 0 160 -45zM801 1073h-6q-44 0 -69 29t-18 69t46 68q-2 6 -6.5 15t-24.5 23.5t-47 14.5q-94 0 -152 -103.5t-100 -314.5l303 3q26 108 74 196z" />
    <glyph glyph-name=".notdef" horiz-adv-x="1024" 
 />
    <glyph glyph-name=".null" horiz-adv-x="0" 
 />
    <glyph glyph-name="nonmarkingreturn" horiz-adv-x="682" 
 />
    <glyph glyph-name="space" unicode=" " horiz-adv-x="368" 
 />
    <glyph glyph-name="exclam" unicode="!" horiz-adv-x="512" 
d="M250 381q-1 -4 -5 -5t-7 1t-2 6l86 834q3 22 7.5 37t16.5 30.5t36 22t60 2.5h4q29 -3 47.5 -11.5t27 -18.5t10 -25.5t-0.5 -28.5t-8 -31zM186 -29q-51 0 -87 36.5t-36 84.5q0 47 35 82t86 35t86 -35t35 -82q0 -49 -34 -85t-85 -36z" />
    <glyph glyph-name="quotedbl" unicode="&#x22;" horiz-adv-x="651" 
d="M418 825l319 498h2l107 -55l-406 -443h-22zM84 825l319 498h5l106 -55l-408 -443h-22z" />
    <glyph glyph-name="numbersign" unicode="#" horiz-adv-x="1011" 
d="M188 -10l107 405h-285v17h289l119 452h-285v17h289l108 413h23l-109 -413h334l109 413h22l-108 -413h282v-17h-286l-119 -452h283v-17h-287l-107 -405h-22l106 405h-334l-106 -405h-23zM322 412h333l119 452h-334z" />
    <glyph glyph-name="dollar" unicode="$" horiz-adv-x="1011" 
d="M180 4q-131 33 -211 86l58 297h8l28 -121q33 -146 140 -215q17 35 44 91.5t84 177t95 200.5t37 80q-293 155 -293 354q0 65 28 128t78.5 113t128.5 81t170 31q93 0 209 -33l115 242h25l-119 -248q43 -14 102 -39l76 18l-65 -325l-7 2l-80 256l-47 43q-217 -455 -217 -457
q1 0 3 -1t3 -1q157 -84 237.5 -173t80.5 -206q0 -73 -34 -145.5t-93.5 -131.5t-152 -96t-199.5 -37q-100 0 -209 25l-160 -336h-25zM221 39q76 -43 176 -43q130 0 221 92t91 223q0 157 -226 279zM766 1235q-79 51 -170 51q-108 0 -183 -69.5t-75 -176.5q0 -143 209 -262z
" />
    <glyph glyph-name="percent" unicode="%" horiz-adv-x="1124" 
d="M397 791q-115 0 -184.5 75t-69.5 183q0 109 69.5 185.5t184.5 76.5q116 0 186 -76.5t70 -185.5q0 -108 -70 -183t-186 -75zM-8 -29l1196 1340h26l-1196 -1340h-26zM813 -27q-115 0 -184.5 74.5t-69.5 181.5q0 110 69.5 187.5t184.5 77.5q116 0 186 -77.5t70 -187.5
q0 -107 -70 -181.5t-186 -74.5zM397 811q104 0 168 68t64 170q0 101 -64.5 171t-167.5 70t-166 -70t-63 -171q0 -102 63 -170t166 -68zM813 -6q104 0 167.5 67.5t63.5 169.5q0 101 -64 171.5t-167 70.5t-166 -70t-63 -172t62.5 -169.5t166.5 -67.5z" />
    <glyph glyph-name="ampersand" unicode="&#x26;" horiz-adv-x="1474" 
d="M1251 764q86 -27 135.5 -98.5t49.5 -173.5q0 -139 -101.5 -260t-269.5 -191t-358 -70q-188 0 -340 65t-238 180t-86 257q0 140 92 255t240 165q-13 47 -13 86q0 133 98 233t232 97q76 0 136.5 -48t89 -126t16.5 -164l-21 4q6 90 -46.5 157.5t-145.5 67.5
q-80 0 -135.5 -68t-55.5 -169q0 -9 5 -39h30q107 0 174.5 -47.5t67.5 -116.5q0 -50 -39 -81.5t-104 -31.5q-91 0 -169.5 64t-111.5 159q-90 -38 -138 -113t-48 -175q0 -233 179 -359.5t509 -126.5q235 0 381.5 112t146.5 286q0 99 -62.5 173t-142.5 74q-84 0 -161.5 -61
t-77.5 -123q0 -54 50.5 -87.5t133.5 -33.5q-21 3 -34 19t-14.5 37.5t5 42t26 35t46.5 14.5q34 0 57 -22t23 -56q0 -39 -29 -68.5t-78 -29.5q-98 0 -167.5 64.5t-69.5 174.5q0 59 31.5 104t82.5 73t112.5 51t122.5 44t112 46t82.5 63.5t31.5 89.5q0 69 -48.5 108.5
t-133.5 39.5q16 -4 27.5 -21.5t13 -40t-4 -44.5t-25 -37t-48.5 -15q-38 0 -61 24t-23 62q0 41 37 72.5t82 31.5q102 0 171.5 -79.5t69.5 -198.5q0 -91 -64 -144.5t-235 -111.5zM539 903q18 -73 69 -122.5t113 -49.5q20 0 34.5 13.5t14.5 33.5q0 50 -60 87.5t-145 37.5h-26z
" />
    <glyph glyph-name="quotesingle" unicode="'" horiz-adv-x="323" 
d="M84 825l319 498h5l106 -55l-408 -443h-22z" />
    <glyph glyph-name="parenleft" unicode="(" horiz-adv-x="647" 
d="M424 -549q-61 44 -118.5 110.5t-111 160t-84.5 204t-39 243t25 275.5q30 139 93.5 266t139.5 220.5t166 171t172 126t158 77.5l11 -21q-77 -29 -157.5 -77.5t-168.5 -125t-161.5 -168.5t-134 -215.5t-89.5 -257.5q-32 -141 -24.5 -270.5t37 -237.5t80.5 -199t106.5 -156
t115.5 -107z" />
    <glyph glyph-name="parenright" unicode=")" horiz-adv-x="647" 
d="M-203 -549l-10 21q77 29 157.5 77.5t168.5 125t161.5 168.5t134 215.5t89.5 258.5q32 140 24.5 269.5t-37 237.5t-81 199t-107 156t-115.5 107l17 19q61 -44 118.5 -110.5t110.5 -160.5t84 -204.5t39 -242t-25 -274.5q-30 -139 -93.5 -266.5t-139.5 -221t-166.5 -171
t-172 -126t-157.5 -77.5z" />
    <glyph glyph-name="asterisk" unicode="*" horiz-adv-x="620" 
d="M483 635l-100 94l29 229q0 4 -5 7.5t-8 1.5l-143 -179l-139 11q-1 0 2 6l57 127l221 39q5 0 5 4.5t-5 7.5l-207 92l-34 133q-3 6 4 6l139 -20l102 -207q1 -4 8 -3.5t7 5.5l26 236l113 67q4 2 4 -2l29 -131l-168 -172q-5 -6 -2 -10t8 -4l229 57l101 -92q8 0 0 -4l-117 -68
l-213 105q-6 1 -9 -2t-1 -6l125 -205l-54 -123q-3 -3 -4 0z" />
    <glyph glyph-name="plus" unicode="+" horiz-adv-x="886" 
d="M442 49v424h-417l4 25h413v415h25v-415h412l4 -25h-416v-424h-25z" />
    <glyph glyph-name="comma" unicode="," horiz-adv-x="362" 
d="M-88 -219l-4 8q94 31 162.5 96t68.5 135q0 62 -46.5 82.5t-100.5 -14.5q-17 49 14.5 100.5t102.5 51.5q61 0 102 -43.5t41 -108.5q0 -98 -104 -188t-236 -119z" />
    <glyph glyph-name="hyphen" unicode="-" horiz-adv-x="573" 
d="M39 438l24 82h490l-25 -82h-489z" />
    <glyph glyph-name="period" unicode="." horiz-adv-x="407" 
d="M133 -25q-52 0 -87.5 36.5t-35.5 86.5q0 47 35 83t86 36t87 -36t36 -83q0 -50 -34.5 -86.5t-86.5 -36.5z" />
    <glyph glyph-name="slash" unicode="/" horiz-adv-x="509" 
d="M33 -506l430 1796h20l-430 -1796h-20z" />
    <glyph glyph-name="zero" unicode="0" horiz-adv-x="1073" 
d="M492 -25q-190 0 -304 122t-114 321q0 156 71.5 287.5t193 207.5t263.5 76q187 0 301.5 -123.5t114.5 -320.5q0 -157 -71 -288t-191.5 -206.5t-263.5 -75.5zM469 -8q99 0 183.5 97.5t133 256.5t48.5 336q0 140 -55.5 213.5t-155.5 73.5q-102 0 -186 -96.5t-130.5 -257
t-46.5 -347.5q0 -138 54 -207t155 -69z" />
    <glyph glyph-name="one" unicode="1" horiz-adv-x="690" 
d="M25 0l6 12l71 2q53 2 73.5 8.5t23.5 24.5l174 842l-203 33l6 10l383 49l-199 -938q-2 -9 4.5 -14t31.5 -9t73 -6l57 -2l2 -12h-503z" />
    <glyph glyph-name="two" unicode="2" horiz-adv-x="907" 
d="M-51 0l-2 16q172 122 279.5 202t188.5 148t121 118t58 93t18 91q0 106 -56 161.5t-153 55.5q-72 0 -129.5 -36.5t-117.5 -115.5l-13 10q160 246 377 246q116 0 191 -69t75 -166q0 -34 -6.5 -64t-24.5 -61t-36.5 -56t-55.5 -58.5t-67.5 -58.5t-86.5 -65t-98 -69t-117 -81
t-130 -91v-5h495q27 0 79.5 61t125.5 183l13 21l10 -2l-178 -408h-760z" />
    <glyph glyph-name="three" unicode="3" horiz-adv-x="817" 
d="M186 -408q-91 0 -159 14t-113 50t-45 92q0 41 28.5 70.5t77.5 29.5q33 0 64 -26.5t40 -68.5t-24 -93q70 -47 152 -47q127 0 219 108t92 256q0 134 -83.5 215.5t-235.5 81.5q-58 0 -113 -10l-6 12q84 35 135 58t109.5 51.5t91.5 50.5t66.5 50t50 56t26.5 62t10 74
q0 86 -57 147.5t-150 61.5q-76 0 -150 -50.5t-116 -127.5l-14 10q57 116 162.5 193t226.5 77q117 0 192.5 -74t75.5 -174q0 -122 -88.5 -206t-296.5 -154v-4l4 -2q101 -9 176 -60.5t110.5 -125t35.5 -156.5q0 -81 -40 -161t-106 -141.5t-158 -100t-190 -38.5z" />
    <glyph glyph-name="four" unicode="4" horiz-adv-x="970" 
d="M375 -377l82 397h-529l2 7l836 942h51l-174 -819h223l-37 -130h-215l-84 -397h-155zM74 150h411l127 604h-4z" />
    <glyph glyph-name="five" unicode="5" horiz-adv-x="794" 
d="M88 -408q-121 16 -171 60.5t-44 111.5q5 40 37 63t76 19q99 -12 108 -206q47 -21 84 -25q104 -14 196 77.5t109 239.5q19 160 -91 277t-326 164l208 585h523l-64 -172h-495l-93 -262q267 -58 391.5 -194t104.5 -314q-10 -88 -57.5 -171t-120 -143.5t-171.5 -91.5
t-204 -18z" />
    <glyph glyph-name="six" unicode="6" horiz-adv-x="987" 
d="M461 -23q-94 0 -170 36.5t-123.5 98.5t-72.5 140t-25 164q0 118 41.5 237.5t130 232t213 199.5t304 141t388.5 56l-4 -16q-148 -10 -281.5 -59t-235.5 -127t-179.5 -174t-127.5 -206l5 -2q149 99 299 99q148 0 227.5 -87.5t79.5 -236.5q0 -105 -39.5 -198.5t-105 -158
t-150.5 -102t-174 -37.5zM455 -4q118 0 205.5 126t87.5 310q0 135 -60.5 219t-181.5 84q-99 0 -203 -67q-67 -162 -67 -326q0 -106 18.5 -179.5t68.5 -120t132 -46.5z" />
    <glyph glyph-name="seven" unicode="7" horiz-adv-x="862" 
d="M104 -377l732 1163l-2 9h-304q-76 0 -119.5 -1.5t-91 -6.5t-73.5 -15.5t-53.5 -29t-45.5 -45t-36 -66.5l-11 -21l-16 2l115 346h749v-8l-715 -1327h-129z" />
    <glyph glyph-name="eight" unicode="8" horiz-adv-x="970" 
d="M457 -35q-180 0 -305 97.5t-125 238.5q0 137 112 230.5t285 111.5l2 4q-98 79 -151.5 152t-53.5 162q0 62 27.5 124.5t76.5 114t124.5 83.5t162.5 32q161 0 271 -91t110 -225q0 -123 -97.5 -201.5t-252.5 -101.5v-4q58 -46 92 -77t74 -78t59 -98t19 -109
q0 -149 -125.5 -257t-304.5 -108zM627 705q94 45 150.5 128t56.5 197q0 69 -21 127t-71.5 97.5t-123.5 39.5q-107 0 -171 -78t-64 -182q0 -40 15 -78.5t34.5 -67.5t57 -66t63.5 -58.5t74 -58.5zM461 -14q118 0 191 82t73 186q0 24 -5 47t-11 42.5t-20 42t-24 38t-31.5 38
t-33 34.5t-38.5 35.5t-38 32.5t-41.5 34t-40.5 33q-120 -43 -187 -132.5t-67 -226.5q0 -121 70 -203.5t203 -82.5z" />
    <glyph glyph-name="nine" unicode="9" horiz-adv-x="987" 
d="M-135 -305l4 16q148 10 281 59t235 127t179.5 173.5t127.5 205.5h-4q-148 -98 -299 -98q-148 0 -227.5 87.5t-79.5 238.5q0 104 39.5 197t104.5 157.5t150.5 102.5t174.5 38q94 0 170 -37t123.5 -99t72.5 -139.5t25 -162.5q0 -99 -30 -199t-88 -196.5t-150 -180.5
t-208 -148t-271 -102t-330 -40zM506 240q96 0 203 69q67 165 67 326q0 78 -10.5 137.5t-35 107.5t-68 73.5t-105.5 25.5q-118 0 -205.5 -125.5t-87.5 -308.5q0 -135 60.5 -220t181.5 -85z" />
    <glyph glyph-name="colon" unicode=":" horiz-adv-x="403" 
d="M266 598q-51 0 -88 37.5t-37 85.5q0 47 35.5 82t87.5 35q51 0 86 -35t35 -82q0 -49 -34 -86t-85 -37zM133 -25q-51 0 -87 36.5t-36 84.5q0 47 35 82t86 35q52 0 87.5 -35t35.5 -82q0 -48 -35 -84.5t-86 -36.5z" />
    <glyph glyph-name="semicolon" unicode=";" horiz-adv-x="362" 
d="M250 598q-52 0 -88.5 36.5t-36.5 84.5q0 47 36 83t87 36t86 -36t35 -83q0 -49 -34 -85t-85 -36zM-88 -217l-4 8q95 31 163 95t68 134q0 62 -46.5 82t-100.5 -14q-17 47 14.5 98.5t102.5 51.5q61 0 102 -43.5t41 -106.5q0 -98 -103.5 -187t-236.5 -118z" />
    <glyph glyph-name="less" unicode="&#x3c;" horiz-adv-x="860" 
d="M836 68l-816 403v23l816 401l10 -23l-793 -387v-4l793 -391z" />
    <glyph glyph-name="equal" unicode="=" horiz-adv-x="876" 
d="M47 647l-6 25h815l-6 -25h-803zM41 293l6 24h803l6 -24h-815z" />
    <glyph glyph-name="greater" unicode="&#x3e;" horiz-adv-x="860" 
d="M45 68l-10 22l792 391v4l-792 387l10 23l815 -401v-23z" />
    <glyph glyph-name="question" unicode="?" horiz-adv-x="612" 
d="M291 375q-61 55 -99 118t-38 109q0 74 57.5 119.5t196.5 85.5q148 42 194.5 71t46.5 91q0 71 -83 128.5t-251 57.5q-42 0 -92 -8q-6 18 -6 45q0 21 1 32.5t7 30.5t17.5 29.5t34.5 18.5t57 8q81 0 147 -29t106 -77.5t61.5 -108t21.5 -123.5q0 -125 -52.5 -196.5
t-193.5 -117.5q-35 -11 -48.5 -15.5t-39.5 -13.5t-35.5 -14t-27 -14t-23.5 -16.5t-14 -18.5t-10.5 -22.5t-2.5 -26.5q0 -60 80 -137zM217 -29q-51 0 -87 36.5t-36 84.5q0 47 35 82t86 35t86 -35t35 -82q0 -49 -34 -85t-85 -36z" />
    <glyph glyph-name="at" unicode="@" horiz-adv-x="1568" 
d="M819 -211q-216 0 -385.5 88.5t-263.5 248t-94 363.5q0 167 63 320t170 263.5t253.5 176.5t307.5 66q192 0 345.5 -81t240 -225.5t86.5 -324.5q0 -111 -41.5 -216.5t-107 -181t-150.5 -121.5t-170 -46q-105 0 -161 45.5t-56 111.5q0 84 39 173h-4q-123 -175 -198 -252.5
t-148 -77.5q-72 0 -122 50t-50 128q0 120 94.5 266t212.5 252q72 64 129.5 96.5t116.5 32.5q41 0 64.5 -58.5t23.5 -131.5h2l80 243l153 -8l-129 -323l-92 -246q-44 -110 -15.5 -168.5t134.5 -58.5q67 0 134.5 38.5t120.5 103.5t86.5 157.5t33.5 191.5q0 264 -185 438
t-467 174q-157 0 -300.5 -64.5t-247 -173.5t-165 -258t-61.5 -311q0 -197 91.5 -352.5t256.5 -242.5t375 -87q217 0 398.5 111t263.5 279l18 -9q-84 -172 -270.5 -285.5t-409.5 -113.5zM629 221q47 0 132 96t167 250q57 107 57 142q0 48 -47.5 92.5t-114.5 44.5
q-46 0 -88 -39q-69 -63 -130.5 -203t-61.5 -244q0 -66 23.5 -102.5t62.5 -36.5z" />
    <glyph glyph-name="A" unicode="A" horiz-adv-x="1257" 
d="M741 555h-346l-123 -217q-96 -169 -110 -200q-29 -68 -1 -92q27 -23 132 -30l61 -4l2 -12h-456l6 12l33 4q28 3 44.5 6t38.5 14.5t34.5 21t37 39.5t41 55t51 82.5t63 107.5t81.5 143l366 641l-10 76q96 22 158 107h18l94 -1037q13 -109 29.5 -160.5t42 -71t76.5 -22.5
l59 -6l2 -12h-575l6 12l66 4q54 3 79.5 26t28.5 68.5t-4 114.5zM410 582h329l-39 499h-6z" />
    <glyph glyph-name="B" unicode="B" horiz-adv-x="1191" 
d="M-41 0l6 12l76 8q102 11 106 33l250 1180q1 6 -1.5 9t-16 6.5t-34 6t-62.5 7.5l-50 6l-2 12h492q120 0 208 -25t135 -67.5t68 -88.5t21 -98q0 -136 -118 -214t-339 -85v-2q191 -28 292.5 -120t101.5 -215q-1 -181 -165 -273t-478 -92h-490zM446 20l99 3q67 1 123.5 23
t96 58.5t67 84t40.5 100t13 106.5q0 146 -97.5 225.5t-273.5 79.5h-39l-137 -643zM625 719q69 0 125 19t92 50t60 73t34 84.5t10 86.5q0 105 -67 165t-201 60h-86l-111 -526q65 -12 144 -12z" />
    <glyph glyph-name="C" unicode="C" horiz-adv-x="1398" 
d="M772 -31q-197 0 -350 76.5t-235.5 209.5t-82.5 300q0 151 58.5 289.5t160 242t248.5 165t314 61.5q213 0 368 -92l142 32l-72 -364l-8 2l-82 291q-44 44 -132.5 76t-191.5 32q-115 0 -213 -45t-167 -121.5t-118 -177t-72.5 -211.5t-23.5 -225q0 -240 124 -380t341 -140
q139 0 246 66t201 194l57 78l8 -2l-110 -306l-70 -4q-54 -17 -152 -32t-188 -15z" />
    <glyph glyph-name="D" unicode="D" horiz-adv-x="1363" 
d="M-41 0l6 12l76 8q102 11 106 33l250 1180q1 6 -1.5 9t-16 6.5t-34 6t-62.5 7.5l-50 6l-2 12l482 4q165 1 291.5 -39.5t203 -113.5t114.5 -166.5t38 -204.5q0 -151 -58.5 -288.5t-163.5 -242.5t-264 -167t-348 -62h-567zM473 16q132 0 243 40t190 110t134.5 166t82 207.5
t26.5 234.5q0 80 -15 150.5t-49.5 133.5t-85.5 107.5t-127.5 70.5t-171.5 26h-106l-254 -1194z" />
    <glyph glyph-name="E" unicode="E" horiz-adv-x="1212" 
d="M-41 0l6 12l68 8q110 12 114 33l250 1180q1 6 -1.5 9t-16 6.5t-34 6t-62.5 7.5l-50 6l-2 12h897l25 -397l-12 -2l-8 26q-3 10 -10 29q-13 38 -20 57t-20 51.5t-22 49t-24.5 42t-30 38t-35.5 30t-44.5 26t-52.5 17t-64.5 12t-76.5 3.5h-141l-123 -592l94 2q115 5 176 20
t100.5 49.5t71.5 104.5l15 28l14 -2l-92 -434l-14 2l4 29q14 111 -43 139.5t-248 38.5l-84 4l-131 -622l254 -11q47 1 90.5 8.5t78 18t69 30.5t59.5 37t54 47t47 50.5t44 58t40 59t40 62.5l20 29l11 -2l-152 -416h-1028z" />
    <glyph glyph-name="F" unicode="F" horiz-adv-x="1150" 
d="M-41 0l6 12l84 8q94 8 98 33l250 1180q1 6 -1 9t-12.5 6.5t-32 6.5t-60.5 7l-58 6l-2 12h932l11 -397l-13 -2l-10 26q-51 146 -74 191q-54 101 -149 137q-70 27 -178 27h-156l-129 -605l96 2q167 8 234 40t112 132l15 29l14 -2l-90 -432l-15 2l3 29q7 112 -48.5 140
t-242.5 38l-82 4l-125 -592q-1 -8 5.5 -12.5t32.5 -9t77 -7.5l98 -6l2 -12h-592z" />
    <glyph glyph-name="G" unicode="G" horiz-adv-x="1435" 
d="M731 -31q-142 0 -260.5 44t-198.5 121.5t-124 184t-44 230.5q0 119 34.5 231.5t102.5 208.5t161.5 168t218 113t264.5 41q213 0 368 -92l142 32l-72 -372h-6l-84 301q-44 44 -132 76t-190 32q-112 0 -210 -45.5t-167.5 -122t-119.5 -176.5t-74.5 -210.5t-24.5 -221.5
q0 -240 121.5 -382t329.5 -142q122 0 205 47l100 471q1 8 -6.5 13t-35.5 9.5t-81 8.5l-76 6l-2 12h572l-8 -12l-74 -8q-103 -11 -107 -33l-88 -426l105 16v-8q-119 -46 -267.5 -80.5t-271.5 -34.5z" />
    <glyph glyph-name="H" unicode="H" horiz-adv-x="1482" 
d="M-41 0l6 12l76 8q102 11 106 33l250 1180q1 6 -1.5 9t-16 6.5t-34 6t-62.5 7.5l-50 6l-2 12h551l-8 -12l-82 -8q-102 -11 -106 -33l-119 -565h641l123 571q1 6 -2.5 9t-15.5 6.5t-34.5 6.5t-62.5 7l-57 6l-2 12h551l-9 -12l-73 -8q-103 -11 -107 -33l-250 -1180
q-1 -6 2 -9t16.5 -6.5t34 -6t62.5 -7.5l49 -6l2 -12h-551l7 12l83 8q103 8 107 33l121 588h-641l-125 -594q-1 -6 2 -9t15 -6.5t35 -6.5t63 -7l57 -6l2 -12h-551z" />
    <glyph glyph-name="I" unicode="I" horiz-adv-x="690" 
d="M-29 0l6 12l84 8q103 8 107 33l250 1180q1 6 -2.5 9t-15.5 6.5t-34.5 6.5t-62.5 7l-57 6l-2 12h559l-8 -12l-82 -8q-103 -11 -107 -33l-250 -1180q-1 -6 2 -9t15 -6.5t35 -6.5t63 -7l57 -6l2 -12h-559z" />
    <glyph glyph-name="J" unicode="J" horiz-adv-x="649" 
d="M-115 -342q-78 0 -121 35.5t-43 89.5q0 50 36.5 85.5t88.5 35.5q63 0 93.5 -42t16.5 -94.5t-65 -82.5q76 -19 144.5 71.5t103.5 259.5l258 1217q1 6 -2 9t-15.5 6.5t-34.5 6.5t-62 7l-58 6l-2 12h559l-8 -12l-82 -8q-102 -11 -106 -33l-269 -1268q-7 -35 -51 -86.5
t-104.5 -99t-137 -81.5t-139.5 -34z" />
    <glyph glyph-name="K" unicode="K" horiz-adv-x="1378" 
d="M-41 0l6 12l84 8q94 8 98 33l250 1180q1 6 -1 9t-12.5 6.5t-32 6.5t-60.5 7l-58 6l-2 12h572l-8 -12l-103 -8q-102 -8 -106 -33l-142 -678l385 319q284 240 330 317q29 50 -18 65q-23 8 -78 12l-82 6l2 12h508l-8 -12l-35 -2q-92 -5 -177 -63t-331 -269q-62 -53 -96 -82
l-29 -25l244 -637q44 -114 68.5 -141t89.5 -33l61 -4l2 -12h-559l6 12l57 4q76 5 86.5 54.5t-39.5 183.5l-167 448l-230 -190l-98 -465q-1 -8 5.5 -12.5t32 -8.5t77.5 -8l77 -6l2 -12h-571z" />
    <glyph glyph-name="L" unicode="L" horiz-adv-x="1138" 
d="M-41 0l6 12l84 8q94 8 98 33l250 1180q1 6 -1 9t-12.5 6.5t-32 6.5t-60.5 7l-58 6l-2 12h592l-8 -12l-123 -8q-102 -8 -106 -33l-254 -1198l200 -11q61 0 113 9.5t91.5 24t77.5 44t64.5 56t59.5 74t55 84t58 100.5l14 26h14l-145 -436h-975z" />
    <glyph glyph-name="M" unicode="M" horiz-adv-x="1675" 
d="M-49 0l6 12l39 2q68 4 106.5 16t50 26t17.5 38l270 1141q-29 23 -112 29l-54 4l-2 12h377l156 -1020l4 -2l623 1022h368l-8 -12l-74 -8q-102 -11 -106 -33l-250 -1180q-1 -6 2 -9t16.5 -6.5t34 -6t62.5 -7.5l49 -6l2 -12h-551l6 12l84 8q103 8 107 33l237 1139h-4
l-725 -1192h-18l-187 1139q-4 31 -18 63l-258 -1112q-4 -20 6.5 -34t53 -26t118.5 -16l35 -2l2 -12h-465z" />
    <glyph glyph-name="N" unicode="N" horiz-adv-x="1341" 
d="M1018 -10l-619 1140h-4l-221 -1036q-7 -29 25.5 -48.5t119.5 -29.5l37 -4l2 -12h-424l9 12l39 4q70 8 113.5 29t49.5 53l228 1053q-2 2 -10.5 15.5t-13 19t-15.5 18t-21.5 20t-26 16.5t-35 15t-42.5 9l-25 4l-2 12h365l520 -987h4l191 893q7 29 -26 49.5t-120 28.5l-37 4
l-2 12h424l-8 -12l-39 -4q-69 -6 -113.5 -28t-50.5 -54l-258 -1192h-14z" />
    <glyph glyph-name="O" unicode="O" horiz-adv-x="1495" 
d="M750 -27q-188 0 -334.5 85.5t-223.5 226.5t-77 311q0 106 33 210t96.5 194t149.5 159.5t200 109.5t240 40q141 0 260.5 -50t199.5 -135.5t125 -200t45 -241.5q0 -189 -92 -351.5t-257 -260t-365 -97.5zM725 -6q112 0 215 72.5t174 188t113.5 260t42.5 286.5
q0 217 -112.5 352t-303.5 135q-117 0 -221 -73t-173.5 -189.5t-110 -261t-40.5 -287.5q0 -214 115 -348.5t301 -134.5z" />
    <glyph glyph-name="P" unicode="P" horiz-adv-x="1134" 
d="M-70 0l7 12l104 8q102 8 106 33l250 1180q1 8 -5 12.5t-31.5 8.5t-77.5 8l-78 6l-2 12h581q197 0 303.5 -82.5t106.5 -208.5q0 -158 -136.5 -264.5t-350.5 -106.5q-22 0 -43 1t-42 3.5t-35.5 4.5t-36 6.5t-30 6.5t-31 7t-26.5 6l-127 -606q-1 -8 5.5 -12.5t32.5 -9
t77 -7.5l98 -6l2 -12h-621zM672 643q77 0 139 33.5t100.5 90t59 125.5t20.5 144q0 104 -54 162.5t-161 58.5h-184l-121 -573q38 -15 53 -20t58 -13t90 -8z" />
    <glyph glyph-name="Q" unicode="Q" horiz-adv-x="1495" 
d="M1196 -365q-117 0 -214 19t-178 59t-133.5 110t-68.5 165q-223 47 -355 215.5t-132 392.5q0 106 33 210t96.5 194t149.5 159.5t200 109.5t240 40q141 0 260.5 -50.5t199.5 -136t125 -199.5t45 -241q0 -176 -81.5 -330t-227.5 -254.5t-326 -120.5q22 -98 64.5 -162
t111 -98t148.5 -47t195 -12v-12q-45 -11 -152 -11zM725 -6q112 0 215 72.5t174 188t113.5 260t42.5 286.5q0 217 -112.5 352t-303.5 135q-117 0 -221 -73t-173.5 -189.5t-110 -261t-40.5 -287.5q0 -214 115 -348.5t301 -134.5z" />
    <glyph glyph-name="R" unicode="R" horiz-adv-x="1284" 
d="M-70 0l7 12l104 8q34 3 69.5 13.5t36.5 19.5l250 1180q1 8 -5 12.5t-31.5 8.5t-77.5 8l-78 6l-2 12h571q203 0 320.5 -84t117.5 -219q0 -145 -123.5 -239.5t-304.5 -100.5l199 -438q45 -100 90.5 -139.5t126.5 -45.5l25 -2l4 -12h-371l-270 651q-44 17 -113 54l-139 -658
q-3 -19 115 -29l77 -6l2 -12h-600zM684 674q145 0 237.5 94.5t92.5 255.5q0 107 -69 171.5t-195 64.5h-156l-115 -537q113 -49 205 -49z" />
    <glyph glyph-name="S" unicode="S" horiz-adv-x="1011" 
d="M453 -25q-141 0 -259.5 36t-183.5 79l58 299h8l28 -123q31 -134 120 -202t214 -68q131 0 223.5 92.5t92.5 222.5q0 87 -62.5 156t-183.5 131q-138 72 -213.5 159t-75.5 204q0 63 27 124t75.5 111.5t125.5 81.5t169 31q148 0 332 -78l76 18l-66 -327l-6 2l-80 258
q-102 106 -235 106q-108 0 -185 -69.5t-77 -176.5q0 -90 51 -148.5t188 -129.5q157 -84 233.5 -172t76.5 -211q0 -70 -32.5 -141t-91 -130.5t-149.5 -97t-198 -37.5z" />
    <glyph glyph-name="T" unicode="T" horiz-adv-x="1345" 
d="M279 0l6 12l104 8q103 8 107 33l254 1209h-109q-133 -8 -243 -99t-191 -225l-17 -27h-10l117 369h1110l-45 -369h-8l-4 25q-25 162 -99.5 241t-210.5 85h-98l-258 -1215q-1 -8 5.5 -12.5t32 -8.5t77.5 -8l78 -6l2 -12h-600z" />
    <glyph glyph-name="U" unicode="U" horiz-adv-x="1382" 
d="M719 -31q-110 0 -201.5 19.5t-162.5 58.5t-110.5 103.5t-39.5 148.5q0 73 24 186l158 748q1 8 -5.5 12.5t-32 8.5t-77.5 8l-77 6l-2 12h600l-9 -12l-102 -8q-103 -8 -107 -33l-153 -727q-21 -94 -21 -168q0 -153 96.5 -228t274.5 -75q155 0 248 100t139 317l158 740
q6 28 -27 48t-119 30l-36 4l-2 12h423l-8 -12l-39 -4q-70 -8 -113.5 -29t-49.5 -53l-160 -744q-50 -238 -155.5 -353.5t-311.5 -115.5z" />
    <glyph glyph-name="V" unicode="V" horiz-adv-x="1286" 
d="M541 -33l-170 1045q-3 20 -9 56q-21 133 -39.5 162t-93.5 34l-57 4l-2 12h569l-8 -12l-78 -2q-33 -1 -53 -3t-34.5 -10.5t-20.5 -17t-7 -31t1.5 -43.5t9.5 -63l135 -852h4l402 696q11 18 30 52q46 80 63 112.5t31 71t-3 50.5t-47.5 22t-92.5 14l-61 4l-2 12h458l-8 -12
l-31 -4q-31 -4 -51 -10t-40 -13.5t-43 -35t-42 -50.5t-56 -84.5t-68 -113.5t-93 -160l-479 -830h-14z" />
    <glyph glyph-name="W" unicode="W" horiz-adv-x="2025" 
d="M549 -33l-176 1045q-25 157 -40 191q-18 43 -60 54q-18 5 -50 7l-57 4l-2 12h569l-8 -12l-63 -2q-36 -1 -56.5 -5t-36 -13.5t-20.5 -29t-4.5 -47.5t6.5 -73l141 -871h4l434 717l-12 68q-28 155 -42 188q-18 44 -58 56q-19 6 -53 8l-58 4l-2 12h565l-8 -12l-65 -2
q-92 -3 -110 -35t1 -139l129 -865h4l418 721q26 45 41.5 72.5t32 59t24 49t13 38.5t4 31t-7.5 22t-17.5 17.5t-30 11.5t-41 9t-53.5 6l-41 4l-2 12h455l-8 -12l-31 -4q-46 -6 -74 -17.5t-65.5 -49t-77 -98.5t-105.5 -175l-557 -957h-16l-145 936h-4l-568 -936h-16z" />
    <glyph glyph-name="X" unicode="X" horiz-adv-x="1329" 
d="M-111 0l7 12l49 4q37 3 60.5 7.5t53 19.5t48.5 28.5t58.5 52t71 73t95.5 106.5l289 320l-179 389q-73 160 -93 191q-32 50 -77 59q-8 1 -18 2l-57 4l-7 12h533l-6 -12l-58 -2q-50 -2 -68 -18t-9.5 -63.5t51.5 -142.5l133 -297l4 -2l213 242q120 134 142 166q40 59 10 82
q-25 21 -119 31l-39 4l-2 12h477l-8 -12l-47 -4q-44 -4 -74 -13t-56 -21.5t-67.5 -52.5t-76 -76.5t-113.5 -123.5l-232 -256l260 -569q38 -85 63 -109t75 -27l53 -4l4 -12h-526l6 12l57 2q68 3 85.5 29.5t-7.5 77.5l-217 477h-4l-269 -303q-120 -135 -142 -167
q-39 -58 -9 -82q27 -20 119 -30l39 -4l2 -12h-478z" />
    <glyph glyph-name="Y" unicode="Y" horiz-adv-x="1280" 
d="M246 0l6 12l104 8q103 8 107 33l110 520l-188 537q-31 89 -61 119.5t-93 34.5l-57 4l-2 12h569l-8 -12l-45 -2q-93 -4 -110 -40.5t18 -127.5l160 -471h4l248 334q119 166 135 193q34 58 10 79q-19 16 -111 29l-45 6l-2 12h435l-9 -12l-53 -6q-65 -8 -133.5 -68.5
t-192.5 -226.5l-276 -373l-115 -547q-1 -8 5.5 -12.5t32 -8.5t77.5 -8l78 -6l2 -12h-600z" />
    <glyph glyph-name="Z" unicode="Z" horiz-adv-x="1175" 
d="M-31 0l2 8l1061 1249l-2 5h-225q-110 0 -198 -19.5t-145.5 -49t-103.5 -75.5t-71.5 -88t-50.5 -98l-11 -21h-8l76 369h975l-4 -10l-1057 -1243v-4l268 -3q79 0 145 9t116.5 24t94 41t75 54t61.5 69t52 79.5t48 92.5l12 27h15l-109 -416h-1016z" />
    <glyph glyph-name="bracketleft" unicode="[" horiz-adv-x="626" 
d="M-94 -506l381 1786h499l-4 -20h-477l-371 -1745h478l-6 -21h-500z" />
    <glyph glyph-name="backslash" unicode="\" horiz-adv-x="475" 
d="M418 -506l-430 1796h20l430 -1796h-20z" />
    <glyph glyph-name="bracketright" unicode="]" horiz-adv-x="626" 
d="M-184 -506l6 21h477l371 1745h-477l4 20h499l-381 -1786h-499z" />
    <glyph glyph-name="asciicircum" unicode="^" horiz-adv-x="757" 
d="M221 983l352 403h15l186 -403h-16l-199 227h-6l-320 -227h-12z" />
    <glyph glyph-name="underscore" unicode="_" horiz-adv-x="913" 
d="M-57 -57l6 59h819l6 -59h-831z" />
    <glyph glyph-name="grave" unicode="`" horiz-adv-x="757" 
d="M567 1006l-280 383h176l121 -383h-17z" />
    <glyph glyph-name="a" unicode="a" horiz-adv-x="911" 
d="M621 -25q-34 0 -105.5 29.5t-71.5 48.5q0 23 25.5 113.5t69.5 202.5h-4q-25 -39 -61.5 -95.5t-56 -87t-47 -70.5t-46 -60.5t-41.5 -41.5t-45 -29t-45 -8q-72 0 -122.5 55t-50.5 142q0 80 27 164t73 159t93.5 136t103.5 117q61 62 128.5 98.5t123.5 36.5q44 0 60 -41.5
t16 -163.5h4l82 217l160 -8l-168 -436l-121 -377l111 -13l133 216l12 -7q-71 -152 -132 -224.5t-105 -72.5zM276 92q46 0 121 102.5t164 280.5q55 108 55 168t-46 101.5t-109 41.5q-58 0 -101 -43q-67 -68 -119.5 -222t-52.5 -273q0 -74 24.5 -115t63.5 -41z" />
    <glyph glyph-name="b" unicode="b" horiz-adv-x="845" 
d="M266 -31q-40 0 -76 7t-71 23t-55 43t-27.5 67.5t10.5 95.5l313 1052q5 17 2.5 32.5t-12.5 15.5l-164 6l4 12l369 35l-41 -131q-64 -209 -116 -368t-95.5 -283.5t-50.5 -145.5q-6 -18 -3 -19t11 13q111 254 203.5 362.5t177.5 108.5q77 0 127.5 -63.5t50.5 -165.5
q0 -115 -68.5 -275.5t-203.5 -292.5q-61 -61 -140 -95t-145 -34zM317 2q49 0 111 59q93 93 161 262t68 300q0 161 -104 161q-127 0 -299 -438q-55 -133 -55 -205q0 -63 31 -101t87 -38z" />
    <glyph glyph-name="c" unicode="c" horiz-adv-x="698" 
d="M268 -25q-110 0 -180 83.5t-70 199.5q0 107 44.5 221.5t116 206.5t169 151.5t195.5 59.5q78 0 139 -42t61 -107q0 -46 -31.5 -79.5t-72.5 -33.5q-37 0 -68.5 24.5t-31.5 57.5q0 67 71 110q-7 5 -19 18.5t-25.5 20t-37.5 6.5q-59 0 -141 -75q-79 -83 -135.5 -227.5
t-56.5 -274.5q0 -110 35.5 -162.5t113.5 -52.5q76 0 130 45t132 168l15 -6q-178 -312 -353 -312z" />
    <glyph glyph-name="d" unicode="d" horiz-adv-x="911" 
d="M621 -25q-34 0 -105.5 29.5t-71.5 48.5q0 22 25 112.5t68 203.5h-5q-25 -39 -61 -96t-55 -87t-46.5 -70t-46 -60.5t-41 -41.5t-44.5 -29t-45 -8q-72 0 -122.5 55t-50.5 142q0 80 27 164t72.5 159t94 135.5t103.5 115.5q141 145 246 145q24 0 39.5 -14t23.5 -47.5
t10.5 -56t6.5 -70.5q1 -6 1 -9t0.5 -7.5t0.5 -8.5h4l185 577q8 48 -11 48l-202 6l4 12l411 35l-272 -785l-162 -497l111 -13l133 213l12 -6q-71 -151 -132 -223t-105 -72zM276 92q46 0 121.5 102.5t163.5 280.5q55 108 55 168q0 58 -46 99.5t-109 41.5q-58 0 -101 -43
q-67 -67 -119.5 -221t-52.5 -274q0 -73 24.5 -113.5t63.5 -40.5z" />
    <glyph glyph-name="e" unicode="e" horiz-adv-x="727" 
d="M270 -25q-110 0 -181 83.5t-71 199.5q0 108 45 224t116 206.5t164.5 149.5t184.5 59q97 0 156 -42t59 -114q0 -97 -128 -162t-394 -110q-26 -93 -26 -174q0 -110 39.5 -162.5t123.5 -52.5q75 0 133 46t134 167l14 -6q-35 -61 -74 -113.5t-86 -99t-101 -73t-108 -26.5z
M229 485q193 40 275 104t82 173q0 110 -76 110q-51 0 -117 -63q-49 -49 -94.5 -137t-73.5 -185z" />
    <glyph glyph-name="f" unicode="f" horiz-adv-x="538" 
d="M-164 -369q-67 0 -113.5 32.5t-46.5 84.5q0 35 28.5 66.5t70.5 31.5q35 0 63.5 -26.5t35 -64.5t-18.5 -81q30 -16 55 -16q32 0 56 26t51 99.5t54.5 188t67.5 307.5l105 522l-166 4l31 69l157 3q62 251 189 378q47 47 108.5 74t126.5 27q77 0 122.5 -33t45.5 -88
q0 -39 -33 -69.5t-71 -30.5q-44 0 -69 28.5t-18.5 70.5t44.5 79q-33 22 -66 22q-40 0 -74 -33.5t-61 -99.5t-47.5 -143t-42.5 -185l209 -2l-31 -71h-192l-121 -527q-53 -225 -105.5 -355t-132.5 -210q-75 -78 -211 -78z" />
    <glyph glyph-name="g" unicode="g" horiz-adv-x="772" 
d="M205 -496q-185 0 -296.5 65.5t-111.5 174.5q0 77 91.5 148.5t220.5 103.5v4q-62 32 -97 68t-35 86q0 53 63 103.5t142 70.5l2 4q-98 84 -98 217q0 131 104.5 238.5t231.5 107.5q41 0 87.5 -18.5t80.5 -49.5l278 47l-22 -124l-242 67v-4q94 -101 94 -205q0 -81 -50 -159
t-131.5 -126.5t-166.5 -48.5q-86 0 -141 39q-45 -6 -72.5 -35.5t-27.5 -66.5q0 -35 41 -57.5t169 -67.5l41 -14q153 -54 235.5 -119t82.5 -156q0 -121 -139 -207t-334 -86zM309 297q31 0 65.5 15t57.5 40q63 63 96 172.5t33 198.5q0 70 -25 108.5t-69 38.5
q-28 0 -49.5 -12.5t-50.5 -40.5q-64 -64 -103 -175.5t-39 -192.5q0 -36 7.5 -73.5t21.5 -51.5q27 -27 55 -27zM285 -473q109 0 183.5 60.5t74.5 138.5q0 40 -22 73.5t-63 59.5t-81.5 43.5t-95.5 36.5q-19 7 -67 22t-69 23q-84 -14 -136 -69.5t-52 -137.5q0 -107 91 -178.5
t237 -71.5z" />
    <glyph glyph-name="h" unicode="h" horiz-adv-x="913" 
d="M604 -25q-33 0 -94 29.5t-61 48.5q0 10 20 64.5t65 168t64 163.5q15 40 44 109.5t44.5 110t15.5 54.5q0 29 -30.5 51.5t-65.5 22.5q-48 0 -157.5 -164.5t-241.5 -444.5l-78 -194l-164 10l119 336q52 156 121 385.5t112 380.5l43 151q5 17 2.5 32.5t-12.5 15.5l-164 6
l4 12l367 35l-39 -131q-109 -376 -173 -577t-126 -351l12 -4q88 174 179.5 322.5t144.5 201.5q33 33 76.5 53.5t75.5 20.5q58 0 105.5 -35t47.5 -78q0 -74 -104 -331l-150 -373l109 -13l135 213l12 -6q-69 -146 -140.5 -220.5t-117.5 -74.5z" />
    <glyph glyph-name="i" unicode="i" horiz-adv-x="505" 
d="M485 1071q-46 0 -74 29.5t-28 73.5q0 56 30.5 94.5t71.5 38.5q48 0 77.5 -29.5t27.5 -73.5q-1 -56 -32 -94.5t-73 -38.5zM207 -25q-34 0 -104 25.5t-70 42.5t57 167.5t129.5 337t93.5 249.5l-131 10l-131 -211l-12 6q72 150 146 222.5t141 72.5q45 0 85 -43t40 -92
q0 -31 -50 -162.5t-118 -298t-88 -223.5l124 -15l136 213l10 -6q-68 -146 -139.5 -220.5t-118.5 -74.5z" />
    <glyph glyph-name="j" unicode="j" horiz-adv-x="460" 
d="M475 1069q-46 0 -74 29t-28 73q0 56 30.5 95t71.5 39q48 0 77.5 -29.5t27.5 -73.5q-1 -56 -32 -94.5t-73 -38.5zM-244 -510q-49 0 -91 32.5t-42 80.5q0 35 25.5 62.5t66.5 27.5q58 0 82 -48t-18 -120l100 35q42 48 73 128t87 261l260 850l-119 8l-141 -211l-12 6
q72 150 145.5 222.5t140.5 72.5q45 0 86 -43t41 -92q0 -50 -80 -292.5t-157 -436.5q-65 -162 -126 -270t-134 -181q-37 -38 -88 -65t-99 -27z" />
    <glyph glyph-name="k" unicode="k" horiz-adv-x="847" 
d="M567 -25q-62 0 -110 48q-20 287 -29 342q-16 97 -56 116q-13 6 -32 6q-23 0 -39.5 -6.5t-21.5 -12.5t-7 -11l-143 -463l-164 10q34 85 119 336q52 156 121 385.5t112 380.5l43 151q5 15 2.5 31.5t-12.5 16.5l-164 6l4 12l367 35l-39 -131q-77 -264 -152 -491t-77 -232
q25 4 67 4q145 59 223 100t99 76l-2 4q-68 40 -68 111q0 36 31 67t70 31q41 0 72.5 -30t31.5 -76q0 -24 -4.5 -42t-22 -42t-50 -46.5t-90 -51t-140.5 -60.5l-107 -43q37 -7 66 -24t50 -47t36.5 -64.5t27.5 -85t19.5 -98.5t15.5 -115l62 -6l131 229l10 -4
q-126 -316 -250 -316z" />
    <glyph glyph-name="l" unicode="l" horiz-adv-x="456" 
d="M156 -25q-32 0 -98 28t-62 42l364 1212q5 17 2.5 32.5t-12.5 15.5l-164 6l4 12l367 35l-401 -1282l100 -13l133 213l12 -6q-70 -149 -135 -222t-110 -73z" />
    <glyph glyph-name="m" unicode="m" horiz-adv-x="1384" 
d="M1087 -25q-33 0 -100 29.5t-67 48.5q0 7 8.5 32.5t25.5 69.5t33.5 86t41.5 105t40 103t44.5 109.5t45 110.5t15.5 56q0 28 -31 51t-66 23q-86 0 -370 -611l-72 -194l-166 10l94 281q25 73 66 179t66.5 172.5t25.5 82.5q0 34 -24 57t-58 23q-45 0 -143 -158.5t-236 -452.5
l-74 -194l-163 10l116 338l137 459l-100 8l-131 -213l-12 6q72 155 134 226t122 71q34 0 84.5 -44.5t50.5 -90.5q0 -42 -43.5 -174t-108.5 -289l13 -4q77 150 118 228t96 170t89 126q33 33 76 53.5t75 20.5q58 0 99 -40t41 -95q0 -28 -10.5 -69t-40 -119t-45.5 -116.5
t-64 -154.5l10 -4q22 42 67 130.5t69 133.5t57.5 105.5t58 97t45.5 57.5q33 33 76.5 53.5t75.5 20.5q58 0 105.5 -35t47.5 -78q0 -76 -104 -333l-150 -373l109 -13l135 216l12 -7q-70 -149 -136 -223t-110 -74z" />
    <glyph glyph-name="n" unicode="n" horiz-adv-x="968" 
d="M670 -25q-33 0 -100.5 29.5t-67.5 48.5q0 7 8.5 32.5t25.5 69.5t33.5 86t41.5 105t40 103t44.5 109.5t45 110.5t15.5 56q0 28 -31 51t-66 23q-48 0 -157.5 -165t-241.5 -446l-74 -194l-163 10l116 338l137 459l-100 8l-131 -213l-12 6q138 297 268 297q33 0 78 -44.5
t45 -90.5q0 -45 -41.5 -179t-103.5 -284l6 -4q90 176 180.5 324t142.5 200q33 33 76.5 53.5t75.5 20.5q58 0 105.5 -35t47.5 -78q0 -76 -104 -333l-150 -373l109 -13l135 216l12 -7q-70 -149 -135.5 -223t-109.5 -74z" />
    <glyph glyph-name="o" unicode="o" horiz-adv-x="813" 
d="M315 -23q-119 0 -199.5 108.5t-80.5 262.5q0 90 41 188.5t104.5 176t144 128t154.5 50.5q124 0 211.5 -107.5t87.5 -259.5q0 -124 -70 -252.5t-178.5 -211.5t-214.5 -83zM291 2q87 0 163 98.5t124 255.5q38 118 38 289q0 104 -27 161.5t-73 57.5q-44 0 -100 -60
t-105.5 -152.5t-81.5 -192.5q-41 -125 -41 -254q0 -93 28.5 -148t74.5 -55z" />
    <glyph glyph-name="p" unicode="p" horiz-adv-x="884" 
d="M-240 -518l7 12l38 2q52 3 69.5 8t21.5 21l380 1274l-100 8l-131 -211l-12 6q72 154 134 224.5t122 70.5q35 0 82 -47t47 -88q0 -58 -41 -158h12q70 154 141.5 221.5t161.5 67.5q75 0 123.5 -79.5t48.5 -199.5q0 -150 -76 -300t-195 -244.5t-237 -94.5q-91 0 -135 93h-4
l-162 -547q-2 -7 7 -12t35.5 -8.5t72.5 -4.5l63 -2l3 -12h-476zM356 -4q55 0 127 72q81 81 148 253.5t67 284.5q0 95 -28.5 138.5t-75.5 43.5q-48 0 -98 -50.5t-94 -139t-81 -186.5t-71 -213q-12 -36 -12 -84q0 -46 36 -82.5t82 -36.5z" />
    <glyph glyph-name="q" unicode="q" horiz-adv-x="882" 
d="M90 -518l6 12l68 2q60 1 80.5 10t25.5 25l181 559l90 283h-4q-22 -35 -54 -85t-50 -78t-43 -66t-41.5 -59t-38 -45t-39 -35.5t-38 -19.5t-40.5 -8q-72 0 -122.5 55t-50.5 142q0 80 27 164t72.5 159t94 135.5t103.5 115.5q141 145 246 145q24 0 39.5 -14t23.5 -47.5
t10.5 -56t6.5 -70.5q1 -6 1 -9t0.5 -7.5t0.5 -8.5h4l76 194l160 -8l-162 -415l-297 -926q-2 -7 3.5 -12t21 -8.5t32.5 -5t45 -3.5l35 -2l6 -12h-479zM276 92q46 0 121.5 102.5t163.5 280.5q55 108 55 168q0 58 -46 99.5t-109 41.5q-58 0 -101 -43q-67 -67 -119.5 -221
t-52.5 -274q0 -73 24.5 -113.5t63.5 -40.5z" />
    <glyph glyph-name="r" unicode="r" horiz-adv-x="784" 
d="M188 -6l-165 10l116 338l137 459l-100 8l-131 -213l-12 6q72 155 134 226t122 71q34 0 84.5 -44.5t50.5 -90.5q0 -37 -27.5 -119.5t-87.5 -242.5l-4.5 -10.5t-3.5 -9.5t-4 -11h6q161 305 205 375q43 67 76 96q34 31 61.5 45.5t61.5 11.5q62 -4 97 -46.5t30 -94.5
q-4 -48 -40 -81t-75 -30q-29 2 -50.5 20t-29 42.5t4 55t42.5 54.5l-53 21q-29 -15 -55 -44t-97 -146.5t-194 -346.5z" />
    <glyph glyph-name="s" unicode="s" horiz-adv-x="634" 
d="M225 -25q-100 0 -177 50t-77 129q0 43 30.5 74.5t74.5 31.5q34 0 57 -27t23 -59q0 -29 -20 -66.5t-40 -50.5q21 -19 73.5 -39t88.5 -20q42 0 74.5 18.5t50.5 47t26.5 58t8.5 56.5q0 26 -7 48.5t-24.5 45.5t-30 36.5t-41 40.5t-39.5 38q-46 45 -67 67.5t-47 56.5t-35.5 65
t-9.5 67q0 108 90.5 180t206.5 72q94 0 158.5 -39.5t64.5 -124.5q0 -45 -30 -72.5t-72 -27.5q-35 0 -59.5 27t-24.5 63q0 29 20.5 60t44.5 44q-4 2 -22.5 12.5t-29.5 16t-30 11t-35 5.5q-77 0 -113 -52.5t-36 -112.5q0 -16 3 -30.5t11.5 -30.5t15 -26.5t22 -28t23 -26
t28 -29l28.5 -28.5q3 -3 28 -27t31 -30t27 -28.5t27.5 -33t20.5 -31.5t19 -37t10 -37t5 -42q0 -72 -49 -134t-123.5 -96.5t-151.5 -34.5z" />
    <glyph glyph-name="t" unicode="t" horiz-adv-x="563" 
d="M223 -25q-36 0 -124.5 26t-84.5 42l228 758l-158 4l31 69l153 3l82 266h168l-78 -269l166 -2v-71h-190l-242 -725l152 -13l133 213l12 -6q-68 -147 -135 -221t-113 -74z" />
    <glyph glyph-name="u" unicode="u" horiz-adv-x="968" 
d="M670 -27q-33 0 -78 45t-45 91q0 45 40.5 180.5t102.5 283.5l-6 5q-92 -179 -181 -327t-141 -200q-33 -33 -76 -53.5t-75 -20.5q-58 0 -106 35t-48 78q0 74 105 334l147 375l-108 10l-133 -215l-13 6q70 149 136 223t110 74q33 0 100.5 -29.5t67.5 -48.5q0 -10 -20 -64
t-66 -169t-64 -162q-15 -38 -44 -109.5t-44.5 -112.5t-15.5 -55q0 -28 30.5 -50.5t65.5 -22.5q48 0 158 164.5t242 443.5l73 197l164 -11l-117 -338l-139 -456l101 -11l133 213l12 -6q-138 -297 -268 -297z" />
    <glyph glyph-name="v" unicode="v" horiz-adv-x="811" 
d="M250 -25q-75 0 -134 53t-59 119q1 55 53 152.5t141 236.5t124 203l-221 47l-107 -172l-8 7q72 154 126 219t105 65q41 0 118 -12t77 -21q0 -18 -40 -88t-88 -150t-88 -177.5t-40 -163.5q0 -92 45.5 -148.5t130.5 -56.5q47 0 108.5 62.5t113.5 154t88.5 204t37.5 204.5
q-57 -13 -99 18t-42 70q0 38 29 68t69 30q49 0 80 -35.5t31 -83.5q0 -120 -103 -346.5t-229 -353.5q-102 -105 -219 -105z" />
    <glyph glyph-name="w" unicode="w" horiz-adv-x="1159" 
d="M201 -25q-58 0 -101 51.5t-43 120.5q0 57 36 136t82 146t106 158.5t92 151.5l-219 47l-107 -172l-8 7q72 154 126 219t105 65q41 0 118 -12t77 -21q0 -18 -41 -89.5t-90 -153.5t-90 -181t-41 -165q0 -79 29 -117.5t81 -38.5q155 0 428 551q0 1 -8.5 7t-22 16t-27 23
t-23 33t-9.5 42q0 44 27 70t72 26q37 0 63.5 -29t26.5 -67q0 -35 -15.5 -65.5t-37 -54t-50 -68.5t-47.5 -99q-55 -149 -55 -231q0 -76 36.5 -115t102.5 -39q78 0 153 84t122 221t47 281q-57 -12 -93 18t-36 70q0 38 27.5 68t64.5 30q44 0 74 -33.5t30 -81.5
q0 -126 -92 -360.5t-209 -353.5q-46 -47 -86 -71t-86 -24q-60 0 -93.5 48.5t-33.5 109.5q0 39 16.5 103.5t30.5 106t45 126.5q-50 -87 -91 -151.5t-91 -132.5t-92.5 -111.5t-89.5 -71t-90 -27.5z" />
    <glyph glyph-name="x" unicode="x" horiz-adv-x="880" 
d="M78 -25q-59 0 -98 33t-39 88q0 46 28.5 75.5t69.5 29.5q54 0 72 -48.5t-19 -91.5q0 -5 17 -20t24 -14q41 6 110.5 103.5t129.5 244.5q-4 32 -10.5 87.5t-10.5 87.5t-10.5 76t-13 69.5t-15 50.5t-19.5 36t-24 11h-86l-84 -152l-16 6q59 140 120 196t128 56q37 0 65.5 -23
t48.5 -68t33 -94t25 -118h4q70 172 119.5 237.5t124.5 65.5q55 0 94 -33t39 -84q0 -43 -28 -72.5t-64 -29.5q-33 0 -57.5 24.5t-26.5 52.5t16 50q0 6 -15 13.5t-24 6.5q-34 -6 -81.5 -79t-92.5 -191q6 -41 12.5 -96t11.5 -96.5t11.5 -87.5t13 -78.5t15.5 -60.5t20.5 -42
t26.5 -14h84l86 151l16 -8q-59 -139 -120 -194.5t-128 -55.5q-41 0 -71.5 28t-51.5 82.5t-33.5 109.5t-25.5 135h-4q-85 -197 -149.5 -276t-147.5 -79z" />
    <glyph glyph-name="y" unicode="y" horiz-adv-x="862" 
d="M-98 -373q-172 0 -172 127q0 40 29.5 66t70.5 26q59 0 84.5 -49t-6.5 -112l76 -25q196 41 399 268q0 469 -44.5 675t-141.5 206h-31l-119 -213l-14 6q78 167 104 207q46 72 107 84q18 4 39 4q90 0 143.5 -74t79 -246t24.5 -466l5 -2q224 373 233 657q-42 -36 -81 -33
t-67 28t-30 54q-3 41 22.5 69.5t71.5 28.5q45 0 79 -34t34 -105q0 -208 -132 -471t-325 -450q-107 -105 -220.5 -165.5t-217.5 -60.5z" />
    <glyph glyph-name="z" unicode="z" horiz-adv-x="735" 
d="M471 -45q-54 0 -112.5 30.5t-100 66.5t-88 67.5t-78.5 32.5h-14l-49 -175q-33 7 -60.5 30t-27.5 52q0 41 28.5 65t61.5 30l549 536q-35 -14 -71.5 -8t-63.5 18.5t-55.5 35t-48.5 43t-42.5 41.5t-36.5 30q-6 3 -25.5 -15.5t-34.5 -38.5t-9 -20q39 -3 64.5 -28.5
t25.5 -59.5q0 -39 -27 -66.5t-68 -27.5q-38 0 -61 26t-23 66q0 49 46 101t108.5 84t112.5 32q48 -4 81 -22.5t49.5 -43t28.5 -49t26 -44t34 -23.5l12 2l49 178q32 -8 59 -33t27 -55q-1 -39 -29 -61.5t-61 -26.5l-553 -541q51 10 92.5 11t86 -12t78.5 -27.5t69.5 -37
t59.5 -40t48.5 -36.5t36.5 -26q6 -3 17.5 14.5t19 36.5t2.5 19q-38 3 -65 34t-27 66q0 40 27.5 66.5t70.5 26.5q37 0 60.5 -29.5t23.5 -71.5q0 -73 -81 -148t-142 -75z" />
    <glyph glyph-name="braceleft" unicode="{" horiz-adv-x="616" 
d="M451 -520q-175 29 -278 123.5t-75 224.5q20 90 86 229t80 201q18 80 -46 124.5t-214 72.5l-4 10l10 8q66 -1 116 4t97.5 18.5t77.5 42t39 70.5q13 63 8.5 211t16.5 236q30 129 166 197t317 59v-11q-165 -4 -239.5 -48t-96.5 -142q-15 -66 -11 -213.5t-14 -232.5
q-21 -92 -124 -143.5t-254 -61.5l-3 -10q143 -39 219.5 -109t55.5 -166q-18 -83 -84.5 -224t-81.5 -208q-22 -97 32 -155t210 -97z" />
    <glyph glyph-name="bar" unicode="|" horiz-adv-x="313" 
d="M158 -424v1796h18v-1796h-18z" />
    <glyph glyph-name="braceright" unicode="}" horiz-adv-x="616" 
d="M-188 -516v10q164 4 238.5 48.5t96.5 144.5q10 45 2 105.5t-22.5 111.5t-22 116t4.5 119q21 95 123.5 146t254.5 59l2 10q-142 41 -218.5 112t-55.5 165q12 54 46.5 114.5t69.5 105.5t69 101.5t44 102.5q22 96 -32 154t-209 96l6 10q114 -19 199 -65t128 -119t23 -160
q-13 -57 -47.5 -119t-69 -106.5t-66.5 -100t-42 -100.5q-9 -43 7.5 -76.5t56 -56.5t85 -38t107.5 -28l4 -8l-8 -8q-154 3 -232 -25.5t-96 -109.5q-10 -45 -2.5 -104t22 -109.5t21.5 -116t-6 -123.5q-19 -86 -90 -147.5t-172 -89t-219 -21.5z" />
    <glyph glyph-name="asciitilde" unicode="~" horiz-adv-x="757" 
d="M522 307q-52 0 -120.5 31.5t-128.5 62.5t-93 31q-25 0 -37 -2t-27 -12t-24 -32.5t-16 -61.5h-17q25 122 60.5 169.5t107.5 47.5q51 0 119 -31.5t129 -62.5t94 -31q46 0 69.5 19t37.5 89h16q-25 -120 -61.5 -168.5t-108.5 -48.5z" />
    <glyph glyph-name="nbspace" unicode="&#xa0;" horiz-adv-x="266" 
 />
    <glyph glyph-name="exclamdown" unicode="&#xa1;" horiz-adv-x="512" 
d="M414 1059q-51 0 -86 35t-35 82q0 49 34 84.5t85 35.5q52 0 87.5 -36t35.5 -84q0 -47 -35 -82t-86 -35zM152 -41q-29 3 -47.5 11.5t-27 18.5t-10 25.5t0.5 28.5t8 31l272 813q1 4 5 5t7 -1t2 -6l-86 -834q-3 -22 -7.5 -37t-16.5 -30.5t-36 -22t-60 -2.5h-4z" />
    <glyph glyph-name="cent" unicode="&#xa2;" horiz-adv-x="698" 
d="M205 -16q-85 24 -136 100.5t-51 171.5q0 144 74 292.5t197.5 247.5t253.5 99q49 0 92 -18l172 360h24l-176 -369q88 -43 88 -123q0 -45 -31.5 -77.5t-72.5 -32.5q-45 0 -80 35l-278 -578q27 -12 63 -12q75 0 129.5 44.5t132.5 166.5l15 -6q-179 -310 -353 -310
q-11 0 -41 5l-145 -302h-25zM545 690q-6 12 -6 25q0 66 69 108l2 2q-7 5 -19 18.5t-25.5 20t-37.5 6.5q-59 0 -141 -75q-79 -81 -135.5 -226t-56.5 -276q0 -145 65 -193z" />
    <glyph glyph-name="sterling" unicode="&#xa3;" horiz-adv-x="1091" 
d="M389 596h-231l6 20h223q-6 44 -6 101q0 85 23 168t68.5 156t108.5 129.5t149 89t183 32.5q115 0 180.5 -42t65.5 -111q0 -45 -31 -77t-77 -32q-50 0 -75 36t-21 80.5t30 72.5q-31 47 -119 47q-95 0 -169.5 -66.5t-100.5 -198.5q-11 -55 -17.5 -190.5t-13.5 -194.5h262
l7 -20h-271q-8 -55 -14 -88q-31 -154 -148 -307q21 -6 78.5 -23t85 -24.5t71 -18.5t76 -15.5t60.5 -4.5q91 0 137.5 46t87.5 175l15 -2q-39 -159 -128.5 -256.5t-201.5 -97.5q-72 0 -143 20.5t-115.5 44t-104.5 61.5q-129 -129 -245 -129q-51 0 -87 32.5t-36 78.5
q0 70 50 114t144 44q84 0 217 -35q50 89 50 172q0 36 -4 70.5t-10 76t-9 66.5zM299 119q-51 31 -74.5 44t-62 27.5t-70.5 14.5q-52 0 -87.5 -34.5t-35.5 -82.5q0 -40 30.5 -67t74.5 -27q114 0 225 125z" />
    <glyph glyph-name="currency" unicode="&#xa4;" horiz-adv-x="886" 
d="M758 436l-17 -16l-116 115q-78 -71 -182.5 -71t-182.5 71l-117 -115l-16 16l115 117q-70 77 -70 182t70 183l-115 116l16 17l117 -115q77 70 182.5 70t182.5 -70l116 115l17 -17l-115 -116q71 -78 71 -183t-71 -182zM268 561q72 -72 174 -72t174 72t72 174t-72 174
t-174 72t-174 -72t-72 -174t72 -174z" />
    <glyph glyph-name="yen" unicode="&#xa5;" horiz-adv-x="1239" 
d="M563 612h-370l-5 21h369l-168 477q-31 88 -62 119t-94 35l-55 4l-2 12h567l-8 -12l-47 -2q-91 -4 -108 -41.5t18 -128.5l147 -430h7l247 335q33 46 54.5 76t37.5 57.5t23 43.5t6 31t-7 22t-23 13.5t-35.5 10t-50.5 7.5l-43 6l-3 12h433l-9 -12l-55 -6q-47 -5 -77.5 -19.5
t-81.5 -68t-136 -166.5l-274 -373v-2h370q1 0 -0.5 -5.5t-3.5 -10.5l-2 -5h-368l-52 -243h367l2 -21h-373l-63 -301q-1 -8 5.5 -12.5t32 -8.5t77.5 -8l75 -6l2 -12h-600l6 12l105 8q102 8 106 33l62 295h-377l10 21h371z" />
    <glyph glyph-name="brokenbar" unicode="&#xa6;" horiz-adv-x="313" 
d="M158 598v686h18v-686h-18zM158 -315v686h18v-686h-18z" />
    <glyph glyph-name="section" unicode="&#xa7;" horiz-adv-x="772" 
d="M262 -90q-110 0 -186 41.5t-76 103.5q0 44 26 72.5t68 28.5t62 -30.5t14 -69t-31 -64.5q14 -30 54 -46t83 -16q81 0 134 55t53 113q0 64 -54 128.5t-153 142.5q-97 74 -153 146.5t-56 152.5q0 88 62 154t163 96q-28 43 -28 122q0 112 92 191.5t231 79.5
q103 0 178.5 -44.5t75.5 -107.5q0 -37 -30.5 -63.5t-71.5 -26.5q-45 0 -64.5 32t-13 71.5t30.5 64.5q-14 28 -48.5 41.5t-70.5 13.5q-82 0 -133 -53t-51 -113q0 -65 54 -130t155 -142q98 -76 154 -145t56 -150q0 -91 -65 -158t-166 -98q33 -50 33 -127q0 -78 -48 -140
t-122.5 -94t-157.5 -32zM551 317q51 30 79.5 75.5t28.5 92.5q0 52 -35.5 100t-109.5 111q-28 24 -71.5 58.5t-68 54.5t-51 46.5t-42.5 49.5q-109 -64 -109 -166q0 -54 35.5 -101.5t111.5 -109.5q12 -10 57 -45.5t58.5 -47t42 -37t44.5 -43.5t30 -38z" />
    <glyph glyph-name="dieresis" unicode="&#xa8;" horiz-adv-x="757" 
d="M715 1042q-50 0 -78.5 35.5t-28.5 71.5q0 39 28.5 77t78.5 38t78 -38t28 -77q0 -36 -28 -71.5t-78 -35.5zM346 1042q-50 0 -78 35.5t-28 71.5q0 39 28 77t78 38t78.5 -38t28.5 -77q0 -36 -28.5 -71.5t-78.5 -35.5z" />
    <glyph glyph-name="copyright" unicode="&#xa9;" horiz-adv-x="1441" 
d="M745 -29q-137 0 -261 53t-213 142.5t-142 213.5t-53 261t53 261t142 214.5t213 143.5t261 53q182 0 336.5 -90t244 -244.5t89.5 -337.5q0 -137 -53 -261t-142.5 -213.5t-213.5 -142.5t-261 -53zM745 -10q132 0 252.5 52t207.5 139t138.5 207.5t51.5 252.5t-51.5 252.5
t-138.5 208.5t-207.5 140t-252.5 52q-176 0 -325.5 -88t-236.5 -238.5t-87 -326.5t87 -326t236.5 -237.5t325.5 -87.5zM764 233q-191 0 -312.5 111t-121.5 291q0 177 123.5 291t322.5 114q57 0 118 -15t93 -34l74 31l4 -240h-8l-115 201q-56 45 -170 45q-147 0 -230 -110.5
t-83 -272.5q0 -175 90.5 -287t222.5 -112q101 0 161 45t120 145l30 51h9l-45 -200l-41 -11q-34 -16 -106.5 -29.5t-135.5 -13.5z" />
    <glyph glyph-name="ordfeminine" unicode="&#xaa;" horiz-adv-x="727" 
d="M285 588q-56 0 -94.5 42t-38.5 109q0 119 68 236.5t163 212.5q46 48 99.5 77t97.5 29q34 0 45.5 -31.5t11.5 -127.5h4l66 170l122 -7l-131 -340l-94 -294l86 -11l105 166l8 -4q-55 -117 -102.5 -172t-82.5 -55q-26 0 -81.5 21.5t-55.5 35.5q0 18 20 89t54 157h-4
q-19 -29 -47.5 -73.5t-43.5 -67.5t-37 -54.5t-36 -47t-32 -31.5t-35 -22.5t-35 -6.5zM350 676q36 0 95 80t128 219q43 88 43 131q0 46 -35.5 78.5t-86.5 32.5q-45 0 -78 -33q-52 -53 -93.5 -173.5t-41.5 -213.5q0 -58 19.5 -89.5t49.5 -31.5z" />
    <glyph glyph-name="guillemotleft" unicode="&#xab;" horiz-adv-x="890" 
d="M786 96l-368 357l4 18l516 342l6 -14l-340 -361l193 -327zM401 117l-372 336l4 18l512 320l6 -13l-336 -340l197 -307z" />
    <glyph glyph-name="logicalnot" unicode="&#xac;" horiz-adv-x="886" 
d="M842 629v-348h-25v323h-792l6 25h811z" />
    <glyph glyph-name="uni00AD" unicode="&#xad;" horiz-adv-x="573" 
d="M39 438l24 82h490l-25 -82h-489z" />
    <glyph glyph-name="registered" unicode="&#xae;" horiz-adv-x="1441" 
d="M745 -29q-137 0 -261 53t-213 142.5t-142 213.5t-53 261t53 261t142 214.5t213 143.5t261 53q182 0 336.5 -90t244 -244.5t89.5 -337.5q0 -137 -53 -261t-142.5 -213.5t-213.5 -142.5t-261 -53zM745 -10q132 0 252.5 52t207.5 139t138.5 207.5t51.5 252.5t-51.5 252.5
t-138.5 208.5t-207.5 140t-252.5 52q-176 0 -325.5 -88t-236.5 -238.5t-87 -326.5t87 -326t236.5 -237.5t325.5 -87.5zM383 258l4 8l62 6q19 2 39 8.5t20 12.5v704q0 6 -13 9.5t-59 7.5l-47 4l-4 8h330q152 0 229.5 -52.5t77.5 -152.5q0 -67 -52 -119t-136 -67l172 -258
q41 -61 69 -82t78 -27l16 -2l5 -8h-232l-8 16l-225 365q-49 11 -84 23v-373q0 -6 23.5 -11.5t47.5 -7.5l47 -4l5 -8h-365zM725 657q83 0 128.5 44t45.5 128q0 89 -55 135t-164 42l-55 -2v-326q68 -21 100 -21z" />
    <glyph glyph-name="macron" unicode="&#xaf;" horiz-adv-x="755" 
d="M250 1067l24 51h510l-22 -51h-512z" />
    <glyph glyph-name="degree" unicode="&#xb0;" horiz-adv-x="579" 
d="M420 778q-118 0 -190 77.5t-72 188.5q0 110 72 188.5t188 78.5t188 -78.5t72 -188.5q0 -111 -71.5 -188.5t-186.5 -77.5zM420 803q104 0 166.5 69t62.5 172q0 101 -63.5 171.5t-167.5 70.5t-168 -71t-64 -171q0 -102 64.5 -171.5t169.5 -69.5z" />
    <glyph glyph-name="plusminus" unicode="&#xb1;" horiz-adv-x="886" 
d="M442 172v342h-417l4 25h413v354h25v-354h412l4 -25h-416v-342h-25zM862 76h-817l4 24h809z" />
    <glyph glyph-name="twosuperior" unicode="&#xb2;" horiz-adv-x="536" 
d="M-35 518l-2 8q228 190 278 235q130 121 167 214q20 53 20 112q0 73 -42 114.5t-101 41.5q-47 0 -80 -23.5t-74 -78.5l-8 6q106 164 237 164q75 0 127.5 -50.5t53.5 -127.5q0 -49 -16 -93.5t-38 -78t-70 -78.5t-87.5 -76.5t-116 -92t-131.5 -106.5v-2h309q36 0 127 150
l6 10l6 -2l-106 -246h-459z" />
    <glyph glyph-name="threesuperior" unicode="&#xb3;" horiz-adv-x="493" 
d="M178 467q-192 0 -192 94q0 25 18 42.5t47 17.5q33 0 53.5 -34.5t-6.5 -78.5q42 -29 92 -29q77 0 133 65t56 154q0 82 -51 131.5t-144 49.5q-22 0 -67 -9l-4 9q90 37 136 59t88 51.5t57.5 60t15.5 72.5q0 52 -34.5 89.5t-90.5 37.5q-46 0 -90.5 -30.5t-71.5 -77.5l-8 6
q34 71 97.5 117.5t137.5 46.5q71 0 119.5 -45t48.5 -105q0 -73 -56.5 -124.5t-182.5 -92.5v-4h4q91 -9 145.5 -70t54.5 -137q0 -101 -92.5 -183.5t-212.5 -82.5z" />
    <glyph glyph-name="acute" unicode="&#xb4;" horiz-adv-x="757" 
d="M418 1006l260 383h196l-442 -383h-14z" />
    <glyph glyph-name="mu" unicode="&#xb5;" horiz-adv-x="1003" 
d="M428 -518h-430l6 12l37 2q52 3 69 8t17 21v1300q0 7 -4 10.5t-27 8t-73 8.5l-29 2l-6 12h313v-645q0 -131 186 -131q142 0 218 70v592q0 59 -19.5 77t-83.5 23l-29 2l-6 12h312v-723q0 -34 6 -44t24 -15l101 -21l-2 -10l-299 -86v170h-4q-87 -164 -218 -164
q-59 0 -107.5 38t-76.5 91h-4v-577q0 -16 17 -21t69 -8l37 -2z" />
    <glyph glyph-name="mu" unicode="&#x3bc;" horiz-adv-x="1003" 
d="M428 -518h-430l6 12l37 2q52 3 69 8t17 21v1300q0 7 -4 10.5t-27 8t-73 8.5l-29 2l-6 12h313v-645q0 -131 186 -131q142 0 218 70v592q0 59 -19.5 77t-83.5 23l-29 2l-6 12h312v-723q0 -34 6 -44t24 -15l101 -21l-2 -10l-299 -86v170h-4q-87 -164 -218 -164
q-59 0 -107.5 38t-76.5 91h-4v-577q0 -16 17 -21t69 -8l37 -2z" />
    <glyph glyph-name="paragraph" unicode="&#xb6;" horiz-adv-x="882" 
d="M651 -63l121 577h-2q-294 0 -462.5 97t-168.5 276q0 80 27 146t74.5 111.5t113.5 77t144.5 46t167.5 14.5h292l-286 -1345h-21z" />
    <glyph glyph-name="periodcentered" unicode="&#xb7;" horiz-adv-x="413" 
d="M207 336q-52 0 -87.5 36.5t-35.5 86.5q0 47 35 83t86 36t87 -36t36 -83q0 -50 -34.5 -86.5t-86.5 -36.5z" />
    <glyph glyph-name="cedilla" unicode="&#xb8;" horiz-adv-x="757" 
d="M-18 -522v10q185 14 264.5 59t79.5 121q0 101 -174 101q-37 0 -105 -11l4 17l242 217h26l-135 -127q116 9 193.5 -34t77.5 -116q0 -221 -473 -237z" />
    <glyph glyph-name="onesuperior" unicode="&#xb9;" horiz-adv-x="454" 
d="M45 518l6 8h39q59 0 62 21l145 696l-123 21l4 6l244 28l-162 -753q-1 -6 3 -9.5t19.5 -6.5t43.5 -3h34l5 -8h-320z" />
    <glyph glyph-name="ordmasculine" unicode="&#xba;" horiz-adv-x="649" 
d="M383 582q-93 0 -156 84t-63 202q0 94 53.5 196.5t135.5 170.5t159 68q98 0 165.5 -84.5t67.5 -202.5q0 -99 -54.5 -201t-139.5 -167.5t-168 -65.5zM365 600q67 0 127.5 80t97.5 203q31 109 31 227q0 81 -21.5 126.5t-58.5 45.5q-52 0 -119.5 -101.5t-106.5 -224.5
q-32 -106 -32 -198q0 -73 22.5 -115.5t59.5 -42.5z" />
    <glyph glyph-name="guillemotright" unicode="&#xbb;" horiz-adv-x="890" 
d="M358 117l-4 12l334 338l-199 311l13 13l372 -334l-4 -19zM-35 96l-4 13l338 358l-195 332l13 14l368 -356l-4 -19z" />
    <glyph glyph-name="onequarter" unicode="&#xbc;" horiz-adv-x="1208" 
d="M868 -252l47 217h-319v4l506 572h37l-105 -496h135l-22 -80h-131l-47 -217h-101zM684 45h248l78 365h-4zM45 518l6 8h39q59 0 62 21l145 696l-123 21l4 6l244 28l-162 -753q-1 -6 3 -9.5t19.5 -6.5t43.5 -3h34l5 -8h-320zM-109 -252l1430 1546h33l-1430 -1546h-33z" />
    <glyph glyph-name="onehalf" unicode="&#xbd;" horiz-adv-x="1245" 
d="M633 -252l-2 8q228 190 278 235q130 121 167 214q20 53 20 112q0 73 -42.5 114.5t-101.5 41.5q-47 0 -79 -23.5t-74 -78.5l-8 6q106 164 237 164q74 0 126.5 -51t53.5 -128q0 -42 -9.5 -79t-32.5 -72t-47.5 -64t-69.5 -67t-83 -68t-102 -81t-114 -93v-2h309q36 0 127 150
l6 10l6 -2l-106 -246h-459zM45 518l6 8h39q59 0 62 21l145 696l-123 21l4 6l244 28l-162 -753q-1 -6 3 -9.5t19.5 -6.5t43.5 -3h34l5 -8h-320zM-109 -252l1430 1546h33l-1430 -1546h-33z" />
    <glyph glyph-name="threequarters" unicode="&#xbe;" horiz-adv-x="1165" 
d="M825 -252l47 217h-319v4l506 572h37l-105 -496h135l-22 -80h-131l-47 -217h-101zM641 45h248l78 365h-4zM178 467q-192 0 -192 94q0 25 18 42.5t47 17.5q33 0 53.5 -34.5t-6.5 -78.5q42 -29 92 -29q77 0 133 65t56 154q0 82 -51 131.5t-144 49.5q-22 0 -67 -9l-4 9
q90 37 136 59t88 51.5t57.5 60t15.5 72.5q0 52 -34.5 89.5t-90.5 37.5q-46 0 -90.5 -30.5t-71.5 -77.5l-8 6q34 71 97.5 117.5t137.5 46.5q71 0 119.5 -45t48.5 -105q0 -73 -56.5 -124.5t-182.5 -92.5v-4h4q91 -9 145.5 -70t54.5 -137q0 -101 -92.5 -183.5t-212.5 -82.5z
M-152 -252l1430 1546h33l-1430 -1546h-33z" />
    <glyph glyph-name="questiondown" unicode="&#xbf;" horiz-adv-x="612" 
d="M485 1073q-51 0 -85.5 35t-34.5 82q0 49 33.5 85t84.5 36t87 -36.5t36 -84.5q0 -47 -35 -82t-86 -35zM367 -29q-81 0 -147 29t-106 77t-61.5 107t-21.5 123q0 127 52 198.5t193 117.5q35 11 48.5 15.5t39.5 13.5t35.5 14t27 14t23.5 16.5t14 18.5t10.5 22.5t2.5 26.5
q0 60 -80 137l13 6q61 -55 99 -118t38 -109q0 -74 -57.5 -119.5t-196.5 -85.5q-148 -42 -195 -71.5t-47 -92.5q0 -31 18.5 -62t55.5 -59t104.5 -45.5t155.5 -17.5q42 0 92 8q6 -18 6 -45q0 -22 -0.5 -33t-6.5 -30.5t-17.5 -29.5t-34.5 -18t-57 -8z" />
    <glyph glyph-name="Agrave" unicode="&#xc0;" horiz-adv-x="1257" 
d="M741 555h-346l-123 -217q-96 -169 -110 -200q-29 -68 -1 -92q27 -23 132 -30l61 -4l2 -12h-456l6 12l33 4q28 3 44.5 6t38.5 14.5t34.5 21t37 39.5t41 55t51 82.5t63 107.5t81.5 143l366 641l-10 76q96 22 158 107h18l94 -1037q13 -109 29.5 -160.5t42 -71t76.5 -22.5
l59 -6l2 -12h-575l6 12l66 4q54 3 79.5 26t28.5 68.5t-4 114.5zM410 582h329l-39 499h-6zM825 1348l-280 383h176l121 -383h-17z" />
    <glyph glyph-name="Aacute" unicode="&#xc1;" horiz-adv-x="1257" 
d="M741 555h-346l-123 -217q-96 -169 -110 -200q-29 -68 -1 -92q27 -23 132 -30l61 -4l2 -12h-456l6 12l33 4q28 3 44.5 6t38.5 14.5t34.5 21t37 39.5t41 55t51 82.5t63 107.5t81.5 143l366 641l-10 76q96 22 158 107h18l94 -1037q13 -109 29.5 -160.5t42 -71t76.5 -22.5
l59 -6l2 -12h-575l6 12l66 4q54 3 79.5 26t28.5 68.5t-4 114.5zM410 582h329l-39 499h-6zM717 1348l260 383h197l-443 -383h-14z" />
    <glyph glyph-name="Acircumflex" unicode="&#xc2;" horiz-adv-x="1257" 
d="M741 555h-346l-123 -217q-96 -169 -110 -200q-29 -68 -1 -92q27 -23 132 -30l61 -4l2 -12h-456l6 12l33 4q28 3 44.5 6t38.5 14.5t34.5 21t37 39.5t41 55t51 82.5t63 107.5t81.5 143l366 641l-10 76q96 22 158 107h18l94 -1037q13 -109 29.5 -160.5t42 -71t76.5 -22.5
l59 -6l2 -12h-575l6 12l66 4q54 3 79.5 26t28.5 68.5t-4 114.5zM410 582h329l-39 499h-6zM526 1325l353 404h14l186 -404h-16l-199 227h-6l-319 -227h-13z" />
    <glyph glyph-name="Atilde" unicode="&#xc3;" horiz-adv-x="1257" 
d="M741 555h-346l-123 -217q-96 -169 -110 -200q-29 -68 -1 -92q27 -23 132 -30l61 -4l2 -12h-456l6 12l33 4q28 3 44.5 6t38.5 14.5t34.5 21t37 39.5t41 55t51 82.5t63 107.5t81.5 143l366 641l-10 76q96 22 158 107h18l94 -1037q13 -109 29.5 -160.5t42 -71t76.5 -22.5
l59 -6l2 -12h-575l6 12l66 4q54 3 79.5 26t28.5 68.5t-4 114.5zM410 582h329l-39 499h-6zM965 1360q-41 0 -93.5 19.5t-93 43t-84.5 43t-71 19.5q-24 0 -37 -2.5t-28 -12t-24 -32.5t-16 -62h-16q25 122 60.5 169.5t107.5 47.5q51 0 119 -31.5t129 -62.5t94 -31q46 0 69 19.5
t37 89.5h17q-25 -120 -61.5 -168.5t-108.5 -48.5z" />
    <glyph glyph-name="Adieresis" unicode="&#xc4;" horiz-adv-x="1257" 
d="M741 555h-346l-123 -217q-96 -169 -110 -200q-29 -68 -1 -92q27 -23 132 -30l61 -4l2 -12h-456l6 12l33 4q28 3 44.5 6t38.5 14.5t34.5 21t37 39.5t41 55t51 82.5t63 107.5t81.5 143l366 641l-10 76q96 22 158 107h18l94 -1037q13 -109 29.5 -160.5t42 -71t76.5 -22.5
l59 -6l2 -12h-575l6 12l66 4q54 3 79.5 26t28.5 68.5t-4 114.5zM410 582h329l-39 499h-6zM1004 1384q-50 0 -78.5 35.5t-28.5 71.5q0 39 28.5 77t78.5 38t78 -38t28 -77q0 -36 -28 -71.5t-78 -35.5zM635 1384q-50 0 -78.5 35.5t-28.5 71.5q0 39 28.5 77t78.5 38t78 -38
t28 -77q0 -36 -28 -71.5t-78 -35.5z" />
    <glyph glyph-name="Aring" unicode="&#xc5;" horiz-adv-x="1257" 
d="M741 555h-344l-125 -219q-10 -18 -30 -52q-100 -162 -95.5 -210.5t146.5 -57.5l61 -4l2 -12h-456l6 12l33 4q28 3 44.5 6t38.5 14.5t34.5 21t37 39.5t41 55t51 82.5t63 107.5t81.5 143l448 787q-50 20 -79 66t-29 104q0 76 50 130t132 54t132 -54t50 -130
q0 -74 -46 -126.5t-122 -58.5l90 -985q13 -109 29.5 -160.5t42 -71t76.5 -22.5l59 -6l2 -12h-575l6 12l66 4q54 3 79.5 26t28.5 68.5t-4 114.5zM852 1276q73 0 117.5 48t44.5 118q0 69 -44.5 117.5t-117.5 48.5t-117.5 -48.5t-44.5 -117.5q0 -70 44.5 -118t117.5 -48z
M412 582h327l-39 497h-6z" />
    <glyph glyph-name="AE" unicode="&#xc6;" horiz-adv-x="1740" 
d="M780 555h-350l-162 -203q-26 -33 -70 -89q-108 -133 -125 -168q-20 -42 13 -58q24 -11 107 -21l34 -4l6 -12h-436l6 12l39 4q40 4 63.5 8t54.5 21t50 32.5t61.5 62t76.5 88.5t106 132l641 805q16 21 23.5 34t8 25.5t-12 19.5t-39 12.5t-70.5 7.5l-76 4l-2 12h930l24 -397
l-12 -2l-8 26q-3 10 -10 29q-26 76 -40.5 111.5t-45.5 85.5t-66.5 71.5t-95.5 38.5t-141 17h-142l-123 -590l95 2q115 5 176 20t100.5 49.5t71.5 104.5l14 28l14 -2l-92 -434l-14 2l4 29q14 111 -43 139.5t-248 38.5l-84 4l-129 -620l254 -11q43 1 81.5 6t72.5 16.5t63 23
t57 32.5t49 37t46 44.5t40.5 47t39 53t35.5 53t36 56.5l21 29l10 -2l-151 -416h-1037l6 12l84 8q103 8 107 33zM451 582h335l117 561h-4z" />
    <glyph glyph-name="Ccedilla" unicode="&#xc7;" horiz-adv-x="1398" 
d="M733 -31q-282 12 -455.5 176.5t-173.5 409.5q0 151 58.5 289.5t160 242t248.5 165t314 61.5q213 0 368 -92l142 32l-72 -364l-8 2l-82 291q-44 44 -132.5 76t-191.5 32q-115 0 -213 -45t-167 -121.5t-118 -177t-72.5 -211.5t-23.5 -225q0 -234 117 -372.5t324 -147.5l2 2
h26l-2 -2q137 0 244 66t201 194l57 78l8 -2l-110 -306l-70 -4q-54 -17 -152 -32t-188 -15h-12l-111 -104q116 9 193.5 -34t77.5 -116q0 -221 -474 -237v10q185 14 265 59.5t80 120.5q0 101 -175 101q-36 0 -104 -11l4 17z" />
    <glyph glyph-name="Egrave" unicode="&#xc8;" horiz-adv-x="1212" 
d="M-41 0l6 12l68 8q110 12 114 33l250 1180q1 6 -1.5 9t-16 6.5t-34 6t-62.5 7.5l-50 6l-2 12h897l25 -397l-12 -2l-8 26q-3 10 -10 29q-13 38 -20 57t-20 51.5t-22 49t-24.5 42t-30 38t-35.5 30t-44.5 26t-52.5 17t-64.5 12t-76.5 3.5h-141l-123 -592l94 2q115 5 176 20
t100.5 49.5t71.5 104.5l15 28l14 -2l-92 -434l-14 2l4 29q14 111 -43 139.5t-248 38.5l-84 4l-131 -622l254 -11q47 1 90.5 8.5t78 18t69 30.5t59.5 37t54 47t47 50.5t44 58t40 59t40 62.5l20 29l11 -2l-152 -416h-1028zM772 1348l-280 383h176l120 -383h-16z" />
    <glyph glyph-name="Eacute" unicode="&#xc9;" horiz-adv-x="1212" 
d="M-41 0l6 12l68 8q110 12 114 33l250 1180q1 6 -1.5 9t-16 6.5t-34 6t-62.5 7.5l-50 6l-2 12h897l25 -397l-12 -2l-8 26q-3 10 -10 29q-13 38 -20 57t-20 51.5t-22 49t-24.5 42t-30 38t-35.5 30t-44.5 26t-52.5 17t-64.5 12t-76.5 3.5h-141l-123 -592l94 2q115 5 176 20
t100.5 49.5t71.5 104.5l15 28l14 -2l-92 -434l-14 2l4 29q14 111 -43 139.5t-248 38.5l-84 4l-131 -622l254 -11q47 1 90.5 8.5t78 18t69 30.5t59.5 37t54 47t47 50.5t44 58t40 59t40 62.5l20 29l11 -2l-152 -416h-1028zM664 1348l260 383h196l-442 -383h-14z" />
    <glyph glyph-name="Ecircumflex" unicode="&#xca;" horiz-adv-x="1212" 
d="M-41 0l6 12l68 8q110 12 114 33l250 1180q1 6 -1.5 9t-16 6.5t-34 6t-62.5 7.5l-50 6l-2 12h897l25 -397l-12 -2l-8 26q-3 10 -10 29q-13 38 -20 57t-20 51.5t-22 49t-24.5 42t-30 38t-35.5 30t-44.5 26t-52.5 17t-64.5 12t-76.5 3.5h-141l-123 -592l94 2q115 5 176 20
t100.5 49.5t71.5 104.5l15 28l14 -2l-92 -434l-14 2l4 29q14 111 -43 139.5t-248 38.5l-84 4l-131 -622l254 -11q47 1 90.5 8.5t78 18t69 30.5t59.5 37t54 47t47 50.5t44 58t40 59t40 62.5l20 29l11 -2l-152 -416h-1028zM446 1325l353 404h14l186 -404h-16l-199 227h-6
l-319 -227h-13z" />
    <glyph glyph-name="Edieresis" unicode="&#xcb;" horiz-adv-x="1212" 
d="M-41 0l6 12l68 8q110 12 114 33l250 1180q1 6 -1.5 9t-16 6.5t-34 6t-62.5 7.5l-50 6l-2 12h897l25 -397l-12 -2l-8 26q-3 10 -10 29q-13 38 -20 57t-20 51.5t-22 49t-24.5 42t-30 38t-35.5 30t-44.5 26t-52.5 17t-64.5 12t-76.5 3.5h-141l-123 -592l94 2q115 5 176 20
t100.5 49.5t71.5 104.5l15 28l14 -2l-92 -434l-14 2l4 29q14 111 -43 139.5t-248 38.5l-84 4l-131 -622l254 -11q47 1 90.5 8.5t78 18t69 30.5t59.5 37t54 47t47 50.5t44 58t40 59t40 62.5l20 29l11 -2l-152 -416h-1028zM930 1384q-50 0 -78.5 35.5t-28.5 71.5q0 39 28.5 77
t78.5 38t78 -38t28 -77q0 -36 -28 -71.5t-78 -35.5zM561 1384q-50 0 -78 35.5t-28 71.5q0 39 28 77t78 38t78.5 -38t28.5 -77q0 -36 -28.5 -71.5t-78.5 -35.5z" />
    <glyph glyph-name="Igrave" unicode="&#xcc;" horiz-adv-x="690" 
d="M-29 0l6 12l84 8q103 8 107 33l250 1180q1 6 -2.5 9t-15.5 6.5t-34.5 6.5t-62.5 7l-57 6l-2 12h559l-8 -12l-82 -8q-103 -11 -107 -33l-250 -1180q-1 -6 2 -9t15 -6.5t35 -6.5t63 -7l57 -6l2 -12h-559zM584 1348l-281 383h176l121 -383h-16z" />
    <glyph glyph-name="Iacute" unicode="&#xcd;" horiz-adv-x="690" 
d="M-29 0l6 12l84 8q103 8 107 33l250 1180q1 6 -2.5 9t-15.5 6.5t-34.5 6.5t-62.5 7l-57 6l-2 12h559l-8 -12l-82 -8q-103 -11 -107 -33l-250 -1180q-1 -6 2 -9t15 -6.5t35 -6.5t63 -7l57 -6l2 -12h-559zM434 1348l260 383h197l-442 -383h-15z" />
    <glyph glyph-name="Icircumflex" unicode="&#xce;" horiz-adv-x="690" 
d="M-29 0l6 12l84 8q103 8 107 33l250 1180q1 6 -2.5 9t-15.5 6.5t-34.5 6.5t-62.5 7l-57 6l-2 12h559l-8 -12l-82 -8q-103 -11 -107 -33l-250 -1180q-1 -6 2 -9t15 -6.5t35 -6.5t63 -7l57 -6l2 -12h-559zM246 1325l352 404h14l187 -404h-17l-198 227h-6l-320 -227h-12z" />
    <glyph glyph-name="Idieresis" unicode="&#xcf;" horiz-adv-x="690" 
d="M-29 0l6 12l84 8q103 8 107 33l250 1180q1 6 -2.5 9t-15.5 6.5t-34.5 6.5t-62.5 7l-57 6l-2 12h559l-8 -12l-82 -8q-103 -11 -107 -33l-250 -1180q-1 -6 2 -9t15 -6.5t35 -6.5t63 -7l57 -6l2 -12h-559zM741 1384q-50 0 -78 35.5t-28 71.5q0 39 28 77t78 38t78.5 -38
t28.5 -77q0 -36 -28.5 -71.5t-78.5 -35.5zM373 1384q-50 0 -78.5 35.5t-28.5 71.5q0 39 28.5 77t78.5 38t78 -38t28 -77q0 -36 -28 -71.5t-78 -35.5z" />
    <glyph glyph-name="Eth" unicode="&#xd0;" horiz-adv-x="1363" 
d="M270 631h-194l8 24h190l123 578q1 6 -1.5 9t-16 6.5t-34 6t-62.5 7.5l-50 6l-2 12l482 4q165 1 291.5 -39.5t203 -113.5t114.5 -166.5t38 -204.5q0 -151 -58.5 -288.5t-163.5 -242.5t-264 -167t-348 -62h-567l6 12l76 8q102 11 106 33zM465 655h315l4 -24h-325l-119 -563
l133 -52q132 0 243 40t190 110t134.5 166t82 207.5t26.5 234.5q0 80 -15 150.5t-49.5 133.5t-85.5 107.5t-127.5 70.5t-171.5 26h-106z" />
    <glyph glyph-name="Ntilde" unicode="&#xd1;" horiz-adv-x="1341" 
d="M1018 -10l-619 1140h-4l-221 -1036q-7 -29 25.5 -48.5t119.5 -29.5l37 -4l2 -12h-424l9 12l39 4q70 8 113.5 29t49.5 53l228 1053q-2 2 -10.5 15.5t-13 19t-15.5 18t-21.5 20t-26 16.5t-35 15t-42.5 9l-25 4l-2 12h365l520 -987h4l191 893q7 29 -26 49.5t-120 28.5l-37 4
l-2 12h424l-8 -12l-39 -4q-69 -6 -113.5 -28t-50.5 -54l-258 -1192h-14zM1012 1360q-41 0 -93.5 19.5t-93 43t-84.5 43t-71 19.5q-24 0 -37 -2.5t-28 -12t-24 -32.5t-16 -62h-16q25 122 60.5 169.5t107.5 47.5q51 0 119 -31.5t129 -62.5t94 -31q46 0 69 19.5t37 89.5h17
q-25 -120 -61.5 -168.5t-108.5 -48.5z" />
    <glyph glyph-name="Ograve" unicode="&#xd2;" horiz-adv-x="1495" 
d="M750 -27q-188 0 -334.5 85.5t-223.5 226.5t-77 311q0 106 33 210t96.5 194t149.5 159.5t200 109.5t240 40q141 0 260.5 -50t199.5 -135.5t125 -200t45 -241.5q0 -189 -92 -351.5t-257 -260t-365 -97.5zM725 -6q112 0 215 72.5t174 188t113.5 260t42.5 286.5
q0 217 -112.5 352t-303.5 135q-117 0 -221 -73t-173.5 -189.5t-110 -261t-40.5 -287.5q0 -214 115 -348.5t301 -134.5zM920 1348l-281 383h176l121 -383h-16z" />
    <glyph glyph-name="Oacute" unicode="&#xd3;" horiz-adv-x="1495" 
d="M750 -27q-188 0 -334.5 85.5t-223.5 226.5t-77 311q0 106 33 210t96.5 194t149.5 159.5t200 109.5t240 40q141 0 260.5 -50t199.5 -135.5t125 -200t45 -241.5q0 -189 -92 -351.5t-257 -260t-365 -97.5zM725 -6q112 0 215 72.5t174 188t113.5 260t42.5 286.5
q0 217 -112.5 352t-303.5 135q-117 0 -221 -73t-173.5 -189.5t-110 -261t-40.5 -287.5q0 -214 115 -348.5t301 -134.5zM791 1348l260 383h196l-442 -383h-14z" />
    <glyph glyph-name="Ocircumflex" unicode="&#xd4;" horiz-adv-x="1495" 
d="M750 -27q-188 0 -334.5 85.5t-223.5 226.5t-77 311q0 106 33 210t96.5 194t149.5 159.5t200 109.5t240 40q141 0 260.5 -50t199.5 -135.5t125 -200t45 -241.5q0 -189 -92 -351.5t-257 -260t-365 -97.5zM725 -6q112 0 215 72.5t174 188t113.5 260t42.5 286.5
q0 217 -112.5 352t-303.5 135q-117 0 -221 -73t-173.5 -189.5t-110 -261t-40.5 -287.5q0 -214 115 -348.5t301 -134.5zM592 1325l352 404h14l187 -404h-17l-198 227h-6l-320 -227h-12z" />
    <glyph glyph-name="Otilde" unicode="&#xd5;" horiz-adv-x="1495" 
d="M750 -27q-188 0 -334.5 85.5t-223.5 226.5t-77 311q0 106 33 210t96.5 194t149.5 159.5t200 109.5t240 40q141 0 260.5 -50t199.5 -135.5t125 -200t45 -241.5q0 -189 -92 -351.5t-257 -260t-365 -97.5zM725 -6q112 0 215 72.5t174 188t113.5 260t42.5 286.5
q0 217 -112.5 352t-303.5 135q-117 0 -221 -73t-173.5 -189.5t-110 -261t-40.5 -287.5q0 -214 115 -348.5t301 -134.5zM1049 1360q-41 0 -93.5 19.5t-93 43t-84.5 43t-71 19.5q-24 0 -37 -2.5t-28 -12t-24 -32.5t-16 -62h-16q25 122 60.5 169.5t107.5 47.5q51 0 119 -31.5
t129 -62.5t94 -31q46 0 69 19.5t37 89.5h17q-25 -120 -61.5 -168.5t-108.5 -48.5z" />
    <glyph glyph-name="Odieresis" unicode="&#xd6;" horiz-adv-x="1495" 
d="M750 -27q-188 0 -334.5 85.5t-223.5 226.5t-77 311q0 106 33 210t96.5 194t149.5 159.5t200 109.5t240 40q141 0 260.5 -50t199.5 -135.5t125 -200t45 -241.5q0 -189 -92 -351.5t-257 -260t-365 -97.5zM725 -6q112 0 215 72.5t174 188t113.5 260t42.5 286.5
q0 217 -112.5 352t-303.5 135q-117 0 -221 -73t-173.5 -189.5t-110 -261t-40.5 -287.5q0 -214 115 -348.5t301 -134.5zM1087 1384q-50 0 -78 35.5t-28 71.5q0 39 28 77t78 38t78.5 -38t28.5 -77q0 -36 -28.5 -71.5t-78.5 -35.5zM719 1384q-50 0 -78.5 35.5t-28.5 71.5
q0 39 28.5 77t78.5 38t78 -38t28 -77q0 -36 -28 -71.5t-78 -35.5z" />
    <glyph glyph-name="multiply" unicode="&#xd7;" horiz-adv-x="886" 
d="M809 115l-354 354l-355 -354l-16 16l354 354l-354 355l16 16l355 -354l354 354l16 -16l-354 -355l354 -354z" />
    <glyph glyph-name="Oslash" unicode="&#xd8;" horiz-adv-x="1495" 
d="M1231 1178q112 -87 172.5 -217t60.5 -279q0 -189 -92 -351.5t-257 -260t-365 -97.5q-216 0 -375 111l-185 -234h-26l192 246q-115 86 -178 217.5t-63 282.5q0 106 33 210t96.5 194t149.5 159.5t200 109.5t240 40q219 0 380 -119l175 221h26q-182 -233 -184 -233zM403 156
l768 979q-115 153 -317 153q-117 0 -221 -73t-173.5 -189.5t-110 -261t-40.5 -287.5q0 -187 94 -321zM1184 1116l-768 -979q118 -143 309 -143q112 0 215 72.5t174 188t113.5 260t42.5 286.5q0 184 -86 315z" />
    <glyph glyph-name="Ugrave" unicode="&#xd9;" horiz-adv-x="1382" 
d="M719 -31q-110 0 -201.5 19.5t-162.5 58.5t-110.5 103.5t-39.5 148.5q0 73 24 186l158 748q1 8 -5.5 12.5t-32 8.5t-77.5 8l-77 6l-2 12h600l-9 -12l-102 -8q-103 -8 -107 -33l-153 -727q-21 -94 -21 -168q0 -153 96.5 -228t274.5 -75q155 0 248 100t139 317l158 740
q6 28 -27 48t-119 30l-36 4l-2 12h423l-8 -12l-39 -4q-70 -8 -113.5 -29t-49.5 -53l-160 -744q-50 -238 -155.5 -353.5t-311.5 -115.5zM981 1348l-281 383h177l120 -383h-16z" />
    <glyph glyph-name="Uacute" unicode="&#xda;" horiz-adv-x="1382" 
d="M719 -31q-110 0 -201.5 19.5t-162.5 58.5t-110.5 103.5t-39.5 148.5q0 73 24 186l158 748q1 8 -5.5 12.5t-32 8.5t-77.5 8l-77 6l-2 12h600l-9 -12l-102 -8q-103 -8 -107 -33l-153 -727q-21 -94 -21 -168q0 -153 96.5 -228t274.5 -75q155 0 248 100t139 317l158 740
q6 28 -27 48t-119 30l-36 4l-2 12h423l-8 -12l-39 -4q-70 -8 -113.5 -29t-49.5 -53l-160 -744q-50 -238 -155.5 -353.5t-311.5 -115.5zM831 1348l261 383h196l-442 -383h-15z" />
    <glyph glyph-name="Ucircumflex" unicode="&#xdb;" horiz-adv-x="1382" 
d="M719 -31q-110 0 -201.5 19.5t-162.5 58.5t-110.5 103.5t-39.5 148.5q0 73 24 186l158 748q1 8 -5.5 12.5t-32 8.5t-77.5 8l-77 6l-2 12h600l-9 -12l-102 -8q-103 -8 -107 -33l-153 -727q-21 -94 -21 -168q0 -153 96.5 -228t274.5 -75q155 0 248 100t139 317l158 740
q6 28 -27 48t-119 30l-36 4l-2 12h423l-8 -12l-39 -4q-70 -8 -113.5 -29t-49.5 -53l-160 -744q-50 -238 -155.5 -353.5t-311.5 -115.5zM635 1325l352 404h14l187 -404h-17l-198 227h-6l-320 -227h-12z" />
    <glyph glyph-name="Udieresis" unicode="&#xdc;" horiz-adv-x="1382" 
d="M719 -31q-110 0 -201.5 19.5t-162.5 58.5t-110.5 103.5t-39.5 148.5q0 73 24 186l158 748q1 8 -5.5 12.5t-32 8.5t-77.5 8l-77 6l-2 12h600l-9 -12l-102 -8q-103 -8 -107 -33l-153 -727q-21 -94 -21 -168q0 -153 96.5 -228t274.5 -75q155 0 248 100t139 317l158 740
q6 28 -27 48t-119 30l-36 4l-2 12h423l-8 -12l-39 -4q-70 -8 -113.5 -29t-49.5 -53l-160 -744q-50 -238 -155.5 -353.5t-311.5 -115.5zM1108 1384q-50 0 -78.5 35.5t-28.5 71.5q0 39 28.5 77t78.5 38t78 -38t28 -77q0 -36 -28 -71.5t-78 -35.5zM739 1384q-50 0 -78 35.5
t-28 71.5q0 39 28 77t78 38t78.5 -38t28.5 -77q0 -36 -28.5 -71.5t-78.5 -35.5z" />
    <glyph glyph-name="Yacute" unicode="&#xdd;" horiz-adv-x="1280" 
d="M246 0l6 12l104 8q103 8 107 33l110 520l-188 537q-31 89 -61 119.5t-93 34.5l-57 4l-2 12h569l-8 -12l-45 -2q-93 -4 -110 -40.5t18 -127.5l160 -471h4l248 334q119 166 135 193q34 58 10 79q-19 16 -111 29l-45 6l-2 12h435l-9 -12l-53 -6q-65 -8 -133.5 -68.5
t-192.5 -226.5l-276 -373l-115 -547q-1 -8 5.5 -12.5t32 -8.5t77.5 -8l78 -6l2 -12h-600zM768 1348l260 383h197l-443 -383h-14z" />
    <glyph glyph-name="Thorn" unicode="&#xde;" horiz-adv-x="1134" 
d="M-68 0l7 12l104 8q103 8 107 33l249 1180q1 8 -5 12.5t-31.5 8.5t-77.5 8l-78 6l-2 12h600l-8 -12l-103 -8q-102 -8 -106 -33l-45 -211l186 -2q197 0 303.5 -83t106.5 -210q0 -156 -137 -262.5t-351 -106.5q-22 0 -43 1t-41.5 3.5t-35.5 4.5t-36 6.5t-30 6.5t-30.5 7
t-26.5 6l-70 -340q-1 -8 5.5 -12.5t32.5 -9t77 -7.5l98 -6l2 -12h-621zM616 377q102 0 176.5 58.5t109 145.5t34.5 187q0 105 -54 164t-161 59h-184l-121 -573q2 -1 14 -5.5t15.5 -6t15 -5.5t17 -5.5t17.5 -4.5t20.5 -4.5t21 -4t24 -3t26 -1.5t29.5 -1z" />
    <glyph glyph-name="germandbls" unicode="&#xdf;" horiz-adv-x="993" 
d="M670 854q105 -74 186.5 -207t81.5 -264q0 -99 -47 -192.5t-130 -153.5t-177 -60q-89 0 -156.5 57.5t-67.5 123.5q0 57 35 92t86 35q64 0 92 -54q26 -49 0 -94q-32 -57 -122 -45q8 -29 45 -62.5t86 -33.5q86 0 139 92.5t53 226.5q0 132 -72.5 271t-209.5 250v8
q156 8 231.5 83t75.5 228q0 79 -30.5 129.5t-98.5 50.5q-35 0 -62 -11.5t-49.5 -40.5t-39 -60.5t-34.5 -92t-31.5 -113.5t-33.5 -143l-135 -600q-53 -225 -105.5 -355t-132.5 -210q-75 -78 -211 -78q-67 0 -113.5 32.5t-46.5 84.5q0 35 28.5 66.5t70.5 31.5q35 0 63.5 -26.5
t35 -64.5t-18.5 -81q30 -16 55 -16q32 0 56 26t51 99.5t54.5 188t67.5 307.5l105 522l-166 4l31 69l157 3q119 479 416 479q134 0 205 -67.5t71 -170.5q0 -107 -80.5 -173.5t-207.5 -90.5z" />
    <glyph glyph-name="agrave" unicode="&#xe0;" horiz-adv-x="911" 
d="M621 -25q-34 0 -105.5 29.5t-71.5 48.5q0 23 25.5 113.5t69.5 202.5h-4q-25 -39 -61.5 -95.5t-56 -87t-47 -70.5t-46 -60.5t-41.5 -41.5t-45 -29t-45 -8q-72 0 -122.5 55t-50.5 142q0 80 27 164t73 159t93.5 136t103.5 117q61 62 128.5 98.5t123.5 36.5q44 0 60 -41.5
t16 -163.5h4l82 217l160 -8l-168 -436l-121 -377l111 -13l133 216l12 -7q-71 -152 -132 -224.5t-105 -72.5zM276 92q46 0 121 102.5t164 280.5q55 108 55 168t-46 101.5t-109 41.5q-58 0 -101 -43q-67 -68 -119.5 -222t-52.5 -273q0 -74 24.5 -115t63.5 -41zM625 1006
l-281 383h176l121 -383h-16z" />
    <glyph glyph-name="aacute" unicode="&#xe1;" horiz-adv-x="911" 
d="M621 -25q-34 0 -105.5 29.5t-71.5 48.5q0 23 25.5 113.5t69.5 202.5h-4q-25 -39 -61.5 -95.5t-56 -87t-47 -70.5t-46 -60.5t-41.5 -41.5t-45 -29t-45 -8q-72 0 -122.5 55t-50.5 142q0 80 27 164t73 159t93.5 136t103.5 117q61 62 128.5 98.5t123.5 36.5q44 0 60 -41.5
t16 -163.5h4l82 217l160 -8l-168 -436l-121 -377l111 -13l133 216l12 -7q-71 -152 -132 -224.5t-105 -72.5zM276 92q46 0 121 102.5t164 280.5q55 108 55 168t-46 101.5t-109 41.5q-58 0 -101 -43q-67 -68 -119.5 -222t-52.5 -273q0 -74 24.5 -115t63.5 -41zM496 1006
l260 383h196l-442 -383h-14z" />
    <glyph glyph-name="acircumflex" unicode="&#xe2;" horiz-adv-x="911" 
d="M621 -25q-34 0 -105.5 29.5t-71.5 48.5q0 23 25.5 113.5t69.5 202.5h-4q-25 -39 -61.5 -95.5t-56 -87t-47 -70.5t-46 -60.5t-41.5 -41.5t-45 -29t-45 -8q-72 0 -122.5 55t-50.5 142q0 80 27 164t73 159t93.5 136t103.5 117q61 62 128.5 98.5t123.5 36.5q44 0 60 -41.5
t16 -163.5h4l82 217l160 -8l-168 -436l-121 -377l111 -13l133 216l12 -7q-71 -152 -132 -224.5t-105 -72.5zM276 92q46 0 121 102.5t164 280.5q55 108 55 168t-46 101.5t-109 41.5q-58 0 -101 -43q-67 -68 -119.5 -222t-52.5 -273q0 -74 24.5 -115t63.5 -41zM279 983
l352 403h14l186 -403h-16l-199 227h-6l-319 -227h-12z" />
    <glyph glyph-name="atilde" unicode="&#xe3;" horiz-adv-x="911" 
d="M621 -25q-34 0 -105.5 29.5t-71.5 48.5q0 23 25.5 113.5t69.5 202.5h-4q-25 -39 -61.5 -95.5t-56 -87t-47 -70.5t-46 -60.5t-41.5 -41.5t-45 -29t-45 -8q-72 0 -122.5 55t-50.5 142q0 80 27 164t73 159t93.5 136t103.5 117q61 62 128.5 98.5t123.5 36.5q44 0 60 -41.5
t16 -163.5h4l82 217l160 -8l-168 -436l-121 -377l111 -13l133 216l12 -7q-71 -152 -132 -224.5t-105 -72.5zM276 92q46 0 121 102.5t164 280.5q55 108 55 168t-46 101.5t-109 41.5q-58 0 -101 -43q-67 -68 -119.5 -222t-52.5 -273q0 -74 24.5 -115t63.5 -41zM795 1018
q-41 0 -93.5 19.5t-93 43t-84.5 43t-71 19.5q-24 0 -37 -2.5t-28 -12t-24 -32.5t-16 -62h-16q25 122 60.5 169.5t107.5 47.5q51 0 119 -31.5t129 -62.5t94 -31q46 0 69 19.5t37 89.5h17q-25 -120 -61.5 -168.5t-108.5 -48.5z" />
    <glyph glyph-name="adieresis" unicode="&#xe4;" horiz-adv-x="911" 
d="M621 -25q-34 0 -105.5 29.5t-71.5 48.5q0 23 25.5 113.5t69.5 202.5h-4q-25 -39 -61.5 -95.5t-56 -87t-47 -70.5t-46 -60.5t-41.5 -41.5t-45 -29t-45 -8q-72 0 -122.5 55t-50.5 142q0 80 27 164t73 159t93.5 136t103.5 117q61 62 128.5 98.5t123.5 36.5q44 0 60 -41.5
t16 -163.5h4l82 217l160 -8l-168 -436l-121 -377l111 -13l133 216l12 -7q-71 -152 -132 -224.5t-105 -72.5zM276 92q46 0 121 102.5t164 280.5q55 108 55 168t-46 101.5t-109 41.5q-58 0 -101 -43q-67 -68 -119.5 -222t-52.5 -273q0 -74 24.5 -115t63.5 -41zM772 1042
q-50 0 -78 35.5t-28 71.5q0 39 28 77t78 38t78.5 -38t28.5 -77q0 -36 -28.5 -71.5t-78.5 -35.5zM403 1042q-50 0 -78 35.5t-28 71.5q0 39 28 77t78 38t78.5 -38t28.5 -77q0 -36 -28.5 -71.5t-78.5 -35.5z" />
    <glyph glyph-name="aring" unicode="&#xe5;" horiz-adv-x="911" 
d="M602 1020q-82 0 -132 53t-50 131q0 77 50 131t132 54t132 -54t50 -131q0 -78 -50 -131t-132 -53zM621 -25q-34 0 -105.5 29.5t-71.5 48.5q0 23 25.5 113.5t69.5 202.5h-4q-25 -39 -61.5 -95.5t-56 -87t-47 -70.5t-46 -60.5t-41.5 -41.5t-45 -29t-45 -8q-72 0 -122.5 55
t-50.5 142q0 80 27 164t73 159t93.5 136t103.5 117q61 62 128.5 98.5t123.5 36.5q44 0 60 -41.5t16 -163.5h4l82 217l160 -8l-168 -436l-121 -377l111 -13l133 216l12 -7q-71 -152 -132 -224.5t-105 -72.5zM602 1038q73 0 117.5 48t44.5 118q0 69 -44.5 117.5t-117.5 48.5
t-117.5 -48.5t-44.5 -117.5q0 -70 44.5 -118t117.5 -48zM276 92q46 0 121 102.5t164 280.5q55 108 55 168t-46 101.5t-109 41.5q-58 0 -101 -43q-67 -68 -119.5 -222t-52.5 -273q0 -74 24.5 -115t63.5 -41z" />
    <glyph glyph-name="ae" unicode="&#xe6;" horiz-adv-x="1230" 
d="M190 -25q-72 0 -121 55.5t-49 143.5q0 80 27 164t73 159t93.5 136t103.5 117q141 145 246 145q104 0 117 -209q74 97 166.5 154t185.5 57q97 0 156 -42t59 -114q0 -97 -128 -162t-394 -110q-27 -96 -27 -174q0 -109 40 -162t124 -53q75 0 132.5 46t133.5 167l15 -6
q-35 -61 -74 -113.5t-86 -99t-101 -73t-108 -26.5q-110 0 -181 83.5t-71 199.5q0 61 6 90q-132 -202 -161 -241q-85 -114 -152 -129q-12 -3 -25 -3zM733 485q193 40 275 104t82 173q0 110 -76 110q-51 0 -117 -63q-49 -49 -94.5 -137t-73.5 -185zM274 90q46 0 122.5 103.5
t164.5 281.5q55 108 55 168t-46 101.5t-109 41.5q-58 0 -101 -43q-67 -68 -119.5 -222t-52.5 -273q0 -75 23.5 -116.5t62.5 -41.5z" />
    <glyph glyph-name="ccedilla" unicode="&#xe7;" horiz-adv-x="698" 
d="M254 -25q-103 6 -169.5 88.5t-66.5 194.5q0 107 44.5 221.5t116 206.5t169 151.5t195.5 59.5q78 0 139 -42t61 -107q0 -46 -31.5 -79.5t-72.5 -33.5q-37 0 -68.5 24.5t-31.5 57.5q0 67 71 110q-7 5 -19 18.5t-25.5 20t-37.5 6.5q-59 0 -141 -75q-79 -83 -135.5 -227.5
t-56.5 -274.5q0 -110 35.5 -162.5t113.5 -52.5q76 0 130 45t132 168l15 -6q-36 -63 -70 -112t-77 -95.5t-91.5 -73.5t-99.5 -31l-119 -110q116 9 193 -34t77 -116q0 -221 -473 -237v10q185 14 264.5 59t79.5 121q0 101 -174 101q-36 0 -104 -11l4 17z" />
    <glyph glyph-name="egrave" unicode="&#xe8;" horiz-adv-x="727" 
d="M270 -25q-110 0 -181 83.5t-71 199.5q0 108 45 224t116 206.5t164.5 149.5t184.5 59q97 0 156 -42t59 -114q0 -97 -128 -162t-394 -110q-26 -93 -26 -174q0 -110 39.5 -162.5t123.5 -52.5q75 0 133 46t134 167l14 -6q-35 -61 -74 -113.5t-86 -99t-101 -73t-108 -26.5z
M229 485q193 40 275 104t82 173q0 110 -76 110q-51 0 -117 -63q-49 -49 -94.5 -137t-73.5 -185zM537 1006l-281 383h176l121 -383h-16z" />
    <glyph glyph-name="eacute" unicode="&#xe9;" horiz-adv-x="727" 
d="M270 -25q-110 0 -181 83.5t-71 199.5q0 108 45 224t116 206.5t164.5 149.5t184.5 59q97 0 156 -42t59 -114q0 -97 -128 -162t-394 -110q-26 -93 -26 -174q0 -110 39.5 -162.5t123.5 -52.5q75 0 133 46t134 167l14 -6q-35 -61 -74 -113.5t-86 -99t-101 -73t-108 -26.5z
M229 485q193 40 275 104t82 173q0 110 -76 110q-51 0 -117 -63q-49 -49 -94.5 -137t-73.5 -185zM449 1006l260 383h196l-442 -383h-14z" />
    <glyph glyph-name="ecircumflex" unicode="&#xea;" horiz-adv-x="727" 
d="M270 -25q-110 0 -181 83.5t-71 199.5q0 108 45 224t116 206.5t164.5 149.5t184.5 59q97 0 156 -42t59 -114q0 -97 -128 -162t-394 -110q-26 -93 -26 -174q0 -110 39.5 -162.5t123.5 -52.5q75 0 133 46t134 167l14 -6q-35 -61 -74 -113.5t-86 -99t-101 -73t-108 -26.5z
M229 485q193 40 275 104t82 173q0 110 -76 110q-51 0 -117 -63q-49 -49 -94.5 -137t-73.5 -185zM231 983l353 403h14l186 -403h-16l-199 227h-6l-319 -227h-13z" />
    <glyph glyph-name="edieresis" unicode="&#xeb;" horiz-adv-x="727" 
d="M270 -25q-110 0 -181 83.5t-71 199.5q0 108 45 224t116 206.5t164.5 149.5t184.5 59q97 0 156 -42t59 -114q0 -97 -128 -162t-394 -110q-26 -93 -26 -174q0 -110 39.5 -162.5t123.5 -52.5q75 0 133 46t134 167l14 -6q-35 -61 -74 -113.5t-86 -99t-101 -73t-108 -26.5z
M229 485q193 40 275 104t82 173q0 110 -76 110q-51 0 -117 -63q-49 -49 -94.5 -137t-73.5 -185zM705 1042q-50 0 -78.5 35.5t-28.5 71.5q0 39 28.5 77t78.5 38t78 -38t28 -77q0 -36 -28 -71.5t-78 -35.5zM336 1042q-50 0 -78.5 35.5t-28.5 71.5q0 39 28.5 77t78.5 38t78 -38
t28 -77q0 -36 -28 -71.5t-78 -35.5z" />
    <glyph glyph-name="igrave" unicode="&#xec;" horiz-adv-x="505" 
d="M207 -25q-34 0 -104 25.5t-70 42.5t57 167.5t129.5 337t93.5 249.5l-131 10l-131 -211l-12 6q72 150 146 222.5t141 72.5q45 0 85 -43t40 -92q0 -31 -50 -162.5t-118 -298t-88 -223.5l124 -15l136 213l10 -6q-68 -146 -139.5 -220.5t-118.5 -74.5zM406 1006l-281 383h176
l121 -383h-16z" />
    <glyph glyph-name="iacute" unicode="&#xed;" horiz-adv-x="505" 
d="M207 -25q-34 0 -104 25.5t-70 42.5t57 167.5t129.5 337t93.5 249.5l-131 10l-131 -211l-12 6q72 150 146 222.5t141 72.5q45 0 85 -43t40 -92q0 -31 -50 -162.5t-118 -298t-88 -223.5l124 -15l136 213l10 -6q-68 -146 -139.5 -220.5t-118.5 -74.5zM297 1006l260 383h197
l-443 -383h-14z" />
    <glyph glyph-name="icircumflex" unicode="&#xee;" horiz-adv-x="505" 
d="M104 989l332 400h15l165 -400h-16l-190 225h-7l-286 -225h-13zM207 -25q-34 0 -104 25.5t-70 42.5t57 167.5t129.5 337t93.5 249.5l-131 10l-131 -211l-12 6q72 150 146 222.5t141 72.5q45 0 85 -43t40 -92q0 -31 -50 -162.5t-118 -298t-88 -223.5l124 -15l136 213l10 -6
q-68 -146 -139.5 -220.5t-118.5 -74.5z" />
    <glyph glyph-name="idieresis" unicode="&#xef;" horiz-adv-x="505" 
d="M207 -25q-34 0 -104 25.5t-70 42.5t57 167.5t129.5 337t93.5 249.5l-131 10l-131 -211l-12 6q72 150 146 222.5t141 72.5q45 0 85 -43t40 -92q0 -31 -50 -162.5t-118 -298t-88 -223.5l124 -15l136 213l10 -6q-68 -146 -139.5 -220.5t-118.5 -74.5zM614 1042
q-50 0 -78 35.5t-28 71.5q0 39 28 77t78 38t78.5 -38t28.5 -77q0 -36 -28.5 -71.5t-78.5 -35.5zM246 1042q-50 0 -78.5 35.5t-28.5 71.5q0 39 28.5 77t78.5 38t78 -38t28 -77q0 -36 -28 -71.5t-78 -35.5z" />
    <glyph glyph-name="eth" unicode="&#xf0;" horiz-adv-x="825" 
d="M444 1137l-239 -72l8 25l217 67q-69 88 -170 143l6 17q134 -37 250 -133l242 73l-2 -24l-219 -68q115 -105 182 -254.5t67 -314.5q0 -150 -69.5 -294.5t-179.5 -234.5t-222 -90q-119 0 -199.5 108.5t-80.5 262.5q0 90 41 188t104.5 175t144 127.5t154.5 50.5
q65 0 105 -27q-50 155 -140 275zM291 2q88 0 168 99.5t127 254.5q19 58 29 141.5t10 147.5q0 101 -31 159t-78 58q-67 0 -152.5 -124t-134.5 -279q-41 -125 -41 -254q0 -93 28.5 -148t74.5 -55z" />
    <glyph glyph-name="ntilde" unicode="&#xf1;" horiz-adv-x="968" 
d="M670 -25q-33 0 -100.5 29.5t-67.5 48.5q0 7 8.5 32.5t25.5 69.5t33.5 86t41.5 105t40 103t44.5 109.5t45 110.5t15.5 56q0 28 -31 51t-66 23q-48 0 -157.5 -165t-241.5 -446l-74 -194l-163 10l116 338l137 459l-100 8l-131 -213l-12 6q138 297 268 297q33 0 78 -44.5
t45 -90.5q0 -45 -41.5 -179t-103.5 -284l6 -4q90 176 180.5 324t142.5 200q33 33 76.5 53.5t75.5 20.5q58 0 105.5 -35t47.5 -78q0 -76 -104 -333l-150 -373l109 -13l135 216l12 -7q-70 -149 -135.5 -223t-109.5 -74zM770 1018q-41 0 -93.5 19.5t-93 43t-84.5 43t-71 19.5
q-24 0 -36.5 -2.5t-27.5 -12t-24 -32.5t-16 -62h-17q25 122 60.5 169.5t107.5 47.5q51 0 119 -31.5t129 -62.5t94 -31q46 0 69.5 19.5t37.5 89.5h16q-25 -120 -61.5 -168.5t-108.5 -48.5z" />
    <glyph glyph-name="ograve" unicode="&#xf2;" horiz-adv-x="813" 
d="M315 -23q-119 0 -199.5 108.5t-80.5 262.5q0 90 41 188.5t104.5 176t144 128t154.5 50.5q124 0 211.5 -107.5t87.5 -259.5q0 -124 -70 -252.5t-178.5 -211.5t-214.5 -83zM291 2q87 0 163 98.5t124 255.5q38 118 38 289q0 104 -27 161.5t-73 57.5q-44 0 -100 -60
t-105.5 -152.5t-81.5 -192.5q-41 -125 -41 -254q0 -93 28.5 -148t74.5 -55zM604 1006l-280 383h176l121 -383h-17z" />
    <glyph glyph-name="oacute" unicode="&#xf3;" horiz-adv-x="813" 
d="M315 -23q-119 0 -199.5 108.5t-80.5 262.5q0 90 41 188.5t104.5 176t144 128t154.5 50.5q124 0 211.5 -107.5t87.5 -259.5q0 -124 -70 -252.5t-178.5 -211.5t-214.5 -83zM291 2q87 0 163 98.5t124 255.5q38 118 38 289q0 104 -27 161.5t-73 57.5q-44 0 -100 -60
t-105.5 -152.5t-81.5 -192.5q-41 -125 -41 -254q0 -93 28.5 -148t74.5 -55zM455 1006l260 383h196l-442 -383h-14z" />
    <glyph glyph-name="ocircumflex" unicode="&#xf4;" horiz-adv-x="813" 
d="M315 -23q-119 0 -199.5 108.5t-80.5 262.5q0 90 41 188.5t104.5 176t144 128t154.5 50.5q124 0 211.5 -107.5t87.5 -259.5q0 -124 -70 -252.5t-178.5 -211.5t-214.5 -83zM291 2q87 0 163 98.5t124 255.5q38 118 38 289q0 104 -27 161.5t-73 57.5q-44 0 -100 -60
t-105.5 -152.5t-81.5 -192.5q-41 -125 -41 -254q0 -93 28.5 -148t74.5 -55zM258 983l352 403h15l186 -403h-16l-199 227h-6l-320 -227h-12z" />
    <glyph glyph-name="otilde" unicode="&#xf5;" horiz-adv-x="813" 
d="M315 -23q-119 0 -199.5 108.5t-80.5 262.5q0 90 41 188.5t104.5 176t144 128t154.5 50.5q124 0 211.5 -107.5t87.5 -259.5q0 -124 -70 -252.5t-178.5 -211.5t-214.5 -83zM291 2q87 0 163 98.5t124 255.5q38 118 38 289q0 104 -27 161.5t-73 57.5q-44 0 -100 -60
t-105.5 -152.5t-81.5 -192.5q-41 -125 -41 -254q0 -93 28.5 -148t74.5 -55zM713 1018q-41 0 -93.5 19.5t-93 43t-84.5 43t-71 19.5q-24 0 -37 -2.5t-28 -12t-24 -32.5t-16 -62h-16q25 122 60.5 169.5t107.5 47.5q51 0 119 -31.5t129 -62.5t94 -31q46 0 69 19.5t37 89.5h17
q-25 -120 -61.5 -168.5t-108.5 -48.5z" />
    <glyph glyph-name="odieresis" unicode="&#xf6;" horiz-adv-x="813" 
d="M315 -23q-119 0 -199.5 108.5t-80.5 262.5q0 90 41 188.5t104.5 176t144 128t154.5 50.5q124 0 211.5 -107.5t87.5 -259.5q0 -124 -70 -252.5t-178.5 -211.5t-214.5 -83zM291 2q87 0 163 98.5t124 255.5q38 118 38 289q0 104 -27 161.5t-73 57.5q-44 0 -100 -60
t-105.5 -152.5t-81.5 -192.5q-41 -125 -41 -254q0 -93 28.5 -148t74.5 -55zM752 1042q-50 0 -78.5 35.5t-28.5 71.5q0 39 28.5 77t78.5 38t78 -38t28 -77q0 -36 -28 -71.5t-78 -35.5zM383 1042q-50 0 -78.5 35.5t-28.5 71.5q0 39 28.5 77t78.5 38t78 -38t28 -77
q0 -36 -28 -71.5t-78 -35.5z" />
    <glyph glyph-name="divide" unicode="&#xf7;" horiz-adv-x="886" 
d="M551 774q0 -40 -28 -70t-70 -30t-71.5 30.5t-29.5 69.5q0 37 29.5 65.5t71.5 28.5t70 -28t28 -66zM862 473h-817l4 25h809zM551 195q0 -39 -28 -69t-70 -30t-71.5 30t-29.5 69q0 37 29.5 65.5t71.5 28.5t70 -28t28 -66z" />
    <glyph glyph-name="oslash" unicode="&#xf8;" horiz-adv-x="813" 
d="M696 776q82 -109 82 -252q0 -125 -70 -252.5t-178.5 -209.5t-214.5 -82q-103 0 -180 83q1 0 -62.5 -81.5t-127.5 -162.5l-64 -81h-26l268 340q-88 109 -88 268q0 121 68 248.5t172.5 211t203.5 83.5q118 0 203 -98l293 374h26zM190 164l424 541q-7 76 -32.5 116.5
t-65.5 40.5q-67 0 -152.5 -124t-134.5 -279q-41 -125 -41 -254q0 -27 2 -41zM616 674l-423 -539q11 -63 36 -97t62 -34q87 0 163 97.5t124 252.5q38 121 38 291v29z" />
    <glyph glyph-name="ugrave" unicode="&#xf9;" horiz-adv-x="968" 
d="M670 -27q-33 0 -78 45t-45 91q0 45 40.5 180.5t102.5 283.5l-6 5q-92 -179 -181 -327t-141 -200q-33 -33 -76 -53.5t-75 -20.5q-58 0 -106 35t-48 78q0 74 105 334l147 375l-108 10l-133 -215l-13 6q70 149 136 223t110 74q33 0 100.5 -29.5t67.5 -48.5q0 -10 -20 -64
t-66 -169t-64 -162q-15 -38 -44 -109.5t-44.5 -112.5t-15.5 -55q0 -28 30.5 -50.5t65.5 -22.5q48 0 158 164.5t242 443.5l73 197l164 -11l-117 -338l-139 -456l101 -11l133 213l12 -6q-138 -297 -268 -297zM696 1006l-280 383h176l121 -383h-17z" />
    <glyph glyph-name="uacute" unicode="&#xfa;" horiz-adv-x="968" 
d="M670 -27q-33 0 -78 45t-45 91q0 45 40.5 180.5t102.5 283.5l-6 5q-92 -179 -181 -327t-141 -200q-33 -33 -76 -53.5t-75 -20.5q-58 0 -106 35t-48 78q0 74 105 334l147 375l-108 10l-133 -215l-13 6q70 149 136 223t110 74q33 0 100.5 -29.5t67.5 -48.5q0 -10 -20 -64
t-66 -169t-64 -162q-15 -38 -44 -109.5t-44.5 -112.5t-15.5 -55q0 -28 30.5 -50.5t65.5 -22.5q48 0 158 164.5t242 443.5l73 197l164 -11l-117 -338l-139 -456l101 -11l133 213l12 -6q-138 -297 -268 -297zM547 1006l260 383h197l-443 -383h-14z" />
    <glyph glyph-name="ucircumflex" unicode="&#xfb;" horiz-adv-x="968" 
d="M670 -27q-33 0 -78 45t-45 91q0 45 40.5 180.5t102.5 283.5l-6 5q-92 -179 -181 -327t-141 -200q-33 -33 -76 -53.5t-75 -20.5q-58 0 -106 35t-48 78q0 74 105 334l147 375l-108 10l-133 -215l-13 6q70 149 136 223t110 74q33 0 100.5 -29.5t67.5 -48.5q0 -10 -20 -64
t-66 -169t-64 -162q-15 -38 -44 -109.5t-44.5 -112.5t-15.5 -55q0 -28 30.5 -50.5t65.5 -22.5q48 0 158 164.5t242 443.5l73 197l164 -11l-117 -338l-139 -456l101 -11l133 213l12 -6q-138 -297 -268 -297zM350 983l352 403h15l186 -403h-16l-199 227h-6l-320 -227h-12z" />
    <glyph glyph-name="udieresis" unicode="&#xfc;" horiz-adv-x="968" 
d="M670 -27q-33 0 -78 45t-45 91q0 45 40.5 180.5t102.5 283.5l-6 5q-92 -179 -181 -327t-141 -200q-33 -33 -76 -53.5t-75 -20.5q-58 0 -106 35t-48 78q0 74 105 334l147 375l-108 10l-133 -215l-13 6q70 149 136 223t110 74q33 0 100.5 -29.5t67.5 -48.5q0 -10 -20 -64
t-66 -169t-64 -162q-15 -38 -44 -109.5t-44.5 -112.5t-15.5 -55q0 -28 30.5 -50.5t65.5 -22.5q48 0 158 164.5t242 443.5l73 197l164 -11l-117 -338l-139 -456l101 -11l133 213l12 -6q-138 -297 -268 -297zM844 1042q-50 0 -78.5 35.5t-28.5 71.5q0 39 28.5 77t78.5 38
t78 -38t28 -77q0 -36 -28 -71.5t-78 -35.5zM475 1042q-50 0 -78 35.5t-28 71.5q0 39 28 77t78 38t78.5 -38t28.5 -77q0 -36 -28.5 -71.5t-78.5 -35.5z" />
    <glyph glyph-name="yacute" unicode="&#xfd;" horiz-adv-x="862" 
d="M-98 -373q-172 0 -172 127q0 40 29.5 66t70.5 26q59 0 84.5 -49t-6.5 -112l76 -25q196 41 399 268q0 469 -44.5 675t-141.5 206h-31l-119 -213l-14 6q78 167 104 207q46 72 107 84q18 4 39 4q90 0 143.5 -74t79 -246t24.5 -466l5 -2q224 373 233 657q-42 -36 -81 -33
t-67 28t-30 54q-3 41 22.5 69.5t71.5 28.5q45 0 79 -34t34 -105q0 -208 -132 -471t-325 -450q-107 -105 -220.5 -165.5t-217.5 -60.5zM530 1006l261 383h196l-442 -383h-15z" />
    <glyph glyph-name="thorn" unicode="&#xfe;" horiz-adv-x="831" 
d="M-293 -518l6 12l39 2q52 3 69 8t21 21l518 1730q5 17 2.5 32.5t-12.5 15.5l-164 6l4 12l369 35l-41 -131q-64 -208 -117 -369.5t-94 -278.5t-51 -149q-6 -18 -3 -19t11 13q111 256 203.5 364.5t177.5 108.5q75 0 120.5 -79.5t45.5 -201.5q0 -150 -76 -300t-195 -244.5
t-237 -94.5q-91 0 -135 93h-4l-162 -547q-2 -7 7 -12t35.5 -8.5t72.5 -4.5l63 -2l2 -12h-475zM303 -4q55 0 127 72q81 81 148 252.5t67 285.5q0 97 -23 137.5t-69 40.5q-127 0 -299 -438q-70 -169 -70 -231q0 -46 36.5 -82.5t82.5 -36.5z" />
    <glyph glyph-name="ydieresis" unicode="&#xff;" horiz-adv-x="862" 
d="M-98 -373q-172 0 -172 127q0 40 29.5 66t70.5 26q59 0 84.5 -49t-6.5 -112l76 -25q196 41 399 268q0 469 -44.5 675t-141.5 206h-31l-119 -213l-14 6q78 167 104 207q46 72 107 84q18 4 39 4q90 0 143.5 -74t79 -246t24.5 -466l5 -2q224 373 233 657q-42 -36 -81 -33
t-67 28t-30 54q-3 41 22.5 69.5t71.5 28.5q45 0 79 -34t34 -105q0 -208 -132 -471t-325 -450q-107 -105 -220.5 -165.5t-217.5 -60.5zM799 1042q-50 0 -78.5 35.5t-28.5 71.5q0 39 28.5 77t78.5 38t78 -38t28 -77q0 -36 -28 -71.5t-78 -35.5zM430 1042q-50 0 -78 35.5
t-28 71.5q0 39 28 77t78 38t78.5 -38t28.5 -77q0 -36 -28.5 -71.5t-78.5 -35.5z" />
    <glyph glyph-name="Amacron" unicode="&#x100;" horiz-adv-x="1257" 
d="M741 555h-346l-123 -217q-96 -169 -110 -200q-29 -68 -1 -92q27 -23 132 -30l61 -4l2 -12h-456l6 12l33 4q28 3 44.5 6t38.5 14.5t34.5 21t37 39.5t41 55t51 82.5t63 107.5t81.5 143l366 641l-10 76q96 22 158 107h18l94 -1037q13 -109 29.5 -160.5t42 -71t76.5 -22.5
l59 -6l2 -12h-575l6 12l66 4q54 3 79.5 26t28.5 68.5t-4 114.5zM410 582h329l-39 499h-6zM549 1448l24 51h510l-22 -51h-512z" />
    <glyph glyph-name="amacron" unicode="&#x101;" horiz-adv-x="911" 
d="M621 -25q-34 0 -105.5 29.5t-71.5 48.5q0 23 25.5 113.5t69.5 202.5h-4q-25 -39 -61.5 -95.5t-56 -87t-47 -70.5t-46 -60.5t-41.5 -41.5t-45 -29t-45 -8q-72 0 -122.5 55t-50.5 142q0 80 27 164t73 159t93.5 136t103.5 117q61 62 128.5 98.5t123.5 36.5q44 0 60 -41.5
t16 -163.5h4l82 217l160 -8l-168 -436l-121 -377l111 -13l133 216l12 -7q-71 -152 -132 -224.5t-105 -72.5zM276 92q46 0 121 102.5t164 280.5q55 108 55 168t-46 101.5t-109 41.5q-58 0 -101 -43q-67 -68 -119.5 -222t-52.5 -273q0 -74 24.5 -115t63.5 -41zM391 1067l25 51
h510l-23 -51h-512z" />
    <glyph glyph-name="Abreve" unicode="&#x102;" horiz-adv-x="1257" 
d="M741 555h-346l-123 -217q-96 -169 -110 -200q-29 -68 -1 -92q27 -23 132 -30l61 -4l2 -12h-456l6 12l33 4q28 3 44.5 6t38.5 14.5t34.5 21t37 39.5t41 55t51 82.5t63 107.5t81.5 143l366 641l-10 76q96 22 158 107h18l94 -1037q13 -109 29.5 -160.5t42 -71t76.5 -22.5
l59 -6l2 -12h-575l6 12l66 4q54 3 79.5 26t28.5 68.5t-4 114.5zM410 582h329l-39 499h-6zM797 1376q-61 0 -102 30.5t-60.5 87t-26.5 116.5t-6 139h16q18 -134 63.5 -195t133.5 -61q86 0 153.5 60.5t139.5 195.5h18q-70 -164 -101 -217q-80 -136 -191 -153q-18 -3 -37 -3z
" />
    <glyph glyph-name="abreve" unicode="&#x103;" horiz-adv-x="911" 
d="M621 -25q-34 0 -105.5 29.5t-71.5 48.5q0 23 25.5 113.5t69.5 202.5h-4q-25 -39 -61.5 -95.5t-56 -87t-47 -70.5t-46 -60.5t-41.5 -41.5t-45 -29t-45 -8q-72 0 -122.5 55t-50.5 142q0 80 27 164t73 159t93.5 136t103.5 117q61 62 128.5 98.5t123.5 36.5q44 0 60 -41.5
t16 -163.5h4l82 217l160 -8l-168 -436l-121 -377l111 -13l133 216l12 -7q-71 -152 -132 -224.5t-105 -72.5zM276 92q46 0 121 102.5t164 280.5q55 108 55 168t-46 101.5t-109 41.5q-58 0 -101 -43q-67 -68 -119.5 -222t-52.5 -273q0 -74 24.5 -115t63.5 -41zM633 995
q-61 0 -102 30.5t-60.5 87t-26.5 116.5t-6 139h17q18 -134 63 -195t133 -61q86 0 153.5 60.5t139.5 195.5h19q-70 -164 -103 -220q-82 -136 -195 -151q-15 -2 -32 -2z" />
    <glyph glyph-name="Aogonek" unicode="&#x104;" horiz-adv-x="1257" 
d="M909 -485q-72 0 -110.5 46.5t-38.5 119.5q0 175 307 319h-477l6 12l66 4q54 3 79.5 26t28.5 68.5t-4 114.5l-25 330h-346l-123 -217q-96 -169 -110 -200q-29 -68 -1 -92q27 -23 132 -30l61 -4l2 -12h-456l6 12l33 4q28 3 44.5 6t38.5 14.5t34.5 21t37 39.5t41 55t51 82.5
t63 107.5t81.5 143l366 641l-10 76q96 22 158 107h18l94 -1037q13 -109 29.5 -160.5t42 -71t76.5 -22.5l59 -6l2 -12q-131 -22 -206.5 -104t-75.5 -181q0 -131 106 -131q8 0 15.5 0.5t13 1t12.5 3t11 3.5t11.5 4.5t9.5 4.5t10.5 6.5t10 6.5t12 7.5t11.5 7.5l2 -4
q-37 -46 -89.5 -78t-109.5 -32zM410 582h329l-39 499h-6z" />
    <glyph glyph-name="aogonek" unicode="&#x105;" horiz-adv-x="911" 
d="M494 -485q-72 0 -111 46.5t-39 119.5q0 164 254 296q-45 8 -99.5 33.5t-54.5 42.5q0 23 25.5 113.5t69.5 202.5h-4q-25 -39 -61.5 -95.5t-56 -87t-47 -70.5t-46 -60.5t-41.5 -41.5t-45 -29t-45 -8q-72 0 -122.5 55t-50.5 142q0 80 27 164t73 159t93.5 136t103.5 117
q61 62 128.5 98.5t123.5 36.5q44 0 60 -41.5t16 -163.5h4l82 217l160 -8l-168 -436l-121 -377l111 -13l133 216l12 -7q-112 -235 -196 -284q-94 -53 -144.5 -125.5t-50.5 -147.5q0 -131 106 -131q8 0 15.5 0.5t13 1t12.5 3t11 3.5t11.5 4.5t9.5 4.5t10.5 6.5t10 6.5t12 7.5
t11.5 7.5l2 -4q-37 -46 -89 -78t-109 -32zM276 92q46 0 121 102.5t164 280.5q55 108 55 168t-46 101.5t-109 41.5q-58 0 -101 -43q-67 -68 -119.5 -222t-52.5 -273q0 -74 24.5 -115t63.5 -41z" />
    <glyph glyph-name="Cacute" unicode="&#x106;" horiz-adv-x="1398" 
d="M772 -31q-197 0 -350 76.5t-235.5 209.5t-82.5 300q0 151 58.5 289.5t160 242t248.5 165t314 61.5q213 0 368 -92l142 32l-72 -364l-8 2l-82 291q-44 44 -132.5 76t-191.5 32q-115 0 -213 -45t-167 -121.5t-118 -177t-72.5 -211.5t-23.5 -225q0 -240 124 -380t341 -140
q139 0 246 66t201 194l57 78l8 -2l-110 -306l-70 -4q-54 -17 -152 -32t-188 -15zM780 1386l260 383h197l-442 -383h-15z" />
    <glyph glyph-name="cacute" unicode="&#x107;" horiz-adv-x="698" 
d="M268 -25q-110 0 -180 83.5t-70 199.5q0 107 44.5 221.5t116 206.5t169 151.5t195.5 59.5q78 0 139 -42t61 -107q0 -46 -31.5 -79.5t-72.5 -33.5q-37 0 -68.5 24.5t-31.5 57.5q0 67 71 110q-7 5 -19 18.5t-25.5 20t-37.5 6.5q-59 0 -141 -75q-79 -83 -135.5 -227.5
t-56.5 -274.5q0 -110 35.5 -162.5t113.5 -52.5q76 0 130 45t132 168l15 -6q-178 -312 -353 -312zM428 1006l260 383h197l-443 -383h-14z" />
    <glyph glyph-name="Ccircumflex" unicode="&#x108;" horiz-adv-x="1398" 
d="M772 -31q-197 0 -350 76.5t-235.5 209.5t-82.5 300q0 151 58.5 289.5t160 242t248.5 165t314 61.5q213 0 368 -92l142 32l-72 -364l-8 2l-82 291q-44 44 -132.5 76t-191.5 32q-115 0 -213 -45t-167 -121.5t-118 -177t-72.5 -211.5t-23.5 -225q0 -240 124 -380t341 -140
q139 0 246 66t201 194l57 78l8 -2l-110 -306l-70 -4q-54 -17 -152 -32t-188 -15zM623 1364l352 403h14l187 -403h-17l-198 227h-7l-319 -227h-12z" />
    <glyph glyph-name="ccircumflex" unicode="&#x109;" horiz-adv-x="698" 
d="M268 -25q-110 0 -180 83.5t-70 199.5q0 107 44.5 221.5t116 206.5t169 151.5t195.5 59.5q78 0 139 -42t61 -107q0 -46 -31.5 -79.5t-72.5 -33.5q-37 0 -68.5 24.5t-31.5 57.5q0 67 71 110q-7 5 -19 18.5t-25.5 20t-37.5 6.5q-59 0 -141 -75q-79 -83 -135.5 -227.5
t-56.5 -274.5q0 -110 35.5 -162.5t113.5 -52.5q76 0 130 45t132 168l15 -6q-178 -312 -353 -312zM227 983l353 403h14l186 -403h-16l-199 227h-6l-319 -227h-13z" />
    <glyph glyph-name="Cdotaccent" unicode="&#x10a;" horiz-adv-x="1398" 
d="M772 -31q-197 0 -350 76.5t-235.5 209.5t-82.5 300q0 151 58.5 289.5t160 242t248.5 165t314 61.5q213 0 368 -92l142 32l-72 -364l-8 2l-82 291q-44 44 -132.5 76t-191.5 32q-115 0 -213 -45t-167 -121.5t-118 -177t-72.5 -211.5t-23.5 -225q0 -240 124 -380t341 -140
q139 0 246 66t201 194l57 78l8 -2l-110 -306l-70 -4q-54 -17 -152 -32t-188 -15zM940 1456q-50 0 -78 35t-28 72q0 40 28 77t78 37q51 0 79 -37t28 -77q0 -37 -28.5 -72t-78.5 -35z" />
    <glyph glyph-name="cdotaccent" unicode="&#x10b;" horiz-adv-x="698" 
d="M268 -25q-110 0 -180 83.5t-70 199.5q0 107 44.5 221.5t116 206.5t169 151.5t195.5 59.5q78 0 139 -42t61 -107q0 -46 -31.5 -79.5t-72.5 -33.5q-37 0 -68.5 24.5t-31.5 57.5q0 67 71 110q-7 5 -19 18.5t-25.5 20t-37.5 6.5q-59 0 -141 -75q-79 -83 -135.5 -227.5
t-56.5 -274.5q0 -110 35.5 -162.5t113.5 -52.5q76 0 130 45t132 168l15 -6q-178 -312 -353 -312zM567 1075q-50 0 -78 35t-28 72q0 40 28 77t78 37q51 0 79 -37t28 -77q0 -37 -28.5 -72t-78.5 -35z" />
    <glyph glyph-name="Ccaron" unicode="&#x10c;" horiz-adv-x="1398" 
d="M772 -31q-197 0 -350 76.5t-235.5 209.5t-82.5 300q0 151 58.5 289.5t160 242t248.5 165t314 61.5q213 0 368 -92l142 32l-72 -364l-8 2l-82 291q-44 44 -132.5 76t-191.5 32q-115 0 -213 -45t-167 -121.5t-118 -177t-72.5 -211.5t-23.5 -225q0 -240 124 -380t341 -140
q139 0 246 66t201 194l57 78l8 -2l-110 -306l-70 -4q-54 -17 -152 -32t-188 -15zM893 1364l-186 403h16l201 -227h6l315 227h15l-355 -403h-12z" />
    <glyph glyph-name="ccaron" unicode="&#x10d;" horiz-adv-x="698" 
d="M268 -25q-110 0 -180 83.5t-70 199.5q0 107 44.5 221.5t116 206.5t169 151.5t195.5 59.5q78 0 139 -42t61 -107q0 -46 -31.5 -79.5t-72.5 -33.5q-37 0 -68.5 24.5t-31.5 57.5q0 67 71 110q-7 5 -19 18.5t-25.5 20t-37.5 6.5q-59 0 -141 -75q-79 -83 -135.5 -227.5
t-56.5 -274.5q0 -110 35.5 -162.5t113.5 -52.5q76 0 130 45t132 168l15 -6q-178 -312 -353 -312zM485 983l-186 403h16l201 -227h6l316 227h14l-354 -403h-13z" />
    <glyph glyph-name="Dcaron" unicode="&#x10e;" horiz-adv-x="1363" 
d="M-41 0l6 12l76 8q102 11 106 33l250 1180q1 6 -1.5 9t-16 6.5t-34 6t-62.5 7.5l-50 6l-2 12l482 4q165 1 291.5 -39.5t203 -113.5t114.5 -166.5t38 -204.5q0 -151 -58.5 -288.5t-163.5 -242.5t-264 -167t-348 -62h-567zM473 16q132 0 243 40t190 110t134.5 166t82 207.5
t26.5 234.5q0 80 -15 150.5t-49.5 133.5t-85.5 107.5t-127.5 70.5t-171.5 26h-106l-254 -1194zM745 1364l-186 403h16l201 -227h6l316 227h14l-354 -403h-13z" />
    <glyph glyph-name="dcaron" unicode="&#x10f;" horiz-adv-x="1282" 
d="M621 -25q-34 0 -105.5 29.5t-71.5 48.5q0 22 25 112.5t68 203.5h-5q-25 -39 -61 -96t-55 -87t-46.5 -70t-46 -60.5t-41 -41.5t-44.5 -29t-45 -8q-72 0 -122.5 55t-50.5 142q0 80 27 164t72.5 159t94 135.5t103.5 115.5q141 145 246 145q24 0 39.5 -14t23.5 -47.5
t10.5 -56t6.5 -70.5q1 -6 1 -9t0.5 -7.5t0.5 -8.5h4l185 577q8 48 -11 48l-202 6l4 12l411 35l-272 -785l-162 -497l111 -13l133 213l12 -6q-71 -151 -132 -223t-105 -72zM276 92q46 0 121.5 102.5t163.5 280.5q55 108 55 168q0 58 -46 99.5t-109 41.5q-58 0 -101 -43
q-67 -67 -119.5 -221t-52.5 -274q0 -73 24.5 -113.5t63.5 -40.5zM1077 901l-4 8q94 31 158.5 93.5t64.5 134.5q-1 90 -131 122l-14 5q9 41 39.5 71.5t81.5 30.5q62 0 101.5 -45.5t39.5 -112.5q0 -102 -88.5 -187.5t-247.5 -119.5z" />
    <glyph glyph-name="Dcroat" unicode="&#x110;" horiz-adv-x="1363" 
d="M270 631h-194l8 24h190l123 578q1 6 -1.5 9t-16 6.5t-34 6t-62.5 7.5l-50 6l-2 12l482 4q165 1 291.5 -39.5t203 -113.5t114.5 -166.5t38 -204.5q0 -151 -58.5 -288.5t-163.5 -242.5t-264 -167t-348 -62h-567l6 12l76 8q102 11 106 33zM465 655h315l4 -24h-325l-119 -563
l133 -52q132 0 243 40t190 110t134.5 166t82 207.5t26.5 234.5q0 80 -15 150.5t-49.5 133.5t-85.5 107.5t-127.5 70.5t-171.5 26h-106z" />
    <glyph glyph-name="dcroat" unicode="&#x111;" horiz-adv-x="911" 
d="M621 -25q-34 0 -105.5 29.5t-71.5 48.5q0 22 25 112.5t68 203.5h-5q-25 -39 -61 -96t-55 -87t-46.5 -70t-46 -60.5t-41 -41.5t-44.5 -29t-45 -8q-72 0 -122.5 55t-50.5 142q0 80 27 164t72.5 159t94 135.5t103.5 115.5q141 145 246 145q24 0 39.5 -14t23.5 -47.5
t10.5 -56t6.5 -70.5q1 -6 1 -9t0.5 -7.5t0.5 -8.5h4l117 369h-221l18 51h219l52 157q8 48 -11 48l-202 6l4 12l411 35l-90 -258h127q-1 -3 -3 -8.5t-5.5 -16.5t-6 -18.5t-1.5 -7.5l-129 -2l-164 -474l-162 -497l111 -13l133 213l12 -6q-71 -151 -132 -223t-105 -72zM276 92
q46 0 121.5 102.5t163.5 280.5q55 108 55 168q0 58 -46 99.5t-109 41.5q-58 0 -101 -43q-67 -67 -119.5 -221t-52.5 -274q0 -73 24.5 -113.5t63.5 -40.5z" />
    <glyph glyph-name="Emacron" unicode="&#x112;" horiz-adv-x="1212" 
d="M-41 0l6 12l68 8q110 12 114 33l250 1180q1 6 -1.5 9t-16 6.5t-34 6t-62.5 7.5l-50 6l-2 12h897l25 -397l-12 -2l-8 26q-3 10 -10 29q-13 38 -20 57t-20 51.5t-22 49t-24.5 42t-30 38t-35.5 30t-44.5 26t-52.5 17t-64.5 12t-76.5 3.5h-141l-123 -592l94 2q115 5 176 20
t100.5 49.5t71.5 104.5l15 28l14 -2l-92 -434l-14 2l4 29q14 111 -43 139.5t-248 38.5l-84 4l-131 -622l254 -11q47 1 90.5 8.5t78 18t69 30.5t59.5 37t54 47t47 50.5t44 58t40 59t40 62.5l20 29l11 -2l-152 -416h-1028zM489 1448l25 51h510l-23 -51h-512z" />
    <glyph glyph-name="emacron" unicode="&#x113;" horiz-adv-x="727" 
d="M270 -25q-110 0 -181 83.5t-71 199.5q0 108 45 224t116 206.5t164.5 149.5t184.5 59q97 0 156 -42t59 -114q0 -97 -128 -162t-394 -110q-26 -93 -26 -174q0 -110 39.5 -162.5t123.5 -52.5q75 0 133 46t134 167l14 -6q-35 -61 -74 -113.5t-86 -99t-101 -73t-108 -26.5z
M229 485q193 40 275 104t82 173q0 110 -76 110q-51 0 -117 -63q-49 -49 -94.5 -137t-73.5 -185zM240 1067l24 51h510l-22 -51h-512z" />
    <glyph glyph-name="Ebreve" unicode="&#x114;" horiz-adv-x="1212" 
d="M-41 0l6 12l68 8q110 12 114 33l250 1180q1 6 -1.5 9t-16 6.5t-34 6t-62.5 7.5l-50 6l-2 12h897l25 -397l-12 -2l-8 26q-3 10 -10 29q-13 38 -20 57t-20 51.5t-22 49t-24.5 42t-30 38t-35.5 30t-44.5 26t-52.5 17t-64.5 12t-76.5 3.5h-141l-123 -592l94 2q115 5 176 20
t100.5 49.5t71.5 104.5l15 28l14 -2l-92 -434l-14 2l4 29q14 111 -43 139.5t-248 38.5l-84 4l-131 -622l254 -11q47 1 90.5 8.5t78 18t69 30.5t59.5 37t54 47t47 50.5t44 58t40 59t40 62.5l20 29l11 -2l-152 -416h-1028zM778 1376q-49 0 -85.5 21.5t-57 55t-32.5 84.5
t-16 100.5t-3 111.5h16q18 -134 63.5 -195t133.5 -61q86 0 153.5 60.5t139.5 195.5h18q-4 -8 -11 -25q-69 -165 -113 -227q-85 -121 -206 -121z" />
    <glyph glyph-name="ebreve" unicode="&#x115;" horiz-adv-x="727" 
d="M270 -25q-110 0 -181 83.5t-71 199.5q0 108 45 224t116 206.5t164.5 149.5t184.5 59q97 0 156 -42t59 -114q0 -97 -128 -162t-394 -110q-26 -93 -26 -174q0 -110 39.5 -162.5t123.5 -52.5q75 0 133 46t134 167l14 -6q-35 -61 -74 -113.5t-86 -99t-101 -73t-108 -26.5z
M229 485q193 40 275 104t82 173q0 110 -76 110q-51 0 -117 -63q-49 -49 -94.5 -137t-73.5 -185zM487 995q-49 0 -85.5 21.5t-57 55t-32.5 84.5t-16 100.5t-3 111.5h16q18 -134 63.5 -195t133.5 -61q86 0 153.5 60.5t139.5 195.5h18q-70 -164 -103 -220q-82 -136 -195 -151
q-15 -2 -32 -2z" />
    <glyph glyph-name="Edotaccent" unicode="&#x116;" horiz-adv-x="1212" 
d="M-41 0l6 12l68 8q110 12 114 33l250 1180q1 6 -1.5 9t-16 6.5t-34 6t-62.5 7.5l-50 6l-2 12h897l25 -397l-12 -2l-8 26q-3 10 -10 29q-13 38 -20 57t-20 51.5t-22 49t-24.5 42t-30 38t-35.5 30t-44.5 26t-52.5 17t-64.5 12t-76.5 3.5h-141l-123 -592l94 2q115 5 176 20
t100.5 49.5t71.5 104.5l15 28l14 -2l-92 -434l-14 2l4 29q14 111 -43 139.5t-248 38.5l-84 4l-131 -622l254 -11q47 1 90.5 8.5t78 18t69 30.5t59.5 37t54 47t47 50.5t44 58t40 59t40 62.5l20 29l11 -2l-152 -416h-1028zM745 1456q-50 0 -78 35t-28 72q0 40 28 77t78 37
q51 0 79 -37t28 -77q0 -37 -28.5 -72t-78.5 -35z" />
    <glyph glyph-name="edotaccent" unicode="&#x117;" horiz-adv-x="727" 
d="M270 -25q-110 0 -181 83.5t-71 199.5q0 108 45 224t116 206.5t164.5 149.5t184.5 59q97 0 156 -42t59 -114q0 -97 -128 -162t-394 -110q-26 -93 -26 -174q0 -110 39.5 -162.5t123.5 -52.5q75 0 133 46t134 167l14 -6q-35 -61 -74 -113.5t-86 -99t-101 -73t-108 -26.5z
M229 485q193 40 275 104t82 173q0 110 -76 110q-51 0 -117 -63q-49 -49 -94.5 -137t-73.5 -185zM522 1075q-50 0 -78 35t-28 72q0 40 28 77t78 37q51 0 79 -37t28 -77q0 -37 -28.5 -72t-78.5 -35z" />
    <glyph glyph-name="Eogonek" unicode="&#x118;" horiz-adv-x="1212" 
d="M733 -485q-72 0 -110.5 46.5t-38.5 119.5q0 179 299 319h-924l6 12l68 8q110 12 114 33l250 1180q1 6 -1.5 9t-16 6.5t-34 6t-62.5 7.5l-50 6l-2 12h897l25 -397l-12 -2l-8 26q-3 10 -10 29q-13 38 -20 57t-20 51.5t-22 49t-24.5 42t-30 38t-35.5 30t-44.5 26t-52.5 17
t-64.5 12t-76.5 3.5h-141l-123 -592l94 2q115 5 176 20t100.5 49.5t71.5 104.5l15 28l14 -2l-92 -434l-14 2l4 29q14 111 -43 139.5t-248 38.5l-84 4l-131 -622l254 -11q47 1 90.5 8.5t78 18t69 30.5t59.5 37t54 47t47 50.5t44 58t40 59t40 62.5l20 29l11 -2l-152 -416h-67
q-105 -57 -159 -131t-54 -154q0 -131 106 -131q8 0 15.5 0.5t13 1t12.5 3t11 3.5t11.5 4.5t9.5 4.5t10.5 6.5t10 6.5t12 7.5t11.5 7.5l2 -4q-37 -46 -89.5 -78t-109.5 -32z" />
    <glyph glyph-name="eogonek" unicode="&#x119;" horiz-adv-x="727" 
d="M215 -485q-72 0 -110.5 46.5t-38.5 119.5q0 81 65.5 168t151.5 126h-13q-110 0 -181 83.5t-71 199.5q0 108 45 224t116 206.5t164.5 149.5t184.5 59q97 0 156 -42t59 -114q0 -97 -128 -162t-394 -110q-26 -93 -26 -174q0 -110 39.5 -162.5t123.5 -52.5q75 0 133 46
t134 167l14 -6q-62 -110 -125.5 -186t-140.5 -105q-84 -33 -134.5 -119.5t-50.5 -161.5q0 -131 107 -131q8 0 15.5 0.5t13 1t12.5 3t11 3.5t11.5 4.5t9.5 4.5t10.5 6.5t10 6.5t12 7.5t11.5 7.5l2 -4q-37 -46 -89.5 -78t-109.5 -32zM229 485q193 40 275 104t82 173
q0 110 -76 110q-51 0 -117 -63q-49 -49 -94.5 -137t-73.5 -185z" />
    <glyph glyph-name="Ecaron" unicode="&#x11a;" horiz-adv-x="1212" 
d="M-41 0l6 12l68 8q110 12 114 33l250 1180q1 6 -1.5 9t-16 6.5t-34 6t-62.5 7.5l-50 6l-2 12h897l25 -397l-12 -2l-8 26q-3 10 -10 29q-13 38 -20 57t-20 51.5t-22 49t-24.5 42t-30 38t-35.5 30t-44.5 26t-52.5 17t-64.5 12t-76.5 3.5h-141l-123 -592l94 2q115 5 176 20
t100.5 49.5t71.5 104.5l15 28l14 -2l-92 -434l-14 2l4 29q14 111 -43 139.5t-248 38.5l-84 4l-131 -622l254 -11q47 1 90.5 8.5t78 18t69 30.5t59.5 37t54 47t47 50.5t44 58t40 59t40 62.5l20 29l11 -2l-152 -416h-1028zM754 1364l-187 403h17l200 -227h7l315 227h14
l-354 -403h-12z" />
    <glyph glyph-name="ecaron" unicode="&#x11b;" horiz-adv-x="727" 
d="M270 -25q-110 0 -181 83.5t-71 199.5q0 108 45 224t116 206.5t164.5 149.5t184.5 59q97 0 156 -42t59 -114q0 -97 -128 -162t-394 -110q-26 -93 -26 -174q0 -110 39.5 -162.5t123.5 -52.5q75 0 133 46t134 167l14 -6q-35 -61 -74 -113.5t-86 -99t-101 -73t-108 -26.5z
M229 485q193 40 275 104t82 173q0 110 -76 110q-51 0 -117 -63q-49 -49 -94.5 -137t-73.5 -185zM473 983l-186 403h16l201 -227h6l315 227h15l-355 -403h-12z" />
    <glyph glyph-name="Gcircumflex" unicode="&#x11c;" horiz-adv-x="1435" 
d="M731 -31q-142 0 -260.5 44t-198.5 121.5t-124 184t-44 230.5q0 119 34.5 231.5t102.5 208.5t161.5 168t218 113t264.5 41q213 0 368 -92l142 32l-72 -372h-6l-84 301q-44 44 -132 76t-190 32q-112 0 -210 -45.5t-167.5 -122t-119.5 -176.5t-74.5 -210.5t-24.5 -221.5
q0 -240 121.5 -382t329.5 -142q122 0 205 47l100 471q1 8 -6.5 13t-35.5 9.5t-81 8.5l-76 6l-2 12h572l-8 -12l-74 -8q-103 -11 -107 -33l-88 -426l105 16v-8q-119 -46 -267.5 -80.5t-271.5 -34.5zM582 1364l352 403h14l187 -403h-17l-198 227h-7l-319 -227h-12z" />
    <glyph glyph-name="gcircumflex" unicode="&#x11d;" horiz-adv-x="772" 
d="M205 -496q-185 0 -296.5 65.5t-111.5 174.5q0 77 91.5 148.5t220.5 103.5v4q-62 32 -97 68t-35 86q0 53 63 103.5t142 70.5l2 4q-98 84 -98 217q0 131 104.5 238.5t231.5 107.5q41 0 87.5 -18.5t80.5 -49.5l278 47l-22 -124l-242 67v-4q94 -101 94 -205q0 -81 -50 -159
t-131.5 -126.5t-166.5 -48.5q-86 0 -141 39q-45 -6 -72.5 -35.5t-27.5 -66.5q0 -35 41 -57.5t169 -67.5l41 -14q153 -54 235.5 -119t82.5 -156q0 -121 -139 -207t-334 -86zM309 297q31 0 65.5 15t57.5 40q63 63 96 172.5t33 198.5q0 70 -25 108.5t-69 38.5
q-28 0 -49.5 -12.5t-50.5 -40.5q-64 -64 -103 -175.5t-39 -192.5q0 -36 7.5 -73.5t21.5 -51.5q27 -27 55 -27zM285 -473q109 0 183.5 60.5t74.5 138.5q0 40 -22 73.5t-63 59.5t-81.5 43.5t-95.5 36.5q-19 7 -67 22t-69 23q-84 -14 -136 -69.5t-52 -137.5q0 -107 91 -178.5
t237 -71.5zM186 983l353 403h14l186 -403h-16l-199 227h-6l-319 -227h-13z" />
    <glyph glyph-name="Gbreve" unicode="&#x11e;" horiz-adv-x="1435" 
d="M731 -31q-142 0 -260.5 44t-198.5 121.5t-124 184t-44 230.5q0 119 34.5 231.5t102.5 208.5t161.5 168t218 113t264.5 41q213 0 368 -92l142 32l-72 -372h-6l-84 301q-44 44 -132 76t-190 32q-112 0 -210 -45.5t-167.5 -122t-119.5 -176.5t-74.5 -210.5t-24.5 -221.5
q0 -240 121.5 -382t329.5 -142q122 0 205 47l100 471q1 8 -6.5 13t-35.5 9.5t-81 8.5l-76 6l-2 12h572l-8 -12l-74 -8q-103 -11 -107 -33l-88 -426l105 16v-8q-119 -46 -267.5 -80.5t-271.5 -34.5zM897 1376q-61 0 -102 30.5t-60.5 87t-26.5 116.5t-6 139h17
q18 -134 63 -195t133 -61q86 0 153.5 60.5t139.5 195.5h19q-4 -8 -11 -25q-69 -165 -113 -227q-85 -121 -206 -121z" />
    <glyph glyph-name="gbreve" unicode="&#x11f;" horiz-adv-x="772" 
d="M205 -496q-185 0 -296.5 65.5t-111.5 174.5q0 77 91.5 148.5t220.5 103.5v4q-62 32 -97 68t-35 86q0 53 63 103.5t142 70.5l2 4q-98 84 -98 217q0 131 104.5 238.5t231.5 107.5q41 0 87.5 -18.5t80.5 -49.5l278 47l-22 -124l-242 67v-4q94 -101 94 -205q0 -81 -50 -159
t-131.5 -126.5t-166.5 -48.5q-86 0 -141 39q-45 -6 -72.5 -35.5t-27.5 -66.5q0 -35 41 -57.5t169 -67.5l41 -14q153 -54 235.5 -119t82.5 -156q0 -121 -139 -207t-334 -86zM309 297q31 0 65.5 15t57.5 40q63 63 96 172.5t33 198.5q0 70 -25 108.5t-69 38.5
q-28 0 -49.5 -12.5t-50.5 -40.5q-64 -64 -103 -175.5t-39 -192.5q0 -36 7.5 -73.5t21.5 -51.5q27 -27 55 -27zM285 -473q109 0 183.5 60.5t74.5 138.5q0 40 -22 73.5t-63 59.5t-81.5 43.5t-95.5 36.5q-19 7 -67 22t-69 23q-84 -14 -136 -69.5t-52 -137.5q0 -107 91 -178.5
t237 -71.5zM477 995q-49 0 -85.5 21.5t-57 55t-32.5 84.5t-16 100.5t-3 111.5h16q18 -134 63.5 -195t133.5 -61q86 0 153 60.5t139 195.5h19q-4 -8 -11 -25q-69 -165 -113 -227q-85 -121 -206 -121z" />
    <glyph glyph-name="Gdotaccent" unicode="&#x120;" horiz-adv-x="1435" 
d="M731 -31q-142 0 -260.5 44t-198.5 121.5t-124 184t-44 230.5q0 119 34.5 231.5t102.5 208.5t161.5 168t218 113t264.5 41q213 0 368 -92l142 32l-72 -372h-6l-84 301q-44 44 -132 76t-190 32q-112 0 -210 -45.5t-167.5 -122t-119.5 -176.5t-74.5 -210.5t-24.5 -221.5
q0 -240 121.5 -382t329.5 -142q122 0 205 47l100 471q1 8 -6.5 13t-35.5 9.5t-81 8.5l-76 6l-2 12h572l-8 -12l-74 -8q-103 -11 -107 -33l-88 -426l105 16v-8q-119 -46 -267.5 -80.5t-271.5 -34.5zM918 1456q-50 0 -78.5 35t-28.5 72q0 40 28 77t79 37q50 0 78 -37t28 -77
q0 -37 -28 -72t-78 -35z" />
    <glyph glyph-name="gdotaccent" unicode="&#x121;" horiz-adv-x="772" 
d="M205 -496q-185 0 -296.5 65.5t-111.5 174.5q0 77 91.5 148.5t220.5 103.5v4q-62 32 -97 68t-35 86q0 53 63 103.5t142 70.5l2 4q-98 84 -98 217q0 131 104.5 238.5t231.5 107.5q41 0 87.5 -18.5t80.5 -49.5l278 47l-22 -124l-242 67v-4q94 -101 94 -205q0 -81 -50 -159
t-131.5 -126.5t-166.5 -48.5q-86 0 -141 39q-45 -6 -72.5 -35.5t-27.5 -66.5q0 -35 41 -57.5t169 -67.5l41 -14q153 -54 235.5 -119t82.5 -156q0 -121 -139 -207t-334 -86zM309 297q31 0 65.5 15t57.5 40q63 63 96 172.5t33 198.5q0 70 -25 108.5t-69 38.5
q-28 0 -49.5 -12.5t-50.5 -40.5q-64 -64 -103 -175.5t-39 -192.5q0 -36 7.5 -73.5t21.5 -51.5q27 -27 55 -27zM285 -473q109 0 183.5 60.5t74.5 138.5q0 40 -22 73.5t-63 59.5t-81.5 43.5t-95.5 36.5q-19 7 -67 22t-69 23q-84 -14 -136 -69.5t-52 -137.5q0 -107 91 -178.5
t237 -71.5zM504 1075q-50 0 -78.5 35t-28.5 72q0 40 28 77t79 37q50 0 78 -37t28 -77q0 -37 -28 -72t-78 -35z" />
    <glyph glyph-name="Gcommaaccent" unicode="&#x122;" horiz-adv-x="1435" 
d="M731 -31q-142 0 -260.5 44t-198.5 121.5t-124 184t-44 230.5q0 119 34.5 231.5t102.5 208.5t161.5 168t218 113t264.5 41q213 0 368 -92l142 32l-72 -372h-6l-84 301q-44 44 -132 76t-190 32q-112 0 -210 -45.5t-167.5 -122t-119.5 -176.5t-74.5 -210.5t-24.5 -221.5
q0 -240 121.5 -382t329.5 -142q122 0 205 47l100 471q1 8 -6.5 13t-35.5 9.5t-81 8.5l-76 6l-2 12h572l-8 -12l-74 -8q-103 -11 -107 -33l-88 -426l105 16v-8q-119 -46 -267.5 -80.5t-271.5 -34.5zM494 -555l-2 8q74 9 133 58t71 112q14 74 -33.5 108t-107.5 5
q-14 46 27.5 92t115.5 39q72 -6 110 -54.5t21 -123.5q-19 -85 -121.5 -161t-213.5 -83z" />
    <glyph glyph-name="gcommaaccent" unicode="&#x123;" horiz-adv-x="772" 
d="M205 -496q-185 0 -296.5 65.5t-111.5 174.5q0 77 91.5 148.5t220.5 103.5v4q-62 32 -97 68t-35 86q0 53 63 103.5t142 70.5l2 4q-98 84 -98 217q0 131 104.5 238.5t231.5 107.5q41 0 87.5 -18.5t80.5 -49.5l278 47l-22 -124l-242 67v-4q94 -101 94 -205q0 -81 -50 -159
t-131.5 -126.5t-166.5 -48.5q-86 0 -141 39q-45 -6 -72.5 -35.5t-27.5 -66.5q0 -35 41 -57.5t169 -67.5l41 -14q153 -54 235.5 -119t82.5 -156q0 -121 -139 -207t-334 -86zM309 297q31 0 65.5 15t57.5 40q63 63 96 172.5t33 198.5q0 70 -25 108.5t-69 38.5
q-28 0 -49.5 -12.5t-50.5 -40.5q-64 -64 -103 -175.5t-39 -192.5q0 -36 7.5 -73.5t21.5 -51.5q27 -27 55 -27zM285 -473q109 0 183.5 60.5t74.5 138.5q0 40 -22 73.5t-63 59.5t-81.5 43.5t-95.5 36.5q-19 7 -67 22t-69 23q-84 -14 -136 -69.5t-52 -137.5q0 -107 91 -178.5
t237 -71.5zM741 1450l2 -8q-74 -9 -133 -58t-71 -112q-14 -74 33.5 -108t107.5 -5q14 -46 -27.5 -92t-115.5 -39q-72 6 -110 54.5t-21 123.5q19 85 121.5 161t213.5 83z" />
    <glyph glyph-name="Hcircumflex" unicode="&#x124;" horiz-adv-x="1482" 
d="M-41 0l6 12l76 8q102 11 106 33l250 1180q1 6 -1.5 9t-16 6.5t-34 6t-62.5 7.5l-50 6l-2 12h551l-8 -12l-82 -8q-102 -11 -106 -33l-119 -565h641l123 571q1 6 -2.5 9t-15.5 6.5t-34.5 6.5t-62.5 7l-57 6l-2 12h551l-9 -12l-73 -8q-103 -11 -107 -33l-250 -1180
q-1 -6 2 -9t16.5 -6.5t34 -6t62.5 -7.5l49 -6l2 -12h-551l7 12l83 8q103 8 107 33l121 588h-641l-125 -594q-1 -6 2 -9t15 -6.5t35 -6.5t63 -7l57 -6l2 -12h-551zM625 1364l352 403h14l187 -403h-17l-198 227h-7l-319 -227h-12z" />
    <glyph glyph-name="hcircumflex" unicode="&#x125;" horiz-adv-x="913" 
d="M604 -25q-33 0 -94 29.5t-61 48.5q0 10 20 64.5t65 168t64 163.5q15 40 44 109.5t44.5 110t15.5 54.5q0 29 -30.5 51.5t-65.5 22.5q-48 0 -157.5 -164.5t-241.5 -444.5l-78 -194l-164 10l119 336q52 156 121 385.5t112 380.5l43 151q5 17 2.5 32.5t-12.5 15.5l-164 6
l4 12l367 35l-39 -131q-109 -376 -173 -577t-126 -351l12 -4q88 174 179.5 322.5t144.5 201.5q33 33 76.5 53.5t75.5 20.5q58 0 105.5 -35t47.5 -78q0 -74 -104 -331l-150 -373l109 -13l135 213l12 -6q-69 -146 -140.5 -220.5t-117.5 -74.5zM141 1364l353 403h14l186 -403
h-16l-199 227h-6l-319 -227h-13z" />
    <glyph glyph-name="Hbar" unicode="&#x126;" horiz-adv-x="1482" 
d="M156 879l24 51h154l63 303q1 6 -1.5 9t-16 6.5t-34 6t-62.5 7.5l-50 6l-2 12h551l-8 -12l-82 -8q-102 -11 -106 -33l-64 -297h643l66 303q1 6 -2.5 9t-15.5 6.5t-34.5 6.5t-62.5 7l-57 6l-2 12h551l-9 -12l-73 -8q-103 -11 -107 -33l-63 -297h125l-23 -51h-112l-177 -832
q-1 -6 2 -9t16.5 -6.5t34 -6t62.5 -7.5l49 -6l2 -12h-551l7 12l83 8q103 8 107 33l121 588h-641l-125 -594q-1 -6 2 -9t15 -6.5t35 -6.5t63 -7l57 -6l2 -12h-551l6 12l76 8q102 11 106 33l175 826h-166zM467 662h641l47 217h-643z" />
    <glyph glyph-name="hbar" unicode="&#x127;" horiz-adv-x="913" 
d="M168 1049l25 51h122l45 157q5 17 2.5 32.5t-12.5 15.5l-164 6l4 12l367 35l-39 -131q-8 -27 -21.5 -74.5t-15.5 -52.5h221l-22 -51h-213q-152 -517 -248 -750l12 -4q88 174 179.5 322.5t144.5 201.5q33 33 76.5 53.5t75.5 20.5q58 0 105.5 -35t47.5 -78q0 -74 -104 -331
l-150 -373l109 -13l135 213l12 -6q-69 -146 -140.5 -220.5t-117.5 -74.5q-33 0 -94 29.5t-61 48.5q0 10 20 64.5t65 168t64 163.5q15 40 44 109.5t44.5 110t15.5 54.5q0 29 -30.5 51.5t-65.5 22.5q-48 0 -157.5 -164.5t-241.5 -444.5l-78 -194l-164 10l119 336
q87 260 217 709h-133z" />
    <glyph glyph-name="Imacron" unicode="&#x12a;" horiz-adv-x="690" 
d="M-29 0l6 12l84 8q103 8 107 33l250 1180q1 6 -2.5 9t-15.5 6.5t-34.5 6.5t-62.5 7l-57 6l-2 12h559l-8 -12l-82 -8q-103 -11 -107 -33l-250 -1180q-1 -6 2 -9t15 -6.5t35 -6.5t63 -7l57 -6l2 -12h-559zM279 1448l24 51h510l-22 -51h-512z" />
    <glyph glyph-name="imacron" unicode="&#x12b;" horiz-adv-x="505" 
d="M207 -25q-34 0 -104 25.5t-70 42.5t57 167.5t129.5 337t93.5 249.5l-131 10l-131 -211l-12 6q72 150 146 222.5t141 72.5q45 0 85 -43t40 -92q0 -31 -50 -162.5t-118 -298t-88 -223.5l124 -15l136 213l10 -6q-68 -146 -139.5 -220.5t-118.5 -74.5zM104 1067l25 51h510
l-23 -51h-512z" />
    <glyph glyph-name="Ibreve" unicode="&#x12c;" horiz-adv-x="690" 
d="M-29 0l6 12l84 8q103 8 107 33l250 1180q1 6 -2.5 9t-15.5 6.5t-34.5 6.5t-62.5 7l-57 6l-2 12h559l-8 -12l-82 -8q-103 -11 -107 -33l-250 -1180q-1 -6 2 -9t15 -6.5t35 -6.5t63 -7l57 -6l2 -12h-559zM537 1376q-61 0 -102 30.5t-60.5 87t-26.5 116.5t-6 139h16
q18 -134 63.5 -195t133.5 -61q86 0 153.5 60.5t139.5 195.5h18q-70 -164 -101 -217q-80 -136 -191 -153q-18 -3 -37 -3z" />
    <glyph glyph-name="ibreve" unicode="&#x12d;" horiz-adv-x="505" 
d="M207 -25q-34 0 -104 25.5t-70 42.5t57 167.5t129.5 337t93.5 249.5l-131 10l-131 -211l-12 6q72 150 146 222.5t141 72.5q45 0 85 -43t40 -92q0 -31 -50 -162.5t-118 -298t-88 -223.5l124 -15l136 213l10 -6q-68 -146 -139.5 -220.5t-118.5 -74.5zM362 995
q-49 0 -85.5 21.5t-57 55t-32.5 84.5t-16 100.5t-3 111.5h16q18 -134 63.5 -195t133.5 -61q86 0 153.5 60.5t139.5 195.5h18q-4 -8 -11 -25q-69 -165 -113 -227q-85 -121 -206 -121z" />
    <glyph glyph-name="Iogonek" unicode="&#x12e;" horiz-adv-x="690" 
d="M289 -485q-72 0 -111 46.5t-39 119.5q0 108 96 198.5t230 120.5h-494l6 12l84 8q103 8 107 33l250 1180q1 6 -2.5 9t-15.5 6.5t-34.5 6.5t-62.5 7l-57 6l-2 12h559l-8 -12l-82 -8q-103 -11 -107 -33l-250 -1180q-1 -6 2 -9t15 -6.5t35 -6.5t63 -7l57 -6l2 -12
q-118 -23 -193 -106t-75 -179q0 -131 107 -131q9 0 16.5 0.5t15 2.5t12.5 2.5t13 4.5t11 5t11.5 6.5t11 7t12.5 8t13 8.5l2 -4q-37 -46 -89 -78t-109 -32z" />
    <glyph glyph-name="iogonek" unicode="&#x12f;" horiz-adv-x="505" 
d="M84 -485q-72 0 -111 46.5t-39 119.5q0 166 254 296q-45 7 -100 28.5t-55 37.5q0 17 57 167.5t129.5 337t93.5 249.5l-131 10l-131 -211l-12 6q72 150 146 222.5t141 72.5q45 0 85 -43t40 -92q0 -31 -50 -162.5t-118 -298t-88 -223.5l124 -15l136 213l10 -6
q-106 -226 -213 -284q-94 -50 -144.5 -122.5t-50.5 -148.5q0 -131 107 -131q8 0 15.5 0.5t13 1t12.5 3t11 3.5t11.5 4.5t9.5 4.5t10.5 6.5t10 6.5t12 7.5t11.5 7.5l2 -4q-37 -46 -89.5 -78t-109.5 -32zM485 1071q-46 0 -74 29.5t-28 73.5q0 56 30.5 94.5t71.5 38.5
q48 0 77.5 -29.5t27.5 -73.5q-1 -56 -32 -94.5t-73 -38.5z" />
    <glyph glyph-name="Idotaccent" unicode="&#x130;" horiz-adv-x="690" 
d="M-29 0l6 12l84 8q103 8 107 33l250 1180q1 6 -2.5 9t-15.5 6.5t-34.5 6.5t-62.5 7l-57 6l-2 12h559l-8 -12l-82 -8q-103 -11 -107 -33l-250 -1180q-1 -6 2 -9t15 -6.5t35 -6.5t63 -7l57 -6l2 -12h-559zM586 1456q-50 0 -78.5 35t-28.5 72q0 40 28 77t79 37q50 0 78 -37
t28 -77q0 -37 -28 -72t-78 -35z" />
    <glyph glyph-name="dotlessi" unicode="&#x131;" horiz-adv-x="505" 
d="M207 -25q-34 0 -104 25.5t-70 42.5t57 167.5t129.5 337t93.5 249.5l-131 10l-131 -211l-12 6q72 150 146 222.5t141 72.5q45 0 85 -43t40 -92q0 -31 -50 -162.5t-118 -298t-88 -223.5l124 -15l136 213l10 -6q-68 -146 -139.5 -220.5t-118.5 -74.5z" />
    <glyph glyph-name="Jcircumflex" unicode="&#x134;" horiz-adv-x="649" 
d="M-115 -342q-78 0 -121 35.5t-43 89.5q0 50 36.5 85.5t88.5 35.5q63 0 93.5 -42t16.5 -94.5t-65 -82.5q76 -19 144.5 71.5t103.5 259.5l258 1217q1 6 -2 9t-15.5 6.5t-34.5 6.5t-62 7l-58 6l-2 12h559l-8 -12l-82 -8q-102 -11 -106 -33l-269 -1268q-7 -35 -51 -86.5
t-104.5 -99t-137 -81.5t-139.5 -34zM227 1364l353 403h14l186 -403h-16l-199 227h-6l-319 -227h-13z" />
    <glyph glyph-name="jcircumflex" unicode="&#x135;" horiz-adv-x="460" 
d="M-244 -510q-49 0 -91 32.5t-42 80.5q0 35 25.5 62.5t66.5 27.5q58 0 82 -48t-18 -120l100 35q42 48 73 128t87 261l260 850l-119 8l-141 -211l-12 6q72 150 145.5 222.5t140.5 72.5q45 0 86 -43t41 -92q0 -50 -80 -292.5t-157 -436.5q-65 -162 -126 -270t-134 -181
q-37 -38 -88 -65t-99 -27zM76 983l352 403h14l187 -403h-17l-198 227h-6l-320 -227h-12z" />
    <glyph glyph-name="Kcommaaccent" unicode="&#x136;" horiz-adv-x="1378" 
d="M-41 0l6 12l84 8q94 8 98 33l250 1180q1 6 -1 9t-12.5 6.5t-32 6.5t-60.5 7l-58 6l-2 12h572l-8 -12l-103 -8q-102 -8 -106 -33l-142 -678l385 319q284 240 330 317q29 50 -18 65q-23 8 -78 12l-82 6l2 12h508l-8 -12l-35 -2q-92 -5 -177 -63t-331 -269q-62 -53 -96 -82
l-29 -25l244 -637q44 -114 68.5 -141t89.5 -33l61 -4l2 -12h-559l6 12l57 4q76 5 86.5 54.5t-39.5 183.5l-167 448l-230 -190l-98 -465q-1 -8 5.5 -12.5t32 -8.5t77.5 -8l77 -6l2 -12h-571zM369 -555l-2 8q74 9 133 58t71 112q14 74 -33.5 108t-107.5 5q-14 46 27.5 92
t115.5 39q73 -6 111 -54.5t21 -123.5q-19 -84 -122 -160.5t-214 -83.5z" />
    <glyph glyph-name="kcommaaccent" unicode="&#x137;" horiz-adv-x="847" 
d="M567 -25q-62 0 -110 48q-20 287 -29 342q-16 97 -56 116q-13 6 -32 6q-23 0 -39.5 -6.5t-21.5 -12.5t-7 -11l-143 -463l-164 10q34 85 119 336q52 156 121 385.5t112 380.5l43 151q5 15 2.5 31.5t-12.5 16.5l-164 6l4 12l367 35l-39 -131q-77 -264 -152 -491t-77 -232
q25 4 67 4q145 59 223 100t99 76l-2 4q-68 40 -68 111q0 36 31 67t70 31q41 0 72.5 -30t31.5 -76q0 -24 -4.5 -42t-22 -42t-50 -46.5t-90 -51t-140.5 -60.5l-107 -43q37 -7 66 -24t50 -47t36.5 -64.5t27.5 -85t19.5 -98.5t15.5 -115l62 -6l131 229l10 -4
q-126 -316 -250 -316zM66 -555l-3 8q74 9 133.5 58t71.5 112q14 74 -33.5 108t-107.5 5q-14 46 27.5 92t115.5 39q72 -6 110 -54.5t21 -123.5q-19 -85 -121.5 -161t-213.5 -83z" />
    <glyph glyph-name="Lacute" unicode="&#x139;" horiz-adv-x="1138" 
d="M-41 0l6 12l84 8q94 8 98 33l250 1180q1 6 -1 9t-12.5 6.5t-32 6.5t-60.5 7l-58 6l-2 12h592l-8 -12l-123 -8q-102 -8 -106 -33l-254 -1198l200 -11q61 0 113 9.5t91.5 24t77.5 44t64.5 56t59.5 74t55 84t58 100.5l14 26h14l-145 -436h-975zM461 1386l260 383h197
l-443 -383h-14z" />
    <glyph glyph-name="lacute" unicode="&#x13a;" horiz-adv-x="456" 
d="M156 -25q-32 0 -98 28t-62 42l364 1212q5 17 2.5 32.5t-12.5 15.5l-164 6l4 12l367 35l-401 -1282l100 -13l133 213l12 -6q-70 -149 -135 -222t-110 -73zM266 1386l260 383h197l-442 -383h-15z" />
    <glyph glyph-name="Lcommaaccent" unicode="&#x13b;" horiz-adv-x="1138" 
d="M-41 0l6 12l84 8q94 8 98 33l250 1180q1 6 -1 9t-12.5 6.5t-32 6.5t-60.5 7l-58 6l-2 12h592l-8 -12l-123 -8q-102 -8 -106 -33l-254 -1198l200 -11q61 0 113 9.5t91.5 24t77.5 44t64.5 56t59.5 74t55 84t58 100.5l14 26h14l-145 -436h-975zM270 -555l-2 8q74 9 133.5 58
t71.5 112q14 74 -33.5 108t-107.5 5q-14 46 27.5 92t115.5 39q72 -6 110 -54.5t21 -123.5q-19 -84 -122 -160.5t-214 -83.5z" />
    <glyph glyph-name="lcommaaccent" unicode="&#x13c;" horiz-adv-x="456" 
d="M156 -25q-32 0 -98 28t-62 42l364 1212q5 17 2.5 32.5t-12.5 15.5l-164 6l4 12l367 35l-401 -1282l100 -13l133 213l12 -6q-70 -149 -135 -222t-110 -73zM-131 -555l-2 8q74 9 133.5 58t71.5 112q14 74 -34 108t-108 5q-13 46 28.5 92t115.5 39q72 -6 110 -54.5
t21 -123.5q-19 -84 -122 -160.5t-214 -83.5z" />
    <glyph glyph-name="Lcaron" unicode="&#x13d;" horiz-adv-x="1325" 
d="M-41 0l6 12l84 8q94 8 98 33l250 1180q1 6 -1 9t-12.5 6.5t-32 6.5t-60.5 7l-58 6l-2 12h592l-8 -12l-123 -8q-102 -8 -106 -33l-254 -1198l200 -11q61 0 113 9.5t91.5 24t77.5 44t64.5 56t59.5 74t55 84t58 100.5l14 26h14l-145 -436h-975zM1114 834l-4 8
q94 31 158.5 93t64.5 134q-1 90 -131 122l-14 5q9 41 39.5 71.5t81.5 30.5q62 0 101.5 -45t39.5 -112q0 -102 -88.5 -187.5t-247.5 -119.5z" />
    <glyph glyph-name="lcaron" unicode="&#x13e;" horiz-adv-x="827" 
d="M156 -25q-32 0 -98 28t-62 42l364 1212q5 17 2.5 32.5t-12.5 15.5l-164 6l4 12l367 35l-401 -1282l100 -13l133 213l12 -6q-70 -149 -135 -222t-110 -73zM596 907l-4 8q94 31 158.5 93.5t64.5 134.5q-1 90 -131 122l-14 5q9 41 39.5 71.5t81.5 30.5q62 0 101.5 -45.5
t39.5 -112.5q0 -102 -88.5 -187.5t-247.5 -119.5z" />
    <glyph glyph-name="Ldot" unicode="&#x13f;" horiz-adv-x="1284" 
d="M-41 0l6 12l84 8q94 8 98 33l250 1180q1 6 -1 9t-12.5 6.5t-32 6.5t-60.5 7l-58 6l-2 12h592l-8 -12l-123 -8q-102 -8 -106 -33l-254 -1198l200 -11q61 0 113 9.5t91.5 24t77.5 44t64.5 56t59.5 74t55 84t58 100.5l14 26h14l-145 -436h-975zM1282 518q-52 0 -87.5 36.5
t-35.5 86.5q0 47 35 83t86 36t87 -36t36 -83q0 -50 -34.5 -86.5t-86.5 -36.5z" />
    <glyph glyph-name="ldotaccent" unicode="&#x140;" horiz-adv-x="786" 
d="M156 -25q-32 0 -98 28t-62 42l364 1212q5 17 2.5 32.5t-12.5 15.5l-164 6l4 12l367 35l-401 -1282l100 -13l133 213l12 -6q-70 -149 -135 -222t-110 -73zM686 518q-52 0 -87.5 36.5t-35.5 86.5q0 47 35 83t86 36t87 -36t36 -83q0 -50 -34.5 -86.5t-86.5 -36.5z" />
    <glyph glyph-name="Lslash" unicode="&#x141;" horiz-adv-x="1138" 
d="M262 584l-219 -68l8 25l215 65l133 627q1 8 -5 12.5t-31.5 8.5t-77.5 8l-78 6l-2 12h620l-8 -12l-123 -8q-102 -8 -106 -33l-119 -557l223 67l-2 -24q-225 -68 -227 -68l-129 -616l201 -11q54 0 99.5 6.5t84.5 22t70 31.5t62.5 46.5t53.5 55t50.5 68.5t47 75.5t50.5 86.5
l14 26h14l-157 -436h-992l7 12l104 8q103 8 107 33z" />
    <glyph glyph-name="lslash" unicode="&#x142;" horiz-adv-x="444" 
d="M178 539l-172 -52l8 23l170 53l209 694q5 17 2.5 32.5t-12.5 15.5l-164 6l4 12l367 35q-232 -742 -234 -742l138 41l-2 -22l-142 -43l-162 -516l101 -13l133 213l12 -6q-70 -148 -135.5 -221.5t-110.5 -73.5q-32 0 -97.5 28t-61.5 42q9 31 24.5 82.5t48.5 160t54.5 180.5
t21.5 71z" />
    <glyph glyph-name="Nacute" unicode="&#x143;" horiz-adv-x="1341" 
d="M1018 -10l-619 1140h-4l-221 -1036q-7 -29 25.5 -48.5t119.5 -29.5l37 -4l2 -12h-424l9 12l39 4q70 8 113.5 29t49.5 53l228 1053q-2 2 -10.5 15.5t-13 19t-15.5 18t-21.5 20t-26 16.5t-35 15t-42.5 9l-25 4l-2 12h365l520 -987h4l191 893q7 29 -26 49.5t-120 28.5l-37 4
l-2 12h424l-8 -12l-39 -4q-69 -6 -113.5 -28t-50.5 -54l-258 -1192h-14zM793 1386l260 383h196l-442 -383h-14z" />
    <glyph glyph-name="nacute" unicode="&#x144;" horiz-adv-x="968" 
d="M670 -25q-33 0 -100.5 29.5t-67.5 48.5q0 7 8.5 32.5t25.5 69.5t33.5 86t41.5 105t40 103t44.5 109.5t45 110.5t15.5 56q0 28 -31 51t-66 23q-48 0 -157.5 -165t-241.5 -446l-74 -194l-163 10l116 338l137 459l-100 8l-131 -213l-12 6q138 297 268 297q33 0 78 -44.5
t45 -90.5q0 -45 -41.5 -179t-103.5 -284l6 -4q90 176 180.5 324t142.5 200q33 33 76.5 53.5t75.5 20.5q58 0 105.5 -35t47.5 -78q0 -76 -104 -333l-150 -373l109 -13l135 216l12 -7q-70 -149 -135.5 -223t-109.5 -74zM553 1006l260 383h197l-443 -383h-14z" />
    <glyph glyph-name="Ncommaaccent" unicode="&#x145;" horiz-adv-x="1341" 
d="M1018 -10l-619 1140h-4l-221 -1036q-7 -29 25.5 -48.5t119.5 -29.5l37 -4l2 -12h-424l9 12l39 4q70 8 113.5 29t49.5 53l228 1053q-2 2 -10.5 15.5t-13 19t-15.5 18t-21.5 20t-26 16.5t-35 15t-42.5 9l-25 4l-2 12h365l520 -987h4l191 893q7 29 -26 49.5t-120 28.5l-37 4
l-2 12h424l-8 -12l-39 -4q-69 -6 -113.5 -28t-50.5 -54l-258 -1192h-14zM350 -555l-2 8q74 9 133.5 58t71.5 112q14 74 -33.5 108t-107.5 5q-14 46 27.5 92t115.5 39q72 -6 110 -54.5t21 -123.5q-19 -84 -122 -160.5t-214 -83.5z" />
    <glyph glyph-name="ncommaaccent" unicode="&#x146;" horiz-adv-x="968" 
d="M670 -25q-33 0 -100.5 29.5t-67.5 48.5q0 7 8.5 32.5t25.5 69.5t33.5 86t41.5 105t40 103t44.5 109.5t45 110.5t15.5 56q0 28 -31 51t-66 23q-48 0 -157.5 -165t-241.5 -446l-74 -194l-163 10l116 338l137 459l-100 8l-131 -213l-12 6q138 297 268 297q33 0 78 -44.5
t45 -90.5q0 -45 -41.5 -179t-103.5 -284l6 -4q90 176 180.5 324t142.5 200q33 33 76.5 53.5t75.5 20.5q58 0 105.5 -35t47.5 -78q0 -76 -104 -333l-150 -373l109 -13l135 216l12 -7q-70 -149 -135.5 -223t-109.5 -74zM127 -555l-2 8q74 9 133.5 58t71.5 112q14 74 -34 108
t-108 5q-13 46 28.5 92t115.5 39q72 -6 110 -54.5t21 -123.5q-19 -84 -122 -160.5t-214 -83.5z" />
    <glyph glyph-name="Ncaron" unicode="&#x147;" horiz-adv-x="1341" 
d="M1018 -10l-619 1140h-4l-221 -1036q-7 -29 25.5 -48.5t119.5 -29.5l37 -4l2 -12h-424l9 12l39 4q70 8 113.5 29t49.5 53l228 1053q-2 2 -10.5 15.5t-13 19t-15.5 18t-21.5 20t-26 16.5t-35 15t-42.5 9l-25 4l-2 12h365l520 -987h4l191 893q7 29 -26 49.5t-120 28.5l-37 4
l-2 12h424l-8 -12l-39 -4q-69 -6 -113.5 -28t-50.5 -54l-258 -1192h-14zM842 1364l-187 403h17l200 -227h7l315 227h14l-354 -403h-12z" />
    <glyph glyph-name="ncaron" unicode="&#x148;" horiz-adv-x="968" 
d="M670 -25q-33 0 -100.5 29.5t-67.5 48.5q0 7 8.5 32.5t25.5 69.5t33.5 86t41.5 105t40 103t44.5 109.5t45 110.5t15.5 56q0 28 -31 51t-66 23q-48 0 -157.5 -165t-241.5 -446l-74 -194l-163 10l116 338l137 459l-100 8l-131 -213l-12 6q138 297 268 297q33 0 78 -44.5
t45 -90.5q0 -45 -41.5 -179t-103.5 -284l6 -4q90 176 180.5 324t142.5 200q33 33 76.5 53.5t75.5 20.5q58 0 105.5 -35t47.5 -78q0 -76 -104 -333l-150 -373l109 -13l135 216l12 -7q-70 -149 -135.5 -223t-109.5 -74zM571 983l-186 403h16l201 -227h6l316 227h14l-354 -403
h-13z" />
    <glyph glyph-name="Omacron" unicode="&#x14c;" horiz-adv-x="1495" 
d="M750 -27q-188 0 -334.5 85.5t-223.5 226.5t-77 311q0 106 33 210t96.5 194t149.5 159.5t200 109.5t240 40q141 0 260.5 -50t199.5 -135.5t125 -200t45 -241.5q0 -189 -92 -351.5t-257 -260t-365 -97.5zM725 -6q112 0 215 72.5t174 188t113.5 260t42.5 286.5
q0 217 -112.5 352t-303.5 135q-117 0 -221 -73t-173.5 -189.5t-110 -261t-40.5 -287.5q0 -214 115 -348.5t301 -134.5zM662 1448l24 51h510l-22 -51h-512z" />
    <glyph glyph-name="omacron" unicode="&#x14d;" horiz-adv-x="813" 
d="M315 -23q-119 0 -199.5 108.5t-80.5 262.5q0 90 41 188.5t104.5 176t144 128t154.5 50.5q124 0 211.5 -107.5t87.5 -259.5q0 -124 -70 -252.5t-178.5 -211.5t-214.5 -83zM291 2q87 0 163 98.5t124 255.5q38 118 38 289q0 104 -27 161.5t-73 57.5q-44 0 -100 -60
t-105.5 -152.5t-81.5 -192.5q-41 -125 -41 -254q0 -93 28.5 -148t74.5 -55zM266 1067l25 51h510l-23 -51h-512z" />
    <glyph glyph-name="Obreve" unicode="&#x14e;" horiz-adv-x="1495" 
d="M750 -27q-188 0 -334.5 85.5t-223.5 226.5t-77 311q0 106 33 210t96.5 194t149.5 159.5t200 109.5t240 40q141 0 260.5 -50t199.5 -135.5t125 -200t45 -241.5q0 -189 -92 -351.5t-257 -260t-365 -97.5zM725 -6q112 0 215 72.5t174 188t113.5 260t42.5 286.5
q0 217 -112.5 352t-303.5 135q-117 0 -221 -73t-173.5 -189.5t-110 -261t-40.5 -287.5q0 -214 115 -348.5t301 -134.5zM903 1376q-49 0 -85.5 21.5t-57 55t-32.5 84.5t-16 100.5t-3 111.5h16q18 -134 63.5 -195t133.5 -61q86 0 153 60.5t139 195.5h19q-4 -8 -11 -25
q-69 -165 -113 -227q-85 -121 -206 -121z" />
    <glyph glyph-name="obreve" unicode="&#x14f;" horiz-adv-x="813" 
d="M315 -23q-119 0 -199.5 108.5t-80.5 262.5q0 90 41 188.5t104.5 176t144 128t154.5 50.5q124 0 211.5 -107.5t87.5 -259.5q0 -124 -70 -252.5t-178.5 -211.5t-214.5 -83zM291 2q87 0 163 98.5t124 255.5q38 118 38 289q0 104 -27 161.5t-73 57.5q-44 0 -100 -60
t-105.5 -152.5t-81.5 -192.5q-41 -125 -41 -254q0 -93 28.5 -148t74.5 -55zM510 995q-61 0 -102 30.5t-60.5 87t-26.5 116.5t-6 139h17q18 -134 63 -195t133 -61q86 0 153.5 60.5t139.5 195.5h19q-70 -164 -103 -220q-82 -136 -195 -151q-15 -2 -32 -2z" />
    <glyph glyph-name="Ohungarumlaut" unicode="&#x150;" horiz-adv-x="1495" 
d="M750 -27q-188 0 -334.5 85.5t-223.5 226.5t-77 311q0 106 33 210t96.5 194t149.5 159.5t200 109.5t240 40q141 0 260.5 -50t199.5 -135.5t125 -200t45 -241.5q0 -189 -92 -351.5t-257 -260t-365 -97.5zM725 -6q112 0 215 72.5t174 188t113.5 260t42.5 286.5
q0 217 -112.5 352t-303.5 135q-117 0 -221 -73t-173.5 -189.5t-110 -261t-40.5 -287.5q0 -214 115 -348.5t301 -134.5zM981 1386l264 383h174l-424 -383h-14zM670 1386l264 383h174l-424 -383h-14z" />
    <glyph glyph-name="ohungarumlaut" unicode="&#x151;" horiz-adv-x="813" 
d="M315 -23q-119 0 -199.5 108.5t-80.5 262.5q0 90 41 188.5t104.5 176t144 128t154.5 50.5q124 0 211.5 -107.5t87.5 -259.5q0 -124 -70 -252.5t-178.5 -211.5t-214.5 -83zM291 2q87 0 163 98.5t124 255.5q38 118 38 289q0 104 -27 161.5t-73 57.5q-44 0 -100 -60
t-105.5 -152.5t-81.5 -192.5q-41 -125 -41 -254q0 -93 28.5 -148t74.5 -55zM618 1006l265 383h174l-424 -383h-15zM307 1006l264 383h174l-423 -383h-15z" />
    <glyph glyph-name="OE" unicode="&#x152;" horiz-adv-x="1933" 
d="M727 0q-106 0 -196 19.5t-156.5 54.5t-117.5 84t-81.5 108.5t-46 127.5t-14 140t17.5 148q58 270 277 434t538 164h901l25 -397l-12 -2l-9 26q-3 10 -10 29q-26 76 -40.5 111.5t-45.5 85.5t-66.5 71.5t-95.5 38.5t-141 17h-121l-123 -590l74 2q115 5 176 20t100.5 49.5
t71.5 104.5l15 28l14 -2l-92 -434l-15 2l5 29q14 111 -43 139.5t-248 38.5l-64 4l-131 -620l234 -11q60 1 114 13t94.5 28t81.5 47.5t67 56.5t60.5 70.5t53 73.5t51.5 80l20 29l11 -2l-152 -416h-981zM774 20l105 3l254 1194l-132 47q-261 0 -427.5 -145t-225.5 -414
q-22 -100 -23 -196t25 -185t76.5 -156t140 -107.5t207.5 -40.5z" />
    <glyph glyph-name="oe" unicode="&#x153;" horiz-adv-x="1280" 
d="M315 -23q-119 0 -199.5 108.5t-80.5 262.5q0 90 41 188.5t104.5 176t144 128t154.5 50.5q86 0 155 -53.5t105 -143.5q73 93 162.5 148t179.5 55q97 0 156 -42t59 -114q0 -97 -128 -162t-394 -110q-26 -93 -26 -174q0 -110 39.5 -162.5t123.5 -52.5q75 0 133 46t134 167
l14 -6q-75 -132 -170.5 -221t-198.5 -89q-77 0 -134.5 42.5t-86.5 111.5q-64 -70 -139.5 -112t-147.5 -42zM782 485q193 40 275 104t82 173q0 110 -76 110q-51 0 -117 -63q-49 -49 -94.5 -137t-73.5 -185zM291 2q87 0 163 98.5t124 255.5q38 118 38 289q0 104 -27 161.5
t-73 57.5q-44 0 -100 -60t-105.5 -152.5t-81.5 -192.5q-41 -125 -41 -254q0 -93 28.5 -148t74.5 -55z" />
    <glyph glyph-name="Racute" unicode="&#x154;" horiz-adv-x="1284" 
d="M-70 0l7 12l104 8q34 3 69.5 13.5t36.5 19.5l250 1180q1 8 -5 12.5t-31.5 8.5t-77.5 8l-78 6l-2 12h571q203 0 320.5 -84t117.5 -219q0 -145 -123.5 -239.5t-304.5 -100.5l199 -438q45 -100 90.5 -139.5t126.5 -45.5l25 -2l4 -12h-371l-270 651q-44 17 -113 54l-139 -658
q-3 -19 115 -29l77 -6l2 -12h-600zM684 674q145 0 237.5 94.5t92.5 255.5q0 107 -69 171.5t-195 64.5h-156l-115 -537q113 -49 205 -49zM618 1386l261 383h196l-442 -383h-15z" />
    <glyph glyph-name="racute" unicode="&#x155;" horiz-adv-x="784" 
d="M188 -6l-165 10l116 338l137 459l-100 8l-131 -213l-12 6q72 155 134 226t122 71q34 0 84.5 -44.5t50.5 -90.5q0 -37 -27.5 -119.5t-87.5 -242.5l-4.5 -10.5t-3.5 -9.5t-4 -11h6q161 305 205 375q43 67 76 96q34 31 61.5 45.5t61.5 11.5q62 -4 97 -46.5t30 -94.5
q-4 -48 -40 -81t-75 -30q-29 2 -50.5 20t-29 42.5t4 55t42.5 54.5l-53 21q-29 -15 -55 -44t-97 -146.5t-194 -346.5zM430 1006l260 383h197l-443 -383h-14z" />
    <glyph glyph-name="Rcommaaccent" unicode="&#x156;" horiz-adv-x="1284" 
d="M-70 0l7 12l104 8q34 3 69.5 13.5t36.5 19.5l250 1180q1 8 -5 12.5t-31.5 8.5t-77.5 8l-78 6l-2 12h571q203 0 320.5 -84t117.5 -219q0 -145 -123.5 -239.5t-304.5 -100.5l199 -438q45 -100 90.5 -139.5t126.5 -45.5l25 -2l4 -12h-371l-270 651q-44 17 -113 54l-139 -658
q-3 -19 115 -29l77 -6l2 -12h-600zM684 674q145 0 237.5 94.5t92.5 255.5q0 107 -69 171.5t-195 64.5h-156l-115 -537q113 -49 205 -49zM403 -555l-2 8q74 9 133.5 58t71.5 112q14 74 -33.5 108t-107.5 5q-14 46 27.5 92t115.5 39q72 -6 110 -54.5t21 -123.5
q-19 -84 -122 -160.5t-214 -83.5z" />
    <glyph glyph-name="rcommaaccent" unicode="&#x157;" horiz-adv-x="784" 
d="M188 -6l-165 10l116 338l137 459l-100 8l-131 -213l-12 6q72 155 134 226t122 71q34 0 84.5 -44.5t50.5 -90.5q0 -37 -27.5 -119.5t-87.5 -242.5l-4.5 -10.5t-3.5 -9.5t-4 -11h6q161 305 205 375q43 67 76 96q34 31 61.5 45.5t61.5 11.5q62 -4 97 -46.5t30 -94.5
q-4 -48 -40 -81t-75 -30q-29 2 -50.5 20t-29 42.5t4 55t42.5 54.5l-53 21q-29 -15 -55 -44t-97 -146.5t-194 -346.5zM-127 -555l-2 8q74 9 133.5 58t71.5 112q14 74 -34 108t-108 5q-13 46 28.5 92t115.5 39q72 -6 110 -54.5t21 -123.5q-19 -84 -122 -160.5t-214 -83.5z" />
    <glyph glyph-name="Rcaron" unicode="&#x158;" horiz-adv-x="1284" 
d="M-70 0l7 12l104 8q34 3 69.5 13.5t36.5 19.5l250 1180q1 8 -5 12.5t-31.5 8.5t-77.5 8l-78 6l-2 12h571q203 0 320.5 -84t117.5 -219q0 -145 -123.5 -239.5t-304.5 -100.5l199 -438q45 -100 90.5 -139.5t126.5 -45.5l25 -2l4 -12h-371l-270 651q-44 17 -113 54l-139 -658
q-3 -19 115 -29l77 -6l2 -12h-600zM684 674q145 0 237.5 94.5t92.5 255.5q0 107 -69 171.5t-195 64.5h-156l-115 -537q113 -49 205 -49zM723 1364l-186 403h16l201 -227h6l315 227h15l-355 -403h-12z" />
    <glyph glyph-name="rcaron" unicode="&#x159;" horiz-adv-x="784" 
d="M188 -6l-165 10l116 338l137 459l-100 8l-131 -213l-12 6q72 155 134 226t122 71q34 0 84.5 -44.5t50.5 -90.5q0 -37 -27.5 -119.5t-87.5 -242.5l-4.5 -10.5t-3.5 -9.5t-4 -11h6q161 305 205 375q43 67 76 96q34 31 61.5 45.5t61.5 11.5q62 -4 97 -46.5t30 -94.5
q-4 -48 -40 -81t-75 -30q-29 2 -50.5 20t-29 42.5t4 55t42.5 54.5l-53 21q-29 -15 -55 -44t-97 -146.5t-194 -346.5zM502 983l-187 403h17l200 -227h7l315 227h14l-354 -403h-12z" />
    <glyph glyph-name="Sacute" unicode="&#x15a;" horiz-adv-x="1011" 
d="M453 -25q-141 0 -259.5 36t-183.5 79l58 299h8l28 -123q31 -134 120 -202t214 -68q131 0 223.5 92.5t92.5 222.5q0 87 -62.5 156t-183.5 131q-138 72 -213.5 159t-75.5 204q0 63 27 124t75.5 111.5t125.5 81.5t169 31q148 0 332 -78l76 18l-66 -327l-6 2l-80 258
q-102 106 -235 106q-108 0 -185 -69.5t-77 -176.5q0 -90 51 -148.5t188 -129.5q157 -84 233.5 -172t76.5 -211q0 -70 -32.5 -141t-91 -130.5t-149.5 -97t-198 -37.5zM549 1386l260 383h197l-443 -383h-14z" />
    <glyph glyph-name="sacute" unicode="&#x15b;" horiz-adv-x="634" 
d="M225 -25q-100 0 -177 50t-77 129q0 43 30.5 74.5t74.5 31.5q34 0 57 -27t23 -59q0 -29 -20 -66.5t-40 -50.5q21 -19 73.5 -39t88.5 -20q42 0 74.5 18.5t50.5 47t26.5 58t8.5 56.5q0 26 -7 48.5t-24.5 45.5t-30 36.5t-41 40.5t-39.5 38q-46 45 -67 67.5t-47 56.5t-35.5 65
t-9.5 67q0 108 90.5 180t206.5 72q94 0 158.5 -39.5t64.5 -124.5q0 -45 -30 -72.5t-72 -27.5q-35 0 -59.5 27t-24.5 63q0 29 20.5 60t44.5 44q-4 2 -22.5 12.5t-29.5 16t-30 11t-35 5.5q-77 0 -113 -52.5t-36 -112.5q0 -16 3 -30.5t11.5 -30.5t15 -26.5t22 -28t23 -26
t28 -29l28.5 -28.5q3 -3 28 -27t31 -30t27 -28.5t27.5 -33t20.5 -31.5t19 -37t10 -37t5 -42q0 -72 -49 -134t-123.5 -96.5t-151.5 -34.5zM315 1006l260 383h197l-442 -383h-15z" />
    <glyph glyph-name="Scircumflex" unicode="&#x15c;" horiz-adv-x="1011" 
d="M453 -25q-141 0 -259.5 36t-183.5 79l58 299h8l28 -123q31 -134 120 -202t214 -68q131 0 223.5 92.5t92.5 222.5q0 87 -62.5 156t-183.5 131q-138 72 -213.5 159t-75.5 204q0 63 27 124t75.5 111.5t125.5 81.5t169 31q148 0 332 -78l76 18l-66 -327l-6 2l-80 258
q-102 106 -235 106q-108 0 -185 -69.5t-77 -176.5q0 -90 51 -148.5t188 -129.5q157 -84 233.5 -172t76.5 -211q0 -70 -32.5 -141t-91 -130.5t-149.5 -97t-198 -37.5zM393 1364l352 403h15l186 -403h-16l-199 227h-6l-319 -227h-13z" />
    <glyph glyph-name="scircumflex" unicode="&#x15d;" horiz-adv-x="634" 
d="M225 -25q-100 0 -177 50t-77 129q0 43 30.5 74.5t74.5 31.5q34 0 57 -27t23 -59q0 -29 -20 -66.5t-40 -50.5q21 -19 73.5 -39t88.5 -20q42 0 74.5 18.5t50.5 47t26.5 58t8.5 56.5q0 26 -7 48.5t-24.5 45.5t-30 36.5t-41 40.5t-39.5 38q-46 45 -67 67.5t-47 56.5t-35.5 65
t-9.5 67q0 108 90.5 180t206.5 72q94 0 158.5 -39.5t64.5 -124.5q0 -45 -30 -72.5t-72 -27.5q-35 0 -59.5 27t-24.5 63q0 29 20.5 60t44.5 44q-4 2 -22.5 12.5t-29.5 16t-30 11t-35 5.5q-77 0 -113 -52.5t-36 -112.5q0 -16 3 -30.5t11.5 -30.5t15 -26.5t22 -28t23 -26
t28 -29l28.5 -28.5q3 -3 28 -27t31 -30t27 -28.5t27.5 -33t20.5 -31.5t19 -37t10 -37t5 -42q0 -72 -49 -134t-123.5 -96.5t-151.5 -34.5zM131 983l352 403h15l186 -403h-16l-199 227h-6l-320 -227h-12z" />
    <glyph glyph-name="Scedilla" unicode="&#x15e;" horiz-adv-x="1011" 
d="M453 -25q-141 0 -259.5 36t-183.5 79l58 299h8l28 -123q31 -134 120 -202t214 -68q131 0 223.5 92.5t92.5 222.5q0 87 -62.5 156t-183.5 131q-138 72 -213.5 159t-75.5 204q0 63 27 124t75.5 111.5t125.5 81.5t169 31q148 0 332 -78l76 18l-66 -327l-6 2l-80 258
q-102 106 -235 106q-108 0 -185 -69.5t-77 -176.5q0 -90 51 -148.5t188 -129.5q157 -84 233.5 -172t76.5 -211q0 -67 -30 -135t-83.5 -126t-137 -97.5t-181.5 -45.5l-119 -112q116 9 193 -34t77 -116q0 -221 -473 -237v10q185 14 264.5 59t79.5 121q0 101 -174 101
q-36 0 -104 -11l4 17l223 200h-10z" />
    <glyph glyph-name="scedilla" unicode="&#x15f;" horiz-adv-x="634" 
d="M-80 -522v10q185 14 264.5 59t79.5 121q0 101 -174 101q-36 0 -104 -11l4 17l223 200q-96 3 -169 53t-73 126q0 43 30.5 74.5t74.5 31.5q34 0 57 -27t23 -59q0 -29 -20 -66.5t-40 -50.5q21 -19 73.5 -39t88.5 -20q42 0 74.5 18.5t50.5 47t26.5 58t8.5 56.5q0 26 -7 48.5
t-24.5 45.5t-30 36.5t-41 40.5t-39.5 38q-46 45 -67 67.5t-47 56.5t-35.5 65t-9.5 67q0 108 90.5 180t206.5 72q94 0 158.5 -39.5t64.5 -124.5q0 -45 -30 -72.5t-72 -27.5q-35 0 -59.5 27t-24.5 63q0 29 20.5 60t44.5 44q-4 2 -22.5 12.5t-29.5 16t-30 11t-35 5.5
q-77 0 -113 -52.5t-36 -112.5q0 -16 3 -30.5t11.5 -30.5t15 -26.5t22 -28t23 -26t28 -29l28.5 -28.5q3 -3 28 -27t31 -30t27 -28.5t27.5 -33t20.5 -31.5t19 -37t10 -37t5 -42q0 -70 -46 -130.5t-116.5 -95.5t-146.5 -39l-117 -110q116 9 193 -34t77 -116q0 -221 -473 -237z
" />
    <glyph glyph-name="Scaron" unicode="&#x160;" horiz-adv-x="1011" 
d="M453 -25q-141 0 -259.5 36t-183.5 79l58 299h8l28 -123q31 -134 120 -202t214 -68q131 0 223.5 92.5t92.5 222.5q0 87 -62.5 156t-183.5 131q-138 72 -213.5 159t-75.5 204q0 63 27 124t75.5 111.5t125.5 81.5t169 31q148 0 332 -78l76 18l-66 -327l-6 2l-80 258
q-102 106 -235 106q-108 0 -185 -69.5t-77 -176.5q0 -90 51 -148.5t188 -129.5q157 -84 233.5 -172t76.5 -211q0 -70 -32.5 -141t-91 -130.5t-149.5 -97t-198 -37.5zM676 1325l-187 404h17l201 -228h6l315 228h14l-354 -404h-12z" />
    <glyph glyph-name="scaron" unicode="&#x161;" horiz-adv-x="634" 
d="M225 -25q-100 0 -177 50t-77 129q0 43 30.5 74.5t74.5 31.5q34 0 57 -27t23 -59q0 -29 -20 -66.5t-40 -50.5q21 -19 73.5 -39t88.5 -20q42 0 74.5 18.5t50.5 47t26.5 58t8.5 56.5q0 26 -7 48.5t-24.5 45.5t-30 36.5t-41 40.5t-39.5 38q-46 45 -67 67.5t-47 56.5t-35.5 65
t-9.5 67q0 108 90.5 180t206.5 72q94 0 158.5 -39.5t64.5 -124.5q0 -45 -30 -72.5t-72 -27.5q-35 0 -59.5 27t-24.5 63q0 29 20.5 60t44.5 44q-4 2 -22.5 12.5t-29.5 16t-30 11t-35 5.5q-77 0 -113 -52.5t-36 -112.5q0 -16 3 -30.5t11.5 -30.5t15 -26.5t22 -28t23 -26
t28 -29l28.5 -28.5q3 -3 28 -27t31 -30t27 -28.5t27.5 -33t20.5 -31.5t19 -37t10 -37t5 -42q0 -72 -49 -134t-123.5 -96.5t-151.5 -34.5zM485 983l-186 403h16l201 -227h6l316 227h14l-354 -403h-13z" />
    <glyph glyph-name="Tcommaaccent" unicode="&#x162;" horiz-adv-x="1345" 
d="M279 0l6 12l104 8q103 8 107 33l254 1209h-109q-133 -8 -243 -99t-191 -225l-17 -27h-10l117 369h1110l-45 -369h-8l-4 25q-25 162 -99.5 241t-210.5 85h-98l-258 -1215q-1 -8 5.5 -12.5t32 -8.5t77.5 -8l78 -6l2 -12h-600zM326 -555l-2 8q74 9 133 58t71 112
q14 74 -33.5 108t-107.5 5q-14 46 27.5 92t115.5 39q73 -6 111 -54.5t21 -123.5q-19 -84 -122 -160.5t-214 -83.5z" />
    <glyph glyph-name="tcommaaccent" unicode="&#x163;" horiz-adv-x="563" 
d="M223 -25q-36 0 -124.5 26t-84.5 42l228 758l-158 4l31 69l153 3l82 266h168l-78 -269l166 -2v-71h-190l-242 -725l152 -13l133 213l12 -6q-68 -147 -135 -221t-113 -74zM-68 -555l-2 8q74 9 133.5 58t71.5 112q14 74 -33.5 108t-107.5 5q-14 46 27.5 92t115.5 39
q72 -6 110 -54.5t21 -123.5q-19 -84 -122 -160.5t-214 -83.5z" />
    <glyph glyph-name="Tcaron" unicode="&#x164;" horiz-adv-x="1345" 
d="M279 0l6 12l104 8q103 8 107 33l254 1209h-109q-133 -8 -243 -99t-191 -225l-17 -27h-10l117 369h1110l-45 -369h-8l-4 25q-25 162 -99.5 241t-210.5 85h-98l-258 -1215q-1 -8 5.5 -12.5t32 -8.5t77.5 -8l78 -6l2 -12h-600zM860 1364l-186 403h16l201 -227h6l315 227h15
l-355 -403h-12z" />
    <glyph glyph-name="tcaron" unicode="&#x165;" horiz-adv-x="563" 
d="M223 -25q-36 0 -124.5 26t-84.5 42l228 758l-158 4l31 69l153 3l82 266h168l-78 -269l166 -2v-71h-190l-242 -725l152 -13l133 213l12 -6q-68 -147 -135 -221t-113 -74zM526 930l-4 8q94 31 158.5 93t64.5 134q-1 90 -131 122l-14 5q9 41 39.5 72t81.5 31
q62 0 101.5 -45.5t39.5 -112.5q0 -102 -88.5 -187.5t-247.5 -119.5z" />
    <glyph glyph-name="Umacron" unicode="&#x16a;" horiz-adv-x="1382" 
d="M719 -31q-110 0 -201.5 19.5t-162.5 58.5t-110.5 103.5t-39.5 148.5q0 73 24 186l158 748q1 8 -5.5 12.5t-32 8.5t-77.5 8l-77 6l-2 12h600l-9 -12l-102 -8q-103 -8 -107 -33l-153 -727q-21 -94 -21 -168q0 -153 96.5 -228t274.5 -75q155 0 248 100t139 317l158 740
q6 28 -27 48t-119 30l-36 4l-2 12h423l-8 -12l-39 -4q-70 -8 -113.5 -29t-49.5 -53l-160 -744q-50 -238 -155.5 -353.5t-311.5 -115.5zM719 1448l24 51h510l-22 -51h-512z" />
    <glyph glyph-name="umacron" unicode="&#x16b;" horiz-adv-x="968" 
d="M670 -27q-33 0 -78 45t-45 91q0 45 40.5 180.5t102.5 283.5l-6 5q-92 -179 -181 -327t-141 -200q-33 -33 -76 -53.5t-75 -20.5q-58 0 -106 35t-48 78q0 74 105 334l147 375l-108 10l-133 -215l-13 6q70 149 136 223t110 74q33 0 100.5 -29.5t67.5 -48.5q0 -10 -20 -64
t-66 -169t-64 -162q-15 -38 -44 -109.5t-44.5 -112.5t-15.5 -55q0 -28 30.5 -50.5t65.5 -22.5q48 0 158 164.5t242 443.5l73 197l164 -11l-117 -338l-139 -456l101 -11l133 213l12 -6q-138 -297 -268 -297zM377 1067l24 51h510l-22 -51h-512z" />
    <glyph glyph-name="Ubreve" unicode="&#x16c;" horiz-adv-x="1382" 
d="M719 -31q-110 0 -201.5 19.5t-162.5 58.5t-110.5 103.5t-39.5 148.5q0 73 24 186l158 748q1 8 -5.5 12.5t-32 8.5t-77.5 8l-77 6l-2 12h600l-9 -12l-102 -8q-103 -8 -107 -33l-153 -727q-21 -94 -21 -168q0 -153 96.5 -228t274.5 -75q155 0 248 100t139 317l158 740
q6 28 -27 48t-119 30l-36 4l-2 12h423l-8 -12l-39 -4q-70 -8 -113.5 -29t-49.5 -53l-160 -744q-50 -238 -155.5 -353.5t-311.5 -115.5zM967 1376q-61 0 -102 30.5t-60.5 87t-26.5 116.5t-6 139h16q18 -134 63.5 -195t133.5 -61q86 0 153.5 60.5t139.5 195.5h18
q-70 -164 -101 -217q-80 -136 -191 -153q-18 -3 -37 -3z" />
    <glyph glyph-name="ubreve" unicode="&#x16d;" horiz-adv-x="968" 
d="M670 -27q-33 0 -78 45t-45 91q0 45 40.5 180.5t102.5 283.5l-6 5q-92 -179 -181 -327t-141 -200q-33 -33 -76 -53.5t-75 -20.5q-58 0 -106 35t-48 78q0 74 105 334l147 375l-108 10l-133 -215l-13 6q70 149 136 223t110 74q33 0 100.5 -29.5t67.5 -48.5q0 -10 -20 -64
t-66 -169t-64 -162q-15 -38 -44 -109.5t-44.5 -112.5t-15.5 -55q0 -28 30.5 -50.5t65.5 -22.5q48 0 158 164.5t242 443.5l73 197l164 -11l-117 -338l-139 -456l101 -11l133 213l12 -6q-138 -297 -268 -297zM629 995q-61 0 -102 30.5t-60.5 87t-26.5 116.5t-6 139h17
q18 -134 63 -195t133 -61q86 0 153.5 60.5t139.5 195.5h18q-4 -9 -12 -28q-69 -163 -112 -225q-84 -120 -205 -120z" />
    <glyph glyph-name="Uring" unicode="&#x16e;" horiz-adv-x="1382" 
d="M719 -31q-110 0 -201.5 19.5t-162.5 58.5t-110.5 103.5t-39.5 148.5q0 73 24 186l158 748q1 8 -5.5 12.5t-32 8.5t-77.5 8l-77 6l-2 12h600l-9 -12l-102 -8q-103 -8 -107 -33l-153 -727q-21 -94 -21 -168q0 -153 96.5 -228t274.5 -75q155 0 248 100t139 317l158 740
q6 28 -27 48t-119 30l-36 4l-2 12h423l-8 -12l-39 -4q-70 -8 -113.5 -29t-49.5 -53l-160 -744q-50 -238 -155.5 -353.5t-311.5 -115.5zM956 1401q-82 0 -132 53t-50 131q0 76 50 130t132 54t132.5 -54t50.5 -130q0 -77 -50.5 -130.5t-132.5 -53.5zM956 1419q73 0 117.5 48
t44.5 118q0 69 -44.5 117.5t-117.5 48.5t-117 -48.5t-44 -117.5q0 -70 44 -118t117 -48z" />
    <glyph glyph-name="uring" unicode="&#x16f;" horiz-adv-x="968" 
d="M670 -27q-33 0 -78 45t-45 91q0 45 40.5 180.5t102.5 283.5l-6 5q-92 -179 -181 -327t-141 -200q-33 -33 -76 -53.5t-75 -20.5q-58 0 -106 35t-48 78q0 74 105 334l147 375l-108 10l-133 -215l-13 6q70 149 136 223t110 74q33 0 100.5 -29.5t67.5 -48.5q0 -10 -20 -64
t-66 -169t-64 -162q-15 -38 -44 -109.5t-44.5 -112.5t-15.5 -55q0 -28 30.5 -50.5t65.5 -22.5q48 0 158 164.5t242 443.5l73 197l164 -11l-117 -338l-139 -456l101 -11l133 213l12 -6q-138 -297 -268 -297zM625 1020q-82 0 -132.5 53.5t-50.5 130.5q0 76 50.5 130.5
t132.5 54.5t132 -54t50 -131q0 -78 -50 -131t-132 -53zM625 1038q73 0 117 48t44 118q0 69 -44 117.5t-117 48.5t-117.5 -48.5t-44.5 -117.5q0 -70 44.5 -118t117.5 -48z" />
    <glyph glyph-name="Uhungarumlaut" unicode="&#x170;" horiz-adv-x="1382" 
d="M719 -31q-110 0 -201.5 19.5t-162.5 58.5t-110.5 103.5t-39.5 148.5q0 73 24 186l158 748q1 8 -5.5 12.5t-32 8.5t-77.5 8l-77 6l-2 12h600l-9 -12l-102 -8q-103 -8 -107 -33l-153 -727q-21 -94 -21 -168q0 -153 96.5 -228t274.5 -75q155 0 248 100t139 317l158 740
q6 28 -27 48t-119 30l-36 4l-2 12h423l-8 -12l-39 -4q-70 -8 -113.5 -29t-49.5 -53l-160 -744q-50 -238 -155.5 -353.5t-311.5 -115.5zM967 1386l264 383h174l-424 -383h-14zM655 1386l265 383h174l-424 -383h-15z" />
    <glyph glyph-name="uhungarumlaut" unicode="&#x171;" horiz-adv-x="968" 
d="M670 -27q-33 0 -78 45t-45 91q0 45 40.5 180.5t102.5 283.5l-6 5q-92 -179 -181 -327t-141 -200q-33 -33 -76 -53.5t-75 -20.5q-58 0 -106 35t-48 78q0 74 105 334l147 375l-108 10l-133 -215l-13 6q70 149 136 223t110 74q33 0 100.5 -29.5t67.5 -48.5q0 -10 -20 -64
t-66 -169t-64 -162q-15 -38 -44 -109.5t-44.5 -112.5t-15.5 -55q0 -28 30.5 -50.5t65.5 -22.5q48 0 158 164.5t242 443.5l73 197l164 -11l-117 -338l-139 -456l101 -11l133 213l12 -6q-138 -297 -268 -297zM700 1006l265 383h174l-424 -383h-15zM389 1006l264 383h174
l-424 -383h-14z" />
    <glyph glyph-name="Uogonek" unicode="&#x172;" horiz-adv-x="1382" 
d="M709 -485q-72 0 -111 46.5t-39 119.5q0 91 79 166.5t198 129.5q-58 -8 -117 -8q-110 0 -201.5 19.5t-162.5 58.5t-110.5 103.5t-39.5 148.5q0 73 24 186l158 748q1 8 -5.5 12.5t-32 8.5t-77.5 8l-77 6l-2 12h600l-9 -12l-102 -8q-103 -8 -107 -33l-153 -727
q-21 -94 -21 -168q0 -153 96.5 -228t274.5 -75q155 0 248 100t139 317l158 740q6 28 -27 48t-119 30l-36 4l-2 12h423l-8 -12l-39 -4q-70 -8 -113.5 -29t-49.5 -53l-160 -744q-37 -175 -102.5 -277t-182.5 -165q-98 -53 -158.5 -129.5t-60.5 -151.5q0 -131 106 -131
q8 0 15.5 0.5t13 1t12.5 3t11 3.5t11.5 4.5t9.5 4.5t10.5 6.5t10 6.5t12 7.5t11.5 7.5l2 -4q-37 -46 -89 -78t-109 -32z" />
    <glyph glyph-name="uogonek" unicode="&#x173;" horiz-adv-x="968" 
d="M561 -485q-72 0 -110.5 46.5t-38.5 119.5q0 157 256 292q-35 3 -78 48.5t-43 87.5q0 45 40.5 180.5t102.5 283.5l-6 5q-92 -179 -181 -327t-141 -200q-33 -33 -76 -53.5t-75 -20.5q-58 0 -106 35t-48 78q0 74 105 334l147 375l-108 10l-133 -215l-13 6q70 149 136 223
t110 74q33 0 100.5 -29.5t67.5 -48.5q0 -10 -20 -64t-66 -169t-64 -162q-15 -38 -44 -109.5t-44.5 -112.5t-15.5 -55q0 -28 30.5 -50.5t65.5 -22.5q48 0 158 164.5t242 443.5l73 197l164 -11l-117 -338l-139 -456l101 -11l133 213l12 -6q-108 -227 -207 -282
q-95 -51 -145.5 -124t-50.5 -149q0 -131 106 -131q8 0 15.5 0.5t13 1t12.5 3t11 3.5t11.5 4.5t9.5 4.5t10.5 6.5t10 6.5t12 7.5t11.5 7.5l2 -4q-37 -46 -89.5 -78t-109.5 -32z" />
    <glyph glyph-name="Wcircumflex" unicode="&#x174;" horiz-adv-x="2025" 
d="M549 -33l-176 1045q-25 157 -40 191q-18 43 -60 54q-18 5 -50 7l-57 4l-2 12h569l-8 -12l-63 -2q-36 -1 -56.5 -5t-36 -13.5t-20.5 -29t-4.5 -47.5t6.5 -73l141 -871h4l434 717l-12 68q-28 155 -42 188q-18 44 -58 56q-19 6 -53 8l-58 4l-2 12h565l-8 -12l-65 -2
q-92 -3 -110 -35t1 -139l129 -865h4l418 721q26 45 41.5 72.5t32 59t24 49t13 38.5t4 31t-7.5 22t-17.5 17.5t-30 11.5t-41 9t-53.5 6l-41 4l-2 12h455l-8 -12l-31 -4q-46 -6 -74 -17.5t-65.5 -49t-77 -98.5t-105.5 -175l-557 -957h-16l-145 936h-4l-568 -936h-16zM938 1364
l352 403h15l186 -403h-16l-199 227h-6l-320 -227h-12z" />
    <glyph glyph-name="wcircumflex" unicode="&#x175;" horiz-adv-x="1159" 
d="M201 -25q-58 0 -101 51.5t-43 120.5q0 57 36 136t82 146t106 158.5t92 151.5l-219 47l-107 -172l-8 7q72 154 126 219t105 65q41 0 118 -12t77 -21q0 -18 -41 -89.5t-90 -153.5t-90 -181t-41 -165q0 -79 29 -117.5t81 -38.5q155 0 428 551q0 1 -8.5 7t-22 16t-27 23
t-23 33t-9.5 42q0 44 27 70t72 26q37 0 63.5 -29t26.5 -67q0 -35 -15.5 -65.5t-37 -54t-50 -68.5t-47.5 -99q-55 -149 -55 -231q0 -76 36.5 -115t102.5 -39q78 0 153 84t122 221t47 281q-57 -12 -93 18t-36 70q0 38 27.5 68t64.5 30q44 0 74 -33.5t30 -81.5
q0 -126 -92 -360.5t-209 -353.5q-46 -47 -86 -71t-86 -24q-60 0 -93.5 48.5t-33.5 109.5q0 39 16.5 103.5t30.5 106t45 126.5q-50 -87 -91 -151.5t-91 -132.5t-92.5 -111.5t-89.5 -71t-90 -27.5zM463 983l352 403h14l187 -403h-17l-198 227h-6l-320 -227h-12z" />
    <glyph glyph-name="Ycircumflex" unicode="&#x176;" horiz-adv-x="1280" 
d="M246 0l6 12l104 8q103 8 107 33l110 520l-188 537q-31 89 -61 119.5t-93 34.5l-57 4l-2 12h569l-8 -12l-45 -2q-93 -4 -110 -40.5t18 -127.5l160 -471h4l248 334q119 166 135 193q34 58 10 79q-19 16 -111 29l-45 6l-2 12h435l-9 -12l-53 -6q-65 -8 -133.5 -68.5
t-192.5 -226.5l-276 -373l-115 -547q-1 -8 5.5 -12.5t32 -8.5t77.5 -8l78 -6l2 -12h-600zM584 1364l352 403h14l187 -403h-17l-198 227h-7l-319 -227h-12z" />
    <glyph glyph-name="ycircumflex" unicode="&#x177;" horiz-adv-x="862" 
d="M-98 -373q-172 0 -172 127q0 40 29.5 66t70.5 26q59 0 84.5 -49t-6.5 -112l76 -25q196 41 399 268q0 469 -44.5 675t-141.5 206h-31l-119 -213l-14 6q78 167 104 207q46 72 107 84q18 4 39 4q90 0 143.5 -74t79 -246t24.5 -466l5 -2q224 373 233 657q-42 -36 -81 -33
t-67 28t-30 54q-3 41 22.5 69.5t71.5 28.5q45 0 79 -34t34 -105q0 -208 -132 -471t-325 -450q-107 -105 -220.5 -165.5t-217.5 -60.5zM223 983l352 403h15l186 -403h-16l-199 227h-6l-319 -227h-13z" />
    <glyph glyph-name="Ydieresis" unicode="&#x178;" horiz-adv-x="1280" 
d="M246 0l6 12l104 8q103 8 107 33l110 520l-188 537q-31 89 -61 119.5t-93 34.5l-57 4l-2 12h569l-8 -12l-45 -2q-93 -4 -110 -40.5t18 -127.5l160 -471h4l248 334q119 166 135 193q34 58 10 79q-19 16 -111 29l-45 6l-2 12h435l-9 -12l-53 -6q-65 -8 -133.5 -68.5
t-192.5 -226.5l-276 -373l-115 -547q-1 -8 5.5 -12.5t32 -8.5t77.5 -8l78 -6l2 -12h-600zM1004 1384q-50 0 -78.5 35.5t-28.5 71.5q0 39 28.5 77t78.5 38t78 -38t28 -77q0 -36 -28 -71.5t-78 -35.5zM635 1384q-50 0 -78.5 35.5t-28.5 71.5q0 39 28.5 77t78.5 38t78 -38
t28 -77q0 -36 -28 -71.5t-78 -35.5z" />
    <glyph glyph-name="Zacute" unicode="&#x179;" horiz-adv-x="1175" 
d="M-31 0l2 8l1061 1249l-2 5h-225q-110 0 -198 -19.5t-145.5 -49t-103.5 -75.5t-71.5 -88t-50.5 -98l-11 -21h-8l76 369h975l-4 -10l-1057 -1243v-4l268 -3q79 0 145 9t116.5 24t94 41t75 54t61.5 69t52 79.5t48 92.5l12 27h15l-109 -416h-1016zM649 1386l260 383h197
l-442 -383h-15z" />
    <glyph glyph-name="zacute" unicode="&#x17a;" horiz-adv-x="735" 
d="M471 -45q-54 0 -112.5 30.5t-100 66.5t-88 67.5t-78.5 32.5h-14l-49 -175q-33 7 -60.5 30t-27.5 52q0 41 28.5 65t61.5 30l549 536q-35 -14 -71.5 -8t-63.5 18.5t-55.5 35t-48.5 43t-42.5 41.5t-36.5 30q-6 3 -25.5 -15.5t-34.5 -38.5t-9 -20q39 -3 64.5 -28.5
t25.5 -59.5q0 -39 -27 -66.5t-68 -27.5q-38 0 -61 26t-23 66q0 49 46 101t108.5 84t112.5 32q48 -4 81 -22.5t49.5 -43t28.5 -49t26 -44t34 -23.5l12 2l49 178q32 -8 59 -33t27 -55q-1 -39 -29 -61.5t-61 -26.5l-553 -541q51 10 92.5 11t86 -12t78.5 -27.5t69.5 -37
t59.5 -40t48.5 -36.5t36.5 -26q6 -3 17.5 14.5t19 36.5t2.5 19q-38 3 -65 34t-27 66q0 40 27.5 66.5t70.5 26.5q37 0 60.5 -29.5t23.5 -71.5q0 -73 -81 -148t-142 -75zM410 1006l260 383h196l-442 -383h-14z" />
    <glyph glyph-name="Zdotaccent" unicode="&#x17b;" horiz-adv-x="1175" 
d="M-31 0l2 8l1061 1249l-2 5h-225q-110 0 -198 -19.5t-145.5 -49t-103.5 -75.5t-71.5 -88t-50.5 -98l-11 -21h-8l76 369h975l-4 -10l-1057 -1243v-4l268 -3q79 0 145 9t116.5 24t94 41t75 54t61.5 69t52 79.5t48 92.5l12 27h15l-109 -416h-1016zM760 1456q-50 0 -78.5 35
t-28.5 72q0 40 28 77t79 37q50 0 78 -37t28 -77q0 -37 -28 -72t-78 -35z" />
    <glyph glyph-name="zdotaccent" unicode="&#x17c;" horiz-adv-x="735" 
d="M471 -45q-54 0 -112.5 30.5t-100 66.5t-88 67.5t-78.5 32.5h-14l-49 -175q-33 7 -60.5 30t-27.5 52q0 41 28.5 65t61.5 30l549 536q-35 -14 -71.5 -8t-63.5 18.5t-55.5 35t-48.5 43t-42.5 41.5t-36.5 30q-6 3 -25.5 -15.5t-34.5 -38.5t-9 -20q39 -3 64.5 -28.5
t25.5 -59.5q0 -39 -27 -66.5t-68 -27.5q-38 0 -61 26t-23 66q0 49 46 101t108.5 84t112.5 32q48 -4 81 -22.5t49.5 -43t28.5 -49t26 -44t34 -23.5l12 2l49 178q32 -8 59 -33t27 -55q-1 -39 -29 -61.5t-61 -26.5l-553 -541q51 10 92.5 11t86 -12t78.5 -27.5t69.5 -37
t59.5 -40t48.5 -36.5t36.5 -26q6 -3 17.5 14.5t19 36.5t2.5 19q-38 3 -65 34t-27 66q0 40 27.5 66.5t70.5 26.5q37 0 60.5 -29.5t23.5 -71.5q0 -73 -81 -148t-142 -75zM494 1075q-50 0 -78.5 35t-28.5 72q0 40 28 77t79 37q50 0 78 -37t28 -77q0 -37 -28 -72t-78 -35z" />
    <glyph glyph-name="Zcaron" unicode="&#x17d;" horiz-adv-x="1175" 
d="M-31 0l2 8l1061 1249l-2 5h-225q-110 0 -198 -19.5t-145.5 -49t-103.5 -75.5t-71.5 -88t-50.5 -98l-11 -21h-8l76 369h975l-4 -10l-1057 -1243v-4l268 -3q79 0 145 9t116.5 24t94 41t75 54t61.5 69t52 79.5t48 92.5l12 27h15l-109 -416h-1016zM713 1325l-187 404h17
l200 -228h7l315 228h14l-354 -404h-12z" />
    <glyph glyph-name="zcaron" unicode="&#x17e;" horiz-adv-x="735" 
d="M471 -45q-54 0 -112.5 30.5t-100 66.5t-88 67.5t-78.5 32.5h-14l-49 -175q-33 7 -60.5 30t-27.5 52q0 41 28.5 65t61.5 30l549 536q-35 -14 -71.5 -8t-63.5 18.5t-55.5 35t-48.5 43t-42.5 41.5t-36.5 30q-6 3 -25.5 -15.5t-34.5 -38.5t-9 -20q39 -3 64.5 -28.5
t25.5 -59.5q0 -39 -27 -66.5t-68 -27.5q-38 0 -61 26t-23 66q0 49 46 101t108.5 84t112.5 32q48 -4 81 -22.5t49.5 -43t28.5 -49t26 -44t34 -23.5l12 2l49 178q32 -8 59 -33t27 -55q-1 -39 -29 -61.5t-61 -26.5l-553 -541q51 10 92.5 11t86 -12t78.5 -27.5t69.5 -37
t59.5 -40t48.5 -36.5t36.5 -26q6 -3 17.5 14.5t19 36.5t2.5 19q-38 3 -65 34t-27 66q0 40 27.5 66.5t70.5 26.5q37 0 60.5 -29.5t23.5 -71.5q0 -73 -81 -148t-142 -75zM535 983l-187 403h17l200 -227h6l316 227h14l-354 -403h-12z" />
    <glyph glyph-name="florin" unicode="&#x192;" horiz-adv-x="1019" 
d="M152 -145q-68 0 -114 32.5t-46 83.5q0 35 28 67t70 32q35 0 63.5 -26.5t35 -64.5t-18.5 -81q30 -17 55 -17q42 0 74.5 54t68 183.5t87.5 385.5l45 252l-228 4l31 69l219 2q63 255 189 381q47 45 109 72t126 27q76 0 122 -32.5t46 -86.5q0 -39 -33 -70.5t-71 -31.5
q-44 0 -69 28.5t-18.5 71t44.5 78.5q-33 22 -66 22q-40 0 -72 -32.5t-58 -101.5t-44 -141t-41 -186l250 -2v-71h-264l-62 -256q-51 -218 -108.5 -352t-139.5 -216q-74 -77 -210 -77z" />
    <glyph glyph-name="Aringacute" unicode="&#x1fa;" horiz-adv-x="1257" 
d="M741 555h-344l-125 -219q-10 -18 -30 -52q-100 -162 -95.5 -210.5t146.5 -57.5l61 -4l2 -12h-456l6 12l33 4q28 3 44.5 6t38.5 14.5t34.5 21t37 39.5t41 55t51 82.5t63 107.5t81.5 143l448 787q-50 20 -79 66t-29 104q0 76 50 130t132 54t132 -54t50 -130
q0 -74 -46 -126.5t-122 -58.5l90 -985q13 -109 29.5 -160.5t42 -71t76.5 -22.5l59 -6l2 -12h-575l6 12l66 4q54 3 79.5 26t28.5 68.5t-4 114.5zM852 1276q73 0 117.5 48t44.5 118q0 69 -44.5 117.5t-117.5 48.5t-117.5 -48.5t-44.5 -117.5q0 -70 44.5 -118t117.5 -48z
M412 582h327l-39 497h-6zM688 1614l260 383h197l-443 -383h-14z" />
    <glyph glyph-name="aringacute" unicode="&#x1fb;" horiz-adv-x="911" 
d="M276 92q46 0 121 102.5t164 280.5q55 108 55 168t-46 101.5t-109 41.5q-58 0 -101 -43q-67 -68 -119.5 -222t-52.5 -273q0 -74 24.5 -115t63.5 -41zM621 -25q-34 0 -105.5 29.5t-71.5 48.5q0 23 25.5 113.5t69.5 202.5h-4q-25 -39 -61.5 -95.5t-56 -87t-47 -70.5
t-46 -60.5t-41.5 -41.5t-45 -29t-45 -8q-72 0 -122.5 55t-50.5 142q0 80 27 164t73 159t93.5 136t103.5 117q61 62 128.5 98.5t123.5 36.5q44 0 60 -41.5t16 -163.5h4l82 217l160 -8l-168 -436l-121 -377l111 -13l133 216l12 -7q-71 -152 -132 -224.5t-105 -72.5zM602 1038
q73 0 117.5 48t44.5 118q0 69 -44.5 117.5t-117.5 48.5t-117.5 -48.5t-44.5 -117.5q0 -70 44.5 -118t117.5 -48zM602 1020q-82 0 -132 53t-50 131q0 77 50 131t132 54t132 -54t50 -131q0 -78 -50 -131t-132 -53zM453 1409l260 383h196l-442 -383h-14z" />
    <glyph glyph-name="AEacute" unicode="&#x1fc;" horiz-adv-x="1740" 
d="M780 555h-350l-162 -203q-26 -33 -70 -89q-108 -133 -125 -168q-20 -42 13 -58q24 -11 107 -21l34 -4l6 -12h-436l6 12l39 4q40 4 63.5 8t54.5 21t50 32.5t61.5 62t76.5 88.5t106 132l641 805q16 21 23.5 34t8 25.5t-12 19.5t-39 12.5t-70.5 7.5l-76 4l-2 12h930l24 -397
l-12 -2l-8 26q-3 10 -10 29q-26 76 -40.5 111.5t-45.5 85.5t-66.5 71.5t-95.5 38.5t-141 17h-142l-123 -590l95 2q115 5 176 20t100.5 49.5t71.5 104.5l14 28l14 -2l-92 -434l-14 2l4 29q14 111 -43 139.5t-248 38.5l-84 4l-129 -620l254 -11q43 1 81.5 6t72.5 16.5t63 23
t57 32.5t49 37t46 44.5t40.5 47t39 53t35.5 53t36 56.5l21 29l10 -2l-151 -416h-1037l6 12l84 8q103 8 107 33zM451 582h335l117 561h-4zM1153 1386l260 383h197l-443 -383h-14z" />
    <glyph glyph-name="aeacute" unicode="&#x1fd;" horiz-adv-x="1230" 
d="M190 -25q-72 0 -121 55.5t-49 143.5q0 80 27 164t73 159t93.5 136t103.5 117q141 145 246 145q104 0 117 -209q74 97 166.5 154t185.5 57q97 0 156 -42t59 -114q0 -97 -128 -162t-394 -110q-27 -96 -27 -174q0 -109 40 -162t124 -53q75 0 132.5 46t133.5 167l15 -6
q-35 -61 -74 -113.5t-86 -99t-101 -73t-108 -26.5q-110 0 -181 83.5t-71 199.5q0 61 6 90q-132 -202 -161 -241q-85 -114 -152 -129q-12 -3 -25 -3zM733 485q193 40 275 104t82 173q0 110 -76 110q-51 0 -117 -63q-49 -49 -94.5 -137t-73.5 -185zM274 90q46 0 122.5 103.5
t164.5 281.5q55 108 55 168t-46 101.5t-109 41.5q-58 0 -101 -43q-67 -68 -119.5 -222t-52.5 -273q0 -75 23.5 -116.5t62.5 -41.5zM694 1006l260 383h197l-442 -383h-15z" />
    <glyph glyph-name="Oslashacute" unicode="&#x1fe;" horiz-adv-x="1495" 
d="M1231 1178q112 -87 172.5 -217t60.5 -279q0 -189 -92 -351.5t-257 -260t-365 -97.5q-216 0 -375 111l-185 -234h-26l192 246q-115 86 -178 217.5t-63 282.5q0 106 33 210t96.5 194t149.5 159.5t200 109.5t240 40q219 0 380 -119l175 221h26q-182 -233 -184 -233zM403 156
l768 979q-115 153 -317 153q-117 0 -221 -73t-173.5 -189.5t-110 -261t-40.5 -287.5q0 -187 94 -321zM1184 1116l-768 -979q118 -143 309 -143q112 0 215 72.5t174 188t113.5 260t42.5 286.5q0 184 -86 315zM848 1376l260 383h197l-443 -383h-14z" />
    <glyph glyph-name="oslashacute" unicode="&#x1ff;" horiz-adv-x="813" 
d="M696 776q82 -109 82 -252q0 -125 -70 -252.5t-178.5 -209.5t-214.5 -82q-103 0 -180 83q1 0 -62.5 -81.5t-127.5 -162.5l-64 -81h-26l268 340q-88 109 -88 268q0 121 68 248.5t172.5 211t203.5 83.5q118 0 203 -98l293 374h26zM190 164l424 541q-7 76 -32.5 116.5
t-65.5 40.5q-67 0 -152.5 -124t-134.5 -279q-41 -125 -41 -254q0 -27 2 -41zM616 674l-423 -539q11 -63 36 -97t62 -34q87 0 163 97.5t124 252.5q38 121 38 291v29zM457 985l260 383h196l-442 -383h-14z" />
    <glyph glyph-name="Scommaaccent" unicode="&#x218;" horiz-adv-x="1011" 
d="M453 -25q-141 0 -259.5 36t-183.5 79l58 299h8l28 -123q31 -134 120 -202t214 -68q131 0 223.5 92.5t92.5 222.5q0 87 -62.5 156t-183.5 131q-138 72 -213.5 159t-75.5 204q0 63 27 124t75.5 111.5t125.5 81.5t169 31q148 0 332 -78l76 18l-66 -327l-6 2l-80 258
q-102 106 -235 106q-108 0 -185 -69.5t-77 -176.5q0 -90 51 -148.5t188 -129.5q157 -84 233.5 -172t76.5 -211q0 -70 -32.5 -141t-91 -130.5t-149.5 -97t-198 -37.5zM215 -555l-2 8q74 9 133.5 58t71.5 112q14 74 -34 108t-108 5q-13 46 28.5 92t115.5 39q72 -6 110 -54.5
t21 -123.5q-19 -84 -122 -160.5t-214 -83.5z" />
    <glyph glyph-name="scommaaccent" unicode="&#x219;" horiz-adv-x="634" 
d="M225 -25q-100 0 -177 50t-77 129q0 43 30.5 74.5t74.5 31.5q34 0 57 -27t23 -59q0 -29 -20 -66.5t-40 -50.5q21 -19 73.5 -39t88.5 -20q42 0 74.5 18.5t50.5 47t26.5 58t8.5 56.5q0 26 -7 48.5t-24.5 45.5t-30 36.5t-41 40.5t-39.5 38q-46 45 -67 67.5t-47 56.5t-35.5 65
t-9.5 67q0 108 90.5 180t206.5 72q94 0 158.5 -39.5t64.5 -124.5q0 -45 -30 -72.5t-72 -27.5q-35 0 -59.5 27t-24.5 63q0 29 20.5 60t44.5 44q-4 2 -22.5 12.5t-29.5 16t-30 11t-35 5.5q-77 0 -113 -52.5t-36 -112.5q0 -16 3 -30.5t11.5 -30.5t15 -26.5t22 -28t23 -26
t28 -29l28.5 -28.5q3 -3 28 -27t31 -30t27 -28.5t27.5 -33t20.5 -31.5t19 -37t10 -37t5 -42q0 -72 -49 -134t-123.5 -96.5t-151.5 -34.5zM-43 -555l-2 8q74 9 133.5 58t71.5 112q14 74 -34 108t-108 5q-13 46 28.5 92t115.5 39q72 -6 110 -54.5t21 -123.5
q-19 -84 -122 -160.5t-214 -83.5z" />
    <glyph glyph-name="uni021A" unicode="&#x21a;" horiz-adv-x="1345" 
d="M279 0l6 12l104 8q103 8 107 33l254 1209h-109q-133 -8 -243 -99t-191 -225l-17 -27h-10l117 369h1110l-45 -369h-8l-4 25q-25 162 -99.5 241t-210.5 85h-98l-258 -1215q-1 -8 5.5 -12.5t32 -8.5t77.5 -8l78 -6l2 -12h-600zM326 -555l-2 8q74 9 133 58t71 112
q14 74 -33.5 108t-107.5 5q-14 46 27.5 92t115.5 39q73 -6 111 -54.5t21 -123.5q-19 -84 -122 -160.5t-214 -83.5z" />
    <glyph glyph-name="uni021B" unicode="&#x21b;" horiz-adv-x="563" 
d="M223 -25q-36 0 -124.5 26t-84.5 42l228 758l-158 4l31 69l153 3l82 266h168l-78 -269l166 -2v-71h-190l-242 -725l152 -13l133 213l12 -6q-68 -147 -135 -221t-113 -74zM-68 -555l-2 8q74 9 133.5 58t71.5 112q14 74 -33.5 108t-107.5 5q-14 46 27.5 92t115.5 39
q72 -6 110 -54.5t21 -123.5q-19 -84 -122 -160.5t-214 -83.5z" />
    <glyph glyph-name="dotlessj" unicode="&#x237;" horiz-adv-x="460" 
d="M-244 -510q-49 0 -91 32.5t-42 80.5q0 35 25.5 62.5t66.5 27.5q58 0 82 -48t-18 -120l100 35q42 48 73 128t87 261l260 850l-119 8l-141 -211l-12 6q72 150 145.5 222.5t140.5 72.5q45 0 86 -43t41 -92q0 -50 -80 -292.5t-157 -436.5q-65 -162 -126 -270t-134 -181
q-37 -38 -88 -65t-99 -27z" />
    <glyph glyph-name="circumflex" unicode="&#x2c6;" horiz-adv-x="757" 
d="M221 983l352 403h15l186 -403h-16l-199 227h-6l-320 -227h-12z" />
    <glyph glyph-name="caron" unicode="&#x2c7;" horiz-adv-x="757" 
d="M489 983l-186 403h16l201 -227h6l316 227h14l-354 -403h-13z" />
    <glyph glyph-name="breve" unicode="&#x2d8;" horiz-adv-x="757" 
d="M514 995q-61 0 -102 30.5t-60.5 87t-26.5 116.5t-6 139h17q18 -134 63 -195t133 -61q86 0 153.5 60.5t139.5 195.5h19q-70 -164 -103 -220q-82 -136 -195 -151q-15 -2 -32 -2z" />
    <glyph glyph-name="dotaccent" unicode="&#x2d9;" horiz-adv-x="757" 
d="M539 1075q-50 0 -78.5 35t-28.5 72q0 40 28 77t79 37q50 0 78 -37t28 -77q0 -37 -28 -72t-78 -35z" />
    <glyph glyph-name="ring" unicode="&#x2da;" horiz-adv-x="757" 
d="M545 1020q-82 0 -132.5 53.5t-50.5 130.5q0 76 50.5 130.5t132.5 54.5t132 -54t50 -131q0 -78 -50 -131t-132 -53zM545 1038q73 0 117.5 48t44.5 118q0 69 -44.5 117.5t-117.5 48.5t-117.5 -48.5t-44.5 -117.5q0 -70 44.5 -118t117.5 -48z" />
    <glyph glyph-name="ogonek" unicode="&#x2db;" horiz-adv-x="757" 
d="M221 -485q-72 0 -110.5 46.5t-38.5 119.5q0 62 36 119t96.5 101t119.5 75.5t125 56.5h28q-138 -59 -210 -142.5t-72 -175.5q0 -131 106 -131q8 0 15.5 0.5t13 1t12.5 3t11 3.5t11.5 4.5t9.5 4.5t10.5 6.5t10 6.5t12 7.5t11.5 7.5l2 -4q-37 -46 -89.5 -78t-109.5 -32z" />
    <glyph glyph-name="tilde" unicode="&#x2dc;" horiz-adv-x="757" 
d="M676 1018q-41 0 -93.5 19.5t-93 43t-84.5 43t-71 19.5q-24 0 -37 -2.5t-28 -12t-24 -32.5t-16 -62h-16q25 122 60.5 169.5t107.5 47.5q51 0 119 -31.5t129 -62.5t94 -31q46 0 69 19.5t37 89.5h17q-25 -120 -61.5 -168.5t-108.5 -48.5z" />
    <glyph glyph-name="hungarumlaut" unicode="&#x2dd;" horiz-adv-x="757" 
d="M571 1006l265 383h174l-424 -383h-15zM260 1006l264 383h174l-424 -383h-14z" />
    <glyph glyph-name="Wgrave" unicode="&#x1e80;" horiz-adv-x="2025" 
d="M549 -33l-176 1045q-25 157 -40 191q-18 43 -60 54q-18 5 -50 7l-57 4l-2 12h569l-8 -12l-63 -2q-36 -1 -56.5 -5t-36 -13.5t-20.5 -29t-4.5 -47.5t6.5 -73l141 -871h4l434 717l-12 68q-28 155 -42 188q-18 44 -58 56q-19 6 -53 8l-58 4l-2 12h565l-8 -12l-65 -2
q-92 -3 -110 -35t1 -139l129 -865h4l418 721q26 45 41.5 72.5t32 59t24 49t13 38.5t4 31t-7.5 22t-17.5 17.5t-30 11.5t-41 9t-53.5 6l-41 4l-2 12h455l-8 -12l-31 -4q-46 -6 -74 -17.5t-65.5 -49t-77 -98.5t-105.5 -175l-557 -957h-16l-145 936h-4l-568 -936h-16z
M1303 1386l-281 383h176l121 -383h-16z" />
    <glyph glyph-name="wgrave" unicode="&#x1e81;" horiz-adv-x="1159" 
d="M201 -25q-58 0 -101 51.5t-43 120.5q0 57 36 136t82 146t106 158.5t92 151.5l-219 47l-107 -172l-8 7q72 154 126 219t105 65q41 0 118 -12t77 -21q0 -18 -41 -89.5t-90 -153.5t-90 -181t-41 -165q0 -79 29 -117.5t81 -38.5q155 0 428 551q0 1 -8.5 7t-22 16t-27 23
t-23 33t-9.5 42q0 44 27 70t72 26q37 0 63.5 -29t26.5 -67q0 -35 -15.5 -65.5t-37 -54t-50 -68.5t-47.5 -99q-55 -149 -55 -231q0 -76 36.5 -115t102.5 -39q78 0 153 84t122 221t47 281q-57 -12 -93 18t-36 70q0 38 27.5 68t64.5 30q44 0 74 -33.5t30 -81.5
q0 -126 -92 -360.5t-209 -353.5q-46 -47 -86 -71t-86 -24q-60 0 -93.5 48.5t-33.5 109.5q0 39 16.5 103.5t30.5 106t45 126.5q-50 -87 -91 -151.5t-91 -132.5t-92.5 -111.5t-89.5 -71t-90 -27.5zM762 1006l-281 383h176l121 -383h-16z" />
    <glyph glyph-name="Wacute" unicode="&#x1e82;" horiz-adv-x="2025" 
d="M549 -33l-176 1045q-25 157 -40 191q-18 43 -60 54q-18 5 -50 7l-57 4l-2 12h569l-8 -12l-63 -2q-36 -1 -56.5 -5t-36 -13.5t-20.5 -29t-4.5 -47.5t6.5 -73l141 -871h4l434 717l-12 68q-28 155 -42 188q-18 44 -58 56q-19 6 -53 8l-58 4l-2 12h565l-8 -12l-65 -2
q-92 -3 -110 -35t1 -139l129 -865h4l418 721q26 45 41.5 72.5t32 59t24 49t13 38.5t4 31t-7.5 22t-17.5 17.5t-30 11.5t-41 9t-53.5 6l-41 4l-2 12h455l-8 -12l-31 -4q-46 -6 -74 -17.5t-65.5 -49t-77 -98.5t-105.5 -175l-557 -957h-16l-145 936h-4l-568 -936h-16z
M1135 1386l260 383h196l-442 -383h-14z" />
    <glyph glyph-name="wacute" unicode="&#x1e83;" horiz-adv-x="1159" 
d="M201 -25q-58 0 -101 51.5t-43 120.5q0 57 36 136t82 146t106 158.5t92 151.5l-219 47l-107 -172l-8 7q72 154 126 219t105 65q41 0 118 -12t77 -21q0 -18 -41 -89.5t-90 -153.5t-90 -181t-41 -165q0 -79 29 -117.5t81 -38.5q155 0 428 551q0 1 -8.5 7t-22 16t-27 23
t-23 33t-9.5 42q0 44 27 70t72 26q37 0 63.5 -29t26.5 -67q0 -35 -15.5 -65.5t-37 -54t-50 -68.5t-47.5 -99q-55 -149 -55 -231q0 -76 36.5 -115t102.5 -39q78 0 153 84t122 221t47 281q-57 -12 -93 18t-36 70q0 38 27.5 68t64.5 30q44 0 74 -33.5t30 -81.5
q0 -126 -92 -360.5t-209 -353.5q-46 -47 -86 -71t-86 -24q-60 0 -93.5 48.5t-33.5 109.5q0 39 16.5 103.5t30.5 106t45 126.5q-50 -87 -91 -151.5t-91 -132.5t-92.5 -111.5t-89.5 -71t-90 -27.5zM725 1006l260 383h197l-443 -383h-14z" />
    <glyph glyph-name="Wdieresis" unicode="&#x1e84;" horiz-adv-x="2025" 
d="M549 -33l-176 1045q-25 157 -40 191q-18 43 -60 54q-18 5 -50 7l-57 4l-2 12h569l-8 -12l-63 -2q-36 -1 -56.5 -5t-36 -13.5t-20.5 -29t-4.5 -47.5t6.5 -73l141 -871h4l434 717l-12 68q-28 155 -42 188q-18 44 -58 56q-19 6 -53 8l-58 4l-2 12h565l-8 -12l-65 -2
q-92 -3 -110 -35t1 -139l129 -865h4l418 721q26 45 41.5 72.5t32 59t24 49t13 38.5t4 31t-7.5 22t-17.5 17.5t-30 11.5t-41 9t-53.5 6l-41 4l-2 12h455l-8 -12l-31 -4q-46 -6 -74 -17.5t-65.5 -49t-77 -98.5t-105.5 -175l-557 -957h-16l-145 936h-4l-568 -936h-16z
M1395 1423q-50 0 -78.5 35.5t-28.5 71.5q0 39 28.5 77t78.5 38t78 -38t28 -77q0 -36 -28 -71.5t-78 -35.5zM1026 1423q-50 0 -78 35.5t-28 71.5q0 39 28 77t78 38t78.5 -38t28.5 -77q0 -36 -28.5 -71.5t-78.5 -35.5z" />
    <glyph glyph-name="wdieresis" unicode="&#x1e85;" horiz-adv-x="1159" 
d="M201 -25q-58 0 -101 51.5t-43 120.5q0 57 36 136t82 146t106 158.5t92 151.5l-219 47l-107 -172l-8 7q72 154 126 219t105 65q41 0 118 -12t77 -21q0 -18 -41 -89.5t-90 -153.5t-90 -181t-41 -165q0 -79 29 -117.5t81 -38.5q155 0 428 551q0 1 -8.5 7t-22 16t-27 23
t-23 33t-9.5 42q0 44 27 70t72 26q37 0 63.5 -29t26.5 -67q0 -35 -15.5 -65.5t-37 -54t-50 -68.5t-47.5 -99q-55 -149 -55 -231q0 -76 36.5 -115t102.5 -39q78 0 153 84t122 221t47 281q-57 -12 -93 18t-36 70q0 38 27.5 68t64.5 30q44 0 74 -33.5t30 -81.5
q0 -126 -92 -360.5t-209 -353.5q-46 -47 -86 -71t-86 -24q-60 0 -93.5 48.5t-33.5 109.5q0 39 16.5 103.5t30.5 106t45 126.5q-50 -87 -91 -151.5t-91 -132.5t-92.5 -111.5t-89.5 -71t-90 -27.5zM956 1042q-50 0 -78 35.5t-28 71.5q0 39 28 77t78 38t78.5 -38t28.5 -77
q0 -36 -28.5 -71.5t-78.5 -35.5zM588 1042q-50 0 -78.5 35.5t-28.5 71.5q0 39 28.5 77t78.5 38t78 -38t28 -77q0 -36 -28 -71.5t-78 -35.5z" />
    <glyph glyph-name="thinspace" unicode="&#x2009;" horiz-adv-x="122" 
 />
    <glyph glyph-name="endash" unicode="&#x2013;" horiz-adv-x="870" 
d="M10 438l25 82h844l-25 -82h-844z" />
    <glyph glyph-name="emdash" unicode="&#x2014;" horiz-adv-x="1835" 
d="M10 438l25 82h1808l-24 -82h-1809z" />
    <glyph glyph-name="quoteleft" unicode="&#x2018;" horiz-adv-x="370" 
d="M313 848q-62 0 -101.5 44.5t-39.5 111.5q0 103 88.5 188t247.5 121l4 -8q-94 -32 -158.5 -94.5t-64.5 -133.5q0 -32 15 -56t36.5 -36.5t42.5 -20.5t36 -11.5t15 -4.5q-9 -40 -39.5 -70t-81.5 -30z" />
    <glyph glyph-name="quoteright" unicode="&#x2019;" horiz-adv-x="370" 
d="M139 866l-4 8q94 31 158.5 93.5t64.5 134.5q-1 90 -131 122l-14 5q9 41 39.5 71.5t81.5 30.5q62 0 101.5 -45t39.5 -112q0 -102 -88.5 -188t-247.5 -120z" />
    <glyph glyph-name="quotesinglbase" unicode="&#x201a;" horiz-adv-x="370" 
d="M-94 -223l-4 8q94 31 158.5 93t64.5 134q-1 90 -131 122l-14 5q9 41 39 72t81 31q62 0 102 -45.5t40 -112.5q0 -102 -88.5 -187.5t-247.5 -119.5z" />
    <glyph glyph-name="quotedblleft" unicode="&#x201c;" horiz-adv-x="729" 
d="M672 848q-62 0 -102 44.5t-40 111.5q0 103 88.5 188t247.5 121l4 -8q-94 -32 -158.5 -94.5t-64.5 -133.5q0 -32 15 -56t36.5 -36.5t43 -20.5t36.5 -11.5t15 -4.5q-9 -40 -39.5 -70t-81.5 -30zM313 848q-62 0 -101.5 44.5t-39.5 111.5q0 103 88.5 188t247.5 121l4 -8
q-94 -32 -158.5 -94.5t-64.5 -133.5q0 -32 15 -56t36.5 -36.5t42.5 -20.5t36 -11.5t15 -4.5q-9 -40 -39.5 -70t-81.5 -30z" />
    <glyph glyph-name="quotedblright" unicode="&#x201d;" horiz-adv-x="729" 
d="M498 866l-4 8q94 31 158.5 93.5t64.5 134.5q-1 90 -132 122l-14 5q9 41 39.5 71.5t81.5 30.5q62 0 102 -45t40 -112q0 -102 -88.5 -188t-247.5 -120zM139 866l-4 8q94 31 158.5 93.5t64.5 134.5q-1 90 -131 122l-14 5q9 41 39.5 71.5t81.5 30.5q62 0 101.5 -45t39.5 -112
q0 -102 -88.5 -188t-247.5 -120z" />
    <glyph glyph-name="quotedblbase" unicode="&#x201e;" horiz-adv-x="729" 
d="M264 -223l-4 8q94 31 158.5 93t64.5 134q-1 90 -131 122l-14 5q9 41 39.5 72t81.5 31q62 0 101.5 -45.5t39.5 -112.5q0 -102 -88.5 -187.5t-247.5 -119.5zM-94 -223l-4 8q94 31 158.5 93t64.5 134q-1 90 -131 122l-14 5q9 41 39 72t81 31q62 0 102 -45.5t40 -112.5
q0 -102 -88.5 -187.5t-247.5 -119.5z" />
    <glyph glyph-name="dagger" unicode="&#x2020;" horiz-adv-x="886" 
d="M270 -319l248 1167h-414l2 20h416l88 412h23l-88 -412h416l-7 -20h-413l-248 -1167h-23z" />
    <glyph glyph-name="daggerdbl" unicode="&#x2021;" horiz-adv-x="886" 
d="M270 -319l84 393h-415l6 20h413l164 770h-413l2 21h415l84 395h23l-84 -395h416l-7 -21h-413l-164 -770h414l-2 -20h-416l-84 -393h-23z" />
    <glyph glyph-name="bullet" unicode="&#x2022;" horiz-adv-x="870" 
d="M442 80q-43 0 -144.5 43t-129.5 74q-31 33 -74 133.5t-43 144.5t43 146t74 133t132 72.5t144 41.5q44 0 145 -41.5t132 -72.5t73 -133t42 -146q0 -45 -41.5 -145.5t-73.5 -132.5q-30 -32 -132 -74.5t-147 -42.5z" />
    <glyph glyph-name="ellipsis" unicode="&#x2026;" horiz-adv-x="1234" 
d="M979 -25q-52 0 -87.5 36.5t-35.5 86.5q0 47 35 83t86 36t87 -36t36 -83q0 -50 -34.5 -86.5t-86.5 -36.5zM547 -25q-52 0 -87.5 36.5t-35.5 86.5q0 47 35 83t86 36t87 -36t36 -83q0 -50 -34.5 -86.5t-86.5 -36.5zM115 -25q-52 0 -87.5 36.5t-35.5 86.5q0 47 35 83t86 36
t87 -36t36 -83q0 -50 -34.5 -86.5t-86.5 -36.5z" />
    <glyph glyph-name="perthousand" unicode="&#x2030;" horiz-adv-x="1714" 
d="M397 791q-115 0 -184.5 75t-69.5 183q0 109 69.5 185.5t184.5 76.5q116 0 186 -76.5t70 -185.5q0 -108 -70 -183t-186 -75zM-8 -29l1196 1340h26l-1196 -1340h-26zM1401 -27q-115 0 -184.5 74.5t-69.5 181.5q0 110 69.5 187.5t184.5 77.5q116 0 186 -77.5t70 -187.5
q0 -107 -70 -181.5t-186 -74.5zM813 -27q-115 0 -184.5 74.5t-69.5 181.5q0 110 69.5 187.5t184.5 77.5q116 0 186 -77.5t70 -187.5q0 -107 -70 -181.5t-186 -74.5zM397 811q104 0 168 68t64 170q0 101 -64.5 171t-167.5 70t-166 -70t-63 -171q0 -102 63 -170t166 -68z
M1401 -6q104 0 167.5 67.5t63.5 169.5q0 101 -64 171.5t-167 70.5t-166.5 -70.5t-63.5 -171.5q0 -102 63 -169.5t167 -67.5zM813 -6q104 0 167.5 67.5t63.5 169.5q0 101 -64 171.5t-167 70.5t-166 -70t-63 -172t62.5 -169.5t166.5 -67.5z" />
    <glyph glyph-name="guilsinglleft" unicode="&#x2039;" horiz-adv-x="516" 
d="M397 96l-368 357l4 18l516 342l6 -12l-340 -363l193 -327z" />
    <glyph glyph-name="guilsinglright" unicode="&#x203a;" horiz-adv-x="518" 
d="M-18 96l-7 13l340 358l-192 330l10 16l369 -356l-4 -19z" />
    <glyph glyph-name="fraction" unicode="&#x2044;" horiz-adv-x="940" 
d="M-25 -27l961 1340h29l-961 -1340h-29z" />
    <glyph glyph-name="zerosuperior" unicode="&#x2070;" horiz-adv-x="673" 
d="M326 504q-62 0 -109 26.5t-74 71.5t-40 97t-13 110q0 76 23 160t65.5 159.5t112 125t151.5 49.5q60 0 106.5 -28t73 -74.5t39.5 -100t13 -109.5q0 -77 -22.5 -159.5t-63.5 -157t-110 -122.5t-152 -48zM313 516q65 0 117 70.5t79.5 171.5t41.5 191t14 149q0 190 -116 190
q-64 0 -115.5 -72t-79.5 -174t-42.5 -194t-14.5 -152q0 -180 116 -180z" />
    <glyph glyph-name="foursuperior" unicode="&#x2074;" horiz-adv-x="581" 
d="M283 518l47 217h-320v4l506 572h37l-104 -496h135l-23 -80h-131l-47 -217h-100zM98 815h248l78 365h-4z" />
    <glyph glyph-name="fivesuperior" unicode="&#x2075;" horiz-adv-x="493" 
d="M115 479q-73 7 -106.5 33.5t-24.5 65.5q6 24 25.5 38t45.5 13q35 -3 51 -40.5t13 -80.5q39 -13 51 -14q63 -6 121 45t76 133q22 97 -46.5 169t-207.5 105l163 348h304l-39 -104h-299l-70 -152q160 -41 238.5 -127.5t56.5 -189.5q-24 -110 -125.5 -182.5t-226.5 -59.5z
" />
    <glyph glyph-name="sixsuperior" unicode="&#x2076;" horiz-adv-x="585" 
d="M301 504q-113 0 -175.5 78t-62.5 188q0 71 25.5 143.5t79 140t129 120.5t184 85.5t234.5 34.5l-2 -10q-175 -11 -304.5 -106.5t-193.5 -235.5l2 -2q88 59 182 59q89 0 137 -52t48 -142q0 -127 -85.5 -214t-197.5 -87zM297 516q71 0 123.5 76t52.5 188q0 81 -36 132
t-109 51q-62 0 -123 -41q-41 -100 -41 -197q0 -209 133 -209z" />
    <glyph glyph-name="sevensuperior" unicode="&#x2077;" horiz-adv-x="509" 
d="M70 518l489 670l-2 6h-174q-84 0 -127.5 -8t-70.5 -28t-56 -64l-8 -13h-8l69 211h453v-4l-490 -770h-75z" />
    <glyph glyph-name="eightsuperior" unicode="&#x2078;" horiz-adv-x="587" 
d="M297 498q-109 0 -184.5 58t-75.5 144q0 83 67 139.5t172 67.5l3 2q-59 48 -92 92t-33 99q0 79 67 146t170 67q97 0 163.5 -55t66.5 -136q0 -74 -59 -121.5t-152 -60.5v-4q35 -28 55.5 -46.5t44.5 -47t35.5 -59.5t11.5 -66q0 -90 -76 -154.5t-184 -64.5zM399 944
q57 28 91 78.5t34 118.5q0 66 -32.5 112.5t-96.5 46.5t-103.5 -46.5t-39.5 -108.5q0 -30 11 -57t36.5 -54.5t44 -43.5t55.5 -46zM299 510q71 0 115.5 49.5t44.5 112.5q0 42 -27 85.5t-50.5 64.5t-79.5 66q-9 7 -13 11q-154 -55 -154 -217q0 -73 41.5 -122.5t122.5 -49.5z
" />
    <glyph glyph-name="ninesuperior" unicode="&#x2079;" horiz-adv-x="610" 
d="M-20 522l2 10q176 11 305 107t192 235h-2q-83 -59 -180 -59q-89 0 -137.5 53t-48.5 144q0 126 86 212.5t198 86.5t174 -77.5t62 -186.5q0 -72 -25 -144.5t-78.5 -141t-128.5 -121t-183.5 -85t-235.5 -33.5zM367 852q60 0 122 41q41 96 41 199q0 98 -29.5 152t-101.5 54
t-125 -75.5t-53 -186.5q0 -82 36.5 -133t109.5 -51z" />
    <glyph glyph-name="plussuperior" unicode="&#x207a;" horiz-adv-x="673" 
d="M389 575v322h-313l2 18l311 3v313h21v-313l311 -3l4 -18h-315v-322h-21z" />
    <glyph glyph-name="minussuperior" unicode="&#x207b;" horiz-adv-x="673" 
d="M670 895h-559l4 16h553z" />
    <glyph glyph-name="zeroinferior" unicode="&#x2080;" horiz-adv-x="673" 
d="M285 -266q-62 0 -109 26.5t-74 71.5t-40 97t-13 110q0 60 14 126t43.5 131.5t70.5 118t99.5 85t124.5 32.5q60 0 106.5 -28t73 -74.5t39.5 -99.5t13 -109q0 -77 -22.5 -159.5t-63.5 -157t-110 -122.5t-152 -48zM272 -254q65 0 117 70.5t79.5 171.5t41.5 191t14 149
q0 190 -116 190q-64 0 -115.5 -72t-79.5 -174t-42.5 -194t-14.5 -152q0 -180 116 -180z" />
    <glyph glyph-name="oneinferior" unicode="&#x2081;" horiz-adv-x="454" 
d="M4 -252l6 8h39q59 0 62 21l145 696l-123 21l4 6l244 28l-162 -753q-1 -6 3 -9.5t19.5 -6.5t43.5 -3h34l5 -8h-320z" />
    <glyph glyph-name="twoinferior" unicode="&#x2082;" horiz-adv-x="536" 
d="M-76 -252l-2 8q228 190 278 235q130 121 167 214q20 53 20 112q0 73 -42 114.5t-101 41.5q-47 0 -80 -23.5t-74 -78.5l-8 6q106 164 237 164q74 0 127 -51t54 -128q0 -42 -9.5 -79t-32.5 -72t-48 -64t-69.5 -67t-83 -68.5t-102.5 -81t-114 -92.5v-2h309q36 0 127 150
l6 10l6 -2l-106 -246h-459z" />
    <glyph glyph-name="threeinferior" unicode="&#x2083;" horiz-adv-x="493" 
d="M137 -303q-192 0 -192 94q0 24 17.5 41.5t47.5 17.5q33 0 53.5 -34t-6.5 -78q42 -29 93 -29q77 0 132.5 65t55.5 154q0 82 -51 131.5t-144 49.5q-22 0 -67 -9l-4 9q90 37 136 59t88 51.5t57.5 60t15.5 72.5q0 52 -34.5 89.5t-90.5 37.5q-46 0 -90.5 -30.5t-71.5 -77.5
l-8 6q34 71 97.5 117.5t137.5 46.5q71 0 119.5 -45t48.5 -105q0 -73 -56.5 -124.5t-182.5 -92.5v-4h4q91 -9 145.5 -70t54.5 -137q0 -101 -92.5 -183.5t-212.5 -82.5z" />
    <glyph glyph-name="fourinferior" unicode="&#x2084;" horiz-adv-x="581" 
d="M242 -252l47 217h-320v4l506 572h37l-104 -496h135l-23 -80h-131l-47 -217h-100zM57 45h248l78 365h-4z" />
    <glyph glyph-name="fiveinferior" unicode="&#x2085;" horiz-adv-x="493" 
d="M74 -291q-74 7 -107 33t-24 65q6 24 25.5 38.5t45.5 13.5q35 -3 51 -40.5t13 -80.5q39 -13 51 -14q63 -6 121 45t76 133q22 97 -46.5 169t-207.5 105l164 348h303l-39 -104h-299l-70 -152q160 -41 238.5 -127.5t56.5 -189.5q-24 -110 -125.5 -182.5t-226.5 -59.5z" />
    <glyph glyph-name="sixinferior" unicode="&#x2086;" horiz-adv-x="585" 
d="M260 -266q-112 0 -174.5 78t-62.5 188q0 59 18.5 119.5t53.5 118.5t90.5 109t125.5 90t163.5 62.5t199.5 24.5l-2 -10q-175 -11 -304.5 -106.5t-193.5 -235.5l2 -2q88 59 182 59q89 0 137 -52t48 -142q0 -127 -85.5 -214t-197.5 -87zM256 -254q71 0 123.5 76t52.5 188
q0 81 -36 132t-109 51q-62 0 -123 -41q-41 -100 -41 -197q0 -209 133 -209z" />
    <glyph glyph-name="seveninferior" unicode="&#x2087;" horiz-adv-x="509" 
d="M29 -252l489 670l-2 6h-174q-84 0 -127.5 -8t-70.5 -28t-56 -64l-8 -13h-8l69 211h453v-4l-490 -770h-75z" />
    <glyph glyph-name="eightinferior" unicode="&#x2088;" horiz-adv-x="587" 
d="M256 -272q-109 0 -184.5 58t-75.5 144q0 83 67.5 139.5t172.5 67.5l2 2q-59 48 -92 92t-33 99q0 79 67 146t170 67q97 0 163.5 -55t66.5 -136q0 -74 -59 -121.5t-152 -60.5v-4q35 -28 55.5 -46.5t44.5 -47t35.5 -59.5t11.5 -66q0 -90 -76 -154.5t-184 -64.5zM358 174
q57 28 91 78.5t34 118.5q0 66 -32.5 112.5t-96.5 46.5t-103.5 -46.5t-39.5 -108.5q0 -30 11 -57t36.5 -54.5t44 -43.5t55.5 -46zM258 -260q71 0 115.5 49.5t44.5 112.5q0 42 -27 85.5t-50.5 64.5t-79.5 66q-9 7 -13 11q-154 -55 -154 -217q0 -73 41.5 -122.5t122.5 -49.5z
" />
    <glyph glyph-name="nineinferior" unicode="&#x2089;" horiz-adv-x="610" 
d="M-61 -248l2 10q176 11 305 107t192 235h-2q-83 -59 -180 -59q-89 0 -137.5 53t-48.5 144q0 126 86 212.5t198 86.5t174 -78t62 -187q0 -72 -25 -144.5t-78.5 -140.5t-128.5 -120.5t-183.5 -85t-235.5 -33.5zM326 82q61 0 123 41q40 94 40 199q0 98 -29.5 152t-101.5 54
t-125 -75.5t-53 -186.5q0 -82 36.5 -133t109.5 -51z" />
    <glyph glyph-name="Euro" unicode="&#x20ac;" horiz-adv-x="1009" 
d="M578 -29q-78 0 -146.5 28t-117.5 74.5t-85.5 109.5t-57 132t-26.5 142h-141l6 20h133q0 5 1 17.5t1 17.5q0 108 25 211h-111l7 20h112q49 159 156 287t239.5 197t262.5 69q124 0 203 -47t79 -112q0 -41 -31 -74t-75 -33q-49 0 -73.5 36t-20.5 80.5t30 72.5
q-4 9 -7.5 14.5t-15 16.5t-34 16.5t-53.5 5.5q-179 0 -301.5 -144.5t-176.5 -384.5h408l6 -20h-420q-18 -89 -18 -188q0 -40 2 -58h375l6 -20h-379q19 -174 113 -276.5t245 -102.5q144 0 277 133l12 -10q-88 -112 -195 -171t-214 -59z" />
    <glyph glyph-name="trademark" unicode="&#x2122;" horiz-adv-x="831" 
d="M618 958l3 7h10q26 0 32.5 7t6.5 36l6 243q-5 8 -11 13t-10.5 6t-13.5 2l-14 2l-2 6h116l84 -229h2l86 229h123l-2 -6l-24 -2q-25 -3 -25 -8l6 -291q0 -2 9 -3q11 -1 20 -3l16 -2l2 -7h-164v7l25 2q21 3 21 8l-5 280h-2l-112 -297h-8l-109 285q-2 2 -2 0l-4 -242
q0 -24 8.5 -30t38.5 -6h10l2 -7h-119zM352 958l2 7l23 2q24 3 24 8v299h-20q-54 0 -100 -90l-5 -8h-4l17 104h297l10 -102h-2l-4 8q-45 88 -98 88h-21v-301q0 -2 29 -6l16 -2v-7h-164z" />
    <glyph glyph-name="minus" unicode="&#x2212;" horiz-adv-x="886" 
d="M821 473h-735l4 25h727z" />
    <glyph glyph-name="uni2215" unicode="&#x2215;" horiz-adv-x="940" 
d="M-25 -27l961 1340h29l-961 -1340h-29z" />
    <glyph glyph-name="approxequal" unicode="&#x2248;" horiz-adv-x="886" 
d="M252 707q-72 0 -117.5 -36t-64.5 -122h-25q34 182 207 182q43 0 100 -21.5t103.5 -47t102.5 -47t97 -21.5q72 0 118 36t65 122h24q-19 -100 -75.5 -141.5t-131.5 -41.5q-54 0 -129 34.5t-149 69t-125 34.5zM252 371q-72 0 -117.5 -36t-64.5 -122h-25q34 182 207 182
q43 0 100 -21.5t103.5 -47t102.5 -47t97 -21.5q72 0 118 36t65 122h24q-19 -100 -75.5 -141.5t-131.5 -41.5q-54 0 -129 34.5t-149 69t-125 34.5z" />
    <glyph glyph-name="notequal" unicode="&#x2260;" horiz-adv-x="876" 
d="M47 647l-6 25h451l90 317h26l-90 -317h338l-6 -25h-340l-92 -330h432l6 -24h-446l-95 -338h-26l94 338h-342l6 24h344l92 330h-436z" />
    <glyph glyph-name="lessequal" unicode="&#x2264;" horiz-adv-x="860" 
d="M840 211l-807 342v22l807 340l10 -22l-780 -326v-4l780 -330zM850 76h-817l4 24h809z" />
    <glyph glyph-name="greaterequal" unicode="&#x2265;" horiz-adv-x="860" 
d="M850 553l-807 -342l-10 22l780 330v4l-780 326l10 22l807 -340v-22zM850 76h-817l4 24h809z" />
    <glyph glyph-name="pcircle" unicode="&#x24df;" horiz-adv-x="1441" 
d="M745 -29q-137 0 -261 53t-213 142.5t-142 213.5t-53 261t53 261t142 214.5t213 143.5t261 53q182 0 336.5 -90t244 -244.5t89.5 -337.5q0 -137 -53 -261t-142.5 -213.5t-213.5 -142.5t-261 -53zM745 -10q132 0 252.5 52t207.5 139t138.5 207.5t51.5 252.5t-51.5 252.5
t-138.5 208.5t-207.5 140t-252.5 52q-176 0 -325.5 -88t-236.5 -238.5t-87 -326.5t87 -326t236.5 -237.5t325.5 -87.5zM457 244l2 8l61 6q60 6 60 21v702q0 8 -11.5 11t-60.5 7l-47 5l-4 8h350q143 0 216 -54t73 -143q0 -93 -85 -156t-216 -63q-31 0 -99 10v-332
q0 -13 72 -18l59 -4l4 -8h-374zM795 608q79 0 127.5 52.5t48.5 138.5q0 97 -46.5 148.5t-150.5 51.5h-78v-376q51 -15 99 -15z" />
    <glyph glyph-name="commaaccent" unicode="&#xf6c3;" horiz-adv-x="757" 
d="M39 -555l-2 8q74 9 133.5 58t71.5 112q14 74 -34 108t-108 5q-13 46 28.5 92t115.5 39q72 -6 110 -54.5t21 -123.5q-19 -84 -122 -160.5t-214 -83.5z" />
    <glyph glyph-name="J.alt" horiz-adv-x="909" 
d="M256 -23q-143 0 -218 60.5t-75 132.5q0 51 35.5 89t89.5 38q44 0 73 -30t29 -70q0 -39 -25 -71t-83 -36q13 -41 60.5 -68.5t117.5 -27.5q94 0 149 65.5t87 219.5l200 956q1 8 -5 12.5t-31.5 8.5t-77.5 8l-76 6l-4 12h600l-6 -12l-103 -8q-104 -8 -108 -33l-215 -1022
q-7 -32 -46 -72t-95.5 -75t-130.5 -59t-142 -24z" />
    <glyph glyph-name="Jcircumflex.alt" horiz-adv-x="909" 
d="M256 -23q-143 0 -218 60.5t-75 132.5q0 51 35.5 89t89.5 38q44 0 73 -30t29 -70q0 -39 -25 -71t-83 -36q13 -41 60.5 -68.5t117.5 -27.5q94 0 149 65.5t87 219.5l200 956q1 8 -5 12.5t-31.5 8.5t-77.5 8l-76 6l-4 12h600l-6 -12l-103 -8q-104 -8 -108 -33l-215 -1022
q-7 -32 -46 -72t-95.5 -75t-130.5 -59t-142 -24zM539 1364l352 403h14l187 -403h-17l-198 227h-7l-319 -227h-12z" />
    <glyph glyph-name="zero.alt" horiz-adv-x="1114" 
d="M535 -25q-211 0 -343.5 124.5t-132.5 318.5q0 120 42.5 226.5t115.5 182.5t172.5 120t210.5 44q211 0 343 -125.5t132 -320.5q0 -161 -73 -292.5t-196.5 -204.5t-270.5 -73zM535 -8q142 0 261 71.5t189 199t70 282.5q0 186 -127 308t-328 122q-142 0 -261.5 -73.5
t-189 -201.5t-69.5 -282q0 -186 127 -306t328 -120z" />
    <glyph glyph-name="one.alt" horiz-adv-x="675" 
d="M-6 0l6 12l72 2q54 2 77.5 8.5t26.5 24.5l180 868q2 9 -2.5 14t-27 9t-68.5 6l-59 2l-2 12h503l-8 -12l-67 -2q-54 -2 -77.5 -8.5t-27.5 -24.5l-182 -868q-2 -9 2.5 -14t27.5 -9t70 -6l58 -2l2 -12h-504z" />
    <glyph glyph-name="dot" horiz-adv-x="413" 
d="M207 336q-52 0 -87.5 36.5t-35.5 86.5q0 47 35 83t86 36t87 -36t36 -83q0 -50 -34.5 -86.5t-86.5 -36.5z" />
    <glyph glyph-name="ampersand.smallcap" horiz-adv-x="1136" 
d="M969 588q63 -23 100 -77t37 -126q0 -111 -77 -205.5t-206 -148.5t-278 -54q-225 0 -363.5 106.5t-138.5 270.5q0 100 67.5 181t176.5 120q-15 37 -15 76q0 102 72.5 173t177.5 71q92 0 148.5 -76.5t42.5 -175.5l-15 4q5 64 -33.5 110t-105.5 46q-61 0 -100 -48t-39 -116
q0 -25 2 -35h33q76 0 123 -32.5t47 -82.5q0 -36 -31.5 -59t-81.5 -23q-66 0 -126.5 43t-90.5 107q-117 -53 -117 -191q0 -170 131.5 -262t370.5 -92q184 0 298 83t114 210q0 75 -48.5 130.5t-113.5 55.5q-53 0 -109.5 -49t-56.5 -94q0 -46 35.5 -72t95.5 -26q-30 9 -39 41.5
t9.5 62t56.5 29.5q29 0 48 -20t19 -50q0 -34 -25.5 -58t-66.5 -24q-77 0 -132.5 51t-55.5 134q0 53 30.5 93t75.5 62.5t98.5 45.5t98.5 43t75.5 54t30.5 78q0 45 -37 73t-96 28q26 -7 37 -42.5t-7 -68.5t-61 -33q-32 0 -52.5 21t-20.5 55q0 37 30.5 62.5t73.5 25.5
q82 0 139.5 -60.5t57.5 -150.5q0 -65 -47 -107t-166 -87zM426 668q12 -55 46.5 -87t80.5 -32q18 0 31.5 12.5t13.5 26.5q0 33 -41 56.5t-102 23.5h-29z" />
    <glyph glyph-name="at.smallcap" horiz-adv-x="1179" 
d="M598 -158q-247 0 -402 146.5t-155 378.5q0 166 80 308.5t217 226t297 83.5q219 0 361.5 -134t142.5 -339q0 -110 -51.5 -209t-133.5 -157t-170 -58q-76 0 -118.5 36t-42.5 93q0 43 30 127h-2q-91 -137 -148.5 -196.5t-119.5 -59.5q-55 0 -95 39.5t-40 99.5q0 86 63.5 192
t151.5 189q109 103 199 103q38 0 57.5 -46.5t13.5 -105.5h2l66 189l139 -7l-98 -249l-70 -181q-59 -157 88 -157q96 0 179 105.5t83 252.5q0 198 -137.5 328.5t-349.5 130.5q-156 0 -289.5 -81.5t-212 -221t-78.5 -301.5q0 -224 152 -367t391 -143q161 0 296.5 82.5
t197.5 207.5l14 -6q-63 -130 -202.5 -214.5t-305.5 -84.5zM455 174q37 0 95.5 63.5t115.5 176.5q43 84 43 108q0 43 -33 82t-76 39q-27 0 -57 -27q-50 -49 -99 -159t-49 -189q0 -44 16.5 -69t43.5 -25z" />
    <glyph glyph-name="a.smallcap" horiz-adv-x="964" 
d="M532 410h-241l-86 -154q-9 -15 -25 -44q-75 -122 -72 -157.5t107 -40.5l39 -2l2 -12h-338l6 12l27 2q27 2 43 5t36 17.5t33 29.5t39.5 56t49.5 81.5t68 119.5q3 6 5 9l273 483l-6 66q46 7 78 32t65 70h22l74 -772q8 -81 23.5 -123t35.5 -55.5t58 -16.5l45 -4l2 -12h-469
l10 12l43 2q56 3 68.5 33.5t5.5 112.5zM303 432h227l-26 352h-2z" />
    <glyph glyph-name="b.smallcap" horiz-adv-x="919" 
d="M-41 0l8 12l56 6q73 8 77 23l189 881q1 4 -1 6t-12 4.5t-25 4.5t-46 5l-39 4l-2 12h397q175 0 258.5 -60.5t83.5 -149.5q0 -97 -84 -156.5t-241 -65.5v-4q135 -21 207.5 -87.5t70.5 -155.5q-2 -135 -121 -207t-354 -72h-422zM358 18l60 2q114 4 180 85.5t66 191.5
q0 102 -69.5 163.5t-188.5 61.5h-19l-102 -475zM487 537q113 0 171.5 70t58.5 167q0 76 -48 120t-139 44h-57l-84 -391q58 -10 98 -10z" />
    <glyph glyph-name="c.smallcap" horiz-adv-x="1048" 
d="M582 -20q-115 0 -211 35t-160 95.5t-99.5 141.5t-35.5 172q0 110 41.5 210.5t116 177t185 122t240.5 45.5q163 0 281 -70l119 41l-49 -299l-13 2l-77 226q-35 33 -96 55t-128 22q-99 0 -181.5 -53t-134 -138t-80 -187t-28.5 -205q0 -175 86 -275t238 -100q195 0 319 197
l52 81l10 -4l-80 -258l-53 -2q-39 -12 -116 -22t-146 -10z" />
    <glyph glyph-name="d.smallcap" horiz-adv-x="1044" 
d="M-41 0l8 12l58 6q71 8 75 23l189 881q1 4 -1 6t-12 4.5t-25 4.5t-46 5l-39 4l-2 12l389 3q238 1 362.5 -112t124.5 -292q0 -111 -43.5 -211.5t-122.5 -177.5t-199 -122.5t-263 -45.5h-453zM383 16q110 0 199.5 48t146 130.5t87 188t30.5 223.5q0 97 -29.5 170t-98 118.5
t-171.5 45.5h-72l-190 -891z" />
    <glyph glyph-name="e.smallcap" horiz-adv-x="946" 
d="M-41 0l8 12l53 6q76 8 80 23l189 881q1 4 -1 6t-12 4.5t-25 4.5t-46 5l-39 4l-2 12h733l12 -309h-14l-4 19q-35 153 -103 214t-213 58l-102 -2l-92 -438l88 4q107 6 159.5 34.5t84.5 100.5l12 29l12 -2l-75 -357h-15l4 29q6 24 2.5 43t-6.5 32.5t-16.5 24t-27 17.5
t-38.5 12t-50 8t-62 6l-76 4l-98 -460l182 -7q73 1 132 21t109 64t83 84.5t83 111.5l15 20l12 -2l-109 -317h-827z" />
    <glyph glyph-name="f.smallcap" horiz-adv-x="876" 
d="M-41 0l8 12l62 6q67 8 71 23l189 881q1 4 -1 6.5t-9.5 5t-23.5 4.5t-44 4l-45 4l-2 12h739l-4 -309h-14l-6 19q-14 43 -22.5 67.5t-22 56.5t-24.5 48.5t-27 36.5t-34 30t-42.5 19t-54 12t-66.5 2l-113 -2l-94 -446l67 4q108 6 159 34t85 101l12 26l15 -2l-78 -352h-12v25
q0 86 -38 113t-159 32l-55 2l-92 -438q-1 -6 3.5 -9.5t23.5 -6.5t55 -5l69 -4l2 -12h-477z" />
    <glyph glyph-name="g.smallcap" horiz-adv-x="1089" 
d="M561 -25q-218 0 -351.5 125t-133.5 320q0 113 42.5 215t117.5 178t185.5 121t240.5 45q174 0 288 -72l111 39l-49 -303h-11l-77 240q-33 31 -92.5 53t-126.5 22q-97 0 -180 -50t-137.5 -132.5t-85 -188t-30.5 -218.5q0 -172 82.5 -273.5t223.5 -101.5q80 0 133 29l73 356
q1 5 -7 8q-6 1 -91 12l-53 7v12h467l-8 -12l-64 -7q-67 -7 -70 -22l-65 -314l82 17v-10q-87 -37 -202 -66t-212 -29z" />
    <glyph glyph-name="h.smallcap" horiz-adv-x="1126" 
d="M-41 0l8 12l58 6q71 8 75 23l189 881q1 4 -1 6t-12 4.5t-25 4.5t-46 5l-39 4l-2 12h450l-6 -12l-61 -6q-75 -8 -78 -22l-88 -420h436l90 424q1 4 -1 6t-11.5 4.5t-25 4.5t-46.5 5l-41 4l-2 12h451l-8 -12l-60 -6q-73 -8 -76 -22l-186 -881q-1 -4 1 -6.5t11 -5t25 -4.5
t45 -5l39 -4l2 -12h-449l9 12l59 6q74 8 78 23l90 432h-436l-92 -436q-1 -4 1 -6.5t11 -5t25 -4.5t45 -5l43 -4l2 -12h-451z" />
    <glyph glyph-name="i.smallcap" horiz-adv-x="542" 
d="M-27 0l9 12l61 6q72 9 76 23l188 881q1 4 -1 6t-12 4.5t-25 4.5t-46 5l-43 4l-2 12h455l-6 -12l-62 -6q-77 -8 -80 -22l-186 -881q-1 -4 1.5 -6.5t11.5 -5t25 -4.5t46 -5l43 -4l2 -12h-455z" />
    <glyph glyph-name="j.smallcap" horiz-adv-x="522" 
d="M-100 -266q-67 0 -103.5 30t-36.5 74q0 42 31.5 73.5t75.5 31.5q51 0 76.5 -34.5t15.5 -79t-53 -71.5q65 -15 117.5 59t82.5 216l191 889q1 4 -1 6.5t-11 5t-26 4.5t-46 4l-45 4v12h455l-9 -12l-61 -6q-72 -8 -76 -22l-194 -920q-6 -30 -45.5 -75t-94.5 -87t-122 -72
t-121 -30z" />
    <glyph glyph-name="j.smallcap.alt" horiz-adv-x="733" 
d="M219 -20q-112 0 -178 48.5t-66 110.5q0 49 32 82t79 33q39 0 66.5 -27t27.5 -63q0 -37 -21.5 -63.5t-64.5 -32.5q9 -31 43.5 -50.5t83.5 -19.5q65 0 101 46t61 161l152 717q1 4 -1 6.5t-11 5t-26 4.5t-46 4l-58 4l-4 12h483l-6 -12l-71 -6q-74 -5 -78 -22l-160 -756
q-7 -34 -58 -76.5t-129 -74t-151 -31.5z" />
    <glyph glyph-name="k.smallcap" horiz-adv-x="1056" 
d="M-39 0l6 12l62 6q67 8 71 23l189 881q1 4 -1 6.5t-9.5 5t-23.5 4.5t-44 4l-45 4l-2 12h463l-9 -12l-71 -6q-74 -6 -78 -22l-104 -492l282 238q205 172 229 225q15 35 -30 46q-19 4 -55 7l-52 4l-2 12h404l-8 -12l-35 -2q-24 -1 -43 -4.5t-43 -16t-40.5 -22.5t-53 -39
t-62.5 -50.5t-86 -72.5t-108 -90l-13 -10l180 -483q35 -94 55 -116.5t68 -25.5l39 -2v-12h-446l6 12l33 2q40 2 54.5 18t8.5 53.5t-33 113.5l-114 315l-142 -121l-75 -356q-1 -3 0.5 -5.5t6 -4.5t13.5 -4t24 -3.5t38 -3.5l53 -4l4 -12h-461z" />
    <glyph glyph-name="l.smallcap" horiz-adv-x="878" 
d="M-41 0l8 12l62 6q67 8 71 23l189 881q1 4 -1 6.5t-9.5 5t-23.5 4.5t-44 4l-45 4l-2 12h477l-8 -12l-86 -6q-74 -7 -78 -22l-190 -895l131 -7q69 0 122 18t100 60.5t84.5 93.5t88.5 136l12 20h12l-102 -344h-768z" />
    <glyph glyph-name="m.smallcap" horiz-adv-x="1277" 
d="M621 242l432 716h317l-8 -12l-59 -6q-73 -8 -76 -22l-187 -881q-1 -4 1 -6.5t11 -5t25 -4.5t45 -5l41 -4v-12h-452l6 12l67 6q70 5 74 23l180 848h-2l-536 -889h-21l-141 844q0 3 -1.5 15.5t-2.5 17t-2 0.5l-187 -807q-3 -14 5.5 -24t40 -19t88.5 -13l26 -2l2 -12h-352
l6 12l31 2q71 4 96.5 20t32.5 46l196 821q-24 40 -90 43l-43 2l-2 12h324z" />
    <glyph glyph-name="n.smallcap" horiz-adv-x="1046" 
d="M797 -8l-473 833h-2l-160 -753q-5 -23 21 -38.5t96 -19.5l30 -2v-12h-334l9 12l30 2q114 9 125 64l166 766q-53 89 -137 98l-16 2l-2 14h323l379 -684h2l129 613q5 22 -21 36.5t-96 20.5l-28 2l-2 12h333l-8 -12l-28 -2q-117 -9 -127 -65l-193 -887h-16z" />
    <glyph glyph-name="o.smallcap" horiz-adv-x="1128" 
d="M565 -20q-143 0 -253.5 63.5t-168 169t-57.5 233.5q0 80 25 157.5t73 144.5t113 118.5t151.5 81t182.5 29.5q141 0 252 -65t169 -172.5t58 -235.5q0 -104 -41 -199.5t-111.5 -167t-173 -114.5t-219.5 -43zM545 -2q106 0 195 93t137.5 236.5t48.5 297.5q0 149 -74.5 240
t-202.5 91q-85 0 -159 -61t-120.5 -156t-73 -205.5t-26.5 -214.5q0 -144 75 -232.5t200 -88.5z" />
    <glyph glyph-name="p.smallcap" horiz-adv-x="905" 
d="M-55 0l8 12l72 6q71 5 75 23l189 881q1 4 -1 6.5t-11 5t-26 4.5t-46 4l-53 4l-2 12h452q166 0 258 -65t92 -164q0 -120 -109.5 -199t-281.5 -79q-87 0 -186 22l-92 -436q-1 -6 3.5 -9.5t23.5 -6.5t55 -5l69 -4l2 -12h-491zM512 473q107 0 177.5 90t70.5 207
q0 74 -44.5 119.5t-121.5 48.5h-121l-92 -440q60 -25 131 -25z" />
    <glyph glyph-name="q.smallcap" horiz-adv-x="1128" 
d="M901 -279q-94 0 -166.5 12.5t-135 42.5t-103 84t-58.5 132q-161 39 -256.5 164t-95.5 290q0 80 25 157.5t73 144.5t113 118.5t151.5 81t182.5 29.5q141 0 252 -65t169 -172.5t58 -235.5q0 -125 -57 -236t-161.5 -186.5t-236.5 -95.5q31 -144 115.5 -195t257.5 -49v-12
q-65 -9 -127 -9zM545 -2q106 0 195 93t137.5 236.5t48.5 297.5q0 149 -74.5 240t-202.5 91q-85 0 -159 -61t-120.5 -156t-73 -205.5t-26.5 -214.5q0 -144 75 -232.5t200 -88.5z" />
    <glyph glyph-name="r.smallcap" horiz-adv-x="985" 
d="M-55 0l8 12l72 6q29 3 51 10t24 13l189 881q1 4 -1 6.5t-11 5t-26 4.5t-46 4l-53 4l-2 12h440q159 0 256.5 -63.5t97.5 -167.5t-85.5 -170.5t-225.5 -71.5l137 -315q38 -89 66 -119t88 -37l16 -2l4 -12h-311l-182 492q-33 12 -64 30l-104 -485q-3 -14 82 -21l59 -4v-12
h-479zM522 514q104 0 169 70t65 178q0 79 -52 128.5t-145 49.5h-84l-86 -399q74 -27 133 -27z" />
    <glyph glyph-name="s.smallcap" horiz-adv-x="778" 
d="M358 -20q-105 0 -193.5 27t-144.5 63l35 239l8 -2l35 -112q60 -197 252 -197q93 0 155 64.5t62 154.5q0 67 -48 116t-140 97q-227 118 -227 270q0 109 89 193t226 84q114 0 244 -62l73 17l-47 -258h-8l-80 215q-65 69 -164 69q-77 0 -130.5 -50.5t-53.5 -123.5
q0 -63 47 -109t135 -93q115 -61 177.5 -129t62.5 -160q0 -120 -103 -216.5t-262 -96.5z" />
    <glyph glyph-name="t.smallcap" horiz-adv-x="1024" 
d="M205 0l6 12l74 6q73 5 77 23l191 901h-59q-97 -7 -184.5 -82t-151.5 -174l-15 -22h-12l96 294h844l-37 -294h-10l-4 22q-22 117 -78 186.5t-151 69.5h-56l-194 -905q-1 -3 0 -5t3.5 -4t8.5 -3.5t15.5 -3t23.5 -3t33 -2.5l55 -4v-12h-475z" />
    <glyph glyph-name="u.smallcap" horiz-adv-x="1052" 
d="M547 -25q-181 0 -288 67.5t-107 199.5q0 61 16 139q117 537 117 541q0 6 -4.5 8.5t-22.5 5.5t-57 6l-54 4l-2 12h476l-7 -12l-73 -6q-72 -5 -76 -22l-113 -527q-16 -82 -16 -135q0 -223 266 -223q114 0 182.5 71t100.5 222l119 561q5 22 -21.5 36.5t-97.5 20.5l-27 2
l-2 12h332l-6 -12l-31 -2q-115 -8 -125 -65l-121 -557q-38 -175 -121 -261t-237 -86z" />
    <glyph glyph-name="v.smallcap" horiz-adv-x="995" 
d="M424 -18l-143 774q-24 132 -38 158.5t-69 29.5l-43 2l-2 12h459l-8 -12l-54 -2q-68 -3 -78.5 -24t5.5 -99l106 -592h4l277 473q81 139 90 160q23 51 -5 67q-21 12 -87 15l-41 2l-2 12h340l-9 -12l-24 -2q-40 -3 -61 -10.5t-51.5 -41.5t-60.5 -83t-93 -156q-3 -6 -5 -9
t-5 -8t-5 -9l-383 -645h-14z" />
    <glyph glyph-name="w.smallcap" horiz-adv-x="1523" 
d="M416 -25l-142 781q-23 126 -38.5 155.5t-69.5 32.5l-41 2v12h457l-9 -12l-49 -2q-62 -3 -76 -21.5t-4 -82.5l109 -619h2l295 486l-10 49q-26 122 -36 145q-16 36 -56 42q-7 1 -15 1l-45 2l-2 12h463l-8 -12l-49 -2q-64 -3 -78.5 -22.5t-3.5 -90.5l92 -608h2l278 482
q78 134 87 170q11 44 -31 58q-25 8 -74 11l-33 2l-2 12h340l-6 -12l-25 -2q-26 -2 -42 -5.5t-35 -16.5t-31.5 -25t-35.5 -46.5t-41.5 -65.5t-55.5 -95l-414 -715h-16l-111 699h-2l-424 -699h-14z" />
    <glyph glyph-name="x.smallcap" horiz-adv-x="1005" 
d="M-82 0l6 12l45 2q66 3 111 38t165 167q22 24 34 37l178 195l-138 309q-53 123 -66 144q-26 39 -67 40l-47 2l-2 12h447l-6 -12l-43 -2q-53 -3 -60.5 -27.5t27.5 -113.5l92 -225h2l125 139q114 126 133 158q25 42 -7 56q-22 9 -81 13l-31 2v12h363l-8 -12l-37 -2
q-32 -2 -55.5 -9t-46 -18.5t-56 -43.5t-65.5 -66t-95 -105l-131 -145l187 -418q34 -79 51.5 -101.5t52.5 -23.5l39 -2l4 -12h-440l6 12l43 2q53 3 66.5 22t-5.5 60l-143 334h-2l-168 -188q-114 -127 -132 -162q-21 -42 19 -56q22 -7 68 -10l31 -2l2 -12h-365z" />
    <glyph glyph-name="y.smallcap" horiz-adv-x="980" 
d="M182 0l8 12l72 6q74 6 78 23l86 399l-133 369q-27 80 -49.5 106t-71.5 29l-37 2l-2 12h455l-8 -12l-29 -2q-70 -4 -86 -28t4 -76l129 -363h4l166 228q100 136 114 164q22 43 -6 57q-19 9 -79 16l-35 4l-2 12h344l-8 -12l-41 -4q-57 -6 -107 -52.5t-160 -195.5l-180 -241
l-88 -416q-1 -3 0.5 -5.5t6 -4.5t13.5 -4t24 -3.5t38 -3.5l53 -4l2 -12h-475z" />
    <glyph glyph-name="z.smallcap" horiz-adv-x="911" 
d="M-25 0l2 8l777 928v2l-146 2q-87 1 -158 -18.5t-121.5 -58t-86 -82t-64.5 -101.5l-8 -16h-10l65 294h754l-2 -10l-782 -925v-3l165 -2q96 -1 167.5 16t127.5 58t97.5 94.5t87.5 137.5l12 22h12l-100 -346h-789z" />
    <glyph glyph-name="fi.smallcap" horiz-adv-x="1419" 
d="M850 0l8 12l62 6q71 8 75 23l189 881q1 4 -1 6t-12 4.5t-25 4.5t-46 5l-43 4l-2 12h454l-6 -12l-61 -6q-77 -8 -80 -22l-186 -881q-1 -4 1.5 -6.5t11.5 -5t25 -4.5t46 -5l43 -4l2 -12h-455zM-41 0l8 12l62 6q67 8 71 23l189 881q1 4 -1 6.5t-9.5 5t-23.5 4.5t-44 4l-45 4
l-2 12h739l-4 -309h-14l-6 19q-14 43 -22.5 67.5t-22 56.5t-24.5 48.5t-27 36.5t-34 30t-42.5 19t-54 12t-66.5 2l-113 -2l-94 -446l67 4q108 6 159 34t85 101l12 26l15 -2l-78 -352h-12v25q0 86 -38 113t-159 32l-55 2l-92 -438q-1 -6 3.5 -9.5t23.5 -6.5t55 -5l69 -4
l2 -12h-477z" />
    <glyph glyph-name="fl.smallcap" horiz-adv-x="1755" 
d="M836 0l8 12l61 6q68 8 72 23l188 881q1 4 -1 6.5t-9.5 5t-23.5 4.5t-44 4l-45 4l-2 12h478l-9 -12l-86 -6q-73 -6 -77 -22l-191 -895l131 -7q69 0 122 18t100 60.5t84.5 93.5t88.5 136l13 20h12l-102 -344h-768zM-41 0l8 12l62 6q67 8 71 23l189 881q1 4 -1 6.5t-9.5 5
t-23.5 4.5t-44 4l-45 4l-2 12h739l-4 -309h-14l-6 19q-14 43 -22.5 67.5t-22 56.5t-24.5 48.5t-27 36.5t-34 30t-42.5 19t-54 12t-66.5 2l-113 -2l-94 -446l67 4q108 6 159 34t85 101l12 26l15 -2l-78 -352h-12v25q0 86 -38 113t-159 32l-55 2l-92 -438q-1 -6 3.5 -9.5
t23.5 -6.5t55 -5l69 -4l2 -12h-477z" />
    <glyph glyph-name="ff.smallcap" horiz-adv-x="1753" 
d="M836 0l8 12l61 6q68 8 72 23l188 881q1 4 -1 6.5t-9.5 5t-23.5 4.5t-44 4l-45 4l-2 12h740l-4 -309h-15l-6 19q-14 43 -22.5 67.5t-22 56.5t-24.5 48.5t-27 36.5t-34 30t-42.5 19t-54 12t-66.5 2l-112 -2l-95 -446l68 4q108 6 159 34t85 101l12 26l14 -2l-77 -352h-13v25
q0 86 -37.5 113t-158.5 32l-56 2l-92 -438q-1 -6 3.5 -9.5t23.5 -6.5t55 -5l70 -4l2 -12h-477zM-41 0l8 12l62 6q67 8 71 23l189 881q1 4 -1 6.5t-9.5 5t-23.5 4.5t-44 4l-45 4l-2 12h739l-4 -309h-14l-6 19q-14 43 -22.5 67.5t-22 56.5t-24.5 48.5t-27 36.5t-34 30
t-42.5 19t-54 12t-66.5 2l-113 -2l-94 -446l67 4q108 6 159 34t85 101l12 26l15 -2l-78 -352h-12v25q0 86 -38 113t-159 32l-55 2l-92 -438q-1 -6 3.5 -9.5t23.5 -6.5t55 -5l69 -4l2 -12h-477z" />
    <glyph glyph-name="ffi.smallcap" horiz-adv-x="2295" 
d="M836 0l8 12l61 6q68 8 72 23l188 881q1 4 -1 6.5t-9.5 5t-23.5 4.5t-44 4l-45 4l-2 12h740l-4 -309h-15l-6 19q-14 43 -22.5 67.5t-22 56.5t-24.5 48.5t-27 36.5t-34 30t-42.5 19t-54 12t-66.5 2l-112 -2l-95 -446l68 4q108 6 159 34t85 101l12 26l14 -2l-77 -352h-13v25
q0 86 -37.5 113t-158.5 32l-56 2l-92 -438q-1 -6 3.5 -9.5t23.5 -6.5t55 -5l70 -4l2 -12h-477zM1726 0l9 12l61 6q72 9 76 23l188 881q1 4 -1 6t-12 4.5t-25 4.5t-46 5l-43 4l-2 12h455l-6 -12l-62 -6q-77 -8 -80 -22l-186 -881q-1 -4 1.5 -6.5t11.5 -5t25 -4.5t46 -5l43 -4
l2 -12h-455zM-41 0l8 12l62 6q67 8 71 23l189 881q1 4 -1 6.5t-9.5 5t-23.5 4.5t-44 4l-45 4l-2 12h739l-4 -309h-14l-6 19q-14 43 -22.5 67.5t-22 56.5t-24.5 48.5t-27 36.5t-34 30t-42.5 19t-54 12t-66.5 2l-113 -2l-94 -446l67 4q108 6 159 34t85 101l12 26l15 -2
l-78 -352h-12v25q0 86 -38 113t-159 32l-55 2l-92 -438q-1 -6 3.5 -9.5t23.5 -6.5t55 -5l69 -4l2 -12h-477z" />
    <glyph glyph-name="ffl.smallcap" horiz-adv-x="2631" 
d="M1712 0l8 12l62 6q67 8 71 23l189 881q1 4 -1 6.5t-9.5 5t-23.5 4.5t-44 4l-45 4l-2 12h477l-8 -12l-86 -6q-74 -7 -78 -22l-190 -895l131 -7q69 0 122 18t100 60.5t84.5 93.5t88.5 136l12 20h13l-103 -344h-768zM836 0l8 12l61 6q68 8 72 23l188 881q1 4 -1 6.5t-9.5 5
t-23.5 4.5t-44 4l-45 4l-2 12h740l-4 -309h-15l-6 19q-14 43 -22.5 67.5t-22 56.5t-24.5 48.5t-27 36.5t-34 30t-42.5 19t-54 12t-66.5 2l-112 -2l-95 -446l68 4q108 6 159 34t85 101l12 26l14 -2l-77 -352h-13v25q0 86 -37.5 113t-158.5 32l-56 2l-92 -438q-1 -6 3.5 -9.5
t23.5 -6.5t55 -5l70 -4l2 -12h-477zM-41 0l8 12l62 6q67 8 71 23l189 881q1 4 -1 6.5t-9.5 5t-23.5 4.5t-44 4l-45 4l-2 12h739l-4 -309h-14l-6 19q-14 43 -22.5 67.5t-22 56.5t-24.5 48.5t-27 36.5t-34 30t-42.5 19t-54 12t-66.5 2l-113 -2l-94 -446l67 4q108 6 159 34
t85 101l12 26l15 -2l-78 -352h-12v25q0 86 -38 113t-159 32l-55 2l-92 -438q-1 -6 3.5 -9.5t23.5 -6.5t55 -5l69 -4l2 -12h-477z" />
    <glyph glyph-name="germandbls.smallcap" horiz-adv-x="1556" 
d="M1137 -20q-105 0 -193.5 27t-144.5 63l35 239l8 -2l35 -112q60 -197 251 -197q93 0 155.5 64.5t62.5 154.5q0 67 -48 116t-141 97q-227 118 -227 270q0 109 89 193t226 84q114 0 244 -62l74 17l-47 -258h-9l-80 215q-65 69 -163 69q-77 0 -131 -50.5t-54 -123.5
q0 -63 47.5 -109t135.5 -93q114 -61 176.5 -129t62.5 -160q0 -120 -102.5 -216.5t-261.5 -96.5zM358 -20q-105 0 -193.5 27t-144.5 63l35 239l8 -2l35 -112q60 -197 252 -197q93 0 155 64.5t62 154.5q0 67 -48 116t-140 97q-227 118 -227 270q0 109 89 193t226 84
q114 0 244 -62l73 17l-47 -258h-8l-80 215q-65 69 -164 69q-77 0 -130.5 -50.5t-53.5 -123.5q0 -63 47 -109t135 -93q115 -61 177.5 -129t62.5 -160q0 -120 -103 -216.5t-262 -96.5z" />
    <glyph glyph-name="agrave.smallcap" horiz-adv-x="964" 
d="M532 410h-241l-86 -154q-9 -15 -25 -44q-75 -122 -72 -157.5t107 -40.5l39 -2l2 -12h-338l6 12l27 2q27 2 43 5t36 17.5t33 29.5t39.5 56t49.5 81.5t68 119.5q3 6 5 9l273 483l-6 66q46 7 78 32t65 70h22l74 -772q8 -81 23.5 -123t35.5 -55.5t58 -16.5l45 -4l2 -12h-469
l10 12l43 2q56 3 68.5 33.5t5.5 112.5zM303 432h227l-26 352h-2zM680 1067l-281 383h176l121 -383h-16z" />
    <glyph glyph-name="aacute.smallcap" horiz-adv-x="964" 
d="M532 410h-241l-86 -154q-9 -15 -25 -44q-75 -122 -72 -157.5t107 -40.5l39 -2l2 -12h-338l6 12l27 2q27 2 43 5t36 17.5t33 29.5t39.5 56t49.5 81.5t68 119.5q3 6 5 9l273 483l-6 66q46 7 78 32t65 70h22l74 -772q8 -81 23.5 -123t35.5 -55.5t58 -16.5l45 -4l2 -12h-469
l10 12l43 2q56 3 68.5 33.5t5.5 112.5zM303 432h227l-26 352h-2zM571 1067l260 383h197l-442 -383h-15z" />
    <glyph glyph-name="acircumflex.smallcap" horiz-adv-x="964" 
d="M532 410h-241l-86 -154q-9 -15 -25 -44q-75 -122 -72 -157.5t107 -40.5l39 -2l2 -12h-338l6 12l27 2q27 2 43 5t36 17.5t33 29.5t39.5 56t49.5 81.5t68 119.5q3 6 5 9l273 483l-6 66q46 7 78 32t65 70h22l74 -772q8 -81 23.5 -123t35.5 -55.5t58 -16.5l45 -4l2 -12h-469
l10 12l43 2q56 3 68.5 33.5t5.5 112.5zM303 432h227l-26 352h-2zM381 1044l352 404h15l186 -404h-16l-199 228h-6l-320 -228h-12z" />
    <glyph glyph-name="atilde.smallcap" horiz-adv-x="964" 
d="M532 410h-241l-86 -154q-9 -15 -25 -44q-75 -122 -72 -157.5t107 -40.5l39 -2l2 -12h-338l6 12l27 2q27 2 43 5t36 17.5t33 29.5t39.5 56t49.5 81.5t68 119.5q3 6 5 9l273 483l-6 66q46 7 78 32t65 70h22l74 -772q8 -81 23.5 -123t35.5 -55.5t58 -16.5l45 -4l2 -12h-469
l10 12l43 2q56 3 68.5 33.5t5.5 112.5zM303 432h227l-26 352h-2zM819 1079q-52 0 -120.5 31.5t-128.5 62.5t-93 31q-25 0 -37 -2t-27 -12t-24 -32.5t-16 -61.5h-17q25 122 60.5 169.5t107.5 47.5q51 0 119 -31.5t129 -62.5t94 -31q46 0 69.5 19t37.5 89h16
q-25 -120 -61.5 -168.5t-108.5 -48.5z" />
    </font>
</defs>
</svg>
